<svg viewBox="0 0 128 128" fill="none" xmlns="http://www.w3.org/2000/svg">
<g clip-path="url(#clip0)">
<path d="M64 -0.000127316C30.8629 -0.000130213 4.00001 26.8628 4.00001 59.9999C4 93.137 30.8629 120 64 120C97.1371 120 124 93.137 124 59.9999C124 26.8628 97.1371 -0.000124419 64 -0.000127316Z" fill="#F0F3F9"/>
<g clip-path="url(#clip1)">
<path d="M42.7999 64.3222L44.8901 48.4811L26.7607 35.7857L43.3253 41.4456L47.2373 35.3911L61.5216 26.4501L93.0076 43.9486L94.6395 70.6474L80.6122 90.3106L69.5245 92.0244L75.2583 81.4374V71.2449L71.0893 63.2849L66.8531 60.4549L60.3369 67.2311V74.4019L55.2513 79.2049L48.7909 79.9942L45.9295 81.629L41.2351 80.1182L39.2791 73.0151L42.7999 68.0203V64.3222Z" fill="white"/>
<path d="M71.7488 35.6505C68.2951 34.9289 64.5172 35.1205 64.5172 35.1205C64.5172 35.1205 63.2765 40.9045 55.5867 42.4266C55.6426 42.4266 65.7467 45.9105 71.7488 35.6505Z" fill="#94A6C3"/>
<path d="M74.8782 88.1347C79.0473 84.8424 82.1769 80.31 83.6188 75.1799C83.6858 74.9883 84.267 74.65 84.6582 74.3907C85.3065 73.9961 85.966 73.6691 86.0889 73.1392C86.346 71.6284 86.4801 70.0499 86.4801 68.4714C86.4801 67.8851 85.8877 67.2876 85.3065 66.7013C84.8482 66.3067 84.39 65.8444 84.39 65.5174C83.7417 59.5305 81.0033 53.9382 76.633 49.868L76.1748 50.3303C80.4109 54.3441 83.1493 59.8011 83.7417 65.5851C83.8088 66.115 84.3229 66.6336 84.8482 67.1636C85.3065 67.5582 85.8318 68.1557 85.8318 68.4151C85.8318 69.9259 85.6977 71.4367 85.4406 72.9475C85.3736 73.2068 84.7924 73.4774 84.3341 73.7368C83.6858 74.0637 83.0934 74.3907 82.9705 74.9206C81.4057 80.5129 77.8178 85.3836 73.0564 88.5406C73.9058 86.7028 76.5772 80.7159 78.0078 77.6829L77.7508 67.9528L69.4685 59.8688L64.7741 60.5227L59.6214 68.945C59.6214 68.945 62.0357 72.0343 58.6379 75.6535C55.3183 79.205 52.7028 79.9943 52.7028 79.9943L50.2885 78.6751C51.0039 77.7506 52.4457 76.3751 53.5523 75.4505C55.4412 73.8721 57.3301 73.7368 57.3301 72.0343C57.4084 68.4714 53.6193 69.4523 53.6193 69.4523L52.2445 70.7715L51.6633 75.6422L48.802 79.2614L48.4778 79.1938L43.7834 78.1452C43.7834 78.1452 46.656 76.6344 47.1142 74.9206C47.5725 73.2745 46.1977 67.8175 46.1306 67.4905C46.1977 67.5582 47.5054 68.6744 48.0866 70.5122C49.1261 67.6145 50.5009 64.8522 50.8921 64.5929C51.2833 64.3336 56.5589 61.5036 56.5589 61.5036L54.8041 66.1714L56.1118 65.4498L59.2414 57.6927C59.2414 57.6927 62.304 56.1819 64.5841 56.1819C68.6861 56.1142 74.7553 51.0519 72.0169 41.9756C72.7993 42.3026 86.3572 49.1464 88.7044 62.5634C90.4592 72.8799 84.6582 82.5424 74.8782 88.1347Z" fill="#94A6C3"/>
<path d="M59.3644 37.0937C60.8622 35.3123 60.281 32.6852 60.281 32.6852L55.9107 39.2021C55.8436 39.2021 57.4643 39.2697 59.3644 37.0937Z" fill="#1B314F"/>
<path d="M44.6887 72.6768L45.2141 70.0498C45.2141 70.0498 43.0569 73.8607 42.8669 74.3906C42.6657 74.9882 43.001 76.0367 43.8393 75.9691C44.6887 75.9014 45.7282 74.6499 45.7282 73.7367C45.7282 72.5528 44.6887 72.6768 44.6887 72.6768Z" fill="#1B314F"/>
<path d="M83.4162 30.8472C83.4162 30.8472 86.6799 30.9825 90.0666 31.3772C82.4326 25.3226 75.201 23.5524 69.333 23.5524C61.252 23.5524 55.7752 26.9123 55.4398 27.104L57.9882 23.0225C57.9882 23.0225 47.817 22.0303 44.2292 32.888C43.3127 30.5879 42.4744 27.228 42.4744 27.228C42.4744 27.228 37.1876 31.9071 39.6689 39.6641C33.5997 37.4317 24.9374 34.3312 24.6021 34.2748C24.1439 34.2071 24.0097 34.4101 24.0097 34.4101C24.0097 34.4101 23.8756 34.6018 24.2668 34.94C24.9933 35.515 38.6853 45.7187 41.692 47.6918C41.0437 50.0595 41.0437 51.1757 41.692 52.2919C42.6085 53.8027 42.6644 54.592 42.5414 55.7082C42.4073 56.8244 41.2337 66.4982 40.9766 67.682C40.7196 68.8659 37.9812 73.0714 38.1041 74.3229C38.2382 75.5744 39.926 80.8961 41.4349 81.4937C42.5414 81.8883 45.2798 82.7452 47.1017 82.7452C47.75 82.7452 48.3424 82.6099 48.5994 82.3506C49.706 81.3696 50.0301 81.1667 50.8125 81.1667C50.8796 81.1667 50.9466 81.1667 51.0025 81.1667C51.3267 81.1667 51.7179 81.2343 52.1761 81.2343C53.2156 81.2343 54.5904 81.0314 55.5628 80.1181C56.9935 78.675 59.4748 76.7019 60.2572 75.7773C61.2408 74.5258 61.7549 72.8233 61.4979 71.1096C61.2967 69.5311 62.1461 68.1443 63.1297 66.7688C64.3704 65.1226 66.6505 62.1686 66.6505 62.1686C71.1549 65.5736 73.9604 70.7713 73.9604 76.5553C73.9604 86.8154 65.0969 95.1024 54.1433 95.1024C52.4444 95.1024 50.8237 94.9107 49.1918 94.5161C54.2104 96.2862 58.4465 96.8838 61.9114 96.8838C69.2771 96.8838 73.1891 94.1891 73.1891 94.1891C73.1891 94.1891 71.8255 95.9705 69.6013 98C69.6683 98 69.6683 98 69.6683 98C81.8626 96.2862 87.7977 86.1614 87.7977 86.1614C87.7977 86.1614 87.3394 89.4537 86.7582 91.6861C102.976 79.3853 100.238 63.9952 100.171 63.4765C100.305 63.6682 101.937 65.6413 102.775 66.7011C105.39 39.5965 83.4162 30.8472 83.4162 30.8472ZM58.4465 74.1312C58.1894 74.4582 57.0829 75.4504 56.3005 76.172C55.5181 76.8935 54.6686 77.6151 54.0204 78.2803C53.7633 78.5397 53.238 78.675 52.4556 78.675C52.1985 78.675 51.9302 78.675 51.7402 78.675C51.6061 78.675 51.4831 78.675 51.349 78.675C51.2149 78.675 51.1478 78.675 51.0919 78.675C50.8908 78.675 50.7007 78.675 50.4996 78.675C51.4831 77.3558 54.3445 74.3342 55.3281 73.6802C56.5017 72.891 57.0941 72.1018 56.3676 70.7262C55.6522 69.3394 53.7633 69.6777 53.7633 69.6777C53.7633 69.6777 54.8698 69.2154 55.8534 69.2154C54.6127 68.8884 53.0479 69.2154 52.3326 69.937C51.5502 70.6586 51.6843 73.2292 51.3602 74.8641C51.0361 76.5778 49.9295 77.4347 48.2306 79.0132C47.3141 79.8701 46.6658 80.1294 46.1405 80.1294C45.0339 79.9377 43.7262 79.5995 42.8097 79.2725C42.1614 78.4156 41.1778 75.5857 40.9207 74.4018C41.1108 73.7479 41.8932 72.3611 42.2844 71.5718C43.0668 70.061 43.525 69.2041 43.6591 68.4149C43.9162 67.2987 44.7657 60.3872 45.0898 57.5009C45.9393 58.6171 47.1129 60.4662 46.8446 61.65C48.7336 58.9553 47.37 56.317 46.7105 55.2685C46.1293 54.2199 45.3469 52.1115 45.9952 49.8791C46.6434 47.6467 48.9906 41.4568 48.9906 41.4568C48.9906 41.4568 49.773 42.8436 50.8796 42.573C51.9861 42.3137 60.9166 28.7614 60.9166 28.7614C60.9166 28.7614 63.3309 34.0831 60.7825 37.9729C58.1782 41.8515 55.6299 42.573 55.6299 42.573C55.6299 42.573 59.2177 43.227 62.5373 40.7916C63.9009 44.0162 65.2087 47.3648 65.2757 47.8271C65.0745 48.2894 62.4703 54.6033 62.2132 54.9979C62.0791 55.1332 61.1737 55.3925 60.5143 55.5278C59.4077 55.8548 58.7595 56.0577 58.4912 56.2494C58.0329 56.644 55.9428 62.428 54.9704 65.2579C53.7968 65.5849 52.6232 66.2501 51.7737 67.558C52.232 67.231 53.6627 67.0281 54.7133 66.9041C55.6299 66.8364 58.4241 68.3472 59.1507 71.1772C59.1507 71.2449 59.1507 71.2449 59.1507 71.3125C59.296 72.3498 58.9718 73.342 58.4465 74.1312ZM52.3214 74.9205C52.9138 74.0636 52.8468 72.6204 52.9138 72.1581C52.9809 71.6959 53.1038 70.839 53.6292 70.715C54.1545 70.5797 55.3951 70.7826 55.3951 71.6959C55.3951 72.5527 54.4786 72.7444 53.8303 73.342C53.3609 73.793 52.4444 74.7852 52.3214 74.9205ZM78.3306 62.349C78.9789 59.0004 79.046 56.1028 78.8559 53.7351C81.3932 57.1514 82.958 61.3005 83.4162 65.5736C83.4833 66.1036 83.9974 66.6222 84.5228 67.1521C84.981 67.5467 85.5063 68.0766 85.5063 68.4036C85.5063 69.9144 85.3722 71.4253 85.1151 72.9474C85.0481 73.139 84.4669 73.4773 84.0086 73.7366C83.3603 74.0636 82.7679 74.3905 82.645 74.9205C81.2143 79.9828 78.1406 84.4589 74.0386 87.6159C80.0966 81.2343 83.025 70.7037 78.3306 62.349ZM74.2286 88.2022C78.4647 84.9099 81.7285 80.3098 83.1591 75.1121C83.2262 74.9205 83.8074 74.5822 84.1986 74.3229C84.8469 73.9959 85.5063 73.6013 85.6293 73.0714C85.8864 71.5606 86.0205 69.9821 86.0205 68.4036C86.0205 67.8173 85.4281 67.2198 84.8469 66.6335C84.5228 66.2389 83.9974 65.7766 83.9974 65.4496C83.4721 60.6466 81.5832 56.1141 78.6548 52.3596C77.347 44.4672 72.1385 42.0318 72.0044 41.9642C72.1385 42.1671 75.5252 47.0942 73.178 52.8782C70.7637 58.7298 64.5716 57.8166 64.0462 57.8729C63.5209 57.8729 61.509 60.5 58.9606 65.3707C58.6365 65.2354 57.2617 64.9084 55.6969 65.179C56.8705 61.8868 58.6365 57.219 58.9606 56.8244C59.0948 56.6891 60.0672 56.4298 60.7266 56.2381C61.9673 55.9111 62.5485 55.7082 62.7497 55.4489C62.8838 55.2459 63.5321 53.7351 64.1804 52.1566C64.7728 52.1566 66.2705 52.0213 66.3934 51.9537C66.5276 51.8184 67.7682 48.6051 67.7682 48.2104C67.7682 47.8835 65.2198 41.5019 64.2474 39.0666C64.7057 38.5367 65.164 37.8827 65.611 37.1611C78.9789 38.6156 89.4183 50.0595 89.4183 63.9275C89.4183 74.5822 83.2262 83.8614 74.2286 88.2022Z" fill="#1B314F"/>
<path d="M56.8832 52.6866C58.1238 51.2434 57.4756 48.5487 55.1843 48.0865C55.7766 46.7109 56.6149 43.9486 56.6149 43.9486C56.6149 43.9486 49.9645 54.468 49.3833 54.671C48.7909 54.8739 48.2097 52.5626 48.2097 52.5626C46.9691 57.3656 50.2998 58.0196 50.691 56.5087C52.5129 56.0352 55.6425 54.0621 56.8832 52.6866Z" fill="#1B314F"/>
<path d="M51.2053 55.246L54.592 49.3944C54.592 49.3944 56.548 50.3866 55.5644 51.9651C54.3349 53.8029 51.2053 55.246 51.2053 55.246Z" fill="#FFD923"/>
<path d="M93.1306 82.3506C92.147 83.6698 91.0404 85.0453 89.7439 86.3645C98.1491 70.0498 90.1351 55.122 89.811 54.5357C90.4033 55.1333 90.9846 55.7872 91.5099 56.3735C97.9591 63.6006 98.7415 74.4583 93.1306 82.3506Z" fill="#D82122"/>
<path d="M100.954 61.3682C98.0148 53.4082 93.8458 46.6321 84.6581 40.5211C75.7947 34.6019 66.2718 35.0641 65.7464 35.1318C65.6794 35.1318 65.6123 35.1318 65.6123 35.1318C65.9364 34.9965 66.2606 34.9288 66.5847 34.8725C68.6078 34.2185 71.212 33.6886 73.8275 33.3616C80.7461 32.3582 87.7207 34.7259 92.4821 39.7995C92.5492 39.8672 92.5492 39.8672 92.6163 39.9348C98.026 45.7188 100.831 52.946 100.954 61.3682Z" fill="#D82122"/>
<path d="M82.5682 28.8066C72.8553 26.9688 66.5961 27.8821 62.0917 29.5959C61.9576 29.0659 61.4993 28.0174 61.1081 27.1605C59.7557 28.8066 58.3138 30.7797 57.4085 32.0312C54.9272 33.745 53.8877 35.3911 53.8877 35.3911C55.3184 30.4527 59.4986 26.7772 64.5842 25.8526C66.0149 25.5933 67.5797 25.458 69.2786 25.458C73.7718 25.5257 78.265 26.6419 82.5682 28.8066Z" fill="#D82122"/>
<path d="M46.6448 41.4344C39.022 41.1751 41.5592 32.2229 41.6934 31.7042C41.6934 31.7719 42.2075 38.7397 46.6448 41.4344Z" fill="#D82122"/>
<path d="M54.1447 25.3227C48.2767 28.8743 49.4503 37.3529 49.4503 37.3529C43.8394 28.7502 53.6865 25.5256 54.1447 25.3227Z" fill="#D82122"/>
<path d="M44.4988 43.8022C44.89 44.1292 45.2812 44.7267 44.823 45.5836C44.5659 46.0459 44.1747 45.9782 43.5823 45.7189C42.7999 45.3243 38.1055 42.562 33.8694 39.732C38.6979 41.4458 43.5823 43.2836 44.3647 43.6782C44.3647 43.6782 44.4318 43.7458 44.4988 43.8022Z" fill="white"/>
</g>
<path d="M64 118C96.0325 118 122 92.0325 122 60C122 27.9675 96.0325 2 64 2C31.9675 2 6 27.9675 6 60C6 92.0325 31.9675 118 64 118Z" stroke="black" stroke-opacity="0.097"/>
</g>
<defs>
<clipPath id="clip0">
<rect width="128" height="128" fill="white"/>
</clipPath>
<clipPath id="clip1">
<rect width="79" height="75" fill="white" transform="translate(24 23.0001)"/>
</clipPath>
</defs>
</svg>
