<svg viewBox="0 0 128 128" fill="none" xmlns="http://www.w3.org/2000/svg">
<path d="M64 120C97.1371 120 124 93.1371 124 60C124 26.8629 97.1371 0 64 0C30.8629 0 4 26.8629 4 60C4 93.1371 30.8629 120 64 120Z" fill="url(#paint0_linear)"/>
<path d="M96.0875 89.05L71.4875 29.575C70.1 26.5 68.0375 25 65.3188 25H63.1438C60.425 25 58.3625 26.5 56.975 29.575L46.2688 55.4875H38.1687C35.75 55.5063 33.7812 57.4563 33.7625 59.8938V59.95C33.7812 62.3688 35.75 64.3375 38.1687 64.3563H42.5188L32.3 89.05C32.1125 89.5938 32 90.1563 32 90.7375C32 92.125 32.4312 93.2125 33.2 94.0563C33.9687 94.9 35.075 95.3125 36.4625 95.3125C37.3813 95.2938 38.2625 95.0125 38.9937 94.4688C39.7812 93.925 40.325 93.1375 40.7563 92.2375L52.0063 64.3375H59.8062C62.225 64.3188 64.1937 62.3688 64.2125 59.9313V59.8188C64.1937 57.4 62.225 55.4313 59.8062 55.4125H55.6438L64.2312 34.0188L87.6313 92.2188C88.0625 93.1188 88.6062 93.9063 89.3937 94.45C90.125 94.9938 91.025 95.275 91.925 95.2938C93.3125 95.2938 94.4 94.8813 95.1875 94.0375C95.975 93.1938 96.3875 92.1063 96.3875 90.7188C96.4063 90.1563 96.3125 89.575 96.0875 89.05Z" fill="white"/>
<path d="M64 118C96.0325 118 122 92.0325 122 60C122 27.9675 96.0325 2 64 2C31.9675 2 6 27.9675 6 60C6 92.0325 31.9675 118 64 118Z" stroke="black" stroke-opacity="0.097"/>
<defs>
<linearGradient id="paint0_linear" x1="98.5" y1="11" x2="22.5" y2="100.5" gradientUnits="userSpaceOnUse">
<stop stop-color="#B6519F"/>
<stop offset="1" stop-color="#2FBBC7"/>
</linearGradient>
</defs>
</svg>
