<svg viewBox="0 0 128 128" fill="none" xmlns="http://www.w3.org/2000/svg">
<g clip-path="url(#clip0)">
<path d="M64 -0.000249386C30.8629 -0.000252283 4.00001 26.8627 4.00001 59.9997C4 93.1368 30.8629 120 64 120C97.1371 120 124 93.1368 124 59.9998C124 26.8627 97.1371 -0.000246489 64 -0.000249386Z" fill="#0033AD"/>
<g clip-path="url(#clip1)">
<path d="M43.3977 59.7042C43.2078 62.9937 45.7473 65.8099 49.0462 65.9992C49.1649 65.9992 49.2836 65.9992 49.4022 65.9992C52.7249 65.9992 55.4068 63.325 55.383 60.0119C55.383 56.6988 52.7012 54.0246 49.3785 54.0483C46.1982 54.0483 43.5638 56.5331 43.3977 59.7042Z" fill="white"/>
<path d="M21.0411 58.1659C19.9731 58.0949 19.0475 58.9232 19 59.9881C18.9526 61.053 19.7595 61.976 20.8275 62.0233C21.8955 62.0943 22.7974 61.266 22.8686 60.2011C22.9398 59.1361 22.1091 58.2369 21.0411 58.1659Z" fill="white"/>
<path d="M43.0181 25.0109C43.9675 24.5376 44.3472 23.3544 43.8725 22.4078C43.3979 21.4612 42.2112 21.0825 41.2619 21.5558C40.3125 22.0291 39.9328 23.1887 40.4075 24.1353C40.8821 25.1056 42.0451 25.5079 43.0181 25.0109C43.0181 25.0109 42.9944 25.0109 43.0181 25.0109Z" fill="white"/>
<path d="M49.0938 35.5892C50.5653 34.8556 51.1586 33.0571 50.4229 31.5898C49.6871 30.1226 47.8834 29.5309 46.4119 30.2646C44.9405 30.9982 44.3471 32.7967 45.0829 34.264C45.8186 35.7312 47.6223 36.3229 49.0938 35.5892Z" fill="white"/>
<path d="M28.6358 42.8544C29.775 43.588 31.2939 43.2803 32.0534 42.1444C32.7891 41.0085 32.4806 39.4939 31.3414 38.7366C30.2022 38.003 28.6832 38.3106 27.9238 39.4466C27.1643 40.5825 27.4966 42.1207 28.6358 42.8544Z" fill="white"/>
<path d="M32.267 57.101C30.6057 57.0063 29.2054 58.2606 29.1105 59.9171C29.0156 61.5737 30.2734 62.9699 31.9348 63.0646C33.5961 63.1593 34.9964 61.905 35.0913 60.2484C35.1862 58.6155 33.9284 57.1956 32.267 57.101Z" fill="white"/>
<path d="M28.9678 77.1454C27.7574 77.7607 27.259 79.2279 27.8761 80.4585C28.4932 81.6654 29.9646 82.1624 31.1988 81.5471C32.4092 80.9318 32.9076 79.4646 32.2905 78.234C31.6734 77.027 30.1782 76.5301 28.9678 77.1454Z" fill="white"/>
<path d="M40.5976 50.9244C42.2352 51.9893 44.4187 51.5397 45.4629 49.9068C46.5309 48.2739 46.08 46.0967 44.4424 45.0554C42.8048 43.9905 40.6213 44.4401 39.5771 46.073C38.5091 47.6822 38.96 49.8594 40.5976 50.9244Z" fill="white"/>
<path d="M77.5027 35.3525C78.8793 36.2518 80.7542 35.8731 81.6561 34.5005C82.5579 33.1279 82.1782 31.2584 80.8017 30.3591C79.4251 29.4598 77.5502 29.8385 76.6483 31.2111C75.7227 32.6073 76.1025 34.4532 77.5027 35.3525Z" fill="white"/>
<path d="M83.6257 24.8217C84.5275 25.4134 85.7142 25.153 86.3075 24.2538C86.9009 23.3545 86.6398 22.1712 85.7379 21.5796C84.8361 20.988 83.6494 21.2483 83.0561 22.1239C82.4865 23.0232 82.7475 24.2301 83.6257 24.8217Z" fill="white"/>
<path d="M77.9539 54.0007C74.655 53.8114 71.807 56.3435 71.6408 59.633C71.451 62.9225 73.9905 65.7623 77.2894 65.928C77.4081 65.928 77.5267 65.928 77.6217 65.928C80.9206 65.928 83.6025 63.2538 83.6025 59.9407C83.6262 56.7932 81.1342 54.1663 77.9539 54.0007Z" fill="white"/>
<path d="M51.0637 50.4984C52.0843 52.51 54.1491 53.7879 56.4275 53.7879C59.7264 53.7879 62.4083 51.1137 62.4083 47.8006C62.4083 46.8777 62.1947 45.9547 61.7675 45.1028C60.2723 42.1446 56.6648 40.9614 53.7219 42.4523C50.7552 43.9668 49.5685 47.564 51.0637 50.4984Z" fill="white"/>
<path d="M98.0319 42.8543C99.2423 42.239 99.717 40.7481 99.0999 39.5412C98.4828 38.3343 96.9876 37.8609 95.7772 38.4762C94.5668 39.0915 94.0922 40.5588 94.6855 41.7657C95.3263 42.9726 96.7978 43.4696 98.0319 42.8543Z" fill="white"/>
<path d="M82.8425 44.7475C81.11 45.6232 80.398 47.7294 81.2761 49.4569C82.1542 51.1845 84.2665 51.8944 85.999 51.0188C87.7316 50.1432 88.4436 48.037 87.5654 46.3094C86.6873 44.5819 84.575 43.8956 82.8425 44.7475Z" fill="white"/>
<path d="M63.2629 23.9222C64.6157 23.9932 65.7786 22.9519 65.8736 21.603C65.9685 20.2541 64.9005 19.0945 63.5477 18.9998C62.1949 18.9288 61.032 19.9464 60.937 21.2954C60.8658 22.6679 61.9101 23.8275 63.2629 23.9222Z" fill="white"/>
<path d="M63.2386 39.3755C65.1848 39.4938 66.8461 38.0029 66.941 36.0624C67.0597 34.1218 65.5645 32.4653 63.6184 32.3706C61.6722 32.2523 60.0109 33.7432 59.916 35.6837C59.821 37.6243 61.2925 39.2808 63.2386 39.3755Z" fill="white"/>
<path d="M44.1572 75.2521C45.8898 74.3765 46.6018 72.2703 45.7236 70.5427C44.8455 68.8152 42.7332 68.1052 41.0007 68.9808C39.2682 69.8564 38.5562 71.9626 39.4343 73.6902C40.3124 75.4178 42.4247 76.1277 44.1572 75.2521Z" fill="white"/>
<path d="M65.5172 44.5111C63.7135 47.2799 64.473 50.9717 67.2498 52.7702C70.0266 54.5688 73.729 53.8115 75.5327 51.0427C77.3364 48.2738 76.577 44.5821 73.8002 42.7835C72.8271 42.1445 71.6879 41.8132 70.525 41.8132C68.5076 41.8132 66.6327 42.8308 65.5172 44.5111Z" fill="white"/>
<path d="M75.9364 69.5015C74.4412 66.5433 70.8337 65.36 67.8908 66.8509C64.9242 68.3419 63.7375 71.939 65.2327 74.8735C66.7279 77.8316 70.3353 79.0149 73.2783 77.524C76.2212 76.0567 77.4316 72.5069 75.9601 69.5488C75.9601 69.5251 75.9601 69.5251 75.9364 69.5015Z" fill="white"/>
<path d="M86.4029 69.0754C84.7653 68.0105 82.5818 68.4601 81.5375 70.093C80.4695 71.7259 80.9205 73.9031 82.5581 74.9444C84.1957 76.0093 86.3791 75.5597 87.4234 73.9268C88.4914 72.3176 88.0405 70.1404 86.4029 69.0754Z" fill="white"/>
<path d="M97.8896 60.1064C97.9846 58.4498 96.7267 57.0535 95.0654 56.9589C93.404 56.8642 92.0038 58.1185 91.9088 59.775C91.8139 61.4316 93.0718 62.8279 94.7331 62.9225C96.3707 63.0172 97.7947 61.7393 97.8896 60.1064Z" fill="white"/>
<path d="M106.172 57.9764C105.104 57.9054 104.179 58.7337 104.131 59.7986C104.084 60.8636 104.891 61.7865 105.959 61.8338C107.027 61.9048 107.929 61.0766 108 60.0116C108.047 58.9467 107.24 58.0474 106.172 57.9764Z" fill="white"/>
<path d="M98.3646 77.1453C97.2254 76.4117 95.7065 76.7193 94.947 77.8553C94.2113 78.9912 94.5198 80.5058 95.659 81.2631C96.7982 81.9967 98.3171 81.689 99.0766 80.5531C99.8361 79.4172 99.5038 77.8789 98.3646 77.1453Z" fill="white"/>
<path d="M43.3503 95.1782C42.4484 94.5866 41.2617 94.8469 40.6684 95.7225C40.0751 96.6218 40.3361 97.8051 41.2143 98.3967C42.1161 98.9883 43.3028 98.728 43.8961 97.8524C44.5132 96.9768 44.2521 95.7698 43.3503 95.1782Z" fill="white"/>
<path d="M83.9821 94.989C83.0328 95.4623 82.653 96.6455 83.1277 97.5921C83.6024 98.5387 84.789 98.9174 85.7384 98.4441C86.6877 97.9708 87.0674 96.8112 86.5928 95.8646C86.1181 94.8943 84.9552 94.492 83.9821 94.989C83.9821 94.989 84.0058 94.989 83.9821 94.989Z" fill="white"/>
<path d="M61.4824 75.4889C63.2862 72.7201 62.5267 69.0283 59.7499 67.2061C56.9731 65.4075 53.2707 66.1648 51.4432 68.9336C49.6158 71.7025 50.399 75.3942 53.1758 77.2165C54.1488 77.8554 55.288 78.1867 56.451 78.1867C58.492 78.2104 60.367 77.1928 61.4824 75.4889Z" fill="white"/>
<path d="M49.4975 84.6472C48.121 83.7479 46.246 84.1266 45.3442 85.4992C44.4423 86.8717 44.822 88.7413 46.1986 89.6406C47.5751 90.5398 49.45 90.1612 50.3519 88.7886C51.2775 87.416 50.8978 85.5465 49.4975 84.6472Z" fill="white"/>
<path d="M63.4764 96.0776C62.1236 96.0066 60.9607 97.0479 60.8657 98.3968C60.7708 99.7458 61.8388 100.905 63.1916 101C64.5444 101.071 65.7073 100.053 65.8023 98.7045C65.8735 97.3319 64.8292 96.1723 63.4764 96.0776Z" fill="white"/>
<path d="M63.5 80.624C61.5539 80.5057 59.8926 81.9966 59.7976 83.9371C59.679 85.8777 61.1742 87.5343 63.1203 87.6289C65.0664 87.7236 66.7277 86.2563 66.8227 84.3158C66.9413 82.3989 65.4461 80.7187 63.5 80.624Z" fill="white"/>
<path d="M77.906 84.4107C76.4345 85.168 75.8412 86.9665 76.6007 88.4338C77.3601 89.901 79.1639 90.4927 80.6353 89.7354C82.1068 89.0017 82.7001 87.2032 81.9644 85.736C81.2049 84.2687 79.4012 83.6534 77.906 84.4107Z" fill="white"/>
</g>
<path d="M64 118C96.0325 118 122 92.0325 122 60C122 27.9675 96.0325 2 64 2C31.9675 2 6 27.9675 6 60C6 92.0325 31.9675 118 64 118Z" stroke="black" stroke-opacity="0.097"/>
</g>
<defs>
<clipPath id="clip0">
<rect width="128" height="128" fill="white"/>
</clipPath>
<clipPath id="clip1">
<rect width="89" height="82" fill="white" transform="translate(19 19)"/>
</clipPath>
</defs>
</svg>
