<svg viewBox="0 0 128 128" fill="none" xmlns="http://www.w3.org/2000/svg">
<path d="M123.997 59.9941C123.997 93.1268 97.1371 119.988 63.9986 119.988C30.8601 119.988 4 93.1268 4 59.9941C4 26.8614 30.8607 0 63.9986 0C97.1364 0 123.997 26.8588 123.997 59.9941Z" fill="#1C1C1C"/>
<path d="M63.9998 89.0001C65.5341 89.0001 67.0339 88.5516 68.3096 87.7113C69.5854 86.871 70.5797 85.6767 71.1668 84.2794C71.754 82.8821 71.9076 81.3445 71.6083 79.8611C71.309 78.3777 70.5701 77.0152 69.4852 75.9457C68.4003 74.8762 67.018 74.1479 65.5132 73.8529C64.0084 73.5578 62.4486 73.7092 61.0311 74.288C59.6136 74.8668 58.402 75.847 57.5496 77.1045C56.6972 78.3621 56.2422 79.8406 56.2422 81.353C56.2422 83.3811 57.0595 85.3262 58.5143 86.7603C59.9692 88.1944 61.9423 89.0001 63.9998 89.0001Z" fill="white"/>
<path d="M72.417 24H55.5442L32 88.0441H46.2545L64 39.8199L81.7067 88.0441H96L72.417 24Z" fill="white"/>
<path d="M64 118C96.0325 118 122 92.0325 122 60C122 27.9675 96.0325 2 64 2C31.9675 2 6 27.9675 6 60C6 92.0325 31.9675 118 64 118Z" stroke="black" stroke-opacity="0.097"/>
</svg>
