<svg viewBox="0 0 128 128" fill="none" xmlns="http://www.w3.org/2000/svg">
<path d="M123.997 59.9941C123.997 93.1268 97.1368 119.988 63.9983 119.988C30.8598 119.988 3.99976 93.1268 3.99976 59.9941C3.99976 26.8614 30.8605 0 63.9983 0C97.1362 0 123.997 26.8588 123.997 59.9941Z" fill="white"/>
<g clip-path="url(#clip0)">
<path d="M64 107.001C61.7359 107.001 59.4717 106.365 57.4906 105.209L28.566 88.1516C24.4906 85.7231 22 81.3287 22 76.5296V42.4152C22 37.6738 24.4906 33.2216 28.5094 30.851L57.4906 13.7937C61.5094 11.4231 66.4906 11.4231 70.566 13.7937L99.4906 30.851C103.509 33.2216 106 37.6738 106 42.4152V76.5874C106 81.3287 103.509 85.781 99.4906 88.1516L70.566 105.209C68.5283 106.365 66.3208 107.001 64 107.001ZM64 16.627C62.5283 16.627 61.0566 17.0317 59.7547 17.7834L30.7736 34.8984C28.1132 36.4596 26.5283 39.3506 26.5283 42.4152V76.5874C26.5283 79.7097 28.1698 82.543 30.7736 84.1041L59.6981 101.219C62.3585 102.78 65.5849 102.78 68.2453 101.219L97.1698 84.162C99.7736 82.6008 101.415 79.7676 101.415 76.6452V42.4152C101.415 39.2928 99.7736 36.4018 97.1698 34.8984L68.3019 17.7834C67 17.0317 65.5283 16.627 64 16.627ZM64 91.5052C62.7547 91.5052 61.566 91.1583 60.4906 90.5223L39.434 78.1486C37.283 76.8765 35.9245 74.5058 35.9245 71.9039V47.0987C35.9245 44.5545 37.2264 42.1839 39.434 40.854L60.4906 28.4803C62.6981 27.2082 65.3585 27.2082 67.5094 28.4803L88.5094 40.854C90.6604 42.1261 92.0189 44.4967 92.0189 47.0987V71.9039C92.0189 74.448 90.6604 76.8765 88.5094 78.1486L67.4528 90.5223C66.434 91.1583 65.2453 91.5052 64 91.5052ZM64 30.9666C63.3774 30.9666 62.7547 31.1401 62.1887 31.487L41.1321 43.8607C40 44.5545 39.3208 45.7688 39.3208 47.0987V71.9039C39.3208 73.2338 40 74.448 41.1321 75.1419L62.1887 87.5156C63.3208 88.2094 64.6792 88.2094 65.8113 87.5156L86.8113 75.1419C87.9434 74.448 88.6226 73.2338 88.6226 71.9039V47.0987C88.6226 45.7688 87.9434 44.5545 86.8113 43.8607L65.8113 31.487C65.3019 31.1401 64.6792 30.9666 64 30.9666ZM64 75.7779C63.3774 75.7779 62.7547 75.6045 62.1887 75.3153L51.5472 68.955C50.4151 68.319 49.7359 67.0469 49.7359 65.7749V53.1699C49.7359 51.84 50.4151 50.6258 51.5472 49.9897L62.1887 43.6872C63.3208 43.0512 64.6792 43.0512 65.8113 43.6872L76.4528 49.9897C77.5849 50.6258 78.2642 51.84 78.2642 53.1699V65.7749C78.2642 67.1048 77.5849 68.319 76.4528 68.955L65.8113 75.2575C65.2453 75.6045 64.6226 75.7779 64 75.7779ZM64 45.5375C63.7736 45.5375 63.5472 45.5953 63.3208 45.711L52.6792 52.0135C52.283 52.2447 52 52.7073 52 53.1699V65.7749C52 66.2374 52.283 66.7 52.6792 66.9891L63.3208 73.2916C63.717 73.5229 64.2264 73.5229 64.6792 73.2916L75.3208 66.9891C75.717 66.7578 76 66.2374 76 65.7749V53.1699C76 52.7073 75.717 52.2447 75.3208 52.0135L64.6792 45.711C64.4528 45.5953 64.2264 45.5375 64 45.5375Z" fill="url(#paint0_linear)"/>
</g>
<path d="M63.9998 118C96.0323 118 122 92.0325 122 60C122 27.9675 96.0323 2 63.9998 2C31.9672 2 5.99976 27.9675 5.99976 60C5.99976 92.0325 31.9672 118 63.9998 118Z" stroke="black" stroke-opacity="0.097"/>
<defs>
<linearGradient id="paint0_linear" x1="22" y1="59.4886" x2="106.023" y2="59.4886" gradientUnits="userSpaceOnUse">
<stop stop-color="#E168FD"/>
<stop offset="1" stop-color="#7B00FC"/>
</linearGradient>
<clipPath id="clip0">
<rect width="84" height="95" fill="white" transform="translate(22 12)"/>
</clipPath>
</defs>
</svg>
