<svg viewBox="0 0 128 128" fill="none" xmlns="http://www.w3.org/2000/svg">
<g clip-path="url(#clip0)">
<path d="M64 -0.000127316C30.8629 -0.000130213 4.00001 26.8628 4.00001 59.9999C4 93.137 30.8629 120 64 120C97.1371 120 124 93.137 124 59.9999C124 26.8628 97.1371 -0.000124419 64 -0.000127316Z" fill="black"/>
<path d="M40.315 96L50.6195 77.9683L60.9239 60L71.1655 41.9683L72.8619 39.1111L73.6159 41.9683L76.7575 53.8413L73.2389 60L62.9345 77.9683L52.6929 96H65.008L75.3124 77.9683L80.6531 68.6349L83.1664 77.9683L87.9416 96H99L94.2248 77.9683L89.4496 60L88.1929 55.3651L95.8584 41.9683H84.6743L84.2973 40.6349L80.4018 25.9048L79.8991 24H69.1549L68.9035 24.381L58.8504 41.9683L48.546 60L38.3044 77.9683L28 96H40.315Z" fill="white"/>
<path d="M64 118C96.0325 118 122 92.0325 122 60C122 27.9675 96.0325 2 64 2C31.9675 2 6 27.9675 6 60C6 92.0325 31.9675 118 64 118Z" stroke="black" stroke-opacity="0.097"/>
</g>
<defs>
<clipPath id="clip0">
<rect width="128" height="128" fill="white"/>
</clipPath>
</defs>
</svg>
