<svg viewBox="0 0 128 128" fill="none" xmlns="http://www.w3.org/2000/svg">
<g clip-path="url(#clip0)">
<path d="M64 -0.000249386C30.8629 -0.000252283 4.00001 26.8627 4.00001 59.9997C4 93.1368 30.8629 120 64 120C97.1371 120 124 93.1368 124 59.9998C124 26.8627 97.1371 -0.000246489 64 -0.000249386Z" fill="#D9327C"/>
<path fill-rule="evenodd" clip-rule="evenodd" d="M61.3 34.2C60.8 34.6 60.2 35.3 59.8 36.6C59.4 37.9 57.2 44.3 54.4 52.3H73.1C70.3 44.3 68.1 37.9 67.7 36.6C67.3 35.3 66.7 34.6 66.2 34.2C65.7 33.8 65 33.5 63.7 33.5C62.4 33.5 61.8 33.8 61.3 34.2ZM33.7 52.3H46.4C49.5 43.2 52.2 35.6 52.6 34.2C53.4 31.8 54.7 29.7 56.7 28.2C58.7 26.7 61.1 26 63.6 26C66.1 26 68.5 26.6 70.5 28.2C72.5 29.7 73.8 31.8 74.6 34.2C75.1 35.6 77.7 43.1 80.8 52.3H93.7C95.8 52.3 97.5 54 97.5 56.1C97.5 58.2 95.8 59.9 93.7 59.9H83.6H75.7H51.8H43.9H33.7C31.6 59.9 30 58.2 30 56.1C30 54 31.7 52.3 33.7 52.3ZM33.7 67.3C31.6 67.3 30 69 30 71.1C30 73.2 31.7 74.9 33.7 74.9H38.7L36.7 80.7L34.7 86.5L33.9 88.7C33.2 90.7 34.3 92.8 36.2 93.5C38.2 94.2 40.3 93.1 41 91.2L41.8 89L43.8 83.2C44.6 80.8 45.6 78 46.7 74.9H80.9C81.9 77.9 82.9 80.8 83.8 83.2L85.8 89L86.6 91.2C87.3 93.2 89.4 94.2 91.4 93.5C93.4 92.8 94.4 90.7 93.7 88.7L92.9 86.5L90.9 80.7L88.9 74.9H93.9C96 74.9 97.7 73.2 97.7 71.1C97.7 69 96 67.3 93.9 67.3H86.3H78.4H49.4H41.5H33.7ZM90 89.8L93.5 88.6C93.5 88.6 93.5 88.6 90 89.8ZM90 89.8C86.5 91 86.5 91 86.5 91L90 89.8ZM37.5 89.8L41 91C41 91 41 91 37.5 89.8ZM37.5 89.8C34 88.6 34 88.6 34 88.6L37.5 89.8Z" fill="white"/>
<path d="M64 118C96.0325 118 122 92.0325 122 60C122 27.9675 96.0325 2 64 2C31.9675 2 6 27.9675 6 60C6 92.0325 31.9675 118 64 118Z" stroke="black" stroke-opacity="0.097"/>
</g>
<defs>
<clipPath id="clip0">
<rect width="128" height="128" fill="white"/>
</clipPath>
</defs>
</svg>
