<svg viewBox="0 0 128 128" fill="none" xmlns="http://www.w3.org/2000/svg">
<path d="M123.997 59.9941C123.997 93.1269 97.1371 119.988 63.9986 119.988C30.8601 119.988 4 93.1269 4 59.9941C4 26.8614 30.8607 6.10352e-05 63.9986 6.10352e-05C97.1364 6.10352e-05 123.997 26.8589 123.997 59.9941Z" fill="white"/>
<g clip-path="url(#clip0)">
<path d="M33.0442 86.9993C33.0002 86.1377 32.9855 85.2762 33.0295 84.4147C33.3228 84.3286 33.6161 84.2711 33.924 84.2281C34.8039 84.0845 35.6837 83.8691 36.5342 83.625C36.7688 83.5532 37.0035 83.4671 37.2381 83.3809C38.3672 82.9502 39.3644 82.2322 40.1269 81.3133C40.6548 80.6672 41.1094 79.9636 41.5054 79.2313C42.0626 78.2262 42.5465 77.178 42.9864 76.1155C43.8663 73.9617 44.7461 71.8223 45.6113 69.6685C48.6028 62.2596 51.5943 54.8506 54.5858 47.4416C57.416 40.3916 60.2022 33.3415 62.9297 26.2484C62.9883 26.1049 63.047 25.9613 63.1057 25.8177C64.1175 25.5449 65.1 25.2577 66.1265 24.9849C66.1851 25.1285 66.2438 25.2577 66.2878 25.3869C67.4462 28.5458 68.6047 31.7047 69.7485 34.8779C73.6932 45.6611 77.6378 56.43 81.6851 67.1702C82.7996 70.0993 83.9141 73.0428 85.0432 75.9719C85.4831 77.1637 86.011 78.3411 86.6123 79.461C86.8762 79.9492 87.1548 80.4087 87.4628 80.8682C88.4013 82.304 89.853 83.3235 91.5394 83.7542C92.4486 83.984 93.3578 84.1706 94.2963 84.2855L94.9562 84.386C95.0442 84.6732 95.0002 84.946 95.0002 85.2188C95.0002 85.4916 95.0002 85.8075 95.0002 86.0947C95.0148 86.3818 95.0002 86.6546 94.9855 86.9418C94.8975 86.9562 94.8242 86.9705 94.7362 86.9849C94.6336 86.9849 94.5309 86.9849 94.4283 86.9849H71.5375C71.5082 86.9418 71.4935 86.8844 71.4789 86.827C71.4789 86.0516 71.4789 85.2762 71.4789 84.5009C71.4789 84.4722 71.4935 84.4291 71.5082 84.4004C71.6988 84.3429 71.8895 84.3142 72.0948 84.2855C73.0479 84.1563 73.9864 83.984 74.9249 83.7399C75.2916 83.6394 75.6728 83.5101 76.0248 83.3666C76.2007 83.2948 76.3767 83.2086 76.5527 83.1081C77.4765 82.6056 77.8431 81.8158 77.7551 80.8107C77.7111 80.3513 77.6378 79.9062 77.5058 79.461C77.3152 78.7718 77.0659 78.097 76.8313 77.4365C72.0214 64.2985 67.2703 51.1461 62.5631 37.965C62.5191 37.8214 62.4898 37.6634 62.3431 37.5342C62.2991 37.5629 62.2258 37.5917 62.1965 37.6204C62.1525 37.6922 62.1232 37.764 62.1085 37.8358C59.8062 44.3114 57.3573 50.744 54.9231 57.1623C53.1194 61.915 51.3157 66.682 49.644 71.4777C48.9694 73.4018 48.3242 75.3402 47.6936 77.2786C47.4443 78.0252 47.2684 78.7862 47.1511 79.5472C47.0631 80.0641 47.0484 80.581 47.1071 81.1123C47.1804 81.7871 47.547 82.4045 48.1189 82.8066C48.4855 83.065 48.8961 83.266 49.336 83.4096C50.0252 83.6537 50.7291 83.826 51.4477 83.9409C52.2395 84.0845 53.0314 84.1993 53.8379 84.3142C53.8966 84.3286 53.9406 84.3286 54.0139 84.3429C54.0285 84.4004 54.0432 84.4578 54.0579 84.5152C54.0579 85.2619 54.0579 86.0229 54.0579 86.7695C54.0579 86.8126 54.0432 86.8557 54.0285 86.8987C53.9552 86.9131 53.8819 86.9275 53.8086 86.9275C53.7059 86.9275 53.6033 86.9275 53.5006 86.9275L33.0442 86.9993Z" fill="black"/>
</g>
<path d="M64 118C96.0325 118 122 92.0325 122 60C122 27.9675 96.0325 2 64 2C31.9675 2 6 27.9675 6 60C6 92.0325 31.9675 118 64 118Z" stroke="black" stroke-opacity="0.097"/>
<defs>
<clipPath id="clip0">
<rect width="62" height="62" fill="white" transform="translate(33 25)"/>
</clipPath>
</defs>
</svg>
