<svg viewBox="0 0 128 128" fill="none" xmlns="http://www.w3.org/2000/svg">
<path d="M123.997 59.9941C123.997 93.1268 97.1371 119.988 63.9986 119.988C30.8601 119.988 4 93.1268 4 59.9941C4 26.8614 30.8607 0 63.9986 0C97.1364 0 123.997 26.8588 123.997 59.9941Z" fill="#3768E5"/>
<g clip-path="url(#clip0)">
<path fill-rule="evenodd" clip-rule="evenodd" d="M68.8053 24.095L92.56 36.3225C96.0053 38.1475 98.1813 41.615 98.1813 45.63V51.2875H89.4773V45.63C89.4773 45.0825 89.1147 44.535 88.5707 44.17L64.816 31.9425C64.4533 31.76 63.9093 31.76 63.3653 31.9425L39.6107 44.17C39.0667 44.3525 38.704 44.9 38.704 45.63V51.2875H30V45.63C30 41.7975 32.176 38.1475 35.6213 36.3225L59.376 24.095C62.2773 22.635 65.7227 22.635 68.8053 24.095ZM71.5253 59.135C71.5253 54.9375 68.08 51.6525 64.0907 51.6525C59.92 51.6525 56.656 54.9375 56.656 59.135C56.656 63.3325 60.1013 66.6175 64.0907 66.6175C68.08 66.6175 71.5253 63.3325 71.5253 59.135ZM88.3893 74.83C88.9333 74.6475 89.296 74.1 89.296 73.37V67.7125H98V73.37C98 77.2025 95.824 80.8525 92.3787 82.6775L68.624 94.905C67.1733 95.635 65.5413 96 63.9093 96C62.2773 96 60.6453 95.635 59.1947 94.905L35.6213 82.6775C32.176 80.8525 30 77.385 30 73.37V67.7125H38.704V73.37C38.704 73.9175 39.0667 74.465 39.6107 74.83L59.7387 85.05V74.83C52.848 72.8225 47.952 66.6175 47.952 59.135C47.952 50.1925 55.2053 42.71 64.272 42.71C73.1573 42.71 80.592 50.01 80.592 59.135C80.592 66.6175 75.5147 73.005 68.8053 74.83V85.05L88.3893 74.83Z" fill="white" fill-opacity="0.9"/>
</g>
<path d="M64 118C96.0325 118 122 92.0325 122 60C122 27.9675 96.0325 2 64 2C31.9675 2 6 27.9675 6 60C6 92.0325 31.9675 118 64 118Z" stroke="black" stroke-opacity="0.097"/>
<defs>
<clipPath id="clip0">
<rect width="68" height="73" fill="white" transform="translate(30 23)"/>
</clipPath>
</defs>
</svg>
