<svg viewBox="0 0 128 128" fill="none" xmlns="http://www.w3.org/2000/svg">
<g clip-path="url(#clip0)">
<path d="M123.997 59.9941C123.997 93.1269 97.1371 119.988 63.9986 119.988C30.8601 119.988 4 93.1269 4 59.9941C4 26.8614 30.8607 6.10352e-05 63.9986 6.10352e-05C97.1364 6.10352e-05 123.997 26.8589 123.997 59.9941Z" fill="white"/>
<path d="M101.643 51.4475C101.959 44.8292 97.3359 40.4362 92.1103 37.4214L88.7222 57.3623C89.4217 57.2651 90.1339 57.3199 90.8103 57.5231C91.4867 57.7263 92.1113 58.0729 92.6414 58.5395C93.2489 59.1355 93.6121 59.9368 93.6599 60.7865C93.7077 61.6362 93.4366 62.4731 92.8998 63.1335C96.1731 62.588 101.27 59.4439 101.643 51.4475Z" fill="url(#paint0_linear)"/>
<path fill-rule="evenodd" clip-rule="evenodd" d="M57.1387 28.2621L53.1189 24.1993C59.206 23.4527 75.2707 24.4002 90.8186 34.1482C90.9608 35.0181 90.9608 35.9054 90.8186 36.7754L92.125 37.4358C93.1694 39.1681 93.8572 41.0917 94.1481 43.0935C94.439 45.0953 94.3271 47.1351 93.819 49.0931C92.4695 54.491 90.1582 56.8742 89.1245 57.3623C87.0429 57.3623 83.4969 58.5682 82.3484 63.9088C81.1999 69.2493 78.989 70.4121 78.0415 70.326L55.0714 70.5988L39.9112 61.6692L37.729 43.1926L42.0359 37.4501L49.7309 31.1621L55.215 28.9225L57.1387 28.2621ZM84.2865 35.8279C83.6379 36.5154 82.8814 37.0924 82.0469 37.5362C76.1464 36.2729 74.0074 33.2294 74.0074 33.2294C79.0249 33.0795 83.9883 34.3005 88.3636 36.761C87.0313 36.3429 85.668 36.0309 84.2865 35.8279Z" fill="url(#paint1_linear)"/>
<path fill-rule="evenodd" clip-rule="evenodd" d="M82.1474 63.9087C77.7774 66.0105 72.9848 67.0858 68.1357 67.0528C53.6502 67.0528 41.9211 57.9509 41.9211 46.7386C41.9211 38.4407 48.324 31.32 57.4977 28.1616C40.0405 29.1665 26 43.1926 26 60.5063C26 80.4903 43.8162 97 65.7526 97C73.376 96.9369 80.8449 94.8433 87.3904 90.9347C93.9359 87.026 99.3215 81.4436 102.993 74.7621C93.1587 76.973 81.5445 72.7666 82.1474 63.9087Z" fill="url(#paint2_linear)"/>
</g>
<path d="M64 118C96.0325 118 122 92.0325 122 60C122 27.9675 96.0325 2 64 2C31.9675 2 6 27.9675 6 60C6 92.0325 31.9675 118 64 118Z" stroke="black" stroke-opacity="0.097"/>
<defs>
<linearGradient id="paint0_linear" x1="94.3211" y1="43.25" x2="96.3597" y2="67.6127" gradientUnits="userSpaceOnUse">
<stop stop-color="#01E8F7"/>
<stop offset="1" stop-color="#00C2FF"/>
</linearGradient>
<linearGradient id="paint1_linear" x1="54.1957" y1="30.1571" x2="77.8548" y2="67.7132" gradientUnits="userSpaceOnUse">
<stop stop-color="#01E8F7"/>
<stop offset="1" stop-color="#00B3EC"/>
</linearGradient>
<linearGradient id="paint2_linear" x1="2384.29" y1="2696.34" x2="2474.79" y2="-210.725" gradientUnits="userSpaceOnUse">
<stop stop-color="#01E8F7"/>
<stop offset="1" stop-color="#00C2FF"/>
</linearGradient>
<clipPath id="clip0">
<rect width="120" height="120" fill="white" transform="translate(4)"/>
</clipPath>
</defs>
</svg>
