<svg viewBox="0 0 128 128" fill="none" xmlns="http://www.w3.org/2000/svg">
<g clip-path="url(#clip0_436_1511)">
<path d="M64 10.5181C74.5781 10.5167 84.919 13.6525 93.7147 19.5288C102.51 25.4052 109.366 33.7581 113.414 43.531C117.462 53.3039 118.52 64.0578 116.456 74.4325C114.391 84.8071 109.296 94.3365 101.815 101.815C91.786 111.844 78.1835 117.479 64 117.479C49.8166 117.479 36.2141 111.844 26.1849 101.815C16.1557 91.7859 10.5214 78.1834 10.5214 64C10.5214 49.8166 16.1557 36.2141 26.1849 26.1849C31.139 21.2027 37.0321 17.2527 43.5231 14.5634C50.0141 11.8742 56.974 10.4992 64 10.5181ZM64 0C51.342 0 38.9683 3.75353 28.4435 10.7859C17.9188 17.8184 9.71575 27.8138 4.87174 39.5083C0.0277305 51.2027 -1.23968 64.071 1.22977 76.4858C3.69922 88.9006 9.79463 100.304 18.7452 109.255C27.6958 118.205 39.0995 124.301 51.5143 126.77C63.929 129.24 76.7973 127.972 88.4918 123.128C100.186 118.284 110.182 110.081 117.214 99.5565C124.246 89.0317 128 76.658 128 64C128 47.0261 121.257 30.7475 109.255 18.7452C97.2525 6.74284 80.9739 0 64 0V0Z" fill="black"/>
<path d="M72.3465 80.9277C71.5459 81.5845 70.8028 82.2604 69.9927 82.8453C67.006 84.993 63.607 85.8176 59.978 85.8128C56.0661 85.8128 52.4178 84.8971 49.2921 82.457C45.4569 79.4464 43.9612 75.4434 44.4214 70.6446C44.6319 67.7138 45.8675 64.9508 47.9115 62.8399C49.8851 60.8969 52.325 59.4937 54.997 58.765C58.4055 57.7295 61.91 57.4754 65.4431 57.4131C67.3607 57.3811 69.2879 57.3811 71.2247 57.4131C71.8719 57.4131 72.0733 57.207 72.0205 56.5837C71.9007 55.2366 71.9918 53.8464 71.6849 52.5472C71.1576 50.318 69.5995 48.9037 67.4374 48.2326C65.0594 47.4037 62.4693 47.4139 60.0978 48.2613C59.2726 48.5437 58.544 49.0535 57.996 49.7321C57.448 50.4107 57.1031 51.2304 57.0009 52.0965C56.8091 53.2711 56.8331 53.2711 55.6202 53.2711H46.1616C45.3227 53.2711 45.3131 53.2711 45.3802 52.4273C45.7733 47.4559 48.4819 44.0522 52.7007 41.7079C55.9798 39.8862 59.5657 39.1431 63.2858 39.0329C66.9666 38.842 70.6464 39.4267 74.0867 40.7491C78.6698 42.5996 81.8386 45.778 83.0419 50.644C83.3929 52.1786 83.565 53.7487 83.5549 55.3229C83.6124 62.2838 83.5549 69.2495 83.6076 76.2104C83.5763 78.9331 84.1305 81.6307 85.2328 84.1205C85.5204 84.7533 85.3814 84.9547 84.6815 84.9547C81.201 84.9547 77.7158 84.9547 74.2354 84.9547C74.0415 84.9883 73.8422 84.9471 73.6776 84.8394C73.513 84.7318 73.3953 84.5656 73.3485 84.3746C73.0273 83.2432 72.6965 82.1214 72.3465 80.9277ZM67.5525 64.3069C65.4719 64.3069 63.3961 64.3069 61.3634 64.863C58.5589 65.6348 56.5694 67.1977 55.9702 70.2083C55.6644 71.5356 55.8792 72.9296 56.5704 74.1033C57.2616 75.277 58.3765 76.1409 59.6855 76.5172C61.7015 77.081 63.836 77.061 65.841 76.4597C68.2141 75.8029 70.2899 74.6524 71.7089 72.5478C71.8832 72.3008 71.9861 72.0105 72.0061 71.7088C72.0301 69.4557 72.0061 67.2025 72.0061 64.9445C72.0061 64.4651 71.8048 64.2973 71.3446 64.3021C70.0885 64.3165 68.8181 64.3069 67.5477 64.3069H67.5525Z" fill="black"/>
</g>
<defs>
<clipPath id="clip0_436_1511">
<rect width="128" height="128" fill="white"/>
</clipPath>
</defs>
</svg>
