<svg viewBox="0 0 128 128" fill="none" xmlns="http://www.w3.org/2000/svg">
<path d="M123.997 59.9941C123.997 93.1269 97.1371 119.988 63.9986 119.988C30.8601 119.988 4 93.1269 4 59.9941C4 26.8614 30.8607 6.10352e-05 63.9986 6.10352e-05C97.1364 6.10352e-05 123.997 26.8589 123.997 59.9941Z" fill="white"/>
<g clip-path="url(#clip0)">
<path d="M63.6519 15.0061L20 90.7049H41.7661L74.9119 34.2665L63.6519 15.0061Z" fill="#1662A1"/>
<path d="M43.314 90.9947L72.3088 74.2349L61.1641 60.5391L43.314 90.9947V90.9947Z" fill="#0D426C"/>
<path d="M82.6152 47.9659L61.7095 59.28L87.8926 90.9771H107.996L82.6152 47.9659Z" fill="#3C87C7"/>
</g>
<path d="M64 118C96.0325 118 122 92.0325 122 60C122 27.9675 96.0325 2 64 2C31.9675 2 6 27.9675 6 60C6 92.0325 31.9675 118 64 118Z" stroke="black" stroke-opacity="0.097"/>
<defs>
<clipPath id="clip0">
<rect width="88" height="76" fill="white" transform="translate(20 15)"/>
</clipPath>
</defs>
</svg>
