<svg viewBox="0 0 128 128" fill="none" xmlns="http://www.w3.org/2000/svg">
<path d="M123.997 59.9941C123.997 93.1269 97.1371 119.988 63.9986 119.988C30.8601 119.988 4 93.1269 4 59.9941C4 26.8614 30.8607 6.10352e-05 63.9986 6.10352e-05C97.1364 6.10352e-05 123.997 26.8589 123.997 59.9941Z" fill="#F70000"/>
<path d="M63.795 46.2528L23 88.587L64 23L105 89L63.795 46.2528Z" fill="white"/>
<path d="M69.7401 63.1039H56.9481L63.5081 56L69.7401 63.1452V63.1039ZM45.1401 74.7509H81.8761L74.4141 67.234L52.3561 67.3166V67.3579L45.1401 74.627" fill="white"/>
<path d="M64 118C96.0325 118 122 92.0325 122 60C122 27.9675 96.0325 2 64 2C31.9675 2 6 27.9675 6 60C6 92.0325 31.9675 118 64 118Z" stroke="black" stroke-opacity="0.097"/>
</svg>
