<svg viewBox="0 0 128 128" fill="none" xmlns="http://www.w3.org/2000/svg">
<path d="M123.999 59.9941C123.999 93.1268 97.1393 119.988 64.0008 119.988C30.8623 119.988 4.0022 93.1268 4.0022 59.9941C4.0022 26.8614 30.8629 0 64.0008 0C97.1386 0 123.999 26.8588 123.999 59.9941Z" fill="#1B1F2B"/>
<path d="M63.5092 15C57.9332 15 53.4119 35.2244 53.4119 60.1727C53.4119 85.121 57.9332 105.345 63.5092 105.345C69.0852 105.345 73.6065 85.121 73.6065 60.1727C73.6065 35.2244 69.0852 15 63.5092 15ZM64.2064 102.796C63.5687 103.647 62.9311 103.009 62.9311 103.009C60.3631 100.033 59.0792 94.5055 59.0792 94.5055C54.5876 80.0504 55.6566 49.0142 55.6566 49.0142C57.7675 24.3746 61.6074 18.5539 62.9141 17.2617C63.0476 17.1298 63.2233 17.0492 63.4103 17.0341C63.5973 17.019 63.7836 17.0703 63.9365 17.1791C65.8325 18.5225 67.4227 24.1411 67.4227 24.1411C72.1184 41.5724 71.6932 57.9408 71.6932 57.9408C72.1184 72.1834 69.3402 88.1266 69.3402 88.1266C67.2016 100.243 64.2064 102.796 64.2064 102.796Z" fill="white"/>
<path d="M102.692 37.6924C99.9153 32.854 80.1244 38.9974 58.4738 51.4122C36.8233 63.8271 21.5512 77.8144 24.3253 82.6506C27.0995 87.4869 46.8925 81.3456 68.5431 68.9307C90.1936 56.5159 105.466 42.5286 102.692 37.6924V37.6924ZM26.8867 81.9869C25.8238 81.853 26.0639 80.9794 26.0639 80.9794C27.3677 77.2722 31.5167 73.4075 31.5167 73.4075C41.8244 62.3175 69.2791 47.8004 69.2791 47.8004C91.6995 37.3692 98.6636 37.8093 100.43 38.2957C100.612 38.3463 100.769 38.4595 100.875 38.6151C100.981 38.7708 101.028 38.9589 101.009 39.1462C100.796 41.4604 96.704 45.6342 96.704 45.6342C83.9296 58.3867 69.5192 66.1648 69.5192 66.1648C57.3766 73.624 42.1649 79.1446 42.1649 79.1446C30.5902 83.3155 26.8871 81.9869 26.8871 81.9869H26.8867Z" fill="white"/>
<path d="M102.594 82.8118C105.391 77.9863 90.1577 63.935 68.5831 51.4268C47.0086 38.9186 27.2202 32.6992 24.425 37.5329C21.6298 42.3667 36.8609 56.4097 58.4478 68.918C80.0347 81.4262 99.7984 87.646 102.594 82.8118ZM26.2788 39.3975C25.8656 38.4177 26.7379 38.1817 26.7379 38.1817C30.6002 37.4524 36.0253 39.1144 36.0253 39.1144C50.7845 42.4754 77.1023 58.9607 77.1023 58.9607C97.3651 73.1397 100.473 79.3852 100.939 81.158C100.986 81.3398 100.967 81.5326 100.887 81.7022C100.806 81.8718 100.667 82.0073 100.496 82.0849C98.3834 83.0523 92.7244 81.6109 92.7244 81.6109C75.2823 76.9342 61.3331 68.3655 61.3331 68.3655C48.7997 61.6055 36.4063 51.2041 36.4063 51.2041C26.9892 43.275 26.2817 39.4083 26.2817 39.4083L26.2788 39.3975Z" fill="white"/>
<path d="M63.403 65.3807C66.3381 65.3807 68.7174 63.0014 68.7174 60.0663C68.7174 57.1313 66.3381 54.752 63.403 54.752C60.468 54.752 58.0886 57.1313 58.0886 60.0663C58.0886 63.0014 60.468 65.3807 63.403 65.3807Z" fill="white"/>
<path d="M85.1918 42.847C86.8942 42.847 88.2742 41.4194 88.2742 39.6584C88.2742 37.8973 86.8942 36.4697 85.1918 36.4697C83.4894 36.4697 82.1094 37.8973 82.1094 39.6584C82.1094 41.4194 83.4894 42.847 85.1918 42.847Z" fill="white"/>
<path d="M34.5988 53.6888C36.3012 53.6888 37.6812 52.2612 37.6812 50.5002C37.6812 48.7391 36.3012 47.3115 34.5988 47.3115C32.8964 47.3115 31.5164 48.7391 31.5164 50.5002C31.5164 52.2612 32.8964 53.6888 34.5988 53.6888Z" fill="white"/>
<path d="M57.132 92.8028C58.8344 92.8028 60.2144 91.3752 60.2144 89.6142C60.2144 87.8531 58.8344 86.4255 57.132 86.4255C55.4296 86.4255 54.0496 87.8531 54.0496 89.6142C54.0496 91.3752 55.4296 92.8028 57.132 92.8028Z" fill="white"/>
<path d="M64 118C96.0325 118 122 92.0325 122 60C122 27.9675 96.0325 2 64 2C31.9675 2 6 27.9675 6 60C6 92.0325 31.9675 118 64 118Z" stroke="black" stroke-opacity="0.097"/>
</svg>
