<svg viewBox="0 0 128 128" fill="none" xmlns="http://www.w3.org/2000/svg">
<path d="M106.321 111.964C100.74 116.898 94.3396 120.819 87.409 123.551C85.7923 122.78 84.2542 121.853 82.8164 120.785C65.3374 108.023 50.6917 71.953 34.5168 45.6243C28.5386 35.8685 22.3352 27.4503 15.7051 22.0522C21.3818 15.518 28.3222 10.2001 36.1084 6.41895C49.3015 20.9975 58.0074 45.773 69.513 68.3575C69.5199 68.371 69.5279 68.3838 69.537 68.3959C72.3777 74.0413 75.5108 79.5347 78.9237 84.8537C86.2585 96.1532 94.9932 105.851 106.321 111.964Z" fill="#5200B9"/>
<path d="M87.4093 123.551C85.6163 124.251 83.7898 124.879 81.9249 125.421C73.16 127.961 63.9562 128.614 54.9203 127.338C35.0683 102.453 27.9108 67.8398 0.0336914 63.832C0.0499949 48.4715 5.61551 33.6342 15.7053 22.0522C22.3354 27.4503 28.5389 35.8686 34.517 45.6244C50.692 71.9531 65.3377 108.023 82.8166 120.809C84.2554 121.869 85.7935 122.787 87.4093 123.551Z" fill="#8A00CD"/>
<path d="M54.9203 127.329C39.6842 125.14 25.7478 117.532 15.6667 105.9C5.58551 94.2686 0.0352586 79.3925 0.0336914 64.0001V63.8323C27.9108 67.8401 35.0683 102.453 54.9203 127.329Z" fill="#2C0194"/>
<path d="M118.747 97.098C115.381 102.652 111.192 107.663 106.321 111.959C94.9932 105.847 86.2585 96.1392 78.9285 84.8637C75.519 79.546 72.3891 74.0542 69.5514 68.4107C69.5423 68.3986 69.5343 68.3858 69.5274 68.3723C58.0074 45.7734 49.3015 20.998 36.1084 6.41939C44.8005 2.20179 54.3386 0.0180922 63.9999 0.0337753H64.393C81.9775 26.1611 82.6151 61.3204 118.747 97.098Z" fill="#7E01C7"/>
<path d="M125.8 80.5395C124.244 86.3588 121.87 91.9275 118.748 97.0788C82.6151 61.3203 81.9775 26.161 64.3931 0.0336914C76.0922 0.0881314 87.5502 3.364 97.5101 9.50186C110.358 39.7904 106.192 68.8133 125.8 80.5395Z" fill="#AF0BD6"/>
<path d="M127.967 63.9999C127.969 69.5839 127.241 75.1443 125.8 80.5392C106.192 68.7939 110.358 39.7901 97.5151 9.48242C106.829 15.2074 114.519 23.2254 119.85 32.7701C125.182 42.3147 127.976 53.0672 127.967 63.9999Z" fill="#D000D2"/>
<path d="M59.9253 22.9299L31.353 72.4567C31.1801 72.7581 31.0894 73.0997 31.0898 73.4471C31.0903 73.7946 31.182 74.1359 31.3558 74.4368C31.5295 74.7377 31.7793 74.9877 32.0799 75.1618C32.3806 75.336 32.7218 75.4281 33.0692 75.429H48.8895C49.2387 75.4289 49.5817 75.3367 49.8839 75.1616C50.1861 74.9865 50.4367 74.7348 50.6105 74.4319L59.9253 58.2185C60.0988 57.9168 60.3489 57.6662 60.6502 57.4919C60.9515 57.3176 61.2934 57.2258 61.6415 57.2258C61.9896 57.2258 62.3316 57.3176 62.6329 57.4919C62.9342 57.6662 63.1842 57.9168 63.3578 58.2185L73.4252 75.5968C73.5994 75.8976 73.6914 76.239 73.6918 76.5866C73.6923 76.9343 73.6012 77.2759 73.4277 77.5772C73.2543 77.8784 73.0045 78.1287 72.7037 78.3028C72.4028 78.4769 72.0614 78.5688 71.7137 78.5691H53.578C53.1246 78.569 52.6793 78.6887 52.287 78.916C51.8947 79.1433 51.5694 79.4701 51.344 79.8635L43.7263 93.1525C43.5529 93.4539 43.4619 93.7956 43.4624 94.1434C43.463 94.4911 43.5552 94.8326 43.7296 95.1334C43.9041 95.4342 44.1547 95.6837 44.4563 95.8569C44.7578 96.0301 45.0996 96.1208 45.4474 96.12H102.17C102.518 96.119 102.859 96.0269 103.159 95.8528C103.46 95.6786 103.71 95.4286 103.884 95.1277C104.057 94.8268 104.149 94.4855 104.149 94.1381C104.15 93.7906 104.059 93.4491 103.886 93.1477L63.3386 22.9299C63.1638 22.6326 62.9144 22.3861 62.615 22.2149C62.3157 22.0437 61.9768 21.9536 61.6319 21.9536C61.2871 21.9536 60.9482 22.0437 60.6489 22.2149C60.3495 22.3861 60.1001 22.6326 59.9253 22.9299Z" fill="white"/>
</svg>
