<svg viewBox="0 0 128 128" fill="none" xmlns="http://www.w3.org/2000/svg">
<g clip-path="url(#clip0)">
<path d="M128 64.0002C128 99.3453 99.3485 128 63.9999 128C28.6513 128 -0.00012207 99.3453 -0.00012207 64.0002C-0.00012207 28.655 28.652 0 63.9999 0C99.3478 0 128 28.6523 128 64.0002Z" fill="white"/>
<g clip-path="url(#clip1)">
<path d="M87.5714 32H37.4762C36.1429 32 35 33.1372 35 34.4639V45.5516C35 46.8784 36.1429 48.0156 37.4762 48.0156H54.3333V92.8402C54.3333 94.1669 56.2381 99 60.5238 99H71C72.3333 99 73.4762 97.8628 73.4762 96.5361V48.0156H90.5238C91.8571 48.0156 93 46.8784 93 45.5516V37.3069C93.0952 35.9802 91 32 87.5714 32Z" fill="url(#paint0_linear)"/>
</g>
<path d="M63.9999 126C98.2415 126 126 98.2417 126 64C126 29.7583 98.2415 2 63.9999 2C29.7582 2 1.99988 29.7583 1.99988 64C1.99988 98.2417 29.7582 126 63.9999 126Z" stroke="#F2F2F2"/>
</g>
<defs>
<linearGradient id="paint0_linear" x1="35" y1="65.5" x2="93.0031" y2="65.5" gradientUnits="userSpaceOnUse">
<stop stop-color="#2E2D4F"/>
<stop offset="0.0241829" stop-color="#2F2E50"/>
<stop offset="1" stop-color="#544E75"/>
</linearGradient>
<clipPath id="clip0">
<rect width="128" height="128" fill="white"/>
</clipPath>
<clipPath id="clip1">
<rect width="58" height="67" fill="white" transform="translate(35 32)"/>
</clipPath>
</defs>
</svg>
