<svg viewBox="0 0 128 128" fill="none" xmlns="http://www.w3.org/2000/svg">
<g clip-path="url(#clip0)">
<path d="M64 -0.000249386C30.8629 -0.000252283 4.00001 26.8627 4.00001 59.9997C4 93.1368 30.8629 120 64 120C97.1371 120 124 93.1368 124 59.9998C124 26.8627 97.1371 -0.000246489 64 -0.000249386Z" fill="#E84142"/>
<path d="M83.916 61.5662C85.872 58.1979 89.0284 58.1979 90.9844 61.5662L103.165 82.8839C105.121 86.2522 103.521 89 99.6087 89H75.0694C71.2018 89 69.6014 86.2522 71.513 82.8839L83.916 61.5662ZM60.3547 20.5262C62.3107 17.1579 65.4226 17.1579 67.3786 20.5262L70.0904 25.4014L76.492 36.6142C78.0479 39.8052 78.0479 43.5724 76.492 46.7634L55.02 83.8589C53.064 86.8727 49.8187 88.7784 46.2179 89H28.3913C24.4792 89 22.8788 86.2965 24.8348 82.8839L60.3547 20.5262Z" fill="white"/>
<path d="M64 118C96.0325 118 122 92.0325 122 60C122 27.9675 96.0325 2 64 2C31.9675 2 6 27.9675 6 60C6 92.0325 31.9675 118 64 118Z" stroke="black" stroke-opacity="0.097"/>
</g>
<defs>
<clipPath id="clip0">
<rect width="128" height="128" fill="white"/>
</clipPath>
</defs>
</svg>
