<svg viewBox="0 0 128 128" fill="none" xmlns="http://www.w3.org/2000/svg">
<g clip-path="url(#clip0)">
<path d="M64 -0.000249386C30.8629 -0.000252283 4.00001 26.8627 4.00001 59.9997C4 93.1368 30.8629 120 64 120C97.1371 120 124 93.1368 124 59.9998C124 26.8627 97.1371 -0.000246489 64 -0.000249386Z" fill="#070A0E"/>
<path d="M64.9002 85.08C45.7122 85.08 30.1602 79.536 30.1602 72.108C30.1602 68.232 34.3962 64.74 41.1762 62.28C46.4682 65.676 55.3482 67.416 65.4162 67.416C75.2442 67.416 83.9322 65.292 89.2722 62.04C95.6682 64.476 99.6402 67.872 99.6402 71.616C99.6402 79.056 84.0882 85.08 64.9002 85.08Z" fill="white"/>
<path d="M65.1042 65.7479C50.5602 65.7479 38.7642 61.1879 38.7642 55.5599C38.7642 52.4399 42.4002 49.6439 48.1002 47.7839C52.1682 49.9079 58.2642 51.2639 65.1042 51.2639C71.9442 51.2639 78.0402 49.9079 82.1082 47.7839C87.8202 49.6559 91.4442 52.4399 91.4442 55.5599C91.4562 61.1879 79.6602 65.7479 65.1042 65.7479Z" fill="white"/>
<path d="M65.008 49.572C53.764 49.572 44.644 45.804 44.644 41.172C44.644 36.54 53.764 32.772 65.008 32.772C76.252 32.772 85.372 36.54 85.372 41.172C85.372 45.804 76.252 49.572 65.008 49.572Z" fill="white"/>
<path d="M64 118C96.0325 118 122 92.0325 122 60C122 27.9675 96.0325 2 64 2C31.9675 2 6 27.9675 6 60C6 92.0325 31.9675 118 64 118Z" stroke="black" stroke-opacity="0.097"/>
</g>
<defs>
<clipPath id="clip0">
<rect width="128" height="128" fill="white"/>
</clipPath>
</defs>
</svg>
