<svg viewBox="0 0 128 128" fill="none" xmlns="http://www.w3.org/2000/svg">
<path d="M64.0002 127.981C99.3411 127.981 127.991 99.3313 127.991 63.9904C127.991 28.6495 99.3411 0 64.0002 0C28.6592 0 0.00976562 28.6495 0.00976562 63.9904C0.00976562 99.3313 28.6592 127.981 64.0002 127.981Z" fill="#4520E6"/>
<path d="M91.5507 49.7665C91.5507 44.0808 88.7223 39.0423 84.3933 35.9981L95.3955 24.761L88.2045 24.7466L79.5705 33.6395C78.0268 33.1744 76.3969 32.9252 74.7094 32.9252H43.7593V77.6772L80.769 39.7135C84.1727 41.7701 86.4547 45.5046 86.4547 49.7665C86.4547 56.2384 81.1861 61.5118 74.7094 61.5118H73.6403L32.6084 103.224L39.7706 103.239L47.6568 95.1945H74.7142C84.0002 95.1945 91.5555 87.6392 91.5555 78.3532C91.5555 72.3319 88.3771 67.0345 83.6119 64.0622C88.3771 61.0852 91.5555 55.7926 91.5555 49.7713L91.5507 49.7665ZM48.8601 65.1409V38.0212H74.7094C74.9011 38.0212 75.0929 38.0212 75.2847 38.0356L48.8601 65.1409ZM86.4547 78.3484C86.4547 84.8203 81.1861 90.0937 74.7094 90.0937H52.6665L75.7257 66.6558C81.723 67.164 86.4499 72.2168 86.4499 78.3484H86.4547Z" fill="white"/>
</svg>
