<svg viewBox="0 0 128 128" fill="none" xmlns="http://www.w3.org/2000/svg">
<path d="M64.0002 127.981C99.3411 127.981 127.991 99.3313 127.991 63.9904C127.991 28.6495 99.3411 0 64.0002 0C28.6592 0 0.00976562 28.6495 0.00976562 63.9904C0.00976562 99.3313 28.6592 127.981 64.0002 127.981Z" fill="#FBCDC0"/>
<path d="M114.074 68.8803C114.074 82.3466 107.995 93.1236 96.494 100.041C87.8264 105.252 75.9757 108.249 63.9715 108.249C51.9673 108.249 33.1843 104.265 22.417 93.0325C20.0056 90.5156 18.1024 87.7783 16.7169 84.8251C14.6555 80.453 13.7303 75.6207 13.9508 70.376C15.063 44.1863 34.0137 33.5437 42.9354 29.9769C42.2163 26.0842 43.8222 21.8846 48.2807 20.3074C50.8694 19.4924 53.5397 19.7321 56.0518 20.5807C56.2004 20.2738 56.3634 19.9766 56.5503 19.6842C59.0049 15.6284 64.6666 14.4779 68.7367 16.7982C70.5153 17.757 71.9631 19.1377 73.0897 20.7628C76.6181 19.3198 80.9327 19.8136 83.5742 23.0735C85.3911 25.3411 85.8945 28.2319 85.6116 31.0364C88.6558 32.1534 92.3136 33.7929 95.9954 36.142C98.6465 37.8343 101.461 40.0156 104.059 42.7721C109.539 48.5968 114.064 56.9959 114.064 68.8755L114.074 68.8803Z" fill="#FEFCF5"/>
<path d="M22.4218 93.0323C20.0104 90.5155 18.1071 87.7781 16.7217 84.825C18.366 85.99 20.1158 87.1117 21.9519 88.1856C54.3115 107.088 113.887 110.861 104.955 48.0885C104.711 46.3675 104.414 44.5985 104.064 42.772C109.543 48.5967 114.069 56.9958 114.069 68.8753C114.069 82.3417 107.99 93.1186 96.4892 100.036C87.8216 105.247 75.9708 108.244 63.9666 108.244C51.9624 108.244 33.1795 104.26 22.4122 93.0276L22.4218 93.0323Z" fill="#F2E2D5"/>
<path d="M65.5822 36.4585C66.3924 37.5132 67.5574 39.1048 68.4634 40.0348C69.5133 41.1758 70.6399 42.0004 71.9726 42.8921C68.5449 43.1653 65.5535 39.7664 65.5822 36.4585Z" fill="#5A251B"/>
<path d="M55.0645 42.8921C57.1307 40.9073 58.8278 38.937 60.2803 36.4585C60.7885 39.4979 58.1039 42.6811 55.0645 42.8921Z" fill="#5A251B"/>
<path d="M62.8879 34.8955C65.1315 38.7834 64.5467 45.0924 60.1074 47.149C62.9838 43.6637 63.0845 39.2053 62.8879 34.8955Z" fill="#5A251B"/>
<path d="M52.1972 84.8732C55.7447 87.5051 60.4429 87.1264 63.4871 83.948L63.9569 83.5117L64.4171 83.9096C67.6626 86.7285 71.5362 87.7448 75.1413 84.8684C72.0444 88.9481 67.0106 87.9797 63.5254 84.9595L64.4554 84.9212C62.8015 86.5415 60.5531 87.7448 58.1849 87.6873C55.9077 87.6585 53.5874 86.6614 52.1924 84.8684L52.1972 84.8732Z" fill="#5A251B"/>
<path d="M104.069 42.777C101.475 40.0204 98.6563 37.8392 96.0052 36.1469C92.3186 33.7978 88.6656 32.1583 85.6214 31.0413C85.9042 28.2368 85.4009 25.346 83.5839 23.0784C80.9424 19.8185 76.6278 19.3295 73.0994 20.7677C71.9728 19.1425 70.525 17.7619 68.7465 16.8031C64.6764 14.4828 59.0194 15.6333 56.5601 19.6891C56.3731 19.9815 56.2101 20.2787 56.0615 20.5855C53.5495 19.737 50.8792 19.5021 48.2904 20.3123C43.832 21.8847 42.2212 26.0891 42.9451 29.9818C34.0235 33.5485 15.0728 44.1912 13.9606 70.3809C13.74 75.6255 14.6653 80.4579 16.7267 84.83C18.1122 87.7784 20.0154 90.5205 22.4268 93.0374C33.1893 104.265 51.536 108.254 63.9812 108.254C76.4265 108.254 87.8362 105.262 96.5038 100.046C108.005 93.1237 114.083 82.3467 114.083 68.8852C114.083 57.0056 109.558 48.6065 104.078 42.7818L104.069 42.777ZM95.0656 97.6684C86.8199 102.625 75.4868 105.478 63.9764 105.478C44.9442 105.478 30.7731 97.7403 24.4211 91.115C23.5198 90.1754 22.7 89.1974 21.957 88.1906C18.2032 83.1138 16.4438 77.174 16.7315 70.5007C17.767 46.0561 35.3658 36.0318 43.8224 32.6185C44.7477 34.4738 46.2578 36.0654 48.2856 36.981C44.8963 33.3807 43.5348 27.4841 47.3221 23.9845C49.628 22.2395 52.4852 22.1196 55.3904 22.6422C55.0452 24.4303 55.2609 26.3192 56.0471 27.9395C55.9752 26.2041 56.3204 24.4927 57.0299 23.0017C57.308 22.4216 57.634 21.8751 58.0175 21.3766C59.4557 19.5021 61.6034 18.2892 64.2976 18.3851C67.0062 18.4666 69.3313 19.8521 71.3161 21.7169C69.293 23.0497 67.7637 25.1159 67.3658 27.6807C68.7081 25.5138 70.6641 23.9941 72.7495 23.2031C73.248 23.0161 73.7514 22.8675 74.2596 22.762C78.5215 21.8799 83.6606 22.1676 83.5648 30.7488C79.5713 30.3941 76.0813 31.396 76.0813 31.396C76.0813 31.396 84.6818 32.1822 94.6149 38.5247C97.1318 40.2889 101.379 43.079 104.96 48.0936C108.287 52.7677 111.049 59.3643 111.303 68.8804C111.303 81.4982 105.843 91.1821 95.0656 97.6684Z" fill="#5A251B"/>
<path d="M83.684 64.0815C80.17 64.0815 77.3271 66.9244 77.3271 70.4384C77.3271 73.9524 80.17 76.7952 83.684 76.7952C87.198 76.7952 90.0361 73.9476 90.0361 70.4384C90.0361 66.9292 87.1932 64.0815 83.684 64.0815ZM82.0061 71.1383C80.3234 71.1383 78.9619 69.7768 78.9619 68.0941C78.9619 66.4114 80.3234 65.0547 82.0061 65.0547C83.6888 65.0547 85.0503 66.4162 85.0503 68.0941C85.0503 69.772 83.6888 71.1383 82.0061 71.1383Z" fill="#5A251B"/>
<path d="M44.3491 64.0815C40.8399 64.0815 37.9971 66.9244 37.9971 70.4384C37.9971 73.9524 40.8399 76.7952 44.3491 76.7952C47.8583 76.7952 50.706 73.9476 50.706 70.4384C50.706 66.9292 47.8631 64.0815 44.3491 64.0815ZM46.027 71.1383C44.3443 71.1383 42.9828 69.7768 42.9828 68.0941C42.9828 66.4114 44.3443 65.0547 46.027 65.0547C47.7097 65.0547 49.0712 66.4162 49.0712 68.0941C49.0712 69.772 47.7097 71.1383 46.027 71.1383Z" fill="#5A251B"/>
</svg>
