<svg viewBox="0 0 128 128" fill="none" xmlns="http://www.w3.org/2000/svg">
<g clip-path="url(#clip0)">
<path d="M64 -0.000249386C30.8629 -0.000252283 4.00001 26.8627 4.00001 59.9997C4 93.1368 30.8629 120 64 120C97.1371 120 124 93.1368 124 59.9998C124 26.8627 97.1371 -0.000246489 64 -0.000249386Z" fill="white"/>
<path d="M64 118C96.0325 118 122 92.0325 122 60C122 27.9675 96.0325 2 64 2C31.9675 2 6 27.9675 6 60C6 92.0325 31.9675 118 64 118Z" stroke="black" stroke-opacity="0.097"/>
<path d="M107 88.7856L63.7084 63.9967L20 88.8883L107 88.7856Z" fill="#662D91"/>
<path d="M63.7224 14.1117L63.7085 63.9966L107 88.7855L63.7224 14.1117Z" fill="#9E1F63"/>
<path d="M20 88.8882L63.7084 63.9966L63.7223 14.1117L20 88.8882Z" fill="#FF5000"/>
<path d="M63.6195 44.3734L45.7476 74.2253H81.5715L63.6195 44.3734V44.3734Z" fill="white" stroke="#FF5000" stroke-width="2" stroke-miterlimit="10"/>
</g>
<defs>
<clipPath id="clip0">
<rect width="128" height="128" fill="white"/>
</clipPath>
</defs>
</svg>
