<svg viewBox="0 0 128 128" fill="none" xmlns="http://www.w3.org/2000/svg">
<g clip-path="url(#clip0)">
<path d="M64 -0.000249386C30.8629 -0.000252283 4.00001 26.8627 4.00001 59.9997C4 93.1368 30.8629 120 64 120C97.1371 120 124 93.1368 124 59.9998C124 26.8627 97.1371 -0.000246489 64 -0.000249386Z" fill="#8DC351"/>
<path d="M85.507 37.5821C82.2035 29.3234 74.3578 28.9104 64.8604 30.5622L61.5569 19L54.5371 21.0647L57.8406 32.2139C56.1888 32.6269 54.1242 33.4527 52.0595 33.8657L48.7561 22.3035L41.7362 24.3682L45.0397 35.9303C43.388 36.3433 42.1492 36.7562 40.4974 37.1692L31 40.4726L33.0647 47.9055C33.0647 47.9055 38.4328 46.2537 38.0198 46.2537C40.9104 45.4279 42.1492 46.6667 42.975 48.3184L46.6914 61.5323C46.6914 61.5323 47.1043 61.5323 47.5173 61.5323L46.6914 61.9453L52.0595 80.5274C52.0595 81.3532 52.0595 83.005 49.9949 83.8308L45.0397 85.4826L45.8655 94.1542L54.95 91.6766C56.6018 91.2637 58.2535 90.8507 59.9052 90.4378L63.2087 102L70.2285 99.9353L66.9251 88.3731C68.9897 87.9602 70.6414 87.5473 72.7061 86.7214L76.0096 98.2836L83.0294 96.2189L79.7259 84.6567C91.288 80.5274 98.7208 75.1592 96.6561 63.597C95.0044 54.5124 89.6363 51.6219 82.2035 52.0348C86.3329 47.9055 87.9846 43.7761 85.507 37.5821ZM83.0294 65.6617C85.507 74.3333 70.2285 77.6368 65.2733 79.2886L60.7311 63.597C65.6863 62.3582 80.1389 56.5771 83.0294 65.6617ZM73.119 44.602C75.5966 52.4478 62.7957 55.3383 58.6664 56.5771L54.5371 42.5373C58.6664 41.2985 71.0544 36.3433 73.119 44.602Z" fill="white"/>
<path d="M64 118C96.0325 118 122 92.0325 122 60C122 27.9675 96.0325 2 64 2C31.9675 2 6 27.9675 6 60C6 92.0325 31.9675 118 64 118Z" stroke="black" stroke-opacity="0.097"/>
</g>
<defs>
<clipPath id="clip0">
<rect width="128" height="128" fill="white"/>
</clipPath>
</defs>
</svg>
