<svg viewBox="0 0 128 128" fill="none" xmlns="http://www.w3.org/2000/svg">
<path d="M64.0002 127.991C99.3411 127.991 127.991 99.3411 127.991 64.0002C127.991 28.6592 99.3411 0.00976562 64.0002 0.00976562C28.6592 0.00976562 0.00976562 28.6592 0.00976562 64.0002C0.00976562 99.3411 28.6592 127.991 64.0002 127.991Z" fill="#0D061D"/>
<path d="M105.923 68.1325C102.783 67.3367 99.5904 69.1057 98.5836 72.1403L92.9555 70.7309L98.4878 48.8894C101.623 49.4311 104.696 47.4752 105.492 44.3399C106.326 41.0464 104.332 37.7002 101.043 36.8708C97.9077 36.075 94.7197 37.8392 93.7081 40.8594L71.464 35.2265L72.835 29.5887C75.9463 30.0921 78.9857 28.1409 79.772 25.0248C80.6061 21.7313 78.6118 18.3851 75.3231 17.5558C72.0296 16.7216 68.6834 18.7111 67.8493 22.0046C67.4753 23.4955 67.6719 25.0009 68.3191 26.2761L58.8269 32.0241H58.8221L48.889 29.5072C49.4355 26.3719 47.4747 23.299 44.3395 22.5128C41.0508 21.6786 37.7045 23.6681 36.8704 26.9616C36.0746 30.0969 37.8436 33.2753 40.859 34.2964L38.2894 44.4549H38.2846L28.5816 50.3372C28.5816 50.3372 28.5816 50.3324 28.5768 50.3324C27.7666 49.1914 26.5633 48.3237 25.0963 47.9546C21.8076 47.1204 18.4614 49.1147 17.6272 52.4034C16.7931 55.6969 18.7874 59.0431 22.0761 59.8773C25.2162 60.6731 28.4042 58.8945 29.4157 55.8695L35.0439 57.2693L29.5116 79.1204C26.3763 78.5739 23.3033 80.5298 22.5075 83.6651C21.6734 86.9586 23.6677 90.3048 26.9612 91.139C30.0917 91.9348 33.2701 90.1658 34.2912 87.1504L56.5354 92.7833L55.1643 98.4211C52.0482 97.9129 49.0136 99.8689 48.2274 102.975C47.3932 106.269 49.3875 109.615 52.681 110.449C55.9697 111.283 59.3159 109.289 60.1501 105.996C60.524 104.505 60.3227 102.999 59.6803 101.724L69.1724 95.9761H69.1772L79.1104 98.493C78.5639 101.628 80.5246 104.701 83.6599 105.497C86.9486 106.331 90.2948 104.337 91.129 101.043C91.9248 97.9129 90.1558 94.7297 87.1404 93.7134L89.7099 83.5549H89.7147L99.4178 77.6726H99.4226C100.223 78.8136 101.436 79.6861 102.903 80.0552C106.197 80.8846 109.543 78.8951 110.372 75.6016C111.206 72.3081 109.217 68.9619 105.923 68.1325ZM97.5577 48.6545L92.0255 70.5056L74.6855 66.1718C75.1841 63.7508 74.8581 61.1573 73.6021 58.837L94.5087 46.3821C95.2374 47.4128 96.2873 48.2278 97.5529 48.6593L97.5577 48.6545ZM93.4732 41.7943C93.2431 43.1126 93.4541 44.4214 94.0198 45.5528L73.1083 58.0172C71.6365 55.7592 69.4505 54.2251 67.0295 53.5252L71.2434 36.1661L93.4732 41.7943ZM68.8224 27.1006C69.5559 28.1313 70.6202 28.9463 71.905 29.3634L70.5435 34.9964L60.1309 32.3597L68.8224 27.1006ZM58.9756 33.0596L70.3134 35.9312L66.0995 53.2999C63.6977 52.8205 61.1281 53.1513 58.8269 54.3881L49.5218 38.7692L58.9708 33.0548L58.9756 33.0596ZM48.6541 30.4468L57.6716 32.7288L49.0376 37.9543L46.3817 33.4862C47.4124 32.7671 48.2274 31.722 48.6589 30.4468H48.6541ZM39.4592 43.7454L41.789 34.5313C43.1122 34.7614 44.421 34.5457 45.5571 33.9752L48.213 38.448L39.4592 43.7502V43.7454ZM39.1236 45.0638L48.7116 39.263L58.0168 54.8819C55.778 56.3345 54.2487 58.4966 53.5439 60.8888L36.2136 56.555L39.1236 45.059V45.0638ZM29.6554 54.9202C29.8855 53.5875 29.6554 52.2692 29.0801 51.1426L37.9538 45.7733L35.2788 56.3297L29.6506 54.9202H29.6554ZM30.4464 79.3457L35.9787 57.4946L53.3186 61.8188C52.8201 64.2398 53.146 66.8334 54.4021 69.1585L33.4906 81.6133C32.7715 80.5826 31.7168 79.7676 30.4512 79.3361L30.4464 79.3457ZM34.5309 86.2059C34.7658 84.8828 34.5501 83.574 33.9844 82.4379L54.8959 69.983C56.3676 72.241 58.5537 73.7751 60.9747 74.4702L56.7607 91.8341L34.5309 86.2059ZM59.1817 100.895C58.4434 99.8641 57.3839 99.0539 56.0992 98.6368L57.4607 93.0038L67.8636 95.6358L59.1769 100.895H59.1817ZM69.0286 94.9454H69.0238L57.6956 92.0738L61.8999 74.7051C64.3017 75.1845 66.8713 74.8537 69.1724 73.6073L78.4824 89.2262L69.0334 94.9502L69.0286 94.9454ZM79.3501 97.5582L70.3326 95.2762L78.9666 90.0507L81.6224 94.5092C80.5821 95.2379 79.7768 96.2782 79.3453 97.5534L79.3501 97.5582ZM88.545 84.2596L86.2151 93.4737C84.8968 93.2388 83.5832 93.4545 82.447 94.0202L79.7816 89.5522L88.545 84.25V84.2596ZM88.8806 82.9364L79.2926 88.742L69.9874 73.1231C72.2262 71.6657 73.7459 69.5084 74.4554 67.1162H74.4602L91.7905 71.4404L88.8806 82.9364ZM90.0455 82.2269L92.7206 71.6705L98.3487 73.08C98.1234 74.4127 98.3487 75.7262 98.924 76.8576L90.0503 82.2269H90.0455Z" fill="url(#paint0_linear_703_6191)"/>
<defs>
<linearGradient id="paint0_linear_703_6191" x1="63.9997" y1="110.631" x2="63.9997" y2="17.3688" gradientUnits="userSpaceOnUse">
<stop stop-color="#28D7FF"/>
<stop offset="0.13" stop-color="#2BD3FF"/>
<stop offset="0.25" stop-color="#37C7FF"/>
<stop offset="0.37" stop-color="#4BB4FF"/>
<stop offset="0.49" stop-color="#6699FF"/>
<stop offset="0.54" stop-color="#748DFF"/>
<stop offset="0.55" stop-color="#7B85FE"/>
<stop offset="0.62" stop-color="#9F60FE"/>
<stop offset="0.68" stop-color="#BD41FE"/>
<stop offset="0.75" stop-color="#D529FE"/>
<stop offset="0.82" stop-color="#E618FE"/>
<stop offset="0.9" stop-color="#EF0EFE"/>
<stop offset="1" stop-color="#F30BFE"/>
</linearGradient>
</defs>
</svg>
