<svg viewBox="0 0 128 128" fill="none" xmlns="http://www.w3.org/2000/svg">
<path d="M64 128C99.3462 128 128 99.3462 128 64C128 28.6538 99.3462 0 64 0C28.6538 0 0 28.6538 0 64C0 99.3462 28.6538 128 64 128Z" fill="#F0B90B"/>
<path d="M88.1087 34.1525L86.7952 34.8812L86.3158 35.1496L79.0289 39.1958L78.8084 39.3156L78.5447 39.4642L78.329 39.3348L78.0701 39.1814L72.7152 35.9838L72.2358 35.6961L63.9997 30.7823L55.7636 35.6961L55.2842 35.9838L49.9293 39.1814L49.6704 39.3348L49.4547 39.4642L49.191 39.3156L48.9705 39.1958L41.6836 35.1496L41.2042 34.8812L39.8906 34.1525L40.3652 33.8696L41.2042 33.371L41.6836 33.0882L49.191 28.6298L49.6704 28.3421L55.2842 25.0103L55.7636 24.7227L63.9997 19.8328L72.2358 24.7227L72.7152 25.0103L78.329 28.3421L78.8084 28.6298L86.3158 33.0882L86.7952 33.371L87.6341 33.8696L88.1087 34.1525Z" fill="white"/>
<path d="M86.7951 50.9793V60.8742L86.3157 61.1426L78.8083 65.3086L78.3289 65.5771L72.7151 68.6932V85.453L72.2357 85.7167L63.9996 90.295L55.7635 85.7167L55.2841 85.453V68.6932L49.6703 65.5771L49.1909 65.3086L41.6835 61.1426L41.2041 60.8742V50.9793L41.6835 50.6917L49.0855 46.2716L49.1909 46.2093L49.5601 45.9888L49.6703 46.0511L50.0443 46.2572L55.2841 49.1672L55.7635 49.4357L63.9996 54.0091L72.2357 49.4357L72.7151 49.1672L77.955 46.2572L78.3289 46.0511L78.4392 45.9888L78.8083 46.2093L78.9138 46.2716L86.3157 50.6917L86.7951 50.9793Z" fill="white"/>
<path d="M27.2344 59.2778V59.3162H27.2679L27.2344 59.2778ZM27.2344 59.8244V59.8723H27.2775L27.2344 59.8244Z" fill="white"/>
<path d="M72.7152 91.5703V101.278L63.9997 106.283L55.2842 101.278V91.5703L55.7636 91.8388L63.9997 96.4123L72.2358 91.8388L72.7152 91.5703Z" fill="white"/>
<path d="M49.6703 71.7376V82.3371L49.1909 82.0687L41.6835 77.9027L41.2041 77.6342V67.0347L41.6835 67.3031L49.1909 71.4691L49.6703 71.7376Z" fill="white"/>
<path d="M43.8408 42.8152L43.3662 43.0981L41.6835 44.1L41.2041 44.3877L34.6363 48.3044V57.2308L34.1569 56.9624L33.0974 56.3727L32.6133 56.1042L27.2344 53.1176V41.6695L33.7878 37.7767L34.1569 37.5562L34.2624 37.4939L34.6363 37.7048L41.2041 41.3483L41.6835 41.6167L43.3566 42.5468L43.8408 42.8152Z" fill="white"/>
<path d="M49.6703 88.4543V98.0519L27.2344 85.1656V59.8724L27.2775 59.8484L27.2344 59.8245V59.3163L27.2679 59.2971L27.7521 59.5656L34.1569 63.1227L34.6363 63.3912V80.1079L41.2041 83.7513L41.6835 84.0198L49.1909 88.1858L49.6703 88.4543Z" fill="white"/>
<path d="M72.8254 42.6378L72.7151 42.7002L72.3412 42.9111H72.3364L72.2357 42.9638L63.9996 47.5325L55.7635 42.9638L55.6628 42.9111H55.658L55.2841 42.7002L55.1738 42.6378L55.2841 42.5755L55.6484 42.355L55.7635 42.2879L63.9996 37.374L72.2357 42.2879L72.3508 42.355L72.7151 42.5755L72.8254 42.6378Z" fill="white"/>
<path d="M78.3291 71.7376V82.3371L78.8085 82.0687L86.3159 77.9027L86.7953 77.6342V67.0347L86.3159 67.3031L78.8085 71.4691L78.3291 71.7376Z" fill="white"/>
<path d="M84.1582 42.8152L84.6328 43.0981L86.3155 44.1L86.7949 44.3877L93.3627 48.3044V57.2308L93.8421 56.9624L94.9016 56.3727L95.3858 56.1042L100.765 53.1176V41.6695L94.2112 37.7767L93.8421 37.5562L93.7366 37.4939L93.3627 37.7048L86.7949 41.3483L86.3155 41.6167L84.6424 42.5468L84.1582 42.8152Z" fill="white"/>
<path d="M78.3291 88.4543V98.0519L100.765 85.1656V59.8724L100.722 59.8484L100.765 59.8245V59.3163L100.731 59.2971L100.247 59.5656L93.8425 63.1227L93.3631 63.3912V80.1079L86.7953 83.7513L86.3159 84.0198L78.8085 88.1858L78.3291 88.4543Z" fill="white"/>
</svg>
