<svg viewBox="0 0 128 128" fill="none" xmlns="http://www.w3.org/2000/svg">
<path d="M123.997 59.9941C123.997 93.1268 97.1371 119.988 63.9986 119.988C30.8601 119.988 4 93.1268 4 59.9941C4 26.8614 30.8607 0 63.9986 0C97.1364 0 123.997 26.8588 123.997 59.9941Z" fill="#000D2B"/>
<path d="M61.1877 21L42.9237 31.7629L61.1877 42.5299L79.7953 31.7629L61.1877 21ZM64.1913 78.4701V100L89 85.7646V64.2306L64.1913 78.4701ZM82.7988 38.533V60.067L64.1872 70.834V49.3L82.7988 38.533ZM38 60.067L56.6116 70.834V49.3L38 38.533V60.067ZM38 89.2371L56.6116 100V78.4701L38 67.7071V89.233V89.2371Z" fill="white"/>
<path d="M64 118C96.0325 118 122 92.0324 122 59.9999C122 27.9674 96.0325 1.99988 64 1.99988C31.9675 1.99988 6 27.9674 6 59.9999C6 92.0324 31.9675 118 64 118Z" stroke="black" stroke-opacity="0.097"/>
</svg>
