<svg viewBox="0 0 128 128" fill="none" xmlns="http://www.w3.org/2000/svg">
<g clip-path="url(#clip0)">
<path d="M64 -0.000249386C30.8629 -0.000252283 4.00001 26.8627 4.00001 59.9997C4 93.1368 30.8629 120 64 120C97.1371 120 124 93.1368 124 59.9998C124 26.8627 97.1371 -0.000246489 64 -0.000249386Z" fill="#EAB300"/>
<path d="M86.9745 45.5676C86.2043 37.5604 79.2913 34.8769 70.5556 34.1116V23H63.7957V33.815C62.0208 33.815 60.2029 33.8485 58.3993 33.8868V23H51.6394L51.6346 34.102C50.1707 34.1307 48.7307 34.1594 47.3289 34.1594V34.126L38.0048 34.1212V41.344C38.0048 41.344 42.9994 41.2483 42.9132 41.3392C45.6545 41.3392 46.5443 42.9272 46.8027 44.3V56.9567C46.994 56.9567 47.238 56.9662 47.5155 57.0045H46.8027L46.7979 74.7362C46.6783 75.5972 46.1712 76.97 44.2576 76.9748C44.3437 77.0513 39.3443 76.9748 39.3443 76.9748L38 85.049H46.8027C48.4388 85.049 50.0511 85.0777 51.6298 85.0873L51.6346 96.3232H58.3897V85.2068C60.2411 85.2451 62.0352 85.2595 63.7909 85.2595L63.7861 96.3232H70.546V85.1112C81.9129 84.4607 89.8784 81.5955 90.8639 70.9191C91.6629 62.3235 87.6203 58.4825 81.1666 56.9327C85.0944 54.9429 87.5486 51.4272 86.9745 45.5676ZM77.5116 69.5894C77.5116 77.9841 63.1355 77.0322 58.5476 77.0322V62.1418C63.1355 62.1513 77.5116 60.8359 77.5116 69.5894ZM74.3637 48.5859C74.3637 56.2248 62.3653 55.3303 58.5476 55.3351V41.8366C62.37 41.8366 74.3685 40.6217 74.3637 48.5859Z" fill="white"/>
<path d="M46.812 56.6602H47.8167V57.4016H46.812V56.6602Z" fill="white"/>
<path d="M64 118C96.0325 118 122 92.0325 122 60C122 27.9675 96.0325 2 64 2C31.9675 2 6 27.9675 6 60C6 92.0325 31.9675 118 64 118Z" stroke="black" stroke-opacity="0.097"/>
</g>
<defs>
<clipPath id="clip0">
<rect width="128" height="128" fill="white"/>
</clipPath>
</defs>
</svg>
