<svg viewBox="0 0 128 128" fill="none" xmlns="http://www.w3.org/2000/svg">
<path d="M64 120C97.1371 120 124 93.1371 124 60C124 26.8629 97.1371 0 64 0C30.8629 0 4 26.8629 4 60C4 93.1371 30.8629 120 64 120Z" fill="#F7931A"/>
<path d="M64 118C96.0325 118 122 92.0325 122 60C122 27.9675 96.0325 2 64 2C31.9675 2 6 27.9675 6 60C6 92.0325 31.9675 118 64 118Z" stroke="black" stroke-opacity="0.097"/>
<path d="M92.7559 52.08C94.0119 43.696 87.6239 39.188 78.8959 36.18L81.7279 24.82L74.8159 23.1L72.0559 34.16C70.2399 33.704 68.3759 33.28 66.5159 32.856L69.2959 21.724L62.3839 20L59.5519 31.356C58.0479 31.012 56.5679 30.676 55.1359 30.316L55.1439 30.28L45.6079 27.9L43.7679 35.284C43.7679 35.284 48.8999 36.46 48.7919 36.532C51.5919 37.232 52.0959 39.084 52.0119 40.556L48.7879 53.496C48.9799 53.544 49.2279 53.616 49.5079 53.724L48.7759 53.544L44.2559 71.672C43.9119 72.52 43.0439 73.796 41.0839 73.312C41.1559 73.412 36.0599 72.06 36.0599 72.06L32.6279 79.972L41.6279 82.216C43.2999 82.636 44.9399 83.076 46.5519 83.488L43.6919 94.976L50.5999 96.696L53.4319 85.336C55.3199 85.844 57.1519 86.316 58.9439 86.764L56.1199 98.076L63.0319 99.796L65.8919 88.332C77.6839 90.564 86.5479 89.664 90.2799 79C93.2879 70.416 90.1319 65.46 83.9279 62.232C88.4479 61.192 91.8479 58.22 92.7559 52.08ZM76.9559 74.232C74.8239 82.82 60.3639 78.176 55.6759 77.012L59.4759 61.792C64.1639 62.964 79.1919 65.28 76.9559 74.232ZM79.0959 51.956C77.1479 59.768 65.1159 55.796 61.2159 54.824L64.6559 41.024C68.5559 41.996 81.1279 43.808 79.0959 51.956Z" fill="white"/>
</svg>
