<svg viewBox="0 0 128 128" fill="none" xmlns="http://www.w3.org/2000/svg">
<g clip-path="url(#clip0)">
<path d="M123.997 59.9941C123.997 93.1269 97.1371 119.988 63.9986 119.988C30.8601 119.988 4 93.1269 4 59.9941C4 26.8614 30.8607 6.10352e-05 63.9986 6.10352e-05C97.1364 6.10352e-05 123.997 26.8589 123.997 59.9941Z" fill="white"/>
<g clip-path="url(#clip1)">
<path d="M64 85C64 54.4818 64 39.1818 64 39.1818C55 39.1818 46 54.4818 37 85H64Z" fill="url(#paint0_linear)"/>
<path d="M91.0001 85C91.0001 49 91.0001 31 91.0001 31C78.482 31 65.882 49 53.3638 85H91.0001Z" fill="url(#paint1_linear)"/>
</g>
</g>
<path d="M64 118C96.0325 118 122 92.0325 122 60C122 27.9675 96.0325 2 64 2C31.9675 2 6 27.9675 6 60C6 92.0325 31.9675 118 64 118Z" stroke="black" stroke-opacity="0.097"/>
<defs>
<linearGradient id="paint0_linear" x1="50.5" y1="39.1818" x2="50.5" y2="85" gradientUnits="userSpaceOnUse">
<stop stop-color="#96D9FD"/>
<stop offset="1" stop-color="#329EFC"/>
</linearGradient>
<linearGradient id="paint1_linear" x1="72.182" y1="31" x2="72.182" y2="85" gradientUnits="userSpaceOnUse">
<stop stop-color="#61C7FF"/>
<stop offset="1" stop-color="#0087FD"/>
</linearGradient>
<clipPath id="clip0">
<rect width="120" height="120" fill="white" transform="translate(4)"/>
</clipPath>
<clipPath id="clip1">
<rect width="54" height="54" fill="white" transform="translate(37 31)"/>
</clipPath>
</defs>
</svg>
