<svg viewBox="0 0 128 128" fill="none" xmlns="http://www.w3.org/2000/svg">
<path d="M123.997 59.9941C123.997 93.1268 97.1371 119.988 63.9986 119.988C30.8601 119.988 4 93.1268 4 59.9941C4 26.8614 30.8607 0 63.9986 0C97.1364 0 123.997 26.8588 123.997 59.9941Z" fill="#35BAEB"/>
<g clip-path="url(#clip0)">
<path d="M55.1707 71.1524L36.0029 52.1993V74.9785H53.6687C53.8749 73.613 54.3861 72.3051 55.1707 71.1524ZM53.6687 78.7159H36.0029C36.4109 84.6479 38.7604 90.2917 42.6971 94.7916L55.1707 82.3203C54.3771 81.2563 53.8615 80.0193 53.6687 78.7159ZM81.5303 56.2515C77.0287 52.288 71.2985 49.956 65.2769 49.6279V67.078C66.631 67.2953 67.9178 67.7918 69.0567 68.5455L81.5303 56.2515ZM71.9711 82.1385L84.4447 94.4724C88.3097 90.0345 90.6098 84.4705 90.9999 78.6228H73.2445C73.0337 79.8597 72.6033 81.0479 71.9711 82.1385ZM73.2489 74.9829H90.9147C90.5067 69.0509 88.1572 63.4071 84.2205 58.9071L71.7424 71.2854C72.5271 72.3849 73.0427 73.6529 73.2489 74.9829ZM45.3604 97.3808C49.8665 101.344 55.5967 103.676 61.6182 104V86.5099C60.2642 86.2927 58.9774 85.7961 57.8385 85.0424L45.3604 97.3808ZM65.2769 86.5055V103.973C71.2985 103.574 77.0152 101.216 81.5348 97.2611L69.1464 85.0114C67.9716 85.7607 66.6579 86.2661 65.2769 86.5055ZM36.0029 46.551C40.7377 51.2328 55.5832 66.045 58.0851 68.4746C59.1522 67.8228 60.3225 67.3485 61.5465 67.078V38.5575L36.0478 16C36.0029 16 36.0029 45.7176 36.0029 46.551Z" fill="white"/>
</g>
<path d="M64 118C96.0325 118 122 92.0325 122 60C122 27.9675 96.0325 2 64 2C31.9675 2 6 27.9675 6 60C6 92.0325 31.9675 118 64 118Z" stroke="black" stroke-opacity="0.097"/>
<defs>
<clipPath id="clip0">
<rect width="55" height="88" fill="white" transform="translate(36 16)"/>
</clipPath>
</defs>
</svg>
