<svg viewBox="0 0 128 128" fill="none" xmlns="http://www.w3.org/2000/svg">
<g clip-path="url(#clip0)">
<path d="M64 -0.000127316C30.8629 -0.000130213 4.00001 26.8628 4.00001 59.9999C4 93.137 30.8629 120 64 120C97.1371 120 124 93.137 124 59.9999C124 26.8628 97.1371 -0.000124419 64 -0.000127316Z" fill="black"/>
<path d="M105.147 51.1581C104.597 48.488 103.785 45.8788 102.721 43.3687C101.673 40.8964 100.39 38.5301 98.8906 36.3023C97.4037 34.1013 95.7077 32.0491 93.8262 30.1743C91.9503 28.2926 89.897 26.5966 87.6948 25.1099C85.4636 23.618 83.0992 22.3357 80.6318 21.2795C75.529 19.1153 70.043 18 64.5002 18C58.9575 18 53.4715 19.1153 48.3687 21.2795C43.4345 23.3607 38.9529 26.3831 35.1743 30.1778C33.2929 32.0515 31.5969 34.1025 30.1099 36.3023C28.6178 38.5345 27.3356 40.9001 26.2795 43.3687C24.1153 48.4715 23 53.9575 23 59.5002C23 65.043 24.1153 70.529 26.2795 75.6318C27.3014 78.0997 28.6223 80.4389 30.1099 82.6948C31.5969 84.8967 33.2928 86.9501 35.1743 88.8262C37.0502 90.7079 39.1035 92.4039 41.3057 93.8906C43.5164 95.3782 45.9008 96.6573 48.3687 97.721C53.4715 99.8852 58.9575 101 64.5002 101C70.043 101 75.529 99.8852 80.6318 97.721C83.0997 96.6991 85.4389 95.3782 87.6948 93.8906C89.897 92.4039 91.9503 90.7079 93.8262 88.8262C95.7079 86.9503 97.4039 84.897 98.8906 82.6948C100.378 80.4841 101.657 78.0997 102.721 75.6318C105.995 67.9093 106.842 59.3732 105.147 51.1581V51.1581ZM64.5385 95.8058C44.4931 95.8058 28.2781 79.5456 28.2781 59.542C28.2781 39.5383 44.5383 23.2781 64.5385 23.2781C84.5421 23.2781 100.802 39.5383 100.802 59.542C100.802 79.5456 84.5456 95.8058 64.5385 95.8058Z" fill="white"/>
<path d="M65.1814 92.6566H66.1616C66.3319 92.6566 66.4987 92.6566 66.669 92.6115H66.7142C66.8845 92.6115 67.0097 92.6115 67.18 92.5697H67.3086C67.4372 92.5697 67.5658 92.5697 67.6909 92.528H67.8195C67.9482 92.528 68.0768 92.4863 68.2471 92.4863H68.3305C68.5008 92.4863 68.6711 92.4411 68.8415 92.4411C69.0118 92.4411 69.1404 92.3994 69.3107 92.3577H69.3941C69.5227 92.3577 69.6513 92.316 69.7765 92.316H69.8634C70.0337 92.2708 70.1623 92.2708 70.3326 92.2291C70.6698 92.1874 71.0104 92.1005 71.3093 92.0171H71.3962C71.5214 91.9754 71.6917 91.9754 71.8203 91.9302H71.862C72.2026 91.8468 72.5015 91.7599 72.8422 91.6764C69.6542 91.7775 66.4662 91.4774 63.353 90.7831C58.6676 89.7612 54.2011 87.9329 50.4124 84.7803C47.4255 82.2946 45.0284 79.1761 43.3945 75.6505C41.7606 72.1248 40.9308 68.28 40.9649 64.3943C40.9956 58.5973 43.0583 52.9946 46.794 48.5617C51.6463 42.8161 58.5424 39.7921 65.6054 39.6217H66.5856V33.963H65.4803C63.3316 34.0024 61.1923 34.2586 59.0951 34.7277C56.9846 35.2049 54.9306 35.904 52.9671 36.8132C50.965 37.7517 49.0915 38.8988 47.3466 40.2196C45.5435 41.5902 43.9017 43.1609 42.4526 44.9016C41.0882 46.5126 39.904 48.2679 38.9211 50.1363C37.9487 51.9374 37.1637 53.8336 36.5784 55.795C36.0042 57.7261 35.62 59.7086 35.4313 61.7144L35.3027 63.5844V64.6897C35.3444 66.8622 35.6017 68.9894 36.0674 71.0749C36.5367 73.2056 37.2597 75.246 38.153 77.2064C39.22 79.5456 41.1353 82.9937 43.9855 85.5902C49.8051 90.178 57.0026 92.6678 64.4132 92.6566H65.1814Z" fill="white"/>
<path d="M74.4581 87.2064C72.3588 87.1314 70.2677 86.9037 68.2015 86.5251C59.4353 84.9505 51.8996 79.5872 49.1363 71.5024C45.7717 61.6691 50.9229 51.0294 60.711 47.7969C62.5763 47.1718 64.531 46.8548 66.4983 46.8584C69.0114 46.8584 71.521 47.3694 73.822 48.3044L76.203 43.24C75.4869 42.9529 74.7637 42.684 74.034 42.4336C71.5954 41.6682 69.0542 41.2803 66.4983 41.2831C63.9377 41.2879 61.3944 41.7045 58.9661 42.517C55.8669 43.5392 53.0125 45.1913 50.5823 47.3694C49.4102 48.4134 48.3417 49.5681 47.3914 50.8174C46.4521 52.0524 45.6393 53.3788 44.9653 54.7764C43.5928 57.5864 42.7828 60.6375 42.5808 63.7581C42.3688 66.9907 42.7929 70.2232 43.8565 73.289C44.9402 76.4427 46.6819 79.33 48.966 81.7597C51.0515 84.0155 53.4777 85.7187 56.4113 87.2933C59.4771 88.9095 63.2658 89.7611 67.2213 90.3173C69.7761 90.6544 73.1824 90.7413 75.1811 90.7413C76.9259 90.1018 77.6489 89.8028 78.5874 89.4205C79.3973 89.0381 80.2037 88.6558 81.0136 88.1866C81.8235 87.7173 81.9521 87.6304 83.3111 86.7406C83.4322 86.6653 83.5462 86.5792 83.6518 86.4834C78.9698 87.2933 77.7775 87.2481 74.4581 87.2064V87.2064Z" fill="white"/>
<path d="M84.9319 80.8663C83.6111 80.9497 81.7376 81.0748 79.6103 81.0748C75.8216 81.0748 71.1813 80.7377 67.2258 79.4168C61.0943 77.3765 55.307 72.1418 55.307 65.6697C55.3056 64.1379 55.6063 62.6209 56.1919 61.2054C56.7775 59.79 57.6364 58.5039 58.7195 57.4207C59.8027 56.3376 61.0888 55.4786 62.5043 54.8931C63.9197 54.3075 65.4368 54.0068 66.9686 54.0082C71.3517 54.0082 75.1404 56.4343 77.1425 59.9658L82.2068 57.4562C81.4127 55.9612 80.3927 54.5977 79.1828 53.4138C77.5796 51.8078 75.6754 50.5337 73.5792 49.6644C71.4831 48.7951 69.2361 48.3477 66.9668 48.3477C64.6976 48.3477 62.4506 48.7951 60.3544 49.6644C58.2583 50.5337 56.3541 51.8078 54.7509 53.4138C53.1454 55.017 51.8718 56.9209 51.0028 59.0168C50.1338 61.1126 49.6865 63.3592 49.6865 65.628C49.6979 68.0059 50.207 70.355 51.1812 72.5242C52.071 74.4811 53.3084 76.3129 54.883 78.0161C57.6498 80.9914 61.435 83.3759 65.4809 84.7384C69.353 86.014 75.0569 86.4833 80.5905 86.1009C82.1199 85.9723 83.2704 85.8437 85.2273 85.4197C87.1158 83.9294 88.8299 82.2305 90.3369 80.3553C89.0161 80.4839 86.5899 80.7377 84.9319 80.8663V80.8663Z" fill="white"/>
<path d="M64 118C96.0325 118 122 92.0325 122 60C122 27.9675 96.0325 2 64 2C31.9675 2 6 27.9675 6 60C6 92.0325 31.9675 118 64 118Z" stroke="black" stroke-opacity="0.097"/>
</g>
<defs>
<clipPath id="clip0">
<rect width="128" height="128" fill="white"/>
</clipPath>
</defs>
</svg>
