<svg viewBox="0 0 128 128" fill="none" xmlns="http://www.w3.org/2000/svg">
<circle cx="64" cy="64" r="64" fill="white"/>
<path fill-rule="evenodd" clip-rule="evenodd" d="M38.7021 28.6716V5.19415C23.8691 11.5837 11.9351 23.421 5.41939 38.1859H73.3733C83.049 38.1859 90.9507 46.0877 90.9507 55.7633V72.857C90.9507 82.5327 83.049 90.4345 73.3733 90.4345H56.2796C46.6039 90.4345 38.7022 82.5327 38.7022 72.857V60.2787H51.603V72.6958C51.603 75.2759 53.6994 77.3723 56.2796 77.3723H73.3733C75.9535 77.3723 78.0499 75.2759 78.0499 72.6958V55.7633C78.0499 53.1832 75.9535 51.0868 73.3733 51.0868H1.30335C0.448798 55.2577 0 59.5766 0 64.0002C0 99.3453 28.6514 128 64 128C99.3486 128 128 99.3453 128 64.0002C128 28.6523 99.3479 0 64 0C59.7586 0 55.6137 0.412559 51.603 1.19973V28.6716H38.7021Z" fill="#1783D5"/>
<path fill-rule="evenodd" clip-rule="evenodd" d="M38.7021 28.6716V5.19415C23.8691 11.5837 11.9351 23.421 5.41939 38.1859H73.3733C83.049 38.1859 90.9507 46.0877 90.9507 55.7633V72.857C90.9507 82.5327 83.049 90.4345 73.3733 90.4345H56.2796C46.6039 90.4345 38.7022 82.5327 38.7022 72.857V60.2787H51.603V72.6958C51.603 75.2759 53.6994 77.3723 56.2796 77.3723H73.3733C75.9535 77.3723 78.0499 75.2759 78.0499 72.6958V55.7633C78.0499 53.1832 75.9535 51.0868 73.3733 51.0868H1.30335C0.448798 55.2577 0 59.5766 0 64.0002C0 99.3453 28.6514 128 64 128C99.3486 128 128 99.3453 128 64.0002C128 28.6523 99.3479 0 64 0C59.7586 0 55.6137 0.412559 51.603 1.19973V28.6716H38.7021Z" fill="url(#paint0_linear)"/>
<path d="M63.865 125.73C98.0321 125.73 125.73 98.0321 125.73 63.865C125.73 29.6979 98.0321 2 63.865 2C29.6979 2 2 29.6979 2 63.865C2 98.0321 29.6979 125.73 63.865 125.73Z" stroke="black" stroke-opacity="0.097"/>
<defs>
<linearGradient id="paint0_linear" x1="119.624" y1="118.614" x2="17.2798" y2="16.2626" gradientUnits="userSpaceOnUse">
<stop offset="0.1594" stop-color="#003CDA"/>
<stop offset="1" stop-color="#33DFCC"/>
</linearGradient>
</defs>
</svg>
