<svg viewBox="0 0 128 128" fill="none" xmlns="http://www.w3.org/2000/svg">
<g clip-path="url(#clip0)">
<path d="M64 -0.000249386C30.8629 -0.000252283 4.00001 26.8627 4.00001 59.9997C4 93.1368 30.8629 120 64 120C97.1371 120 124 93.1368 124 59.9998C124 26.8627 97.1371 -0.000246489 64 -0.000249386Z" fill="white"/>
<path d="M64 118C96.0325 118 122 92.0325 122 60C122 27.9675 96.0325 2 64 2C31.9675 2 6 27.9675 6 60C6 92.0325 31.9675 118 64 118Z" stroke="black" stroke-opacity="0.097"/>
<path fill-rule="evenodd" clip-rule="evenodd" d="M36.9243 28.9688C35.6151 22.225 40.8517 16 47.6593 16C53.6814 16 58.6562 20.9281 58.6562 26.8937V40.3812C60.2271 40.3812 61.7981 40.1219 63.3691 40.1219C64.9401 40.1219 66.2492 40.1219 67.8202 40.3812V26.8937C67.8202 20.9281 72.795 16 78.817 16C85.6246 16 90.8612 22.225 89.8139 28.9688L86.9337 44.7906C97.1451 49.2 105 56.9813 105 66.5781V72.5437C105 80.5844 99.7634 87.3281 92.1703 91.7375C84.5773 96.4062 74.6278 99 63.3691 99C52.1104 99 42.1609 96.4062 34.5678 91.7375C27.2366 87.3281 22 80.5844 22 72.5437V66.5781C22 56.9813 29.5931 49.2 39.8044 44.7906L36.9243 28.9688ZM83.0063 46.8656L86.4101 28.1906C87.1956 23.5219 83.7918 19.1125 78.817 19.1125C74.6278 19.1125 71.224 22.4844 71.224 26.6344V43.7531C70.1767 43.4937 68.8675 43.4938 67.8202 43.4938C66.2492 43.4938 64.9401 43.2344 63.3691 43.2344C61.7981 43.2344 60.2271 43.2344 58.6562 43.4938C57.6088 43.4938 56.2997 43.7531 55.2524 43.7531V26.8937C55.2524 22.7437 51.8486 19.3719 47.6593 19.3719C42.9464 19.3719 39.2808 23.7813 40.3281 28.45L43.7319 47.125C32.735 51.275 25.4038 58.5375 25.4038 66.8375V72.8031C25.4038 85.5125 42.4227 95.8875 63.3691 95.8875C84.3155 95.8875 101.334 85.5125 101.334 72.8031V66.8375C101.596 58.2781 94.265 51.0156 83.0063 46.8656Z" fill="#633001"/>
<path d="M101.596 72.5437C101.596 85.2531 84.5772 95.6281 63.6308 95.6281C42.6845 95.6281 25.6655 85.2531 25.6655 72.5437V66.5781H101.858V72.5437H101.596Z" fill="#FEDC90"/>
<path fill-rule="evenodd" clip-rule="evenodd" d="M40.328 28.4502C39.2807 23.7814 42.9463 19.3721 47.6592 19.3721C51.8485 19.3721 55.2523 22.7439 55.2523 26.8939V44.0127C57.8706 43.7533 60.4889 43.4939 63.369 43.4939C65.9873 43.4939 68.6056 43.7533 71.2239 44.0127V26.8939C71.2239 22.7439 74.6277 19.3721 78.817 19.3721C83.5299 19.3721 87.1955 23.7814 86.41 28.4502L83.0062 47.1252C94.0031 51.2752 101.596 58.5377 101.596 66.8377C101.596 79.5471 84.5772 89.9221 63.6308 89.9221C42.6845 89.9221 25.6655 79.5471 25.6655 66.8377C25.6655 58.5377 32.9968 51.2752 43.9936 47.1252L40.328 28.4502Z" fill="#D1884F"/>
<path d="M52.8959 65.0219C52.8959 68.3937 51.0631 71.2469 48.7066 71.2469C46.3501 71.2469 44.5173 68.3937 44.5173 65.0219C44.5173 61.65 46.3501 58.7969 48.7066 58.7969C51.0631 58.7969 52.8959 61.65 52.8959 65.0219Z" fill="#633001"/>
<path d="M81.9589 65.0219C81.9589 68.3937 80.1261 71.2469 77.7696 71.2469C75.4131 71.2469 73.5803 68.3937 73.5803 65.0219C73.5803 61.65 75.4131 58.7969 77.7696 58.7969C80.1261 58.7969 81.9589 61.65 81.9589 65.0219Z" fill="#633001"/>
</g>
<defs>
<clipPath id="clip0">
<rect width="128" height="128" fill="white"/>
</clipPath>
</defs>
</svg>
