<svg viewBox="0 0 128 128" fill="none" xmlns="http://www.w3.org/2000/svg">
<path d="M117.889 29.4926C98.8331 -0.268648 59.2538 -8.95059 29.4926 10.1104C-0.268648 29.1666 -8.95059 68.7459 10.1104 98.5071C29.1666 128.268 68.7459 136.95 98.5071 117.889C128.268 98.8379 136.95 59.2538 117.889 29.4926ZM93.2912 91.6756C85.9372 99.4611 75.5198 104.322 63.995 104.322C41.0797 104.322 22.5652 85.1031 23.7254 61.9384C24.7657 41.2858 41.5591 24.6075 62.226 23.711C71.9483 23.2891 80.9514 26.3381 88.1281 31.7074C89.0533 32.4025 89.1396 33.764 88.3246 34.5886L84.2545 38.6971C83.5929 39.3586 82.5526 39.4497 81.7952 38.908C76.7663 35.3317 70.6251 33.2319 63.9998 33.2319C46.6215 33.2319 32.5607 47.7146 33.2606 65.2511C33.8791 80.8556 46.3435 93.6699 61.9288 94.6959C71.397 95.3191 80.0454 91.6325 86.0858 85.4051C86.7762 84.6908 87.8932 84.6236 88.665 85.2517L93.1043 88.8903C93.9624 89.5902 94.0535 90.8702 93.296 91.6756H93.2912ZM96.5607 60.6296C91.2825 60.6296 86.9967 56.339 86.9967 51.0656C86.9967 45.7922 91.2873 41.5015 96.5607 41.5015C101.834 41.5015 106.125 45.797 106.125 51.0656C106.125 56.3342 101.834 60.6296 96.5607 60.6296ZM96.5607 47.8728C94.8013 47.8728 93.3679 49.3062 93.3679 51.0656C93.3679 52.825 94.8013 54.2584 96.5607 54.2584C98.3201 54.2584 99.7535 52.8298 99.7535 51.0656C99.7535 49.3014 98.3201 47.8728 96.5607 47.8728Z" fill="url(#paint0_linear_703_6194)"/>
<defs>
<linearGradient id="paint0_linear_703_6194" x1="23.2795" y1="103.982" x2="107.347" y2="21.4386" gradientUnits="userSpaceOnUse">
<stop offset="0.07" stop-color="#F17025"/>
<stop offset="1" stop-color="#F9CB66"/>
</linearGradient>
</defs>
</svg>
