<svg viewBox="0 0 128 128" fill="none" xmlns="http://www.w3.org/2000/svg">
<path d="M64.0002 127.981C99.3411 127.981 127.991 99.3313 127.991 63.9904C127.991 28.6495 99.3411 0 64.0002 0C28.6592 0 0.00976562 28.6495 0.00976562 63.9904C0.00976562 99.3313 28.6592 127.981 64.0002 127.981Z" fill="#FCCC5C"/>
<path d="M72.2741 24.6938C59.4117 24.6938 48.3807 32.5225 43.6778 43.6685C32.5269 48.3715 24.7031 59.4025 24.7031 72.2648C24.7031 89.3986 38.5914 103.287 55.7251 103.287C68.5875 103.287 79.6185 95.4582 84.3214 84.3121C95.4723 79.6092 103.296 68.5782 103.296 55.7159C103.296 38.5821 89.4078 24.6938 72.2741 24.6938ZM71.8234 88.3679C70.7927 89.3986 69.6565 90.3382 68.4484 91.1532C67.2308 91.973 65.9316 92.6825 64.5845 93.253C61.7848 94.4371 58.8029 95.0411 55.7251 95.0411C52.6474 95.0411 49.6655 94.4419 46.8658 93.253C45.5187 92.6825 44.2195 91.9778 43.0019 91.1532C41.7938 90.3382 40.6576 89.3986 39.6269 88.3679C38.5962 87.3372 37.6565 86.201 36.8416 84.9929C36.0218 83.7752 35.3123 82.476 34.7418 81.1289C33.5577 78.3292 32.9536 75.3473 32.9536 72.2696C32.9536 69.1918 33.5529 66.21 34.7418 63.4103C35.3123 62.0631 36.017 60.764 36.8416 59.5463C37.6565 58.3382 38.5962 57.202 39.6269 56.1713C40.1494 55.6488 40.7007 55.1502 41.2712 54.6804C41.2616 55.0255 41.252 55.3755 41.252 55.7255C41.252 72.8592 55.1403 86.7475 72.2741 86.7475C72.624 86.7475 72.9692 86.7427 73.3192 86.7283C72.8493 87.2988 72.3508 87.8501 71.8282 88.3727L71.8234 88.3679ZM77.8159 77.8115C76.0182 78.2621 74.1629 78.4874 72.2741 78.4874C69.1963 78.4874 66.2144 77.8882 63.4147 76.6992C62.0676 76.1288 60.7684 75.424 59.5508 74.5995C58.3427 73.7845 57.2065 72.8449 56.1758 71.8142C55.1451 70.7834 54.2054 69.6473 53.3905 68.4392C52.5707 67.2215 51.8612 65.9223 51.2907 64.5752C50.1066 61.7755 49.5025 58.7936 49.5025 55.7159C49.5025 53.827 49.7278 51.9718 50.1785 50.174C51.9762 49.7234 53.8315 49.498 55.7204 49.498C58.7981 49.498 61.78 50.0973 64.5797 51.2862C65.9268 51.8567 67.226 52.5614 68.4436 53.386C69.6517 54.201 70.7879 55.1406 71.8186 56.1713C72.8493 57.202 73.789 58.3382 74.6039 59.5463C75.4237 60.764 76.1332 62.0631 76.7037 63.4103C77.8878 66.21 78.4919 69.1918 78.4919 72.2696C78.4919 74.1584 78.2666 76.0137 77.8159 77.8115ZM93.2574 64.58C92.6869 65.9271 91.9822 67.2263 91.1577 68.444C90.3427 69.6521 89.403 70.7882 88.3723 71.8189C87.8498 72.3415 87.2985 72.8401 86.728 73.3099C86.7376 72.9647 86.7472 72.6148 86.7472 72.2648C86.7472 55.131 72.8589 41.2428 55.7251 41.2428C55.3752 41.2428 55.03 41.2476 54.6801 41.2619C55.1499 40.6915 55.6484 40.1401 56.171 39.6176C57.2017 38.5869 58.3379 37.6473 59.546 36.8323C60.7636 36.0125 62.0628 35.303 63.4099 34.7325C66.2096 33.5484 69.1915 32.9443 72.2693 32.9443C75.347 32.9443 78.3289 33.5436 81.1286 34.7325C82.4757 35.303 83.7749 36.0077 84.9926 36.8323C86.2006 37.6473 87.3368 38.5869 88.3675 39.6176C89.3983 40.6483 90.3379 41.7845 91.1529 42.9926C91.9726 44.2103 92.6822 45.5094 93.2526 46.8565C94.4368 49.6562 95.0408 52.6381 95.0408 55.7159C95.0408 58.7936 94.4416 61.7755 93.2526 64.5752L93.2574 64.58Z" fill="white"/>
</svg>
