<svg viewBox="0 0 128 128" fill="none" xmlns="http://www.w3.org/2000/svg">
<path d="M64.0002 127.981C99.3411 127.981 127.991 99.3313 127.991 63.9904C127.991 28.6495 99.3411 0 64.0002 0C28.6592 0 0.00976562 28.6495 0.00976562 63.9904C0.00976562 99.3313 28.6592 127.981 64.0002 127.981Z" fill="white"/>
<path d="M96.6573 89.1734C86.6522 98.982 77.9702 103.752 63.7895 103.752C40.064 103.752 23.6973 87.1839 23.6973 63.8563C23.6973 40.5286 42.2501 24.229 63.9861 24.229C76.6423 24.229 88.704 29.7948 96.9881 39.4068L86.8487 49.1483C80.0221 41.8566 72.5338 38.0789 63.6553 38.0789C49.4075 38.0789 37.8108 49.014 37.8108 63.9234C37.8108 79.5614 49.0096 89.9692 63.9861 89.9692C73.3967 89.9692 79.6913 86.1915 86.8487 79.0341L96.6573 89.1734Z" fill="black"/>
</svg>
