<svg viewBox="0 0 128 128" fill="none" xmlns="http://www.w3.org/2000/svg">
<g clip-path="url(#clip0)">
<path d="M64 -0.000249386C30.8629 -0.000252283 4.00001 26.8627 4.00001 59.9997C4 93.1368 30.8629 120 64 120C97.1371 120 124 93.1368 124 59.9998C124 26.8627 97.1371 -0.000246489 64 -0.000249386Z" fill="url(#paint0_linear)"/>
<path fill-rule="evenodd" clip-rule="evenodd" d="M72.9021 21.0372L66.4166 24.7584V55.923L69.9575 57.9324V34.1729L82.1272 41.057L84.4753 42.3966L86.4508 41.2803V39.4197L69.9762 30.1168V26.805L72.9207 25.1305L89.9917 34.8055V43.4199L81.7917 48.0341L81.5121 47.9039C81.038 47.6646 80.5152 47.5373 79.984 47.5318V47.5318C79.5069 47.5316 79.0348 47.627 78.5954 47.8126C78.1561 47.9981 77.7586 48.2699 77.4266 48.6118C77.0945 48.9537 76.8347 49.3588 76.6626 49.8029C76.4904 50.247 76.4094 50.7211 76.4244 51.1971V51.1971C76.4219 51.6638 76.5116 52.1264 76.6882 52.5585C76.8648 52.9906 77.125 53.3837 77.4538 53.7154C77.7826 54.0472 78.1736 54.311 78.6045 54.4918C79.0355 54.6727 79.4979 54.767 79.9653 54.7694V54.7694C80.8456 54.7637 81.6922 54.4308 82.34 53.8357C82.9877 53.2406 83.3902 52.426 83.469 51.5506V51.2343L91.7436 46.5643L99.4218 50.918V70.1378L91.7436 74.4915L60.5461 56.7789V24.7211L54.0606 21L33.4673 32.7402V43.4013L24 48.7598V72.203L33.4673 77.5801V88.2598L54.0606 99.9442L60.5461 96.223V65.0026L57.0052 62.9932V86.8271L42.4874 78.6034L40.5119 79.7197V81.5803L56.9866 90.8832V94.1764L54.042 95.8509L36.971 86.1759V77.5429L45.171 72.9286L45.4506 73.0589C45.9244 73.2988 46.4475 73.4262 46.9788 73.431C47.4541 73.4336 47.9252 73.3411 48.3641 73.159C48.8031 72.9769 49.2011 72.7088 49.5346 72.3706C49.8681 72.0325 50.1304 71.631 50.306 71.19C50.4816 70.749 50.5669 70.2773 50.557 69.8029V69.8029C50.5594 69.3362 50.4698 68.8736 50.2932 68.4415C50.1165 68.0094 49.8564 67.6163 49.5276 67.2846C49.1988 66.9528 48.8078 66.689 48.3768 66.5082C47.9459 66.3273 47.4835 66.233 47.016 66.2306C46.1358 66.2363 45.2892 66.5692 44.6414 67.1643C43.9936 67.7594 43.5911 68.574 43.5124 69.4494V69.4494V69.7657L35.2378 74.4357L27.5782 70.082V50.8622L35.2564 46.5085L66.4352 64.2211V96.2789L72.9207 100L93.5327 88.3156V77.5987L103 72.2402V48.797L93.5327 43.4199V32.7402L72.9021 21.0372ZM37.0083 34.8241L54.0793 25.1491L57.0238 26.8236V30.061L37.0083 41.3919V34.8241ZM38.8719 44.4618L57.0425 34.1729V54.7694L38.8719 44.4618V44.4618ZM69.9948 66.2306L88.1654 76.5382L69.9948 86.8271V66.2306ZM69.9948 94.1392V90.939L90.0104 79.6081V86.1759L72.9021 95.8509L69.9575 94.1764L69.9948 94.1392Z" fill="white"/>
<path d="M64 118C96.0325 118 122 92.0325 122 60C122 27.9675 96.0325 2 64 2C31.9675 2 6 27.9675 6 60C6 92.0325 31.9675 118 64 118Z" stroke="black" stroke-opacity="0.097"/>
</g>
<defs>
<linearGradient id="paint0_linear" x1="64" y1="120" x2="64" y2="-0.000249386" gradientUnits="userSpaceOnUse">
<stop stop-color="#21A386"/>
<stop offset="1" stop-color="#00C38C"/>
</linearGradient>
<clipPath id="clip0">
<rect width="128" height="128" fill="white"/>
</clipPath>
</defs>
</svg>
