<svg viewBox="0 0 128 128" fill="none" xmlns="http://www.w3.org/2000/svg">
<path d="M123.997 59.9941C123.997 93.1268 97.1371 119.988 63.9986 119.988C30.8601 119.988 4 93.1268 4 59.9941C4 26.8614 30.8607 0 63.9986 0C97.1364 0 123.997 26.8588 123.997 59.9941Z" fill="#CD0124"/>
<path d="M25 22H105L98.5 89L65 107L31 99L25 22Z" fill="white"/>
<path d="M74.4868 62.8824C74.4868 62.0846 74.4868 61.6856 73.6592 61.2867C70.7626 59.292 67.4521 57.2973 64.5555 55.3025C64.2493 55.1053 63.8893 55 63.521 55C63.1527 55 62.7927 55.1053 62.4865 55.3025L53.3828 61.6856C53.0028 61.8725 52.6849 62.1586 52.4654 62.5113C52.2459 62.864 52.1336 63.2691 52.1414 63.6803C52.122 64.5404 51.8335 65.3747 51.3138 66.074C51.1092 66.3692 51 66.7163 51 67.0714C51 67.4264 51.1092 67.7735 51.3138 68.0687C54.6242 74.4518 57.5209 80.8349 60.8313 87.218C62.0727 89.2127 62.9003 91.6063 64.1417 94C64.5555 93.6011 64.5555 93.2021 64.9693 92.8032C68.6935 84.8243 72.004 76.8455 75.7282 68.8666C76.142 68.0687 76.142 67.6698 75.3144 67.2708C74.8492 66.6435 74.5337 65.9247 74.3906 65.166C74.2475 64.4073 74.2804 63.6275 74.4868 62.8824V62.8824Z" fill="#CD0124"/>
<path d="M60 53.073C52.3333 47.2432 44.6667 41.4134 37.3833 36L37 36.4164C37.3833 37.2492 37.3833 37.6657 37.7667 38.4985L45.8167 57.2372C46.5833 58.9028 46.9667 60.5685 49.2667 60.9849C49.9292 61.0497 50.5948 60.9051 51.1833 60.5685C53.4833 58.4864 56.1667 56.8207 58.4667 54.7387L60 53.073Z" fill="#CD0124"/>
<path d="M64 0C52.1331 0 40.5328 3.51894 30.6658 10.1118C20.7989 16.7047 13.1085 26.0754 8.56725 37.039C4.026 48.0026 2.8378 60.0666 5.15291 71.7054C7.46802 83.3443 13.1825 94.0352 21.5736 102.426C29.9648 110.818 40.6557 116.532 52.2946 118.847C63.9335 121.162 75.9975 119.974 86.961 115.433C97.9246 110.891 107.295 103.201 113.888 93.3342C120.481 83.4672 124 71.8669 124 60C124 44.087 117.679 28.8258 106.426 17.5736C95.1742 6.32141 79.913 0 64 0V0ZM96.4 34.8C95.6 34.8 95.2 35.2 94.8 36C91.6 44 88 52 84.8 60V61.6C85.1195 62.2762 85.2894 63.0134 85.2981 63.7612C85.3068 64.5091 85.154 65.25 84.8503 65.9334C84.5465 66.6169 84.0989 67.2267 83.538 67.7214C82.9771 68.2161 82.316 68.584 81.6 68.8C81.2 68.8 80.8 69.2 80.4 70C76.8 78 73.2 86.4 70 94.4C69.8022 94.696 69.6967 95.044 69.6967 95.4C69.6967 95.756 69.8022 96.104 70 96.4C70.7475 97.4259 71.0803 98.6961 70.932 99.9567C70.7837 101.217 70.1651 102.376 69.2 103.2C68.3614 104.028 67.2514 104.525 66.0749 104.599C64.8985 104.672 63.7352 104.317 62.8 103.6C62.3005 103.259 61.8732 102.823 61.5425 102.316C61.2118 101.81 60.9842 101.243 60.8728 100.649C60.7613 100.054 60.7682 99.4438 60.8929 98.852C61.0177 98.2602 61.258 97.6988 61.6 97.2C61.7961 96.8304 61.8987 96.4184 61.8987 96C61.8987 95.5816 61.7961 95.1696 61.6 94.8C57.6 86.8 54 78.8 50 70.8C49.818 70.3934 49.5415 70.0362 49.1937 69.7579C48.8458 69.4796 48.4366 69.2884 48 69.2C47.185 69.0644 46.4148 68.7336 45.7554 68.2358C45.0959 67.7379 44.5667 67.0879 44.213 66.3412C43.8593 65.5945 43.6916 64.7732 43.7241 63.9476C43.7567 63.122 43.9886 62.3165 44.4 61.6C44.5978 61.304 44.7034 60.956 44.7034 60.6C44.7034 60.244 44.5978 59.896 44.4 59.6C40.8 51.6 37.2 44 33.2 36C33.2 35.6 32.8 35.2 31.6 35.2C30.4236 35.0346 29.3414 34.4653 28.5387 33.5896C27.7359 32.7139 27.2627 31.5863 27.2 30.4C27.274 29.2888 27.6478 28.2184 28.2817 27.3027C28.9156 26.387 29.7859 25.6604 30.8 25.2C31.8766 24.783 33.0649 24.7546 34.1601 25.1196C35.2554 25.4847 36.189 26.2204 36.8 27.2C37.2 28 37.6 28 38.8 28H89.6C90.4 28 91.2 28 91.6 26.8C92.1457 25.8578 93.008 25.1397 94.0334 24.7735C95.0588 24.4073 96.1809 24.4167 97.2 24.8C98.1936 25.1762 99.0597 25.8272 99.6971 26.6772C100.335 27.5271 100.717 28.5408 100.8 29.6C100.815 30.8511 100.378 32.0656 99.57 33.0207C98.7618 33.9759 97.6363 34.6076 96.4 34.8V34.8Z" fill="#CD0124"/>
<path d="M63 49.695C63.3054 49.8939 63.6644 50 64.0317 50C64.399 50 64.7581 49.8939 65.0635 49.695C72.9048 44.0648 80.746 38.8367 88.1746 33.2065C88.5873 32.8043 89 32.8043 89 32.4022V32H37C37.4722 32.1688 37.8965 32.4445 38.2381 32.8043L63 49.695Z" fill="#CD0124"/>
<path d="M67 52.475C70.1429 54.8557 73.2857 56.8397 76.4286 58.8236C77.2143 59.2204 78.3929 58.8236 79.5714 58.8236C79.9643 58.8236 80.3571 58.0301 80.3571 57.6333C83.1071 51.2846 85.8571 44.5391 88.6071 38.1904C88.6071 37.7936 89 37.3968 89 37H88.6071C81.9286 41.7615 74.4643 46.9198 67 52.475Z" fill="#CD0124"/>
<path d="M64 118C96.0325 118 122 92.0324 122 59.9999C122 27.9674 96.0325 1.99988 64 1.99988C31.9675 1.99988 6 27.9674 6 59.9999C6 92.0324 31.9675 118 64 118Z" stroke="black" stroke-opacity="0.097"/>
</svg>
