<svg viewBox="0 0 128 128" fill="none" xmlns="http://www.w3.org/2000/svg">
<g clip-path="url(#clip0)">
<path d="M64 -0.000249386C30.8629 -0.000252283 4.00001 26.8627 4.00001 59.9997C4 93.1368 30.8629 120 64 120C97.1371 120 124 93.1368 124 59.9998C124 26.8627 97.1371 -0.000246489 64 -0.000249386Z" fill="#070A0E"/>
<path fill-rule="evenodd" clip-rule="evenodd" d="M37.9734 80.8934C36.1289 79.7811 35 77.8058 35 75.6785V63.8021C35 62.3921 36.1659 61.2494 37.5971 61.2555C38.0536 61.2555 38.5039 61.377 38.8987 61.6019L66.0974 77.2284C67.689 78.1401 68.6699 79.8176 68.6699 81.6349V93.9367C68.676 95.6264 67.288 97 65.5731 97C64.9994 97 64.4318 96.842 63.9445 96.5502L37.9734 80.8934ZM78.5154 58.3502C80.107 59.2619 81.0817 60.9455 81.0879 62.7567V87.725C81.0879 88.4604 80.6869 89.1412 80.033 89.4998L74.08 92.8001C74.006 92.8427 73.9258 92.8731 73.8394 92.8974V79.0335C73.8394 77.2405 72.8832 75.5752 71.3163 74.6513L47.4303 60.5747V44.924C47.4303 43.5139 48.5963 42.3712 50.0274 42.3773C50.4839 42.3773 50.9343 42.4989 51.3291 42.7238L78.5154 58.3502ZM90.4214 39.9097C92.0191 40.8214 93 42.505 93 44.3223V80.7901C92.9938 81.5377 92.5743 82.2245 91.9081 82.5831L86.2636 85.5856V60.1979C86.2636 58.4049 85.3074 56.7456 83.7528 55.8218L59.3363 41.3927V26.5503C59.3363 26.1005 59.4597 25.6568 59.6818 25.2678C60.4035 24.0522 61.9889 23.6389 63.2227 24.344L90.4214 39.9097Z" fill="#00D395"/>
<path d="M64 118C96.0325 118 122 92.0325 122 60C122 27.9675 96.0325 2 64 2C31.9675 2 6 27.9675 6 60C6 92.0325 31.9675 118 64 118Z" stroke="black" stroke-opacity="0.097"/>
</g>
<defs>
<clipPath id="clip0">
<rect width="128" height="128" fill="white"/>
</clipPath>
</defs>
</svg>
