<svg viewBox="0 0 128 128" fill="none" xmlns="http://www.w3.org/2000/svg">
<path d="M123.997 59.9941C123.997 93.1268 97.1371 119.988 63.9986 119.988C30.8601 119.988 4 93.1268 4 59.9941C4 26.8614 30.8607 0 63.9986 0C97.1364 0 123.997 26.8588 123.997 59.9941Z" fill="white"/>
<path d="M68.832 62.832L89.872 83.872C90.2743 84.2764 90.5857 84.762 90.7857 85.2962C90.9857 85.8305 91.0695 86.4012 91.0317 86.9704C90.9938 87.5396 90.8352 88.0942 90.5662 88.5972C90.2973 89.1003 89.9243 89.5403 89.472 89.888C83.857 94.2981 77.1136 97.0379 70.0139 97.7936C62.9142 98.5493 55.7452 97.2904 49.3277 94.161C42.9103 91.0316 37.5038 86.1582 33.7273 80.0989C29.9508 74.0396 27.9571 67.0392 27.9743 59.8994C27.9915 52.7596 30.0191 45.769 33.8247 39.728C37.6304 33.6869 43.0603 28.8397 49.4928 25.7413C55.9253 22.6429 63.1003 21.4186 70.1963 22.2086C77.2923 22.9985 84.0224 25.7708 89.616 30.208C90.0469 30.5618 90.3985 31.0025 90.6477 31.5013C90.8969 32.0001 91.0382 32.5458 91.0623 33.1028C91.0865 33.6599 90.993 34.2158 90.7879 34.7343C90.5828 35.2528 90.2707 35.7222 89.872 36.112L68.816 57.168C68.4459 57.5392 68.1523 57.9795 67.952 58.464C67.7482 58.9727 67.645 59.516 67.648 60.064C67.6417 60.6138 67.7508 61.1589 67.968 61.664C68.1645 62.1505 68.4585 62.5915 68.832 62.96V62.832ZM64 0C52.1331 0 40.5328 3.51894 30.6658 10.1118C20.7989 16.7047 13.1085 26.0754 8.56725 37.039C4.026 48.0026 2.8378 60.0665 5.15291 71.7054C7.46802 83.3443 13.1825 94.0352 21.5736 102.426C29.9648 110.818 40.6557 116.532 52.2946 118.847C63.9335 121.162 75.9974 119.974 86.961 115.433C97.9246 110.891 107.295 103.201 113.888 93.3342C120.481 83.4672 124 71.8669 124 60C124 44.087 117.679 28.8258 106.426 17.5736C95.1742 6.32141 79.913 0 64 0V0Z" fill="#69E2DC"/>
<path d="M64 118C96.0325 118 122 92.0325 122 60C122 27.9675 96.0325 2 64 2C31.9675 2 6 27.9675 6 60C6 92.0325 31.9675 118 64 118Z" stroke="black" stroke-opacity="0.097"/>
</svg>
