<svg viewBox="0 0 128 128" fill="none" xmlns="http://www.w3.org/2000/svg">
<g clip-path="url(#clip0_449_788)">
<path d="M64 128C99.3462 128 128 99.3462 128 64C128 28.6538 99.3462 0 64 0C28.6538 0 0 28.6538 0 64C0 99.3462 28.6538 128 64 128Z" fill="white"/>
<path d="M64 7.19101C75.2355 7.19142 86.2185 10.5234 95.5603 16.7657C104.902 23.008 112.183 31.8802 116.483 42.2604C120.782 52.6407 121.907 64.0627 119.715 75.0823C117.524 86.1019 112.113 96.2241 104.169 104.169C98.9077 109.506 92.6423 113.75 85.7338 116.655C78.8253 119.56 71.4102 121.07 63.9157 121.097C56.4212 121.123 48.9955 119.667 42.0663 116.812C35.1371 113.956 28.8414 109.757 23.542 104.458C18.2426 99.1586 14.0441 92.8629 11.1885 85.9337C8.33287 79.0046 6.87654 71.5788 6.90341 64.0844C6.93027 56.5899 8.4398 49.1748 11.345 42.2662C14.2502 35.3577 18.4937 29.0923 23.831 23.831C29.0938 18.5393 35.3539 14.344 42.2489 11.4877C49.1439 8.63146 56.5369 7.17105 64 7.19101ZM64 0C51.342 0 38.9683 3.75353 28.4435 10.7859C17.9188 17.8184 9.71575 27.8138 4.87174 39.5083C0.0277305 51.2027 -1.23968 64.071 1.22977 76.4858C3.69922 88.9006 9.79463 100.304 18.7452 109.255C27.6958 118.205 39.0995 124.301 51.5143 126.77C63.929 129.24 76.7973 127.972 88.4918 123.128C100.186 118.284 110.182 110.081 117.214 99.5565C124.246 89.0317 128 76.658 128 64C128 47.0261 121.257 30.7475 109.255 18.7452C97.2525 6.74284 80.9739 0 64 0V0Z" fill="url(#paint0_linear_449_788)"/>
<path d="M64 22.7954V105.204L99.9551 84.8395V43.6398L64 22.7954Z" fill="url(#paint1_linear_449_788)"/>
<path d="M64.0001 22.7954V105.204L28.0498 84.8395V43.6398L64.0001 22.7954Z" fill="url(#paint2_linear_449_788)"/>
<path d="M81.3781 55.1694H46.6216L50.1212 40.8545H77.8785L81.3781 55.1694Z" fill="white"/>
<path d="M70.0452 67.3415L71.2389 74.4989H56.761L57.9595 67.3415V64.1966L54.9297 57.4802H73.0702L70.0452 64.1966V67.3415Z" fill="white"/>
<path d="M46.7797 59.9443L54.9727 65.1938V74.4989L61.3343 80.8654V83.4877L55.4473 89.2165H49.8815L37.2349 66.9436L46.7797 59.9443Z" fill="white"/>
<path d="M81.2201 59.9443L73.0272 65.1938V74.4989L66.6655 80.8654V83.4877L72.5526 89.2165H78.1184L90.765 66.9436L81.2201 59.9443Z" fill="white"/>
</g>
<defs>
<linearGradient id="paint0_linear_449_788" x1="2.87913e-05" y1="64" x2="128" y2="64" gradientUnits="userSpaceOnUse">
<stop stop-color="#1D376C"/>
<stop offset="1" stop-color="#101D3B"/>
</linearGradient>
<linearGradient id="paint1_linear_449_788" x1="6212.31" y1="3941.34" x2="6212.31" y2="18107.4" gradientUnits="userSpaceOnUse">
<stop stop-color="#1D376C"/>
<stop offset="1" stop-color="#101D3B"/>
</linearGradient>
<linearGradient id="paint2_linear_449_788" x1="-31525.2" y1="18107.4" x2="-31525.2" y2="3941.34" gradientUnits="userSpaceOnUse">
<stop stop-color="#1D376C"/>
<stop offset="1" stop-color="#101D3B"/>
</linearGradient>
<clipPath id="clip0_449_788">
<rect width="128" height="128" fill="white"/>
</clipPath>
</defs>
</svg>
