<svg viewBox="0 0 128 128" fill="none" xmlns="http://www.w3.org/2000/svg">
<path d="M123.997 59.9941C123.997 93.1268 97.1371 119.988 63.9986 119.988C30.8601 119.988 4 93.1268 4 59.9941C4 26.8614 30.8607 0 63.9986 0C97.1364 0 123.997 26.8588 123.997 59.9941Z" fill="#E1AA4C"/>
<path fill-rule="evenodd" clip-rule="evenodd" d="M98.4277 34.876L98.8697 37.549C99.2183 40.0356 99.3797 42.5448 99.3528 45.0556C99.3499 50.604 98.6805 56.132 97.3591 61.5208C95.572 68.8419 92.4593 75.7738 88.1749 81.9736C83.2242 89.0937 76.0661 96.0967 65.6318 101.724L64.3553 102.412L63.0789 101.724C52.6446 96.0967 45.4894 89.0937 40.5358 81.9736C36.2516 75.7738 33.1388 68.8419 31.3516 61.5208C30.0304 56.133 29.3611 50.6059 29.3579 45.0585C29.3309 42.5477 29.4924 40.0385 29.841 37.5519L30.283 34.8789C30.3208 34.661 30.315 34.4377 30.266 34.2219C30.2171 34.0062 30.1259 33.8022 29.9978 33.6219C29.8697 33.4415 29.7071 33.2883 29.5195 33.1711C29.3319 33.0538 29.1229 32.9749 28.9047 32.9388C28.6864 32.9026 28.4632 32.9101 28.2478 32.9606C28.0324 33.0112 27.8292 33.1039 27.6498 33.2333C27.4704 33.3628 27.3184 33.5265 27.2025 33.7149C27.0867 33.9034 27.0093 34.1129 26.9748 34.3315L26.5327 37.0044C26.1524 39.6718 25.9753 42.3643 26.0028 45.0585C26.0049 50.8792 26.7067 56.6786 28.0931 62.3318C29.9804 70.0518 33.2658 77.3608 37.7867 83.897C43.0126 91.4182 50.5923 98.8136 61.5009 104.684L63.5737 105.799C63.8178 105.931 64.091 106 64.3685 106C64.6461 106 64.9192 105.931 65.1634 105.799L67.2332 104.684C78.1301 98.8106 85.7127 91.4182 90.9474 83.897C95.466 77.3613 98.7494 70.0533 100.635 62.3347C102.022 56.6815 102.723 50.8821 102.725 45.0614C102.753 42.3672 102.576 39.6748 102.196 37.0074L101.753 34.3344C101.719 34.1159 101.642 33.9063 101.526 33.7179C101.41 33.5294 101.258 33.3657 101.078 33.2362C100.899 33.1068 100.696 33.0141 100.48 32.9636C100.265 32.913 100.042 32.9056 99.8236 32.9417C99.6053 32.9778 99.3964 33.0568 99.2088 33.174C99.0211 33.2912 98.8586 33.4445 98.7305 33.6248C98.6023 33.8052 98.5112 34.0091 98.4622 34.2248C98.4133 34.4406 98.4075 34.6639 98.4452 34.8819L98.4277 34.876Z" fill="white"/>
<path fill-rule="evenodd" clip-rule="evenodd" d="M39.4438 33.0549L64.3583 25.443L89.8291 33.2189C90.2555 33.3464 90.7151 33.2998 91.1072 33.0892C91.4993 32.8787 91.7921 32.5214 91.9214 32.0955C92.0507 31.6696 92.006 31.2099 91.7972 30.8169C91.5883 30.4239 91.2323 30.1296 90.8069 29.9985L64.8472 22.0732C64.5286 21.9756 64.188 21.9756 63.8694 22.0732L38.463 29.8286C38.2507 29.8921 38.053 29.9969 37.8813 30.137C37.7096 30.2771 37.5672 30.4497 37.4624 30.6449C37.3576 30.8401 37.2923 31.0542 37.2704 31.2747C37.2485 31.4952 37.2704 31.7178 37.3348 31.9299C37.3992 32.1419 37.5048 32.3392 37.6456 32.5103C37.7864 32.6814 37.9596 32.823 38.1553 32.927C38.351 33.031 38.5653 33.0953 38.7859 33.1162C39.0065 33.1372 39.2291 33.1144 39.4408 33.0491L39.4438 33.0549Z" fill="white"/>
<path fill-rule="evenodd" clip-rule="evenodd" d="M27.1416 35.3679L62.8593 105.082C62.9985 105.354 63.2098 105.583 63.47 105.744C63.7303 105.905 64.0297 105.992 64.3357 105.994C64.6416 105.997 64.9425 105.916 65.2056 105.76C65.4687 105.603 65.6839 105.378 65.828 105.108L87.6099 64.3694L87.6421 64.305L101.584 35.321C101.773 34.921 101.796 34.4626 101.649 34.0454C101.502 33.6283 101.196 33.286 100.798 33.0931C100.4 32.9003 99.9415 32.8723 99.5229 33.0154C99.1043 33.1584 98.7591 33.461 98.5623 33.8572L84.6441 62.8178L64.4022 100.702L30.1249 33.8337C30.0262 33.6352 29.889 33.4582 29.7213 33.3131C29.5536 33.168 29.3588 33.0576 29.1481 32.9883C28.9375 32.9189 28.7152 32.8921 28.4941 32.9094C28.273 32.9266 28.0575 32.9875 27.8602 33.0886C27.6628 33.1897 27.4874 33.329 27.3443 33.4984C27.2011 33.6677 27.093 33.8638 27.0262 34.0753C26.9593 34.2867 26.9351 34.5093 26.955 34.7302C26.9748 34.9511 27.0382 35.1658 27.1416 35.362V35.3679Z" fill="white"/>
<path fill-rule="evenodd" clip-rule="evenodd" d="M44.2391 66.4158H83.9589C84.4034 66.4158 84.8297 66.2392 85.1441 65.9249C85.4584 65.6105 85.635 65.1842 85.635 64.7397C85.635 64.2952 85.4584 63.8688 85.1441 63.5545C84.8297 63.2402 84.4034 63.0636 83.9589 63.0636H44.2391C43.7946 63.0636 43.3682 63.2402 43.0539 63.5545C42.7396 63.8688 42.563 64.2952 42.563 64.7397C42.563 65.1842 42.7396 65.6105 43.0539 65.9249C43.3682 66.2392 43.7946 66.4158 44.2391 66.4158Z" fill="white"/>
<path d="M64 118C96.0325 118 122 92.0325 122 60C122 27.9675 96.0325 2 64 2C31.9675 2 6 27.9675 6 60C6 92.0325 31.9675 118 64 118Z" stroke="black" stroke-opacity="0.097"/>
</svg>
