<svg viewBox="0 0 128 128" fill="none" xmlns="http://www.w3.org/2000/svg">
<path d="M64.0002 127.981C99.3411 127.981 127.991 99.3313 127.991 63.9904C127.991 28.6495 99.3411 0 64.0002 0C28.6592 0 0.00976562 28.6495 0.00976562 63.9904C0.00976562 99.3313 28.6592 127.981 64.0002 127.981Z" fill="white"/>
<path d="M68.5782 66.4497C71.1143 65.2033 72.7203 62.6241 72.7155 59.8004C72.7155 55.7159 69.4124 52.4033 65.3423 52.4033C61.2722 52.4033 57.9643 55.7159 57.9643 59.8004C57.9643 62.6241 59.5655 65.208 62.1063 66.4497V75.5871H68.5782V66.4497ZM65.3423 94.2358C48.7167 94.2358 35.1928 80.6687 35.1928 63.9904C35.1928 47.312 48.7167 33.7498 65.3423 33.7498C77.7779 33.7498 88.4782 41.3387 93.0804 52.1444C93.8475 53.9469 95.5637 55.1694 97.5245 55.1694H98.0614C101.46 55.1694 103.79 51.7129 102.491 48.5728C96.4554 33.9511 82.0973 23.668 65.3423 23.668C43.1412 23.668 25.1445 41.7222 25.1445 63.9952C25.1445 86.2681 43.1412 104.322 65.3423 104.322C82.0973 104.322 96.4554 94.0392 102.491 79.4223C103.79 76.2774 101.46 72.8209 98.0614 72.8209H97.5245C95.5637 72.8209 93.8475 74.0386 93.0804 75.846C88.4782 86.6516 77.7779 94.2454 65.3423 94.2454" fill="#2E4D6E"/>
</svg>
