<svg viewBox="0 0 128 128" fill="none" xmlns="http://www.w3.org/2000/svg">
<path d="M64 120C97.1371 120 124 93.1371 124 60C124 26.8629 97.1371 0 64 0C30.8629 0 4 26.8629 4 60C4 93.1371 30.8629 120 64 120Z" fill="#F4B731"/>
<path d="M64 118C96.0325 118 122 92.0325 122 60C122 27.9675 96.0325 2 64 2C31.9675 2 6 27.9675 6 60C6 92.0325 31.9675 118 64 118Z" stroke="black" stroke-opacity="0.097"/>
<path d="M63.316 28C79.256 28 91.34 36.464 95.836 48.776H104V56.22H97.556C97.68 57.396 97.744 58.596 97.744 59.812V59.996C97.744 61.364 97.664 62.716 97.504 64.036H104V71.476H95.68C91.068 83.62 79.08 92 63.32 92H37.108V71.476H28V64.036H37.108V56.22H28V48.78H37.108V28H63.316ZM87.652 71.476H44.432V85.324H63.312C74.968 85.324 83.624 79.776 87.652 71.476ZM89.908 56.22H44.432V64.032H89.896C90.072 62.78 90.164 61.492 90.164 60.176V60C90.1644 58.737 90.0789 57.4754 89.908 56.224V56.22ZM63.32 34.664H44.44V48.776H87.712C83.708 40.36 75.024 34.664 63.32 34.664Z" fill="white"/>
</svg>
