<svg viewBox="0 0 128 128" fill="none" xmlns="http://www.w3.org/2000/svg">
<path d="M123.999 59.9941C123.999 93.1268 97.1393 119.988 64.0008 119.988C30.8623 119.988 4.0022 93.1268 4.0022 59.9941C4.0022 26.8614 30.8629 0 64.0008 0C97.1386 0 123.999 26.8588 123.999 59.9941Z" fill="white"/>
<g clip-path="url(#clip0)">
<path d="M75.4309 29H47.3995L45.0748 41.882L70.3765 41.9117C82.8399 41.9117 86.5144 46.404 86.4095 53.8417C86.3495 57.6497 84.6847 64.1056 83.9648 66.203C82.045 71.7812 78.1005 78.1329 63.3124 78.118L38.7156 78.1032L36.3984 91H64.3698C74.2385 91 78.423 89.8546 82.8774 87.8316C92.7311 83.2946 98.5954 73.6555 100.95 61.071C104.437 42.3282 100.088 29 75.4309 29Z" fill="#008DE4"/>
<path d="M35.3037 53.5293C27.9546 53.5293 26.9048 58.2745 26.2148 61.1454C25.3 64.894 25 66.4261 25 66.4261H53.7063C61.0553 66.4261 62.1052 61.6809 62.7951 58.81C63.71 55.0614 64.0099 53.5293 64.0099 53.5293H35.3037Z" fill="#008DE4"/>
</g>
<path d="M64 118C96.0325 118 122 92.0325 122 60C122 27.9675 96.0325 2 64 2C31.9675 2 6 27.9675 6 60C6 92.0325 31.9675 118 64 118Z" stroke="black" stroke-opacity="0.097"/>
<defs>
<clipPath id="clip0">
<rect width="77" height="62" fill="white" transform="translate(25 29)"/>
</clipPath>
</defs>
</svg>
