<svg viewBox="0 0 128 128" fill="none" xmlns="http://www.w3.org/2000/svg">
<g clip-path="url(#clip0)">
<path d="M64 -0.000249386C30.8629 -0.000252283 4.00001 26.8627 4.00001 59.9997C4 93.1368 30.8629 120 64 120C97.1371 120 124 93.1368 124 59.9998C124 26.8627 97.1371 -0.000246489 64 -0.000249386Z" fill="white"/>
<g clip-path="url(#clip1)">
<path d="M59.5283 67.3818H77.7759C84.5556 67.3818 90.1092 61.9052 90.1092 55.0594C90.1092 48.2137 84.6277 42.8091 77.848 42.8091H72.0059L59.5283 32H77.7759C90.542 31.9279 100.928 42.2326 100.928 54.9874C101 64.4273 95.2301 72.9305 86.4309 76.4615L100.856 88.9279H84.4114L59.5283 67.3818Z" fill="url(#paint0_linear)"/>
<path d="M68.4714 53.6182H50.2239C43.4441 53.6182 37.8905 59.0948 37.8905 65.9406C37.8905 72.7863 43.372 78.263 50.2239 78.263H56.066L68.4714 89.0721H50.2239C37.4578 89.0721 27.0718 78.7674 26.9997 66.0847C26.9276 56.5727 32.6975 48.0695 41.4968 44.5386L27.0718 32H43.5884L68.4714 53.6182Z" fill="#4971FA"/>
<path d="M68.4714 53.6182H50.2239C43.4441 53.6182 37.8905 59.0948 37.8905 65.9406C37.8905 72.7863 43.372 78.263 50.2239 78.263H56.066L68.4714 89.0721H50.2239C37.4578 89.0721 27.0718 78.7674 26.9997 66.0847C26.9276 56.5727 32.6975 48.0695 41.4968 44.5386L27.0718 32H43.5884L68.4714 53.6182Z" fill="url(#paint1_linear)"/>
</g>
<path d="M64 118C96.0325 118 122 92.0325 122 60C122 27.9675 96.0325 2 64 2C31.9675 2 6 27.9675 6 60C6 92.0325 31.9675 118 64 118Z" stroke="black" stroke-opacity="0.097"/>
</g>
<defs>
<linearGradient id="paint0_linear" x1="59.5636" y1="60.4677" x2="100.912" y2="60.4677" gradientUnits="userSpaceOnUse">
<stop stop-color="#62D0C9"/>
<stop offset="1" stop-color="#7DE2AC"/>
</linearGradient>
<linearGradient id="paint1_linear" x1="27.1289" y1="60.5004" x2="68.4781" y2="60.5004" gradientUnits="userSpaceOnUse">
<stop stop-color="#3268FB"/>
<stop offset="1" stop-color="#4795FA"/>
</linearGradient>
<clipPath id="clip0">
<rect width="128" height="128" fill="white"/>
</clipPath>
<clipPath id="clip1">
<rect width="74" height="57" fill="white" transform="translate(27 32)"/>
</clipPath>
</defs>
</svg>
