<svg viewBox="0 0 128 128" fill="none" xmlns="http://www.w3.org/2000/svg">
<path d="M128 64.0002C128 99.3453 99.3486 128 64 128C28.6514 128 0 99.3453 0 64.0002C0 28.655 28.6521 0 64 0C99.3479 0 128 28.6523 128 64.0002Z" fill="white"/>
<path d="M63.8525 124.705C97.4604 124.705 124.705 97.4604 124.705 63.8525C124.705 30.2446 97.4604 3 63.8525 3C30.2446 3 3 30.2446 3 63.8525C3 97.4604 30.2446 124.705 63.8525 124.705Z" stroke="black" stroke-opacity="0.097"/>
<g clip-path="url(#clip0)">
<path d="M31 90V41H66.5745C78.2979 41 88 51.124 88 63.6777C88 76.2314 78.2979 86.3554 66.5745 86.3554H62.5319V76.6364H66.1702C73.0425 76.6364 78.2979 70.9669 78.2979 63.6777C78.2979 56.3884 72.6383 50.719 66.1702 50.719H39.8936V90H31Z" fill="#D5A24E"/>
<path d="M45.0199 102.198V56.0781H54.7152V92.5729H66.0265C81.7815 92.5729 94.3046 79.7396 94.3046 64.099C94.3046 48.4583 81.7815 35.625 66.0265 35.625H43V26H66.0265C87.0331 26 104 43.2448 104 64.5C104 85.7552 87.0331 103 66.0265 103H45.0199V102.198Z" fill="#242A47"/>
</g>
<defs>
<clipPath id="clip0">
<rect width="75" height="79" fill="white" transform="translate(31 25)"/>
</clipPath>
</defs>
</svg>
