<svg viewBox="0 0 128 128" fill="none" xmlns="http://www.w3.org/2000/svg">
<path d="M123.997 59.9941C123.997 93.1268 97.1371 119.988 63.9986 119.988C30.8601 119.988 4 93.1268 4 59.9941C4 26.8614 30.8607 0 63.9986 0C97.1364 0 123.997 26.8588 123.997 59.9941Z" fill="#0066CC"/>
<path d="M31.1334 43.9404H72.484C72.484 43.9404 86.7566 43.807 76.8858 62.2147C76.8858 62.2147 69.6828 76.6207 51.8087 76.3539L61.4394 51.757C61.5556 51.4653 61.5996 51.1499 61.5676 50.8376C61.5356 50.5253 61.4285 50.2253 61.2556 49.9633C61.0827 49.7013 60.849 49.485 60.5744 49.3328C60.2998 49.1806 59.9925 49.097 59.6786 49.0892L47.0067 48.8758L31 87.8253C31 87.8253 36.3356 88.3589 39.2701 88.0921L37.6694 92.0938H45.2193C45.4286 92.0954 45.6333 92.0322 45.8053 91.9127C45.9773 91.7933 46.108 91.6236 46.1797 91.4268L47.5402 87.8253L50.7416 87.5586L48.8741 92.0938H56.2372C56.5082 92.0957 56.7733 92.015 56.9973 91.8625C57.2213 91.71 57.3935 91.4929 57.491 91.2401L59.5452 85.9579C59.5452 85.9579 81.9546 82.223 92.0921 64.0821C92.0921 64.0821 105.698 43.0067 89.6911 35.5369C86.5716 34.1065 83.2358 33.2049 79.8204 32.8691L81.6878 28.2539C81.7445 28.1169 81.7667 27.9682 81.7526 27.8206C81.7385 27.6731 81.6885 27.5313 81.6069 27.4076C81.5253 27.2838 81.4146 27.182 81.2845 27.111C81.1545 27.0399 81.009 27.0018 80.8608 27H73.9512L71.817 32.6023H68.8825L70.5365 28.2539C70.5874 28.1146 70.6043 27.9653 70.586 27.8182C70.5678 27.6711 70.5147 27.5305 70.4313 27.4079C70.3478 27.2854 70.2365 27.1845 70.1063 27.1136C69.9762 27.0426 69.831 27.0037 69.6828 27H62.7466L60.6123 32.6023H39.0567C38.4774 32.6004 37.9084 32.7557 37.4104 33.0517C36.9124 33.3477 36.504 33.7732 36.2288 34.283L31.1334 43.9404Z" fill="white"/>
<path d="M64 118C96.0325 118 122 92.0324 122 59.9999C122 27.9674 96.0325 1.99988 64 1.99988C31.9675 1.99988 6 27.9674 6 59.9999C6 92.0324 31.9675 118 64 118Z" stroke="black" stroke-opacity="0.097"/>
</svg>
