<svg viewBox="0 0 128 128" fill="none" xmlns="http://www.w3.org/2000/svg">
<path d="M123.997 59.9941C123.997 93.1268 97.1371 119.988 63.9986 119.988C30.8601 119.988 4 93.1268 4 59.9941C4 26.8614 30.8607 0 63.9986 0C97.1364 0 123.997 26.8588 123.997 59.9941Z" fill="white"/>
<g clip-path="url(#clip0)">
<path d="M109.39 50.67C108.74 47.5406 107.592 44.5357 105.99 41.77C102.69 36.27 95.4901 28.27 86.4901 21.97C86.4901 21.97 79.6901 17.57 76.4901 16.07C64.7901 10.67 51.6901 9.57003 40.4901 19.47C21.6901 36.17 12.2901 59.47 21.6901 82.67C21.8901 83.17 27.0901 97.37 58.2901 106.87C71.9901 107.27 79.9901 106.47 88.7901 101.37C100.29 94.77 106.99 82.77 109.39 70.57C110.09 66.87 110.19 54.37 109.39 50.67Z" fill="#04FFCC"/>
<path d="M73 17.77V40.07L47.2001 38.47L36.6 51.87L35.3 77.17L44.1 86.57L57.3 93.17L74.6 95.07L93.4001 90.27V43.77L89.8001 24.47C89.8001 24.47 79.7 16.57 73.1 14.67" fill="#7DF8FB"/>
<path d="M103.19 73.07C99.5901 72.87 101.59 67.17 99.9901 60.67C98.0901 53.47 100.89 48.47 104.59 48.67C106.327 48.9435 107.973 49.6293 109.39 50.67C108.74 47.5406 107.592 44.5357 105.99 41.77C102.69 36.27 95.4901 28.27 86.4901 21.97V82.27C86.4915 83.6548 86.0209 84.9987 85.156 86.0801C84.291 87.1616 83.0833 87.9159 81.7321 88.2188C80.3808 88.5216 78.9667 88.3549 77.7229 87.7462C76.4791 87.1374 75.4799 86.1229 74.8901 84.87C71.3213 87.0819 67.2295 88.3073 63.0324 88.4212C58.8352 88.535 54.683 87.5332 50.9995 85.518C47.3161 83.5028 44.2332 80.5464 42.0657 76.9505C39.8981 73.3546 38.7234 69.2479 38.6615 65.0497C38.5996 60.8515 39.6528 56.712 41.7134 53.0537C43.774 49.3955 46.7684 46.3495 50.3908 44.2266C54.0133 42.1037 58.1342 40.9799 62.3328 40.97C66.5315 40.96 70.6576 42.0643 74.2901 44.17V20.77C74.2728 19.8705 74.4622 18.979 74.8436 18.1642C75.225 17.3494 75.7883 16.6329 76.4901 16.07C64.7901 10.67 51.6901 9.57003 40.4901 19.47C21.6901 36.17 12.2901 59.47 21.6901 82.67C21.8901 83.17 22.0901 83.67 22.2901 84.07C22.5609 83.5064 22.9339 82.9978 23.3901 82.57C28.2901 77.57 33.6901 87.77 45.1901 93.67C52.4901 97.37 56.6901 102.27 58.2901 106.87C68.9901 108.17 79.9901 106.47 88.7901 101.37C100.29 94.77 106.99 82.77 109.39 70.57C107.665 72.0789 105.48 72.9599 103.19 73.07ZM64.0001 25.67C66.7001 25.57 69.2001 28.77 69.3001 30.27C69.4001 31.77 67.0001 31.17 64.4001 32.07C61.5001 33.07 59.4001 32.17 59.3001 30.67C59.2001 29.17 61.1901 25.77 64.0001 25.67Z" fill="#2C398F"/>
<path d="M58.0902 73.4701C63.8902 76.7701 70.8902 75.4701 72.1902 68.0701C72.8902 63.7701 72.4902 57.0701 68.6902 54.9701C56.0902 47.7701 45.4902 66.2701 58.0902 73.4701Z" fill="#2C398F"/>
</g>
<path d="M64 118C96.0325 118 122 92.0325 122 60C122 27.9675 96.0325 2 64 2C31.9675 2 6 27.9675 6 60C6 92.0325 31.9675 118 64 118Z" stroke="black" stroke-opacity="0.097"/>
<defs>
<clipPath id="clip0">
<rect width="91.95" height="95.29" fill="white" transform="translate(18 12)"/>
</clipPath>
</defs>
</svg>
