<svg viewBox="0 0 128 128" fill="none" xmlns="http://www.w3.org/2000/svg">
<path d="M64.0002 127.981C99.3411 127.981 127.991 99.3313 127.991 63.9904C127.991 28.6495 99.3411 0 64.0002 0C28.6592 0 0.00976562 28.6495 0.00976562 63.9904C0.00976562 99.3313 28.6592 127.981 64.0002 127.981Z" fill="#FFF704"/>
<path d="M65.2651 77.035C65.4281 76.9774 65.5959 77.0062 65.7589 77.0062C68.2134 77.0062 70.668 77.0062 73.1225 77.0062C77.8446 77.0062 81.8092 80.175 82.7393 84.7917C83.8898 90.5061 80.093 95.535 74.7285 96.3692C74.2299 96.4459 73.7313 96.4795 73.2328 96.4795C70.7255 96.4795 68.223 96.4795 65.7158 96.4795C65.6151 96.4795 65.5144 96.4747 65.4137 96.4795C65.2603 96.4843 65.2076 96.4123 65.2124 96.2685C65.2172 96.1535 65.2124 96.0336 65.2124 95.9186C65.2124 89.8062 65.2124 83.6939 65.2124 77.5815C65.2124 77.3993 65.1788 77.2124 65.2555 77.035H65.2651ZM70.016 86.7093C70.016 88.4639 70.016 90.2137 70.016 91.9683C70.016 92.3806 70.0208 92.3854 70.4283 92.3854C71.296 92.3854 72.1637 92.3854 73.0314 92.3854C74.6182 92.3854 75.8695 91.719 76.8091 90.4726C78.4486 88.3009 78.3623 84.9115 76.6221 82.8261C75.6825 81.7043 74.4888 81.0907 72.9979 81.1051C72.1445 81.1147 71.296 81.1051 70.4426 81.1051C70.016 81.1051 70.0112 81.1051 70.0112 81.5461C70.0112 83.2672 70.0112 84.9834 70.0112 86.7045L70.016 86.7093Z" fill="#010100"/>
<path d="M23.8117 86.7574C23.8117 83.7324 23.8117 80.7121 23.8117 77.6871C23.8117 77.5864 23.8117 77.4858 23.8117 77.3851C23.8213 77.0112 23.8213 77.0064 24.2 77.0064C26.7888 77.0064 29.3776 76.9632 31.9663 77.016C36.6357 77.1022 40.6962 80.4868 41.4153 85.3C42.1536 90.2522 39.1478 94.8736 34.3202 96.1584C33.5244 96.3694 32.719 96.4796 31.8944 96.4796C29.3536 96.4796 26.8176 96.4796 24.2767 96.4796C24.1952 96.4796 24.109 96.4796 24.0275 96.4796C23.8884 96.4844 23.8069 96.4317 23.8117 96.2783C23.8117 96.144 23.8117 96.0098 23.8117 95.8756C23.8117 92.8362 23.8117 89.7968 23.8117 86.7526V86.7574ZM28.5866 86.7478C28.5866 88.4688 28.5866 90.1899 28.5866 91.9109C28.5866 92.3807 28.5866 92.3855 29.042 92.3855C29.9097 92.3855 30.7822 92.3855 31.6499 92.3855C33.1744 92.3855 34.3921 91.7431 35.3317 90.5638C36.0604 89.6482 36.4391 88.5839 36.5398 87.4285C36.6836 85.8417 36.3528 84.3652 35.3988 83.0708C34.4496 81.7812 33.1792 81.0813 31.5445 81.1005C30.7582 81.11 29.972 81.1005 29.1858 81.1005C28.5242 81.1005 28.5866 81.0142 28.5866 81.6757C28.5866 83.3632 28.5866 85.0507 28.5866 86.7382V86.7478Z" fill="#010100"/>
<path d="M104.188 86.7142C104.212 92.1458 99.984 96.4172 94.538 96.4556C89.0537 96.4892 84.7199 92.2417 84.7295 86.7669C84.7343 81.3353 88.8667 77.0495 94.4374 77.0255C100.157 77.0015 104.198 81.5079 104.188 86.7142ZM99.3896 86.8053C99.3992 85.7746 99.2122 84.7774 98.728 83.8617C97.8267 82.1647 96.4317 81.1819 94.4805 81.1723C92.5294 81.1627 91.0864 82.1071 90.2138 83.8186C89.1927 85.8273 89.2215 87.8887 90.3145 89.8638C92.1219 93.1238 96.633 93.1621 98.541 89.9597C99.1163 88.9913 99.38 87.9319 99.3848 86.8101L99.3896 86.8053Z" fill="#010100"/>
<path d="M62.7627 86.7476C62.7627 92.1984 58.5248 96.4411 53.074 96.4555C47.5801 96.4698 43.3086 92.2032 43.3086 86.7092C43.3086 81.2968 47.5896 77.0062 53.0356 77.0205C58.9227 77.0349 62.8202 81.7187 62.7579 86.7476H62.7627ZM57.9591 87.2462C57.9591 85.6162 57.7338 84.5951 57.2064 83.6842C56.2764 82.0734 54.8909 81.1578 53.0021 81.1674C51.0941 81.1769 49.7086 82.1166 48.8025 83.7657C48.1505 84.945 47.9828 86.2298 48.1314 87.5482C48.2608 88.6987 48.6683 89.7486 49.4257 90.6403C51.2187 92.7641 54.3923 92.9031 56.3483 90.9328C57.4941 89.7822 57.9447 88.344 57.9591 87.2414V87.2462Z" fill="#010100"/>
<path d="M57.1737 32.5274C57.0107 32.259 56.8621 32.0193 56.7135 31.7844C56.0663 30.7537 55.6252 29.6462 55.4095 28.4477C55.2561 27.5848 55.2225 26.7171 55.4718 25.8638C55.7115 25.0536 56.1526 24.416 57.0346 24.2003C57.4901 24.09 57.9311 24.1667 58.3626 24.3201C59.2207 24.6269 59.8919 25.1926 60.4959 25.8542C60.6397 26.0124 60.774 26.1754 60.9514 26.3767C61.0281 26.1898 60.9945 26.0459 60.9945 25.9069C60.9945 24.2194 61.239 22.5799 61.9725 21.0362C62.3129 20.3219 62.7443 19.6699 63.3723 19.1665C64.4366 18.3084 65.6543 18.3084 66.7185 19.1665C67.4664 19.7706 67.9362 20.576 68.2958 21.4485C68.8135 22.6997 69.0293 24.0133 69.082 25.3556C69.0868 25.5042 69.082 25.6528 69.082 25.8062C69.269 25.8206 69.3217 25.6768 69.4032 25.5905C69.8826 25.0967 70.4099 24.6557 71.0475 24.3824C72.2988 23.8407 73.3439 24.2865 73.8233 25.5618C74.0006 26.0364 74.0917 26.5253 74.1013 27.0287C74.1397 28.8888 73.7322 30.6386 72.8069 32.259C72.7398 32.374 72.6775 32.4891 72.6104 32.6042C72.7398 32.7288 72.8884 32.7336 73.0322 32.7671C78.7803 34.143 83.8955 36.7174 88.2101 40.8019C92.0405 44.431 94.7395 48.7983 96.5708 53.7265C97.6926 56.742 98.4405 59.8485 98.8959 63.0317C99.3082 65.8985 99.5048 68.7749 99.4856 71.6705C99.4856 71.752 99.4856 71.8383 99.4856 71.9198C99.4952 72.0828 99.4328 72.1691 99.2555 72.1595C99.1404 72.1547 99.0206 72.1595 98.9055 72.1595C96.0818 72.1595 93.2582 72.1595 90.4345 72.1595C90.3866 72.1595 90.3338 72.1595 90.2859 72.1595C89.8448 72.1595 89.8448 72.2122 89.8352 71.7376C89.8209 70.985 89.7969 70.2371 89.7681 69.4845C89.6483 66.6224 89.2312 63.8036 88.4402 61.047C87.3567 57.2741 85.6309 53.8368 82.9942 50.8981C79.9069 47.456 76.0716 45.2268 71.6372 44.0091C68.1567 43.0503 64.6044 42.7962 61.0137 43.0695C58.1421 43.29 55.3759 43.9324 52.7536 45.1405C48.6595 47.0341 45.5818 50.0256 43.3142 53.8895C41.7466 56.5598 40.6871 59.4314 39.9392 62.4277C39.3064 64.9589 38.9085 67.5285 38.6976 70.1316C38.6544 70.6973 38.6065 71.263 38.5729 71.8287C38.5585 72.0732 38.4722 72.1643 38.2086 72.1643C35.2171 72.1547 32.2257 72.1595 29.2342 72.1547C28.889 72.1547 28.8699 72.1451 28.8938 71.7856C28.9897 70.4864 29.076 69.1872 29.2102 67.8928C29.4547 65.6013 29.7999 63.3242 30.2793 61.071C31.2812 56.3585 32.7961 51.8329 35.1979 47.6382C37.547 43.5297 40.5912 40.054 44.5271 37.3886C47.7055 35.2361 51.1908 33.8122 54.9253 32.9685C55.654 32.8055 56.3827 32.6713 57.1641 32.5131L57.1737 32.5274Z" fill="#010100"/>
<path d="M69.8922 58.4824C69.8922 57.3031 69.8682 56.1237 69.897 54.9444C69.9353 53.65 70.9612 52.5426 72.2125 52.3796C73.5644 52.207 74.806 52.9549 75.2183 54.2013C75.3286 54.5369 75.3765 54.8917 75.3765 55.2464C75.3765 57.3702 75.3861 59.4939 75.3765 61.6129C75.3669 63.099 74.5328 64.1681 73.2096 64.4557C71.5221 64.8201 69.9401 63.6024 69.897 61.8765C69.8682 60.7452 69.8922 59.6138 69.8922 58.4824Z" fill="#010100"/>
<path d="M58.4581 58.4777C58.4581 59.6138 58.4773 60.7452 58.4533 61.8814C58.4293 63.1374 57.5856 64.1633 56.4015 64.4462C55.1934 64.7338 53.9661 64.2161 53.3621 63.1614C53.1368 62.7635 53.0073 62.3416 53.0073 61.8766C53.0073 59.5851 52.9833 57.2887 53.0169 54.9972C53.0409 53.4679 54.2633 52.3365 55.7735 52.3557C57.2836 52.3749 58.4293 53.5254 58.4581 55.0739C58.4773 56.2101 58.4581 57.3415 58.4581 58.4777Z" fill="#010100"/>
</svg>
