<svg viewBox="0 0 128 128" fill="none" xmlns="http://www.w3.org/2000/svg">
<path d="M64.0002 127.981C99.3411 127.981 127.991 99.3313 127.991 63.9904C127.991 28.6495 99.3411 0 64.0002 0C28.6592 0 0.00976562 28.6495 0.00976562 63.9904C0.00976562 99.3313 28.6592 127.981 64.0002 127.981Z" fill="#E6007A"/>
<path d="M63.9999 37.8534C72.9993 37.8534 80.2948 33.5972 80.2948 28.3468C80.2948 23.0965 72.9993 18.8403 63.9999 18.8403C55.0005 18.8403 47.7051 23.0965 47.7051 28.3468C47.7051 33.5972 55.0005 37.8534 63.9999 37.8534Z" fill="white"/>
<path d="M63.9999 109.145C72.9993 109.145 80.2948 104.889 80.2948 99.6388C80.2948 94.3885 72.9993 90.1323 63.9999 90.1323C55.0005 90.1323 47.7051 94.3885 47.7051 99.6388C47.7051 104.889 55.0005 109.145 63.9999 109.145Z" fill="white"/>
<path d="M103.101 86.5691C107.601 78.7754 107.563 70.3292 103.016 67.7041C98.4691 65.0789 91.1354 69.2689 86.6357 77.0626C82.136 84.8563 82.1743 93.3024 86.7212 95.9276C91.2681 98.5527 98.6018 94.3628 103.101 86.5691Z" fill="white"/>
<path d="M41.3651 50.9216C45.8648 43.1279 45.8266 34.6818 41.2797 32.0566C36.7328 29.4315 29.3991 33.6214 24.8994 41.4151C20.3997 49.2088 20.4379 57.655 24.9848 60.2801C29.5317 62.9053 36.8654 58.7153 41.3651 50.9216Z" fill="white"/>
<path d="M41.2797 95.9268C45.8266 93.3016 45.8648 84.8555 41.3651 77.0618C36.8654 69.2681 29.5317 65.0781 24.9848 67.7033C20.4379 70.3284 20.3997 78.7746 24.8994 86.5683C29.3991 94.362 36.7328 98.5519 41.2797 95.9268Z" fill="white"/>
<path d="M103.017 60.2837C107.564 57.6585 107.602 49.2124 103.102 41.4187C98.6028 33.625 91.269 29.4351 86.7221 32.0602C82.1752 34.6854 82.137 43.1315 86.6367 50.9252C91.1364 58.7189 98.4701 62.9088 103.017 60.2837Z" fill="white"/>
</svg>
