<svg viewBox="0 0 128 128" fill="none" xmlns="http://www.w3.org/2000/svg">
<path d="M128 64.0002C128 99.3453 99.3486 128 64 128C28.6514 128 0 99.3453 0 64.0002C0 28.655 28.6521 0 64 0C99.3479 0 128 28.6523 128 64.0002Z" fill="#2B1D4B"/>
<path d="M64.0014 125.879C98.1702 125.879 125.87 98.178 125.87 64.0065C125.87 29.8351 98.1702 2.13361 64.0014 2.13361C29.8326 2.13361 2.13324 29.8351 2.13324 64.0065C2.13324 98.178 29.8326 125.879 64.0014 125.879Z" stroke="black" stroke-opacity="0.34"/>
<path d="M77.9697 43.7562C73.4922 39.0793 66.925 36.293 59.1639 36.293H44.6367V83.56L52.8953 91.8193H67.124C81.6513 91.8193 91.8005 82.0674 91.8005 68.136C91.8005 60.9714 89.5119 55.3988 84.5368 50.3239L77.9697 43.7562ZM76.3777 60.0758C76.3777 69.5292 70.1091 75.8978 60.4574 76.4948V51.4185H67.2235C70.8056 51.4185 73.1936 52.0155 75.1837 53.4086C75.9797 55.2993 76.3777 57.588 76.3777 60.0758ZM73.9897 51.0204L69.6116 46.642C71.4026 47.7366 72.8951 49.2293 73.9897 51.0204ZM68.4176 45.8459L74.5867 52.0155C74.1887 51.8165 73.6912 51.6175 73.2932 51.4185L67.0245 45.2489C67.5221 45.4479 68.0196 45.6469 68.4176 45.8459ZM66.2285 44.8508L72.4971 51.1199C72.0991 51.0204 71.6016 50.9209 71.2036 50.8214L64.736 44.3533C65.2335 44.5523 65.731 44.7513 66.2285 44.8508ZM64.139 44.2538L70.6066 50.7219C70.1091 50.6224 69.5121 50.5229 69.0146 50.5229L62.4475 43.9553C62.945 44.0548 63.542 44.1543 64.139 44.2538ZM61.8505 43.8557L68.5171 50.5229C68.1191 50.5229 67.7211 50.5229 67.2235 50.5229H66.527L59.7609 43.7562C60.4574 43.7562 61.1539 43.7562 61.8505 43.8557ZM59.2634 43.6567L66.0295 50.4234H63.542L56.7759 43.6567H59.2634ZM56.2784 43.6567L63.0445 50.4234H61.1539L54.3878 43.6567H56.2784ZM53.9898 43.6567L60.7559 50.4234H59.7609L52.9948 43.6567H53.9898ZM52.3978 43.6567H52.4973L59.4624 50.6224V52.314L52.3978 45.2489V43.6567ZM52.3978 59.0807L53.2933 59.9763L53.5918 59.6777L52.3978 58.4836V56.792L54.3878 58.8817L54.6863 58.5831L52.3978 56.2944V54.6028L55.5818 57.7871L55.7809 57.4885L52.3978 54.1052V52.4135L56.6764 56.6925L56.8754 56.3939L52.3978 51.916V50.2243L57.7709 55.5978L57.9699 55.2993L52.3978 49.6273V47.9356L58.8654 54.4037L59.1639 54.2047L52.3978 47.5376V45.8459L59.4624 52.8116V76.3953H52.3978V59.0807ZM53.3928 90.8242L46.3282 83.759H46.8257L53.8903 90.8242H53.3928ZM54.2883 90.8242L47.2237 83.759H47.8207L54.8853 90.8242H54.2883ZM55.3828 90.8242L48.3182 83.759H49.1142L56.1789 90.8242H55.3828ZM56.5769 90.8242L49.5122 83.759H50.5073L57.5719 90.8242H56.5769ZM58.0694 90.8242L51.0048 83.759H52.0993L59.1639 90.8242H58.0694ZM59.6614 90.8242L52.5968 83.759H53.9898L61.0544 90.8242H59.6614ZM61.5519 90.8242L54.4873 83.759H56.1789L63.2435 90.8242H61.5519ZM63.741 90.8242L56.6764 83.759H58.6664L65.8305 90.8242H63.741ZM67.2235 90.8242H66.2285L59.1639 83.759C59.9599 83.759 60.6564 83.759 61.3529 83.6595L68.5171 90.8242C68.1191 90.8242 67.6216 90.8242 67.2235 90.8242ZM69.0146 90.8242L61.8505 83.6595C62.6465 83.56 63.542 83.4605 64.338 83.361L71.6016 90.6252C70.7061 90.6252 69.8106 90.7247 69.0146 90.8242ZM71.9001 90.5256L64.6365 83.2615C65.532 83.0624 66.4275 82.8634 67.323 82.6644L74.5867 89.9286C73.7907 90.1276 72.8951 90.3266 71.9001 90.5256ZM74.9847 89.7296L67.7211 82.4654C68.7161 82.1669 69.6116 81.8683 70.5071 81.4703L77.7707 88.7345C76.9747 89.1325 75.9797 89.5306 74.9847 89.7296ZM78.1687 88.635L70.9051 81.3708C71.9001 80.8732 72.8951 80.3757 73.7907 79.7786L81.0543 87.0428C80.1588 87.6399 79.1638 88.1374 78.1687 88.635ZM81.3528 86.8438L74.0892 79.5796C75.1837 78.8831 76.0792 78.1865 76.9747 77.2909L84.2383 84.5551C83.3428 85.4507 82.3478 86.1472 81.3528 86.8438ZM84.5368 84.3561L77.2732 77.0919C78.3677 76.0968 79.2633 75.0022 80.0593 73.9076L87.2234 81.0723C86.4274 82.2664 85.5319 83.361 84.5368 84.3561ZM87.4224 80.7737L80.2583 73.6091C81.2533 72.2159 82.0493 70.6238 82.6463 69.0316L89.7109 76.0968C89.1139 77.6889 88.3179 79.2811 87.4224 80.7737ZM89.8104 75.6987L82.7458 68.6336C83.4423 66.5439 83.9398 64.3547 84.1388 61.8669L90.905 68.7331C90.905 71.2208 90.507 73.5095 89.8104 75.6987ZM90.905 68.2355L84.1388 61.3694C84.1388 60.9714 84.1388 60.4738 84.1388 59.9763C84.1388 55.6974 82.9448 51.518 81.1538 48.1346L83.8403 50.9209C88.6164 55.7969 90.905 61.0709 90.905 68.0365V68.2355Z" fill="#F4F1F3"/>
</svg>
