<svg viewBox="0 0 128 128" fill="none" xmlns="http://www.w3.org/2000/svg">
<g clip-path="url(#clip0)">
<path d="M128 64.0002C128 99.3453 99.3486 128 64 128C28.6514 128 0 99.3453 0 64.0002C0 28.655 28.6521 0 64 0C99.3479 0 128 28.6523 128 64.0002Z" fill="white"/>
<path d="M64 126C98.2417 126 126 98.2417 126 64C126 29.7583 98.2417 2 64 2C29.7583 2 2 29.7583 2 64C2 98.2417 29.7583 126 64 126Z" stroke="black" stroke-opacity="0.097"/>
<path d="M93.4044 69.7301H84.2102C84.78 65.9752 84.78 62.1529 84.2102 58.3919H93.4044C94.3785 58.3919 95.1687 57.6018 95.1687 56.6277C95.1687 55.6537 94.3785 54.8635 93.4044 54.8635H83.4996C81.8519 48.3093 78.4583 42.3187 73.6682 37.5469C65.7052 29.5781 54.6918 25.6456 43.4638 26.7481C43.3169 26.7666 43.2064 26.9011 43.2249 27.0483C43.2434 27.177 43.3412 27.275 43.4638 27.2872C51.9659 28.1325 59.9105 31.8935 65.9563 37.9332C70.7156 42.6926 74.0173 48.518 75.6344 54.8701H49.3196C48.3456 54.8701 47.5554 55.6602 47.5554 56.6343C47.5554 57.6084 48.3456 58.3985 49.3196 58.3985H76.351C76.6388 60.2729 76.7799 62.1717 76.7799 64.0646C76.7799 65.9636 76.6391 67.8562 76.351 69.7306H49.3196C48.3456 69.7306 47.5554 70.5208 47.5554 71.4948C47.5554 72.4689 48.3456 73.2591 49.3196 73.2591H75.6344C74.0173 79.6111 70.7156 85.4363 65.9563 90.1959C59.9105 96.2356 51.9659 99.9966 43.4638 100.842C43.3169 100.854 43.2064 100.989 43.2188 101.136C43.231 101.265 43.3351 101.369 43.4638 101.381C54.6979 102.484 65.7052 98.5511 73.6682 90.582C78.4522 85.8041 81.8519 79.8196 83.4996 73.2593H93.4044C94.3785 73.2593 95.1687 72.4692 95.1687 71.4951C95.1684 70.5205 94.3782 69.7301 93.4044 69.7301Z" fill="#3B218C"/>
</g>
<defs>
<clipPath id="clip0">
<rect width="128" height="128" fill="white"/>
</clipPath>
</defs>
</svg>
