<svg viewBox="0 0 128 128" fill="none" xmlns="http://www.w3.org/2000/svg">
<g clip-path="url(#clip0)">
<path d="M64 -0.000127316C30.8629 -0.000130213 4.00001 26.8628 4.00001 59.9999C4 93.137 30.8629 120 64 120C97.1371 120 124 93.137 124 59.9999C124 26.8628 97.1371 -0.000124419 64 -0.000127316Z" fill="white"/>
<path d="M64 118C96.0325 118 122 92.0325 122 60C122 27.9675 96.0325 2 64 2C31.9675 2 6 27.9675 6 60C6 92.0325 31.9675 118 64 118Z" stroke="black" stroke-opacity="0.097"/>
<g clip-path="url(#clip1)">
<path fill-rule="evenodd" clip-rule="evenodd" d="M83.8725 40.0969C83.614 39.8391 83.459 39.5813 83.459 39.2203C83.459 38.8594 83.614 38.6016 83.8725 38.3438C84.3893 37.8797 85.2162 37.8797 85.7847 38.3438C86.0432 38.6016 86.1982 38.8594 86.1982 39.2203C86.1982 39.5813 86.0432 39.8391 85.7847 40.0969C85.5263 40.3031 85.1645 40.4578 84.8544 40.4578C84.4927 40.5094 84.1309 40.4063 83.8725 40.0969Z" fill="#0D022B"/>
<path fill-rule="evenodd" clip-rule="evenodd" d="M80.5644 43.6546C80.3577 43.3968 80.2026 43.139 80.2026 42.7781C80.2026 42.4171 80.3577 42.1593 80.5644 41.9015C81.0296 41.4375 81.8565 41.4375 82.3217 41.9015C82.5284 42.1593 82.6835 42.4171 82.6835 42.7781C82.6835 43.139 82.5284 43.3968 82.3217 43.6546C82.0633 43.8609 81.8048 44.0156 81.443 44.0156C81.0813 44.0156 80.8228 43.8609 80.5644 43.6546Z" fill="#0D022B"/>
<path fill-rule="evenodd" clip-rule="evenodd" d="M76.9467 47.0578C76.74 46.8516 76.585 46.5422 76.585 46.1813C76.585 45.8203 76.74 45.5625 76.9467 45.3047C77.4119 44.8406 78.2388 44.8406 78.704 45.3047C78.9107 45.511 79.0658 45.8203 79.0658 46.1813C79.0658 46.5422 78.9107 46.8 78.704 47.0578C78.4456 47.3157 78.1872 47.4188 77.8254 47.4188C77.4636 47.4188 77.1535 47.2641 76.9467 47.0578Z" fill="#0D022B"/>
<path fill-rule="evenodd" clip-rule="evenodd" d="M73.4838 50.5125C73.2254 50.3063 73.0703 49.9969 73.0703 49.636C73.0703 49.275 73.2254 49.0172 73.4838 48.7594C74.0006 48.2954 74.8276 48.2954 75.3961 48.7594C75.6545 48.9657 75.8095 49.275 75.8095 49.636C75.8095 49.9969 75.6545 50.3063 75.3961 50.5125C75.1377 50.7704 74.7759 50.8735 74.4658 50.8735C74.104 50.8735 73.7939 50.8219 73.4838 50.5125Z" fill="#0D022B"/>
<path fill-rule="evenodd" clip-rule="evenodd" d="M70.1762 53.9673C69.9178 53.761 69.8145 53.4516 69.8145 53.0907C69.8145 52.7298 69.9695 52.4719 70.1762 52.2141C70.6414 51.7501 71.4683 51.7501 71.9335 52.2141C72.1919 52.4204 72.2953 52.7298 72.2953 53.0907C72.2953 53.4516 72.1402 53.761 71.9335 53.9673C71.7267 54.2251 71.4166 54.3282 71.0549 54.3282C70.7448 54.3798 70.383 54.2766 70.1762 53.9673Z" fill="#0D022B"/>
<path fill-rule="evenodd" clip-rule="evenodd" d="M66.1963 56.5453C66.1963 56.1844 66.3513 55.9265 66.5581 55.6687C67.0232 55.2047 67.8502 55.2047 68.3153 55.6687C68.5737 55.9265 68.6771 56.1844 68.6771 56.5453C68.6771 56.9062 68.5221 57.164 68.3153 57.4219C68.1086 57.6281 67.7985 57.7828 67.4367 57.7828C67.0749 57.7828 66.8165 57.6281 66.5581 57.4219C66.2997 57.2156 66.1963 56.9062 66.1963 56.5453Z" fill="#0D022B"/>
<path fill-rule="evenodd" clip-rule="evenodd" d="M59.7363 64.1765C59.5296 63.9702 59.3745 63.6609 59.3745 63.2999C59.3745 62.939 59.5296 62.6812 59.7363 62.4234C60.2014 61.9593 61.0284 61.9593 61.4935 62.4234C61.752 62.6812 61.8553 62.939 61.8553 63.2999C61.8553 63.6609 61.7003 63.9187 61.4935 64.1765C61.2868 64.4343 60.9767 64.5374 60.6149 64.5374C60.3048 64.589 59.9947 64.4859 59.7363 64.1765Z" fill="#0D022B"/>
<path fill-rule="evenodd" clip-rule="evenodd" d="M56.1698 67.6312C55.9114 67.4249 55.7563 67.1156 55.7563 66.7546C55.7563 66.3937 55.9114 66.1359 56.1698 65.8781C56.6867 65.414 57.5136 65.414 58.0821 65.8781C58.3405 66.1359 58.4956 66.3937 58.4956 66.7546C58.4956 67.1156 58.3405 67.3734 58.0821 67.6312C57.8237 67.889 57.4619 67.9921 57.1518 67.9921C56.7383 68.0437 56.4282 67.889 56.1698 67.6312Z" fill="#0D022B"/>
<path fill-rule="evenodd" clip-rule="evenodd" d="M52.8105 71.1374C52.6038 70.9312 52.4487 70.6218 52.4487 70.2609C52.4487 69.8999 52.6038 69.5906 52.8105 69.3843C53.2757 68.9202 54.1026 68.9202 54.5678 69.3843C54.7745 69.5906 54.9295 69.8999 54.9295 70.2609C54.9295 70.6218 54.7745 70.8796 54.5678 71.1374C54.3093 71.3952 54.0509 71.4984 53.6891 71.4984C53.3274 71.4984 53.1206 71.3437 52.8105 71.1374Z" fill="#0D022B"/>
<path fill-rule="evenodd" clip-rule="evenodd" d="M49.3476 74.5921C49.0892 74.3859 48.9858 74.0765 48.9858 73.7156C48.9858 73.3546 49.1409 73.0968 49.3476 72.839C49.8128 72.375 50.6397 72.375 51.1049 72.839C51.3116 73.0968 51.4667 73.3546 51.4667 73.7156C51.4667 74.0765 51.3116 74.3859 51.1049 74.5921C50.8465 74.8499 50.588 74.9531 50.2262 74.9531C49.9161 74.9531 49.5544 74.8499 49.3476 74.5921Z" fill="#0D022B"/>
<path fill-rule="evenodd" clip-rule="evenodd" d="M45.7816 78.0468C45.5232 77.8406 45.3682 77.5312 45.3682 77.1703C45.3682 76.8094 45.5232 76.5515 45.7816 76.2937C46.2985 75.8297 47.1254 75.8297 47.5906 76.2937C47.849 76.5515 48.004 76.8094 48.004 77.1703C48.004 77.5312 47.849 77.8406 47.5906 78.0468C47.3321 78.2531 46.9704 78.4078 46.6603 78.4078C46.2985 78.4078 45.9884 78.3047 45.7816 78.0468Z" fill="#0D022B"/>
<path fill-rule="evenodd" clip-rule="evenodd" d="M42.3706 81.5016C42.1122 81.2437 42.0088 80.9859 42.0088 80.625C42.0088 80.2641 42.1638 80.0063 42.3706 79.7484C42.8357 79.2844 43.6627 79.2844 44.1278 79.7484C44.3862 80.0063 44.4896 80.2641 44.4896 80.625C44.4896 80.9859 44.3346 81.2437 44.1278 81.5016C43.9211 81.7078 43.611 81.8625 43.2492 81.8625C42.9908 81.9141 42.6807 81.7594 42.3706 81.5016Z" fill="#0D022B"/>
<path fill-rule="evenodd" clip-rule="evenodd" d="M44.1278 40.0969C44.3346 39.8391 44.4896 39.5813 44.4896 39.2203C44.4896 38.8594 44.3346 38.6016 44.1278 38.3438C43.6627 37.8797 42.8357 37.8797 42.3706 38.3438C42.1122 38.6016 42.0088 38.8594 42.0088 39.2203C42.0088 39.5813 42.1638 39.8391 42.3706 40.0969C42.5773 40.3031 42.8874 40.4578 43.2492 40.4578C43.611 40.5094 43.9211 40.4063 44.1278 40.0969Z" fill="#0D022B"/>
<path fill-rule="evenodd" clip-rule="evenodd" d="M47.5904 43.6546C47.8488 43.3968 48.0039 43.139 48.0039 42.7781C48.0039 42.4171 47.8488 42.1593 47.5904 41.9015C47.0736 41.4375 46.2466 41.4375 45.6781 41.9015C45.4197 42.1593 45.2646 42.4171 45.2646 42.7781C45.2646 43.139 45.4197 43.3968 45.6781 43.6546C45.9365 43.8609 46.2983 44.0156 46.6084 44.0156C46.9702 43.964 47.332 43.8609 47.5904 43.6546Z" fill="#0D022B"/>
<path fill-rule="evenodd" clip-rule="evenodd" d="M51.1049 47.0578C51.3116 46.8516 51.4667 46.5422 51.4667 46.1813C51.4667 45.8203 51.3116 45.5625 51.1049 45.3047C50.6397 44.8406 49.8128 44.8406 49.3476 45.3047C49.1409 45.511 48.9858 45.8203 48.9858 46.1813C48.9858 46.5422 49.1409 46.8 49.3476 47.0578C49.606 47.3157 49.8645 47.4188 50.2262 47.4188C50.5364 47.4188 50.8465 47.2641 51.1049 47.0578Z" fill="#0D022B"/>
<path fill-rule="evenodd" clip-rule="evenodd" d="M54.5678 50.5125C54.7745 50.3063 54.9295 49.9969 54.9295 49.636C54.9295 49.275 54.7745 49.0172 54.5678 48.7594C54.1026 48.2954 53.2757 48.2954 52.8105 48.7594C52.6038 48.9657 52.4487 49.275 52.4487 49.636C52.4487 49.9969 52.6038 50.3063 52.8105 50.5125C53.0689 50.7704 53.3274 50.8735 53.6891 50.8735C53.9992 50.8735 54.3093 50.8219 54.5678 50.5125Z" fill="#0D022B"/>
<path fill-rule="evenodd" clip-rule="evenodd" d="M57.9787 53.9673C58.2372 53.761 58.3922 53.4516 58.3922 53.0907C58.3922 52.7298 58.2372 52.4719 57.9787 52.2141C57.5136 51.7501 56.635 51.7501 56.1698 52.2141C55.9114 52.4204 55.7563 52.7298 55.7563 53.0907C55.7563 53.4516 55.9114 53.761 56.1698 53.9673C56.4282 54.2251 56.79 54.3282 57.1001 54.3282C57.4102 54.3798 57.772 54.2766 57.9787 53.9673Z" fill="#0D022B"/>
<path fill-rule="evenodd" clip-rule="evenodd" d="M61.8553 56.5453C61.8553 56.1844 61.7003 55.9265 61.4935 55.6687C61.0284 55.2047 60.2014 55.2047 59.7363 55.6687C59.4779 55.9265 59.3745 56.1844 59.3745 56.5453C59.3745 56.9062 59.5296 57.164 59.7363 57.4219C59.943 57.6281 60.2531 57.7828 60.6149 57.7828C60.9767 57.7828 61.2351 57.6281 61.4935 57.4219C61.752 57.2156 61.8553 56.9062 61.8553 56.5453Z" fill="#0D022B"/>
<path fill-rule="evenodd" clip-rule="evenodd" d="M64.9559 60.9282C65.2144 60.6704 65.3177 60.4126 65.3177 60.0516C65.3177 59.6907 65.1627 59.4329 64.9559 59.1751C64.4908 58.711 63.6639 58.711 63.1987 59.1751C62.9403 59.4329 62.8369 59.6907 62.8369 60.0516C62.8369 60.4126 62.992 60.6704 63.1987 60.9282C63.4054 61.1344 63.7155 61.2891 64.0773 61.2891C64.4391 61.2891 64.7492 61.1344 64.9559 60.9282Z" fill="#0D022B"/>
<path fill-rule="evenodd" clip-rule="evenodd" d="M68.4187 64.1765C68.6771 63.9702 68.8322 63.6609 68.8322 63.2999C68.8322 62.939 68.6771 62.6812 68.4187 62.4234C67.9019 61.9593 67.0749 61.9593 66.6098 62.4234C66.3513 62.6812 66.1963 62.939 66.1963 63.2999C66.1963 63.6609 66.3513 63.9187 66.6098 64.1765C66.8682 64.4343 67.23 64.5374 67.5401 64.5374C67.7985 64.589 68.1603 64.4859 68.4187 64.1765Z" fill="#0D022B"/>
<path fill-rule="evenodd" clip-rule="evenodd" d="M71.9335 67.6312C72.1402 67.4249 72.2953 67.1156 72.2953 66.7546C72.2953 66.3937 72.1402 66.1359 71.9335 65.8781C71.4683 65.414 70.6414 65.414 70.1762 65.8781C69.9695 66.1359 69.8145 66.3937 69.8145 66.7546C69.8145 67.1156 69.9695 67.3734 70.1762 67.6312C70.4347 67.889 70.6931 67.9921 71.0549 67.9921C71.3133 68.0437 71.6751 67.889 71.9335 67.6312Z" fill="#0D022B"/>
<path fill-rule="evenodd" clip-rule="evenodd" d="M75.3964 71.1374C75.6031 70.9312 75.7582 70.6218 75.7582 70.2609C75.7582 69.8999 75.6031 69.5906 75.3964 69.3843C74.9312 68.9202 74.1043 68.9202 73.6391 69.3843C73.4324 69.5906 73.2773 69.8999 73.2773 70.2609C73.2773 70.6218 73.4324 70.8796 73.6391 71.1374C73.8975 71.3952 74.156 71.4984 74.5177 71.4984C74.8795 71.4984 75.138 71.3437 75.3964 71.1374Z" fill="#0D022B"/>
<path fill-rule="evenodd" clip-rule="evenodd" d="M78.6522 74.5921C78.9106 74.3859 79.014 74.0765 79.014 73.7156C79.014 73.3546 78.859 73.0968 78.6522 72.839C78.1871 72.375 77.3601 72.375 76.895 72.839C76.6883 73.0968 76.5332 73.3546 76.5332 73.7156C76.5332 74.0765 76.6883 74.3859 76.895 74.5921C77.1534 74.8499 77.4118 74.9531 77.7736 74.9531C78.0837 74.9531 78.4455 74.8499 78.6522 74.5921Z" fill="#0D022B"/>
<path fill-rule="evenodd" clip-rule="evenodd" d="M82.3217 78.0468C82.5801 77.8406 82.6835 77.5312 82.6835 77.1703C82.6835 76.8094 82.5284 76.5515 82.3217 76.2937C81.8565 75.8297 81.0296 75.8297 80.5644 76.2937C80.306 76.5515 80.2026 76.8094 80.2026 77.1703C80.2026 77.5312 80.3577 77.8406 80.5644 78.0468C80.7712 78.2531 81.0813 78.4078 81.443 78.4078C81.8048 78.4078 82.1149 78.3047 82.3217 78.0468Z" fill="#0D022B"/>
<path fill-rule="evenodd" clip-rule="evenodd" d="M85.7844 81.5016C86.0428 81.2437 86.1979 80.9859 86.1979 80.625C86.1979 80.2641 86.0428 80.0063 85.7844 79.7484C85.2676 79.2844 84.4406 79.2844 83.9755 79.7484C83.7171 80.0063 83.562 80.2641 83.562 80.625C83.562 80.9859 83.7171 81.2437 83.9755 81.5016C84.2339 81.7078 84.5957 81.8625 84.9058 81.8625C85.1642 81.9141 85.4743 81.7594 85.7844 81.5016Z" fill="#0D022B"/>
<path fill-rule="evenodd" clip-rule="evenodd" d="M52.3453 41.0766C55.8598 38.7562 59.7361 37.6734 64.0259 37.6219C68.2122 37.6219 72.0885 38.7562 75.7064 41.0766L83.1488 33.6516C77.3085 29.2172 71.0031 27 64.0259 27C57.0486 27 50.6398 29.2172 44.9546 33.6516L52.3453 41.0766Z" fill="#0D022B"/>
<path fill-rule="evenodd" clip-rule="evenodd" d="M44.9029 71.55C42.5255 67.9406 41.3884 64.125 41.3884 60C41.3884 55.8234 42.5255 51.9562 44.9029 48.45L37.5121 41.0765C33.1707 46.7484 31 53.039 31 60.0515C31 66.9609 33.1707 73.3031 37.5638 79.0781L44.9029 71.55Z" fill="#0D022B"/>
<path fill-rule="evenodd" clip-rule="evenodd" d="M75.6546 78.9235C72.1401 81.2953 68.2638 82.5328 64.0775 82.5844C59.7877 82.5844 55.8598 81.45 52.3453 78.975L44.9028 86.3485C50.6397 90.8344 57.0485 93.0516 64.0775 93C71.0547 92.9485 77.3601 90.6797 83.0453 86.3485L75.6546 78.9235Z" fill="#0D022B"/>
<path fill-rule="evenodd" clip-rule="evenodd" d="M82.9419 48.3469C85.3193 51.9562 86.5598 55.875 86.4564 60.1031C86.4047 64.2281 85.216 67.9922 82.9419 71.4468L90.3843 78.8203C94.7774 73.1484 97.0515 66.8578 97.0515 59.9484C97.1032 52.9359 94.8808 46.5422 90.3843 40.8187L82.9419 48.3469Z" fill="#0D022B"/>
<path fill-rule="evenodd" clip-rule="evenodd" d="M90.6947 81.2438C93.5373 81.2438 95.9147 83.5641 95.9147 86.4516C95.9147 89.2875 93.5889 91.6594 90.6947 91.6594C87.8521 91.6594 85.4746 89.3391 85.4746 86.4516C85.4746 83.5641 87.8004 81.2438 90.6947 81.2438Z" fill="#0D022B"/>
<path fill-rule="evenodd" clip-rule="evenodd" d="M37.4604 81.2438C40.303 81.2438 42.6287 83.5641 42.6287 86.4516C42.6287 89.2875 40.303 91.6594 37.4604 91.6594C34.6178 91.6594 32.292 89.3391 32.292 86.4516C32.292 83.5641 34.6178 81.2438 37.4604 81.2438Z" fill="#0D022B"/>
<path fill-rule="evenodd" clip-rule="evenodd" d="M90.7978 28.1344C93.6404 28.1344 95.9661 30.4547 95.9661 33.3422C95.9661 36.2297 93.6404 38.55 90.7978 38.55C87.9552 38.55 85.6294 36.2297 85.6294 33.3422C85.6294 30.4547 87.9552 28.1344 90.7978 28.1344Z" fill="#0D022B"/>
<path fill-rule="evenodd" clip-rule="evenodd" d="M37.3568 28.1344C40.1994 28.1344 42.5768 30.4547 42.5768 33.2906C42.5768 36.1266 40.251 38.4469 37.3568 38.4469C34.5142 38.4469 32.1367 36.1266 32.1367 33.2906C32.1367 30.4547 34.4625 28.1344 37.3568 28.1344Z" fill="#0D022B"/>
</g>
</g>
<defs>
<clipPath id="clip0">
<rect width="128" height="128" fill="white"/>
</clipPath>
<clipPath id="clip1">
<rect width="66" height="66" fill="white" transform="translate(31 27)"/>
</clipPath>
</defs>
</svg>
