<svg viewBox="0 0 128 128" fill="none" xmlns="http://www.w3.org/2000/svg">
<path d="M64.0002 127.981C99.3411 127.981 127.991 99.3313 127.991 63.9904C127.991 28.6495 99.3411 0 64.0002 0C28.6592 0 0.00976562 28.6495 0.00976562 63.9904C0.00976562 99.3313 28.6592 127.981 64.0002 127.981Z" fill="white"/>
<path d="M26.1509 86.1581C26.0167 82.7496 26.7645 78.5548 32.2489 78.4302C37.7332 78.3055 42.1773 85.3671 48.4287 85.7027C54.68 86.0335 57.1346 79.389 64.8385 79.389C72.5425 79.389 74.3355 85.7027 80.4622 85.7027C86.589 85.7027 90.9467 78.0562 97.3083 78.0562C103.67 78.0562 102.697 84.7055 102.697 84.7055C102.697 84.7055 104.451 84.8493 105.564 83.4687C105.698 83.0228 106.177 82.7927 106.695 83.0036C106.585 82.6633 101.378 76.2105 100.266 66.4883C100.237 64.7145 97.7542 54.6231 97.9028 46.4397C98.0514 38.2564 97.5529 33.5439 94.3984 33.1603C91.2439 32.7768 88.7894 34.0616 88.7894 34.0616C88.7894 34.0616 77.3797 41.5211 62.6141 35.3752C40.5952 33.7692 38.5482 33.587 38.5482 33.587C38.5482 33.587 36.1991 32.7768 33.8645 33.3377C32.9344 34.728 28.6294 39.7329 32.7139 57.6625C28.7349 63.7269 27.6994 69.7099 27.6994 69.7099C27.6994 69.7099 26.3475 80.6738 22.8574 82.6681C23.3033 82.7975 24.962 82.4284 25.7914 81.6421C25.9975 82.7544 25.9543 83.7515 23.7108 83.972C23.7108 84.1446 26.1509 86.1629 26.1509 86.1629V86.1581Z" fill="#FCB76A"/>
<path d="M40.5576 68.9188C42.8012 65.0117 53.5206 62.9359 55.7642 69.3359C56.4306 71.5795 53.9377 73.406 50.8599 72.3273C49.019 71.6993 45.0448 68.2956 40.5576 68.9188Z" fill="white"/>
<path d="M83.9096 65.213C81.853 64.561 71.915 60.9463 70.0693 68.0367C69.7289 70.1652 72.2266 71.5363 74.9065 70.1844C76.5124 69.3886 79.3601 66.2437 83.9096 65.213V65.213Z" fill="white"/>
<path d="M35.6769 53.7123C34.023 49.2251 33.184 39.5029 36.2378 37.1346C37.6712 36.0128 42.9638 37.1346 49.4453 43.7408C41.7797 46.7322 38.4143 48.9758 35.6769 53.7123Z" fill="white"/>
<path d="M92.5287 54.1052C94.4751 49.7379 95.9612 40.0923 93.0704 37.5275C91.9295 36.5064 87.9552 36.8852 82.6099 40.7012C82.9838 41.147 83.0749 43.5968 82.5859 44.7857C87.8593 47.547 90.4721 49.9488 92.5239 54.1052H92.5287Z" fill="white"/>
<path d="M67.4277 40.0445C68.2667 40.8451 69.0721 41.593 71.1143 41.7799C70.1987 42.245 59.8244 42.9305 57.3603 41.5306C58.6355 42.4655 59.4793 43.1798 59.4793 43.1798C59.4793 43.1798 55.4236 43.9852 52.6382 40.8883C52.5328 41.9669 53.434 43.525 53.434 43.525C53.434 43.525 51.4829 43.1846 51.6027 44.1674C50.9124 44.2728 48.1415 43.942 46.8327 44.6707C43.8125 45.5241 37.983 46.3726 37.4844 38.7981C38.2035 39.637 42.3599 43.6448 45.8979 43.0647C42.1681 40.313 36.2715 36.5832 40.634 27.6041C41.473 30.6914 41.6935 31.2523 43.055 32.3453C42.7865 30.8832 43.9707 27.6424 45.3705 26.6596C46.2047 27.8917 46.4635 28.9512 49.4838 29.862C48.7695 26.5206 50.5001 22.1724 51.9095 21.1226C52.6334 26.5206 57.0391 27.8917 64.839 27.5178C60.8935 25.6912 59.5224 25.1831 58.6883 24.0133C64.0671 27.954 82.5432 20.9739 84.2595 35.2169C88.9337 33.6589 81.618 26.0892 79.6285 25.3844C81.153 25.9262 89.3987 27.1774 88.7179 34.3253C88.4015 37.053 87.0592 40.9793 82.8836 44.3447C82.9747 43.4099 82.6008 41.8231 82.4282 41.2766C82.2604 40.73 80.7934 42.7531 80.7934 42.7531L79.6525 39.9726C79.6525 39.9726 79.082 41.1375 79.1107 42.4463C76.7137 39.987 75.6638 39.6274 75.6638 39.6274C75.6638 39.6274 74.5564 40.5575 71.6561 39.987C69.4508 39.8623 67.4277 40.0589 67.4277 40.0589V40.0445Z" fill="#5F4E48"/>
<path d="M92.9655 61.4929C95.1899 61.7853 95.9474 60.5197 95.9474 60.5197C95.9474 60.5197 92.2608 58.3097 90.4391 56.5071C92.3998 56.7037 93.7326 56.5071 93.7326 56.5071L89.5953 54.5176C89.5953 54.5176 90.2713 52.9116 93.3155 53.0458C90.1179 52.3363 88.9146 51.0084 88.416 49.4743C87.8695 48.4484 87.2031 47.2738 87.2031 47.2738C87.2031 47.2738 91.6999 44.8768 99.1738 47.9882C99.8593 48.923 101.609 48.1943 101.609 48.1943L102.204 49.086C102.204 49.086 104.04 50.6536 101.374 52.0103C100.837 53.3574 100.085 54.9586 100.085 54.9586L103.095 54.7429L101.024 56.6174L103.321 57.5714L101.494 58.0076L103.095 60.606L98.9197 58.6932C98.9197 58.6932 99.749 61.0806 101.235 62.49C102.319 64.3597 104.447 67.7395 104.447 67.7395L101.921 66.7903C101.921 66.7903 102.961 72.0637 102.204 73.4012C101.537 71.1576 100.157 67.0108 100.157 67.0108C100.157 67.0108 99.6723 72.6533 98.0184 74.4894C97.9849 71.8431 98.2245 63.5831 98.2245 63.5831C98.2245 63.5831 95.3194 64.3741 92.9607 61.4881L92.9655 61.4929Z" fill="#544B48"/>
<path d="M31.2617 43.0359C30.4419 43.7262 25.7438 46.9718 22.225 45.6294C22.7907 46.339 24.1474 47.3697 26.5971 47.734C25.7342 47.8587 23.8262 48.2326 21.5059 47.6813C22.2345 48.3333 25.1877 50.9412 31.0076 49.1051C31.1322 50.0351 30.7727 50.2605 30.7727 50.2605C30.7727 50.2605 25.6287 54.7285 28.6873 59.4697C28.2558 63.9809 28.1743 65.2034 29.6509 75.5584C30.0008 69.959 30.1686 63.2282 32.93 58.4534C32.0143 54.6853 31.185 49.0763 31.1754 48.0888C31.1658 47.1012 31.2617 43.0407 31.2617 43.0407V43.0359Z" fill="#644D1F"/>
<path d="M63.4054 112.87C63.2664 112.87 63.1417 112.784 63.0938 112.65C62.5473 111.082 59.4599 109.859 55.1837 108.162C46.6551 104.783 33.7689 99.6722 25.2739 85.8751C25.178 85.7217 25.2259 85.5155 25.3841 85.4196C25.5375 85.3237 25.7437 85.3717 25.8396 85.5299C34.2195 99.1401 46.9811 104.203 55.4282 107.549C60.0304 109.375 63.0698 110.579 63.717 112.429C63.7793 112.602 63.6883 112.789 63.5157 112.851C63.4773 112.865 63.4438 112.87 63.4054 112.87Z" fill="#000200"/>
<path d="M64.6953 113.786C64.6953 113.786 64.6617 113.786 64.6426 113.786C64.4604 113.757 64.3405 113.589 64.3693 113.407C64.5131 112.511 64.1584 111.403 63.5639 110.885C63.4249 110.766 63.4105 110.555 63.5304 110.42C63.6502 110.286 63.8611 110.267 63.9954 110.392C64.7672 111.068 65.1987 112.386 65.0165 113.517C64.9925 113.68 64.8487 113.795 64.6905 113.795L64.6953 113.786Z" fill="#000200"/>
<path d="M65.8601 112.87C65.793 112.87 65.7259 112.851 65.6684 112.808C65.5197 112.702 65.4862 112.496 65.5917 112.347C67.5189 109.663 70.7548 108.412 74.8537 106.83C82.1406 104.015 92.1217 100.156 102.86 85.5058C102.971 85.3572 103.177 85.3284 103.325 85.4339C103.474 85.5442 103.503 85.7503 103.397 85.8989C92.5436 100.708 82.4618 104.605 75.0982 107.448C71.1048 108.992 67.9455 110.209 66.1334 112.736C66.0711 112.827 65.9656 112.875 65.8649 112.875L65.8601 112.87Z" fill="#000200"/>
<path d="M25.6048 84.9641C24.809 84.9641 23.9078 84.782 23.4475 84.1731C23.3708 84.0724 23.3612 83.943 23.414 83.8279C23.4667 83.7177 23.5818 83.6458 23.7016 83.641C24.7659 83.6122 25.9069 82.8068 25.9164 82.7972C26.0651 82.6918 26.2712 82.7253 26.3767 82.8739C26.4821 83.0225 26.4486 83.2287 26.3 83.3342C26.2616 83.3629 25.509 83.8999 24.5837 84.1587C25.2069 84.3649 26.0794 84.3313 26.6451 84.1779C26.8225 84.13 27.0047 84.2354 27.0526 84.4128C27.1006 84.5902 26.9951 84.7724 26.8177 84.8203C26.5253 84.897 26.0842 84.9641 25.6048 84.9641V84.9641Z" fill="#000200"/>
<path d="M22.7336 83.1808C22.6809 83.1808 22.6281 83.1808 22.5754 83.1808C22.4316 83.176 22.3069 83.0754 22.2686 82.9363C22.2302 82.7973 22.2878 82.6487 22.4124 82.572C25.3991 80.6831 26.0654 76.8911 26.703 73.2237C27.1105 70.9034 27.4893 68.7125 28.4529 67.1305C28.5487 66.9723 28.7549 66.9243 28.9083 67.0202C29.0665 67.1161 29.1144 67.3174 29.0185 67.4756C28.1221 68.9522 27.7481 71.0807 27.355 73.3387C26.7941 76.5459 26.1709 80.1366 23.7979 82.3371C24.5937 82.0734 25.308 81.5796 25.797 81.2393C25.9456 81.1338 26.1517 81.1721 26.2572 81.3208C26.3627 81.4694 26.3243 81.6755 26.1757 81.781C25.4135 82.3083 24.1526 83.1808 22.7336 83.1808Z" fill="#000200"/>
<path d="M23.5677 74.4845C23.4479 74.4845 23.3376 74.4221 23.2753 74.3119C23.189 74.1489 23.2465 73.9523 23.4095 73.8613C24.3827 73.3387 27.6234 71.1095 28.4097 64.4746C28.4288 64.2924 28.5966 64.163 28.7788 64.1869C28.961 64.2061 29.0904 64.3739 29.0664 64.5561C28.7405 67.3222 27.9638 69.6569 26.7653 71.4978C25.6148 73.262 24.3683 74.101 23.7259 74.4509C23.678 74.4797 23.6205 74.4893 23.5677 74.4893V74.4845Z" fill="#000200"/>
<path d="M29.6319 76.3541C29.4785 76.3541 29.349 76.2534 29.3107 76.1C27.7862 69.8774 27.9923 61.2769 28.4142 59.134C28.4477 58.9566 28.6251 58.8368 28.8025 58.8751C28.9799 58.9087 29.0997 59.0861 29.0614 59.2634C28.6874 61.1667 28.5532 67.792 29.4353 73.3434C29.7229 68.2282 30.3366 61.4208 32.5706 58.3861C30.7632 52.0245 28.9607 39.7231 33.4719 33.1745C33.5246 33.1025 33.6013 33.0498 33.6876 33.0354C36.1325 32.6136 38.6398 33.2224 39.402 33.4957C39.5746 33.558 39.6657 33.7449 39.6034 33.9175C39.5411 34.0901 39.3493 34.1812 39.1815 34.1189C38.4816 33.8696 36.1997 33.3087 33.9417 33.6634C32.1008 36.42 31.1947 40.6339 31.3194 45.869C31.4584 51.5787 32.7192 56.5069 33.2561 58.3622C33.2849 58.4628 33.2657 58.5731 33.1986 58.6594C30.6482 61.9193 30.2359 70.5198 29.9866 75.659L29.9674 76.0473C29.9579 76.2103 29.8332 76.3445 29.6702 76.3589C29.6606 76.3589 29.651 76.3589 29.6367 76.3589L29.6319 76.3541Z" fill="#000200"/>
<path d="M27.2539 50.1931C24.6172 50.1931 22.412 49.0905 20.9929 47.7578C20.8827 47.6523 20.8539 47.4845 20.9354 47.3503C21.0121 47.2161 21.1751 47.1537 21.3189 47.2017C22.4072 47.542 23.855 47.7194 25.3028 47.6715C23.8502 47.3647 22.4168 46.636 21.0121 45.495C20.8827 45.3895 20.8491 45.2026 20.9402 45.0587C21.0313 44.9149 21.2135 44.867 21.3669 44.9389C24.4207 46.4394 28.3997 45.0012 30.8015 43.0357C30.9453 42.9206 31.1515 42.9398 31.2665 43.0836C31.3816 43.2274 31.3624 43.4336 31.2186 43.5486C29.8906 44.6369 28.1888 45.4998 26.5444 45.9217C25.3603 46.2237 24.2145 46.3052 23.155 46.1566C25.1637 47.2688 27.182 47.4749 29.2818 46.7894C29.4448 46.7366 29.627 46.8181 29.6893 46.9764C29.7564 47.1346 29.6893 47.3215 29.5311 47.3982C27.5655 48.381 24.785 48.5152 22.5989 48.1653C24.6124 49.4596 27.5655 50.1356 30.8878 48.7885C31.0556 48.7214 31.2521 48.8029 31.3192 48.9707C31.3864 49.1385 31.3049 49.335 31.1371 49.4021C29.7756 49.9534 28.4716 50.1883 27.2587 50.1883L27.2539 50.1931Z" fill="#000200"/>
<path d="M31.2613 62.461C31.1894 62.461 31.1175 62.437 31.06 62.3939C28.7828 60.6393 27.546 58.7457 27.383 56.7753C27.1433 53.8222 29.3917 51.4204 30.4751 50.2651C30.7052 50.0206 30.9018 49.8096 30.9929 49.6802C31.0983 49.5316 31.3045 49.498 31.4531 49.5987C31.6017 49.7042 31.6401 49.9103 31.5346 50.0589C31.4195 50.2219 31.2182 50.4377 30.9593 50.7109C29.8663 51.8806 27.8288 54.0571 28.0446 56.7178C28.1884 58.4964 29.3389 60.227 31.4627 61.8666C31.6065 61.9768 31.6353 62.1878 31.5202 62.3316C31.4531 62.4179 31.3572 62.461 31.2565 62.461H31.2613Z" fill="#000200"/>
<path d="M31.9666 60.4619C31.8899 60.4619 31.8132 60.4379 31.7509 60.3852C29.2771 58.2854 29.4258 56.6267 29.5408 55.294C29.5552 55.1118 29.5744 54.9344 29.5792 54.7618C29.5888 54.5797 29.747 54.4406 29.9243 54.4454C30.1065 54.455 30.2503 54.6084 30.2407 54.7906C30.2312 54.9728 30.2168 55.1597 30.1976 55.3515C30.0873 56.5931 29.9627 58.0026 32.1775 59.8818C32.3165 60.0017 32.3357 60.2078 32.2159 60.3469C32.1488 60.4236 32.0577 60.4619 31.9618 60.4619H31.9666Z" fill="#000200"/>
<path d="M43.2565 45.682C42.1347 45.682 40.9457 45.4518 39.9054 44.7615C38.1364 43.5918 37.1968 41.353 37.1201 38.1074C37.1201 37.9636 37.2064 37.839 37.3406 37.7862C37.4749 37.7383 37.6235 37.7814 37.7146 37.8917C37.8057 38.0068 37.9063 38.1602 38.0358 38.3519C38.9275 39.6895 41.0129 42.8247 46.7848 43.0932C46.967 43.1028 47.1108 43.2562 47.1012 43.4384C47.0917 43.6205 46.9382 43.7644 46.7561 43.7548C41.3388 43.5055 38.9802 40.8544 37.8584 39.2676C38.0981 41.6454 38.9083 43.3041 40.2746 44.2054C42.7099 45.8162 46.2479 44.541 46.9287 44.2677C47.0964 44.2006 47.293 44.2821 47.3601 44.4547C47.4272 44.6225 47.3457 44.819 47.1732 44.8862C46.5451 45.1354 44.9823 45.6772 43.2612 45.6772L43.2565 45.682Z" fill="#000200"/>
<path d="M47.7958 44.0759C47.7527 44.0759 47.7096 44.0663 47.6712 44.0519C43.2463 42.2158 40.5425 39.8524 39.4111 36.8322C38.3468 33.9941 38.7495 30.6431 40.6192 26.8654C40.6815 26.736 40.8254 26.6641 40.9644 26.6832C41.1082 26.7024 41.2185 26.8127 41.2424 26.9565C41.2712 27.1243 41.2856 27.3352 41.3048 27.5749C41.4006 28.7543 41.5636 30.7246 43.2847 32.2491C43.4237 32.3689 43.4333 32.5799 43.3134 32.7141C43.1936 32.8531 42.9827 32.8627 42.8484 32.7429C41.228 31.3095 40.8445 29.5069 40.7055 28.2605C39.3632 31.4149 39.1379 34.2146 40.0343 36.5973C41.1034 39.4401 43.6826 41.6741 47.9301 43.4383C48.0979 43.5102 48.1794 43.702 48.1075 43.8698C48.0547 43.9992 47.9301 44.0759 47.8006 44.0759H47.7958Z" fill="#000200"/>
<path d="M52.2833 45.1305C52.1778 45.1305 52.0723 45.0825 52.01 44.9866C51.8614 44.7661 51.2621 44.3107 50.5718 43.7786C47.0146 41.0508 38.6779 34.6604 45.0395 26.3092C45.1114 26.2133 45.2313 26.1654 45.3463 26.1798C45.4662 26.1941 45.5668 26.2756 45.61 26.3859C46.0079 27.3974 47.3262 28.8788 49.7137 29.7177C49.8862 29.7801 49.9773 29.967 49.915 30.1396C49.8527 30.3122 49.6657 30.4033 49.4931 30.341C47.2543 29.5547 45.8833 28.2556 45.2456 27.1434C39.8859 34.7514 47.3502 40.4755 50.9745 43.2512C51.7991 43.884 52.3456 44.3011 52.5565 44.6079C52.662 44.7565 52.6236 44.9627 52.4702 45.0681C52.4127 45.1065 52.3456 45.1257 52.2833 45.1257V45.1305Z" fill="#000200"/>
<path d="M55.1212 42.7337C55.0685 42.7337 55.0157 42.7193 54.963 42.6953C52.1537 41.1804 46.9282 38.3568 47.4652 29.4207C47.4747 29.2385 47.6329 29.0995 47.8151 29.1091C47.9973 29.1187 48.1363 29.2769 48.1267 29.4591C47.6521 37.3165 51.5688 40.1066 55.2746 42.1105C55.4376 42.1968 55.4951 42.3981 55.4088 42.5611C55.3513 42.6714 55.2362 42.7337 55.1164 42.7337H55.1212Z" fill="#000200"/>
<path d="M58.9852 41.8612C58.942 41.8612 58.8989 41.8516 58.8557 41.8324C55.9697 40.5908 50.8401 36.535 49.3732 30.9165C48.4383 27.3497 49.1958 23.9316 51.6216 20.7628C51.7031 20.6573 51.8373 20.6093 51.9667 20.6429C52.0962 20.6765 52.192 20.7819 52.2112 20.9114C53.1652 27.1244 58.0647 27.2778 63.7408 27.46C70.5147 27.6757 78.1947 27.9154 81.7567 37.9924C81.819 38.165 81.7279 38.352 81.5553 38.4143C81.3828 38.4766 81.1958 38.3855 81.1335 38.2129C77.7249 28.5626 70.2846 28.3277 63.7216 28.1216C58.2277 27.949 53.0214 27.786 51.7031 21.7791C49.7663 24.6028 49.2006 27.6182 50.0204 30.7487C51.4298 36.1371 56.3532 40.0299 59.1242 41.2236C59.292 41.2955 59.3687 41.492 59.2968 41.6598C59.244 41.7845 59.1194 41.8612 58.9947 41.8612H58.9852Z" fill="#000200"/>
<path d="M82.8498 42.9541C82.8211 42.9541 82.7923 42.9541 82.7636 42.9446C82.5862 42.8966 82.4807 42.7144 82.5286 42.5371C84.1298 36.6069 83.9477 32.4457 81.9725 29.8042C79.2352 26.1416 73.3002 25.9977 68.0651 25.8683C65.3853 25.8012 62.8061 25.7389 60.7734 25.2259C62.4178 26.2662 64.3833 27.1291 66.2194 27.5654C66.3968 27.6085 66.5071 27.7859 66.4639 27.9633C66.4208 28.1407 66.2434 28.2509 66.066 28.2078C63.1225 27.5031 59.9824 25.8347 58.06 23.9555C57.9354 23.8308 57.9258 23.6295 58.0457 23.4953C58.1655 23.3658 58.3668 23.3514 58.5011 23.4617C60.3612 25.0102 64.1101 25.106 68.0795 25.2019C73.468 25.3314 79.5755 25.4848 82.4999 29.4015C84.5997 32.2156 84.8202 36.5685 83.1615 42.7049C83.1231 42.8535 82.9889 42.9493 82.8403 42.9493L82.8498 42.9541Z" fill="#000200"/>
<path d="M73.1519 40.3702C69.9639 40.3702 66.8574 39.4066 64.0481 37.5274C61.3299 35.7105 58.8993 32.9923 57.5474 30.2645C57.4659 30.1015 57.533 29.9001 57.696 29.8186C57.859 29.7371 58.0603 29.8042 58.1418 29.9672C60.1026 33.9271 66.2821 41.0126 75.616 39.5073C75.7982 39.4786 75.966 39.6032 75.9947 39.7806C76.0235 39.9628 75.8988 40.1305 75.7215 40.1593C74.8633 40.2983 74.0052 40.3654 73.1567 40.3654L73.1519 40.3702Z" fill="#000200"/>
<path d="M82.5623 45.1308C82.4856 45.1308 82.4137 45.1069 82.3561 45.0589C82.2555 44.9774 82.2123 44.8432 82.2459 44.7137C82.5143 43.7262 82.3274 42.4174 82.1931 41.7127C81.8671 41.9955 81.3973 42.4462 81.0138 43.0119C80.9371 43.1269 80.7933 43.1797 80.6591 43.1461C80.5248 43.1125 80.4241 42.9975 80.4098 42.8585C80.3379 42.1537 79.9495 41.2573 79.6667 40.6868C79.4653 41.1566 79.24 41.8709 79.2832 42.5996C79.2928 42.753 79.1921 42.892 79.0483 42.9352C78.8997 42.9783 78.7414 42.916 78.6647 42.7818C77.4231 40.5813 72.7921 38.0645 70.0116 37.6282C69.8294 37.5994 69.7095 37.4316 69.7335 37.2495C69.7575 37.0673 69.9301 36.9475 70.1122 36.9714C72.7681 37.3885 76.867 39.517 78.6839 41.6648C78.8661 40.6293 79.3503 39.8286 79.3791 39.7855C79.4414 39.6848 79.5468 39.6225 79.6667 39.6273C79.7817 39.6273 79.892 39.6944 79.9495 39.7951C79.9831 39.8526 80.6159 40.96 80.9227 42.0483C81.5507 41.3196 82.1835 40.8737 82.2171 40.8498C82.3082 40.7875 82.4185 40.7731 82.5191 40.8114C82.6198 40.8498 82.6965 40.9313 82.7253 41.0367C82.7444 41.1134 83.1567 42.6667 83.0273 44.1049C84.5758 42.9256 87.8261 39.5362 88.4349 33.9848C88.9239 29.5407 84.9209 27.6231 81.8384 26.5013C83.9957 28.2319 85.4914 30.4707 86.0667 32.9205C86.8337 36.19 85.99 39.6129 83.6313 42.8153C83.5211 42.9639 83.3149 42.9927 83.1663 42.8872C83.0177 42.777 82.9889 42.5708 83.0944 42.4222C85.338 39.3828 86.1434 36.1469 85.4195 33.0739C84.686 29.9482 82.3513 27.1773 79.0147 25.4658C78.8517 25.3843 78.7894 25.183 78.8709 25.0248C78.9524 24.8666 79.1489 24.7946 79.3119 24.8761C79.6715 25.0535 80.2372 25.2453 80.8892 25.4706C83.9669 26.5301 89.7006 28.4956 89.0917 34.0567C88.3486 40.8114 83.8087 44.5364 82.7253 45.0973C82.6773 45.1212 82.6246 45.1356 82.5719 45.1356L82.5623 45.1308Z" fill="#000200"/>
<path d="M102.419 74.235C102.39 74.235 102.357 74.235 102.323 74.2207C102.146 74.1679 102.045 73.9858 102.098 73.8084C102.688 71.7949 101.566 66.6701 101.551 66.6222C101.523 66.4975 101.571 66.3729 101.666 66.2914C101.762 66.2099 101.897 66.1955 102.012 66.2482C102.021 66.253 102.774 66.5934 103.656 67.0009C102.673 65.649 101.58 63.7985 101.082 62.8397C101 62.6767 101.062 62.4753 101.225 62.3938C101.388 62.3123 101.59 62.3747 101.671 62.5377C102.41 63.9663 104.097 66.6893 105.065 67.696C105.176 67.8111 105.19 67.9884 105.094 68.1179C104.998 68.2473 104.826 68.2905 104.682 68.2234C103.886 67.835 102.932 67.3988 102.333 67.1255C102.625 68.6117 103.248 72.2551 102.736 74.0001C102.692 74.144 102.563 74.2398 102.419 74.2398V74.235Z" fill="#000200"/>
<path d="M106.782 83.3342C106.782 83.3342 106.753 83.3342 106.744 83.3342L106.437 83.2958C105.21 83.152 104.05 83.0178 102.889 81.8193C102.765 81.6898 102.765 81.4789 102.899 81.3495C103.033 81.22 103.239 81.2248 103.369 81.3591C104.217 82.2364 105.037 82.4473 106.006 82.5767C103.052 78.7607 101.207 72.4949 100.344 68.2714C99.8452 71.7615 98.8385 74.6427 97.9276 76.1528C97.8461 76.287 97.6879 76.3445 97.5393 76.2966C97.3907 76.2486 97.2996 76.1048 97.314 75.9466C97.8317 70.865 98.0139 66.0566 97.8509 61.6605C97.8461 61.4783 97.9851 61.3249 98.1673 61.3153C98.3543 61.3105 98.5029 61.4495 98.5125 61.6317C98.6563 65.5292 98.5317 69.7432 98.1433 74.1872C98.9583 72.1737 99.7062 69.2062 99.9267 65.86C99.9363 65.6922 100.075 65.558 100.243 65.5532C100.406 65.5484 100.56 65.6683 100.583 65.8361C101.149 69.8007 103.225 78.4491 107.027 82.7829C107.118 82.8883 107.137 83.0322 107.07 83.1568C107.012 83.2671 106.897 83.3342 106.777 83.3342H106.782Z" fill="#000200"/>
<path d="M103.335 63.2664C103.335 63.2664 103.292 63.2664 103.273 63.2616C100.142 62.6576 95.4104 61.7467 89.8542 56.4014C89.7535 56.3055 89.7247 56.1521 89.7823 56.0275C89.8398 55.898 89.9788 55.8213 90.113 55.8357C92.7018 56.0466 94.7201 56.737 94.8064 56.7657C94.9789 56.8233 95.07 57.015 95.0125 57.1876C94.955 57.3602 94.7632 57.4513 94.5906 57.3938C94.5715 57.389 93.0661 56.8712 91.0383 56.6027C96.1295 61.2146 100.31 62.02 103.402 62.6144C103.579 62.648 103.699 62.8206 103.666 63.0027C103.637 63.1609 103.498 63.2712 103.34 63.2712L103.335 63.2664Z" fill="#000200"/>
<path d="M98.2344 64.0575C95.7702 64.0575 93.3732 62.7728 92.1268 60.788C92.0309 60.6346 92.0741 60.4285 92.2323 60.3326C92.3857 60.2367 92.5918 60.2799 92.6877 60.4381C93.8191 62.2358 95.9956 63.4008 98.2344 63.4008C98.4165 63.4008 98.5651 63.5494 98.5651 63.7316C98.5651 63.9137 98.4165 64.0623 98.2344 64.0623V64.0575Z" fill="#000200"/>
<path d="M103.105 60.9412C103.076 60.9412 103.047 60.9412 103.018 60.9316C100.938 60.3803 97.9559 58.8175 95.3288 57.4464C94.1255 56.8184 92.9941 56.2239 92.0161 55.7589C91.8531 55.6822 91.7812 55.4808 91.8579 55.3178C91.9346 55.1549 92.1312 55.0829 92.299 55.1596C93.2865 55.6295 94.4275 56.2239 95.6356 56.8567C97.8552 58.0169 100.329 59.3113 102.256 59.9968C101.451 58.851 101.11 58.223 101.091 58.1943C101.038 58.0984 101.038 57.9881 101.082 57.8922C101.125 57.7964 101.221 57.7292 101.326 57.7101L102.237 57.5567L100.78 57.0629C100.664 57.0245 100.583 56.9286 100.559 56.8088C100.535 56.6889 100.583 56.5691 100.674 56.4924L102.232 55.198C101.508 55.2843 100.612 55.3562 100.056 55.2891C99.8735 55.2651 99.744 55.1021 99.768 54.9199C99.792 54.7378 99.955 54.6083 100.137 54.6323C101.077 54.7522 103.258 54.3878 103.282 54.383C103.426 54.359 103.574 54.4358 103.637 54.57C103.699 54.7042 103.661 54.8672 103.546 54.9631L101.551 56.6218L103.69 57.3457C103.833 57.3937 103.924 57.5327 103.915 57.6861C103.905 57.8395 103.79 57.9593 103.642 57.9881L101.916 58.2805C102.175 58.6976 102.644 59.4215 103.378 60.4139C103.459 60.5289 103.464 60.6823 103.387 60.7974C103.325 60.8885 103.22 60.9412 103.114 60.9412H103.105Z" fill="#000200"/>
<path d="M91.8245 56.4973C91.7286 56.4973 91.6279 56.4541 91.5656 56.3726C90.5684 55.107 88.9241 54.6228 88.9097 54.618C88.7467 54.5701 88.646 54.4119 88.6748 54.2489C88.7036 54.0811 88.8522 53.9612 89.0152 53.9708C89.0727 53.9708 94.9358 54.2297 99.2264 55.4186C100.243 54.129 101.067 52.082 101.072 52.058C101.139 51.8902 101.331 51.8039 101.504 51.8758C101.671 51.943 101.758 52.1347 101.686 52.3073C101.647 52.4032 100.737 54.6564 99.5956 56.0131C99.5093 56.1137 99.3751 56.1521 99.2504 56.1185C96.4171 55.3036 92.8073 54.9152 90.7075 54.7475C91.1773 55.0495 91.6711 55.4474 92.0834 55.9699C92.1984 56.1137 92.1696 56.3199 92.0306 56.4349C91.9683 56.4829 91.8964 56.5069 91.8245 56.5069V56.4973Z" fill="#000200"/>
<path d="M95.4918 53.5393C94.5617 53.5393 93.6317 53.4578 92.764 53.2901C89.9259 52.7292 88.2672 51.2958 88.085 49.2583C88.0707 49.0761 88.2049 48.9179 88.3871 48.8987C88.5692 48.8844 88.7274 49.0186 88.7466 49.2008C88.8521 50.4184 89.6575 52.0053 92.8934 52.6429C96.7958 53.4147 101.628 52.2066 102.381 50.7444C102.457 50.5958 102.692 50.1404 101.983 49.4692C101.849 49.3446 101.844 49.1337 101.968 48.9994C102.093 48.8652 102.304 48.8604 102.438 48.985C103.325 49.824 103.215 50.5671 102.97 51.0465C102.213 52.5134 98.838 53.5393 95.4918 53.5393Z" fill="#000200"/>
<path d="M95.3957 51.8853C90.1751 51.8853 88.0849 49.2822 86.9535 47.8728C86.8672 47.7625 86.7809 47.6618 86.7042 47.5659C86.6371 47.4844 86.6083 47.3694 86.6371 47.2687C86.6658 47.1632 86.7425 47.0817 86.8432 47.0434C92.481 45.0395 97.1072 46.7078 100.099 48.1364C100.209 48.1892 100.276 48.2946 100.286 48.4097C100.851 48.1844 101.436 47.9159 102.045 47.6043C102.184 47.5324 102.352 47.5659 102.453 47.6858C102.553 47.8056 102.553 47.9782 102.453 48.1029C100.851 50.1259 97.9126 51.7511 95.6163 51.8853C95.5348 51.8853 95.4581 51.8853 95.3814 51.8853H95.3957ZM87.5192 47.518C88.6074 48.8699 90.6161 51.2957 95.6067 51.2238C97.1839 51.1327 99.1638 50.2218 100.674 48.9754C98.09 50.0253 95.8464 50.1835 93.2768 49.5507C93.0994 49.5075 92.9891 49.3253 93.0323 49.148C93.0754 48.9706 93.2528 48.8603 93.435 48.9035C95.5923 49.4356 97.5099 49.3733 99.6384 48.6494C95.2327 46.5832 91.4694 46.2284 87.5144 47.518H87.5192Z" fill="#000200"/>
<path d="M98.9771 48.3188C98.886 48.3188 98.7902 48.2804 98.7278 48.2037C98.608 48.0647 98.6224 47.8585 98.7614 47.7387L99.8496 46.7943C99.3319 46.8422 98.7182 46.8614 98.1813 46.7655C97.9991 46.732 97.8793 46.5642 97.9129 46.382C97.9464 46.1998 98.1142 46.08 98.2964 46.1135C99.3511 46.3005 100.842 45.9745 100.856 45.9745C101.005 45.9409 101.154 46.0129 101.226 46.1471C101.293 46.2813 101.259 46.4443 101.144 46.545L99.1976 48.2325C99.1353 48.2852 99.0586 48.314 98.9819 48.314L98.9771 48.3188Z" fill="#000200"/>
<path d="M102.697 85.1702C102.515 85.1702 102.366 85.0216 102.366 84.8395C102.366 84.6573 102.515 84.5087 102.697 84.5087C103.876 84.5087 104.538 84.1491 104.888 83.8327C104.265 83.8279 103.339 83.732 102.539 83.291C102.381 83.2047 102.318 83.0033 102.409 82.8404C102.496 82.6821 102.697 82.6198 102.86 82.7109C103.991 83.3341 105.506 83.1424 105.525 83.1424C105.641 83.128 105.756 83.1711 105.827 83.2622C105.899 83.3533 105.919 83.4732 105.88 83.5834C105.856 83.6505 105.271 85.1702 102.702 85.1702H102.697Z" fill="#000200"/>
<path d="M97.8502 47.6045H97.8407C97.6585 47.5997 97.5147 47.4463 97.5195 47.2641C97.8167 38.5438 96.9825 34.2196 94.8971 33.6587C93.3726 33.2512 89.7292 34.1285 88.8615 34.512C88.6937 34.5887 88.4971 34.512 88.4252 34.3443C88.3533 34.1765 88.4252 33.9799 88.593 33.908C89.4847 33.5149 93.3007 32.5417 95.0649 33.0163C97.5626 33.6875 98.4926 37.9541 98.1762 47.2833C98.1714 47.4607 98.0228 47.6045 97.8455 47.6045H97.8502Z" fill="#000200"/>
<path d="M97.7162 39.8189C97.6251 39.8189 97.534 39.7805 97.4669 39.7086C97.347 39.5744 97.3566 39.3634 97.4956 39.2436C97.9942 38.8025 98.4113 38.232 98.6941 37.7479C98.1668 38.0643 97.7018 38.28 97.6682 38.2944C97.5004 38.3711 97.3039 38.2944 97.2272 38.1314C97.1505 37.9636 97.2272 37.767 97.3902 37.6903C97.3998 37.6855 98.5455 37.1582 99.2167 36.5589C99.3174 36.4727 99.4564 36.4487 99.5762 36.5062C99.6961 36.5637 99.7728 36.6836 99.768 36.8178C99.7488 37.4123 98.8955 38.8744 97.9319 39.7326C97.8696 39.7901 97.7881 39.8141 97.7114 39.8141L97.7162 39.8189Z" fill="#000200"/>
<path d="M97.8501 42.9542C97.7686 42.9542 97.6823 42.9206 97.62 42.8583C97.4906 42.7288 97.4858 42.5227 97.6152 42.3885L98.1713 41.818C98.0515 41.8228 97.9316 41.8228 97.8166 41.8132C97.6344 41.794 97.505 41.631 97.5241 41.4488C97.5433 41.2667 97.7063 41.1372 97.8885 41.1564C98.296 41.1996 98.8761 41.027 99.063 40.9551C99.2068 40.9023 99.3698 40.9551 99.4561 41.0845C99.5424 41.2139 99.5232 41.3865 99.4178 41.4968L98.0898 42.8535C98.0227 42.9206 97.9412 42.9542 97.8549 42.9542H97.8501Z" fill="#000200"/>
<path d="M55.3904 97.5963C54.7575 97.5963 54.2206 97.1025 54.1823 96.4649C54.1391 95.7938 54.6425 95.2185 55.3137 95.1754C58.1709 94.9836 60.9898 94.0104 64.1874 92.1024C64.6044 91.8531 65.1318 91.8771 65.5249 92.1647C66.4214 92.8167 70.7168 95.1274 74.3123 95.1754C74.9835 95.1849 75.5204 95.7315 75.5108 96.4026C75.5012 97.069 74.9595 97.6011 74.2979 97.6011H74.2835C70.4819 97.5532 66.4501 95.5493 64.7818 94.5665C61.5363 96.4074 58.4825 97.3998 55.4719 97.6011C55.4431 97.6011 55.4191 97.6011 55.3904 97.6011V97.5963Z" fill="#000200"/>
<path d="M63.4051 93.3487C61.4923 91.7283 57.0914 87.7397 61.243 84.916C62.9065 83.9189 66.8088 84.2113 67.8923 84.916C68.9709 85.6208 71.5884 88.4492 66.1472 93.3487C64.8385 93.6411 63.4051 93.3487 63.4051 93.3487Z" fill="#000200"/>
<path d="M65.0785 97.7593C61.9145 97.7593 59.1196 97.1409 58.5107 96.3259L59.3928 95.6643C59.9633 96.3594 66.1859 97.3566 70.7115 95.8561L71.0567 96.9059C69.2301 97.51 67.0776 97.7593 65.0785 97.7593Z" fill="#000200"/>
<path d="M62.6191 87.9172C63.3764 87.9172 63.9902 87.3034 63.9902 86.5461C63.9902 85.7889 63.3764 85.175 62.6191 85.175C61.8619 85.175 61.248 85.7889 61.248 86.5461C61.248 87.3034 61.8619 87.9172 62.6191 87.9172Z" fill="white"/>
<path d="M42.053 76.0232C42.2592 74.1535 44.0042 72.49 49.1578 73.2379C54.3113 73.9858 54.9345 75.9801 54.8099 76.8957C54.6853 77.8114 54.3928 80.5104 47.5374 79.9303C41.473 79.5995 42.053 76.0232 42.053 76.0232V76.0232Z" fill="#000200"/>
<path d="M86.8391 76.0232C86.633 74.1535 84.8879 72.49 79.7344 73.2379C74.5808 73.9858 73.9576 75.9801 74.0822 76.8957C74.2069 77.8114 74.4993 80.5104 81.3548 79.9303C87.4192 79.5995 86.8391 76.0232 86.8391 76.0232Z" fill="#000200"/>
<path d="M45.7923 75.5535C46.3085 75.5535 46.7271 75.135 46.7271 74.6187C46.7271 74.1024 46.3085 73.6838 45.7923 73.6838C45.276 73.6838 44.8574 74.1024 44.8574 74.6187C44.8574 75.135 45.276 75.5535 45.7923 75.5535Z" fill="white"/>
<path d="M79.1919 75.4959C79.642 75.4959 80.0069 75.131 80.0069 74.6809C80.0069 74.2308 79.642 73.866 79.1919 73.866C78.7418 73.866 78.377 74.2308 78.377 74.6809C78.377 75.131 78.7418 75.4959 79.1919 75.4959Z" fill="white"/>
<path d="M64.8394 102.803C66.0176 102.803 66.9727 102.303 66.9727 101.686C66.9727 101.069 66.0176 100.569 64.8394 100.569C63.6612 100.569 62.7061 101.069 62.7061 101.686C62.7061 102.303 63.6612 102.803 64.8394 102.803Z" fill="#E7E7E7"/>
</svg>
