<svg viewBox="0 0 128 128" fill="none" xmlns="http://www.w3.org/2000/svg">
<g clip-path="url(#clip0)">
<path d="M64 -0.000249386C30.8629 -0.000252283 4.00001 26.8627 4.00001 59.9997C4 93.1368 30.8629 120 64 120C97.1371 120 124 93.1368 124 59.9998C124 26.8627 97.1371 -0.000246489 64 -0.000249386Z" fill="black"/>
<path d="M63.5 17L43.4127 45.014L35 86.426L63.5 104L92 86.426L83.4157 44.84L63.5 17ZM39.6355 84.512L45.988 53.018L60.4096 97.388L39.6355 84.512ZM48.0482 45.884L63.5 24.308L78.9518 45.884L63.5 93.212L48.0482 45.884ZM66.4187 97.388L80.8404 53.018L87.1928 84.512L66.4187 97.388Z" fill="white"/>
<path d="M64 118C96.0325 118 122 92.0325 122 60C122 27.9675 96.0325 2 64 2C31.9675 2 6 27.9675 6 60C6 92.0325 31.9675 118 64 118Z" stroke="black" stroke-opacity="0.097"/>
</g>
<defs>
<clipPath id="clip0">
<rect width="128" height="128" fill="white"/>
</clipPath>
</defs>
</svg>
