<svg viewBox="0 0 128 128" fill="none" xmlns="http://www.w3.org/2000/svg">
<g clip-path="url(#clip0)">
<path d="M64 -0.000127316C30.8629 -0.000130213 4.00001 26.8628 4.00001 59.9999C4 93.137 30.8629 120 64 120C97.1371 120 124 93.137 124 59.9999C124 26.8628 97.1371 -0.000124419 64 -0.000127316Z" fill="#3AB83A"/>
<path d="M64 118C96.0325 118 122 92.0325 122 60C122 27.9675 96.0325 2 64 2C31.9675 2 6 27.9675 6 60C6 92.0325 31.9675 118 64 118Z" stroke="black" stroke-opacity="0.097"/>
<path d="M36 64.0135C45.6908 69.2128 55.8029 74.6553 63.613 78.8664L91 64.0135C81.0836 78.8967 72.8211 91.2872 63.613 105C54.3885 91.3174 44.2012 76.2196 36 64.0135ZM37.0533 59.9082L63.6429 45.5738L89.8865 59.8034L63.6579 74.1536L37.0533 59.9082ZM63.613 40.9812L36 55.6671L63.4925 15L91 55.7582L63.613 40.9812Z" fill="white"/>
<path d="M63.6132 78.8664L91.0002 64.0135C81.0838 78.8967 63.6132 105 63.6132 105V78.8664ZM63.6431 45.5738L89.8866 59.8034L63.6581 74.1536L63.6431 45.5738ZM63.6132 40.9823L63.4927 15L91.0002 55.7582L63.6132 40.9823Z" fill="white"/>
<path d="M37.0532 59.9085L63.6443 62.1131L89.8878 59.8174L63.6578 74.1687L37.0532 59.9085Z" fill="white"/>
<path d="M63.6431 62.1131L89.8866 59.8174L63.658 74.1687L63.6431 62.1131Z" fill="white"/>
</g>
<defs>
<clipPath id="clip0">
<rect width="128" height="128" fill="white"/>
</clipPath>
</defs>
</svg>
