<svg viewBox="0 0 128 128" fill="none" xmlns="http://www.w3.org/2000/svg">
<path d="M64 120C97.1371 120 124 93.1371 124 60C124 26.8629 97.1371 0 64 0C30.8629 0 4 26.8629 4 60C4 93.1371 30.8629 120 64 120Z" fill="#627EEA"/>
<path d="M64 118C96.0325 118 122 92.0325 122 60C122 27.9675 96.0325 2 64 2C31.9675 2 6 27.9675 6 60C6 92.0325 31.9675 118 64 118Z" stroke="black" stroke-opacity="0.097"/>
<path d="M65.9922 12V47.48L95.9802 60.88L65.9922 12Z" fill="white" fill-opacity="0.602"/>
<path d="M65.992 12L36 60.88L65.992 47.48V12Z" fill="white"/>
<path d="M65.9922 83.8728V107.981L96.0002 66.4648L65.9922 83.8728Z" fill="white" fill-opacity="0.602"/>
<path d="M65.992 107.981V83.8688L36 66.4648L65.992 107.981Z" fill="white"/>
<path d="M65.9922 78.2923L95.9802 60.8803L65.9922 47.4883V78.2923Z" fill="white" fill-opacity="0.2"/>
<path d="M36 60.8803L65.992 78.2923V47.4883L36 60.8803Z" fill="white" fill-opacity="0.602"/>
</svg>
