<svg viewBox="0 0 128 128" fill="none" xmlns="http://www.w3.org/2000/svg">
<g clip-path="url(#clip0)">
<path d="M123.997 59.9941C123.997 93.1269 97.1371 119.988 63.9986 119.988C30.8601 119.988 4 93.1269 4 59.9941C4 26.8614 30.8607 6.10352e-05 63.9986 6.10352e-05C97.1364 6.10352e-05 123.997 26.8589 123.997 59.9941Z" fill="white"/>
<path d="M63.9999 0C30.8699 0 4 26.87 4 60C4 93.13 30.8699 120 63.9999 120C97.1298 120 124 93.13 124 60C124.096 26.87 97.2261 0 63.9999 0ZM61.3032 89.5666C58.0288 91.878 54.0802 93.2263 50.1315 93.2263C43.1973 93.2263 36.841 89.4703 32.0256 82.5361C27.6918 75.8909 25.2841 68.1862 25.0914 60.2889C25.0914 60 25.2841 59.7111 25.573 59.6148L30.2921 57.496C30.6773 57.3034 31.0625 57.496 31.2552 57.8812C31.2552 57.9775 31.3515 58.0738 31.3515 58.1701C31.3515 66.0674 33.4702 73.4831 37.2263 78.9727C40.7896 84.1734 45.4124 86.9663 50.2278 86.9663C52.8281 86.9663 55.4285 86.1958 57.5472 84.7512C57.8362 84.5586 58.3177 84.6549 58.5103 84.9438C59.4734 86.1958 60.4365 87.3515 61.4959 88.5072C61.5922 88.7962 61.5922 89.2777 61.3032 89.5666ZM96.0704 82.5361C91.3513 89.374 84.8987 93.2263 77.9645 93.2263C71.0304 93.2263 64.674 89.374 59.8586 82.5361C55.3322 75.9872 52.8281 67.3194 52.8281 58.1701C52.8281 49.695 57.7399 43.0498 63.9036 43.0498C70.0673 43.0498 74.979 49.695 74.979 58.1701C75.0753 65.5859 73.3417 72.809 69.8747 79.3579C69.682 79.7432 69.2005 79.8395 68.9116 79.6469C68.8153 79.6469 68.8153 79.5506 68.719 79.4543C68.1411 78.7801 67.5633 78.1059 67.0817 77.4318C66.5039 76.565 66.0223 75.7945 65.5408 74.8315C65.4445 74.6388 65.4445 74.3499 65.5408 74.1573C67.7559 69.053 68.8153 63.5634 68.8153 58.0738C68.8153 53.9326 66.6965 49.2135 63.9036 49.2135C61.1106 49.2135 58.9919 53.9326 58.9919 58.0738C58.9919 65.9711 61.1106 73.3868 64.8666 78.8764C68.43 84.0771 73.0528 86.87 77.8682 86.87C82.6836 86.87 87.3064 83.9807 90.8698 78.8764C94.6258 73.3868 96.7446 65.9711 96.7446 58.0738C96.7446 50.1766 94.6258 42.7608 90.8698 37.2713C89.8104 35.634 88.4621 34.1894 87.0175 32.9374C86.7286 32.6485 86.7286 32.1669 86.9212 31.878C87.0175 31.7817 87.1138 31.6854 87.2101 31.6854L91.9292 29.5666C92.2181 29.4703 92.507 29.4703 92.6996 29.7592C93.9517 31.0112 95.011 32.3596 95.9741 33.7079C100.501 40.2568 103.005 48.9246 103.005 58.0738C103.005 67.2231 100.597 75.9872 96.0704 82.5361Z" fill="#A566FF"/>
</g>
<path d="M64 118C96.0325 118 122 92.0325 122 60C122 27.9675 96.0325 2 64 2C31.9675 2 6 27.9675 6 60C6 92.0325 31.9675 118 64 118Z" stroke="black" stroke-opacity="0.097"/>
<defs>
<clipPath id="clip0">
<rect width="120" height="120" fill="white" transform="translate(4)"/>
</clipPath>
</defs>
</svg>
