<svg viewBox="0 0 128 128" fill="none" xmlns="http://www.w3.org/2000/svg">
<path d="M64 128C99.3462 128 128 99.3462 128 64C128 28.6538 99.3462 0 64 0C28.6538 0 0 28.6538 0 64C0 99.3462 28.6538 128 64 128Z" fill="#DBF1F1"/>
<path d="M43.4502 31.8999C40.8057 38.9762 39.124 46.3757 38.4502 53.8999C57.2902 52.2899 63.8002 70.9299 65.0002 74.9999C68.2202 75.3099 70.0002 75.3099 70.0002 75.3099C70.0002 75.3099 78.4302 61.2299 70.7702 55.1899C68.8902 42.9999 67.4502 38.3299 64.7802 32.4899C58.6802 31.7599 43.4502 31.8999 43.4502 31.8999Z" fill="#B8E3E1"/>
<path d="M64.9999 49.0701C65.0767 49.1247 65.1419 49.1941 65.1916 49.2742C65.2414 49.3542 65.2747 49.4434 65.2895 49.5365C65.3044 49.6296 65.3006 49.7247 65.2784 49.8163C65.2561 49.9079 65.2159 49.9942 65.1599 50.0701L63.7399 52.0701L68.3399 55.4001C68.4493 55.482 68.5324 55.5942 68.5788 55.7228C68.6252 55.8514 68.6329 55.9908 68.601 56.1237C68.5691 56.2566 68.4989 56.3773 68.3992 56.4709C68.2995 56.5644 68.1746 56.6267 68.0399 56.6501C67.8543 56.6808 67.6641 56.6377 67.5099 56.5301L62.9199 53.2001L61.5399 55.1101C61.4854 55.1872 61.4159 55.2526 61.3354 55.3022C61.255 55.3517 61.1654 55.3845 61.0719 55.3985C60.9785 55.4126 60.8832 55.4075 60.7918 55.3837C60.7003 55.3599 60.6146 55.3179 60.5399 55.2601C60.4616 55.2065 60.3951 55.1374 60.3447 55.057C60.2943 54.9766 60.261 54.8866 60.2469 54.7928C60.2328 54.6989 60.2382 54.6032 60.2629 54.5115C60.2875 54.4198 60.3307 54.3342 60.3899 54.2601L63.9999 49.2601C64.0522 49.1809 64.1199 49.113 64.1988 49.0604C64.2778 49.0078 64.3666 48.9716 64.4598 48.9539C64.553 48.9362 64.6488 48.9373 64.7416 48.9573C64.8344 48.9772 64.9222 49.0156 64.9999 49.0701Z" fill="#48463C"/>
<path d="M71.1501 54.0599C70.0001 42.9999 68.0001 38.9999 65.8301 32.3599L67.0701 31.8999C69.5501 38.6099 71.9201 45.8999 72.4501 53.9799L71.1501 54.0599Z" fill="#48463C"/>
<path d="M103.12 70.6298L97.1201 81.6298H46.1001L21.1001 62.7698C26.0001 56.4698 34.2001 54.0698 40.8601 54.0698C59.8601 54.0698 63.8601 73.6698 63.8601 73.6698H69.2801C70.7984 71.1654 71.6361 68.3077 71.7101 65.3798C74.5101 65.3798 78.4801 65.4598 81.0101 65.4598C82.2201 66.4598 82.8301 67.3398 84.2901 70.1398C88.6501 67.4698 94.0601 67.7098 97.0001 67.9998C97.3221 66.9346 97.8714 65.952 98.6101 65.1198C98.9367 64.7593 99.2912 64.4249 99.6701 64.1198C99.7379 64.4578 99.8247 64.7916 99.9301 65.1198C100.595 67.1601 101.682 69.0375 103.12 70.6298Z" fill="#48463C"/>
<path d="M103.12 70.6302C101.402 68.7973 100.205 66.5399 99.6498 64.0902C98.3679 65.0736 97.4383 66.4452 96.9998 68.0002C94.0798 67.7602 88.6698 67.5202 84.2998 70.1902C82.8398 67.3902 82.2298 66.4802 81.0198 65.5102C78.4898 65.5102 74.5198 65.5102 71.7198 65.4302H68.4298C68.4298 65.4302 66.4298 61.7102 64.5698 58.4302C66.6798 52.3602 69.0998 50.7002 69.0998 50.7002C72.8698 50.7002 90.4398 51.9202 97.2398 54.8902C100.29 57.2773 103.1 59.9567 105.63 62.8902C105.904 64.2873 105.818 65.7313 105.379 67.0857C104.939 68.4401 104.162 69.6601 103.12 70.6302Z" fill="#FDC358"/>
<path d="M101.06 63.3501C101.06 63.3501 100.44 64.3001 100.34 64.4501C100.24 64.6001 100.03 64.9501 99.9099 65.1301C99.8045 64.8019 99.7177 64.468 99.6499 64.1301C99.2709 64.4352 98.9165 64.7695 98.5899 65.1301C98.2037 64.1196 97.4745 63.2771 96.5299 62.7501C88.9999 58.8801 78.8299 57.0001 66.3699 57.1701C66.2416 57.1701 66.1185 57.1199 66.0269 57.0301C65.9353 56.9404 65.8825 56.8183 65.8799 56.6901C65.8823 56.5626 65.9334 56.4409 66.0226 56.3498C66.1118 56.2587 66.2325 56.2052 66.3599 56.2001C78.9999 56.0001 89.2499 57.9401 96.9999 61.8201C98.3199 62.4601 99.4499 63.6001 101.06 63.3501Z" fill="#FDD58C"/>
<path d="M73.3899 77.0698H66.4899C65.8768 77.0698 65.3799 77.5668 65.3799 78.1798V78.5098C65.3799 79.1229 65.8768 79.6198 66.4899 79.6198H73.3899C74.0029 79.6198 74.4999 79.1229 74.4999 78.5098V78.1798C74.4999 77.5668 74.0029 77.0698 73.3899 77.0698Z" fill="#FDC358"/>
<path d="M71.21 32.3101C70.4055 33.4142 69.3848 34.343 68.21 35.0401C65.2675 34.2338 62.2531 33.718 59.21 33.5001C53.6222 33.0385 48.0101 32.9449 42.41 33.2201C39.41 33.4201 37.25 31.1401 36 29.0601C35.6036 28.3814 35.269 27.6686 35 26.9301C56.76 24.5601 67.39 27.9301 69.88 29.9301C72.14 31.7301 71.21 32.3101 71.21 32.3101Z" fill="#FDC358"/>
<path d="M55.7701 29.2401C49.2169 28.3079 42.5691 28.2474 36.0001 29.0601C36.8083 30.4891 37.9728 31.6846 39.3801 32.5301C37.0732 39.4038 35.5469 46.5152 34.8301 53.7301H37.7601C38.4677 46.7511 39.9605 39.8743 42.2101 33.2301H42.4101C44.0201 33.1201 47.1801 33.0301 50.8701 33.0901C48.1376 39.975 46.5304 47.2547 46.1101 54.6501H48.0001C48.4212 47.2568 50.0775 39.9863 52.9001 33.1401C54.9001 33.2101 57.0801 33.3201 59.1601 33.5101C58.4301 31.9101 57.2201 29.8801 55.7701 29.2401Z" fill="#48463C"/>
<path d="M64.1501 77.0601C63.7908 77.0598 63.4442 76.927 63.1767 76.6872C62.9092 76.4473 62.7395 76.1173 62.7001 75.7601C62.2488 71.4087 60.5508 67.28 57.8101 63.8701C55.6628 61.2081 52.9514 59.0558 49.8716 57.5686C46.7917 56.0814 43.4201 55.2964 40.0001 55.2701C36.4836 55.2895 33.0177 56.1101 29.8658 57.6696C26.7139 59.2291 23.9589 61.4864 21.8101 64.2701C21.6939 64.4211 21.5491 64.5478 21.3839 64.6428C21.2187 64.7379 21.0365 64.7995 20.8475 64.8241C20.6585 64.8487 20.4666 64.8358 20.2826 64.7863C20.0986 64.7367 19.9261 64.6513 19.7751 64.5351C19.6241 64.4189 19.4974 64.2741 19.4024 64.1089C19.3073 63.9437 19.2457 63.7615 19.2211 63.5725C19.1714 63.1909 19.2754 62.8051 19.5101 62.5001C21.9281 59.3622 25.0311 56.8183 28.5822 55.0627C32.1334 53.3071 36.0387 52.3861 40.0001 52.3701C43.8588 52.3909 47.6645 53.2704 51.1411 54.9447C54.6177 56.619 57.678 59.0462 60.1001 62.0501C63.1954 65.8901 65.1126 70.5442 65.6201 75.4501C65.6409 75.6399 65.624 75.832 65.5704 76.0153C65.5167 76.1986 65.4274 76.3695 65.3075 76.5181C65.1877 76.6668 65.0396 76.7903 64.8719 76.8816C64.7041 76.9729 64.52 77.0302 64.3301 77.0501L64.1501 77.0601Z" fill="#FDC358"/>
<path d="M50.36 56.5801C50.4996 56.4059 50.5968 56.2017 50.644 55.9835C50.6911 55.7653 50.6869 55.5391 50.6316 55.3228C50.5763 55.1066 50.4715 54.9061 50.3254 54.7373C50.1794 54.5685 49.9961 54.4359 49.79 54.3501C46.6808 53.0417 43.3433 52.362 39.97 52.3501C36.0295 52.3598 32.1427 53.265 28.6034 54.9974C25.0642 56.7298 21.9649 59.2441 19.54 62.3501C19.3108 62.6393 19.1954 63.0025 19.2157 63.371C19.2359 63.7395 19.3904 64.0878 19.65 64.3501C19.7985 64.4857 19.9736 64.589 20.1641 64.6534C20.3547 64.7177 20.5565 64.7417 20.7568 64.7238C20.9571 64.706 21.1515 64.6466 21.3277 64.5496C21.5038 64.4525 21.6579 64.3199 21.78 64.1601C23.9288 61.3764 26.6838 59.119 29.8357 57.5596C32.9876 56.0001 36.4535 55.1795 39.97 55.1601C42.9597 55.1944 45.913 55.8197 48.66 57.0001C48.9487 57.1207 49.2689 57.1439 49.572 57.0663C49.8751 56.9888 50.1447 56.8146 50.34 56.5701L50.36 56.5801Z" fill="#FDD58C"/>
<path d="M65.5498 75C65.0484 70.9062 63.5702 66.9929 61.2398 63.59C61.1344 63.4324 60.9985 63.2975 60.8402 63.1933C60.6818 63.0891 60.5042 63.0176 60.3178 62.9832C60.1314 62.9487 59.94 62.9519 59.7549 62.9925C59.5697 63.0332 59.3946 63.1105 59.2398 63.22C59.0809 63.3239 58.9444 63.4585 58.838 63.6158C58.7317 63.7731 58.6578 63.9499 58.6205 64.1361C58.5833 64.3223 58.5835 64.514 58.6212 64.7001C58.6588 64.8862 58.7331 65.0629 58.8398 65.22C60.9858 68.3561 62.3128 71.9796 62.6998 75.76C62.7392 76.1171 62.9089 76.4472 63.1764 76.687C63.4439 76.9269 63.7905 77.0597 64.1498 77.06C64.4053 77.0606 64.6553 76.9848 64.8673 76.8422C65.0794 76.6997 65.244 76.4969 65.3398 76.26C65.5358 75.8709 65.6091 75.4315 65.5498 75Z" fill="#FDD58C"/>
<path d="M75.85 84.1398H75.76C75.5072 84.1072 75.2764 83.9794 75.1147 83.7824C74.953 83.5854 74.8726 83.3341 74.89 83.0798C75.81 73.5998 85 65.8598 94.61 66.5198C94.7591 66.4953 94.9119 66.5049 95.0568 66.5479C95.2016 66.5909 95.3349 66.6661 95.4465 66.768C95.5581 66.8699 95.6452 66.9958 95.7011 67.1362C95.7571 67.2765 95.7805 67.4278 95.7696 67.5785C95.7588 67.7292 95.7139 67.8755 95.6383 68.0064C95.5628 68.1373 95.4585 68.2494 95.3335 68.3342C95.2084 68.419 95.0657 68.4744 94.9162 68.4961C94.7666 68.5179 94.6141 68.5054 94.47 68.4598C85.89 67.8598 77.64 74.7798 76.81 83.2598C76.7815 83.4969 76.669 83.7161 76.4929 83.8775C76.3168 84.0389 76.0888 84.1319 75.85 84.1398Z" fill="#A5A19B"/>
<path d="M101 85.3698C100.929 87.3181 100.105 89.1629 98.7014 90.5161C97.298 91.8693 95.4244 92.6254 93.4748 92.6254C91.5252 92.6254 89.6517 91.8693 88.2482 90.5161C86.8448 89.1629 86.0209 87.3181 85.9498 85.3698C85.913 84.3585 86.0803 83.3502 86.4419 82.405C86.8034 81.4599 87.3518 80.5973 88.0542 79.8688C88.7566 79.1403 89.5986 78.5609 90.53 78.1652C91.4613 77.7694 92.4629 77.5654 93.4748 77.5654C94.4868 77.5654 95.4883 77.7694 96.4197 78.1652C97.351 78.5609 98.1931 79.1403 98.8955 79.8688C99.5979 80.5973 100.146 81.4599 100.508 82.405C100.869 83.3502 101.037 84.3585 101 85.3698Z" fill="#FDC358"/>
<path d="M93.48 87.3199C94.5625 87.3199 95.44 86.4424 95.44 85.3599C95.44 84.2774 94.5625 83.3999 93.48 83.3999C92.3975 83.3999 91.52 84.2774 91.52 85.3599C91.52 86.4424 92.3975 87.3199 93.48 87.3199Z" fill="#48463C"/>
<path d="M107.26 92.56L107.21 92.65L106.65 93.65C106.506 93.8981 106.269 94.0793 105.992 94.1542C105.715 94.2291 105.42 94.1916 105.17 94.05L104.44 93.62C103.947 94.2696 103.398 94.8752 102.8 95.43L103.3 96.12C103.384 96.2349 103.444 96.3651 103.477 96.5032C103.51 96.6412 103.515 96.7845 103.493 96.9248C103.471 97.065 103.421 97.1995 103.347 97.3205C103.273 97.4415 103.175 97.5467 103.06 97.63L102.16 98.29C101.926 98.4567 101.635 98.5249 101.351 98.48C101.067 98.4352 100.812 98.2808 100.64 98.05L100.14 97.36C99.4283 97.7598 98.6819 98.0945 97.91 98.36L98.09 99.18C98.1493 99.4624 98.0941 99.7568 97.9367 99.9986C97.7792 100.24 97.5323 100.41 97.25 100.47L96.16 100.7C96.0214 100.731 95.878 100.734 95.7383 100.708C95.5986 100.683 95.4652 100.63 95.3461 100.553C95.227 100.476 95.1244 100.376 95.0444 100.258C94.9644 100.141 94.9085 100.009 94.88 99.87L94.7 99C94.3 99 93.89 99 93.48 99C93.07 99 92.66 99 92.25 98.94L92.08 99.77C92.02 100.052 91.8505 100.299 91.6086 100.457C91.3668 100.614 91.0724 100.669 90.79 100.61L89.7 100.38C89.4196 100.318 89.1751 100.147 89.0197 99.9057C88.8643 99.6642 88.8105 99.371 88.87 99.09L89.05 98.26C88.2732 97.9988 87.5231 97.664 86.81 97.26L86.32 97.95C86.1483 98.1808 85.8931 98.3352 85.609 98.38C85.3248 98.4249 85.0344 98.3567 84.8 98.19L83.9 97.54C83.6692 97.3683 83.5148 97.1131 83.47 96.8289C83.4251 96.5448 83.4933 96.2544 83.66 96.02L84.16 95.33C83.5626 94.7777 83.017 94.1718 82.53 93.52L81.79 93.94C81.5415 94.0825 81.247 94.1214 80.97 94.0484C80.6931 93.9755 80.456 93.7964 80.31 93.55L79.75 92.55C79.6785 92.4267 79.6322 92.2905 79.6136 92.1492C79.5951 92.0079 79.6047 91.8643 79.6418 91.7267C79.679 91.5891 79.7431 91.4603 79.8303 91.3476C79.9175 91.2349 80.0262 91.1405 80.15 91.07L80.88 90.64C80.563 89.8899 80.3121 89.1137 80.13 88.32L79.29 88.41C79.1457 88.4251 78.9999 88.411 78.8612 88.3685C78.7224 88.326 78.5937 88.256 78.4826 88.1627C78.3716 88.0694 78.2805 87.9546 78.2147 87.8253C78.149 87.696 78.11 87.5547 78.1 87.41L78 86.42C77.9863 86.2765 78.0015 86.1317 78.0446 85.9942C78.0878 85.8566 78.158 85.7291 78.2512 85.6191C78.3444 85.5092 78.4587 85.419 78.5873 85.3539C78.7159 85.2887 78.8562 85.25 79 85.24L79.84 85.15C79.8502 84.3336 79.9372 83.52 80.1 82.72L79.29 82.45C79.1548 82.407 79.0294 82.3375 78.9213 82.2455C78.8132 82.1536 78.7244 82.0411 78.6602 81.9145C78.596 81.7879 78.5576 81.6498 78.5473 81.5083C78.5369 81.3667 78.5549 81.2246 78.6 81.09L78.89 80C78.9794 79.7281 79.1722 79.5024 79.4266 79.3714C79.6811 79.2404 79.9768 79.2148 80.25 79.3L81.06 79.57C81.3396 79.0272 81.6535 78.5028 82 78L85.43 80C84.6968 81.1085 84.1982 82.3552 83.9649 83.6636C83.7315 84.972 83.7684 86.3143 84.0733 87.6079C84.3782 88.9014 84.9446 90.1189 85.7376 91.1854C86.5306 92.2519 87.5335 93.1448 88.6846 93.8092C89.8356 94.4736 91.1104 94.8954 92.4306 95.0486C93.7507 95.2018 95.0883 95.0833 96.3609 94.7002C97.6335 94.3172 98.8143 93.6777 99.8305 92.8212C100.847 91.9647 101.677 90.9094 102.27 89.72L107.26 92.56Z" fill="#48463C"/>
<path d="M109 86.4399L108.89 87.5499C108.88 87.6946 108.841 87.8359 108.775 87.9652C108.71 88.0945 108.619 88.2093 108.507 88.3026C108.396 88.3959 108.268 88.4659 108.129 88.5084C107.99 88.5509 107.844 88.565 107.7 88.5499L106.85 88.4699C106.673 89.2649 106.422 90.0416 106.1 90.7899L106.83 91.2099C107.062 91.3463 107.236 91.5632 107.319 91.8194C107.402 92.0756 107.388 92.3533 107.28 92.5999L102.28 89.6999C102.94 88.3662 103.282 86.8979 103.28 85.4099C103.285 83.3183 102.616 81.2808 101.372 79.5989C100.129 77.917 98.3772 76.68 96.3762 76.0709C94.3753 75.4619 92.2314 75.5132 90.2618 76.2172C88.2923 76.9212 86.6016 78.2405 85.4401 79.9799L82.0001 77.9999L82.3301 77.5199L81.6901 76.9499C81.4802 76.757 81.3551 76.489 81.342 76.2043C81.3289 75.9196 81.4288 75.6412 81.6201 75.4299L82.3601 74.5899C82.5533 74.3779 82.8223 74.2507 83.1087 74.2357C83.3951 74.2208 83.6758 74.3193 83.8901 74.5099L84.5301 75.0799C85.1535 74.5455 85.8228 74.067 86.5301 73.6499L86.1901 72.8699C86.1319 72.7399 86.0999 72.5998 86.096 72.4574C86.0922 72.3151 86.1165 72.1734 86.1676 72.0405C86.2187 71.9076 86.2956 71.7861 86.3939 71.683C86.4921 71.5799 86.6098 71.4973 86.7401 71.4399L87.7401 70.9899C87.87 70.9316 88.0102 70.8997 88.1526 70.8958C88.2949 70.892 88.4366 70.9163 88.5695 70.9674C88.7024 71.0185 88.8239 71.0954 88.927 71.1937C89.03 71.2919 89.1127 71.4096 89.1701 71.5399L89.5101 72.3099C90.2901 72.0715 91.09 71.9041 91.9001 71.8099V70.9599C91.9001 70.6735 92.0139 70.3988 92.2164 70.1962C92.419 69.9937 92.6937 69.8799 92.9801 69.8799H94.1001C94.3865 69.8799 94.6612 69.9937 94.8638 70.1962C95.0663 70.3988 95.1801 70.6735 95.1801 70.9599V71.8099C95.9905 71.9075 96.7904 72.0782 97.5701 72.3199L97.9201 71.5499C98.038 71.3007 98.2458 71.1054 98.5019 71.0034C98.7579 70.9013 99.0432 70.9001 99.3001 70.9999L100.3 71.4599C100.43 71.5182 100.546 71.6015 100.643 71.705C100.741 71.8085 100.816 71.9301 100.867 72.0629C100.917 72.1957 100.94 72.3371 100.936 72.479C100.931 72.6209 100.899 72.7606 100.84 72.8899L100.5 73.6599C101.205 74.0842 101.874 74.5658 102.5 75.0999L103.13 74.5399C103.236 74.4443 103.359 74.3705 103.493 74.3227C103.627 74.2749 103.77 74.2542 103.912 74.2616C104.054 74.2691 104.193 74.3045 104.322 74.366C104.45 74.4275 104.565 74.5138 104.66 74.6199L105.4 75.4399C105.496 75.5454 105.57 75.6688 105.617 75.8029C105.665 75.9371 105.686 76.0793 105.678 76.2215C105.671 76.3637 105.635 76.5031 105.574 76.6315C105.512 76.7599 105.426 76.8749 105.32 76.9699L104.69 77.5399C105.162 78.207 105.57 78.9167 105.91 79.6599L106.72 79.3999C106.855 79.3547 106.997 79.3368 107.138 79.3471C107.28 79.3575 107.418 79.3959 107.545 79.4601C107.671 79.5243 107.784 79.6131 107.876 79.7212C107.968 79.8293 108.037 79.9546 108.08 80.0899L108.43 81.1499C108.516 81.4231 108.492 81.7192 108.363 81.975C108.234 82.2308 108.011 82.4263 107.74 82.5199L106.92 82.7799C107.078 83.5807 107.165 84.3938 107.18 85.2099L108.02 85.2999C108.301 85.3229 108.561 85.4554 108.744 85.6688C108.927 85.8822 109.019 86.1592 109 86.4399Z" fill="#68635A"/>
<path d="M103.23 85.3699C103.232 86.8579 102.89 88.3262 102.23 89.6599L100.31 88.5499C101.115 86.841 101.249 84.8918 100.684 83.0889C100.119 81.2861 98.8978 79.7614 97.2614 78.8173C95.625 77.8733 93.6935 77.5788 91.8501 77.9923C90.0067 78.4059 88.3862 79.4973 87.3099 81.0499L85.3799 79.9399C86.5414 78.2005 88.2321 76.8812 90.2016 76.1772C92.1712 75.4732 94.3151 75.4219 96.316 76.0309C98.317 76.64 100.069 77.877 101.312 79.5589C102.555 81.2408 103.224 83.2783 103.22 85.3699H103.23Z" fill="#48463C"/>
<path d="M102.23 89.6599C101.637 90.8493 100.807 91.9047 99.7904 92.7612C98.7741 93.6177 97.5934 94.2571 96.3208 94.6402C95.0481 95.0232 93.7106 95.1418 92.3904 94.9885C91.0703 94.8353 89.7954 94.4135 88.6444 93.7491C87.4934 93.0848 86.4905 92.1918 85.6974 91.1254C84.9044 90.0589 84.338 88.8414 84.0332 87.5478C83.7283 86.2542 83.6914 84.9119 83.9247 83.6036C84.158 82.2952 84.6566 81.0484 85.3899 79.9399L87.3199 81.0499C86.7266 81.9058 86.3173 82.8754 86.1178 83.8975C85.9184 84.9196 85.9331 85.972 86.1611 86.9881C86.389 88.0042 86.8253 88.962 87.4422 89.801C88.0592 90.6399 88.8435 91.3417 89.7455 91.8621C90.6475 92.3825 91.6477 92.7102 92.6828 92.8244C93.7179 92.9385 94.7654 92.8368 95.7592 92.5255C96.753 92.2142 97.6714 91.7002 98.4564 91.0159C99.2414 90.3316 99.8759 89.4919 100.32 88.5499L102.23 89.6599Z" fill="#68635A"/>
<path d="M61.55 80.6599L61.39 82.2099C61.3471 82.6128 61.1462 82.9823 60.8312 83.2373C60.5163 83.4923 60.113 83.6119 59.71 83.5699L58.53 83.4499C58.2705 84.5681 57.9158 85.6621 57.47 86.7199L58.47 87.3099C58.7761 87.4877 59.0106 87.7668 59.1329 88.0991C59.2553 88.4314 59.2577 88.7959 59.14 89.1299L51.05 84.4599C52.3977 81.6083 52.6241 78.3542 51.6844 75.3434C50.7446 72.3326 48.7073 69.7852 45.9768 68.2065C43.2463 66.6279 40.022 66.1334 36.9439 66.8213C33.8658 67.5091 31.1588 69.329 29.36 71.9199L23.64 68.6199L24.02 68.0599L23.13 67.2599C22.8299 66.9927 22.6478 66.6177 22.6234 66.2167C22.599 65.8157 22.7344 65.4213 23 65.1199L24.07 63.9999C24.2031 63.8505 24.3643 63.7289 24.5445 63.642C24.7247 63.5551 24.9203 63.5046 25.1201 63.4935C25.3198 63.4823 25.5198 63.5107 25.7085 63.577C25.8973 63.6433 26.0711 63.7462 26.22 63.8799L27.11 64.6899C27.9726 63.9384 28.9033 63.2688 29.89 62.6899L29.4 61.5999C29.2387 61.2311 29.2303 60.8135 29.3765 60.4386C29.5228 60.0637 29.8117 59.7621 30.18 59.5999L31.61 58.9599C31.9778 58.8007 32.3933 58.7922 32.7673 58.9362C33.1413 59.0802 33.4439 59.3652 33.61 59.7299L34.09 60.8199C35.1904 60.4478 36.3214 60.1734 37.47 59.9999V58.8399C37.47 58.6394 37.5096 58.4409 37.5866 58.2559C37.6636 58.0708 37.7765 57.9028 37.9187 57.7615C38.0609 57.6202 38.2296 57.5085 38.4152 57.4327C38.6008 57.3569 38.7995 57.3185 39 57.3199H40.57C40.9731 57.3199 41.3597 57.48 41.6448 57.7651C41.9298 58.0501 42.09 58.4367 42.09 58.8399V59.9999C43.2298 60.1356 44.3546 60.3766 45.45 60.7199L45.93 59.6299C46.094 59.2634 46.3965 58.9767 46.7712 58.8324C47.1459 58.6881 47.5625 58.698 47.93 58.8599L49.37 59.4999C49.7347 59.666 50.0196 59.9685 50.1636 60.3425C50.3076 60.7165 50.2991 61.1321 50.14 61.4999L49.65 62.5799C50.6321 63.1658 51.5622 63.8349 52.43 64.5799L53.31 63.7799C53.6106 63.5113 54.005 63.3722 54.4076 63.3927C54.8102 63.4133 55.1884 63.592 55.46 63.8899L56.52 65.0599C56.6536 65.2087 56.7565 65.3826 56.8228 65.5713C56.8891 65.76 56.9175 65.96 56.9063 66.1598C56.8952 66.3595 56.8447 66.5551 56.7578 66.7353C56.6709 66.9155 56.5493 67.0768 56.4 67.2099L55.51 68.0099C56.1771 68.9531 56.753 69.9576 57.23 71.0099L58.36 70.6499C58.5516 70.5866 58.754 70.5623 58.9551 70.5785C59.1563 70.5948 59.3521 70.6512 59.5311 70.7444C59.7101 70.8376 59.8686 70.9658 59.9972 71.1213C60.1259 71.2768 60.222 71.4566 60.28 71.6499L60.77 73.1499C60.8303 73.3409 60.8523 73.542 60.8347 73.7416C60.8171 73.9412 60.7601 74.1353 60.6672 74.3128C60.5743 74.4903 60.4471 74.6477 60.2932 74.7759C60.1392 74.9041 59.9614 75.0006 59.77 75.0599L58.64 75.4299C58.8574 76.5609 58.9778 77.7084 59 78.8599L60.2 78.9999C60.5973 79.0452 60.9611 79.2444 61.2134 79.5546C61.4657 79.8649 61.5865 80.2616 61.55 80.6599Z" fill="#68635A"/>
<path d="M59.1701 89.1301C59.1385 89.2203 59.0983 89.3074 59.0501 89.3901L58.2701 90.7501C58.1698 90.9229 58.0364 91.0742 57.8775 91.1954C57.7186 91.3166 57.5374 91.4053 57.3442 91.4564C57.151 91.5075 56.9496 91.52 56.7516 91.4931C56.5536 91.4663 56.3628 91.4007 56.1901 91.3001L55.1901 90.7101C54.4986 91.625 53.7291 92.4781 52.8901 93.2601L53.6001 94.2601C53.8363 94.588 53.933 94.9961 53.8693 95.3952C53.8056 95.7943 53.5866 96.1519 53.2601 96.3901L52.0001 97.2701C51.6722 97.5062 51.2641 97.603 50.865 97.5393C50.466 97.4756 50.1083 97.2566 49.8701 96.9301L49.1701 95.9301C48.158 96.5026 47.0972 96.9844 46.0001 97.3701L46.2501 98.5301C46.3331 98.9239 46.2566 99.3345 46.0373 99.672C45.8179 100.009 45.4737 100.246 45.0801 100.33L43.5401 100.66C43.1463 100.743 42.7357 100.667 42.3983 100.447C42.0608 100.228 41.8242 99.8837 41.7401 99.4901L41.4901 98.3201C40.9301 98.3701 40.3601 98.4001 39.7801 98.4001C39.2001 98.4001 38.6201 98.4001 38.0501 98.3201L37.8101 99.4801C37.7261 99.8763 37.4883 100.223 37.149 100.444C36.8097 100.665 36.3966 100.743 36.0001 100.66L34.4701 100.33C34.274 100.291 34.0876 100.213 33.922 100.101C33.7564 99.9885 33.615 99.8443 33.5059 99.6766C33.3969 99.5088 33.3226 99.321 33.2872 99.1241C33.2519 98.9272 33.2563 98.7252 33.3001 98.5301L33.5401 97.3601C32.449 97.0001 31.3916 96.545 30.3801 96.0001L29.6801 97.0001C29.4438 97.3259 29.0879 97.5447 28.6904 97.6084C28.293 97.6722 27.8865 97.5756 27.5601 97.3401L26.2901 96.4201C26.1207 96.298 25.9781 96.1426 25.871 95.9633C25.7639 95.7841 25.6947 95.5848 25.6675 95.3778C25.6403 95.1707 25.6558 94.9603 25.713 94.7595C25.7702 94.5587 25.8679 94.3717 26.0001 94.2101L26.7101 93.2101C25.8659 92.4304 25.0928 91.577 24.4001 90.6601L23.4001 91.2601C23.2277 91.3601 23.0371 91.4249 22.8394 91.4509C22.6418 91.4768 22.4409 91.4634 22.2485 91.4113C22.056 91.3593 21.8758 91.2696 21.7182 91.1475C21.5606 91.0255 21.4287 90.8734 21.3301 90.7001L20.5401 89.3401C20.3382 89.0049 20.2733 88.6047 20.3589 88.2228C20.4446 87.8409 20.6743 87.5068 21.0001 87.2901L22.0001 86.7001C21.5703 85.642 21.2356 84.5476 21.0001 83.4301L19.8201 83.5501C19.4186 83.5922 19.0168 83.4739 18.7021 83.2211C18.3874 82.9682 18.1854 82.6012 18.1401 82.2001L18.0001 80.6401C17.9684 80.2497 18.0877 79.8621 18.3332 79.557C18.5788 79.2519 18.932 79.0525 19.3201 79.0001L20.5201 78.8801C20.5296 77.7316 20.6468 76.5866 20.8701 75.4601L19.7401 75.0901C19.5487 75.0308 19.3709 74.9343 19.2169 74.8061C19.063 74.6779 18.9358 74.5206 18.8429 74.343C18.75 74.1655 18.6931 73.9714 18.6754 73.7718C18.6578 73.5722 18.6798 73.3711 18.7401 73.1801L19.2301 71.6801C19.287 71.4871 19.3821 71.3076 19.5097 71.1522C19.6374 70.9967 19.795 70.8686 19.9732 70.7753C20.1514 70.682 20.3465 70.6255 20.547 70.6091C20.7475 70.5928 20.9492 70.6169 21.1401 70.6801L22.3001 71.0001C22.6872 70.1618 23.135 69.353 23.6401 68.5801L29.3601 71.8801C28.4209 73.3095 27.7833 74.9155 27.4863 76.5998C27.1893 78.2842 27.2391 80.0114 27.6328 81.6758C28.0264 83.3403 28.7556 84.9068 29.7757 86.2797C30.7958 87.6525 32.0853 88.8027 33.5653 89.66C35.0453 90.5172 36.6847 91.0633 38.3831 91.265C40.0815 91.4667 41.8032 91.3196 43.4428 90.8329C45.0824 90.3461 46.6054 89.5298 47.9187 88.434C49.2319 87.3383 50.3076 85.986 51.0801 84.4601L59.1701 89.1301Z" fill="#48463C"/>
<path d="M51.08 84.4599C50.3232 86.0087 49.2559 87.3852 47.9445 88.504C46.6331 89.6228 45.1056 90.4599 43.4569 90.9632C41.8083 91.4666 40.0737 91.6255 38.361 91.4301C36.6483 91.2346 34.9942 90.689 33.5013 89.8271C32.0085 88.9652 30.7089 87.8054 29.6832 86.42C28.6576 85.0345 27.9279 83.4528 27.5395 81.7734C27.1511 80.0939 27.1123 78.3525 27.4255 76.6574C27.7387 74.9623 28.3972 73.3497 29.36 71.9199L32.13 73.5199C31.3607 74.5849 30.8234 75.7995 30.5529 77.0851C30.2824 78.3708 30.2848 79.6989 30.5597 80.9836C30.8347 82.2683 31.3762 83.481 32.1492 84.5433C32.9222 85.6056 33.9095 86.4939 35.0473 87.1507C36.1852 87.8075 37.4482 88.2183 38.7547 88.3564C40.0612 88.4945 41.3822 88.3569 42.6322 87.9525C43.8822 87.5481 45.0334 86.8859 46.0114 86.0086C46.9895 85.1314 47.7725 84.0587 48.31 82.8599L51.08 84.4599Z" fill="#68635A"/>
<path d="M52.3299 79.0002C52.3336 80.8979 51.9062 82.7717 51.0799 84.4802L48.3099 82.8802C48.8662 81.6625 49.1527 80.3389 49.1499 79.0002C49.1478 77.0156 48.5163 75.0828 47.3462 73.4798C46.1761 71.8768 44.5278 70.6863 42.6382 70.0794C40.7487 69.4725 38.7154 69.4806 36.8307 70.1025C34.946 70.7243 33.3072 71.9279 32.1499 73.5402L29.3799 71.9402C30.8852 69.7021 33.0706 68.0077 35.613 67.1071C38.1554 66.2065 40.9201 66.1476 43.4985 66.9391C46.077 67.7306 48.3325 69.3305 49.9318 71.5024C51.5311 73.6742 52.3894 76.303 52.3799 79.0002H52.3299Z" fill="#48463C"/>
<path d="M49.1501 78.9999C49.153 80.3386 48.8664 81.6622 48.3101 82.8799C47.352 84.9901 45.6474 86.6715 43.5241 87.6005C41.4009 88.5295 39.0091 88.6405 36.809 87.9121C34.6089 87.1838 32.7558 85.6675 31.6064 83.655C30.457 81.6426 30.0924 79.2762 30.5827 77.0111C31.0731 74.746 32.3838 72.7423 34.2627 71.3854C36.1416 70.0286 38.4558 69.4145 40.7602 69.6613C43.0646 69.9082 45.1963 70.9985 46.7452 72.7225C48.294 74.4465 49.1506 76.6823 49.1501 78.9999Z" fill="#FDC358"/>
<path d="M39.7599 76.9199C40.1693 76.918 40.5701 77.0374 40.9116 77.2633C41.2531 77.4891 41.52 77.8111 41.6785 78.1886C41.837 78.566 41.88 78.982 41.8021 79.3839C41.7241 79.7859 41.5288 80.1557 41.2407 80.4465C40.9526 80.7374 40.5847 80.9364 40.1836 81.0182C39.7824 81.1 39.366 81.061 38.987 80.9062C38.608 80.7513 38.2835 80.4876 38.0544 80.1483C37.8253 79.809 37.7019 79.4093 37.6999 78.9999C37.7026 78.4544 37.9204 77.932 38.3062 77.5462C38.692 77.1605 39.2144 76.9426 39.7599 76.9399V76.9199ZM39.7599 72.9399C38.559 72.94 37.385 73.2962 36.3866 73.9636C35.3882 74.631 34.6102 75.5796 34.151 76.6894C33.6919 77.7991 33.5723 79.0201 33.8073 80.1978C34.0423 81.3756 34.6214 82.4571 35.4713 83.3056C36.3212 84.1541 37.4038 84.7315 38.5819 84.9645C39.76 85.1976 40.9808 85.076 42.0898 84.615C43.1987 84.1541 44.146 83.3745 44.8118 82.375C45.4776 81.3755 45.8319 80.2009 45.8299 78.9999C45.8299 78.2033 45.6729 77.4145 45.3677 76.6786C45.0625 75.9427 44.6153 75.2742 44.0515 74.7113C43.4877 74.1485 42.8185 73.7023 42.0821 73.3984C41.3457 73.0944 40.5566 72.9386 39.7599 72.9399Z" fill="#48463C"/>
<path d="M39.7598 80.92C40.8313 80.92 41.6998 80.0515 41.6998 78.98C41.6998 77.9086 40.8313 77.04 39.7598 77.04C38.6884 77.04 37.8198 77.9086 37.8198 78.98C37.8198 80.0515 38.6884 80.92 39.7598 80.92Z" fill="#48463C"/>
<path d="M97.212 82.8811C97.5596 82.5336 97.4456 81.8561 96.9575 81.3679C96.4693 80.8798 95.7918 80.7658 95.4443 81.1134C95.0967 81.4609 95.2107 82.1384 95.6988 82.6266C96.187 83.1147 96.8645 83.2287 97.212 82.8811Z" fill="#FDD58C"/>
<path d="M45.8424 74.5095C46.19 74.162 46.076 73.4845 45.5878 72.9963C45.0997 72.5082 44.4222 72.3942 44.0746 72.7418C43.7271 73.0893 43.841 73.7668 44.3292 74.255C44.8174 74.7431 45.4948 74.8571 45.8424 74.5095Z" fill="#FDD58C"/>
<path d="M42.5591 77.3053C42.8129 77.0515 42.7306 76.5576 42.3752 76.2023C42.0198 75.8469 41.526 75.7646 41.2721 76.0184C41.0183 76.2723 41.1006 76.7661 41.456 77.1215C41.8113 77.4769 42.3052 77.5592 42.5591 77.3053Z" fill="#FDD58C"/>
<path d="M81.0801 42.8301C80.2001 43.4301 78.3501 44.6601 78.3501 44.6601V47.8301C77.9327 47.352 77.4178 46.969 76.8399 46.7068C76.262 46.4446 75.6346 46.3093 75.0001 46.3101H74.8101V42.5901C76.4721 40.5369 78.3645 38.6814 80.4501 37.0601C80.137 37.8661 79.9841 38.7255 80.0001 39.5901C80.0001 41.2901 80.5001 42.6901 81.0801 42.8301Z" fill="#A5A19B"/>
<path d="M81.3201 42.6001C81.8338 42.6001 82.2501 41.2525 82.2501 39.5901C82.2501 37.9277 81.8338 36.5801 81.3201 36.5801C80.8065 36.5801 80.3901 37.9277 80.3901 39.5901C80.3901 41.2525 80.8065 42.6001 81.3201 42.6001Z" fill="#A5A19B"/>
<path d="M74.7199 46.6201H75.4099C76.4336 46.6201 77.4154 47.0268 78.1393 47.7507C78.8632 48.4746 79.2699 49.4564 79.2699 50.4801V61.7501H73.8999V47.4401C73.8999 47.2226 73.9863 47.0141 74.1401 46.8603C74.2939 46.7065 74.5024 46.6201 74.7199 46.6201Z" fill="#48463C"/>
<path d="M79.7799 59.1998V68.1398C78.7673 68.5387 77.6883 68.7423 76.5999 68.7398C75.5043 68.7509 74.4171 68.547 73.3999 68.1398V59.1998C74.4131 58.8842 75.4687 58.7257 76.5299 58.7298C77.6307 58.722 78.7264 58.8805 79.7799 59.1998Z" fill="#48463C"/>
<path d="M79.9998 58.5901C78.878 58.2511 77.7116 58.0825 76.5398 58.0901C75.4108 58.0863 74.2878 58.2549 73.2098 58.5901L72.7598 58.7301V68.5501L73.1398 68.7201C74.2389 69.1768 75.4196 69.4048 76.6098 69.3901C77.7716 69.3887 78.9223 69.1647 79.9998 68.7301L80.3998 68.5701V58.7401L79.9998 58.5901ZM73.4098 59.2001C74.423 58.8845 75.4786 58.726 76.5398 58.7301C77.6406 58.7223 78.7362 58.8808 79.7898 59.2001V68.1401C78.7771 68.539 77.6981 68.7426 76.6098 68.7401C75.5141 68.7512 74.427 68.5474 73.4098 68.1401V59.2001Z" fill="#A5A19B"/>
<path d="M99.6499 64.0902C101.83 62.3802 105.65 62.8502 105.65 62.8502C105.984 64.2507 105.929 65.7161 105.49 67.0875C105.051 68.4589 104.245 69.684 103.16 70.6302C101.404 68.819 100.189 66.5542 99.6499 64.0902Z" fill="white"/>
</svg>
