<svg viewBox="0 0 128 128" fill="none" xmlns="http://www.w3.org/2000/svg">
<g clip-path="url(#clip0)">
<path d="M64 -0.000249386C30.8629 -0.000252283 4.00001 26.8627 4.00001 59.9997C4 93.1368 30.8629 120 64 120C97.1371 120 124 93.1368 124 59.9998C124 26.8627 97.1371 -0.000246489 64 -0.000249386Z" fill="#0090FF"/>
<path fill-rule="evenodd" clip-rule="evenodd" d="M69.0256 53.3079L67.3026 62.4514L83.6718 64.7373L82.5231 69.0234L66.441 66.7375C65.2923 70.4521 64.7179 74.4524 63.2821 77.8812C61.8462 81.8815 60.4103 85.8818 58.6872 89.5964C56.3897 94.4539 52.3692 97.8828 46.9128 98.74C43.7538 99.3115 40.3077 99.0257 37.7231 97.0256C36.8615 96.4541 36 95.3112 36 94.4539C36 93.311 36.5744 91.8823 37.4359 91.3108C38.0103 91.0251 39.4462 91.3108 40.3077 91.5966C41.1692 92.4538 42.0308 93.5967 42.6051 94.7397C44.3282 97.0256 46.6256 97.3113 48.9231 95.5969C51.5077 93.311 52.9436 90.1679 53.8051 87.0248C55.5282 80.1671 57.2513 73.5952 58.6872 66.7375V65.5945L43.4667 63.3086L44.041 59.0226L59.8359 61.3085L61.8462 52.4506L45.4769 49.879L46.0513 45.3072L62.9949 47.5931C63.5692 45.8787 63.8564 44.45 64.4308 43.0213C65.8667 37.8781 67.3026 32.7348 70.7487 28.163C74.1949 23.5912 78.2154 20.7339 84.2462 21.0196C86.8308 21.0196 89.4154 21.8768 91.1385 23.877C91.4256 24.1627 92 24.7342 92 25.3057C92 26.4486 92 27.8773 91.1385 28.7345C89.9897 29.5917 88.5538 29.306 87.4051 28.163C86.5436 27.3058 85.9692 26.4486 85.1077 25.5914C83.3846 23.3055 80.8 23.0198 78.7897 25.0199C77.3538 26.4486 75.9179 28.4488 75.0564 30.4489C73.0462 36.4494 71.6103 42.7356 69.6 49.0218L85.3949 51.3077L84.2462 55.5938L69.0256 53.3079Z" fill="white"/>
<path d="M64 118C96.0325 118 122 92.0325 122 60C122 27.9675 96.0325 2 64 2C31.9675 2 6 27.9675 6 60C6 92.0325 31.9675 118 64 118Z" stroke="black" stroke-opacity="0.097"/>
</g>
<defs>
<clipPath id="clip0">
<rect width="128" height="128" fill="white"/>
</clipPath>
</defs>
</svg>
