<svg viewBox="0 0 128 128" fill="none" xmlns="http://www.w3.org/2000/svg">
<g clip-path="url(#clip0)">
<path d="M64 -0.000249386C30.8629 -0.000252283 4.00001 26.8627 4.00001 59.9997C4 93.1368 30.8629 120 64 120C97.1371 120 124 93.1368 124 59.9998C124 26.8627 97.1371 -0.000246489 64 -0.000249386Z" fill="#00EF8B"/>
<path d="M92.4547 49.2314H75.0083V66.6778H92.4547V49.2314Z" fill="white"/>
<path d="M57.5621 73.2357C57.5621 76.824 54.5925 79.7936 51.0043 79.7936C47.416 79.7936 44.4464 76.824 44.4464 73.2357C44.4464 69.6474 47.416 66.6778 51.0043 66.6778H57.5621V49.2314H51.0043C37.7648 49.2314 27 59.9962 27 73.2357C27 86.4752 37.7648 97.24 51.0043 97.24C64.2437 97.24 75.0085 86.4752 75.0085 73.2357V66.6778H57.5621V73.2357Z" fill="white"/>
<path d="M81.5663 40.4464H101.24V23H81.5663C68.3268 23 57.562 33.7648 57.562 47.0043V49.2315H75.0084V47.0043C75.0084 43.416 77.978 40.4464 81.5663 40.4464Z" fill="white"/>
<path d="M64 118C96.0325 118 122 92.0325 122 60C122 27.9675 96.0325 2 64 2C31.9675 2 6 27.9675 6 60C6 92.0325 31.9675 118 64 118Z" stroke="black" stroke-opacity="0.097"/>
</g>
<defs>
<clipPath id="clip0">
<rect width="128" height="128" fill="white"/>
</clipPath>
</defs>
</svg>
