<svg viewBox="0 0 128 128" fill="none" xmlns="http://www.w3.org/2000/svg">
<path d="M64 128C99.3462 128 128 99.3462 128 64C128 28.6538 99.3462 0 64 0C28.6538 0 0 28.6538 0 64C0 99.3462 28.6538 128 64 128Z" fill="black"/>
<path d="M89.0102 65.0498V78.3898L44.3502 104.6L39.0902 101.53L32.9702 97.9498L39.0902 94.3598L89.0102 65.0498Z" fill="#CCA76A"/>
<path d="M108.97 38.0701V89.8201L97.3902 96.5301L89.0102 101.38L63.8302 115.97L52.4902 109.35L89.0102 87.9201L97.3902 82.9901V37.7901L102.89 34.5601L108.97 38.0701Z" fill="#CCA76A"/>
<path d="M89.0098 42.71V55.91L39.0898 85.21V72.02L89.0098 42.71Z" fill="#CCA76A"/>
<path d="M95.6898 30.4098L89.0098 34.3298L39.0898 63.6298L31.0898 68.3298V89.9098L25.1498 93.3998L19.0298 89.8198V37.9598L31.0898 30.9798L39.0898 26.3498L63.8298 12.0298L75.7098 18.8898L39.0898 40.3898L31.0898 45.0798V54.6098L39.0898 49.9098L83.8998 23.6098L89.0098 26.5598L95.6898 30.4098Z" fill="#BDBBBD"/>
</svg>
