<svg viewBox="0 0 128 128" fill="none" xmlns="http://www.w3.org/2000/svg">
<g clip-path="url(#clip0)">
<path d="M64 -0.000127316C30.8629 -0.000130213 4.00001 26.8628 4.00001 59.9999C4 93.137 30.8629 120 64 120C97.1371 120 124 93.137 124 59.9999C124 26.8628 97.1371 -0.000124419 64 -0.000127316Z" fill="#13B5EC"/>
<path fill-rule="evenodd" clip-rule="evenodd" d="M69.392 47.1256L84.5879 38.2613V55.99L69.392 47.1256ZM84.5879 85.1156L64.3266 96.9347L44.0653 85.1156V64.4322L64.3266 76.2513L84.5879 64.4322V85.1156ZM44.0653 38.2613L59.2613 47.1256L44.0653 55.99V38.2613ZM66.8593 51.3467L82.0553 60.2111L66.8593 69.0754V51.3467ZM61.794 69.0754L46.598 60.2111L61.794 51.3467V69.0754ZM82.0553 34.0402L64.3266 44.1709L46.598 34.0402L64.3266 23.4874L82.0553 34.0402ZM39 32.3518V87.6482L64.3266 102L89.6533 87.6482V32.3518L64.3266 18L39 32.3518Z" fill="white"/>
<path d="M64 118C96.0325 118 122 92.0325 122 60C122 27.9675 96.0325 2 64 2C31.9675 2 6 27.9675 6 60C6 92.0325 31.9675 118 64 118Z" stroke="black" stroke-opacity="0.097"/>
</g>
<defs>
<clipPath id="clip0">
<rect width="128" height="128" fill="white"/>
</clipPath>
</defs>
</svg>
