<svg viewBox="0 0 128 128" fill="none" xmlns="http://www.w3.org/2000/svg">
<g clip-path="url(#clip0)">
<path d="M64 -0.000127316C30.8629 -0.000130213 4.00001 26.8628 4.00001 59.9999C4 93.137 30.8629 120 64 120C97.1371 120 124 93.137 124 59.9999C124 26.8628 97.1371 -0.000124419 64 -0.000127316Z" fill="#02A6C2"/>
<g clip-path="url(#clip1)">
<path d="M47.0506 28.0044C65.6978 27.9987 84.3462 27.9987 102.996 28.0044C103.001 34.047 103.001 40.0885 102.996 46.129C84.348 46.1347 65.6996 46.1347 47.0506 46.129C47.0446 40.0864 47.0446 34.0449 47.0506 28.0044Z" fill="white"/>
<path d="M25.0234 52.9479C31.0394 52.9166 37.0565 52.9166 43.0747 52.9479C43.1059 58.979 43.1059 65.0111 43.0747 71.0443C37.0568 71.0753 31.0397 71.0758 25.0234 71.0458C24.9922 65.0137 24.9922 58.9811 25.0234 52.9479Z" fill="white"/>
<path d="M47.0648 52.9479C60.524 52.9192 73.9823 52.9192 87.4397 52.9479C87.4683 58.979 87.4683 65.0111 87.4397 71.0443C73.9807 71.0724 60.5224 71.0724 47.0648 71.0443C47.0367 65.0129 47.0367 58.9808 47.0648 52.9479Z" fill="white"/>
<path d="M47.0816 77.8966C53.0875 77.8312 59.0924 77.8312 65.0962 77.8966C65.1586 83.9136 65.1595 89.9335 65.0989 95.9562C59.093 96.0157 53.0883 96.0146 47.0847 95.9531C47.0223 89.9366 47.0213 83.9178 47.0816 77.8966Z" fill="white"/>
</g>
<path d="M64 118C96.0325 118 122 92.0325 122 60C122 27.9675 96.0325 2 64 2C31.9675 2 6 27.9675 6 60C6 92.0325 31.9675 118 64 118Z" stroke="black" stroke-opacity="0.097"/>
</g>
<defs>
<clipPath id="clip0">
<rect width="128" height="128" fill="white"/>
</clipPath>
<clipPath id="clip1">
<rect width="78" height="68" fill="white" transform="translate(25 28.0001)"/>
</clipPath>
</defs>
</svg>
