<svg viewBox="0 0 128 128" fill="none" xmlns="http://www.w3.org/2000/svg">
<path d="M63.9808 128C99.3165 128 127.962 99.355 127.962 64.0194C127.962 28.6838 99.3165 0.0385742 63.9808 0.0385742C28.6452 0.0385742 0 28.6838 0 64.0194C0 99.355 28.6452 128 63.9808 128Z" fill="white"/>
<path d="M105.722 41.1851V41.5734C105.722 42.2829 105.243 43.0116 104.327 43.5245V43.1458C105.257 42.5945 105.722 41.8898 105.722 41.1851Z" fill="#EA1966"/>
<path d="M22.2827 41.5494V41.1562C22.2827 41.8754 22.7621 42.5945 23.6969 43.1362V43.5245C22.7525 42.978 22.2827 42.2637 22.2827 41.5494Z" fill="#EA1966"/>
<path d="M104.327 43.1362V43.5245L67.5239 64.9154V64.5223L104.327 43.1362Z" fill="#EA1966"/>
<path d="M60.745 64.5223V64.9154L23.7017 43.5245V43.1362L60.745 64.5223Z" fill="#EA1966"/>
<path d="M104.308 39.2101C106.187 40.2936 106.192 42.053 104.308 43.1364L67.5045 64.5225C66.4545 65.0567 65.2932 65.3352 64.1151 65.3352C62.9371 65.3352 61.7757 65.0567 60.7257 64.5225L23.7016 43.146C21.8224 42.0577 21.8128 40.3031 23.7016 39.2197L60.5052 17.8288C61.5552 17.2946 62.7165 17.0161 63.8946 17.0161C65.0726 17.0161 66.234 17.2946 67.2839 17.8288L104.308 39.2101Z" fill="#EA1966"/>
<path d="M67.5239 64.5225V64.9156C66.4739 65.4498 65.3125 65.7283 64.1345 65.7283C62.9564 65.7283 61.7951 65.4498 60.7451 64.9156V64.5225C61.7951 65.0567 62.9564 65.3352 64.1345 65.3352C65.3125 65.3352 66.4739 65.0567 67.5239 64.5225Z" fill="#EA1966"/>
<path d="M104.346 84.854V85.2471C104.346 85.9518 103.867 86.6566 102.956 87.1935V86.8052C103.881 86.2539 104.346 85.5491 104.346 84.854Z" fill="#EA1966"/>
<path d="M23.6582 85.2042V84.8159C23.6582 85.5302 24.1376 86.2541 25.0964 86.791V87.1842C24.128 86.6376 23.6582 85.9233 23.6582 85.2042Z" fill="#EA1966"/>
<path d="M102.956 86.7954L102.951 87.1837L67.5186 107.774L67.5234 107.386L102.956 86.7954Z" fill="#EA1966"/>
<path d="M60.7445 107.386L60.7397 107.774L25.0723 87.1841L25.0771 86.791L60.7445 107.386Z" fill="#EA1966"/>
<path d="M102.932 82.8693C104.811 83.9528 104.821 85.7074 102.932 86.7956L67.5233 107.386C66.4734 107.92 65.312 108.199 64.134 108.199C62.9559 108.199 61.7946 107.92 60.7446 107.386L25.0772 86.7717C23.1979 85.6882 23.1884 83.9336 25.0532 82.8454L60.4857 62.2551C61.5357 61.7209 62.6971 61.4424 63.8751 61.4424C65.0532 61.4424 66.2145 61.7209 67.2645 62.2551L102.932 82.8693Z" fill="#EA1966"/>
<path d="M67.5234 107.386V107.774C66.4738 108.309 65.3123 108.589 64.134 108.589C62.9557 108.589 61.7942 108.309 60.7446 107.774V107.386C61.7946 107.92 62.9559 108.198 64.134 108.198C65.312 108.198 66.4734 107.92 67.5234 107.386Z" fill="#EA1966"/>
<path d="M65.678 107.678L65.3425 107.482C64.7288 107.127 64.3549 106.374 64.3501 105.3L64.6857 105.497C64.6761 106.571 65.0548 107.323 65.678 107.678Z" fill="#BB1452"/>
<path d="M104.567 39.5744L104.902 39.7709C104.284 39.4114 103.431 39.4593 102.505 40.0058L102.165 39.8093C103.071 39.2676 103.948 39.2148 104.567 39.5744Z" fill="#BB1452"/>
<path d="M64.6713 105.497L64.3358 105.3L64.2207 65.6201L64.5611 65.8167L64.6713 105.497Z" fill="#BB1452"/>
<path d="M67.9551 59.9439L67.6147 59.7474L102.146 39.8091L102.486 40.0056L67.9551 59.9439Z" fill="#BB1452"/>
<path d="M102.487 40.0059C104.361 38.9225 105.89 39.7902 105.895 41.9523L106.01 81.6323C105.947 82.8081 105.607 83.9524 105.018 84.9721C104.429 85.9918 103.608 86.858 102.621 87.5001L68.1041 107.438C66.2248 108.522 64.6955 107.654 64.6859 105.497L64.5757 65.8168C64.634 64.6377 64.9707 63.4891 65.5581 62.4651C66.1455 61.441 66.9671 60.5706 67.9555 59.925L102.487 40.0059Z" fill="#BB1452"/>
<path d="M64.5611 65.8168L64.2207 65.6202C64.2815 64.4448 64.6188 63.3004 65.2052 62.2799C65.7917 61.2594 66.6107 60.3918 67.5957 59.7476L67.9361 59.9441C66.9511 60.5884 66.1321 61.456 65.5456 62.4765C64.9592 63.4969 64.6218 64.6414 64.5611 65.8168Z" fill="#BB1452"/>
<path d="M23.1694 39.7042L23.505 39.5077C24.1186 39.1529 24.9432 39.1961 25.902 39.733L25.5616 39.9247C24.6268 39.3926 23.7831 39.3495 23.1694 39.7042Z" fill="#D2165C"/>
<path d="M63.2813 107.774L62.9409 107.971C63.5593 107.611 63.9381 106.844 63.9333 105.756L64.2689 105.56C64.2832 106.648 63.9045 107.415 63.2813 107.774Z" fill="#D2165C"/>
<path d="M25.562 39.9247L25.9024 39.7329L60.7261 59.5417L60.3857 59.7383L25.562 39.9247Z" fill="#D2165C"/>
<path d="M63.8037 65.5965L64.1393 65.3999L64.2783 105.559L63.9427 105.756L63.8037 65.5965Z" fill="#D2165C"/>
<path d="M60.4047 59.7384C61.3952 60.377 62.2211 61.2404 62.815 62.2584C63.409 63.2764 63.7543 64.4201 63.8228 65.5967L63.9618 105.756C63.9618 107.928 62.4517 108.815 60.5724 107.746L25.7296 87.932C24.7399 87.2929 23.915 86.4292 23.3219 85.4113C22.7288 84.3934 22.3843 83.2499 22.3163 82.0737L22.1772 41.9143C22.1772 39.7474 23.6874 38.8557 25.5618 39.9248L60.4047 59.7384Z" fill="#D2165C"/>
<path d="M60.4048 59.7385L60.7452 59.542C61.7351 60.1808 62.5602 61.0444 63.1533 62.0624C63.7465 63.0804 64.0909 64.224 64.1585 65.4003L63.8229 65.5968C63.7544 64.4202 63.4091 63.2765 62.8151 62.2585C62.2212 61.2405 61.3953 60.3771 60.4048 59.7385Z" fill="#D2165C"/>
<path d="M50.9315 71.1097C51.3985 71.4132 51.7871 71.8229 52.0654 72.3053C52.3437 72.7878 52.5038 73.3292 52.5327 73.8854C52.5327 74.9018 51.8088 75.3237 50.9219 74.8011L37.5562 67.0828V74.1683L48.8988 80.7313C49.3652 81.0343 49.7534 81.4432 50.0317 81.9248C50.3099 82.4063 50.4704 82.9468 50.5 83.5022V83.6221C50.5 84.6384 49.7761 85.0603 48.8893 84.5377L37.5227 77.9795V87.0881C37.5227 88.1141 36.794 88.5263 35.9023 88.0134C35.4335 87.7076 35.0433 87.2956 34.7634 86.8109C34.4836 86.3261 34.3219 85.7822 34.2915 85.2233L34.3538 63.9091C34.3538 62.6052 35.2791 62.0826 36.4105 62.7346L50.9315 71.1097Z" fill="white"/>
<path d="M75.1794 41.3002C74.4496 42.1825 73.56 42.9193 72.5571 43.4719C71.7968 43.9119 70.9937 44.2733 70.1601 44.5506C69.2449 44.8514 68.2997 45.0523 67.3412 45.1498C66.3218 45.2599 65.2925 45.2406 64.2779 45.0923C63.6868 45.0095 63.1033 44.8797 62.5328 44.704C62.0176 44.5443 61.5158 44.344 61.0323 44.1047C60.5865 43.8938 60.0735 43.6253 59.5414 43.3041L50.6341 38.1793C49.9006 37.7527 49.8383 37.0959 50.4951 36.7411C50.8936 36.5499 51.3318 36.4563 51.7736 36.468C52.2154 36.4796 52.6481 36.5963 53.0359 36.8082L61.9432 41.9474C62.51 42.2846 63.1051 42.5718 63.7218 42.8055C64.3009 43.0043 64.9073 43.1127 65.5195 43.1267C67.166 43.1068 68.7738 42.6251 70.1601 41.7365C70.8688 41.3741 71.4954 40.8699 72.001 40.2551C72.1581 40.0508 72.248 39.8027 72.2584 39.5452C72.2687 39.2876 72.1988 39.0332 72.0585 38.8169C71.55 38.1222 70.8804 37.5612 70.1074 37.1822L61.2001 32.0382C60.4666 31.6115 60.4043 30.9595 61.0611 30.6C61.4584 30.4126 61.8944 30.3219 62.3335 30.3353C62.7726 30.3486 63.2023 30.4656 63.5875 30.6767L72.4948 35.8159C73.263 36.237 73.9887 36.7315 74.6617 37.2924C75.1402 37.7166 75.4934 38.2637 75.6828 38.8745C75.8211 39.2872 75.8473 39.7292 75.7589 40.1553C75.6705 40.5815 75.4705 40.9766 75.1794 41.3002ZM69.906 44.3061C70.7066 44.041 71.479 43.6974 72.212 43.2801C73.1781 42.7466 74.0352 42.0359 74.7384 41.1852C75.0139 40.8817 75.2035 40.5103 75.2878 40.1092C75.372 39.7082 75.3479 39.2919 75.2178 38.9032C75.0381 38.3304 74.7068 37.8169 74.259 37.4171C73.6027 36.8724 72.8964 36.3909 72.1496 35.9789L63.2472 30.8493C62.967 30.6927 62.6541 30.6042 62.3335 30.5909C62.0128 30.5776 61.6936 30.6398 61.4015 30.7726C60.9221 31.0458 60.994 31.5252 61.5405 31.8416L70.4717 36.9856C71.2925 37.3859 72.0009 37.9839 72.5331 38.7258C72.6848 38.9698 72.76 39.2537 72.7489 39.5408C72.7378 39.8279 72.6409 40.1051 72.4708 40.3366C71.9344 40.9864 71.2724 41.5212 70.5245 41.9091C69.0244 42.8611 67.2865 43.3712 65.5099 43.3808C64.821 43.3622 64.139 43.2393 63.4869 43.0165C62.8441 42.7708 62.2235 42.4708 61.6316 42.12L52.7003 36.976C52.4198 36.8202 52.1067 36.7326 51.7861 36.7201C51.4655 36.7076 51.1464 36.7706 50.8546 36.9041C50.3752 37.187 50.428 37.6664 50.9745 37.9828L59.8818 43.1459C60.4187 43.4575 60.9077 43.726 61.32 43.9321C61.7739 44.1503 62.2434 44.3346 62.7246 44.4834C63.2613 44.6456 63.8093 44.7674 64.3642 44.8478C65.3171 44.9841 66.2833 45.0018 67.2406 44.9005C68.1494 44.8122 69.0452 44.6208 69.9108 44.33" fill="white"/>
<path d="M72.1546 35.9887C72.9014 36.4007 73.6077 36.8822 74.264 37.4269C74.7118 37.8267 75.0431 38.3402 75.2228 38.913C75.3529 39.3017 75.377 39.718 75.2928 40.1191C75.2085 40.5201 75.0189 40.8915 74.7434 41.195C74.0402 42.0457 73.1831 42.7564 72.2169 43.29C71.484 43.7072 70.7116 44.0508 69.911 44.3159C69.0454 44.6066 68.1496 44.798 67.2407 44.8864C66.2834 44.9876 65.3173 44.9699 64.3643 44.8336C63.8096 44.7527 63.2616 44.6309 62.7248 44.4693C62.258 44.3153 61.803 44.1279 61.3633 43.9084C60.9318 43.7022 60.4428 43.429 59.9251 43.1222L50.9747 37.983C50.4282 37.6666 50.3658 37.1872 50.8548 36.9043C51.1466 36.7708 51.4656 36.7078 51.7862 36.7203C52.1069 36.7328 52.42 36.8205 52.7005 36.9762L61.6078 42.1202C62.1997 42.4711 62.8204 42.771 63.4631 43.0167C64.1152 43.2396 64.7973 43.3624 65.4861 43.381C67.2627 43.3714 69.0007 42.8613 70.5007 41.9093C71.2487 41.5214 71.9107 40.9866 72.447 40.3368C72.6171 40.1053 72.714 39.8281 72.7251 39.541C72.7362 39.2539 72.6611 38.9701 72.5094 38.7261C71.9771 37.9841 71.2687 37.3861 70.4479 36.9858L61.5407 31.8419C60.9942 31.5255 60.9318 31.0461 61.4016 30.7728C61.6938 30.64 62.013 30.5778 62.3336 30.5911C62.6542 30.6044 62.9672 30.693 63.2473 30.8495L72.1546 35.9887Z" fill="white"/>
<path d="M92.0979 62.7104C92.5773 62.4419 92.9513 62.7727 92.9513 63.4535L92.9992 79.4751C93.0007 79.9351 92.8949 80.3891 92.6901 80.801C92.4854 81.213 92.1874 81.5715 91.8199 81.8481C91.6838 81.9519 91.5132 81.9997 91.343 81.9819C91.1728 81.9641 91.0158 81.8819 90.9042 81.7522L82.5866 71.9772L82.625 85.9661C82.6285 86.2883 82.5562 86.6068 82.4137 86.8958C82.2713 87.1848 82.0628 87.4362 81.8052 87.6297C81.3498 87.8933 80.9806 87.5721 80.9806 86.9154L80.9327 70.8123C80.9297 70.3625 81.0322 69.9183 81.232 69.5153C81.4319 69.1123 81.7234 68.7618 82.0832 68.492C82.218 68.3908 82.3863 68.3449 82.5538 68.3636C82.7213 68.3823 82.8754 68.4642 82.9845 68.5927L91.2925 78.4491L91.2494 64.4363C91.2488 64.1027 91.325 63.7736 91.4722 63.4743C91.6194 63.175 91.8335 62.9136 92.0979 62.7104Z" fill="white"/>
<path d="M92.0977 62.322C92.7545 61.9433 93.2914 62.3603 93.2962 63.252L93.3393 79.2784C93.3393 80.4289 92.6634 81.7569 91.8244 82.2411C91.6463 82.3785 91.4228 82.4435 91.1987 82.423C90.9747 82.4026 90.7667 82.2982 90.6163 82.1308L82.9459 73.0941L82.9795 85.7695C82.9763 86.2092 82.8702 86.6421 82.6695 87.0333C82.4689 87.4246 82.1794 87.7635 81.8241 88.0227C81.1817 88.3918 80.6544 87.9843 80.6496 87.1118L80.6064 71.0135C80.61 70.4456 80.7467 69.8865 81.0056 69.3811C81.2646 68.8757 81.6385 68.4381 82.0974 68.1036C82.2733 67.9696 82.4931 67.9065 82.7133 67.927C82.9335 67.9474 83.138 68.0497 83.2863 68.2138L90.9567 77.3224L90.9232 64.6279C90.9252 64.1785 91.0325 63.7358 91.2365 63.3354C91.4404 62.935 91.7354 62.5879 92.0977 62.322ZM93.0038 79.4749L92.9558 63.4534C92.9558 62.7726 92.5771 62.4418 92.1025 62.7103C91.838 62.9135 91.6239 63.1749 91.4768 63.4742C91.3296 63.7735 91.2534 64.1026 91.2539 64.4361L91.2971 78.449L82.9843 68.5925C82.8751 68.4641 82.7211 68.3822 82.5536 68.3635C82.3861 68.3448 82.2178 68.3907 82.083 68.4919C81.7232 68.7617 81.4316 69.1122 81.2318 69.5152C81.032 69.9182 80.9295 70.3624 80.9324 70.8122L80.9804 86.9152C80.9804 87.572 81.3495 87.874 81.8049 87.6295C82.0626 87.4361 82.2711 87.1847 82.4135 86.8957C82.5559 86.6067 82.6283 86.2882 82.6247 85.966L82.5864 71.9771L90.904 81.7521C91.0156 81.8818 91.1726 81.964 91.3428 81.9818C91.513 81.9996 91.6836 81.9517 91.8196 81.848C92.1872 81.5714 92.4852 81.2129 92.6899 80.8009C92.8946 80.389 93.0005 79.9349 92.999 79.4749" fill="white"/>
</svg>
