<svg viewBox="0 0 128 128" fill="none" xmlns="http://www.w3.org/2000/svg">
<g clip-path="url(#clip0)">
<path d="M128 64.0002C128 99.3453 99.3486 128 64 128C28.6514 128 0 99.3453 0 64.0002C0 28.655 28.6521 0 64 0C99.3479 0 128 28.6523 128 64.0002Z" fill="white"/>
<path d="M64 126C98.2417 126 126 98.2417 126 64C126 29.7583 98.2417 2 64 2C29.7583 2 2 29.7583 2 64C2 98.2417 29.7583 126 64 126Z" stroke="black" stroke-opacity="0.097"/>
<path d="M63.1795 115H60.5384H57.8974H55.2564H52.6154H49.9743H47.3333H44.6923V112.359V109.718H42.0513H39.4102H36.7692H34.1282V107.077V104.436H31.4872H28.8461V101.795V99.1539H31.4872H34.1282H36.7692H39.4102H42.0513H44.6923H47.3333H49.9743H52.6154H55.2564H57.8974H60.5384H63.1795H65.8205H68.4615H71.1025H73.7436H76.3846H79.0256H81.6667H84.3077H86.9487H89.5897H92.2308H94.8718H97.5128H100.154V101.795V104.436H97.5128H94.8718V107.077V109.718H92.2308H89.5897H86.9487H84.3077V112.359V115H81.6667H79.0256H76.3846H73.7436H71.1025H68.4615H65.8205H63.1795Z" fill="#7E18F8"/>
<path d="M108.077 83.3077H105.436H102.795H100.154H97.5128H94.8718H92.2308H89.5897H86.9487H84.3077H81.6667H79.0256H76.3846H73.7436H71.1026H68.4615H65.8205H63.1795H60.5385H57.8974H55.2564H52.6154H49.9744H47.3333H44.6923H42.0513H39.4102H36.7692H34.1282H31.4872H28.8461H26.2051H23.5641H20.9231H18.282V85.9487V88.5897V91.2308V93.8718H20.9231H23.5641V96.5128V99.1538H26.2051H28.8461H31.4872H34.1282H36.7692H39.4102H42.0513H44.6923H47.3333H49.9744H52.6154H55.2564H57.8974H60.5385H63.1795H65.8205H68.4615H71.1026H73.7436H76.3846H79.0256H81.6667H84.3077H86.9487H89.5897H92.2308H94.8718H97.5128H100.154H102.795H105.436V96.5128V93.8718H108.077H110.718V91.2308V88.5897V85.9487V83.3077H108.077Z" fill="#8F17F9"/>
<path d="M113.359 43.6923H110.718V41.0513V38.4103V35.7692V33.1282H108.077H105.436V30.4872V27.8462H102.795H100.154V25.2051V22.5641H97.5128H94.8718V19.9231V17.2821H92.2308H89.5897H86.9487H84.3077V14.641V12H81.6667H79.0256H76.3846H73.7436H71.1026H68.4615H65.8205H63.1795H60.5385H57.8974H55.2564H52.6154H49.9744H47.3333H44.6923V14.641V17.2821H42.0513H39.4103H36.7692H34.1282V19.9231V22.5641H31.4872H28.8462V25.2051V27.8462H26.2051H23.5641V30.4872V33.1282H20.9231H18.2821V35.7692V38.4103V41.0513V43.6923H15.641H13V46.3333V48.9744V51.6154H15.641H18.2821H20.9231H23.5641H26.2051H28.8462H31.4872H34.1282H36.7692H39.4103H42.0513H44.6923H47.3333H49.9744H52.6154H55.2564H57.8974H60.5385H63.1795H65.8205H68.4615H71.1026H73.7436H76.3846H79.0256H81.6667H84.3077H86.9487H89.5897H92.2308H94.8718H97.5128H100.154H102.795H105.436H108.077H110.718H113.359H116V48.9744V46.3333V43.6923H113.359Z" fill="#FA34F3"/>
<path d="M113.359 51.6154H110.718H108.077H105.436H102.795H100.154H97.5128H94.8718H92.2308H89.5897H86.9487H84.3077H81.6667H79.0256H76.3846H73.7436H71.1026H68.4615H65.8205H63.1795H60.5385H57.8974H55.2564H52.6154H49.9744H47.3333H44.6923H42.0513H39.4103H36.7692H34.1282H31.4872H28.8462H26.2051H23.5641H20.9231H18.2821H15.641H13V54.2564V56.8974V59.5384V62.1795V64.8205V67.4615H15.641H18.2821H20.9231H23.5641H26.2051H28.8462H31.4872H34.1282H36.7692H39.4103H42.0513H44.6923H47.3333H49.9744H52.6154H55.2564H57.8974H60.5385H63.1795H65.8205H68.4615H71.1026H73.7436H76.3846H79.0256H81.6667H84.3077H86.9487H89.5897H92.2308H94.8718H97.5128H100.154H102.795H105.436H108.077H110.718H113.359H116V64.8205V62.1795V59.5384V56.8974V54.2564V51.6154H113.359Z" fill="#CF15F9"/>
<path d="M113.359 67.4615H110.718H108.077H105.436H102.795H100.154H97.5128H94.8718H92.2308H89.5897H86.9487H84.3077H81.6667H79.0256H76.3846H73.7436H71.1026H68.4615H65.8205H63.1795H60.5385H57.8974H55.2564H52.6154H49.9744H47.3333H44.6923H42.0513H39.4103H36.7692H34.1282H31.4872H28.8462H26.2051H23.5641H20.9231H18.2821H15.641H13V70.1026V72.7436V75.3846V78.0257V80.6667V83.3077H15.641H18.2821H20.9231H23.5641H26.2051H28.8462H31.4872H34.1282H36.7692H39.4103H42.0513H44.6923H47.3333H49.9744H52.6154H55.2564H57.8974H60.5385H63.1795H65.8205H68.4615H71.1026H73.7436H76.3846H79.0256H81.6667H84.3077H86.9487H89.5897H92.2308H94.8718H97.5128H100.154H102.795H105.436H108.077H110.718H113.359H116V80.6667V78.0257V75.3846V72.7436V70.1026V67.4615H113.359Z" fill="#AC15F9"/>
<path d="M79.8444 72.5323V74.3546H81.6667H83.489V72.5323V70.7099V68.8876H81.6667H79.8444V70.7099V72.5323Z" fill="white"/>
<path d="M76.1997 74.3547H74.3774H72.5551H70.7328H68.9105H67.0882V76.177V77.9993H68.9105H70.7328H72.5551H74.3774V79.8216V81.6439H76.1997H78.022V79.8216V77.9993H79.8443V76.177V74.3547H78.022H76.1997Z" fill="white"/>
<path d="M70.7592 68.8877H72.5815H74.4038H76.2261H78.0484H79.8707V67.0654V65.2431H78.0484H76.2261H74.4038H72.5815H70.7592V67.0654V68.8877Z" fill="white"/>
<path d="M67.1146 59.8026V61.6249V63.4472V65.2695H68.9369H70.7593V63.4472V61.6249V59.8026H68.9369H67.1146Z" fill="white"/>
<path d="M79.8444 56.1579H78.0221V54.3356V52.5133H76.1998H74.3775V54.3356V56.1579H72.5552H70.7328V57.9802V59.8025H72.5552H74.3775H76.1998H78.0221H79.8444H81.6667H83.489V57.9802V56.1579H81.6667H79.8444Z" fill="white"/>
<path d="M103.482 56.158H101.659H99.8369H98.0146H96.1923H94.37H92.5477H90.7254H88.9031H87.0807V57.9803V59.8026H88.9031H90.7254H92.5477H94.37V61.6249V63.4472V65.2695V67.0918V68.9141V70.7364V72.5587V74.381V76.2033V78.0256H96.1923H98.0146V76.1769V74.3546V72.5323V70.71V68.8877V67.0654V65.2431V63.4208V61.5985V59.8026H99.8369H101.659H103.482H105.304V57.9803V56.158H103.482Z" fill="white"/>
<path d="M59.8518 56.158V57.9803V59.8026V61.6249V63.4472V65.2695H58.0295H56.2072H54.3849H52.5626H50.7403V63.4472V61.6249V59.8026V57.9803V56.158H48.9179H47.0956V57.9803V59.8026V61.6249V63.4472V65.2695V67.0918V68.9141V70.7364V72.5587V74.381V76.2033V78.0256H48.9179H50.7403V76.1769V74.3546V72.5323V70.71V68.8877H52.5626H54.3849H56.2072H58.0295H59.8518V70.71V72.5323V74.3546V76.1769V77.9992H61.6741H63.4964V76.1769V74.3546V72.5323V70.71V68.8877V67.0654V65.2431V63.4208V61.5985V59.8026V57.9803V56.158H61.6741H59.8518Z" fill="white"/>
<path d="M39.8593 56.158H38.037H36.2146H34.3923H32.57H30.7477H28.9254V57.9803V59.8026H30.7477H32.57H34.3923H36.2146H38.037H39.8593H41.6816H43.5039V57.9803V56.158H41.6816H39.8593Z" fill="white"/>
<path d="M43.4774 74.3547V72.5323V70.71V68.8877V67.0654V65.2431H41.6551H39.8328H38.0105H36.1882H34.3923H32.57V67.0654V68.8877H34.3923H36.2146H38.0369H39.8592V70.71V72.5323V74.3547H41.6815H43.4774Z" fill="white"/>
<path d="M28.9518 77.9993H30.7741H32.5964H34.3923H36.2146H38.037H39.8593V76.177V74.3547H38.037H36.2146H34.3923H32.57H30.7477H28.9254V76.177V77.9993H28.9518Z" fill="white"/>
<path d="M25.3072 59.8026V61.6249V63.4472V65.2695V67.0918V68.9141V70.7364V72.5587V74.381H27.1295H28.9518V72.5587V70.7364V68.9141V67.0918V65.2695V63.4472V61.6249V59.8026H27.1295H25.3072Z" fill="white"/>
</g>
<defs>
<clipPath id="clip0">
<rect width="128" height="128" fill="white"/>
</clipPath>
</defs>
</svg>
