<svg viewBox="0 0 128 128" fill="none" xmlns="http://www.w3.org/2000/svg">
<path d="M123.997 59.9941C123.997 93.1269 97.1371 119.988 63.9986 119.988C30.8601 119.988 4 93.1269 4 59.9941C4 26.8614 30.8607 6.10352e-05 63.9986 6.10352e-05C97.1364 6.10352e-05 123.997 26.8589 123.997 59.9941Z" fill="white"/>
<path d="M64 120C97.1371 120 124 93.1371 124 60C124 26.8629 97.1371 0 64 0C30.8629 0 4 26.8629 4 60C4 93.1371 30.8629 120 64 120Z" fill="#002D64"/>
<path d="M75.2079 51C78.1719 48.036 79.7799 44.136 79.7799 39.936C79.7797 36.2695 78.4929 32.7193 76.1439 29.904L85.2399 20.808L83.2119 18.84L74.1159 27.936C71.3079 25.596 67.8279 24.3 64.1439 24.3C61.0515 24.3021 58.029 25.2206 55.4582 26.9393C52.8874 28.6581 50.8836 31.1001 49.6997 33.957C48.5159 36.8138 48.2052 39.9574 48.8068 42.9908C49.4084 46.0242 50.8954 48.8112 53.0799 51C55.6719 53.592 59.0559 55.212 62.6919 55.524V67.056C59.0479 67.3582 55.6351 68.9645 53.0799 71.58C50.152 74.5178 48.5079 78.4964 48.5079 82.644C48.5079 86.7917 50.152 90.7703 53.0799 93.708C56.0439 96.672 59.9439 98.28 64.1439 98.28C66.1986 98.2862 68.2342 97.8854 70.1332 97.1007C72.0322 96.316 73.7569 95.1629 75.2079 93.708C78.1719 90.744 79.7799 86.844 79.7799 82.644C79.7799 78.444 78.1719 74.544 75.2079 71.58C72.6159 68.988 69.2319 67.368 65.5959 67.056V55.524C69.2406 55.2243 72.6542 53.6176 75.2079 51V51ZM73.1799 73.596C75.5679 76.032 76.9239 79.212 76.9239 82.632C76.9266 84.3107 76.5972 85.9733 75.9546 87.5241C75.312 89.0749 74.369 90.4832 73.1799 91.668C70.7919 94.104 67.5639 95.412 64.1439 95.412C62.4653 95.4147 60.8027 95.0853 59.2519 94.4428C57.7011 93.8002 56.2927 92.8572 55.1079 91.668C52.7199 89.232 51.3639 86.052 51.3639 82.632C51.3612 80.9534 51.6906 79.2908 52.3332 77.74C52.9757 76.1892 53.9188 74.7808 55.1079 73.596C57.4959 71.16 60.7239 69.852 64.1439 69.852C67.5759 69.864 70.7919 71.16 73.1799 73.596ZM64.1439 52.764C62.4653 52.7667 60.8027 52.4373 59.2519 51.7948C57.7011 51.1522 56.2927 50.2092 55.1079 49.02C52.7199 46.584 51.3639 43.404 51.3639 39.984C51.3623 38.3055 51.6923 36.6433 52.3347 35.0926C52.9772 33.542 53.9197 32.1335 55.1079 30.948C57.4959 28.512 60.7239 27.204 64.1439 27.204C65.8225 27.2013 67.4851 27.5307 69.0359 28.1733C70.5867 28.8159 71.9951 29.7589 73.1799 30.948C75.6159 33.336 76.9239 36.564 76.9239 39.984C76.9266 41.6627 76.5972 43.3253 75.9546 44.8761C75.312 46.4269 74.369 47.8352 73.1799 49.02C70.7919 51.468 67.5759 52.764 64.1439 52.764Z" fill="white"/>
<path d="M64 118C96.0325 118 122 92.0325 122 60C122 27.9675 96.0325 2 64 2C31.9675 2 6 27.9675 6 60C6 92.0325 31.9675 118 64 118Z" stroke="black" stroke-opacity="0.097"/>
</svg>
