<svg viewBox="0 0 128 128" fill="none" xmlns="http://www.w3.org/2000/svg">
<path d="M64.0002 127.981C99.3411 127.981 127.991 99.3313 127.991 63.9904C127.991 28.6495 99.3411 0 64.0002 0C28.6592 0 0.00976562 28.6495 0.00976562 63.9904C0.00976562 99.3313 28.6592 127.981 64.0002 127.981Z" fill="white"/>
<path d="M45.956 62.8971C44.1055 64.3497 41.7708 65.2174 39.2348 65.2174C33.2183 65.2174 28.3428 60.3419 28.3428 54.3254C28.3428 51.7654 29.2249 49.4116 30.7014 47.5515C35.4858 52.3599 40.9031 57.8107 45.9512 62.8971H45.956Z" fill="#00152A"/>
<path d="M115.867 65.9701C115.867 94.6143 92.6444 117.832 64.0002 117.832C35.356 117.832 12.1338 94.6143 12.1338 65.9701C12.1338 55.4424 15.2691 45.6483 20.6575 37.4745C21.8273 38.6442 23.2127 40.0345 24.7564 41.583C22.3402 44.8908 20.9116 48.9657 20.9116 53.3762C20.9116 64.4264 29.8716 73.3864 40.9218 73.3864C45.2892 73.3864 49.3305 71.9866 52.624 69.6135C59.187 76.2245 64.0002 81.0808 64.0002 81.0808C64.0002 81.0808 68.7654 76.1573 75.2229 69.5033C78.5404 71.9482 82.6393 73.3912 87.0785 73.3912C98.1287 73.3912 107.089 64.4312 107.089 53.381C107.089 48.7644 105.526 44.5121 102.899 41.1275C104.5 39.5024 105.895 38.0929 107.012 36.9807C112.602 45.26 115.871 55.2363 115.871 65.9797L115.867 65.9701Z" fill="#00152A"/>
<path d="M30.7062 47.5515C35.4906 52.3599 40.9079 57.8107 45.956 62.8971C44.1055 64.3497 41.7708 65.2174 39.2348 65.2174C33.2183 65.2174 28.3428 60.3419 28.3428 54.3254C28.3428 51.7654 29.2249 49.4116 30.7014 47.5515H30.7062Z" fill="#00152A"/>
<path d="M99.6577 54.3255C99.6577 60.342 94.7822 65.2175 88.7658 65.2175C86.1243 65.2175 83.7033 64.2778 81.8145 62.7102C86.8673 57.5135 92.2654 51.9668 96.9683 47.1584C98.6414 49.0713 99.6577 51.5785 99.6577 54.3207V54.3255Z" fill="#00152A"/>
<path d="M64.3115 15.1441C68.1132 15.1441 71.9005 15.5659 75.5727 16.3953C79.1394 17.2007 82.6295 18.404 85.9421 19.962C89.1972 21.4961 92.299 23.385 95.1658 25.5758C96.9108 26.9086 98.5695 28.3611 100.128 29.9096C98.814 31.3526 97.4286 32.8483 95.9808 34.392C93.9721 36.5301 91.8483 38.7545 89.6671 41.0077C85.3429 45.471 80.5584 50.2841 75.4432 55.3083C73.075 57.6381 70.6157 60.0303 68.1324 62.4274C66.5839 63.9231 65.2176 65.2271 64.0958 66.2961C62.974 65.1839 61.6077 63.832 60.0593 62.2979L59.3641 61.6124C57.3794 59.642 55.1214 57.4032 52.7053 55.0062C47.2736 49.6178 42.6187 44.9916 38.4623 40.8639C35.9502 38.3662 33.7929 36.2185 31.8705 34.3057C30.4563 32.8963 29.1619 31.6067 27.9778 30.4274C29.531 28.8405 31.185 27.3544 32.93 25.9881C35.8256 23.711 38.9704 21.7502 42.2735 20.1586C45.6389 18.5382 49.1865 17.2918 52.8251 16.448C56.5644 15.5851 60.4284 15.1489 64.3068 15.1489L64.3115 15.1441ZM64.3068 10.374C47.0339 10.374 31.5972 18.2506 21.4004 30.6095C23.505 32.7141 25.9163 35.1207 28.5003 37.6903C30.6097 39.7901 32.8341 42.0049 35.0921 44.2533C39.9005 49.0329 44.8862 53.9851 49.3351 58.4004C52.0389 61.0802 54.5462 63.5635 56.6891 65.6921C61.1044 70.0738 64.0095 72.9454 64.0095 72.9454C64.0095 72.9454 66.9195 70.2176 71.4306 65.8694C73.5688 63.808 76.0617 61.3871 78.7799 58.7168C83.1712 54.3974 88.1378 49.4356 93.0804 44.33C95.2233 42.1199 97.3614 39.8811 99.4468 37.6615C101.925 35.02 104.327 32.3977 106.58 29.8665C96.3835 17.9342 81.2248 10.374 64.2972 10.374H64.3068Z" fill="#00152A"/>
</svg>
