<svg viewBox="0 0 128 128" fill="none" xmlns="http://www.w3.org/2000/svg">
<g clip-path="url(#clip0)">
<path d="M64 -0.000249386C30.8629 -0.000252283 4.00001 26.8627 4.00001 59.9997C4 93.1368 30.8629 120 64 120C97.1371 120 124 93.1368 124 59.9998C124 26.8627 97.1371 -0.000246489 64 -0.000249386Z" fill="#6747ED"/>
<path fill-rule="evenodd" clip-rule="evenodd" d="M59.6346 64.0577C50.5249 64.0577 43.2115 56.7443 43.2115 47.6346C43.2115 38.5249 50.5249 31.2115 59.6346 31.2115C68.7443 31.2115 76.0577 38.5249 76.0577 47.6346C76.0577 56.7443 68.7443 64.0577 59.6346 64.0577ZM59.6346 23C73.2349 23 84.2692 34.0343 84.2692 47.6346C84.2692 61.2349 73.2349 72.2692 59.6346 72.2692C46.0343 72.2692 35 61.2349 35 47.6346C35 34.0343 46.0343 23 59.6346 23ZM83.1144 73.5522C84.7824 75.2202 84.7824 77.7863 83.1144 79.326L66.6914 95.749C65.0234 97.417 62.4573 97.417 60.9177 95.749C59.2497 94.0811 59.2497 91.515 60.9177 89.9753L77.3407 73.5522C78.8804 71.8843 81.5748 71.8843 83.1144 73.5522ZM92.609 27.1058C92.609 29.4153 90.8128 31.2115 88.5033 31.2115C86.1938 31.2115 84.3975 29.4153 84.3975 27.1058C84.3975 24.7963 86.1938 23 88.5033 23C90.6845 23 92.609 24.7963 92.609 27.1058Z" fill="white"/>
<path d="M64 118C96.0325 118 122 92.0325 122 60C122 27.9675 96.0325 2 64 2C31.9675 2 6 27.9675 6 60C6 92.0325 31.9675 118 64 118Z" stroke="black" stroke-opacity="0.097"/>
</g>
<defs>
<clipPath id="clip0">
<rect width="128" height="128" fill="white"/>
</clipPath>
</defs>
</svg>
