<svg viewBox="0 0 128 128" fill="none" xmlns="http://www.w3.org/2000/svg">
<g clip-path="url(#clip0)">
<path d="M64 -0.000249386C30.8629 -0.000252283 4.00001 26.8627 4.00001 59.9997C4 93.1368 30.8629 120 64 120C97.1371 120 124 93.1368 124 59.9998C124 26.8627 97.1371 -0.000246489 64 -0.000249386Z" fill="black"/>
<path d="M96.9993 96H86.5339V73.7961H40.4661V96H30V24H40.4661V45.6697H86.5339V24H97L96.9993 96ZM40.9605 65.4893H87.0277V54.0173H40.9605V65.4893Z" fill="white"/>
<path d="M64 118C96.0325 118 122 92.0325 122 60C122 27.9675 96.0325 2 64 2C31.9675 2 6 27.9675 6 60C6 92.0325 31.9675 118 64 118Z" stroke="black" stroke-opacity="0.097"/>
</g>
<defs>
<clipPath id="clip0">
<rect width="128" height="128" fill="white"/>
</clipPath>
</defs>
</svg>
