<svg viewBox="0 0 128 128" fill="none" xmlns="http://www.w3.org/2000/svg">
<path d="M128 64.0002C128 99.3454 99.3486 128 63.9999 128C28.6513 128 -0.00012207 99.3454 -0.00012207 64.0002C-0.00012207 28.6551 28.652 6.10352e-05 63.9999 6.10352e-05C99.3479 6.10352e-05 128 28.6523 128 64.0002Z" fill="#6E2EF4"/>
<path d="M64.0014 125.879C98.1703 125.879 125.87 98.1779 125.87 64.0065C125.87 29.835 98.1703 2.13354 64.0014 2.13354C29.8326 2.13354 2.13324 29.835 2.13324 64.0065C2.13324 98.1779 29.8326 125.879 64.0014 125.879Z" stroke="black" stroke-opacity="0.097"/>
<path d="M29.7287 65.4009L29.3861 65.0575C26.2046 61.8687 26.2046 56.6439 29.3861 53.4305L53.3694 29.3916C56.5509 26.2028 61.7636 26.2028 64.9695 29.3916L65.3121 29.735C68.4936 32.9239 68.4936 38.1487 65.3121 41.362L41.3288 65.4009C38.1229 68.6143 32.9102 68.6143 29.7287 65.4009Z" fill="white"/>
<path d="M62.7915 98.5648L62.4488 98.2214C59.2674 95.0325 59.2674 89.8078 62.4488 86.5944L86.4321 62.5555C89.6136 59.3667 94.8263 59.3667 98.0322 62.5555L98.3748 62.8989C101.556 66.0878 101.556 71.3125 98.3748 74.5259L74.3916 98.5648C71.2101 101.754 65.9974 101.754 62.7915 98.5648Z" fill="white"/>
<path d="M55.0825 72.9805L54.7399 72.6371C51.5584 69.4483 51.5584 64.2235 54.7399 61.0101L61.1517 54.5834C64.3332 51.3946 69.5459 51.3946 72.7518 54.5834L73.0944 54.9268C76.2759 58.1156 76.2759 63.3404 73.0944 66.5538L66.6826 72.9805C63.4766 76.1694 58.2639 76.1694 55.0825 72.9805Z" fill="white"/>
</svg>
