<svg viewBox="0 0 128 128" fill="none" xmlns="http://www.w3.org/2000/svg">
<path d="M123.997 59.9941C123.997 93.1268 97.1371 119.988 63.9986 119.988C30.8601 119.988 4 93.1268 4 59.9941C4 26.8614 30.8607 0 63.9986 0C97.1364 0 123.997 26.8588 123.997 59.9941Z" fill="white"/>
<g clip-path="url(#clip0)">
<path d="M79.8997 64.1296C79.9536 64.1342 80.0057 64.1518 80.0514 64.1809C80.097 64.21 80.135 64.2498 80.1621 64.2967C80.1892 64.3437 80.2045 64.3965 80.2069 64.4507C80.2092 64.5048 80.1984 64.5588 80.1755 64.6079L64.4505 91.8416C64.4211 91.8887 64.3806 91.9278 64.3325 91.9554C64.2843 91.983 64.2301 91.9983 64.1747 91.9999H54.5614C54.5055 92 54.4506 91.9853 54.4023 91.9572C54.3539 91.9291 54.3139 91.8887 54.2862 91.8401C54.2585 91.7915 54.2442 91.7364 54.2446 91.6805C54.2451 91.6245 54.2604 91.5697 54.289 91.5216L70.014 64.2879C70.0416 64.2399 70.0813 64.2001 70.1291 64.1723C70.1769 64.1445 70.2311 64.1298 70.2864 64.1296H79.8997ZM70.5521 56.3249C70.4967 56.3234 70.4425 56.3081 70.3944 56.2805C70.3463 56.2528 70.3057 56.2137 70.2763 56.1666L54.289 28.4782C54.2604 28.4301 54.2451 28.3752 54.2446 28.3193C54.2442 28.2633 54.2585 28.2082 54.2862 28.1596C54.3139 28.111 54.3539 28.0706 54.4023 28.0426C54.4506 28.0145 54.5055 27.9998 54.5614 27.9999H64.1747C64.2301 28.0014 64.2843 28.0167 64.3325 28.0443C64.3806 28.072 64.4211 28.1111 64.4505 28.1582L80.4379 55.8466C80.4664 55.8947 80.4817 55.9496 80.4822 56.0055C80.4827 56.0615 80.4684 56.1166 80.4407 56.1652C80.413 56.2138 80.3729 56.2542 80.3246 56.2822C80.2762 56.3103 80.2213 56.325 80.1654 56.3249H70.5521Z" fill="#E31337"/>
<path d="M72.4522 28.4781C72.4226 28.4284 72.4071 28.3717 72.4074 28.3139C72.4078 28.2561 72.4239 28.1995 72.454 28.1502C72.4842 28.101 72.5272 28.0609 72.5785 28.0344C72.6297 28.0078 72.6873 27.9959 72.7448 27.9997H82.3715C82.4269 27.9996 82.4813 28.0142 82.5291 28.042C82.577 28.0699 82.6166 28.1099 82.644 28.1581L100.972 59.8414C101.001 59.8894 101.015 59.9441 101.015 59.9997C101.015 60.0554 101.001 60.11 100.972 60.1581L82.644 91.8414C82.6166 91.8896 82.577 91.9296 82.5291 91.9574C82.4813 91.9852 82.4269 91.9998 82.3715 91.9997H72.7448C72.6887 92.0005 72.6333 91.9862 72.5845 91.9584C72.5357 91.9305 72.4951 91.8902 72.467 91.8415C72.4389 91.7928 72.4243 91.7374 72.4247 91.6812C72.425 91.6249 72.4403 91.5698 72.469 91.5214L90.6865 59.9997L72.4522 28.4781ZM64.6284 59.8381C64.6579 59.8893 64.6734 59.9473 64.6734 60.0065C64.6734 60.0656 64.6579 60.1237 64.6284 60.1749L46.2158 91.8414C46.1849 91.8866 46.1435 91.9235 46.0952 91.9491C46.0468 91.9746 45.993 91.9879 45.9383 91.9879C45.8837 91.9879 45.8298 91.9746 45.7815 91.9491C45.7331 91.9235 45.6917 91.8866 45.6608 91.8414L27.0431 60.1614C27.0136 60.1102 26.998 60.0521 26.998 59.993C26.998 59.9339 27.0136 59.8758 27.0431 59.8246L45.4557 28.1581C45.4865 28.1129 45.528 28.076 45.5763 28.0504C45.6247 28.0249 45.6785 28.0116 45.7332 28.0116C45.7878 28.0116 45.8416 28.0249 45.89 28.0504C45.9383 28.076 45.9798 28.1129 46.0107 28.1581L64.6284 59.8381Z" fill="#E31337"/>
</g>
<path d="M64 118C96.0325 118 122 92.0325 122 60C122 27.9675 96.0325 2 64 2C31.9675 2 6 27.9675 6 60C6 92.0325 31.9675 118 64 118Z" stroke="black" stroke-opacity="0.097"/>
<defs>
<clipPath id="clip0">
<rect width="74" height="64" fill="white" transform="translate(27 28)"/>
</clipPath>
</defs>
</svg>
