<svg viewBox="0 0 128 128" fill="none" xmlns="http://www.w3.org/2000/svg">
<path d="M123.997 59.9941C123.997 93.1269 97.1371 119.988 63.9986 119.988C30.8601 119.988 4 93.1269 4 59.9941C4 26.8614 30.8607 6.10352e-05 63.9986 6.10352e-05C97.1364 6.10352e-05 123.997 26.8589 123.997 59.9941Z" fill="white"/>
<path d="M79.9793 31.2124C83.4611 27.7306 89.1814 27.7306 92.6632 31.2124C96.1451 34.6943 96.1451 40.4145 92.6632 43.8964C90.6114 45.9482 87.8756 46.8187 85.0777 46.4456C84.9534 46.4456 84.829 46.4456 84.6425 46.4456C83.8342 46.3212 82.9637 46.4456 82.0933 46.8187C80.9119 47.3782 80.1036 48.3109 79.6684 49.4301C79.2332 50.5492 79.2953 51.7927 79.7927 52.9119C82.7772 59.3782 81.4093 67.2124 76.3109 72.2487C71.2124 77.3472 63.4404 78.715 56.9741 75.7306C55.7927 75.171 54.5492 75.171 53.4301 75.6062C52.3109 76.0415 51.3782 76.8497 50.8808 77.9689C50.57 78.715 50.3834 79.4611 50.4456 80.2694C50.4456 80.3938 50.4456 80.5803 50.4456 80.7047C50.943 83.5648 49.9482 86.487 47.9585 88.5389C44.4767 92.0207 38.7565 92.0207 35.2746 88.5389C33.5959 86.8601 32.6632 84.6218 32.6632 82.1969C32.6632 79.8342 33.5959 77.5337 35.2746 75.8549C37.3264 73.8031 40.0622 72.9326 42.8601 73.3057C42.9223 73.3057 42.9223 73.3057 42.9845 73.3057C43.2953 73.3679 43.6062 73.4301 43.9171 73.4301C44.601 73.4301 45.2228 73.3057 45.8446 72.9948C47.0259 72.4352 47.8342 71.5026 48.2073 70.4456C48.6425 69.3264 48.6425 68.0207 48.0829 66.8394C45.0984 60.3109 46.4663 52.5389 51.5648 47.5026C56.6632 42.4041 64.4352 41.0363 70.9016 44.0207C72.0207 44.5803 73.3264 44.5803 74.4456 44.1451C75.5648 43.7098 76.4974 42.9016 77.057 41.7824C77.4922 40.9119 77.5544 39.9171 77.4301 38.9845C76.9948 36.1865 77.9275 33.2643 79.9793 31.2124ZM71.0881 67.0259C74.943 63.171 74.943 56.8912 71.0881 52.9741C67.2332 49.1192 60.9534 49.1192 57.0363 52.9741C53.1814 56.829 53.1814 63.1088 57.0363 67.0259C60.9534 70.8808 67.2332 70.8808 71.0881 67.0259ZM64 0C97.1399 0 124 26.8601 124 60C124 93.1399 97.1399 120 64 120C30.8601 120 4 93.1399 4 60C4 26.8601 30.8601 0 64 0ZM95.9585 47.2539C101.244 41.9689 101.244 33.3886 95.9585 28.0415C90.6736 22.7565 82.0933 22.7565 76.7461 28.0415C74.7565 30.0311 73.5751 32.456 73.0155 34.943C63.3782 31.3368 52.3731 33.6373 45.0363 40.9741C37.6995 48.3109 35.399 59.3782 39.0674 69.0155C36.5181 69.513 34.0933 70.7565 32.1036 72.7461C26.8187 78.0311 26.8187 86.6114 32.1036 91.9585C37.3886 97.2435 45.9689 97.2435 51.3161 91.9585C53.3057 89.9689 54.5492 87.4819 55.0466 84.9326C58.0311 86.0518 61.1399 86.6114 64.2487 86.6114C71.1503 86.6114 77.9275 83.9378 82.9637 78.9016C90.3005 71.5648 92.601 60.6218 89.057 51.0466C91.544 50.4249 93.9689 49.1813 95.9585 47.2539Z" fill="#38A2FF"/>
<path d="M64 118C96.0325 118 122 92.0325 122 60C122 27.9675 96.0325 2 64 2C31.9675 2 6 27.9675 6 60C6 92.0325 31.9675 118 64 118Z" stroke="black" stroke-opacity="0.097"/>
</svg>
