<svg viewBox="0 0 128 128" fill="none" xmlns="http://www.w3.org/2000/svg">
<path d="M123.997 59.9941C123.997 93.1268 97.1371 119.988 63.9986 119.988C30.8601 119.988 4 93.1268 4 59.9941C4 26.8614 30.8607 0 63.9986 0C97.1364 0 123.997 26.8588 123.997 59.9941Z" fill="#007F88"/>
<g clip-path="url(#clip0)">
<path d="M27.9859 33.0601C26.8351 33.151 25.9493 33.3326 25.9991 33.4688C26.4581 34.5652 29.2964 41.02 29.3352 41.0589C29.374 41.0978 30.0335 41.1432 30.8094 41.1757C34.249 41.3054 36.9709 41.9801 39.9127 43.4397C42.0269 44.4841 43.5915 45.6064 45.2208 47.2347C47.6195 49.635 49.1842 52.3013 50.1022 55.5643C50.2057 55.9406 50.2897 56.2779 50.2897 56.3298C50.2897 56.4012 49.766 56.4142 47.4514 56.4142C45.8868 56.4142 44.542 56.4401 44.4579 56.4725C44.3351 56.5179 44.0118 57.2186 42.667 60.313C41.7618 62.3954 41.0118 64.1469 40.9989 64.2053C40.9536 64.374 41.4967 64.5232 42.8545 64.7243C43.1325 64.7697 44.8006 64.8151 46.7725 64.8411L50.2057 64.88L49.9988 65.5936C47.6842 73.4691 40.5011 78.9767 31.7016 79.6384C31.2038 79.6709 30.5507 79.7033 30.2469 79.7033H29.6973L28.0034 83.6151C26.5486 86.956 26.3223 87.5269 26.4193 87.5593C26.859 87.7215 27.8417 87.7799 30.1176 87.7799C33.027 87.7799 34.4429 87.6501 36.8416 87.1571C46.6368 85.1396 54.7768 78.8859 58.4621 70.5304C59.1733 68.9215 60.0073 66.2747 60.156 65.1654L60.2013 64.8475H67.5525L67.5783 64.9903C68.1085 67.5981 68.6839 69.3562 69.6796 71.4321C72.6731 77.6858 78.2851 82.7912 85.2355 85.5937C89.456 87.2897 93.977 88.1042 98.522 87.9875C100.423 87.9291 101.936 87.715 101.858 87.5139C101.793 87.3452 98.5737 79.9303 98.5543 79.9109C98.5349 79.8914 97.8689 79.8655 97.0608 79.833C94.7914 79.7422 93.0845 79.4762 91.1578 78.9248C88.1902 78.0685 85.2549 76.5181 83.0049 74.6238C80.173 72.23 78.1235 69.2524 77.0373 65.9504C76.9144 65.5741 76.7916 65.1784 76.7722 65.0616L76.7269 64.854L79.4942 64.8346C81.0135 64.8216 82.3066 64.7892 82.3584 64.7632C82.4424 64.7178 85.7527 57.1861 85.7527 57.0369C85.7527 56.9396 84.9187 56.6931 84.1622 56.5698C83.6062 56.479 82.9014 56.4531 80.089 56.4336L76.6817 56.4012L76.811 55.9406C78.6989 49.2328 84.492 43.9068 91.9595 42.019C93.6082 41.6038 95.2116 41.3897 97.2935 41.3054C98.5349 41.2535 98.6901 41.234 98.7676 41.1302C98.8194 41.0589 99.5823 39.3398 100.462 37.3093C101.541 34.8247 102.039 33.5986 101.994 33.5661C101.852 33.4883 100.946 33.3261 100.235 33.2548C99.2008 33.1445 96.1815 33.1639 94.8496 33.2807C87.2333 33.9619 80.367 37.0433 75.2205 42.0774C72.0783 45.1523 69.8736 48.6035 68.5158 52.5867C68.1667 53.5922 67.7464 55.1751 67.6171 55.9406L67.5396 56.4142H60.3131L60.2873 56.2649C60.2679 56.1871 60.1967 55.8173 60.1192 55.4411C59.0524 50.1215 56.0395 44.9512 51.7852 41.1432C46.9426 36.8033 40.9039 34.0851 34.2574 33.2593C32.2596 33.0147 29.6844 32.9304 27.9859 33.0601Z" fill="white"/>
</g>
<path d="M64 118C96.0325 118 122 92.0325 122 59.9999C122 27.9674 96.0325 1.99994 64 1.99994C31.9675 1.99994 6 27.9674 6 59.9999C6 92.0325 31.9675 118 64 118Z" stroke="black" stroke-opacity="0.097"/>
<defs>
<clipPath id="clip0">
<rect width="76" height="55" fill="white" transform="translate(26 32.9999)"/>
</clipPath>
</defs>
</svg>
