<svg viewBox="0 0 128 128" fill="none" xmlns="http://www.w3.org/2000/svg">
<path d="M64.0002 127.981C99.3411 127.981 127.991 99.3313 127.991 63.9904C127.991 28.6495 99.3411 0 64.0002 0C28.6592 0 0.00976562 28.6495 0.00976562 63.9904C0.00976562 99.3313 28.6592 127.981 64.0002 127.981Z" fill="#282E5B"/>
<path d="M60.6777 12.2776C60.6298 10.5182 76.1528 22.5799 74.868 43.7934C73.0271 59.4171 55.5625 67.6915 52.921 84.5473C51.0322 96.5898 59.0718 108.584 59.1293 109.639C59.1868 110.694 57.3651 110.579 57.3651 110.579C57.3651 110.579 31.7363 106.964 30.8926 75.6927C30.8926 52.6383 61.114 49.4935 60.673 12.2728L60.6777 12.2776Z" fill="white"/>
<path d="M73.4009 110.756C67.859 106.216 63.0459 98.3108 64.7573 87.5771C67.3844 72.8499 79.5612 65.1986 82.6821 51.157C87.0974 54.7717 97.7017 65.026 95.5253 80.9565C92.4427 103.508 76.6321 104.246 73.3961 110.756H73.4009Z" fill="white"/>
</svg>
