<svg viewBox="0 0 128 128" fill="none" xmlns="http://www.w3.org/2000/svg">
<g clip-path="url(#clip0_329_695)">
<path d="M63.9998 128C99.3405 128 127.99 99.3507 127.99 64.01C127.99 28.6693 99.3405 0.0200195 63.9998 0.0200195C28.6591 0.0200195 0.00976562 28.6693 0.00976562 64.01C0.00976562 99.3507 28.6591 128 63.9998 128Z" fill="white"/>
<path d="M32.3398 93.63L36.5098 88.27C40.0887 92.6888 44.5374 96.325 49.58 98.9529C54.6226 101.581 60.1515 103.144 65.8235 103.547C71.4956 103.949 77.1898 103.181 82.5528 101.291C87.9158 99.4014 92.8332 96.4295 96.9998 92.56C93.0408 97.2265 88.1313 100.994 82.5995 103.611C77.0677 106.228 71.041 107.635 64.9222 107.736C58.8034 107.837 52.7334 106.631 47.118 104.199C41.5026 101.766 36.4712 98.1629 32.3598 93.63H32.3398Z" fill="#FF00CA"/>
<path d="M96.9998 33.9998L92.8098 39.3998C89.2312 34.9835 84.7834 31.3497 79.7421 28.7237C74.7009 26.0978 69.1738 24.5357 63.5038 24.1343C57.8339 23.733 52.1419 24.5011 46.781 26.3908C41.4202 28.2805 36.5048 31.2516 32.3398 35.1198C36.2953 30.4468 41.203 26.6723 46.7347 24.0488C52.2665 21.4253 58.2947 20.0134 64.416 19.9073C70.5374 19.8013 76.6109 21.0037 82.2302 23.434C87.8494 25.8643 92.8849 29.4666 96.9998 33.9998Z" fill="#03FF00"/>
<path d="M79.8298 39.7202L64.4698 57.5102L58.3898 46.8702H49.0798L58.9198 63.9202L21.0298 108.06L47.0198 64.9802L35.7198 47.6302L36.9798 44.5102L48.7498 65.1202L23.4598 104.43L53.6698 63.9202L41.3698 42.3802H61.1098L66.3598 51.8202L79.8298 39.7202Z" fill="#03FF00"/>
<path d="M48.1699 90.1398L63.5299 72.3498L69.6099 82.9898H78.9199L69.0799 65.9398L106.97 21.7998L80.9799 64.8698L92.2799 82.2198L91.0199 85.3498L79.2499 64.7398L104.54 25.4298L74.3299 65.9398L86.6299 87.4798H66.8899L61.6299 78.0398L48.1699 90.1398Z" fill="#FF00CA"/>
</g>
<defs>
<clipPath id="clip0_329_695">
<rect width="128" height="128" fill="white"/>
</clipPath>
</defs>
</svg>
