<svg viewBox="0 0 128 128" fill="none" xmlns="http://www.w3.org/2000/svg">
<g clip-path="url(#clip0)">
<path d="M64 -0.000249386C30.8629 -0.000252283 4.00001 26.8627 4.00001 59.9997C4 93.1368 30.8629 120 64 120C97.1371 120 124 93.1368 124 59.9998C124 26.8627 97.1371 -0.000246489 64 -0.000249386Z" fill="#18A0B1"/>
<path d="M64 118C96.0325 118 122 92.0325 122 60C122 27.9675 96.0325 2 64 2C31.9675 2 6 27.9675 6 60C6 92.0325 31.9675 118 64 118Z" stroke="black" stroke-opacity="0.097"/>
<path d="M94.5344 35.931C98.1052 35.931 101 33.0363 101 29.4655C101 25.8947 98.1052 23 94.5344 23C90.9636 23 88.0688 25.8947 88.0688 29.4655C88.0688 33.0363 90.9636 35.931 94.5344 35.931Z" fill="white"/>
<path d="M44.8278 71.5948C42.3927 67.4611 41.3999 62.6356 42.0053 57.8764C42.6107 53.1171 44.78 48.6939 48.1724 45.3015C51.5648 41.909 55.9881 39.7398 60.7473 39.1344C65.5065 38.529 70.332 39.5218 74.4657 41.9568L79.6381 36.7844L79.3795 36.5775C73.8161 32.9104 67.1536 31.2851 60.5266 31.9783C53.8995 32.6715 47.7175 35.6403 43.0335 40.3793C38.3494 45.1183 35.4527 51.3344 34.8368 57.9691C34.2208 64.6038 35.9237 71.2469 39.6553 76.7672L44.8278 71.5948Z" fill="white"/>
<path d="M82.1722 49.6896C84.6072 53.8233 85.6 58.6488 84.9946 63.408C84.3892 68.1673 82.2199 72.5905 78.8275 75.9829C75.4351 79.3753 71.0119 81.5446 66.2526 82.15C61.4934 82.7554 56.6679 81.7626 52.5342 79.3276L47.3618 84.5C52.9017 88.261 59.5794 89.9731 66.2455 89.3414C72.9115 88.7096 79.1488 85.7737 83.8836 81.039C88.6183 76.3042 91.5542 70.0669 92.1859 63.4009C92.8177 56.7348 91.1056 50.0571 87.3446 44.5172L82.1722 49.6896Z" fill="white"/>
<path d="M32.4655 98C36.0363 98 38.931 95.1053 38.931 91.5345C38.931 87.9637 36.0363 85.069 32.4655 85.069C28.8947 85.069 26 87.9637 26 91.5345C26 95.1053 28.8947 98 32.4655 98Z" fill="white"/>
</g>
<defs>
<clipPath id="clip0">
<rect width="128" height="128" fill="white"/>
</clipPath>
</defs>
</svg>
