<svg viewBox="0 0 128 128" fill="none" xmlns="http://www.w3.org/2000/svg">
<g clip-path="url(#clip0_207:221)">
<path d="M63.9999 -0.000234477C28.6536 -0.000237567 -0.000220197 28.6536 -0.000223287 63.9999C-0.000226377 99.3462 28.6536 128 63.9999 128C99.3462 128 128 99.3462 128 63.9999C128 28.6536 99.3462 -0.000231387 63.9999 -0.000234477Z" fill="#110F23"/>
<path d="M64.0548 27.6948C63.5216 43.7909 63.5379 61.1168 64.0548 77.3124C64.5128 61.1222 64.5278 43.7915 64.0548 27.6948ZM46.0852 112.875L46.1214 113C46.278 112.924 46.4407 112.857 46.5944 112.772C49.8011 111.016 53.2091 109.724 56.6809 108.602C61.1036 107.174 65.5925 107.016 70.0772 108.241C73.9506 109.298 77.6958 110.773 81.2459 112.641C81.4671 112.756 81.6533 112.987 81.9762 112.92C81.945 112.861 81.9057 112.806 81.8593 112.758C76.2738 108.494 70.6882 104.23 65.1027 99.9638C64.3157 99.3599 63.68 99.4216 62.9112 100.016C57.3076 104.317 51.6985 108.603 46.0852 112.875ZM42.767 51.827C42.4019 52.293 42.573 52.6417 42.9279 53.0125C44.2716 54.4286 45.0808 56.1358 45.6375 57.9731C46.3244 60.2369 46.5871 62.5653 46.695 64.9177C46.8613 68.5305 46.8095 72.1439 46.7426 75.7573C46.6523 80.5742 46.6274 85.3921 46.6679 90.2097C46.7131 95.5249 45.9738 100.701 44.2662 105.746C43.5997 107.714 42.9345 109.681 42 111.766C42.1506 111.717 42.2971 111.657 42.438 111.585C47.3126 107.687 52.1661 103.759 57.2449 100.121C57.8987 99.6529 57.9041 99.064 57.5058 98.4602C57.1054 97.8557 56.67 97.2749 56.2019 96.7206C54.8486 95.1182 54.3135 93.2468 54.281 91.1999C54.2388 88.5204 54.1858 85.8415 54.1533 83.1638C54.0364 73.2893 54.1111 63.4165 53.9906 53.536C53.8369 40.8628 53.8351 28.1878 53.7676 15.5152V15.0066H53.5851C53.0247 20.0379 52.4523 25.0566 51.4834 30.0244C49.9656 37.8293 47.6934 45.3508 42.767 51.827ZM74.1444 37.979C73.9889 49.3248 74.1263 60.6736 73.9437 72.0193C73.8485 77.9174 73.8672 83.8197 73.8853 89.7238C73.8943 92.7172 73.2737 95.456 71.1257 97.7036C70.9262 97.9288 70.7461 98.1709 70.587 98.426C70.111 99.1269 70.2218 99.6798 70.9365 100.191C75.8152 103.69 80.4922 107.448 85.1709 111.2C85.3866 111.381 85.5746 111.643 86 111.59C84.4406 108.115 83.3813 104.545 82.4866 100.914C82.1395 99.5115 81.7961 98.1044 81.6737 96.6607C81.3707 93.118 81.458 89.5627 81.3887 86.0128C81.2719 79.9356 81.3303 73.8548 81.3032 67.7661C81.281 65.6895 81.4085 63.6139 81.6846 61.5553C82.072 58.7896 82.7348 56.1083 84.4732 53.8194C85.609 52.3218 85.6258 52.3278 84.5153 50.7487C80.6603 45.2579 78.564 39.0651 77.1246 32.6123C75.8303 26.8016 75.1253 20.9089 74.5276 15H74.2944C74.2173 22.6653 74.2486 30.3216 74.1444 37.979Z" fill="white"/>
<path d="M64.0001 125.867C98.1682 125.867 125.867 98.1684 125.867 64.0003C125.867 29.8322 98.1682 2.13354 64.0001 2.13354C29.832 2.13354 2.1333 29.8322 2.1333 64.0003C2.1333 98.1684 29.832 125.867 64.0001 125.867Z" stroke="black" stroke-opacity="0.097"/>
</g>
<defs>
<clipPath id="clip0_207:221">
<rect width="128" height="128" fill="white"/>
</clipPath>
</defs>
</svg>
