<svg viewBox="0 0 128 128" fill="none" xmlns="http://www.w3.org/2000/svg">
<path d="M64.6711 116.643C93.7504 116.643 117.324 93.0697 117.324 63.9905C117.324 34.9113 93.7504 11.3379 64.6711 11.3379C35.5919 11.3379 12.0186 34.9113 12.0186 63.9905C12.0186 93.0697 35.5919 116.643 64.6711 116.643Z" fill="url(#paint0_linear_703_10509)"/>
<path d="M64.0002 0C28.6587 0 0.00976562 28.649 0.00976562 63.9904C0.00976562 99.3318 28.6587 127.981 64.0002 127.981C99.3416 127.981 127.991 99.3318 127.991 63.9904C127.991 28.649 99.3416 0 64.0002 0ZM50.5578 114.582C42.1011 107.86 14.1329 95.9329 47.9546 49.9679C51.7323 44.4788 49.6901 38.587 46.5452 36.4153C43.4003 34.2484 36.9716 34.0183 32.5179 40.5046C12.6899 69.8822 19.0084 93.766 34.7999 106.772C18.251 97.582 -1.58664 59.834 26.8514 28.0018C29.5073 25.0295 41.1232 15.6045 55.5435 25.7966C69.9639 35.9886 62.701 52.3074 59.6616 56.622C50.6968 69.3405 25.4803 98.8237 73.9717 115.454C64.2878 117.477 52.9404 114.912 50.553 114.586L50.5578 114.582ZM102.769 99.9838C100.137 102.98 88.5886 112.487 74.0963 102.405C59.5993 92.323 66.7375 75.9515 69.7434 71.6129C78.6075 58.8225 103.599 29.1524 54.9874 12.8959C64.6569 10.7961 76.0235 13.2794 78.4109 13.5862C86.9155 20.2403 114.975 31.9521 81.5031 78.1759C77.7685 83.6938 79.8539 89.5712 83.018 91.7142C86.182 93.8571 92.6108 94.0393 97.0117 87.5194C116.614 57.9931 110.114 34.1573 94.2264 21.271C110.847 30.3413 130.972 67.9359 102.779 99.9838H102.769Z" fill="black"/>
<defs>
<linearGradient id="paint0_linear_703_10509" x1="12.0233" y1="63.9905" x2="117.324" y2="63.9905" gradientUnits="userSpaceOnUse">
<stop stop-color="#0082FA"/>
<stop offset="1" stop-color="#08F0FF"/>
</linearGradient>
</defs>
</svg>
