<svg viewBox="0 0 128 128" fill="none" xmlns="http://www.w3.org/2000/svg">
<g clip-path="url(#clip0)">
<path d="M64 -0.000127316C30.8629 -0.000130213 4.00001 26.8628 4.00001 59.9999C4 93.137 30.8629 120 64 120C97.1371 120 124 93.137 124 59.9999C124 26.8628 97.1371 -0.000124419 64 -0.000127316Z" fill="black"/>
<path d="M64 118C96.0325 118 122 92.0325 122 60C122 27.9675 96.0325 2 64 2C31.9675 2 6 27.9675 6 60C6 92.0325 31.9675 118 64 118Z" stroke="black" stroke-opacity="0.097"/>
<path d="M33 32L65 19L95 25.5L105 47.5V76L65 96L29 91L26.5 55L33 32Z" fill="white"/>
<path d="M64 6L17 33V87L64 114L111 87V33L64 6ZM64.9609 93.4642L28.8858 72.9908L29.032 63.0346L64.94 83.4873L82.2569 73.552L70.6427 66.8799L66.2978 69.3741L58.1511 64.7182L62.5169 62.2032L56.8142 58.9192L53.3676 60.9146L45.2 56.2587L48.6676 54.2633L30.2644 43.6836L64.94 23.7714L97.652 42.3326L88.8787 47.4042L64.94 33.7483L47.6231 43.6836L57.3156 49.254L62.2662 46.3857L70.4338 51.0416L65.4413 53.9099L71.144 57.194L75.1964 54.8453L83.364 59.5012L79.2698 61.8707L99.5738 73.5312L64.9609 93.4642V93.4642Z" fill="black"/>
</g>
<defs>
<clipPath id="clip0">
<rect width="128" height="128" fill="white"/>
</clipPath>
</defs>
</svg>
