<svg viewBox="0 0 128 128" fill="none" xmlns="http://www.w3.org/2000/svg">
<g clip-path="url(#clip0_703_10512)">
<path d="M64.0002 127.501C99.3411 127.501 127.991 98.8519 127.991 63.5109C127.991 28.17 99.3411 -0.479492 64.0002 -0.479492C28.6592 -0.479492 0.00976562 28.17 0.00976562 63.5109C0.00976562 98.8519 28.6592 127.501 64.0002 127.501Z" fill="#161F24"/>
<path d="M68.209 81.1145V99.6865L83.6936 90.6402L68.209 81.1145Z" fill="#019E9F"/>
<path d="M27.7861 41.842V60.414L43.2756 51.3677L27.7861 41.842Z" fill="#0A695B"/>
<path d="M36.3291 60.2654V78.8374L51.8137 69.7863L36.3291 60.2654Z" fill="#0F5853"/>
<path d="M47.7822 48.7358V67.3078L63.2717 58.2615L47.7822 48.7358Z" fill="#144445"/>
<path d="M68.209 61.0564V79.6284L83.6936 70.5821L68.209 61.0564Z" fill="#06B2A8"/>
<path d="M68.209 42.4844V61.0564L83.6936 52.0101L68.209 42.4844Z" fill="#02B39F"/>
<path d="M68.209 23.9126V42.4846L83.6936 33.4383L68.209 23.9126Z" fill="#00D6BE"/>
<path d="M83.6934 70.5823V89.1543L99.1828 80.1032L83.6934 70.5823Z" fill="#00D4D2"/>
<path d="M83.6934 52.0103V70.5822L99.1828 61.5312L83.6934 52.0103Z" fill="#02B3AC"/>
<path d="M83.6934 33.438V52.01L99.1828 42.9589L83.6934 33.438Z" fill="#03C5B8"/>
<path d="M83.6936 70.5822V52.0103L68.209 61.0565L83.6936 70.5822Z" fill="#00D0BF"/>
<path d="M83.6936 52.01V33.438L68.209 42.4843L83.6936 52.01Z" fill="#00D6BE"/>
<path d="M68.2092 79.6284V61.0564L52.7197 70.1075L68.2092 79.6284Z" fill="#068E84"/>
<path d="M68.2092 42.4846V23.9126L52.7197 32.9637L68.2092 42.4846Z" fill="#06B49B"/>
<path d="M83.6936 89.1543V70.5823L68.209 79.6286L83.6936 89.1543Z" fill="#04A19C"/>
<path d="M64.9875 96.2492V77.6772L49.498 86.7235L64.9875 96.2492Z" fill="#086A69"/>
<path d="M65.8459 59.8437V41.2717L50.3564 50.318L65.8459 59.8437Z" fill="#0A8F84"/>
<path d="M50.3567 50.3177V31.7505L34.8721 40.7968L50.3567 50.3177Z" fill="#0A8F79"/>
<path d="M47.7814 67.3078V48.7358L32.292 57.7869L47.7814 67.3078Z" fill="#04CFAB"/>
<path d="M36.3293 83.6411V65.0691L20.8398 74.1154L36.3293 83.6411Z" fill="#0B8675"/>
<path d="M99.1828 61.531V42.959L83.6934 52.0101L99.1828 61.531Z" fill="#05D5CB"/>
<path d="M99.1828 80.103V61.531L83.6934 70.5821L99.1828 80.103Z" fill="#00C4C2"/>
<path d="M50.3564 39.6321V58.2041L65.8459 49.1578L50.3564 39.6321Z" fill="#00C8AC"/>
<path d="M46.3818 73.3867V91.9587L61.8713 82.9124L46.3818 73.3867Z" fill="#08C6B2"/>
</g>
<defs>
<clipPath id="clip0_703_10512">
<rect width="128" height="128" fill="white"/>
</clipPath>
</defs>
</svg>
