<svg viewBox="0 0 128 128" fill="none" xmlns="http://www.w3.org/2000/svg">
<path d="M123.997 59.9941C123.997 93.1269 97.1371 119.988 63.9986 119.988C30.8601 119.988 4 93.1269 4 59.9941C4 26.8614 30.8607 6.10352e-05 63.9986 6.10352e-05C97.1364 6.10352e-05 123.997 26.8589 123.997 59.9941Z" fill="#FF564F"/>
<g clip-path="url(#clip0)">
<path opacity="0.2" d="M42.8557 81.1559L46.4872 92L71.4147 59.5L46.4872 27L42.6787 37.6088L59.2371 59.4941L42.8557 81.1559Z" fill="white"/>
<path d="M95.9912 91.9941H84.1617L59.2283 59.4941L84.1617 27H95.9912L71.4088 59.4941L95.9912 91.9941Z" fill="#F08179"/>
<path d="M37 27H46.4813V91.9941H37V27Z" fill="white"/>
<path d="M96.0002 91.9941H84.1707L59.2373 59.4941L84.1707 27H96.0002L71.4179 59.4941L96.0002 91.9941Z" fill="white"/>
</g>
<path d="M64 118C96.0325 118 122 92.0325 122 60C122 27.9675 96.0325 2 64 2C31.9675 2 6 27.9675 6 60C6 92.0325 31.9675 118 64 118Z" stroke="black" stroke-opacity="0.097"/>
<defs>
<clipPath id="clip0">
<rect width="59" height="65" fill="white" transform="translate(37 27)"/>
</clipPath>
</defs>
</svg>
