<svg viewBox="0 0 128 128" fill="none" xmlns="http://www.w3.org/2000/svg">
<path d="M64.0002 0C28.6587 0 0.00976562 28.649 0.00976562 63.9904C0.00976562 99.3318 28.6587 127.981 64.0002 127.981C99.3416 127.981 127.991 99.3318 127.991 63.9904C127.991 28.649 99.3416 0 64.0002 0ZM90.8322 49.4742H86.7669L74.6812 63.674L86.8772 77.9314H90.7795V89.2596H65.0884V77.9314H68.8805L60.8026 68.77H57.4899V78.2574H62.0298V89.6767H37.0051V78.2574H42.5422V49.6851H37.0051V38.3089H43.3284V42.6091H46.6363V38.3089H52.7774V42.6091H56.1572V38.3089H62.2264V49.5125H57.6913V58.9615H61.071L69.1825 49.5125H65.1747V38.3089H91.1582L90.8322 49.4742Z" fill="black"/>
<path d="M86.7667 49.4741L74.6762 63.6739L86.8722 77.9313H90.7745V89.2596H65.0834V77.9313H68.8802L60.8023 68.77H57.4897V78.2573H62.0296V89.6766H37.0049V78.2573H42.542V49.685H37.0049V38.3088H43.3282V42.6091H46.636V38.3088H52.782V42.6091H56.1569V38.3088H62.2309V49.5076H57.6958V58.9614H61.0708L69.1823 49.5076H65.1745V38.3088H91.158L90.832 49.4741H86.7667Z" fill="#49DBB4"/>
</svg>
