<svg viewBox="0 0 128 128" fill="none" xmlns="http://www.w3.org/2000/svg">
<path d="M123.997 59.9941C123.997 93.1269 97.1371 119.988 63.9986 119.988C30.8601 119.988 4 93.1269 4 59.9941C4 26.8614 30.8607 6.10352e-05 63.9986 6.10352e-05C97.1364 6.10352e-05 123.997 26.8589 123.997 59.9941Z" fill="url(#paint0_linear)"/>
<g clip-path="url(#clip0)">
<path d="M26.0001 59.9645C25.983 70.0428 29.9703 79.715 37.0846 86.8534C44.199 93.9918 53.8576 98.0117 63.9359 98.0287C74.0141 98.0457 83.6863 94.0585 90.8247 86.9442C97.9631 79.8298 101.983 70.1711 102 60.0929V59.8053C101.999 56.8823 101.654 53.9695 100.973 51.127C100.695 50.1062 100.032 49.233 99.1234 48.6916C98.2146 48.1501 97.1311 47.9825 96.1012 48.2242C95.0713 48.4658 94.1754 49.0979 93.6023 49.9871C93.0292 50.8763 92.8236 51.9532 93.029 52.991V52.991C94.5655 59.323 93.9913 65.9837 91.3937 71.9593C88.7962 77.935 84.3176 82.8984 78.6395 86.0943C72.9614 89.2903 66.3946 90.5437 59.9385 89.6639C53.4824 88.7841 47.4904 85.8192 42.8745 81.2205C38.2586 76.6217 35.2714 70.6409 34.3676 64.1881C33.4638 57.7353 34.6928 51.1639 37.8675 45.4739C41.0423 39.7839 45.9891 35.2869 51.955 32.6671C57.9209 30.0474 64.5794 29.4484 70.9171 30.9613C71.9677 31.2064 73.0726 31.0252 73.9898 30.4574C74.9071 29.8895 75.5619 28.9812 75.8109 27.9316C75.9373 27.4142 75.9598 26.8768 75.8769 26.3507C75.7939 25.8246 75.6073 25.3202 75.3278 24.8668C75.0483 24.4134 74.6816 24.0201 74.2488 23.7096C73.816 23.3991 73.3259 23.1778 72.8068 23.0583C67.9578 21.893 62.9266 21.6948 58.0009 22.4749C53.0752 23.2551 48.3515 24.9984 44.1 27.6052C39.8484 30.2119 36.1522 33.631 33.2227 37.667C30.2933 41.7031 28.1879 46.2768 27.0271 51.127C26.3477 54.0238 26.0031 56.9891 26.0001 59.9645V59.9645Z" fill="white"/>
<path d="M83.2979 31.9981C83.2312 32.0649 83.2004 32.1316 83.1644 32.1624C82.2288 33.1555 81.6537 34.434 81.5315 35.793V36.4451C81.5315 36.6095 81.5006 36.7378 81.5006 36.9022C81.3613 38.3377 80.9398 39.7315 80.2603 41.0037C79.5809 42.2758 78.6569 43.4013 77.5414 44.3155C76.4259 45.2296 75.1408 45.9145 73.7599 46.3307C72.3791 46.747 70.9296 46.8864 69.4947 46.7411C69.0108 46.6988 68.5304 46.6233 68.0569 46.5151C67.778 46.4572 67.5034 46.38 67.2352 46.2841C66.071 45.9903 64.8717 45.859 63.6715 45.8938C60.1712 45.9622 56.8172 47.3104 54.2434 49.6835C54.115 49.8119 53.9506 49.9146 53.8171 50.0738C52.4085 51.3752 51.2772 52.9476 50.4909 54.6968C49.7047 56.446 49.2798 58.3359 49.2416 60.2533C49.2034 62.1707 49.5528 64.0761 50.2688 65.8552C50.9848 67.6343 52.0527 69.2505 53.4084 70.6069C54.7641 71.9633 56.3798 73.032 58.1585 73.7489C59.9373 74.4658 61.8424 74.8162 63.7599 74.779C65.6773 74.7418 67.5674 74.3178 69.317 73.5325C71.0666 72.7472 72.6396 71.6166 73.9417 70.2086C74.5304 69.6142 75.0664 68.9699 75.5439 68.283C76.6922 66.6311 77.4785 64.7551 77.8511 62.7781C78.2236 60.8011 78.1741 58.7676 77.7058 56.8111C77.6246 56.5531 77.5578 56.2908 77.5055 56.0254C77.5055 55.9895 77.4747 55.9586 77.4747 55.8919C77.1478 54.4857 77.1019 53.0288 77.3395 51.6048C77.5772 50.1808 78.0937 48.8178 78.8595 47.594C79.6253 46.3702 80.6253 45.3096 81.802 44.4733C82.9787 43.6369 84.309 43.0412 85.7166 42.7203C86.2218 42.5964 86.7376 42.5207 87.2571 42.4943L87.4831 42.4584C87.7115 42.4327 87.9414 42.4224 88.1712 42.4276H88.2379C89.6576 42.2915 90.9861 41.6671 91.9969 40.6611C92.2279 40.3992 92.459 40.1476 92.6542 39.8754C93.1221 39.2202 93.4553 38.4787 93.6345 37.6938C93.8138 36.9089 93.8355 36.0963 93.6984 35.3029C93.5613 34.5096 93.2682 33.7513 92.8359 33.0721C92.4037 32.3928 91.841 31.8061 91.1804 31.3459C89.9988 30.5126 88.5617 30.1213 87.1207 30.2405C85.6797 30.3597 84.3265 30.9819 83.2979 31.9981V31.9981Z" fill="white"/>
</g>
<path d="M64 118C96.0325 118 122 92.0325 122 60C122 27.9675 96.0325 2 64 2C31.9675 2 6 27.9675 6 60C6 92.0325 31.9675 118 64 118Z" stroke="black" stroke-opacity="0.097"/>
<defs>
<linearGradient id="paint0_linear" x1="63.9986" y1="6.10352e-05" x2="63.9986" y2="119.988" gradientUnits="userSpaceOnUse">
<stop stop-color="#1B456E"/>
<stop offset="1" stop-color="#01EDD3"/>
</linearGradient>
<clipPath id="clip0">
<rect width="76" height="76" fill="white" transform="translate(26 22)"/>
</clipPath>
</defs>
</svg>
