<svg viewBox="0 0 128 128" fill="none" xmlns="http://www.w3.org/2000/svg">
<g clip-path="url(#clip0)">
<path d="M123.997 59.9941C123.997 93.1269 97.1371 119.988 63.9986 119.988C30.8601 119.988 4 93.1269 4 59.9941C4 26.8614 30.8607 6.10352e-05 63.9986 6.10352e-05C97.1364 6.10352e-05 123.997 26.8589 123.997 59.9941Z" fill="#31CB9E"/>
<g clip-path="url(#clip1)">
<path d="M59.7021 59.9946L86.8298 75.3718C87.0478 75.5015 87.2968 75.5714 87.5511 75.5743C87.8055 75.5772 88.056 75.513 88.277 75.3884C88.498 75.2637 88.6814 75.0831 88.8085 74.865C88.9356 74.647 89.0017 74.3994 89 74.1476V45.8201C89.0032 45.568 88.9379 45.3196 88.8109 45.1011C88.6838 44.8825 88.4997 44.7017 88.2779 44.5777C88.056 44.4536 87.8046 44.3909 87.5498 44.396C87.2951 44.4011 87.0464 44.4739 86.8298 44.6067L59.7021 59.9946Z" fill="white"/>
<path d="M86.2546 37.7986L67.7101 24.3007C67.5181 24.1548 67.2928 24.0579 67.054 24.0185C66.8152 23.9791 66.5703 23.9985 66.3409 24.0749C66.1115 24.1513 65.9045 24.2824 65.7384 24.4566C65.5722 24.6308 65.4519 24.8427 65.388 25.0738L58.6169 55.1409L86.0918 40.1074C86.3009 40.0009 86.4787 39.843 86.608 39.6487C86.7374 39.4545 86.814 39.2305 86.8303 38.9984C86.8467 38.7663 86.8023 38.5339 86.7015 38.3238C86.6006 38.1136 86.4467 37.9328 86.2546 37.7986" fill="white"/>
<path d="M67.6884 95.6778L86.2546 82.1799C86.4493 82.0445 86.6055 81.8618 86.7084 81.6495C86.8113 81.4371 86.8573 81.2022 86.842 80.9672C86.8268 80.7322 86.7508 80.5051 86.6213 80.3075C86.4919 80.1099 86.3133 79.9486 86.1027 79.8389L58.6169 64.8054L65.388 94.8725C65.4442 95.1061 65.5581 95.3222 65.7196 95.5015C65.881 95.6807 66.0849 95.8175 66.313 95.8995C66.5411 95.9815 66.7862 96.0061 67.0262 95.9711C67.2663 95.9362 67.4939 95.8428 67.6884 95.6993" fill="white"/>
<path d="M52.6489 59.4363L59.7021 26.792C59.7559 26.5215 59.727 26.2412 59.619 25.987C59.511 25.7329 59.3287 25.5164 59.0957 25.3654C58.8626 25.2143 58.5893 25.1355 58.3107 25.139C58.0321 25.1426 57.7609 25.2283 57.5319 25.3853L39.4648 39.098C39.0073 39.4453 38.6371 39.8926 38.383 40.4048C38.1289 40.917 37.9978 41.4804 37.9999 42.051V76.843C37.9911 77.4208 38.1189 77.9927 38.3733 78.5129C38.6276 79.0331 39.0015 79.4873 39.4648 79.839L57.4451 93.5088C57.6741 93.6657 57.9453 93.7514 58.2239 93.755C58.5025 93.7585 58.7758 93.6797 59.0089 93.5287C59.2419 93.3776 59.4241 93.1611 59.5322 92.907C59.6402 92.6528 59.6691 92.3726 59.6153 92.102L52.6489 59.4363Z" fill="white"/>
</g>
</g>
<path d="M64 118C96.0325 118 122 92.0325 122 60C122 27.9675 96.0325 2 64 2C31.9675 2 6 27.9675 6 60C6 92.0325 31.9675 118 64 118Z" stroke="black" stroke-opacity="0.097"/>
<defs>
<clipPath id="clip0">
<rect width="120" height="120" fill="white" transform="translate(4)"/>
</clipPath>
<clipPath id="clip1">
<rect width="51" height="72" fill="white" transform="translate(38 24)"/>
</clipPath>
</defs>
</svg>
