<svg viewBox="0 0 128 128" fill="none" xmlns="http://www.w3.org/2000/svg">
<g clip-path="url(#clip0)">
<path d="M128 64.0002C128 99.3453 99.3486 128 64 128C28.6514 128 0 99.3453 0 64.0002C0 28.655 28.6521 0 64 0C99.3479 0 128 28.6523 128 64.0002Z" fill="white"/>
<g clip-path="url(#clip1)">
<path d="M44.767 98.9282C43.7408 98.7847 42.3961 98.2105 41.4761 97.5287C40.9453 97.134 40.0607 96.1651 39.8838 95.7344C39.8484 95.6268 39.6714 95.2679 39.4945 94.945C38.9637 93.7608 38.9991 94.4785 38.9991 79.2632C39.0345 65.6627 39.0345 63.3301 39.2114 62.7919C39.5653 61.7153 40.0253 60.9617 40.8392 60.1364C41.2638 59.7057 41.83 59.2392 42.0777 59.0598C43.1039 58.4498 44.3424 58.0909 45.2978 58.055H45.7578L45.7932 51.4163C45.8286 44.3828 45.8285 39.323 46.0055 38.39C47.3501 31.4641 52.5164 26.1531 59.6644 24.4306C61.2213 24.0718 62.0706 24 64.123 24C66.2461 24 66.9892 24.1077 68.9 24.5742C72.1201 25.3995 75.3048 27.3014 77.6049 29.7416C79.6927 31.9665 81.2143 34.8732 81.8512 37.7799C82.1697 39.3589 82.2051 44.8493 82.2051 51.9187V58.0909H82.7005C83.7266 58.0909 85.2482 58.6292 86.3098 59.3469C87.6191 60.2799 88.6453 61.8589 88.9283 63.4019C88.9991 63.7967 88.9991 70.2919 88.9991 79.9809L88.9637 93.8325L88.7514 94.3349C88.3268 95.4115 87.9022 96.1651 87.1591 96.8828C86.416 97.6364 85.779 98.067 84.7882 98.4976C83.5143 99 84.5405 99 63.946 99C53.578 98.9641 44.9439 98.9641 44.767 98.9282ZM83.1251 94.622C83.7266 94.4067 84.0097 94.1555 84.2928 93.6172L84.5405 93.1866V79.6579V63.9402L84.3282 63.5455C84.0805 63.0789 83.5497 62.6124 83.0543 62.4689C82.842 62.3971 76.6141 62.3971 63.946 62.3971H45.1208L44.6608 62.6124C44.1654 62.8636 43.7762 63.3301 43.5993 63.7967C43.5285 64.012 43.4931 69.7536 43.4931 79.7297C43.4931 92.6124 43.4931 93.2225 43.67 93.5455C43.7408 93.7608 43.9885 94.0478 44.2008 94.2273C44.9439 94.8732 43.3162 94.8373 64.0522 94.8373C82.5235 94.8014 82.6651 94.8014 83.1251 94.622ZM77.7111 51.7392C77.7111 47.0742 77.6757 39.7536 77.6049 39.3589C77.3218 37.4928 76.6141 35.6986 75.5525 34.0837C74.9156 33.1507 73.0402 31.2847 72.1201 30.6746C69.2539 28.7727 65.7861 27.8756 62.4598 28.2703C59.0628 28.6651 56.2673 29.9928 54.0026 32.3254C52.2334 34.1196 51.1364 36.0574 50.5348 38.5694C50.3579 39.3589 50.3225 44.2033 50.3225 51.4522V58.1268H64.0168H77.7111V51.7392Z" fill="#007AFF"/>
<path d="M68.6532 81.7033C68.6532 84.2871 66.5655 86.4043 64.0177 86.4043C61.4699 86.4043 59.3822 84.2871 59.3822 81.7033C59.3822 79.9091 60.373 78.366 61.8238 77.5765V75.5311C61.8238 72.5526 61.8592 70.9378 62.4607 70.3277C63.3454 69.4306 64.7254 69.4306 65.6101 70.2918C66.2116 70.9019 66.247 72.445 66.247 75.4234V77.5765C67.6978 78.366 68.6532 79.9091 68.6532 81.7033Z" fill="#007AFF"/>
</g>
<path d="M64 125C97.6894 125 125 97.6894 125 64C125 30.3106 97.6894 3 64 3C30.3106 3 3 30.3106 3 64C3 97.6894 30.3106 125 64 125Z" stroke="black" stroke-opacity="0.097"/>
</g>
<defs>
<clipPath id="clip0">
<rect width="128" height="128" fill="white"/>
</clipPath>
<clipPath id="clip1">
<rect width="50" height="75" fill="white" transform="translate(39 24)"/>
</clipPath>
</defs>
</svg>
