<svg viewBox="0 0 128 128" fill="none" xmlns="http://www.w3.org/2000/svg">
<g clip-path="url(#clip0)">
<path d="M64 -0.000249386C30.8629 -0.000252283 4.00001 26.8627 4.00001 59.9997C4 93.1368 30.8629 120 64 120C97.1371 120 124 93.1368 124 59.9998C124 26.8627 97.1371 -0.000246489 64 -0.000249386Z" fill="black"/>
<path d="M102.856 35.8856C101.532 34.8367 99.9537 33.4041 97.0764 33.0459C94.3773 32.6878 91.6273 34.5042 89.7685 35.7065C87.9097 36.9089 84.3958 40.4394 82.9444 41.5138C81.4931 42.5883 77.7755 43.586 71.7917 47.1932C65.8079 50.8004 42.331 65.9454 42.331 65.9454L48.4421 66.0221L21.1968 80.1182H23.9213L20 83.1114C20 83.1114 23.463 84.0324 26.3657 82.1904V83.0347C26.3657 83.0347 58.8056 70.1921 65.0694 73.5179L61.25 74.6435C61.581 74.6435 67.7431 75.0528 67.7431 75.0528C67.8926 76.3349 68.3215 77.568 68.9993 78.6646C69.677 79.7612 70.587 80.6942 71.6644 81.3974C75.3819 83.8533 75.4583 85.2092 75.4583 85.2092C75.4583 85.2092 73.5231 86.0023 73.5231 87C73.5231 87 76.375 86.1302 79.0232 86.2069C80.7038 86.271 82.3708 86.5372 83.9884 87C83.9884 87 83.7847 85.9255 81.213 85.2092C78.6412 84.4929 76.0949 81.6788 74.8472 80.1438C74.083 79.1668 73.5849 78.0068 73.4019 76.7778C73.2188 75.5488 73.3571 74.2931 73.8032 73.1341C74.6944 70.8061 77.8009 69.527 84.2176 66.2012C91.7801 62.2615 93.5116 59.345 94.581 57.0682C95.6505 54.7913 97.2292 50.2631 98.1204 48.1398C99.2407 45.4024 100.616 43.9442 101.762 43.0744C102.907 42.2046 108 40.2859 108 40.2859C108 40.2859 104.104 36.8834 102.856 35.8856Z" fill="white"/>
<path d="M64 118C96.0325 118 122 92.0325 122 60C122 27.9675 96.0325 2 64 2C31.9675 2 6 27.9675 6 60C6 92.0325 31.9675 118 64 118Z" stroke="black" stroke-opacity="0.097"/>
</g>
<defs>
<clipPath id="clip0">
<rect width="128" height="128" fill="white"/>
</clipPath>
</defs>
</svg>
