<svg viewBox="0 0 128 128" fill="none" xmlns="http://www.w3.org/2000/svg">
<path d="M64.0002 127.981C99.3411 127.981 127.991 99.3313 127.991 63.9904C127.991 28.6495 99.3411 0 64.0002 0C28.6592 0 0.00976562 28.6495 0.00976562 63.9904C0.00976562 99.3313 28.6592 127.981 64.0002 127.981Z" fill="#12021E"/>
<path d="M45.9743 57.4658H46.0078L46.5879 57.6671L47.1296 57.8733L47.7097 58.0459L48.2562 58.2856L48.8363 58.4869L49.3828 58.693L49.9629 58.8992L50.5094 59.1005L51.0559 59.3067L51.6024 59.5128L52.1825 59.7142L52.7242 59.9539L53.3043 60.1265L53.8508 60.3278L54.4309 60.5339L54.9774 60.7736L55.5575 60.9798L56.104 61.1476L56.6505 61.3537L57.2306 61.5934L57.8107 61.7948V60.9079V60.7736V60.0593V59.5464V59.1724V58.2856V57.4322V56.5453V55.692V54.7715V53.9182V53.8127H57.1251H56.4779H56.4108H55.6917H55.15H54.9438H54.2247H53.8508H53.4769H52.7242H52.5229H52.0099H51.2956H51.2573H51.2237H50.5429H49.9293H49.8286H49.076H48.5966H47.3022H46.0078H45.9743H45.2216L44.6751 54.086L43.3807 54.7715L42.048 55.4859L40.72 56.133L39.4592 56.8186L38.1265 57.5329L36.7985 58.1801L35.4994 58.8992L34.1714 59.5799L32.8722 60.2271L31.5779 60.9462L30.3841 61.5599L30.2451 81.105L31.5779 82.0255L32.8722 82.9459L34.1714 83.8328L35.4994 84.7868L36.7985 85.7073L38.1265 86.6277L38.7065 87.0736L39.4592 86.1196L40.72 84.4129L40.8543 84.2403L40.72 84.1396L39.4592 83.2192L38.1265 82.2987L36.7985 81.3783L35.4994 80.4531L34.1714 79.499L33.831 79.2977L33.9317 63.4679L34.1714 63.3336L35.4994 62.6817L36.7985 62.0345L38.1265 61.3873L39.4592 60.7401L40.72 60.0593L42.048 59.4074L43.3807 58.7937L44.6751 58.113L45.9743 57.4658Z" fill="url(#paint0_linear_703_10541)"/>
<path d="M68.554 94.7487L67.461 95.1897L66.2337 95.7027L65.0065 96.1821L63.7792 96.6903L63.2327 96.8964L62.5855 96.5896L61.3582 95.9424L60.1262 95.3623L58.9324 94.7151L57.7052 94.1015L56.4779 93.5214L55.2506 92.8694L54.0234 92.2558L52.7961 91.6422L51.5641 91.0285L50.3368 90.3814L49.1766 89.8013L47.9494 89.1876L47.8151 89.1205V73.1565H46.7221H45.4948H44.2676V91.3018L45.4948 91.8819L46.7221 92.4955L47.9494 93.1427L49.1766 93.7228L50.3368 94.3748L51.5641 94.9884L52.7961 95.602L54.0234 96.2157L55.2506 96.8293L56.4779 97.4429L57.7052 98.0566L58.9324 98.7038L60.1262 99.2838L61.3582 99.931L62.5855 100.511L63.0601 100.784L63.7792 100.444L65.0065 100.003L66.2337 99.49L67.461 98.977L68.6547 98.5024L69.882 98.023L68.6547 94.9548L68.554 94.7487Z" fill="url(#paint1_linear_703_10541)"/>
<path d="M90.3527 72.5765L90.4198 80.0791L90.113 80.3524L88.0324 81.7858L85.9518 83.2863L83.8712 84.7868L81.7906 86.2538L79.71 87.7208L77.6629 89.2213L75.5823 90.6883L74.3503 91.5751L73.5017 90.928L71.4547 89.322L69.3741 87.7543L67.2935 86.1531L65.2465 84.5807L64.8677 84.3122V76.2247L65.2465 75.8844L67.2935 73.7031L69.3741 71.5506L71.4547 69.3693L73.5017 67.2216L75.5104 65.1074H73.5017H71.4547H69.3741H67.2935H65.2465H63.1323H61.0517H59.0047H56.9241H54.8435H52.7964H50.7158L52.7964 67.2887L54.8435 69.4364L56.9241 71.5889L59.0047 73.7702L61.0517 75.9179L61.3585 76.2247V86.0141L63.1323 87.4139L65.2465 89.0151L67.2935 90.5876L69.3741 92.1888L71.4547 93.7564L73.5017 95.3624L74.2496 95.9425L75.5823 94.9885L77.6629 93.5551L79.71 92.0545L81.7906 90.554L83.8712 89.1206L85.9518 87.6201L88.0324 86.1196L90.113 84.6862L92.1936 83.1856L93.9002 81.92L94.2406 72.7107L92.1936 72.6436L90.3527 72.5765Z" fill="url(#paint2_linear_703_10541)"/>
<path d="M33.6252 55.1118H33.8649L33.8985 45.0828L35.2264 44.2294L36.8996 43.2418L38.5343 42.2495L40.1739 41.2284L41.8086 40.2408L43.4817 39.2149L45.0877 38.2273L46.756 37.235L48.3956 36.2138L50.0639 35.1879H50.1022L51.6699 36.1132L53.3382 37.0336L54.9778 37.9876L56.6173 38.9081L58.2521 39.8285L59.8916 40.749L61.5264 41.703L63.1324 42.6282L63.1995 42.4892L64.8342 39.5217L63.1995 38.5677L61.5264 37.6472L59.8916 36.7268L58.2521 35.8063L56.6173 34.8475L54.9778 33.9271L53.3382 33.0066L51.6699 32.0526L50.0639 31.1322L49.9968 31.0986L48.3956 32.0526L46.756 33.0738L45.0877 34.0997L43.4817 35.1208L41.8086 36.1132L40.1739 37.1007L38.5343 38.1219L36.8996 39.1142L35.2264 40.1353L33.6252 41.1277L31.9521 42.1153L30.3845 43.1028L30.3174 55.0783H31.9521L33.6252 55.1118Z" fill="url(#paint3_linear_703_10541)"/>
<path d="M97.7539 45.9362L96.9006 45.2506L96.0472 44.5699L95.1939 43.8556L94.3406 43.17L93.4872 42.4893L92.6003 41.8085L91.747 41.1278L90.8937 40.4422L90.0068 39.7279L89.3596 39.2485L89.1199 39.5218L88.2714 40.5813L87.418 41.6695L87.1783 41.9428L87.418 42.1825L88.2714 42.9016L89.1199 43.6159L90.0068 44.3302L90.8937 45.0493L91.747 45.7971L92.6003 46.5162L93.4872 47.2306L93.8995 47.5709L93.9331 63.7076L93.4872 64.0144L92.6003 64.5609L91.747 65.1074L90.8937 65.6491L90.0068 66.1957L89.1199 66.7422L88.2714 67.2887L87.418 67.8352L86.5647 68.3817L85.7113 68.9282L84.858 69.47L83.9711 70.0165L83.1178 70.563L82.2645 71.1095L81.4111 71.656L80.5242 72.2025L79.6709 72.7443L80.5242 74.1106L81.4111 75.4768L81.5501 75.7118L82.2645 75.2707L83.1178 74.7577L83.9711 74.2112L84.858 73.7031L85.7113 73.123L86.5647 72.61L87.418 72.0635L88.2714 71.5506L89.1199 71.0088L90.0068 70.4959L90.8937 69.9158L91.747 69.4028L92.6003 68.8563L93.4872 68.3482L94.3406 67.8016L95.1939 67.2887L96.0472 66.7086L96.9006 66.1957L97.7539 65.6491V45.9362Z" fill="url(#paint4_linear_703_10541)"/>
<path d="M69.6083 55.553V56.4399V57.3268V58.2137V59.1341V60.0594V60.9463V61.8331V62.5139L69.8816 62.4084L71.0417 61.9674L72.2019 61.488L73.3285 61.0469L74.4886 60.5675L75.6488 60.0929L76.7754 59.6471L77.9355 59.1725L79.0957 58.7266L80.2175 58.2472L81.3776 57.8062L82.5042 57.3268V56.4399V56.0995V53.7457V36.214L81.2098 35.3942L79.8771 34.6463L78.5491 33.8937L77.25 33.0739L75.922 32.326L74.5893 31.5734L73.2949 30.792L71.9622 30.0057L70.6678 29.2195L69.3399 28.4717L68.0071 27.6854L66.7127 26.8992L65.4136 26.1514L64.0856 25.3987L63.3665 24.9912L62.7529 25.3316L61.4249 26.0507L60.0922 26.7314L58.8314 27.4793L57.5034 28.1984L56.1707 28.8792L54.8428 29.6318L56.1707 30.3797L57.5034 31.1323L58.3184 31.6405L58.8314 31.372L60.0922 30.6865L61.4249 29.9722L62.7529 29.2914L63.2658 29.0182L64.0856 29.4928L65.4136 30.2454L66.7127 30.9933L68.0071 31.7795L69.3399 32.5657L70.6678 33.3136L71.9622 34.0998L73.2949 34.8812L74.5893 35.6339L75.922 36.3866L77.25 37.2015L78.5491 37.9542L78.9902 38.1939V53.7457H78.6834H78.5491H77.9355H77.25H77.1829H76.3966H75.922H75.6488H74.8961H74.5893H74.1482H73.3956H73.2949H72.6477H71.9622H71.8951H71.1136H70.6678H70.361H69.7809H69.6802" fill="url(#paint5_linear_703_10541)"/>
<path d="M69.6084 62.5138L82.5043 57.3267L69.6084 53.7456" fill="url(#paint6_linear_703_10541)"/>
<path d="M57.8107 62.514V53.8848L46.0078 57.3988L57.8107 62.4804" fill="url(#paint7_linear_703_10541)"/>
<defs>
<linearGradient id="paint0_linear_703_10541" x1="44.0279" y1="53.8127" x2="44.0279" y2="87.0688" gradientUnits="userSpaceOnUse">
<stop stop-color="#F6E93D"/>
<stop offset="0.13" stop-color="#F8E330"/>
<stop offset="0.35" stop-color="#F7C730"/>
<stop offset="0.64" stop-color="#F59C2E"/>
<stop offset="0.98" stop-color="#EB5E2C"/>
<stop offset="1" stop-color="#EB5C2C"/>
</linearGradient>
<linearGradient id="paint1_linear_703_10541" x1="57.0772" y1="73.1517" x2="57.0772" y2="100.784" gradientUnits="userSpaceOnUse">
<stop stop-color="#F6E93D"/>
<stop offset="0.13" stop-color="#F8E330"/>
<stop offset="0.35" stop-color="#F7C730"/>
<stop offset="0.64" stop-color="#F59C2E"/>
<stop offset="0.98" stop-color="#EB5E2C"/>
<stop offset="1" stop-color="#EB5C2C"/>
</linearGradient>
<linearGradient id="paint2_linear_703_10541" x1="72.4758" y1="65.1026" x2="72.4758" y2="95.9377" gradientUnits="userSpaceOnUse">
<stop stop-color="#F6E93D"/>
<stop offset="0.13" stop-color="#F8E330"/>
<stop offset="0.35" stop-color="#F7C730"/>
<stop offset="0.64" stop-color="#F59C2E"/>
<stop offset="0.98" stop-color="#EB5E2C"/>
<stop offset="1" stop-color="#EB5C2C"/>
</linearGradient>
<linearGradient id="paint3_linear_703_10541" x1="47.5758" y1="31.0938" x2="47.5758" y2="55.107" gradientUnits="userSpaceOnUse">
<stop stop-color="#F6E93D"/>
<stop offset="0.13" stop-color="#F8E330"/>
<stop offset="0.35" stop-color="#F7C730"/>
<stop offset="0.64" stop-color="#F59C2E"/>
<stop offset="0.98" stop-color="#EB5E2C"/>
<stop offset="1" stop-color="#EB5C2C"/>
</linearGradient>
<linearGradient id="paint4_linear_703_10541" x1="88.7124" y1="39.2485" x2="88.7124" y2="75.7118" gradientUnits="userSpaceOnUse">
<stop stop-color="#F6E93D"/>
<stop offset="0.13" stop-color="#F8E330"/>
<stop offset="0.35" stop-color="#F7C730"/>
<stop offset="0.64" stop-color="#F59C2E"/>
<stop offset="0.98" stop-color="#EB5E2C"/>
<stop offset="1" stop-color="#EB5C2C"/>
</linearGradient>
<linearGradient id="paint5_linear_703_10541" x1="68.6735" y1="24.9912" x2="68.6735" y2="62.5091" gradientUnits="userSpaceOnUse">
<stop stop-color="#F6E93D"/>
<stop offset="0.13" stop-color="#F8E330"/>
<stop offset="0.35" stop-color="#F7C730"/>
<stop offset="0.64" stop-color="#F59C2E"/>
<stop offset="0.98" stop-color="#EB5E2C"/>
<stop offset="1" stop-color="#EB5C2C"/>
</linearGradient>
<linearGradient id="paint6_linear_703_10541" x1="76.0563" y1="53.7696" x2="76.0563" y2="62.533" gradientUnits="userSpaceOnUse">
<stop stop-color="#F6E93D"/>
<stop offset="0.13" stop-color="#F8E330"/>
<stop offset="0.35" stop-color="#F7C730"/>
<stop offset="0.64" stop-color="#F59C2E"/>
<stop offset="0.98" stop-color="#EB5E2C"/>
<stop offset="1" stop-color="#EB5C2C"/>
</linearGradient>
<linearGradient id="paint7_linear_703_10541" x1="51.7654" y1="60.3423" x2="54.5507" y2="52.6959" gradientUnits="userSpaceOnUse">
<stop stop-color="#F6E93D"/>
<stop offset="0.13" stop-color="#F8E330"/>
<stop offset="0.35" stop-color="#F7C730"/>
<stop offset="0.64" stop-color="#F59C2E"/>
<stop offset="0.98" stop-color="#EB5E2C"/>
<stop offset="1" stop-color="#EB5C2C"/>
</linearGradient>
</defs>
</svg>
