<svg viewBox="0 0 128 128" fill="none" xmlns="http://www.w3.org/2000/svg">
<path d="M64 120C97.1371 120 124 93.1371 124 60C124 26.8629 97.1371 0 64 0C30.8629 0 4 26.8629 4 60C4 93.1371 30.8629 120 64 120Z" fill="#2A5ADA"/>
<path d="M64 21L56.8042 25.1147L37.1958 36.3853L30 40.5V79.5L37.1958 83.6147L56.9841 94.8853L64.1799 99L71.3757 94.8853L90.8042 83.6147L98 79.5V40.5L90.8042 36.3853L71.1958 25.1147L64 21ZM44.3915 71.2706V48.7294L64 37.4587L83.6085 48.7294V71.2706L64 82.5413L44.3915 71.2706Z" fill="white"/>
<path d="M64 118C96.0325 118 122 92.0325 122 60C122 27.9675 96.0325 2 64 2C31.9675 2 6 27.9675 6 60C6 92.0325 31.9675 118 64 118Z" stroke="black" stroke-opacity="0.097"/>
</svg>
