<svg viewBox="0 0 128 128" fill="none" xmlns="http://www.w3.org/2000/svg">
<path d="M123.997 59.9941C123.997 93.1268 97.1371 119.988 63.9986 119.988C30.8601 119.988 4 93.1268 4 59.9941C4 26.8614 30.8607 0 63.9986 0C97.1364 0 123.997 26.8588 123.997 59.9941Z" fill="white"/>
<g clip-path="url(#clip0)">
<path d="M82.9154 93L31.6717 57.125C29.9242 55.9041 28.4975 54.2812 27.5125 52.3936C26.5275 50.506 26.0132 48.4095 26.0132 46.2816C26.0132 44.1537 26.5275 42.0572 27.5125 40.1696C28.4975 38.282 29.9242 36.6591 31.6717 35.4382L44.0842 26.7897L95.3279 62.6694C97.0745 63.8909 98.5003 65.5141 99.4847 67.4016C100.469 69.2891 100.983 71.3853 100.983 73.5128C100.983 75.6403 100.469 77.7365 99.4847 79.624C98.5003 81.5115 97.0745 83.1347 95.3279 84.3562L82.9154 93ZM44.0795 32.5585L34.4045 39.309C33.2798 40.0939 32.3615 41.1377 31.7275 42.3519C31.0935 43.5661 30.7624 44.9149 30.7624 46.2839C30.7624 47.6529 31.0935 49.0017 31.7275 50.216C32.3615 51.4302 33.2798 52.474 34.4045 53.2589L82.9295 87.2312L92.6045 80.4854C93.7283 79.6998 94.6457 78.6558 95.2791 77.4417C95.9124 76.2275 96.2431 74.8791 96.2431 73.5105C96.2431 72.1418 95.9124 70.7934 95.2791 69.5792C94.6457 68.3651 93.7283 67.3211 92.6045 66.5355L44.0795 32.5585Z" fill="#4BC0C8"/>
<path d="M44.0329 87.1984L34.372 80.4339C33.2482 79.6484 32.3308 78.6043 31.6974 77.3902C31.0641 76.1761 30.7334 74.8276 30.7334 73.459C30.7334 72.0903 31.0641 70.7419 31.6974 69.5277C32.3308 68.3136 33.2482 67.2696 34.372 66.484L59.3798 49.0467L55.2548 46.167L31.6673 62.6132C29.9198 63.8341 28.4931 65.4571 27.5081 67.3446C26.5231 69.2322 26.0088 71.3287 26.0088 73.4566C26.0088 75.5845 26.5231 77.6811 27.5081 79.5686C28.4931 81.4562 29.9198 83.0791 31.6673 84.3L44.047 92.9673L59.361 82.2805L55.236 79.3914L44.0329 87.1984Z" fill="#02819B"/>
<path d="M95.3517 35.4896L82.9673 26.8224L67.6392 37.5185L71.7642 40.4076L82.9626 32.6099L92.6282 39.3745C93.752 40.16 94.6694 41.204 95.3028 42.4182C95.9361 43.6323 96.2668 44.9808 96.2668 46.3494C96.2668 47.718 95.9361 49.0665 95.3028 50.2806C94.6694 51.4947 93.752 52.5388 92.6282 53.3243L67.6157 70.7476L71.7407 73.6367L95.3329 57.1764C97.0804 55.9555 98.5071 54.3326 99.4921 52.445C100.477 50.5574 100.991 48.4609 100.991 46.333C100.991 44.2051 100.477 42.1086 99.4921 40.221C98.5071 38.3335 97.0804 36.7105 95.3329 35.4896H95.3517Z" fill="#02819B"/>
<path d="M54.104 46.9442L34.6162 60.5428L37.3331 64.4154L56.8208 50.8167L54.104 46.9442Z" fill="#02819B"/>
<path d="M90.1064 55.0493L80.6143 61.6783L83.3283 65.5491L93.1721 58.6724C92.1408 57.4849 91.1236 56.2695 90.1064 55.0493Z" fill="#02819B"/>
</g>
<path d="M64 118C96.0325 118 122 92.0325 122 60C122 27.9675 96.0325 2 64 2C31.9675 2 6 27.9675 6 60C6 92.0325 31.9675 118 64 118Z" stroke="black" stroke-opacity="0.097"/>
<defs>
<clipPath id="clip0">
<rect width="75" height="66" fill="white" transform="translate(26 27)"/>
</clipPath>
</defs>
</svg>
