<svg viewBox="0 0 128 128" fill="none" xmlns="http://www.w3.org/2000/svg">
<path d="M124 59.9941C124 93.1268 97.1395 119.988 64.001 119.988C30.8625 119.988 4.00244 93.1268 4.00244 59.9941C4.00244 26.8614 30.8631 0 64.001 0C97.1389 0 124 26.8588 124 59.9941Z" fill="white"/>
<path d="M81.08 57.6067H113V57.8619L63.0933 88.4895L87.92 68.5816L81.08 57.6067ZM62.3333 28V89L37 68.5816L62.3333 28Z" fill="#1C60FF"/>
<path d="M64 118C96.0325 118 122 92.0324 122 59.9999C122 27.9674 96.0325 1.99988 64 1.99988C31.9675 1.99988 6 27.9674 6 59.9999C6 92.0324 31.9675 118 64 118Z" stroke="black" stroke-opacity="0.097"/>
</svg>
