<svg viewBox="0 0 128 128" fill="none" xmlns="http://www.w3.org/2000/svg">
<g clip-path="url(#clip0)">
<path d="M64 -0.000249386C30.8629 -0.000252283 4.00001 26.8627 4.00001 59.9997C4 93.1368 30.8629 120 64 120C97.1371 120 124 93.1368 124 59.9998C124 26.8627 97.1371 -0.000246489 64 -0.000249386Z" fill="#345D9D"/>
<g clip-path="url(#clip1)">
<path d="M65.0002 113.506C94.5508 113.506 118.506 89.5505 118.506 60C118.506 30.4494 94.5508 6.4939 65.0002 6.4939C35.4496 6.4939 11.4941 30.4494 11.4941 60C11.4941 89.5505 35.4496 113.506 65.0002 113.506Z" fill="white"/>
<path d="M65 0C53.1331 0 41.5328 3.51894 31.6658 10.1118C21.7989 16.7047 14.1085 26.0754 9.56726 37.039C5.026 48.0026 3.8378 60.0666 6.15291 71.7054C8.46802 83.3443 14.1825 94.0353 22.5736 102.426C30.9648 110.818 41.6558 116.532 53.2946 118.847C64.9335 121.162 76.9975 119.974 87.961 115.433C98.9246 110.892 108.295 103.201 114.888 93.3342C121.481 83.4673 125 71.8669 125 60V60C125.023 52.1436 123.498 44.3596 120.513 37.0924C117.527 29.8252 113.14 23.2173 107.601 17.6457C102.062 12.0742 95.4794 7.64827 88.2298 4.6206C80.9801 1.59294 73.2051 0.0228606 65.3487 0H65ZM66.017 62.0339L59.77 83.0993H93.1841C93.4054 83.0915 93.6261 83.1275 93.8335 83.205C94.041 83.2826 94.2311 83.4004 94.393 83.5515C94.5549 83.7026 94.6854 83.8841 94.7771 84.0857C94.8688 84.2873 94.9199 84.505 94.9274 84.7264V85.2785L92.0218 95.3027C91.8937 95.7767 91.6082 96.1931 91.2122 96.4835C90.8162 96.7739 90.3333 96.921 89.8426 96.9007H38.7046L47.2761 67.6998L37.6877 70.6053L39.8669 63.9225L49.4552 61.017L61.5133 20.0484C61.6461 19.577 61.9327 19.1636 62.3277 18.874C62.7226 18.5844 63.203 18.4353 63.6925 18.4504H76.6223C76.8436 18.4426 77.0643 18.4785 77.2718 18.5561C77.4792 18.6337 77.6693 18.7514 77.8312 18.9026C77.9932 19.0537 78.1237 19.2352 78.2154 19.4368C78.3071 19.6384 78.3581 19.8561 78.3656 20.0775V20.6295L68.1962 55.2058L77.7845 52.3002L75.7506 59.2736L66.017 62.0339Z" fill="#345D9D"/>
</g>
<path d="M64 118C96.0325 118 122 92.0325 122 60C122 27.9675 96.0325 2 64 2C31.9675 2 6 27.9675 6 60C6 92.0325 31.9675 118 64 118Z" stroke="black" stroke-opacity="0.097"/>
</g>
<defs>
<clipPath id="clip0">
<rect width="128" height="128" fill="white"/>
</clipPath>
<clipPath id="clip1">
<rect width="120" height="120" fill="white" transform="translate(5)"/>
</clipPath>
</defs>
</svg>
