<svg viewBox="0 0 128 128" fill="none" xmlns="http://www.w3.org/2000/svg">
<path d="M124 59.9941C124 93.1268 97.1395 119.988 64.001 119.988C30.8625 119.988 4.00244 93.1268 4.00244 59.9941C4.00244 26.8614 30.8631 0 64.001 0C97.1389 0 124 26.8588 124 59.9941Z" fill="#172852"/>
<path d="M51.1557 24.2077C58.7704 21.3595 67.341 21.353 75.0988 23.694C85.1975 26.8283 93.7226 34.4495 98.177 44.015C99.406 46.7397 100.583 49.5814 100.7 52.6117C95.0232 49.3213 88.8001 47.1884 82.5639 45.2441C72.5887 41.648 62.1453 39.151 52.7034 34.2089C50.5054 32.8954 47.7028 31.5493 47.1045 28.8116C46.8639 26.4446 49.3675 25.1246 51.1557 24.2077Z" fill="#FFD83D"/>
<path d="M28.1687 47.2275C30.3732 41.245 33.9887 35.6917 38.8982 31.5754C40.1468 41.8433 44.5166 51.7664 51.7347 59.2316C60.3898 68.2249 72.719 73.7457 85.2628 73.5376C90.2439 73.6937 95.1144 72.5427 99.9719 71.6128C95.1924 88.8841 76.263 100.348 58.7251 97.5912C48.1386 96.2387 38.365 89.97 32.467 81.1198C25.8147 71.3397 24.137 58.3537 28.1687 47.2275Z" fill="#FFD83D"/>
<path d="M82 45C88.2002 46.9907 94.4743 48.9248 100.119 52.2936L100.5 52.5C101.024 56.5546 101.318 60.9387 100.62 65C97.7818 63.7617 95.4802 61.5845 93.0751 59.6604C88.4459 55.6924 83.7198 51.1518 82 45Z" fill="#FF6F03"/>
<path d="M64 118C96.0325 118 122 92.0325 122 60C122 27.9675 96.0325 2 64 2C31.9675 2 6 27.9675 6 60C6 92.0325 31.9675 118 64 118Z" stroke="black" stroke-opacity="0.097"/>
</svg>
