<svg viewBox="0 0 128 128" fill="none" xmlns="http://www.w3.org/2000/svg">
<g clip-path="url(#clip0)">
<path d="M123.997 59.9941C123.997 93.1269 97.1371 119.988 63.9986 119.988C30.8601 119.988 4 93.1269 4 59.9941C4 26.8614 30.8607 6.10352e-05 63.9986 6.10352e-05C97.1364 6.10352e-05 123.997 26.8589 123.997 59.9941Z" fill="white"/>
<path d="M64 120C97.1371 120 124 93.1371 124 60C124 26.8629 97.1371 0 64 0C30.8629 0 4 26.8629 4 60C4 93.1371 30.8629 120 64 120Z" fill="url(#paint0_linear)"/>
<path fill-rule="evenodd" clip-rule="evenodd" d="M46.5103 39V84H84.0103L46.5103 39Z" fill="url(#paint1_linear)"/>
<path fill-rule="evenodd" clip-rule="evenodd" d="M9.01025 84H46.5103V39L9.01025 84Z" fill="white"/>
<path fill-rule="evenodd" clip-rule="evenodd" d="M16 96C19.42 100.53 23.47 104.58 28 108H100C104.53 104.58 108.58 100.53 112 96H16Z" fill="#FC9965"/>
<path fill-rule="evenodd" clip-rule="evenodd" d="M28 108C38.02 115.53 50.5 120 64 120C77.5 120 89.98 115.53 100 108H28Z" fill="#FF2D55"/>
<path fill-rule="evenodd" clip-rule="evenodd" d="M84.4897 63V96H112L84.4897 63Z" fill="url(#paint2_linear)"/>
<path fill-rule="evenodd" clip-rule="evenodd" d="M84.4902 84H9.01025C10.8703 88.29 13.2403 92.31 16.0003 96H84.5202V84H84.4902V84Z" fill="#FFBC5B"/>
<path fill-rule="evenodd" clip-rule="evenodd" d="M57.0103 96H84.4903V63L57.0103 96Z" fill="white"/>
<path d="M84.4897 54C92.774 54 99.4897 47.2843 99.4897 39C99.4897 30.7157 92.774 24 84.4897 24C76.2055 24 69.4897 30.7157 69.4897 39C69.4897 47.2843 76.2055 54 84.4897 54Z" fill="#FFC95B"/>
<path d="M46.5102 30C50.6524 30 54.0102 26.6421 54.0102 22.5C54.0102 18.3579 50.6524 15 46.5102 15C42.3681 15 39.0103 18.3579 39.0103 22.5C39.0103 26.6421 42.3681 30 46.5102 30Z" fill="#FFC95B"/>
</g>
<path d="M64 118C96.0325 118 122 92.0325 122 60C122 27.9675 96.0325 2 64 2C31.9675 2 6 27.9675 6 60C6 92.0325 31.9675 118 64 118Z" stroke="black" stroke-opacity="0.097"/>
<defs>
<linearGradient id="paint0_linear" x1="106.426" y1="17.574" x2="21.574" y2="102.426" gradientUnits="userSpaceOnUse">
<stop stop-color="#FF2D55"/>
<stop offset="1" stop-color="#FFBC5B"/>
</linearGradient>
<linearGradient id="paint1_linear" x1="65.2475" y1="39" x2="65.2475" y2="84" gradientUnits="userSpaceOnUse">
<stop stop-color="#A524B3"/>
<stop offset="1" stop-color="#FF2D55"/>
</linearGradient>
<linearGradient id="paint2_linear" x1="98.2354" y1="63" x2="98.2354" y2="96" gradientUnits="userSpaceOnUse">
<stop stop-color="#A524B3"/>
<stop offset="1" stop-color="#FF2D55"/>
</linearGradient>
<clipPath id="clip0">
<rect width="120" height="120" fill="white" transform="translate(4)"/>
</clipPath>
</defs>
</svg>
