<svg viewBox="0 0 128 128" fill="none" xmlns="http://www.w3.org/2000/svg">
<g clip-path="url(#clip0)">
<path d="M128 64C128 99.2 99.2 128 64 128C28.8 128 0 99.2 0 64C0 28.8 28.8 0 64 0C99.2 0 128 28.8 128 64Z" fill="#77D563"/>
<path d="M44.7388 75.2021C44.4682 74.9326 44.1977 74.9326 43.9272 75.2021L35 84.0931L35.541 86.7873C36.3526 91.6369 40.9515 94.87 45.8208 93.7923L59.6174 91.0981C59.8879 91.0981 60.1585 90.5592 59.8879 90.2898L44.7388 75.2021Z" fill="white"/>
<path d="M41.7844 72.9938C42.0719 72.7309 42.0719 72.4681 41.7844 72.2053L31.1497 62.2177C30.8623 61.6921 30 62.2177 30 62.7434L33.4491 79.5645C33.4491 80.0902 34.024 80.0902 34.5988 79.8274L41.7844 72.9938Z" fill="white"/>
<path d="M58.3905 55.7975C58.6525 56.0675 59.1766 56.0675 59.4386 55.7975L74.8972 39.8645C75.1592 39.5945 74.8972 38.7843 74.3732 39.0544L48.4341 44.1853C47.9101 44.1853 47.9101 44.7254 48.1721 44.9955L58.3905 55.7975Z" fill="white"/>
<path d="M89.1976 58.8083L99.2096 68.8959C99.4731 69.1613 100 68.8959 100 68.3649L96.8383 51.3754C96.8383 51.11 96.3114 50.8445 96.0479 51.11L89.1976 58.0119C88.9341 58.0119 88.9341 58.5429 89.1976 58.8083Z" fill="white"/>
<path d="M75.2 44.5729L86.1333 56.782C86.4 57.0727 86.9333 57.0727 87.2 56.782L96 47.1891L95.4667 43.7008C94.6667 38.4683 90.1333 35.2707 85.6 36.1428L81.6 37.0148L75.2 43.4101C74.9333 43.7008 74.9333 44.2822 75.2 44.5729Z" fill="white"/>
<path d="M44.4359 69.7978L55.7971 58.7466C56.0676 58.4771 56.0676 57.938 55.7971 57.6685L43.3538 45L36.5912 46.0782C31.7221 47.1563 28.7465 50.9299 29.017 55.5121L43.0833 69.7978C43.6243 70.0674 43.8948 70.0674 44.4359 69.7978Z" fill="white"/>
<path d="M72.4068 70L83.7966 58.6423C84.0678 58.3718 84.0678 58.1014 83.7966 57.831L72.4068 46.2028C72.1356 45.9324 71.8644 45.9324 71.5932 46.2028L60.2034 57.5606C59.9322 57.831 59.9322 58.1014 60.2034 58.3718L71.5932 70C71.8644 70 72.1356 70 72.4068 70Z" fill="white"/>
<path d="M72.4664 75.1982C72.1939 74.9339 71.9214 74.9339 71.6489 75.1982L60.2044 86.2996C59.9319 86.5639 59.9319 86.8282 60.2044 87.0925L63.2018 90L82.5485 86.2996C83.0935 86.2996 83.0935 85.7709 82.821 85.5066L72.4664 75.1982Z" fill="white"/>
<path d="M102 75.9183L87.3606 61.2044C87.0844 60.9319 86.8082 60.9319 86.532 61.2044L75.2072 72.6485C74.9309 72.921 74.9309 73.1935 75.2072 73.4659L87.6368 86L95.0946 84.6376C99.2379 83.8202 102 80.0054 102 75.9183Z" fill="white"/>
<path d="M58 69C56.25 69 55 70.4583 55 72.5C55 74.5417 56.25 76 58 76C59.75 76 61 74.5417 61 72.5C61 70.4583 59.75 69 58 69Z" fill="white"/>
<path d="M49.5227 42L52.1364 41.4608C52.3977 41.4608 52.6591 41.1912 52.6591 40.9216V39.8432C52.6591 38.7647 53.1818 37.9559 53.7045 37.1471C54.4886 36.3383 55.2727 35.5295 56.3182 35.5295L62.5909 33.6423C63.8977 33.3727 65.9886 33.9119 67.0341 35.2599C67.8182 36.0687 68.0795 36.8775 68.3409 37.4167C68.3409 37.6863 68.6023 37.6863 68.8636 37.6863L71.4773 37.1471C71.7386 37.1471 72 36.8775 72 36.6079C71.7386 35.7991 71.4773 34.7207 69.9091 32.8335C68.3409 30.6766 64.6818 29.5982 62.0682 30.1374L56.0568 31.4854C52.9205 32.0246 50.3068 34.4511 49.5227 37.6863C49 39.0344 49 40.652 49 41.4608C49 41.7304 49.2614 42 49.5227 42Z" fill="white"/>
<path d="M63.8525 124.705C97.4604 124.705 124.705 97.4604 124.705 63.8525C124.705 30.2446 97.4604 3 63.8525 3C30.2446 3 3 30.2446 3 63.8525C3 97.4604 30.2446 124.705 63.8525 124.705Z" stroke="black" stroke-opacity="0.097"/>
</g>
<defs>
<clipPath id="clip0">
<rect width="128" height="128" fill="white"/>
</clipPath>
</defs>
</svg>
