<svg viewBox="0 0 128 128" fill="none" xmlns="http://www.w3.org/2000/svg">
<g clip-path="url(#clip0)">
<path d="M128 64.0002C128 99.3453 99.3486 128 63.9999 128C28.6513 128 -0.00012207 99.3453 -0.00012207 64.0002C-0.00012207 28.655 28.652 0 63.9999 0C99.3479 0 128 28.6523 128 64.0002Z" fill="#1C68F3"/>
<path d="M64.0013 125.879C98.1702 125.879 125.87 98.1778 125.87 64.0064C125.87 29.8349 98.1702 2.13342 64.0013 2.13342C29.8325 2.13342 2.13312 29.8349 2.13312 64.0064C2.13312 98.1778 29.8325 125.879 64.0013 125.879Z" stroke="black" stroke-opacity="0.097"/>
<path d="M34 52.3333V69H84H86.15C83.8667 79.1167 74.8333 86.6667 64.0333 86.6667C55.1 86.6667 47.3833 81.5 43.6833 74H34V88C34 91.3167 36.6833 94 40 94H88C91.3167 94 94 91.3167 94 88V52.3333H34ZM49.45 74C52.6333 78.65 57.9833 81.7 64.05 81.7C70.1167 81.7 75.4667 78.65 78.65 74H49.45ZM76.8333 56.3333C81.5333 56.3333 85.4333 59.8167 86.0667 64.3333H80.95C80.3833 62.6 78.75 61.3333 76.8333 61.3333C74.9167 61.3333 73.2667 62.6 72.7167 64.3333H67.6C68.2333 59.8167 72.1333 56.3333 76.8333 56.3333ZM51.1667 56.3333C55.8667 56.3333 59.7667 59.8167 60.4 64.3333H55.2833C54.7167 62.6 53.0833 61.3333 51.1667 61.3333C49.25 61.3333 47.6 62.6 47.05 64.3333H41.9333C42.5667 59.8167 46.4667 56.3333 51.1667 56.3333ZM40 34C36.6833 34 34 36.6833 34 40V47.3333H94V40C94 36.6833 91.3167 34 88 34H40Z" fill="white"/>
</g>
<defs>
<clipPath id="clip0">
<rect width="128" height="128" fill="white"/>
</clipPath>
</defs>
</svg>
