<svg viewBox="0 0 128 128" fill="none" xmlns="http://www.w3.org/2000/svg">
<g clip-path="url(#clip0)">
<path d="M64 -0.000249386C30.8629 -0.000252283 4.00001 26.8627 4.00001 59.9997C4 93.1368 30.8629 120 64 120C97.1371 120 124 93.1368 124 59.9998C124 26.8627 97.1371 -0.000246489 64 -0.000249386Z" fill="#8247E5"/>
<path d="M64 118C96.0325 118 122 92.0325 122 60C122 27.9675 96.0325 2 64 2C31.9675 2 6 27.9675 6 60C6 92.0325 31.9675 118 64 118Z" stroke="black" stroke-opacity="0.097"/>
<g clip-path="url(#clip1)">
<path d="M82.375 47.8776C81.0625 47.1373 79.375 47.1373 77.875 47.8776L67.375 53.9851L60.25 57.8717L49.9375 63.9791C48.625 64.7194 46.9375 64.7194 45.4375 63.9791L37.375 59.1672C36.0625 58.4269 35.125 56.9463 35.125 55.2806V46.0269C35.125 44.5463 35.875 43.0657 37.375 42.1403L45.4375 37.5134C46.75 36.7732 48.4375 36.7732 49.9375 37.5134L58 42.3254C59.3125 43.0657 60.25 44.5463 60.25 46.212V52.3194L67.375 48.2478V41.9552C67.375 40.4746 66.625 38.994 65.125 38.0687L50.125 29.3702C48.8125 28.6299 47.125 28.6299 45.625 29.3702L30.25 38.2537C28.75 38.994 28 40.4746 28 41.9552V59.3523C28 60.8329 28.75 62.3135 30.25 63.2388L45.4375 71.9373C46.75 72.6776 48.4375 72.6776 49.9375 71.9373L60.25 66.0149L67.375 61.9433L77.6875 56.0209C79 55.2806 80.6875 55.2806 82.1875 56.0209L90.25 60.6478C91.5625 61.3881 92.5 62.8687 92.5 64.5343V73.7881C92.5 75.2687 91.75 76.7493 90.25 77.6746L82.375 82.3015C81.0625 83.0418 79.375 83.0418 77.875 82.3015L69.8125 77.6746C68.5 76.9343 67.5625 75.4538 67.5625 73.7881V67.8657L60.4375 71.9373V78.0448C60.4375 79.5254 61.1875 81.006 62.6875 81.9314L77.875 90.6299C79.1875 91.3702 80.875 91.3702 82.375 90.6299L97.5625 81.9314C98.875 81.1911 99.8125 79.7105 99.8125 78.0448V60.4627C99.8125 58.9821 99.0625 57.5015 97.5625 56.5761L82.375 47.8776Z" fill="white"/>
</g>
</g>
<defs>
<clipPath id="clip0">
<rect width="128" height="128" fill="white"/>
</clipPath>
<clipPath id="clip1">
<rect width="72" height="62" fill="white" transform="translate(28 29)"/>
</clipPath>
</defs>
</svg>
