<svg viewBox="0 0 128 128" fill="none" xmlns="http://www.w3.org/2000/svg">
<g clip-path="url(#clip0)">
<path d="M64 -0.000249386C30.8629 -0.000252283 4.00001 26.8627 4.00001 59.9997C4 93.1368 30.8629 120 64 120C97.1371 120 124 93.1368 124 59.9998C124 26.8627 97.1371 -0.000246489 64 -0.000249386Z" fill="#103F68"/>
<path d="M63.9179 15L103 37.6983V83.2355L63.9631 106L63.6469 105.921L25 83.2355V37.6983L63.6469 15H63.9179V15ZM63.7906 19.711L29.1053 40.0786V80.8552L63.7865 101.219L68.0232 98.7472L98.8947 80.8427V40.0869L68.0232 22.079L63.7906 19.711V19.711ZM34.4791 63.6338L44.7463 55.8925L53.8231 61.7378V72.2527L60.6912 78.926L60.6871 82.0557L54.0694 88.3067H48.4821L34.4832 63.6338H34.4791ZM66.9229 82.064L66.9106 78.9177L73.7541 72.2527V61.7378L82.7323 55.8179L92.9791 63.6379L79.0499 88.2363H73.5324L66.9229 82.064ZM57.1935 61.7378L53.8518 52.916H73.7131L70.4371 61.7378L71.4059 71.5987L63.7414 71.6152L56.1672 71.6277L57.1935 61.7378V61.7378ZM63.7414 50.4984L44.8654 50.4901L48.3754 34.6762H79.0171L82.7118 50.5108L63.7414 50.4984Z" fill="white"/>
<path d="M64 118C96.0325 118 122 92.0325 122 60C122 27.9675 96.0325 2 64 2C31.9675 2 6 27.9675 6 60C6 92.0325 31.9675 118 64 118Z" stroke="black" stroke-opacity="0.097"/>
</g>
<defs>
<clipPath id="clip0">
<rect width="128" height="128" fill="white"/>
</clipPath>
</defs>
</svg>
