<svg viewBox="0 0 128 128" fill="none" xmlns="http://www.w3.org/2000/svg">
<path d="M64.0002 127.981C99.3411 127.981 127.991 99.3313 127.991 63.9904C127.991 28.6495 99.3411 0 64.0002 0C28.6592 0 0.00976562 28.6495 0.00976562 63.9904C0.00976562 99.3313 28.6592 127.981 64.0002 127.981Z" fill="#151635"/>
<path d="M86.1535 92.6922V50.7686C86.1535 50.7686 86.1055 47.7772 83.023 45.9986C79.9404 44.22 76.6517 46.4109 76.6517 46.4109L72.3899 50.3611C72.3899 50.3611 69.3217 47.6094 65.2852 43.7119C68.967 40.241 71.2633 38.0789 71.2633 38.0789C71.2633 38.0789 78.1571 33.1219 86.1487 36.4345C93.9102 40.0444 96.1058 47.2115 96.1058 50.0447V84.4801C96.1058 84.4801 96.5613 92.7018 86.1487 92.7018L86.1535 92.6922Z" fill="#4BABDC"/>
<path d="M41.8469 92.6923V50.7687C41.8469 50.7687 41.8948 47.7773 44.9774 45.9987C48.0599 44.2153 51.3486 46.411 51.3486 46.411L70.9417 64.5659C70.9417 64.5659 72.9265 73.8135 65.1889 73.8135C57.4514 73.8135 57.7199 66.6896 57.7199 66.6896C57.7199 66.6896 57.2405 62.8784 62.4468 60.7307C58.9759 57.6241 54.9585 53.88 54.9585 53.88C54.9585 53.88 43.9275 59.978 49.5221 74.1587C54.2922 84.5713 66.0279 85.2568 71.1671 82.9269C74.2784 81.4168 85.7361 74.571 79.7531 59.8198C67.514 48.2183 56.7371 38.0838 56.7371 38.0838C56.7371 38.0838 49.8433 33.1268 41.8517 36.4394C34.0902 40.0493 31.8945 47.2164 31.8945 50.0496V84.485C31.8945 84.485 31.4391 92.7067 41.8517 92.7067L41.8469 92.6923Z" fill="#FEFEFE"/>
</svg>
