<svg viewBox="0 0 128 128" fill="none" xmlns="http://www.w3.org/2000/svg">
<path d="M64 128C99.3462 128 128 99.3462 128 64C128 28.6538 99.3462 0 64 0C28.6538 0 0 28.6538 0 64C0 99.3462 28.6538 128 64 128Z" fill="#6E2EF4"/>
<path d="M62.8 88.72L88.68 62.64C89.5283 61.7879 90.5366 61.1118 91.6469 60.6505C92.7572 60.1892 93.9477 59.9517 95.15 59.9517C96.3523 59.9517 97.5428 60.1892 98.6531 60.6505C99.7634 61.1118 100.772 61.7879 101.62 62.64C103.318 64.3775 104.269 66.7105 104.269 69.14C104.269 71.5694 103.318 73.9024 101.62 75.64L75.74 101.76C74.8937 102.616 73.8861 103.295 72.7755 103.758C71.665 104.222 70.4734 104.461 69.27 104.461C68.0665 104.461 66.875 104.222 65.7644 103.758C64.6539 103.295 63.6463 102.616 62.8 101.76C61.102 100.022 60.1513 97.6894 60.1513 95.26C60.1513 92.8305 61.102 90.4975 62.8 88.76V88.72ZM26.69 65.36C27.5368 66.2129 28.544 66.8898 29.6535 67.3518C30.7631 67.8137 31.9531 68.0516 33.155 68.0516C34.3569 68.0516 35.5469 67.8137 36.6565 67.3518C37.766 66.8898 38.7732 66.2129 39.62 65.36L65.5 39.28C67.198 37.5424 68.1487 35.2094 68.1487 32.78C68.1487 30.3505 67.198 28.0175 65.5 26.28C64.6537 25.4243 63.6461 24.745 62.5355 24.2814C61.425 23.8178 60.2335 23.5791 59.03 23.5791C57.8265 23.5791 56.635 23.8178 55.5244 24.2814C54.4139 24.745 53.4063 25.4243 52.56 26.28L26.69 52.32C24.9849 54.0538 24.0293 56.3882 24.0293 58.82C24.0293 61.2517 24.9849 63.5861 26.69 65.32V65.36ZM54.44 73.78C55.2883 74.632 56.2966 75.3081 57.4069 75.7694C58.5172 76.2307 59.7077 76.4682 60.91 76.4682C62.1123 76.4682 63.3028 76.2307 64.4131 75.7694C65.5234 75.3081 66.5317 74.632 67.38 73.78L73.85 67.25C75.548 65.5124 76.4987 63.1794 76.4987 60.75C76.4987 58.3205 75.548 55.9875 73.85 54.25C73.0017 53.3979 71.9934 52.7218 70.8831 52.2605C69.7728 51.7992 68.5823 51.5617 67.38 51.5617C66.1777 51.5617 64.9872 51.7992 63.8769 52.2605C62.7666 52.7218 61.7583 53.3979 60.91 54.25L54.44 60.78C52.742 62.5175 51.7913 64.8505 51.7913 67.28C51.7913 69.7094 52.742 72.0424 54.44 73.78Z" fill="white"/>
</svg>
