<svg viewBox="0 0 128 128" fill="none" xmlns="http://www.w3.org/2000/svg">
<path d="M123.999 59.9941C123.999 93.1268 97.1393 119.988 64.0008 119.988C30.8623 119.988 4.0022 93.1268 4.0022 59.9941C4.0022 26.8614 30.8629 0 64.0008 0C97.1386 0 123.999 26.8588 123.999 59.9941Z" fill="white"/>
<path d="M80.3631 33.2358C82.561 33.2358 84.3469 31.3873 84.3469 29.1164C84.3469 26.8455 82.561 25 80.3631 25C78.1652 25.0117 76.3793 26.8572 76.3793 29.1281C76.3793 31.3991 78.1652 33.2358 80.3631 33.2358ZM81.5384 43.939C82.4398 43.932 83.3016 43.5606 83.9342 42.9064C84.5668 42.2523 84.9184 41.3689 84.9115 40.4508C84.9115 38.5319 83.4021 36.9622 81.5384 36.9622C79.6747 36.9622 78.1652 38.5202 78.1652 40.4508C78.1652 42.3813 79.6718 43.939 81.5384 43.939ZM90.7994 45.3033C92.6545 45.3033 94.1639 43.7454 94.1639 41.8236C94.1639 39.9018 92.6545 38.3439 90.7994 38.3439C88.9444 38.3439 87.4349 39.9018 87.4349 41.8236C87.4349 43.7454 88.9472 45.3033 90.7994 45.3033ZM89.6875 54.4604C91.2776 54.4604 92.5652 53.1283 92.5652 51.4882C92.5652 49.8481 91.2776 48.5161 89.6875 48.5161C88.0975 48.5161 86.8098 49.8481 86.8098 51.4882C86.8098 53.1283 88.0975 54.4604 89.6875 54.4604ZM97.1021 57.4296C98.7037 57.4296 100 56.0887 100 54.4369C100 52.785 98.7037 51.4442 97.1021 51.4442C96.7189 51.4469 96.34 51.5264 95.987 51.6783C95.634 51.8301 95.3138 52.0513 95.0447 52.3292C94.7756 52.6071 94.5629 52.9363 94.4187 53.2979C94.2745 53.6595 94.2016 54.0466 94.2043 54.4369V54.4369C94.2043 56.0887 95.5034 57.4296 97.1021 57.4296ZM80.3689 53.2222C80.7585 53.2199 81.1439 53.1394 81.503 52.9854C81.8621 52.8314 82.1879 52.6069 82.4618 52.3246C82.7357 52.0424 82.9524 51.7079 83.0994 51.3404C83.2464 50.9729 83.3209 50.5794 83.3186 50.1826V50.1826V50.1767C83.3186 48.4955 82.0022 47.1312 80.3689 47.1312C78.7356 47.1312 77.4192 48.4926 77.4192 50.1767C77.4192 51.8491 78.7385 53.2222 80.3689 53.2222ZM77.6957 60.5073C79.064 60.5073 80.1672 59.3631 80.1672 57.9577C80.1726 57.287 79.9162 56.6415 79.4543 56.1634C78.9925 55.6852 78.3631 55.4135 77.7046 55.408H77.6957C76.3274 55.408 75.2242 56.5523 75.2242 57.9577C75.2242 59.3631 76.3274 60.5073 77.6957 60.5073ZM86.9712 61.7954C87.2953 61.7931 87.6158 61.7258 87.9145 61.5974C88.2131 61.4689 88.484 61.2818 88.7116 61.0468C88.9392 60.8117 89.1192 60.5333 89.2412 60.2274C89.3631 59.9215 89.4248 59.5941 89.4225 59.2639V59.2577C89.4225 57.8553 88.3279 56.7198 86.9712 56.7198C85.6144 56.7198 84.5198 57.8553 84.5198 59.2577C84.5156 59.5867 84.5751 59.9133 84.6948 60.2189C84.8146 60.5245 84.9922 60.8031 85.2177 61.0387C85.4431 61.2743 85.7119 61.4624 86.0087 61.5923C86.3055 61.7221 86.6245 61.7911 86.9475 61.7954H86.9712V61.7954ZM94.3656 64.7528C95.7339 64.7528 96.8371 63.6086 96.8371 62.1944C96.8371 60.7802 95.7339 59.6359 94.3656 59.6359C92.9973 59.6359 91.8941 60.7802 91.8941 62.1944C91.8871 62.8659 92.1424 63.5127 92.6037 63.9925C93.065 64.4723 93.6945 64.7458 94.3538 64.7528H94.3656ZM90.713 70.2805C91.8681 70.2805 92.8014 69.3094 92.8014 68.124C92.8014 66.9387 91.8681 65.9675 90.713 65.9675C89.5579 65.9675 88.6246 66.9387 88.6246 68.124C88.6246 69.3094 89.5579 70.2805 90.713 70.2805ZM83.284 67.37C84.4593 67.37 85.4214 66.3783 85.4214 65.1607C85.4214 63.9431 84.4679 62.9514 83.284 62.9514C82.1001 62.9514 81.1466 63.9431 81.1466 65.1607C81.1466 66.3783 82.1087 67.37 83.284 67.37ZM74.0201 66.0203C74.5839 66.0113 75.1217 65.777 75.5174 65.3678C75.9132 64.9586 76.1352 64.4074 76.1356 63.833C76.1359 63.2586 75.9147 62.7071 75.5195 62.2974C75.1243 61.8877 74.5868 61.6526 74.023 61.6428H74.0201C73.4562 61.6518 72.9185 61.8862 72.5227 62.2954C72.127 62.7045 71.905 63.2557 71.9046 63.8301C71.9042 64.4045 72.1255 64.956 72.5207 65.3657C72.9159 65.7755 73.4534 66.0106 74.0172 66.0203H74.0201ZM79.1706 71.2135C80.1932 71.2135 81.0141 70.3568 81.0141 69.3152C81.0187 68.8165 80.8286 68.3363 80.4857 67.9803C80.1427 67.6243 79.6749 67.4216 79.1852 67.4169H79.1706C78.1479 67.4169 77.327 68.2737 77.327 69.3152C77.3216 69.8132 77.5107 70.2929 77.8526 70.6489C78.1945 71.0049 78.6612 71.208 79.1501 71.2135H79.1706ZM86.5967 74.1739C87.6193 74.1739 88.4604 73.3172 88.4604 72.2551C88.4604 71.193 87.6308 70.3363 86.5967 70.3363C86.097 70.3363 85.6179 70.5384 85.2646 70.8983C84.9113 71.2581 84.7128 71.7462 84.7128 72.2551C84.7128 72.764 84.9113 73.2521 85.2646 73.6119C85.6179 73.9718 86.097 74.1739 86.5967 74.1739V74.1739ZM82.4141 76.395C83.2235 76.395 83.8832 75.7143 83.8832 74.8781C83.8855 74.4786 83.7321 74.0946 83.4566 73.8102C83.1812 73.5258 82.8063 73.3643 82.4141 73.3612C81.6046 73.3612 80.945 74.0419 80.945 74.8781C80.9442 75.2771 81.0981 75.6603 81.3732 75.9443C81.6483 76.2284 82.0224 76.3903 82.4141 76.395V76.395ZM78.4504 77.5862C78.6259 77.5851 78.7994 77.5488 78.9612 77.4793C79.1229 77.4099 79.2696 77.3087 79.3929 77.1815C79.5162 77.0543 79.6137 76.9037 79.6798 76.7381C79.746 76.5725 79.7795 76.3953 79.7784 76.2166V76.2131C79.7784 75.4502 79.1792 74.84 78.4504 74.84C78.2749 74.8411 78.1014 74.8774 77.9397 74.9468C77.778 75.0162 77.6313 75.1174 77.5079 75.2446C77.3846 75.3718 77.2871 75.5225 77.221 75.688C77.1548 75.8536 77.1214 76.0308 77.1225 76.2095V76.2131C77.1164 76.5709 77.2501 76.9166 77.4942 77.1741C77.7383 77.4315 78.0729 77.5796 78.4242 77.5859L78.4504 77.5862ZM74.9793 73.637C75.8521 73.637 76.5608 72.9035 76.5608 72.0057C76.5608 71.1079 75.8521 70.3744 74.9793 70.3744C74.1065 70.3744 73.3979 71.1079 73.3979 72.0057C73.397 72.4351 73.5627 72.8474 73.8589 73.1529C74.1551 73.4585 74.5578 73.6324 74.9793 73.637ZM69.8865 69.8962C70.9004 69.8962 71.73 69.0512 71.73 67.9979C71.73 66.9445 70.9091 66.0996 69.8865 66.0996C68.8725 66.0996 68.0429 66.9445 68.0429 67.9979C68.0421 68.498 68.2355 68.9782 68.5808 69.3338C68.9261 69.6894 69.3954 69.8915 69.8865 69.8962ZM84.9893 93.6792C87.1786 93.6792 88.953 91.8425 88.953 89.5804C88.953 87.3183 87.1786 85.4816 84.9893 85.4816C82.8001 85.4816 81.0256 87.3183 81.0256 89.5804C81.0256 91.8425 82.8001 93.6792 84.9893 93.6792ZM74.9217 88.4919C76.7451 88.4919 78.2257 86.9633 78.2257 85.0767C78.2257 83.1901 76.7451 81.6615 74.9217 81.6615C73.0983 81.6615 71.6177 83.1901 71.6177 85.0767C71.6177 86.9633 73.0954 88.4919 74.9217 88.4919ZM69.1692 96C71.0128 96 72.502 94.4626 72.502 92.5525C72.502 90.6542 71.0128 89.1051 69.1692 89.1051C67.3256 89.1051 65.8364 90.6425 65.8364 92.5525C65.8295 93.4598 66.1767 94.3327 66.8017 94.9793C67.4266 95.6258 68.2781 95.9929 69.1689 96H69.1692ZM67.438 82.1662C67.82 82.1635 68.1978 82.0842 68.5498 81.9328C68.9018 81.7813 69.221 81.5608 69.4893 81.2837C69.7576 81.0066 69.9697 80.6784 70.1135 80.3179C70.2572 79.9573 70.3298 79.5714 70.3272 79.1823V79.1823C70.3298 78.7931 70.2572 78.4073 70.1135 78.0467C69.9697 77.6861 69.7576 77.3579 69.4893 77.0808C69.221 76.8038 68.9018 76.5832 68.5498 76.4318C68.1978 76.2804 67.82 76.2011 67.438 76.1984V76.1984C67.0559 76.2011 66.6781 76.2804 66.3261 76.4318C65.9741 76.5832 65.6549 76.8038 65.3866 77.0808C65.1183 77.3579 64.9062 77.6861 64.7625 78.0467C64.6187 78.4073 64.5461 78.7931 64.5488 79.1823V79.1823C64.5516 80.8253 65.8479 82.1662 67.438 82.1662V82.1662ZM61.6999 89.777C63.2899 89.777 64.5776 88.4449 64.5776 86.8048C64.5776 85.1647 63.2899 83.8327 61.6999 83.8327C60.1098 83.8327 58.8222 85.1647 58.8222 86.8048C58.8146 87.5852 59.1116 88.3368 59.648 88.8942C60.1843 89.4515 60.9161 89.7691 61.6823 89.777H61.6999ZM55.5153 94.9408C57.1053 94.9408 58.3843 93.6088 58.3843 91.9775C58.3843 90.3374 57.0967 89.0141 55.5153 89.0141C53.9252 89.0141 52.6462 90.3462 52.6462 91.9775C52.6462 93.6088 53.9338 94.9408 55.5153 94.9408V94.9408ZM50.3677 88.219C51.0215 88.2129 51.6463 87.9434 52.1056 87.4696C52.5649 86.9957 52.8214 86.3558 52.819 85.6899C52.819 84.2963 51.7244 83.1608 50.3677 83.1608C49.7157 83.1709 49.0937 83.4418 48.6362 83.915C48.1786 84.3882 47.9222 85.0257 47.9222 85.6899C47.9222 86.3541 48.1786 86.9916 48.6362 87.4648C49.0937 87.938 49.7157 88.2089 50.3677 88.219ZM56.5638 83.0317C57.218 83.027 57.8437 82.7581 58.3033 82.2838C58.763 81.8096 59.019 81.169 59.0152 80.5026C59.0152 79.1001 57.9205 77.9735 56.5638 77.9735C55.9117 77.9824 55.2893 78.2521 54.8309 78.7245C54.3724 79.1969 54.1148 79.834 54.1137 80.4983C54.1126 81.1625 54.368 81.8005 54.8248 82.2745C55.2816 82.7485 55.9031 83.0205 56.5552 83.0317H56.5638ZM62.3451 75.4238C62.6693 75.4216 62.9898 75.3543 63.2884 75.2258C63.5871 75.0974 63.8579 74.9103 64.0855 74.6752C64.3132 74.4402 64.4931 74.1617 64.6151 73.8558C64.7371 73.5499 64.7987 73.2225 64.7965 72.8924V72.8862C64.7965 71.4837 63.7019 70.3483 62.3451 70.3483C62.021 70.3506 61.7004 70.4178 61.4018 70.5463C61.1032 70.6747 60.8323 70.8618 60.6047 71.0969C60.377 71.332 60.1971 71.6104 60.0751 71.9163C59.9531 72.2222 59.8915 72.5496 59.8937 72.8797V72.8797V72.8859C59.8937 74.2884 60.9884 75.4238 62.3451 75.4238ZM53.5017 76.4713C54.677 76.4713 55.6305 75.4913 55.6305 74.2737C55.6305 73.0561 54.677 72.0761 53.5017 72.0761C52.3265 72.0761 51.373 73.0561 51.373 74.2737C51.373 75.4913 52.3265 76.4713 53.5017 76.4713ZM47.3373 81.638C47.6157 81.6365 47.8911 81.5791 48.1478 81.4692C48.4044 81.3592 48.6373 81.1989 48.8331 80.9973C49.0289 80.7957 49.1838 80.5567 49.2889 80.2942C49.3941 80.0316 49.4474 79.7505 49.4459 79.4669V79.4669V79.461C49.4513 78.8891 49.2334 78.3385 48.8402 77.9302C48.4469 77.5219 47.9106 77.2895 47.3491 77.284H47.3373C47.0589 77.2855 46.7835 77.3429 46.5269 77.4528C46.2702 77.5628 46.0373 77.7231 45.8415 77.9248C45.6457 78.1264 45.4908 78.3653 45.3857 78.6279C45.2805 78.8905 45.2272 79.1716 45.2287 79.4551V79.4551V79.461C45.2268 79.745 45.2799 80.0265 45.3848 80.2896C45.4897 80.5527 45.6445 80.7922 45.8403 80.9943C46.0361 81.1965 46.2691 81.3574 46.526 81.4678C46.7828 81.5783 47.0585 81.6361 47.3373 81.638ZM45.9201 75.5823C46.406 75.5784 46.8706 75.3786 47.2123 75.0268C47.554 74.6749 47.745 74.1994 47.7435 73.7045C47.7435 72.6629 46.9225 71.8267 45.9201 71.8267C44.9176 71.8267 44.0967 72.6717 44.0967 73.7045C44.0967 74.7461 44.9176 75.5823 45.9201 75.5823ZM45.8682 70.2688C46.0751 70.2669 46.2797 70.2234 46.4701 70.141C46.6606 70.0586 46.8332 69.9387 46.9782 69.7884C47.1232 69.638 47.2376 69.46 47.3151 69.2645C47.3925 69.069 47.4314 68.86 47.4295 68.6492V68.6492C47.4295 67.7602 46.7295 67.0296 45.8682 67.0296C45.0069 67.0296 44.3069 67.7514 44.3069 68.6492C44.3069 69.547 45.0069 70.2688 45.8682 70.2688V70.2688ZM46.7266 65.8502C47.4669 65.8502 48.0546 65.2311 48.0546 64.477C48.0546 63.723 47.4554 63.1039 46.7266 63.1039C45.9863 63.1039 45.3987 63.723 45.3987 64.477C45.3987 65.2311 45.9863 65.8502 46.7266 65.8502V65.8502ZM52.0413 65.1108C52.9141 65.1108 53.6227 64.3773 53.6227 63.4795C53.6227 62.5817 52.9141 61.8482 52.0413 61.8482C51.1685 61.8482 50.4599 62.5817 50.4599 63.4795C50.4583 63.9091 50.6238 64.3218 50.9201 64.6275C51.2165 64.9332 51.6195 65.1069 52.0413 65.1108V65.1108ZM57.8745 62.7959C58.8884 62.7959 59.718 61.9391 59.718 60.8976C59.7226 60.3988 59.5325 59.9186 59.1896 59.5626C58.8466 59.2066 58.3788 59.004 57.8891 58.9993H57.8745C56.8605 58.9993 56.0309 59.856 56.0309 60.8976C56.029 61.1449 56.0749 61.3902 56.1661 61.6195C56.2573 61.8488 56.392 62.0575 56.5623 62.2338C56.7327 62.4101 56.9355 62.5504 57.1592 62.6469C57.3828 62.7433 57.623 62.7939 57.8658 62.7959H57.8745ZM59.2629 68.8223C59.8176 68.8211 60.3492 68.5957 60.7409 68.1956C61.1325 67.7954 61.3522 67.2533 61.3516 66.6883C61.351 66.1232 61.1303 65.5816 60.7378 65.1822C60.3453 64.7829 59.8133 64.5586 59.2586 64.5586C58.7038 64.5586 58.1718 64.7829 57.7793 65.1822C57.3869 65.5816 57.1661 66.1232 57.1655 66.6883C57.165 67.2533 57.3846 67.7954 57.7763 68.1956C58.1679 68.5957 58.6995 68.8211 59.2543 68.8223H59.2629ZM52.1162 70.4272C53.1301 70.4272 53.9396 69.5822 53.9396 68.5377C53.9396 67.4932 53.1186 66.6482 52.1162 66.6482C51.8752 66.6497 51.6369 66.6995 51.4149 66.7949C51.1928 66.8902 50.9914 67.0291 50.8221 67.2037C50.6528 67.3783 50.5189 67.5852 50.428 67.8125C50.3372 68.0399 50.2913 68.2832 50.2928 68.5286V68.5377C50.2893 68.7823 50.3333 69.0252 50.422 69.2525C50.5107 69.4799 50.6426 69.6872 50.81 69.8626C50.9773 70.038 51.177 70.1782 51.3976 70.275C51.6182 70.3718 51.8553 70.4234 52.0954 70.4269H52.1162V70.4272ZM31.9522 67.6252C34.1299 67.6252 35.9043 65.7974 35.9043 63.547C35.9043 61.2966 34.1299 59.4687 31.9522 59.4687C29.7744 59.4687 28 61.2995 28 63.5499C28 65.8003 29.7744 67.6252 31.9522 67.6252V67.6252ZM40.9223 60.343C42.7975 60.343 44.3069 58.7733 44.3069 56.8428C44.3069 54.9122 42.786 53.3425 40.9223 53.3425C40.0185 53.3487 39.1542 53.7203 38.5195 54.3756C37.8847 55.0308 37.5315 55.9161 37.5376 56.8366V56.8428C37.5376 58.7851 39.0585 60.343 40.9223 60.343V60.343ZM37.4224 51.365C39.2861 51.365 40.7869 49.807 40.7869 47.8852C40.7869 45.9635 39.2775 44.4055 37.4224 44.4055C36.9775 44.4085 36.5376 44.5008 36.1278 44.677C35.7179 44.8532 35.3462 45.1099 35.0337 45.4325C34.7213 45.7551 34.4743 46.1371 34.3069 46.5569C34.1394 46.9767 34.0548 47.426 34.0579 47.8791V47.8852C34.0487 48.7987 34.3962 49.6785 35.0238 50.3311C35.6515 50.9836 36.5079 51.3555 37.4048 51.365H37.4224ZM46.0699 47.1107C47.6599 47.1107 48.9591 45.7786 48.9591 44.1268C48.9591 42.4749 47.6628 41.1429 46.0699 41.1429C44.4769 41.1429 43.1806 42.4749 43.1806 44.1268C43.1806 45.7786 44.4798 47.1107 46.0699 47.1107V47.1107ZM49.6043 56.0682C51.2059 56.0682 52.5022 54.7273 52.5022 53.0755C52.5022 51.4237 51.2059 50.0828 49.6043 50.0828C48.0027 50.0828 46.7065 51.4237 46.7065 53.0755C46.7065 54.7273 48.0027 56.0682 49.6043 56.0682ZM57.4741 54.208C58.1325 54.2025 58.7619 53.9309 59.2238 53.4528C59.6856 52.9747 59.9422 52.3294 59.9369 51.6587V51.6587C59.9419 51.3292 59.8831 51.002 59.7639 50.6958C59.6447 50.3895 59.4675 50.1101 59.2423 49.8736C59.0171 49.6371 58.7483 49.4481 58.4514 49.3173C58.1545 49.1866 57.8352 49.1167 57.5118 49.1117C57.1884 49.1066 56.8671 49.1665 56.5664 49.2879C56.2657 49.4093 55.9914 49.5899 55.7592 49.8192C55.527 50.0486 55.3414 50.3223 55.2131 50.6247C55.0847 50.9272 55.0161 51.2524 55.0112 51.5818C55.0112 51.6076 55.0112 51.6331 55.0112 51.6587C55.0036 52.327 55.2569 52.9711 55.7155 53.4493C56.174 53.9274 56.8003 54.2004 57.4565 54.2083L57.4741 54.208ZM64.2722 54.2315C65.4475 54.2315 66.401 53.2515 66.401 52.0427C66.401 50.8339 65.4475 49.854 64.2722 49.854C63.7023 49.854 63.1557 50.0846 62.7527 50.495C62.3497 50.9055 62.1233 51.4622 62.1233 52.0427C62.1233 52.6232 62.3497 53.18 62.7527 53.5904C63.1557 54.0009 63.7023 54.2315 64.2722 54.2315V54.2315ZM69.8893 55.5489C70.8716 55.5489 71.6839 54.7244 71.6839 53.7004C71.6839 52.6765 70.8831 51.852 69.8893 51.852C69.411 51.8558 68.9537 52.0524 68.6174 52.3988C68.281 52.7453 68.0931 53.2133 68.0947 53.7004C68.1063 54.7127 68.9042 55.5489 69.8893 55.5489ZM70.621 48.8065C71.0377 48.8035 71.4361 48.6322 71.7288 48.3302C72.0216 48.0281 72.1847 47.6201 72.1823 47.1958C72.1823 46.3067 71.4823 45.585 70.621 45.585C69.7597 45.585 69.0597 46.3067 69.0597 47.1958C69.0574 47.6201 69.2204 48.0281 69.5132 48.3302C69.8059 48.6322 70.2043 48.8035 70.621 48.8065V48.8065ZM66.3001 46.6002C66.7769 46.5989 67.2338 46.405 67.5703 46.061C67.9068 45.717 68.0955 45.2509 68.0949 44.7653C68.0943 44.2797 67.9045 43.8141 67.5671 43.4709C67.2298 43.1278 66.7725 42.935 66.2957 42.935C65.8189 42.935 65.3616 43.1278 65.0242 43.4709C64.6869 43.8141 64.4971 44.2797 64.4965 44.7653C64.4959 45.2509 64.6846 45.717 65.0211 46.061C65.3576 46.405 65.8144 46.5989 66.2912 46.6002H66.3001ZM60.7493 45.2622C61.3121 45.2576 61.8501 45.0258 62.2454 44.6177C62.6407 44.2096 62.8609 43.6585 62.8579 43.0852C62.8579 41.8764 61.9159 40.9082 60.7493 40.9082C59.5826 40.9082 58.6407 41.8881 58.6407 43.0852C58.6384 43.3688 58.691 43.6501 58.7954 43.9129C58.8999 44.1758 59.0541 44.4152 59.2494 44.6173C59.4447 44.8195 59.6771 44.9805 59.9335 45.0911C60.1898 45.2018 60.4651 45.2599 60.7435 45.2622H60.7493ZM53.9626 45.271C55.3309 45.271 56.4342 44.1268 56.4342 42.7214C56.4342 41.316 55.3309 40.1717 53.9626 40.1717C52.5944 40.1717 51.4911 41.316 51.4911 42.7214C51.4888 43.3927 51.7474 44.0377 52.2105 44.5155C52.6736 44.9932 53.3035 45.2648 53.9626 45.271V45.271ZM44.8226 38.8955C46.3723 38.8955 47.6196 37.6045 47.6196 36.0055C47.6196 34.4064 46.3637 33.1155 44.8226 33.1155C43.2728 33.1155 42.0255 34.4064 42.0255 36.0055C42.0255 37.6045 43.2815 38.8955 44.8226 38.8955ZM52.6894 37.1438C54.0577 37.1438 55.161 35.9996 55.161 34.5942C55.161 33.1888 54.0577 32.0445 52.6894 32.0445C51.3211 32.0445 50.2179 33.1888 50.2179 34.5942C50.2179 35.9996 51.3211 37.1438 52.6894 37.1438V37.1438ZM59.4847 37.1761C60.66 37.1761 61.6134 36.1962 61.6134 34.9786C61.6134 33.7609 60.66 32.781 59.4847 32.781C59.2036 32.7825 58.9256 32.8404 58.6665 32.9514C58.4074 33.0624 58.1723 33.2243 57.9747 33.4278C57.777 33.6313 57.6206 33.8725 57.5145 34.1376C57.4083 34.4026 57.3544 34.6864 57.3559 34.9727V34.9727V34.9786C57.3536 35.5571 57.5762 36.113 57.9751 36.5248C58.374 36.9366 58.9167 37.1708 59.4847 37.1761V37.1761ZM65.0615 38.4847C66.0553 38.4847 66.8561 37.6602 66.8561 36.6363C66.8561 35.6123 66.0553 34.7878 65.0615 34.7878C64.5802 34.7878 64.1186 34.9826 63.7783 35.3292C63.4379 35.6759 63.2467 36.146 63.2467 36.6363C63.2467 37.1265 63.4379 37.5967 63.7783 37.9433C64.1186 38.2899 64.5802 38.4847 65.0615 38.4847ZM69.3449 40.7497C69.7722 40.7466 70.1809 40.571 70.4812 40.2613C70.7815 39.9516 70.9488 39.5332 70.9465 39.0979C70.9465 38.1796 70.2264 37.4461 69.3449 37.4461C68.4635 37.4461 67.7433 38.1884 67.7433 39.0979C67.7433 40.0074 68.4635 40.7497 69.3449 40.7497ZM72.4876 43.3493C72.6616 43.3481 72.8337 43.3121 72.994 43.2432C73.1544 43.1743 73.2998 43.0739 73.4221 42.9478C73.5443 42.8216 73.6409 42.6722 73.7065 42.508C73.772 42.3438 73.8052 42.1681 73.804 41.9908V41.9879C73.8056 41.8107 73.7728 41.6348 73.7076 41.4705C73.6424 41.3062 73.5461 41.1565 73.4241 41.0301C73.3021 40.9037 73.1569 40.803 72.9967 40.7337C72.8365 40.6645 72.6645 40.628 72.4905 40.6265H72.4876C72.3136 40.6277 72.1415 40.6637 71.9812 40.7326C71.8209 40.8015 71.6754 40.9019 71.5532 41.028C71.4309 41.1542 71.3343 41.3036 71.2687 41.4678C71.2032 41.632 71.1701 41.8077 71.1712 41.985V41.9879C71.1685 42.164 71.1999 42.3388 71.2636 42.5026C71.3274 42.6663 71.4221 42.8156 71.5425 42.942C71.6629 43.0684 71.8065 43.1694 71.9652 43.2392C72.1239 43.309 72.2946 43.3463 72.4675 43.349H72.4882L72.4876 43.3493Z" fill="black"/>
<path d="M64 118C96.0325 118 122 92.0325 122 60C122 27.9675 96.0325 2 64 2C31.9675 2 6 27.9675 6 60C6 92.0325 31.9675 118 64 118Z" stroke="black" stroke-opacity="0.097"/>
</svg>
