<svg viewBox="0 0 128 128" fill="none" xmlns="http://www.w3.org/2000/svg">
<path d="M123.997 59.9941C123.997 93.1269 97.1371 119.988 63.9986 119.988C30.8601 119.988 4 93.1269 4 59.9941C4 26.8614 30.8607 6.10352e-05 63.9986 6.10352e-05C97.1364 6.10352e-05 123.997 26.8589 123.997 59.9941Z" fill="#232C45"/>
<g clip-path="url(#clip0)">
<path d="M74.9784 35.9068V23.3401L64.0874 21.1735V33.7401L53.1963 31.1401V43.7068L42.3052 41.1068V81.4068L53.1963 84.0068V96.5734L64.0874 99.1735V86.6068L74.9784 89.2068V76.6401L85.8695 79.2401V38.9402L74.9784 35.9068ZM66.2656 78.8068L51.018 75.3401V51.5068L66.2656 54.9735V78.8068Z" fill="white"/>
</g>
<path d="M64 118C96.0325 118 122 92.0325 122 60C122 27.9675 96.0325 2 64 2C31.9675 2 6 27.9675 6 60C6 92.0325 31.9675 118 64 118Z" stroke="black" stroke-opacity="0.097"/>
<defs>
<clipPath id="clip0">
<rect width="44" height="78" fill="white" transform="translate(42 21)"/>
</clipPath>
</defs>
</svg>
