<svg viewBox="0 0 128 128" fill="none" xmlns="http://www.w3.org/2000/svg">
<g clip-path="url(#clip0)">
<path d="M64 -0.000249386C30.8629 -0.000252283 4.00001 26.8627 4.00001 59.9997C4 93.1368 30.8629 120 64 120C97.1371 120 124 93.1368 124 59.9998C124 26.8627 97.1371 -0.000246489 64 -0.000249386Z" fill="url(#paint0_linear)"/>
<path d="M34.4552 78V49.7483L55.8212 65.873V78H61.2744V64.7345C61.2734 64.2416 61.1585 63.7556 60.9386 63.3147C60.7188 62.8738 60.4 62.49 60.0074 62.1934L34.0961 42.6313C33.6221 42.2784 33.0599 42.0641 32.4718 42.0123C31.8837 41.9605 31.2928 42.0732 30.7647 42.338C30.2367 42.6027 29.7922 43.0091 29.4807 43.5119C29.1691 44.0148 29.0028 44.5944 29 45.1864V78H34.4552ZM93.5448 78V49.7483L72.1788 65.873V78H66.7256V64.7345C66.7266 64.2416 66.8415 63.7556 67.0614 63.3147C67.2812 62.8738 67.6 62.49 67.9926 62.1934L93.9039 42.6393C94.3773 42.2868 94.9389 42.0725 95.5263 42.0204C96.1136 41.9683 96.704 42.0804 97.2317 42.3442C97.7595 42.6079 98.2041 43.0131 98.5162 43.5148C98.8283 44.0165 98.9958 44.5951 99 45.1864V78H93.5448Z" fill="white"/>
<path d="M64 118C96.0325 118 122 92.0325 122 60C122 27.9675 96.0325 2 64 2C31.9675 2 6 27.9675 6 60C6 92.0325 31.9675 118 64 118Z" stroke="black" stroke-opacity="0.097"/>
</g>
<defs>
<linearGradient id="paint0_linear" x1="64" y1="120" x2="64" y2="-0.000249386" gradientUnits="userSpaceOnUse">
<stop stop-color="#4FA89B"/>
<stop offset="1" stop-color="#6ACEBB"/>
</linearGradient>
<clipPath id="clip0">
<rect width="128" height="128" fill="white"/>
</clipPath>
</defs>
</svg>
