<svg viewBox="0 0 128 128" fill="none" xmlns="http://www.w3.org/2000/svg">
<path d="M64.0002 127.981C99.3411 127.981 127.991 99.3313 127.991 63.9904C127.991 28.6495 99.3411 0 64.0002 0C28.6592 0 0.00976562 28.6495 0.00976562 63.9904C0.00976562 99.3313 28.6592 127.981 64.0002 127.981Z" fill="#1F9CE9"/>
<path d="M77.5675 78.5449H88.3061V73.9283H74.6192L68.8616 64.8293H88.3013V60.2126H68.9287L92.2851 24.3774H86.1631L64.1778 58.0362L42.8061 24.3774H36.3151L59.2017 60.2462H39.8291V64.8964H59.3359L53.5495 73.8947H39.8626V78.4443H50.6683L33.8701 104.418H40.1934L57.0923 78.5449H71.0764L87.6733 104.418H93.9966L77.5675 78.5449ZM59.9016 73.9283L64.1011 67.4947L68.3007 73.9283H59.9016Z" fill="#FEFEFE"/>
</svg>
