<svg viewBox="0 0 128 128" fill="none" xmlns="http://www.w3.org/2000/svg">
<g clip-path="url(#clip0)">
<path d="M64 -0.000127316C30.8629 -0.000130213 4.00001 26.8628 4.00001 59.9999C4 93.137 30.8629 120 64 120C97.1371 120 124 93.137 124 59.9999C124 26.8628 97.1371 -0.000124419 64 -0.000127316Z" fill="white"/>
<path d="M64 118C96.0325 118 122 92.0325 122 60C122 27.9675 96.0325 2 64 2C31.9675 2 6 27.9675 6 60C6 92.0325 31.9675 118 64 118Z" stroke="black" stroke-opacity="0.097"/>
<path d="M81.8812 33.1178L69.1532 52.0278C68.273 53.3156 69.9656 54.8744 71.1842 53.79L83.7092 42.8778C84.0477 42.6067 84.5216 42.81 84.5216 43.2844V77.3767C84.5216 77.8511 83.9123 78.0544 83.6415 77.7156L45.7281 32.3044C44.5094 30.8133 42.7492 30 40.7858 30H39.4317C35.9112 30 33 32.9144 33 36.5067V84.4933C33 88.0856 35.9112 91 39.4994 91C41.7336 91 43.8324 89.8478 45.0511 87.8822L57.7791 68.9722C58.6593 67.6844 56.9667 66.1256 55.7481 67.21L43.2231 78.0544C42.8846 78.3256 42.4107 78.1222 42.4107 77.6478V43.6233C42.4107 43.1489 43.02 42.9456 43.2908 43.2844L81.2042 88.6956C82.4229 90.1867 84.2508 91 86.1465 91H87.5006C91.0888 91 94 88.0856 94 84.4933V36.5067C94 32.9144 91.0888 30 87.5006 30C85.1987 30 83.0999 31.1522 81.8812 33.1178Z" fill="black"/>
</g>
<defs>
<clipPath id="clip0">
<rect width="128" height="128" fill="white"/>
</clipPath>
</defs>
</svg>
