<svg viewBox="0 0 128 128" fill="none" xmlns="http://www.w3.org/2000/svg">
<path d="M124 59.9941C124 93.1268 97.1395 119.988 64.001 119.988C30.8625 119.988 4.00244 93.1268 4.00244 59.9941C4.00244 26.8614 30.8631 0 64.001 0C97.1389 0 124 26.8588 124 59.9941Z" fill="white"/>
<g clip-path="url(#clip0)">
<path d="M30 36.7973V85.629L62.1825 97V47.772L97 35.1332L65.4008 24L30 36.7973Z" fill="#00E599"/>
<path d="M64.8174 49.1787V75.8827L96.9999 87.2536V37.4512L64.8174 49.1787Z" fill="#00AF92"/>
</g>
<path d="M64 118C96.0325 118 122 92.0325 122 60C122 27.9675 96.0325 2 64 2C31.9675 2 6 27.9675 6 60C6 92.0325 31.9675 118 64 118Z" stroke="black" stroke-opacity="0.097"/>
<defs>
<clipPath id="clip0">
<rect width="67" height="73" fill="white" transform="translate(30 24)"/>
</clipPath>
</defs>
</svg>
