<svg viewBox="0 0 128 128" fill="none" xmlns="http://www.w3.org/2000/svg">
<g clip-path="url(#clip0)">
<path d="M64 -0.000127316C30.8629 -0.000130213 4.00001 26.8628 4.00001 59.9999C4 93.137 30.8629 120 64 120C97.1371 120 124 93.137 124 59.9999C124 26.8628 97.1371 -0.000124419 64 -0.000127316Z" fill="white"/>
<path d="M64 118C96.0325 118 122 92.0325 122 60C122 27.9675 96.0325 2 64 2C31.9675 2 6 27.9675 6 60C6 92.0325 31.9675 118 64 118Z" stroke="black" stroke-opacity="0.097"/>
<g clip-path="url(#clip1)">
<path d="M45.7219 27.4311L82.9846 48.9897V70.9794L26 37.9948L44.2627 27.4311C44.4869 27.3098 44.7376 27.2463 44.9923 27.2463C45.247 27.2463 45.4978 27.3098 45.7219 27.4311Z" fill="#3CA9E5"/>
<path d="M82.9849 27L63.9849 37.9949L82.9849 48.9897V27Z" fill="#2853C3"/>
<path d="M82.9849 27L101.263 37.5637C101.483 37.6978 101.666 37.8851 101.794 38.1084C101.923 38.3317 101.994 38.5839 102 38.8418V81.9589L82.9849 70.9795V27Z" fill="#1A4199"/>
<path d="M101.985 81.9744L83.7218 92.5381C83.4883 92.6732 83.2235 92.7444 82.9538 92.7444C82.6842 92.7444 82.4194 92.6732 82.1859 92.5381L44.9385 70.9795V48.959L101.985 81.9744Z" fill="#2853C3"/>
<path d="M26 37.9949V81.112C25.9985 81.3778 26.0656 81.6394 26.1948 81.8715C26.324 82.1035 26.5109 82.2981 26.7373 82.4363L45 93V48.9589L26 37.9949Z" fill="#60BEFF"/>
<path d="M45 92.9692L63.9846 81.9744L45 70.9795V92.9692Z" fill="#3CA9E5"/>
</g>
</g>
<defs>
<clipPath id="clip0">
<rect width="128" height="128" fill="white"/>
</clipPath>
<clipPath id="clip1">
<rect width="76" height="66" fill="white" transform="translate(26 27)"/>
</clipPath>
</defs>
</svg>
