<svg viewBox="0 0 128 128" fill="none" xmlns="http://www.w3.org/2000/svg">
<path d="M123.997 59.9941C123.997 93.1268 97.1371 119.988 63.9986 119.988C30.8601 119.988 4 93.1268 4 59.9941C4 26.8614 30.8607 0 63.9986 0C97.1364 0 123.997 26.8588 123.997 59.9941Z" fill="white"/>
<g clip-path="url(#clip0)">
<path d="M103.997 75.5188C104 65.1704 104 54.8222 103.997 44.4741C104.039 43.4161 103.506 42.3631 102.655 41.7394C90.2886 32.7293 77.9222 23.7179 65.5556 14.7051C65.1816 14.4135 64.7493 14.2051 64.2878 14.094C63.8263 13.9829 63.3462 13.9717 62.88 14.0611C62.3038 14.1738 61.7844 14.4613 61.3217 14.8072C49.0434 23.7562 36.7645 32.7048 24.485 41.6529C24.026 41.971 23.6514 42.3957 23.3937 42.8903C23.136 43.385 23.0027 43.9347 23.0055 44.4921C22.9982 54.8377 22.9982 65.1828 23.0055 75.5275C22.9894 76.6481 23.5725 77.7355 24.4965 78.3667C36.7748 87.3111 49.0506 96.2575 61.324 105.206C62.4985 106.208 64.341 106.287 65.5533 105.31C77.8802 96.3349 90.2025 87.3553 102.52 78.3713C103.448 77.748 104.048 76.6412 103.996 75.5192" fill="#050708"/>
<path d="M59.2243 21.4664C59.55 21.0984 59.8803 20.5248 60.4528 20.6012C62.4 20.6127 64.3518 20.5708 66.2985 20.6219C66.6357 20.8307 66.8941 21.144 67.1824 21.4131C67.175 23.4169 67.175 25.4211 67.1824 27.4258C66.603 27.4327 66.0217 27.4585 65.4423 27.4189C65.4073 27.2773 65.3376 26.999 65.3039 26.8577C65.3039 25.3613 65.434 23.8631 65.3085 22.369C63.8775 22.3711 62.4475 22.3711 61.0183 22.369C61.0114 22.8722 61.0091 23.3782 61.0045 23.8815C60.402 23.8815 59.7972 23.8815 59.1925 23.8769C59.1966 23.076 59.108 22.2618 59.2243 21.4664Z" fill="white"/>
<path d="M54.369 23.9113C55.0273 23.886 55.6856 23.886 56.3462 23.9021C56.3555 26.6741 56.367 29.4438 56.3393 32.2136C55.711 32.2274 55.0832 32.2274 54.4572 32.2228C54.2482 29.4627 54.4152 26.681 54.369 23.9113Z" fill="white"/>
<path d="M71.115 26.8899C72.868 26.8669 74.6182 26.8738 76.3703 26.8853C76.3795 27.5256 76.3795 28.1637 76.3703 28.8035C74.6173 28.8219 72.8643 28.8288 71.1113 28.7989C71.1048 28.1632 71.1048 27.5233 71.1113 26.8899" fill="white"/>
<path d="M60.4854 27.8339C61.1925 27.8178 61.8997 27.8201 62.6074 27.8201C63.2841 29.1329 64.1334 30.3579 64.6833 31.7334C64.0342 31.7637 63.3829 31.7637 62.7338 31.766C61.9625 30.4674 61.2179 29.1536 60.4854 27.8339Z" fill="white"/>
<path d="M67.7059 30.1422C68.3176 30.1284 68.9293 30.1307 69.5437 30.1399C71.2091 32.716 72.8278 35.3224 74.5056 37.8925C74.5056 38.6745 74.5056 39.4565 74.4918 40.2385C74.31 40.2058 73.952 40.1433 73.773 40.1134C72.3494 37.9973 71.0398 35.8059 69.6323 33.6806C69.6092 36.0727 69.6392 38.4647 69.6162 40.8568C68.9786 40.8684 68.3397 40.8684 67.6994 40.8568C67.6916 37.2866 67.68 33.7142 67.7059 30.1422Z" fill="white"/>
<path d="M75.3083 31.5916C75.9597 31.5778 76.6133 31.5778 77.2647 31.5962C77.2693 32.2085 77.2693 32.8235 77.2647 33.4363C76.6133 33.4524 75.9597 33.4524 75.3106 33.4409C75.306 32.8257 75.306 32.2093 75.3106 31.5916" fill="white"/>
<path d="M43.1051 32.197C43.619 32.1878 44.1334 32.1901 44.6473 32.1947C46.0197 32.1027 47.3898 32.1299 48.7627 32.2085C48.7673 32.8024 48.7627 33.3986 48.7581 33.9924C46.7283 35.2078 44.7779 36.5556 42.719 37.7185C42.1119 37.4885 41.6488 37.0041 41.1533 36.6002C42.5004 35.7814 43.8192 34.9184 45.1801 34.1226C44.4914 34.0877 43.8008 34.0923 43.1121 34.0854C43.1001 33.4542 43.0978 32.8248 43.1051 32.197Z" fill="white"/>
<path d="M59.3431 32.9022C59.9737 32.8838 60.6062 32.8861 61.2345 32.9022C61.2506 33.5334 61.2506 34.1617 61.2345 34.7929C60.604 34.8113 59.9736 34.812 59.3431 34.7952C59.3283 34.164 59.3283 33.5331 59.3431 32.9022Z" fill="white"/>
<path d="M50.089 34.7488C51.0988 36.2751 52.0782 37.8225 53.1014 39.3396C54.1227 37.8041 55.109 36.2452 56.1396 34.7166C56.1396 35.7286 56.207 36.7512 56.1188 37.7623C55.1838 39.3603 54.102 40.8706 53.0945 42.4249C52.1036 40.8963 51.0541 39.3999 50.1144 37.8414C50.0078 36.8156 50.0844 35.7787 50.089 34.7488Z" fill="white"/>
<path d="M78.0438 35.0064C81.0747 34.9926 84.1058 34.9934 87.1372 35.0087C87.1372 35.621 87.1372 36.236 87.1345 36.8487C84.1055 36.8558 81.0753 36.8565 78.0438 36.851C78.0411 36.236 78.0392 35.6196 78.0438 35.0064Z" fill="white"/>
<path d="M61.9994 37.4002C62.6088 37.3887 63.2205 37.3887 63.8326 37.3956C63.8631 40.077 63.8326 42.7611 63.8488 45.4457C63.5651 45.7148 63.2837 45.9885 63.0069 46.2622C60.9061 46.2852 58.8057 46.2622 56.7072 46.2737C56.4304 46.0092 56.1467 45.7562 55.8976 45.471C55.7906 44.6499 55.8695 43.8122 55.8672 42.987C56.4515 42.9824 57.0377 42.9824 57.6257 42.987C57.6418 43.4603 57.6395 43.9332 57.6326 44.4066C59.0774 44.569 60.5333 44.4526 61.9851 44.4875C61.9925 42.1254 61.9694 39.7596 61.9994 37.4002Z" fill="white"/>
<path d="M91.3039 45.3267C91.2848 43.3026 91.2848 41.2775 91.3039 39.2513C91.9391 39.2375 92.5738 39.2352 93.2114 39.2513C93.232 41.2754 93.232 43.3013 93.2114 45.329C92.5757 45.3396 91.9409 45.3373 91.3057 45.329" fill="white"/>
<path d="M82.2525 40.7804C83.4519 40.7689 84.6578 40.583 85.8507 40.7758C86.6322 43.3159 87.3025 45.8952 88.0793 48.44C87.4653 48.4446 86.8486 48.4446 86.2341 48.4446C85.6478 46.4707 85.1477 44.4733 84.5429 42.5036C84.2057 42.5082 83.8685 42.5128 83.5308 42.5151C83.0284 44.5032 82.4236 46.461 81.9047 48.4418C81.2856 48.444 80.6668 48.4432 80.0483 48.4395C80.81 45.8952 81.5245 43.3334 82.2525 40.7804Z" fill="white"/>
<path d="M30.9739 41.7501C33.7376 41.734 36.5036 41.7271 39.2669 41.7501C39.283 42.3836 39.283 43.0142 39.2692 43.6477C36.5013 43.673 33.7371 43.6661 30.9711 43.65C30.9623 43.0165 30.9623 42.3794 30.9739 41.7478" fill="white"/>
<path d="M40.57 41.7524C41.1983 41.7478 41.8261 41.7455 42.4568 41.7524C42.4706 42.3881 42.4706 43.0257 42.4568 43.6614C41.8261 43.6683 41.1983 43.666 40.57 43.6614C40.5626 43.0257 40.5626 42.3923 40.57 41.757" fill="white"/>
<path d="M47.516 41.8305C48.1323 41.8259 48.7514 41.8282 49.3677 41.8351C49.3861 43.3071 49.3769 44.7833 49.3769 46.2567C48.7509 46.2613 48.1254 46.2636 47.5021 46.2567C47.4957 44.7847 47.4763 43.3049 47.516 41.8282" fill="white"/>
<path d="M95.8261 43.1531C96.5356 43.1393 97.2474 43.1416 97.9569 43.1393C98.6595 44.4383 99.5134 45.6693 100.037 47.0572C99.3907 47.0802 98.7407 47.0825 98.094 47.0852C97.3291 45.7793 96.6007 44.4517 95.8257 43.1531" fill="white"/>
<path d="M67.855 44.7287C68.47 44.7241 69.0851 44.7241 69.7002 44.7287C69.714 46.7467 69.7044 48.7648 69.7044 50.7833C69.0857 50.7879 68.469 50.7902 67.8508 50.7902C67.8508 48.7703 67.8476 46.7476 67.855 44.7264" fill="white"/>
<path d="M74.3439 47.1828C74.3365 46.5517 74.3365 45.9192 74.3439 45.2853C74.9648 45.2761 75.5895 45.2761 76.2118 45.2922C76.2118 45.9233 76.2164 46.554 76.2072 47.1851C75.5872 47.1874 74.9616 47.1851 74.3416 47.1851" fill="white"/>
<path d="M39.2344 49.9801C40.7253 48.8945 42.3169 47.9505 43.8475 46.9252C44.8596 46.9367 45.869 46.9252 46.8811 46.939C45.3781 48.0108 43.7801 48.9363 42.268 49.9939C43.8221 50.9682 45.3458 51.989 46.8903 52.9725C45.8505 52.9909 44.8107 52.9793 43.7709 52.9816C42.2703 51.9659 40.7115 51.0298 39.2344 49.9801Z" fill="white"/>
<path d="M91.3064 48.2196C91.9435 48.2058 92.581 48.2035 93.2209 48.2196C93.2365 48.8553 93.2347 49.4883 93.2162 50.124C92.581 50.1378 91.9439 50.1355 91.3087 50.124C91.2949 49.4905 91.2949 48.8572 91.3087 48.2242" fill="white"/>
<path d="M25.8628 48.4796C29.0459 48.4612 32.2344 48.4543 35.4217 48.4842C35.4286 49.0849 35.4286 49.688 35.4309 50.2911C34.0073 51.2212 32.5837 52.156 31.1204 53.0189C30.5018 52.794 30.034 52.2829 29.5058 51.908C30.2942 51.4117 31.0945 50.9314 31.8585 50.4001C29.8601 50.3909 27.8621 50.4116 25.8614 50.3886C25.8522 49.7529 25.8522 49.1165 25.8614 48.4796" fill="white"/>
<path d="M53.1177 50.3214C55.8745 50.3329 58.6309 50.3076 61.3854 50.3329C61.4524 50.958 61.4439 51.5889 61.36 52.212C58.6124 52.2235 55.8676 52.2143 53.1228 52.2166C53.1179 51.5827 53.1162 50.951 53.1177 50.3214Z" fill="white"/>
<path d="M63.186 50.3329C63.8489 50.3191 64.5095 50.3191 65.1729 50.3421C65.175 50.9591 65.1741 51.5746 65.1701 52.1886C64.5095 52.207 63.8466 52.207 63.1865 52.1955C63.18 51.574 63.18 50.9535 63.1865 50.3329" fill="white"/>
<path d="M71.8562 52.9914C71.77 52.3395 72.4402 52.0056 72.7844 51.558C73.594 51.558 74.4031 51.5534 75.2132 51.5695C75.2317 52.1772 75.2317 52.7848 75.222 53.3953C74.7108 53.4045 74.196 53.4045 73.6849 53.4114V57.74C76.0643 57.7561 78.4442 57.7308 80.8241 57.7538C80.8311 58.3684 80.8311 58.9834 80.8149 59.5939C78.1352 59.6123 75.4526 59.5962 72.7729 59.6031C72.431 59.1578 71.775 58.8211 71.8585 58.1743C71.8465 56.4474 71.8465 54.7198 71.8585 52.9914" fill="white"/>
<path d="M80.8798 52.4158C81.5358 52.3928 82.1964 52.3928 82.8547 52.4158C82.8618 53.042 82.8618 53.6684 82.8547 54.2949C82.1964 54.3179 81.5404 54.3179 80.8821 54.2949C80.8752 53.6661 80.8752 53.04 80.8821 52.4112" fill="white"/>
<path d="M87.1491 52.4159C89.9221 52.3786 92.6927 52.4044 95.4656 52.4021C95.4703 53.0401 95.4703 53.6804 95.4629 54.318C92.6922 54.318 89.9221 54.341 87.151 54.3065C87.1417 53.6754 87.1417 53.0452 87.151 52.4159" fill="white"/>
<path d="M48.7376 54.6221C50.2917 54.6198 51.8431 54.6221 53.3968 54.6198C53.4107 55.2638 53.4107 55.9078 53.3968 56.5518C51.845 56.5543 50.2941 56.5543 48.744 56.5518C48.717 55.9078 48.7156 55.2645 48.7399 54.6221" fill="white"/>
<path d="M58.9843 54.622C61.4224 54.6197 63.8604 54.622 66.298 54.6174C67.1837 54.4794 68.0708 55.3966 67.9587 56.2688C67.9535 58.0546 67.9526 59.8423 67.9559 61.632C67.6441 61.9683 67.3304 62.3 67.0162 62.6339C66.209 62.6339 65.4044 62.6339 64.5971 62.6247C64.5904 62.0114 64.5896 61.399 64.5948 60.7875C65.0995 60.7806 65.6051 60.776 66.1093 60.7691C66.1093 59.3633 66.1093 57.9552 66.1139 56.5494C63.7455 56.3383 61.3592 56.5145 58.9839 56.4519C58.978 55.8385 58.978 55.2286 58.9839 54.622" fill="white"/>
<path d="M41.8026 55.1879C42.9937 55.181 44.1825 55.1741 45.3736 55.1925C46.0947 57.7602 46.8692 60.3142 47.551 62.894C46.9513 62.894 46.3516 62.894 45.7551 62.8986C45.1434 60.9173 44.6711 58.8992 44.0404 56.9276C43.7009 56.9483 43.3614 56.9736 43.0214 56.9994C42.5702 58.9853 41.9258 60.9196 41.4327 62.8963C40.8163 62.8963 40.1996 62.8963 39.5874 62.8894C40.3209 60.322 41.0511 57.751 41.8017 55.1879" fill="white"/>
<path d="M93.7654 57.5077C95.8413 57.487 97.9199 57.4659 99.9931 57.5146C100.517 57.8366 101.107 58.3592 100.993 59.0455C100.993 60.5176 100.984 61.9937 100.993 63.4671C100.975 64.1746 101.007 64.8821 100.986 65.5896C101.019 66.1674 100.861 66.7355 100.894 67.3156C100.303 67.3156 99.7121 67.3156 99.1212 67.3087C99.1281 64.6503 99.1212 61.9896 99.1258 59.3312C97.6759 59.2916 96.2274 59.322 94.7779 59.3105C94.7752 59.8045 94.7752 60.2986 94.7664 60.7949C94.1566 60.8041 93.5469 60.8072 92.9373 60.8041C92.9258 59.9899 92.9286 59.1734 92.9304 58.3592C93.2113 58.0786 93.4881 57.7952 93.7649 57.5077" fill="white"/>
<path d="M34.6909 57.5818H36.6192C36.6238 59.6021 36.6192 61.6202 36.6192 63.6387H34.6816C34.6909 61.6207 34.6839 59.6003 34.6886 57.5818" fill="white"/>
<path d="M28.6403 59.2709C29.2732 59.2617 29.9056 59.2801 30.5362 59.3219C30.5433 59.9203 30.5433 60.5195 30.5362 61.1196C29.8987 61.1265 29.2616 61.1288 28.6241 61.1196C28.6172 60.5023 28.6195 59.8877 28.6403 59.2732" fill="white"/>
<path d="M51.2987 70.3429C51.2821 66.7705 51.2813 63.1977 51.2964 59.6247C51.9247 59.6155 52.5526 59.6155 53.1809 59.6293C54.6571 62.0025 56.1794 64.3499 57.687 66.7065C58.3383 67.5438 57.9476 68.6666 58.0523 69.6409C57.8337 69.6409 57.615 69.6455 57.3986 69.6501C56.0424 67.5019 54.6257 65.3909 53.3276 63.21C53.0927 65.5809 53.2856 67.9725 53.209 70.3526C52.5701 70.359 51.9335 70.359 51.2987 70.3429Z" fill="white"/>
<path d="M59.6743 60.9987C60.3137 60.9849 60.9533 60.9834 61.5933 60.9941C61.6026 62.5554 61.6003 64.1166 61.5933 65.6775C60.9512 65.689 60.3114 65.689 59.6697 65.6729C59.6591 64.1144 59.6563 62.5554 59.6697 60.9987" fill="white"/>
<path d="M71.2721 63.0866C71.8981 63.082 72.526 63.0797 73.1543 63.0866C73.166 63.7224 73.166 64.3579 73.1543 64.9934C72.526 64.9958 71.8986 64.9958 71.2721 64.9934C71.2648 64.3601 71.2648 63.7253 71.2721 63.0889" fill="white"/>
<path d="M77.3739 63.17C79.3234 63.1447 81.2729 63.1585 83.2247 63.1631C83.3036 63.7312 83.3525 64.3089 83.2967 64.8844C83.1122 65.2579 82.6707 65.1093 82.3404 65.1443C80.6797 65.0955 79.0139 65.2395 77.3647 65.0523C77.3531 64.4225 77.3531 63.7965 77.3739 63.17Z" fill="white"/>
<path d="M85.2392 63.4391C85.8675 63.4299 86.5023 63.388 87.1306 63.4851C87.191 65.6793 87.1559 67.881 87.1444 70.078C86.5093 70.0896 85.875 70.0896 85.2415 70.078C85.2203 67.8659 85.2203 65.6537 85.2415 63.4414" fill="white"/>
<path d="M67.855 64.7391C68.469 64.7391 69.0858 64.7345 69.7003 64.7391C69.7072 65.3703 69.709 66.0032 69.7003 66.639C69.0852 66.6482 68.4701 66.6482 67.855 66.639C67.8504 66.006 67.8504 65.3703 67.855 64.7368" fill="white"/>
<path d="M38.2782 66.0882C40.4695 65.8517 42.6819 66.0394 44.8824 65.97C45.4494 65.9627 46.0164 65.9882 46.5805 66.0463C46.5897 66.6844 46.5874 67.3247 46.5805 67.9623C43.8126 67.9577 41.0507 67.9761 38.2875 67.9531C38.2708 67.3316 38.2708 66.711 38.2759 66.0882" fill="white"/>
<path d="M25.8654 67.499C26.1657 67.2069 26.4678 66.9121 26.7705 66.62C27.5708 66.6154 28.3708 66.6131 29.1693 66.6292C29.1785 67.2322 29.1785 67.8376 29.1739 68.4407C28.6761 68.4522 28.1807 68.4545 27.6829 68.4591C27.6945 69.8975 27.676 71.3355 27.6945 72.774C30.0509 72.7809 32.4077 72.7579 34.7641 72.7855C34.7756 73.3793 34.7756 73.9709 34.771 74.5648C34.187 74.5671 33.6007 74.5694 33.018 74.5694C30.9269 74.5487 28.833 74.6043 26.7442 74.5441C26.3954 74.3467 26.0439 74.022 25.8857 73.6535C25.8308 71.6032 25.8792 69.5502 25.8677 67.499" fill="white"/>
<path d="M74.7525 68.6951C75.0667 68.4007 75.3831 68.1059 75.7065 67.8184C77.7441 67.8345 79.7822 67.8184 81.8198 67.8253C82.1271 68.1174 82.4338 68.4122 82.7425 68.702C82.7449 70.7132 82.7449 72.7236 82.7425 74.7332C82.1215 74.7378 81.5001 74.7332 80.8815 74.7171C80.8815 73.0261 80.8677 71.3374 80.8884 69.6464C79.4584 69.6441 78.0343 69.6464 76.6079 69.6441C76.6102 70.1589 76.6079 70.6741 76.5964 71.1888C75.9847 71.198 75.373 71.198 74.7631 71.1957C74.7433 70.3622 74.7479 69.5296 74.7502 68.6951" fill="white"/>
<path d="M87.8352 72.245C90.0956 70.7767 92.3787 69.347 94.658 67.9117C95.2024 68.2738 95.7375 68.6542 96.268 69.0346C94.6276 70.0773 92.9884 71.1174 91.3504 72.1549C93.758 72.1802 96.166 72.1549 98.5759 72.1687C98.5806 72.8067 98.5806 73.447 98.5759 74.0846C94.9974 74.0963 91.4194 74.0963 87.8421 74.0846C87.8329 73.4696 87.8329 72.855 87.8375 72.2446" fill="white"/>
<path d="M62.2529 72.6089C64.5212 71.1033 66.8614 69.7067 69.1293 68.2015C69.6685 68.5728 70.2018 68.9509 70.7508 69.3056C69.1823 70.405 67.5174 71.3632 65.919 72.423C68.3127 72.4649 70.7065 72.4184 73.1002 72.4483C73.1164 73.1048 73.1164 73.7635 73.1002 74.4199C69.5177 74.4406 65.9347 74.4268 62.3516 74.4268C62.2594 73.8247 62.2594 73.2147 62.2552 72.6066" fill="white"/>
<path d="M38.7063 70.985C39.7018 72.5031 40.7 74.0211 41.684 75.5433C42.74 74.04 43.6847 72.4612 44.7315 70.9501C44.7522 71.9731 44.7361 72.9985 44.7453 74.0216C43.7032 75.5433 42.7492 77.1252 41.6794 78.6262C40.6885 77.1183 39.7276 75.5902 38.6947 74.1099C38.6846 73.0684 38.674 72.0247 38.7063 70.985Z" fill="white"/>
<path d="M49.6179 74.8799C49.5949 74.2304 49.5926 73.5809 49.6295 72.9336C50.2555 72.9267 50.8856 72.929 51.5116 72.9796C51.5255 73.6126 51.5255 74.2459 51.5116 74.8795C50.8824 74.8845 50.2518 74.8868 49.6202 74.8795" fill="white"/>
<path d="M58.487 75.8175C59.1222 75.8106 59.7593 75.8083 60.3945 75.8175C60.4106 78.1764 60.3945 80.5358 60.4037 82.8947C59.9525 82.9131 59.5009 82.9343 59.0498 82.9757C58.9054 82.9476 58.617 82.897 58.4727 82.8713C58.487 80.5215 58.4611 78.1695 58.487 75.8198" fill="white"/>
<path d="M71.628 77.2972C72.8274 77.2742 74.0236 77.2903 75.2221 77.2834C75.9571 79.8512 76.6931 82.4191 77.4299 84.9872C76.8113 84.9872 76.1922 84.9872 75.5759 84.9734C75.05 83.011 74.4803 81.0601 73.9452 79.1C73.6103 79.0793 73.2753 79.0651 72.9404 79.049C72.3869 81.0298 71.8348 83.0101 71.2843 84.99C70.6657 84.99 70.0489 84.99 69.4326 84.9808C70.1859 82.4245 70.9351 79.8682 71.628 77.2986" fill="white"/>
<path d="M44.4685 81.5515C46.7506 80.09 49.0281 78.6194 51.3421 77.2067C51.8749 77.5802 52.4123 77.9427 52.94 78.3249C51.2839 79.3526 49.6601 80.4336 47.9874 81.4332C50.4116 81.4792 52.8376 81.4263 55.2641 81.4613C55.2757 82.097 55.278 82.7323 55.2595 83.368C51.6654 83.3795 48.0714 83.3961 44.4773 83.3611C44.4593 82.7576 44.4616 82.1545 44.4685 81.5515Z" fill="white"/>
<path d="M63.3188 77.6731C63.987 77.6804 64.6548 77.6401 65.3173 77.5526C66.1015 78.8406 67.0269 80.1181 67.4296 81.5841C66.8036 81.5887 66.1781 81.5887 65.5548 81.5933C64.8186 80.2805 64.0732 78.9737 63.3188 77.6731Z" fill="white"/>
<path d="M89.7382 78.4593C90.3919 78.4386 91.0479 78.4386 91.7034 78.4524C91.7062 79.0761 91.7062 79.701 91.7034 80.3269C91.0479 80.343 90.3938 80.343 89.7401 80.3154C89.7286 79.6958 89.7286 79.0789 89.7401 78.4593" fill="white"/>
<path d="M84.9205 83.4513C85.7117 82.1826 86.5582 80.9506 87.354 79.6842C87.377 80.6236 87.3913 81.5657 87.3678 82.5073C87.3909 82.8601 87.133 83.1338 86.9678 83.4191C86.0914 84.7112 85.2508 86.0287 84.3905 87.3291C83.3553 85.789 82.3529 84.2324 81.3292 82.683C81.3246 81.6531 81.3154 80.6231 81.3408 79.5955C82.3455 81.0965 83.2949 82.6366 84.3231 84.1233C84.6133 84.001 84.7439 83.6905 84.9228 83.4513" fill="white"/>
<path d="M36.2361 81.626C37.9135 81.5703 39.5931 81.5979 41.2727 81.6099C41.282 82.2291 41.3216 82.8519 41.2423 83.4702C39.5765 83.5511 37.9042 83.512 36.2384 83.4817C36.2315 82.8625 36.2315 82.2452 36.2361 81.626Z" fill="white"/>
<path d="M56.684 85.6695C59.373 85.6299 62.0601 85.6695 64.7491 85.6488C65.0566 85.9555 65.3642 86.264 65.6717 86.5743C65.6602 88.6228 65.6648 90.6735 65.6671 92.7261C65.3974 93.0067 65.1306 93.2905 64.8667 93.5775C64.0059 93.5959 63.1451 93.5982 62.2834 93.5729C62.2949 92.9929 62.2206 92.4013 62.36 91.8332C62.8462 91.7821 63.3347 91.8005 63.8256 91.7959C63.8302 90.3602 63.8256 88.9264 63.8256 87.493C61.4433 87.4792 59.0588 87.5233 56.6794 87.47C56.672 86.8692 56.672 86.269 56.6794 85.6695" fill="white"/>
<path d="M43.7661 86.3512C44.3941 86.342 45.023 86.3436 45.6529 86.3559C45.6621 86.9818 45.6629 87.6097 45.6552 88.2396C45.0222 88.2488 44.3918 88.2496 43.7638 88.2419C43.7552 87.6108 43.7552 86.9805 43.7638 86.3512" fill="white"/>
<path d="M77.0368 87.3645C77.7486 86.7665 78.3954 87.7634 79.0048 88.0545C79.0048 88.1102 79.0048 88.2238 79.0048 88.2795C77.4137 89.3026 75.7853 90.27 74.2288 91.3464L75.1316 91.3395C75.6104 91.3395 76.0913 91.3448 76.5741 91.3556C76.5787 91.9821 76.5787 92.6105 76.5695 93.237C74.6108 93.2651 72.652 93.2577 70.6933 93.2416C70.6536 92.65 70.6472 92.0562 70.6421 91.4669C72.7332 90.0409 74.9152 88.7528 77.0345 87.3645" fill="white"/>
<path d="M47.2997 89.1043C49.8424 89.0951 52.3875 89.0813 54.9298 89.1112C54.9344 89.735 54.9344 90.3599 54.9298 90.9858C52.3847 91.023 49.842 91.0065 47.2974 90.995C47.2858 90.3643 47.2881 89.7332 47.2974 89.1043" fill="white"/>
<path d="M54.0762 93.9202C54.7926 93.9133 55.509 93.911 56.2259 93.9248C56.8888 95.2399 57.7704 96.4511 58.2801 97.8404C57.638 97.8753 56.9981 97.8753 56.3564 97.8799C55.5722 96.5739 54.8392 95.2367 54.0762 93.9202Z" fill="white"/>
<path d="M66.7754 95.9198C67.4014 95.9152 68.027 95.9244 68.6502 95.9658C68.6617 96.59 68.6571 97.2161 68.5782 97.838C67.9804 97.8405 67.384 97.8405 66.7892 97.838C66.7662 97.194 66.7662 96.5578 66.7749 95.9198" fill="white"/>
<path d="M62.4138 102.128C62.4138 100.671 62.3811 99.2116 62.4369 97.7548C63.0675 97.7548 63.7 97.7897 64.3283 97.8468C64.3354 99.2734 64.3354 100.701 64.3283 102.129C63.6898 102.139 63.0517 102.139 62.4138 102.129" fill="white"/>
</g>
<path d="M64 118C96.0325 118 122 92.0325 122 60C122 27.9675 96.0325 2 64 2C31.9675 2 6 27.9675 6 60C6 92.0325 31.9675 118 64 118Z" stroke="black" stroke-opacity="0.097"/>
<defs>
<clipPath id="clip0">
<rect width="81" height="92" fill="white" transform="translate(23 14)"/>
</clipPath>
</defs>
</svg>
