<svg viewBox="0 0 128 128" fill="none" xmlns="http://www.w3.org/2000/svg">
<g clip-path="url(#clip0)">
<path d="M123.997 59.9941C123.997 93.1269 97.1371 119.988 63.9986 119.988C30.8601 119.988 4 93.1269 4 59.9941C4 26.8614 30.8607 6.10352e-05 63.9986 6.10352e-05C97.1364 6.10352e-05 123.997 26.8589 123.997 59.9941Z" fill="#181818"/>
<path d="M66.6936 52.5515L90.1799 29L94.9527 33.8238L71.4665 57.328L66.6936 52.5515ZM33 86.2235L56.5335 62.672L61.3064 67.4958L37.8201 91L33 86.2235ZM66.6936 67.4958L71.4665 62.672L95 86.2235L90.1799 91L66.6936 67.4958ZM33 33.8238L37.8201 29L61.3064 52.5042L56.5335 57.328L33 33.8238ZM59.1799 59.9764L64 55.1526L68.8201 59.9764L64 64.8002L59.1799 59.9764Z" fill="#F6D30C"/>
</g>
<path d="M64 118C96.0325 118 122 92.0325 122 60C122 27.9675 96.0325 2 64 2C31.9675 2 6 27.9675 6 60C6 92.0325 31.9675 118 64 118Z" stroke="black" stroke-opacity="0.097"/>
<defs>
<clipPath id="clip0">
<rect width="120" height="120" fill="white" transform="translate(4)"/>
</clipPath>
</defs>
</svg>
