<svg viewBox="0 0 128 128" fill="none" xmlns="http://www.w3.org/2000/svg">
<path d="M123.997 59.9941C123.997 93.1269 97.1371 119.988 63.9986 119.988C30.8601 119.988 4 93.1269 4 59.9941C4 26.8614 30.8607 6.10352e-05 63.9986 6.10352e-05C97.1364 6.10352e-05 123.997 26.8589 123.997 59.9941Z" fill="#1E65F3"/>
<g clip-path="url(#clip0)">
<path d="M84.6534 35.0265L78.1467 38.088C78.1197 38.1013 78.0793 38.1281 78.0658 38.1548C78.0389 38.1816 78.0254 38.2083 78.012 38.2484C77.9985 38.2885 77.9985 38.3152 77.9985 38.3554C77.9985 38.3955 78.012 38.4222 78.0254 38.4623L87.9135 59.1441C91.5912 66.8447 90.6078 72.6735 85.0171 75.3206C80.4907 77.4463 76.5974 75.9623 73.5529 70.7751L61.8327 46.2698C57.0907 36.3366 50.6244 33.7029 42.9456 37.3259C37.9612 39.6789 35.0648 43.8767 35.1187 49.211C35.1187 49.2778 35.1052 49.3313 35.0648 49.3848C35.0244 49.4382 34.9705 49.465 34.9032 49.4784C34.8358 49.4917 34.7819 49.4917 34.7146 49.465C34.6607 49.4382 34.6068 49.3981 34.5798 49.3313L32.0203 43.9837C32.0068 43.957 31.9798 43.9169 31.9529 43.9035C31.926 43.8767 31.899 43.8634 31.8586 43.85C31.8317 43.8233 31.8047 43.8233 31.7643 43.8233C31.7239 43.8233 31.6969 43.8366 31.6565 43.85L25.1633 46.9115C25.0959 46.9382 25.042 46.9917 25.0285 47.0719C25.0016 47.1388 25.0016 47.219 25.042 47.2858L42.9995 84.866C43.0265 84.9329 43.0938 84.9864 43.1612 85.0131C43.2285 85.0398 43.3094 85.0398 43.3767 84.9997L49.8835 81.9382C49.9104 81.9249 49.9508 81.8981 49.9643 81.8714C49.9912 81.8447 50.0047 81.8179 50.0182 81.7778C50.0316 81.7377 50.0316 81.711 50.0316 81.6709C50.0316 81.6308 50.0182 81.604 50.0047 81.5639L40.3861 61.457C36.4658 53.2484 37.2068 47.3126 43.2016 44.4917C47.8089 42.3259 51.3923 43.7832 54.612 49.3447C54.612 49.3447 54.6254 49.358 54.6254 49.3714L66.2244 73.6227C70.6969 82.981 77.6482 86.1896 84.9767 82.7404C90.6482 80.0666 93.0057 76.0559 92.8576 70.7618C92.8576 70.6949 92.871 70.6414 92.9114 70.588C92.9519 70.5345 93.0057 70.5078 93.0731 70.4944C93.1404 70.481 93.1943 70.481 93.2617 70.5078C93.3156 70.5345 93.3695 70.5746 93.3964 70.6414L95.9829 76.0425C95.9964 76.0693 96.0234 76.1094 96.0503 76.1227C96.0772 76.1495 96.1042 76.1628 96.1446 76.1762C96.185 76.1896 96.212 76.1896 96.2524 76.1896C96.2928 76.1896 96.3197 76.1762 96.3601 76.1628L102.867 73.1013C102.894 73.088 102.934 73.0612 102.948 73.0345C102.975 73.0078 102.988 72.981 103.002 72.9409C103.015 72.9008 103.015 72.8741 103.015 72.834C103.015 72.7939 103.002 72.7671 102.988 72.727L85.0171 35.1602C84.9902 35.0933 84.9228 35.0398 84.8555 35.0131C84.7881 34.9864 84.7073 34.9997 84.6534 35.0265Z" fill="white"/>
</g>
<path d="M64 118C96.0325 118 122 92.0325 122 60C122 27.9675 96.0325 2 64 2C31.9675 2 6 27.9675 6 60C6 92.0325 31.9675 118 64 118Z" stroke="black" stroke-opacity="0.097"/>
<defs>
<clipPath id="clip0">
<rect width="78" height="50" fill="white" transform="translate(25 35)"/>
</clipPath>
</defs>
</svg>
