<svg viewBox="0 0 128 128" fill="none" xmlns="http://www.w3.org/2000/svg">
<g clip-path="url(#clip0)">
<path d="M127.997 63.9938C127.997 99.3354 99.3462 127.987 63.9984 127.987C28.6506 127.987 -0.00012207 99.3354 -0.00012207 63.9938C-0.00012207 28.6521 28.6513 0 63.9984 0C99.3455 0 127.997 28.6494 127.997 63.9938Z" fill="#2D2D2D"/>
<g clip-path="url(#clip1)">
<path d="M65.7075 21.2296C73.9252 22.7854 78.9528 31.2278 76.3752 39.1091C75.7116 41.124 74.5632 42.935 72.6747 44.9754C68.9997 48.9288 69.2804 53.8769 73.3382 56.555C76.4007 58.57 79.6929 58.0343 82.8574 54.9992C86.3538 51.6579 89.11 50.4591 93.2188 50.4591C107.74 50.4591 112.334 70.1241 99.3438 76.6025C93.7292 79.4081 87.885 78.2604 82.8064 73.3888C79.5142 70.2516 75.4564 70.0985 72.496 73.0317C69.3315 76.1944 69.5867 80.0968 73.2106 84.0247C76.4517 87.4934 77.7788 90.7072 77.6002 94.6861C77.1153 106.852 62.3388 112.515 53.8914 103.817C48.5831 98.3334 48.6342 90.2736 54.0446 84.3817C56.3414 81.8822 56.9284 80.6579 56.9284 78.3624C56.9284 74.2305 53.6107 71.0678 49.5019 71.2973C47.3326 71.4248 46.2097 71.986 43.9384 74.1795C40.6207 77.3677 37.7624 78.6175 33.7556 78.6175C22.0161 78.6175 15.687 64.9719 23.2156 55.9429C28.4218 49.6685 37.4306 49.3624 43.6832 55.2032C45.5717 56.9631 46.618 57.6007 48.1493 57.8813C54.019 59.0036 58.5362 53.1117 55.9076 47.7555C55.4992 46.9394 55.2696 46.6333 54.019 45.307C53.2279 44.4653 52.3857 43.5216 52.1305 43.19C47.1285 36.533 49.068 27.0704 56.3414 22.862C59.1232 21.2296 62.6195 20.643 65.7075 21.2296ZM61.7008 26.8408C56.367 27.8101 53.5086 33.7529 56.0352 38.6245C59.0721 44.4908 67.6726 44.3378 70.5309 38.3694C73.4148 32.3501 68.2851 25.6421 61.7008 26.8408ZM64.6867 29.4934C67.4685 30.2586 69.2804 33.2428 68.6169 36.0484C67.3408 41.4301 59.8888 41.8382 58.0003 36.6095C56.4946 32.5031 60.4247 28.3202 64.6867 29.4934ZM92.0959 56.1214C84.3631 57.3712 82.4746 67.497 89.2376 71.3228C95.2605 74.7151 102.559 69.3844 101.181 62.5999C100.365 58.4424 96.1537 55.4583 92.0959 56.1214ZM32.5306 56.7591C24.6958 58.1874 23.1645 68.6702 30.2593 72.1135C36.4098 75.1232 43.3259 69.5629 41.7181 62.8804C40.7483 58.8505 36.5119 56.0449 32.5306 56.7591ZM95.0563 59.0036C98.3485 60.1768 99.7521 64.2322 97.8891 67.1399C95.3115 71.0933 89.4928 70.3791 87.9615 65.8901C86.5069 61.6817 90.8199 57.4987 95.0563 59.0036ZM35.2358 59.4882C39.3191 60.5339 40.7228 65.7116 37.7369 68.6957C34.853 71.5779 30.0041 70.4811 28.6004 66.6043C27.1202 62.5489 30.9739 58.3914 35.2358 59.4882ZM62.2367 86.1927C54.8357 87.774 53.2789 97.6192 59.8633 101.318C65.2481 104.353 71.9346 100.399 71.9346 94.227C71.9346 89.1258 67.1367 85.1469 62.2367 86.1927ZM65.3247 88.8708C69.4846 90.095 70.7351 95.3492 67.545 98.2569C64.3294 101.19 59.2508 99.4811 58.4086 95.1452C57.6175 91.2683 61.4966 87.7485 65.3247 88.8708Z" fill="white"/>
</g>
<path d="M64.0001 125.867C98.1681 125.867 125.867 98.1681 125.867 64C125.867 29.832 98.1681 2.1333 64.0001 2.1333C29.832 2.1333 2.13336 29.832 2.13336 64C2.13336 98.1681 29.832 125.867 64.0001 125.867Z" stroke="black" stroke-opacity="0.097"/>
</g>
<defs>
<clipPath id="clip0">
<rect width="128" height="128" fill="white"/>
</clipPath>
<clipPath id="clip1">
<rect width="87" height="87" fill="white" transform="translate(20 21)"/>
</clipPath>
</defs>
</svg>
