<svg viewBox="0 0 128 128" fill="none" xmlns="http://www.w3.org/2000/svg">
<path d="M123.997 59.9941C123.997 93.1268 97.1371 119.988 63.9986 119.988C30.8601 119.988 4 93.1268 4 59.9941C4 26.8614 30.8607 0 63.9986 0C97.1364 0 123.997 26.8588 123.997 59.9941Z" fill="#1A82FF"/>
<path d="M64 120C97.1371 120 124 93.1371 124 60C124 26.8629 97.1371 0 64 0C30.8629 0 4 26.8629 4 60C4 93.1371 30.8629 120 64 120Z" fill="#4099CD"/>
<path fill-rule="evenodd" clip-rule="evenodd" d="M11.5186 89.1C13.7873 82.485 18.1598 75.3225 24.2498 68.25C23.1663 66.8099 22.6376 65.0277 22.7605 63.2297C22.8834 61.4316 23.6496 59.738 24.9189 58.4586C26.1883 57.1792 27.8759 56.3997 29.6729 56.2627C31.4699 56.1257 33.2562 56.6404 34.7048 57.7125C39.5414 53.4534 44.6853 49.5566 50.0948 46.0538C76.0973 29.1675 103.577 23.7788 116.98 31.8113C120.841 39.0532 123.166 47.0144 123.809 55.1963C119.481 69.3638 105.186 86.2913 84.8161 99.5213C70.7648 108.645 56.2786 114.416 43.8173 116.52C30.0839 111.596 18.6062 101.852 11.5186 89.1ZM25.5811 69.6188C16.7911 79.7738 13.2698 90.2213 17.5298 96.7838C23.9648 106.695 45.7298 103.984 66.1336 90.735C86.5411 77.4825 97.8661 58.7025 91.4311 48.7913C84.9923 38.88 63.2311 41.5913 42.8236 54.84C40.5623 56.31 38.4098 57.8475 36.3848 59.4338C37.4234 60.9094 37.8952 62.7099 37.7137 64.5052C37.5322 66.3005 36.7095 67.9702 35.3965 69.208C34.0835 70.4457 32.3683 71.1687 30.5654 71.2441C28.7625 71.3196 26.9929 70.7425 25.5811 69.6188Z" fill="white"/>
<path d="M64 118C96.0325 118 122 92.0325 122 60C122 27.9675 96.0325 2 64 2C31.9675 2 6 27.9675 6 60C6 92.0325 31.9675 118 64 118Z" stroke="black" stroke-opacity="0.097"/>
</svg>
