<svg viewBox="0 0 128 128" fill="none" xmlns="http://www.w3.org/2000/svg">
<g clip-path="url(#clip0)">
<path d="M123.997 59.9941C123.997 93.1269 97.1371 119.988 63.9986 119.988C30.8601 119.988 4 93.1269 4 59.9941C4 26.8614 30.8607 6.10352e-05 63.9986 6.10352e-05C97.1364 6.10352e-05 123.997 26.8589 123.997 59.9941Z" fill="black"/>
<g clip-path="url(#clip1)">
<path d="M36.3372 59.136C36.3376 59.9038 36.1077 60.6544 35.6764 61.293C35.2452 61.9316 34.6321 62.4294 33.9146 62.7235C33.1971 63.0176 32.4075 63.0947 31.6457 62.9452C30.8839 62.7956 30.184 62.4261 29.6347 61.8833C29.0853 61.3405 28.7112 60.6489 28.5595 59.8959C28.4078 59.1429 28.4855 58.3623 28.7826 57.653C29.0797 56.9436 29.583 56.3372 30.2288 55.9106C30.8746 55.484 31.6339 55.2563 32.4106 55.2563C33.4516 55.2563 34.4501 55.665 35.1864 56.3925C35.9228 57.1201 36.3367 58.1069 36.3372 59.136V59.136ZM98.7261 59.136C98.7265 59.9038 98.4965 60.6546 98.0652 61.2932C97.6338 61.9318 97.0206 62.4296 96.303 62.7237C95.5854 63.0177 94.7957 63.0947 94.0339 62.945C93.272 62.7953 92.5721 62.4256 92.0229 61.8826C91.4736 61.3397 91.0996 60.6478 90.9481 59.8947C90.7967 59.1416 90.8746 58.361 91.172 57.6516C91.4695 56.9423 91.9731 56.3361 92.6191 55.9097C93.2652 55.4833 94.0246 55.256 94.8014 55.2563C95.8408 55.2589 96.8367 55.6688 97.5709 56.396C98.3051 57.1232 98.7177 58.1085 98.7182 59.136H98.7261ZM67.5327 74.4488C67.533 75.2167 67.303 75.9674 66.8717 76.6061C66.4404 77.2447 65.8272 77.7425 65.1096 78.0365C64.392 78.3306 63.6023 78.4076 62.8404 78.2579C62.0785 78.1082 61.3787 77.7385 60.8294 77.1955C60.2801 76.6525 59.9061 75.9607 59.7547 75.2076C59.6032 74.4544 59.6812 73.6738 59.9786 72.9645C60.276 72.2551 60.7796 71.6489 61.4257 71.2226C62.0717 70.7962 62.8312 70.5688 63.608 70.5692C64.6487 70.5697 65.6467 70.9786 66.3826 71.7061C67.1185 72.4336 67.5321 73.4201 67.5327 74.4488V74.4488ZM51.828 66.8893C51.828 67.6571 51.5977 68.4075 51.1662 69.0458C50.7347 69.6842 50.1215 70.1817 49.404 70.4755C48.6865 70.7693 47.8969 70.8461 47.1352 70.6963C46.3735 70.5466 45.6739 70.1769 45.1247 69.634C44.5756 69.0912 44.2016 68.3996 44.0501 67.6466C43.8986 66.8937 43.9763 66.1132 44.2735 65.4039C44.5707 64.6947 45.074 64.0884 45.7198 63.6619C46.3655 63.2354 47.1247 63.0078 47.9013 63.0078C48.9427 63.0078 49.9415 63.4167 50.6779 64.1447C51.4143 64.8726 51.828 65.8599 51.828 66.8893V66.8893ZM83.0234 66.8893C83.0253 67.6578 82.7965 68.4095 82.3659 69.0493C81.9353 69.6891 81.3222 70.1881 80.6044 70.4832C79.8866 70.7782 79.0964 70.8561 78.3338 70.7068C77.5713 70.5575 76.8707 70.1878 76.3209 69.6445C75.771 69.1013 75.3967 68.4089 75.2453 67.6552C75.0939 66.9015 75.1722 66.1203 75.4703 65.4106C75.7684 64.7009 76.2729 64.0946 76.9199 63.6686C77.5669 63.2426 78.3273 63.016 79.1046 63.0176C80.143 63.0196 81.1382 63.4281 81.8726 64.1537C82.607 64.8793 83.0208 65.8629 83.0234 66.8893V66.8893ZM35.0633 70.8845C35.0629 71.4032 34.907 71.9101 34.6152 72.3411C34.3233 72.7721 33.9088 73.1079 33.4239 73.306C32.939 73.5041 32.4056 73.5557 31.8911 73.4541C31.3766 73.3525 30.9041 73.1025 30.5334 72.7354C30.1626 72.3684 29.9103 71.901 29.8084 71.3922C29.7064 70.8835 29.7593 70.3563 29.9605 69.8772C30.1616 69.3982 30.5019 68.9889 30.9384 68.7011C31.3749 68.4133 31.8879 68.2599 32.4125 68.2602C32.7609 68.2605 33.1058 68.3286 33.4276 68.4606C33.7493 68.5926 34.0416 68.786 34.2878 69.0297C34.5339 69.2734 34.7291 69.5626 34.8622 69.8809C34.9952 70.1991 35.0636 70.5402 35.0633 70.8845V70.8845ZM97.4522 70.8845C97.4518 71.4032 97.2959 71.9101 97.004 72.3411C96.7122 72.7721 96.2977 73.1079 95.8128 73.306C95.3279 73.5041 94.7945 73.5557 94.28 73.4541C93.7654 73.3525 93.293 73.1025 92.9222 72.7354C92.5515 72.3684 92.2992 71.901 92.1972 71.3922C92.0953 70.8835 92.1482 70.3563 92.3493 69.8772C92.5505 69.3982 92.8908 68.9889 93.3273 68.7011C93.7637 68.4133 94.2767 68.2599 94.8014 68.2602C95.5048 68.2608 96.1793 68.5372 96.6766 69.0289C97.174 69.5205 97.4537 70.1872 97.4542 70.8826L97.4522 70.8845ZM66.2588 86.405C66.2592 86.9238 66.1039 87.4311 65.8125 87.8626C65.5212 88.2941 65.1069 88.6306 64.6221 88.8293C64.1373 89.028 63.6037 89.0801 63.0889 88.979C62.5742 88.8779 62.1013 88.6281 61.7302 88.2612C61.3591 87.8943 61.1064 87.4269 61.0041 86.918C60.9018 86.4092 60.9545 85.8818 61.1555 85.4025C61.3565 84.9233 61.6969 84.5137 62.1334 84.2257C62.57 83.9377 63.0831 83.7842 63.608 83.7846C64.3107 83.7857 64.9843 84.0621 65.4812 84.5533C65.9781 85.0444 66.2577 85.7103 66.2588 86.405V86.405ZM50.5561 78.6399C50.5561 79.1586 50.4004 79.6657 50.1088 80.0969C49.8173 80.5282 49.4028 80.8643 48.918 81.0628C48.4331 81.2612 47.8997 81.313 47.385 81.2116C46.8704 81.1103 46.3977 80.8604 46.0268 80.4934C45.6559 80.1265 45.4034 79.659 45.3012 79.1502C45.1991 78.6414 45.2519 78.1141 45.453 77.635C45.6541 77.1558 45.9944 76.7464 46.4309 76.4585C46.8674 76.1706 47.3805 76.0171 47.9053 76.0175C48.2535 76.0175 48.5984 76.0854 48.9201 76.2172C49.2419 76.349 49.5342 76.5422 49.7804 76.7857C50.0265 77.0292 50.2217 77.3183 50.3548 77.6365C50.4879 77.9546 50.5563 78.2956 50.5561 78.6399ZM81.7515 78.6399C81.7526 79.159 81.5979 79.6668 81.3069 80.0989C81.0158 80.5311 80.6016 80.8681 80.1166 81.0673C79.6316 81.2665 79.0978 81.3189 78.5826 81.2179C78.0675 81.117 77.5943 80.8671 77.2229 80.5C76.8516 80.1329 76.5988 79.6651 76.4966 79.1559C76.3944 78.6466 76.4475 78.1189 76.649 77.6395C76.8505 77.1601 77.1914 76.7506 77.6286 76.4629C78.0658 76.1752 78.5795 76.0222 79.1046 76.0234C79.8058 76.0255 80.4776 76.3019 80.9732 76.7922C81.4688 77.2824 81.7479 77.9467 81.7495 78.6399H81.7515ZM33.7914 80.1126C33.7914 80.3837 33.7101 80.6488 33.5577 80.8742C33.4053 81.0997 33.1887 81.2754 32.9353 81.3791C32.6819 81.4829 32.4031 81.51 32.1341 81.4571C31.865 81.4042 31.6179 81.2737 31.424 81.082C31.23 80.8902 31.098 80.646 31.0444 80.38C30.9909 80.1141 31.0184 79.8385 31.1234 79.588C31.2283 79.3375 31.4061 79.1234 31.6341 78.9727C31.8622 78.8221 32.1303 78.7417 32.4046 78.7417C32.7724 78.7417 33.1252 78.8861 33.3852 79.1432C33.6453 79.4003 33.7914 79.749 33.7914 80.1126V80.1126ZM96.1803 80.1126C96.1803 80.3837 96.099 80.6488 95.9466 80.8742C95.7942 81.0997 95.5776 81.2754 95.3242 81.3791C95.0708 81.4829 94.792 81.51 94.5229 81.4571C94.2539 81.4042 94.0068 81.2737 93.8129 81.082C93.6189 80.8902 93.4868 80.646 93.4333 80.38C93.3798 80.1141 93.4073 79.8385 93.5122 79.588C93.6172 79.3375 93.795 79.1234 94.023 78.9727C94.2511 78.8221 94.5192 78.7417 94.7935 78.7417C95.1613 78.7417 95.514 78.8861 95.7741 79.1432C96.0342 79.4003 96.1803 79.749 96.1803 80.1126V80.1126ZM64.9849 95.637C64.9849 95.9081 64.9035 96.1731 64.7512 96.3986C64.5988 96.624 64.3822 96.7997 64.1288 96.9035C63.8754 97.0073 63.5965 97.0344 63.3275 96.9815C63.0585 96.9286 62.8114 96.7981 62.6174 96.6063C62.4235 96.4146 62.2914 96.1703 62.2379 95.9044C62.1844 95.6385 62.2118 95.3628 62.3168 95.1123C62.4218 94.8618 62.5995 94.6477 62.8276 94.4971C63.0556 94.3465 63.3238 94.2661 63.5981 94.2661C63.9659 94.2661 64.3186 94.4105 64.5787 94.6676C64.8388 94.9247 64.9849 95.2734 64.9849 95.637ZM49.2822 87.8758C49.2822 88.1469 49.2008 88.4119 49.0484 88.6374C48.8961 88.8628 48.6795 89.0385 48.4261 89.1423C48.1727 89.2461 47.8938 89.2732 47.6248 89.2203C47.3558 89.1674 47.1087 89.0368 46.9147 88.8451C46.7208 88.6534 46.5887 88.4091 46.5352 88.1432C46.4817 87.8773 46.5091 87.6016 46.6141 87.3511C46.7191 87.1006 46.8968 86.8865 47.1249 86.7359C47.3529 86.5853 47.6211 86.5049 47.8953 86.5049C48.2632 86.5049 48.6159 86.6493 48.876 86.9064C49.1361 87.1635 49.2822 87.5122 49.2822 87.8758V87.8758ZM80.4776 87.8758C80.4776 88.1469 80.3962 88.4119 80.2439 88.6374C80.0915 88.8628 79.8749 89.0385 79.6215 89.1423C79.3681 89.2461 79.0892 89.2732 78.8202 89.2203C78.5512 89.1674 78.3041 89.0368 78.1101 88.8451C77.9162 88.6534 77.7841 88.4091 77.7306 88.1432C77.6771 87.8773 77.7046 87.6016 77.8095 87.3511C77.9145 87.1006 78.0922 86.8865 78.3203 86.7359C78.5484 86.5853 78.8165 86.5049 79.0908 86.5049C79.4586 86.5049 79.8113 86.6493 80.0714 86.9064C80.3315 87.1635 80.4776 87.5122 80.4776 87.8758V87.8758ZM68.8026 29.2446C68.8026 30.2821 68.4913 31.2963 67.9082 32.1588C67.325 33.0214 66.4962 33.6936 65.5265 34.0904C64.5568 34.4873 63.4898 34.5909 62.4605 34.3882C61.4312 34.1855 60.4859 33.6856 59.744 32.9518C59.0022 32.2179 58.4972 31.283 58.2929 30.2654C58.0887 29.2478 58.1943 28.1932 58.5965 27.2349C58.9986 26.2766 59.6793 25.4578 60.5523 24.882C61.4253 24.3062 62.4515 23.9992 63.501 24C64.9074 24.001 66.2559 24.5541 67.25 25.5375C68.2442 26.521 68.8026 27.8544 68.8026 29.2446V29.2446ZM68.8026 44.7592C68.8026 45.7966 68.4914 46.8107 67.9083 47.6732C67.3252 48.5357 66.4965 49.2079 65.5269 49.6048C64.5573 50.0017 63.4905 50.1055 62.4612 49.903C61.432 49.7004 60.4866 49.2007 59.7447 48.4671C59.0028 47.7334 58.4977 46.7987 58.2932 45.7812C58.0887 44.7637 58.194 43.7091 58.5959 42.7508C58.9978 41.7925 59.6781 40.9736 60.5509 40.3975C61.4236 39.8215 62.4496 39.5142 63.499 39.5146C64.9058 39.5151 66.2548 40.0679 67.2493 41.0514C68.2439 42.0349 68.8026 43.3686 68.8026 44.7592V44.7592ZM68.8026 60.0741C68.8026 61.1114 68.4914 62.1255 67.9083 62.988C67.3252 63.8505 66.4965 64.5228 65.5269 64.9197C64.5573 65.3166 63.4905 65.4203 62.4612 65.2178C61.432 65.0153 60.4866 64.5156 59.7447 63.7819C59.0028 63.0482 58.4977 62.1135 58.2932 61.096C58.0887 60.0785 58.194 59.024 58.5959 58.0657C58.9978 57.1074 59.6781 56.2884 60.5509 55.7123C61.4236 55.1363 62.4496 54.829 63.499 54.8294C64.1962 54.8297 64.8866 54.9658 65.5306 55.2299C66.1746 55.4941 66.7596 55.8812 67.2521 56.369C67.7447 56.8568 68.1351 57.4358 68.4012 58.0729C68.6672 58.71 68.8036 59.3927 68.8026 60.0819V60.0741ZM100 44.7592C100 45.7965 99.6888 46.8105 99.1058 47.673C98.5229 48.5355 97.6942 49.2077 96.7248 49.6046C95.7553 50.0016 94.6885 50.1055 93.6594 49.9031C92.6302 49.7007 91.6848 49.2012 90.9428 48.4678C90.2008 47.7343 89.6955 46.7998 89.4908 45.7824C89.2861 44.765 89.3912 43.7105 89.7927 42.7522C90.1943 41.7939 90.8743 40.9748 91.7468 40.3985C92.6193 39.8222 93.6451 39.5146 94.6944 39.5146C96.1016 39.5146 97.451 40.0671 98.446 41.0507C99.441 42.0343 100 43.3683 100 44.7592V44.7592ZM37.6111 44.7592C37.6127 45.7969 37.3029 46.8116 36.7208 47.6751C36.1388 48.5386 35.3107 49.2121 34.3414 49.6102C33.3721 50.0084 32.3051 50.1134 31.2754 49.9119C30.2457 49.7104 29.2996 49.2115 28.5568 48.4784C27.814 47.7452 27.3079 46.8107 27.1025 45.7931C26.8972 44.7756 27.0018 43.7206 27.4031 42.7618C27.8044 41.803 28.4845 40.9835 29.3571 40.4068C30.2298 39.8302 31.2559 39.5224 32.3056 39.5224C33.7113 39.5224 35.0596 40.0739 36.0544 41.0558C37.0491 42.0376 37.609 43.3696 37.6111 44.7592V44.7592ZM53.3138 36.998C53.3154 38.0353 53.0058 39.0498 52.4241 39.9131C51.8424 40.7764 51.0148 41.4499 50.0459 41.8483C49.0771 42.2466 48.0105 42.3521 46.981 42.1512C45.9515 41.9504 45.0054 41.4523 44.2623 40.7199C43.5192 39.9875 43.0125 39.0538 42.8062 38.0367C42.6 37.0197 42.7034 35.965 43.1036 35.0061C43.5037 34.0471 44.1825 33.227 45.0541 32.6494C45.9257 32.0719 46.951 31.7628 48.0003 31.7612C49.4075 31.7612 50.757 32.3138 51.7519 33.2973C52.7469 34.2809 53.3059 35.6149 53.3059 37.0059L53.3138 36.998ZM53.3059 52.3187C53.3059 53.356 52.9947 54.37 52.4118 55.2325C51.8288 56.095 51.0002 56.7672 50.0307 57.1641C49.0612 57.5611 47.9945 57.665 46.9653 57.4626C45.9361 57.2602 44.9907 56.7607 44.2488 56.0272C43.5068 55.2938 43.0014 54.3593 42.7967 53.3419C42.592 52.3245 42.6971 51.27 43.0987 50.3117C43.5002 49.3533 44.1802 48.5342 45.0527 47.958C45.9252 47.3817 46.951 47.0741 48.0003 47.0741C49.4075 47.0741 50.757 47.6266 51.7519 48.6102C52.7469 49.5938 53.3059 50.9278 53.3059 52.3187V52.3187ZM84.5093 37.0059C84.5093 38.0431 84.1981 39.0571 83.6151 39.9196C83.0321 40.7821 82.2035 41.4543 81.234 41.8513C80.2646 42.2482 79.1978 42.3521 78.1686 42.1497C77.1395 41.9474 76.1941 41.4479 75.4521 40.7144C74.7101 39.9809 74.2048 39.0464 74.0001 38.029C73.7954 37.0117 73.9004 35.9571 74.302 34.9988C74.7036 34.0405 75.3836 33.2214 76.2561 32.6451C77.1286 32.0688 78.1544 31.7612 79.2037 31.7612C80.6108 31.7612 81.9603 32.3138 82.9553 33.2973C83.9503 34.2809 84.5093 35.6149 84.5093 37.0059V37.0059ZM84.5093 52.3187C84.5093 53.356 84.1981 54.37 83.6151 55.2325C83.0321 56.095 82.2035 56.7672 81.234 57.1641C80.2646 57.5611 79.1978 57.665 78.1686 57.4626C77.1395 57.2602 76.1941 56.7607 75.4521 56.0272C74.7101 55.2938 74.2048 54.3593 74.0001 53.3419C73.7954 52.3245 73.9004 51.27 74.302 50.3117C74.7036 49.3533 75.3836 48.5342 76.2561 47.958C77.1286 47.3817 78.1544 47.0741 79.2037 47.0741C80.6108 47.0741 81.9603 47.6266 82.9553 48.6102C83.9503 49.5938 84.5093 50.9278 84.5093 52.3187" fill="white"/>
</g>
</g>
<path d="M64 118C96.0325 118 122 92.0325 122 60C122 27.9675 96.0325 2 64 2C31.9675 2 6 27.9675 6 60C6 92.0325 31.9675 118 64 118Z" stroke="black" stroke-opacity="0.097"/>
<defs>
<clipPath id="clip0">
<rect width="120" height="120" fill="white" transform="translate(4)"/>
</clipPath>
<clipPath id="clip1">
<rect width="73" height="73" fill="white" transform="translate(27 24)"/>
</clipPath>
</defs>
</svg>
