<svg viewBox="0 0 128 128" fill="none" xmlns="http://www.w3.org/2000/svg">
<path d="M123.997 59.9941C123.997 93.1268 97.1371 119.988 63.9986 119.988C30.8601 119.988 4 93.1268 4 59.9941C4 26.8614 30.8607 0 63.9986 0C97.1364 0 123.997 26.8588 123.997 59.9941Z" fill="#1A82FF"/>
<path d="M64 0C97.1371 0 124 26.8629 124 60C124 93.1371 97.1371 120 64 120C30.8629 120 4 93.1371 4 60C4 26.8629 30.8629 0 64 0Z" fill="#1A82FF"/>
<path d="M85.936 84.7063C80.7418 91.0697 73.4366 94.2514 64.0206 94.2514C54.6046 94.2514 47.2983 91.0697 42.1017 84.7063C36.904 78.3394 34.3063 70.1097 34.3086 60.0171C34.3109 49.9246 36.9075 41.696 42.0983 35.3314C47.2926 28.9646 54.5989 25.7817 64.0172 25.7828C73.4355 25.784 80.7406 28.9668 85.9326 35.3314C91.1269 41.6948 93.7246 49.9234 93.7258 60.0171C93.7269 70.1108 91.1303 78.3406 85.936 84.7063Z" fill="white"/>
<path d="M63.9108 80.9451C66.3896 80.9451 68.4971 80.2697 70.2331 78.9189C71.9691 77.568 73.2262 75.736 74.0045 73.4228C74.7816 71.1086 75.3302 68.8903 75.6502 66.768C75.9702 64.6457 76.1291 62.3954 76.1268 60.0171C76.1268 57.0891 75.9496 54.4685 75.5953 52.1554L54.2388 74.4103C56.2136 78.7646 59.4376 80.9429 63.9108 80.9451Z" fill="#1A82FF"/>
<path d="M64.1232 39.0891C61.6444 39.0891 59.537 39.7645 57.801 41.1154C56.065 42.4663 54.8078 44.2983 54.0295 46.6114C53.2478 48.9257 52.6992 51.144 52.3838 53.2662C52.0638 55.3885 51.905 57.6388 51.9073 60.0171C51.9073 61.584 51.9575 63.0628 52.0581 64.4537L72.4272 43.2308C70.449 40.4708 67.681 39.0903 64.1232 39.0891Z" fill="#1A82FF"/>
<path d="M35.9678 81.2331L33.345 78.7166L53.2341 57.984L55.857 60.5006L35.9678 81.2331ZM73.4421 59.5989L70.8193 57.0823L90.7084 36.3497L93.3313 38.8663L73.4421 59.5989Z" fill="#1A82FF"/>
<path d="M64 118C96.0325 118 122 92.0325 122 60C122 27.9675 96.0325 2 64 2C31.9675 2 6 27.9675 6 60C6 92.0325 31.9675 118 64 118Z" stroke="black" stroke-opacity="0.097"/>
</svg>
