<svg viewBox="0 0 128 128" fill="none" xmlns="http://www.w3.org/2000/svg">
<path d="M123.997 59.9941C123.997 93.1268 97.1371 119.988 63.9986 119.988C30.8601 119.988 4 93.1268 4 59.9941C4 26.8614 30.8607 0 63.9986 0C97.1364 0 123.997 26.8588 123.997 59.9941Z" fill="white"/>
<path d="M26.2249 45.7266C19.8843 48.0236 15.8361 55.8917 17.2994 63.2222C18.031 66.8875 18.8601 68.598 21.1525 70.9926C24.1764 74.2669 26.1274 75 31.4437 75C35.687 75 36.321 74.8534 38.6622 73.5828C43.003 71.1392 45.3929 67.2785 45.9294 61.805C46.6123 54.279 42.2714 47.2416 35.8821 45.4334C33.3946 44.7492 28.6148 44.8958 26.2249 45.7266ZM36.9063 51.8354C39.784 53.9369 41.2472 58.775 40.2229 63.0268C38.272 71.237 27.493 72.8497 23.7862 65.4703C21.5427 61.0719 22.7132 54.1812 26.1274 51.7866C28.9562 49.734 33.9799 49.7829 36.9063 51.8354Z" fill="black"/>
<path d="M91.7477 45.8485C82.5972 49.4893 80.0176 62.9361 86.9291 71.0915C90.6769 75.5576 99.5354 76.3828 103.478 72.5964L104.549 71.577L104.695 72.9362C104.841 74.1498 104.987 74.2469 107.274 74.2469H109.708L109.854 66.5769L110 58.9555H103.137H96.3229V61.3827V63.8099H100.46C104.938 63.8099 105.084 63.907 103.819 66.5284C102.942 68.3245 99.8274 70.1206 97.4911 70.1206C91.8937 70.1206 88.5353 66.1886 88.5353 59.8293C88.584 52.7903 93.1105 48.7612 99.292 50.2175C101.677 50.8 104.111 52.8874 104.111 54.3923C104.111 54.8777 104.841 55.0719 107.031 55.0719H109.903L109.221 52.8874C107.712 47.7903 103.965 45.2174 97.7831 45.0233C95.0575 44.9262 93.5486 45.1203 91.7477 45.8485Z" fill="black"/>
<path d="M50 59.975V74.9501H52.377H54.7541L54.8492 64.8669L54.9918 54.7338L58.5098 64.8669L62.0279 75L64.4049 74.8502L66.782 74.7005L70.2525 64.7171L73.723 54.7338L73.8656 64.7171L74.0082 74.7005L76.5279 74.8502L79 75L78.9049 60.1248L78.7623 45.2496H75.482H72.1541L68.3508 56.3311C66.259 62.4709 64.4049 67.3128 64.2623 67.0632C64.0721 66.8636 62.3607 62.1215 60.459 56.4809C58.5574 50.8403 56.7508 45.9484 56.5131 45.599C56.2279 45.2496 54.8967 45 53.0426 45H50V59.975Z" fill="black"/>
<path d="M64 118C96.0325 118 122 92.0324 122 59.9999C122 27.9674 96.0325 1.99988 64 1.99988C31.9675 1.99988 6 27.9674 6 59.9999C6 92.0324 31.9675 118 64 118Z" stroke="black" stroke-opacity="0.097"/>
</svg>
