<svg viewBox="0 0 128 128" fill="none" xmlns="http://www.w3.org/2000/svg">
<path d="M64 128C99.3462 128 128 99.3462 128 64C128 28.6538 99.3462 0 64 0C28.6538 0 0 28.6538 0 64C0 99.3462 28.6538 128 64 128Z" fill="#353535"/>
<path d="M66.2501 20.0499C69.5306 20.0499 72.1901 17.3905 72.1901 14.1099C72.1901 10.8293 69.5306 8.16992 66.2501 8.16992C62.9695 8.16992 60.3101 10.8293 60.3101 14.1099C60.3101 17.3905 62.9695 20.0499 66.2501 20.0499Z" fill="white"/>
<path d="M29.85 26.9001C31.8603 26.9001 33.49 25.2704 33.49 23.2601C33.49 21.2498 31.8603 19.6201 29.85 19.6201C27.8396 19.6201 26.21 21.2498 26.21 23.2601C26.21 25.2704 27.8396 26.9001 29.85 26.9001Z" fill="white"/>
<path d="M41.9999 34.5799C43.4358 34.5799 44.5999 33.4158 44.5999 31.9799C44.5999 30.5439 43.4358 29.3799 41.9999 29.3799C40.564 29.3799 39.3999 30.5439 39.3999 31.9799C39.3999 33.4158 40.564 34.5799 41.9999 34.5799Z" fill="white"/>
<path d="M84.7002 32.3701C87.3346 32.3701 89.4702 30.2345 89.4702 27.6001C89.4702 24.9657 87.3346 22.8301 84.7002 22.8301C82.0658 22.8301 79.9302 24.9657 79.9302 27.6001C79.9302 30.2345 82.0658 32.3701 84.7002 32.3701Z" fill="white"/>
<path d="M105.93 36.0798C107.929 36.0798 109.55 34.4591 109.55 32.4598C109.55 30.4606 107.929 28.8398 105.93 28.8398C103.931 28.8398 102.31 30.4606 102.31 32.4598C102.31 34.4591 103.931 36.0798 105.93 36.0798Z" fill="white"/>
<path d="M117.01 56.5098C118.518 56.5098 119.74 55.2875 119.74 53.7798C119.74 52.2721 118.518 51.0498 117.01 51.0498C115.502 51.0498 114.28 52.2721 114.28 53.7798C114.28 55.2875 115.502 56.5098 117.01 56.5098Z" fill="white"/>
<path d="M105.73 68.3401C107.729 68.3401 109.35 66.7194 109.35 64.7201C109.35 62.7208 107.729 61.1001 105.73 61.1001C103.731 61.1001 102.11 62.7208 102.11 64.7201C102.11 66.7194 103.731 68.3401 105.73 68.3401Z" fill="white"/>
<path d="M109.66 95.3002C112.184 95.3002 114.23 93.2541 114.23 90.7302C114.23 88.2062 112.184 86.1602 109.66 86.1602C107.136 86.1602 105.09 88.2062 105.09 90.7302C105.09 93.2541 107.136 95.3002 109.66 95.3002Z" fill="white"/>
<path d="M86.03 111.67C89.3493 111.67 92.04 108.979 92.04 105.66C92.04 102.341 89.3493 99.6499 86.03 99.6499C82.7108 99.6499 80.02 102.341 80.02 105.66C80.02 108.979 82.7108 111.67 86.03 111.67Z" fill="white"/>
<path d="M66.1601 118.48C67.701 118.48 68.9501 117.231 68.9501 115.69C68.9501 114.149 67.701 112.9 66.1601 112.9C64.6192 112.9 63.3701 114.149 63.3701 115.69C63.3701 117.231 64.6192 118.48 66.1601 118.48Z" fill="white"/>
<path d="M36.7299 100.2C38.7181 100.2 40.3299 98.5882 40.3299 96.6C40.3299 94.6118 38.7181 93 36.7299 93C34.7417 93 33.1299 94.6118 33.1299 96.6C33.1299 98.5882 34.7417 100.2 36.7299 100.2Z" fill="white"/>
<path d="M19.0202 87.5502C20.4175 87.5502 21.5502 86.4175 21.5502 85.0202C21.5502 83.623 20.4175 82.4902 19.0202 82.4902C17.623 82.4902 16.4902 83.623 16.4902 85.0202C16.4902 86.4175 17.623 87.5502 19.0202 87.5502Z" fill="white"/>
<path d="M19.9399 71.5498C23.2647 71.5498 25.9599 68.8545 25.9599 65.5298C25.9599 62.205 23.2647 59.5098 19.9399 59.5098C16.6152 59.5098 13.9199 62.205 13.9199 65.5298C13.9199 68.8545 16.6152 71.5498 19.9399 71.5498Z" fill="white"/>
<path d="M70.98 111.67C96.9484 111.67 118 90.6183 118 64.6499C118 38.6815 96.9484 17.6299 70.98 17.6299C45.0115 17.6299 23.96 38.6815 23.96 64.6499C23.96 90.6183 45.0115 111.67 70.98 111.67Z" stroke="white" stroke-miterlimit="10"/>
<path d="M58.8101 107.74C84.7233 107.74 105.73 86.7331 105.73 60.8199C105.73 34.9067 84.7233 13.8999 58.8101 13.8999C32.8969 13.8999 11.8901 34.9067 11.8901 60.8199C11.8901 86.7331 32.8969 107.74 58.8101 107.74Z" stroke="white" stroke-miterlimit="10"/>
<path d="M64.2098 110.6C90.1065 110.6 111.1 89.6065 111.1 63.7098C111.1 37.8132 90.1065 16.8198 64.2098 16.8198C38.3132 16.8198 17.3198 37.8132 17.3198 63.7098C17.3198 89.6065 38.3132 110.6 64.2098 110.6Z" stroke="white" stroke-miterlimit="10"/>
<path d="M59.0599 117.03C84.9566 117.03 105.95 96.0366 105.95 70.14C105.95 44.2434 84.9566 23.25 59.0599 23.25C33.1633 23.25 12.1699 44.2434 12.1699 70.14C12.1699 96.0366 33.1633 117.03 59.0599 117.03Z" stroke="white" stroke-miterlimit="10"/>
<path d="M67.1 118C92.9966 118 113.99 97.0068 113.99 71.1102C113.99 45.2136 92.9966 24.2202 67.1 24.2202C41.2033 24.2202 20.21 45.2136 20.21 71.1102C20.21 97.0068 41.2033 118 67.1 118Z" stroke="white" stroke-miterlimit="10"/>
</svg>
