<svg viewBox="0 0 128 128" fill="none" xmlns="http://www.w3.org/2000/svg">
<path d="M123.997 59.9941C123.997 93.1269 97.1371 119.988 63.9986 119.988C30.8601 119.988 4 93.1269 4 59.9941C4 26.8614 30.8607 6.10352e-05 63.9986 6.10352e-05C97.1364 6.10352e-05 123.997 26.8589 123.997 59.9941Z" fill="url(#paint0_linear)"/>
<g clip-path="url(#clip0)">
<path d="M82.7623 27C78.9927 26.9971 75.3758 28.4941 72.7058 31.1624C70.0358 33.8308 68.5307 37.4524 68.521 41.2324V57.0127C67.0543 57.112 65.5547 57.1745 64 57.1745C62.4453 57.1745 60.953 57.237 59.479 57.3252V41.2324C59.419 37.4852 57.8924 33.9119 55.2285 31.2832C52.5646 28.6546 48.977 27.1813 45.2395 27.1813C41.502 27.1813 37.9144 28.6546 35.2505 31.2832C32.5866 33.9119 31.06 37.4852 31 41.2324V78.9477C31.06 82.6949 32.5866 86.2683 35.2505 88.8969C37.9144 91.5256 41.502 92.9988 45.2395 92.9988C48.977 92.9988 52.5646 91.5256 55.2285 88.8969C57.8924 86.2683 59.419 82.6949 59.479 78.9477V63.1674C60.9457 63.0682 62.4453 63.0057 64 63.0057C65.5547 63.0057 67.047 62.9432 68.521 62.8549V78.9477C68.581 82.6949 70.1076 86.2683 72.7715 88.8969C75.4354 91.5256 79.023 92.9988 82.7605 92.9988C86.498 92.9988 90.0856 91.5256 92.7495 88.8969C95.4134 86.2683 96.94 82.6949 97 78.9477V41.2324C96.9903 37.4531 95.4857 33.832 92.8165 31.1637C90.1473 28.4955 86.5314 26.998 82.7623 27V27ZM45.2377 32.8312C47.4624 32.8302 49.5967 33.7142 51.1722 35.2892C52.7477 36.8642 53.6358 39.0016 53.6417 41.2324V57.9429C49.4755 58.5482 45.4072 59.7016 41.5417 61.3732C39.8669 62.1103 38.2902 63.0539 36.8483 64.1822V41.2324C36.8542 39.0041 37.7402 36.869 39.3126 35.2944C40.885 33.7198 43.0155 32.8341 45.2377 32.8312V32.8312ZM53.6417 78.9477C53.6417 81.1827 52.7562 83.3261 51.1802 84.9065C49.6041 86.4868 47.4665 87.3747 45.2377 87.3747C43.0088 87.3747 40.8712 86.4868 39.2951 84.9065C37.7191 83.3261 36.8337 81.1827 36.8337 78.9477V75.1644C36.8337 71.8223 39.4737 68.6567 43.8993 66.686C47.0177 65.337 50.2897 64.3775 53.6417 63.8293V78.9477V78.9477ZM82.7623 87.3489C80.5376 87.3499 78.4033 86.4659 76.8278 84.8909C75.2523 83.3159 74.3642 81.1785 74.3583 78.9477V62.2373C78.5245 61.6319 82.5928 60.4785 86.4583 58.8069C88.1331 58.0699 89.7098 57.1262 91.1517 55.9979V78.9477C91.1459 81.176 90.2598 83.3112 88.6874 84.8857C87.115 86.4603 84.9845 87.346 82.7623 87.3489V87.3489ZM84.1007 53.4721C80.9823 54.8211 77.7103 55.7806 74.3583 56.3288V41.2324C74.3583 38.9974 75.2438 36.854 76.8198 35.2737C78.3959 33.6933 80.5335 32.8055 82.7623 32.8055C84.9912 32.8055 87.1288 33.6933 88.7049 35.2737C90.2809 36.854 91.1663 38.9974 91.1663 41.2324V45.0157C91.1663 48.3431 88.5263 51.5087 84.1007 53.4721Z" fill="white"/>
</g>
<path d="M64 118C96.0325 118 122 92.0325 122 60C122 27.9675 96.0325 2 64 2C31.9675 2 6 27.9675 6 60C6 92.0325 31.9675 118 64 118Z" stroke="black" stroke-opacity="0.097"/>
<defs>
<linearGradient id="paint0_linear" x1="4" y1="120" x2="124" y2="3.95474e-06" gradientUnits="userSpaceOnUse">
<stop stop-color="#03B0E8"/>
<stop offset="1" stop-color="#67F8BE"/>
</linearGradient>
<clipPath id="clip0">
<rect width="66" height="66" fill="white" transform="translate(31 27)"/>
</clipPath>
</defs>
</svg>
