<svg viewBox="0 0 128 128" fill="none" xmlns="http://www.w3.org/2000/svg">
<g clip-path="url(#clip0)">
<path d="M64 -0.000249386C30.8629 -0.000252283 4.00001 26.8627 4.00001 59.9997C4 93.1368 30.8629 120 64 120C97.1371 120 124 93.1368 124 59.9998C124 26.8627 97.1371 -0.000246489 64 -0.000249386Z" fill="#2DA7BF"/>
<path d="M64 118C96.0325 118 122 92.0325 122 60C122 27.9675 96.0325 2 64 2C31.9675 2 6 27.9675 6 60C6 92.0325 31.9675 118 64 118Z" stroke="black" stroke-opacity="0.097"/>
<g clip-path="url(#clip1)">
<path d="M31.0178 55.9291V28.413L85.4516 84.6012C84.3237 85.5561 70.7398 96.6882 54.5567 91.7378C40.5069 87.4156 30.5274 72.7404 31.0178 55.9291ZM96.9268 64.1714L97.0004 91.4865L42.395 35.4993C43.5229 34.5193 57.0823 23.337 73.2653 28.2371C87.3887 32.5341 97.4172 47.2597 96.9023 64.1714H96.9268Z" fill="white"/>
</g>
</g>
<defs>
<clipPath id="clip0">
<rect width="128" height="128" fill="white"/>
</clipPath>
<clipPath id="clip1">
<rect width="66" height="66" fill="white" transform="translate(31 27)"/>
</clipPath>
</defs>
</svg>
