<svg viewBox="0 0 128 128" fill="none" xmlns="http://www.w3.org/2000/svg">
<path d="M64.0002 127.981C99.3411 127.981 127.991 99.3313 127.991 63.9904C127.991 28.6495 99.3411 0 64.0002 0C28.6592 0 0.00976562 28.6495 0.00976562 63.9904C0.00976562 99.3313 28.6592 127.981 64.0002 127.981Z" fill="#202036"/>
<path d="M81.2876 71.9533C82.045 69.7816 82.4573 67.4469 82.4573 65.0163C82.4573 53.3765 73.0227 43.9419 61.3877 43.9419C49.7526 43.9419 40.3132 53.3765 40.3132 65.0163C40.3132 76.6562 49.7478 86.086 61.3877 86.086C66.1577 86.086 70.5586 84.4992 74.0918 81.8289C68.5931 86.8051 61.1863 89.8493 53.0365 89.8493C39.5462 89.8493 28.0885 81.4934 23.9513 69.8727C23.7835 68.4249 23.6924 66.9483 23.6924 65.4526C23.6924 50.9891 31.8374 38.4336 43.7889 32.1103C46.7084 31.2234 49.8149 30.7488 53.0365 30.7488C70.0121 30.7488 83.7709 43.9802 83.7709 60.299C83.7709 64.4363 82.884 68.3769 81.2876 71.9485V71.9533Z" fill="url(#paint0_linear_703_10571)"/>
<path d="M99.0784 65.4525C99.0784 65.7593 99.0783 66.0613 99.0688 66.3633C98.1531 67.3557 97.1895 68.5638 96.1828 70.0355C95.6123 72.1065 95.2288 74.8871 95.387 78.6791C95.4013 79.0626 95.3918 79.4414 95.3582 79.8153C95.3582 79.7865 95.3582 79.753 95.3582 79.7242C95.3582 77.3416 94.3802 75.1843 92.8078 73.6406C91.2689 72.1257 89.1548 71.1909 86.8249 71.1909C85.425 71.1909 84.1067 71.5265 82.9417 72.1209C81.5275 72.8448 80.3434 73.9474 79.5236 75.2994C80.1852 74.2255 80.7748 73.1085 81.2878 71.9531C81.4843 71.5073 81.6713 71.0614 81.8487 70.606C83.0903 67.3988 83.7711 63.928 83.7711 60.3037C83.7711 60.2078 83.7711 60.1071 83.7711 60.0113C83.7663 59.225 83.7231 58.4484 83.6512 57.6766C82.2706 42.585 69.0918 30.7534 53.0367 30.7534C49.8151 30.7534 46.7086 31.228 43.7891 32.1149C49.0433 29.3344 55.031 27.762 61.3831 27.762C76.3164 27.762 89.2219 36.4439 95.3246 49.0426C96.0246 50.4856 96.6382 51.9861 97.1512 53.525C98.2682 56.8712 98.9249 60.4283 99.0544 64.1197C99.0688 64.5608 99.0784 65.0066 99.0784 65.4525Z" fill="#69F5FD"/>
<path d="M107.098 61.0515C106.686 61.2433 106.279 61.4159 105.886 61.5788C104.399 62.1925 101.988 63.1944 99.0684 66.3633C98.1528 67.3556 97.1892 68.5637 96.1824 70.0355C95.9667 70.3567 95.7462 70.6875 95.5257 71.0326C94.8161 72.1448 93.8765 73.0174 92.8075 73.6358C91.5898 74.3405 90.2091 74.7048 88.8093 74.7048C87.3423 74.7048 85.8562 74.2974 84.5282 73.4488C83.929 73.0653 83.3968 72.6146 82.9414 72.1161C82.5147 71.6511 82.1504 71.1381 81.8532 70.5964C81.8196 70.5388 81.786 70.4813 81.7573 70.419C80.4869 67.9741 80.5204 64.9395 82.112 62.4514C82.1648 62.3651 82.2223 62.2836 82.275 62.1973C82.7736 61.4254 83.277 60.692 83.7708 59.9968C86.4458 56.2719 89.0921 53.6112 91.4939 51.684C92.8698 50.5814 94.1594 49.7185 95.3291 49.0329C97.1844 47.9447 98.7281 47.3023 99.7875 46.866C99.9697 46.7893 100.219 46.6887 100.3 46.6455C104.275 44.7663 109.021 46.4681 110.895 50.4424C112.775 54.4166 111.073 59.1627 107.098 61.0419V61.0515Z" fill="#8C1AE8"/>
<path d="M99.1118 64.0192C99.0926 64.0528 99.0735 64.0863 99.0543 64.1199C98.8434 64.4842 98.6276 64.8246 98.4119 65.1602C97.7791 66.1573 96.849 67.6147 96.1779 70.0405C95.6074 72.1115 95.2239 74.892 95.3821 78.6841C95.3965 79.0676 95.3869 79.4463 95.3533 79.8203C94.9698 83.8568 91.6523 87.0928 87.4864 87.2654C87.3713 87.2654 87.2562 87.2701 87.1412 87.2701C82.7451 87.2701 79.092 83.7993 78.9099 79.3648C78.8667 78.3102 78.8523 77.2938 78.8667 76.3206C78.9626 69.168 80.4871 64.163 82.0308 60.7641C82.5917 59.5272 83.1574 58.5061 83.6511 57.6719C83.9676 57.1398 84.26 56.6796 84.5093 56.2961C84.6147 56.1331 84.7538 55.9078 84.8017 55.831C86.2399 53.3142 88.8047 51.8472 91.4941 51.689C93.033 51.5979 94.6102 51.9431 96.0485 52.7629C96.4416 52.9882 96.8107 53.2423 97.1559 53.5203C100.243 56.018 101.149 60.4573 99.1166 64.0144L99.1118 64.0192Z" fill="#FE26A8"/>
<path d="M95.3532 79.7242C95.3532 79.753 95.3532 79.7866 95.3532 79.8153C95.3388 81.1672 95.008 82.4424 94.4376 83.5786C94.3225 83.7896 94.2074 84.0005 94.0876 84.2066C87.5821 95.5253 75.3766 103.143 61.3925 103.143C42.0726 103.143 26.1469 88.6075 23.9561 69.8726C28.0933 81.4932 39.551 89.8492 53.0413 89.8492C61.1863 89.8492 68.5931 86.8002 74.0966 81.8288C75.9087 80.1893 77.5195 78.3388 78.8714 76.3205C79.0967 75.9849 79.3172 75.6445 79.5282 75.2994C80.348 73.9475 81.5321 72.8448 82.9463 72.1209C84.1113 71.5265 85.4296 71.1909 86.8295 71.1909C89.1593 71.1909 91.2735 72.1257 92.8124 73.6406C94.3896 75.1891 95.3628 77.3416 95.3628 79.7242H95.3532Z" fill="url(#paint1_linear_703_10571)"/>
<path d="M98.2442 40.5572C102.465 40.5572 105.886 37.1359 105.886 32.9156C105.886 28.6952 102.465 25.2739 98.2442 25.2739C94.0238 25.2739 90.6025 28.6952 90.6025 32.9156C90.6025 37.1359 94.0238 40.5572 98.2442 40.5572Z" fill="#FE26A8"/>
<defs>
<linearGradient id="paint0_linear_703_10571" x1="27.0961" y1="72.9648" x2="81.5848" y2="46.7895" gradientUnits="userSpaceOnUse">
<stop offset="0.05" stop-color="#FB3AB0"/>
<stop offset="0.17" stop-color="#D457BC"/>
<stop offset="0.39" stop-color="#8E8BD1"/>
<stop offset="0.6" stop-color="#56B5E3"/>
<stop offset="0.78" stop-color="#2ED3EF"/>
<stop offset="0.92" stop-color="#16E6F7"/>
<stop offset="1" stop-color="#0DEDFA"/>
</linearGradient>
<linearGradient id="paint1_linear_703_10571" x1="30.6053" y1="99.4276" x2="88.7231" y2="57.9451" gradientUnits="userSpaceOnUse">
<stop offset="0.08" stop-color="#FE0A9C"/>
<stop offset="0.1" stop-color="#F90A9E"/>
<stop offset="0.37" stop-color="#CA11BE"/>
<stop offset="0.61" stop-color="#A815D4"/>
<stop offset="0.81" stop-color="#9318E2"/>
<stop offset="0.94" stop-color="#8C1AE8"/>
</linearGradient>
</defs>
</svg>
