<svg viewBox="0 0 128 128" fill="none" xmlns="http://www.w3.org/2000/svg">
<g clip-path="url(#clip0)">
<path d="M128 64.0002C128 99.3453 99.3486 128 64 128C28.6514 128 0 99.3453 0 64.0002C0 28.655 28.6521 0 64 0C99.3479 0 128 28.6523 128 64.0002Z" fill="white"/>
<g clip-path="url(#clip1)">
<mask id="mask0" style="mask-type:alpha" maskUnits="userSpaceOnUse" x="23" y="30" width="28" height="64">
<path d="M23 30.4963H50.1055V93.2179H23V30.4963Z" fill="white"/>
</mask>
<g mask="url(#mask0)">
<path d="M45.7778 35.2061C47.3722 33.3681 48.7389 31.8747 50.1055 30.6111C26.9861 29.807 33.7055 46.6936 26.1889 63.81C17.5333 83.4536 27.2139 91.0353 41.6778 93.3328C39.6278 90.9204 38.0333 88.2783 36.7806 85.2915C27.4417 73.3446 31.2 51.7481 45.7778 35.2061Z" fill="#EFE812"/>
</g>
<path d="M101.356 56.1017C99.1917 62.1901 95.3195 69.0826 89.7389 75.7453C85.4111 81.0296 80.6278 85.1651 75.6167 88.1518C69.8083 91.9427 62.7472 94.1253 54.775 94.1253C50.3333 94.1253 45.8917 93.8955 41.9056 93.2063C44.2972 96.0782 47.1445 98.3757 50.5611 99.9839C71.4028 110.208 72.7694 91.2534 94.75 81.7188C106.936 76.3197 107.05 65.8661 101.356 56.1017Z" fill="#EDE70A"/>
<path d="M75.5028 36.4581C78.5778 37.0325 81.5389 38.0664 84.1583 39.5598C91.2195 43.5804 97.5972 49.6688 101.356 56.1017C105.114 45.4184 103.406 37.0325 95.0917 35.5392C86.0944 33.816 79.0333 33.3565 72.2 28.5318C63.8861 22.6732 56.4833 24.6261 50.1055 30.4847C50.5611 30.4847 51.0167 30.4846 51.4722 30.5995C60.3556 31.1739 68.7833 32.897 75.5028 36.4581Z" fill="#EDE70A"/>
<path d="M45.7778 35.1945C31.2 51.7365 27.4417 73.333 36.7806 85.2799C32.5667 75.4007 32.9083 62.9942 38.8306 53.0001C46.6889 39.7895 62.5195 34.0458 75.5028 36.4581C68.7833 32.897 60.3556 31.1739 51.5861 30.5995C51.1306 30.5995 50.675 30.5996 50.2194 30.4847C48.7389 31.8632 47.3722 33.3565 45.7778 35.1945Z" fill="#DEC21C"/>
<path d="M84.0444 39.5598C81.425 38.0664 78.4639 37.0325 75.3889 36.4581C84.2722 41.168 90.0805 49.0944 90.0805 61.7306C89.9667 72.6437 84.3861 82.2932 75.3889 88.2667C80.4 85.2799 85.1833 81.1445 89.5111 75.8602C95.0917 69.0826 98.9639 62.305 101.128 56.2166C97.4833 49.6687 91.1056 43.5804 84.0444 39.5598Z" fill="#E5CB22"/>
<path d="M75.5028 36.4581C62.5195 34.0457 46.6889 39.7895 38.8306 53.0001C32.9083 62.8793 32.5667 75.2858 36.7806 85.2799C38.0334 88.2667 39.6278 90.9088 41.6778 93.3211C45.6639 94.0104 50.1056 94.2402 54.5473 94.2402C62.5195 94.2402 69.6945 92.0575 75.3889 88.2667C84.3861 82.408 89.9667 72.7586 90.0806 61.7306C90.1945 49.0943 84.3861 41.168 75.5028 36.4581ZM74.0222 82.1783C64 88.6113 50.675 85.7394 44.2973 75.7453C37.8056 65.7512 40.9944 52.7703 50.675 45.8779C61.4944 38.0664 75.3889 41.168 80.4 52.3109C85.4111 63.1091 84.0444 75.7453 74.0222 82.1783Z" fill="#CCA727"/>
</g>
<path d="M64 126C98.2417 126 126 98.2417 126 64C126 29.7583 98.2417 2 64 2C29.7583 2 2 29.7583 2 64C2 98.2417 29.7583 126 64 126Z" stroke="black" stroke-opacity="0.097"/>
</g>
<defs>
<clipPath id="clip0">
<rect width="128" height="128" fill="white"/>
</clipPath>
<clipPath id="clip1">
<rect width="82" height="78" fill="white" transform="translate(23 25)"/>
</clipPath>
</defs>
</svg>
