<svg viewBox="0 0 128 128" fill="none" xmlns="http://www.w3.org/2000/svg">
<g clip-path="url(#clip0)">
<path d="M128 64.0002C128 99.3453 99.3486 128 64 128C28.6514 128 0 99.3453 0 64.0002C0 28.655 28.6521 0 64 0C99.3479 0 128 28.6523 128 64.0002Z" fill="#313A53"/>
<g clip-path="url(#clip1)">
<path d="M47.5726 33.0357C51.8064 28.9881 58.4597 28.9881 62.6935 33.0357L72.5726 42.75C76.8064 47 76.8064 54.0833 72.5726 58.3333L55.2339 75.3333L67.7339 87.4762C70.1532 89.9048 70.1532 93.5476 67.7339 95.9762C65.3145 98.4048 61.6855 98.4048 59.2661 95.9762L29.0242 66.4286C24.7903 62.1786 24.7903 55.0952 29.0242 50.8452L47.5726 33.0357ZM46.7661 67.0357L63.5 50.6429L55.2339 42.5476L38.5 58.9405L46.7661 67.0357Z" fill="#3CEAAA"/>
<path d="M72.5726 41.3333C76.8065 37.2857 83.4597 37.2857 87.6935 41.3333L97.5726 51.0476C101.806 55.2976 101.806 62.3809 97.5726 66.6309L67.3306 96.1786C64.9113 98.6071 61.0806 98.4048 58.8629 96.1786C56.4435 93.75 56.6452 89.9048 58.8629 87.6786L71.3629 75.5357L62.4919 66.8333C58.2581 62.5833 58.2581 55.5 62.4919 51.25L72.5726 41.3333ZM80.2339 67.0357L88.5 58.9405L80.2339 50.8452L71.9677 58.9405L80.2339 67.0357Z" fill="#03BCE4"/>
<path opacity="0.95" d="M71.9677 58.9405L63.2984 50.6429L54.8307 58.9405L63.2984 67.4405L71.9677 58.9405Z" fill="#00A4E1"/>
</g>
<path d="M63.9998 123.803C97.6077 123.803 124.852 96.5586 124.852 62.9508C124.852 29.3429 97.6077 2.09833 63.9998 2.09833C30.392 2.09833 3.14742 29.3429 3.14742 62.9508C3.14742 96.5586 30.392 123.803 63.9998 123.803Z" stroke="black" stroke-opacity="0.097"/>
</g>
<defs>
<clipPath id="clip0">
<rect width="128" height="128" fill="white"/>
</clipPath>
<clipPath id="clip1">
<rect width="75" height="68" fill="white" transform="translate(26 30)"/>
</clipPath>
</defs>
</svg>
