<svg viewBox="0 0 128 128" fill="none" xmlns="http://www.w3.org/2000/svg">
<path d="M64 128C99.3462 128 128 99.3462 128 64C128 28.6538 99.3462 0 64 0C28.6538 0 0 28.6538 0 64C0 99.3462 28.6538 128 64 128Z" fill="#FF3465"/>
<path d="M42.4198 79.5198C47.4456 79.5198 51.5198 75.4456 51.5198 70.4198C51.5198 65.394 47.4456 61.3198 42.4198 61.3198C37.394 61.3198 33.3198 65.394 33.3198 70.4198C33.3198 75.4456 37.394 79.5198 42.4198 79.5198Z" fill="white"/>
<path d="M73.6701 36.3701H48.8501V58.4601C51.359 59.2432 53.5521 60.8076 55.1093 62.9249C56.6665 65.0422 57.5064 67.6018 57.5064 70.2301C57.5064 72.8584 56.6665 75.418 55.1093 77.5353C53.5521 79.6527 51.359 81.217 48.8501 82.0001V90.1001H61.3601V75.2501H72.6901C81.3001 74.7401 90.6901 69.1701 91.0601 55.7001C90.8101 40.1201 77.8301 36.5601 73.6701 36.3701ZM70.2201 65.1601H61.2201V46.4601H70.6001C72.4701 46.5501 78.3001 48.2701 78.4201 55.7601C78.2501 62.2301 74.0901 64.9101 70.2201 65.1601Z" fill="white"/>
</svg>
