<svg viewBox="0 0 128 128" fill="none" xmlns="http://www.w3.org/2000/svg">
<path d="M123.997 59.9941C123.997 93.1269 97.1371 119.988 63.9986 119.988C30.8601 119.988 4 93.1269 4 59.9941C4 26.8614 30.8607 6.10352e-05 63.9986 6.10352e-05C97.1364 6.10352e-05 123.997 26.8589 123.997 59.9941Z" fill="white"/>
<path d="M93.4095 42.2821L89.9551 39.7672L98.0342 35.6829L93.4095 42.2821Z" fill="#3F4B80"/>
<path d="M72.8721 34L82.9332 39.1811L84.1413 47.5389L72.8721 34Z" fill="#313A62"/>
<path d="M84.1413 47.5389L82.5368 54.6487L72.8721 34L84.1413 47.5389Z" fill="#3F4B80"/>
<path d="M82.5364 54.6488L67.1333 35.1724L72.8906 34.0378L82.5364 54.6488Z" fill="#4B5897"/>
<path d="M82.5367 54.6487L65.8311 48.1062L67.1335 35.1724L82.5367 54.6487Z" fill="#5161A4"/>
<path d="M67.1335 35.1724L65.831 48.1062L48.6157 50.5265L67.1335 35.1724Z" fill="#4B5897"/>
<path d="M82.5367 54.6487L64.1133 59.6597L65.831 48.1062L82.5367 54.6487Z" fill="#4B5897"/>
<path d="M64.1133 59.6597L82.5367 54.6487L74.231 58.5251L64.1133 59.6597Z" fill="#3F4B80"/>
<path d="M53.939 61.3992L64.1133 59.6596L64.2832 63.1389L53.939 61.3992Z" fill="#3F4B80"/>
<path d="M64.2832 63.1389L64.1133 59.6596L74.231 58.5251L64.2832 63.1389Z" fill="#313A62"/>
<path d="M48.6157 50.5266L65.831 48.1062L64.1133 59.6597L48.6157 50.5266Z" fill="#3F4B80"/>
<path d="M48.6157 50.5266L64.1133 59.6596L53.9389 61.3993L48.6157 50.5266Z" fill="#4B5897"/>
<path d="M48.6157 50.5266L53.9389 61.3993L48.8045 65.1622L48.6157 50.5266Z" fill="#313A62"/>
<path d="M39.8759 53.4575L41.9334 65.8429L36.2705 57.3149L39.8759 53.4575Z" fill="#5161A4"/>
<path d="M29.7393 57.3906L36.2705 57.3149L36.3082 61.3048L29.7393 57.3906Z" fill="#313A62"/>
<path d="M30.2678 60.0946L29.7393 57.3906L36.3082 61.3047L30.2678 60.0946Z" fill="#3F4B80"/>
<path d="M30.2678 60.0946L26.5303 63.4037L29.7393 57.3906L30.2678 60.0946Z" fill="#4B5897"/>
<path d="M26.5303 63.4036L26.2661 65.408L22 64.7083L26.5303 63.4036Z" fill="#313A62"/>
<path d="M26.5304 63.4036L30.2679 60.0945L26.2661 65.408L26.5304 63.4036Z" fill="#5161A4"/>
<path d="M36.2705 57.3149L41.9334 65.8429L36.3083 66.9586L36.2705 57.3149Z" fill="#3F4B80"/>
<path d="M37.9317 73.312L33.8355 81.8021L33.2314 75.2596L37.9317 73.312Z" fill="#3F4B80"/>
<path d="M33.2316 75.2596L33.8356 81.8022L31.4761 82.9367L33.2316 75.2596Z" fill="#1F243E"/>
<path d="M33.8356 81.8021L34.4585 84.9978L29.5884 86L33.8356 81.8021Z" fill="#3F4B80"/>
<path d="M31.476 82.9367L33.8356 81.8021L29.5884 86L31.476 82.9367Z" fill="#313A62"/>
<path d="M36.3083 66.9585L41.9335 65.8429L33.2314 75.2596L36.3083 66.9585Z" fill="#313A62"/>
<path d="M41.9335 65.8429L45.7654 70.2109L33.2314 75.2596L41.9335 65.8429Z" fill="#4B5897"/>
<path d="M39.876 53.4575L48.6158 50.5266L41.9335 65.8429L39.876 53.4575Z" fill="#4B5897"/>
<path d="M41.9336 65.8429L48.6158 50.5266L48.8046 65.1622L41.9336 65.8429Z" fill="#3F4B80"/>
<path d="M45.7655 70.2109L41.9336 65.8429L48.8046 65.1622L45.7655 70.2109Z" fill="#313A62"/>
<path d="M74.231 58.5251L82.3289 58.4683L77.1568 66.3723L74.231 58.5251Z" fill="#4B5897"/>
<path d="M74.231 58.5251L82.5366 54.6487L82.3289 58.4684L74.231 58.5251Z" fill="#5161A4"/>
<path d="M72.6455 65.5214L74.2311 58.5251L77.157 66.3724L72.6455 65.5214Z" fill="#3F4B80"/>
<path d="M70.7012 69.1898L72.6454 65.5214L77.1569 66.3723L70.7012 69.1898Z" fill="#4B5897"/>
<path d="M66.7749 71.8182L68.0019 65.8051L72.6454 65.5214L66.7749 71.8182Z" fill="#3F4B80"/>
<path d="M66.7749 71.8182L72.6454 65.5214L70.7012 69.1898L66.7749 71.8182Z" fill="#313A62"/>
<path d="M89.9551 39.7673L97.6567 34.3593L98.0342 35.6829L89.9551 39.7673Z" fill="#495692"/>
<path d="M97.6567 34.3593L103.961 34.0378L98.0343 35.6829L97.6567 34.3593Z" fill="#5D6CAC"/>
<path d="M93.617 46.7069L90.106 44.2298L101.979 44.2487L93.617 46.7069Z" fill="#4F60A3"/>
<path d="M90.106 44.2298L100.318 42.9062L101.979 44.2487L90.106 44.2298Z" fill="#495692"/>
<path d="M100.318 42.9062L105 38.8029L101.979 44.2487L100.318 42.9062Z" fill="#3F4B80"/>
<path d="M101.979 44.2487L104.999 38.8029L106 39.2756L101.979 44.2487Z" fill="#4F60A3"/>
<path d="M105 38.8029L105.83 36.4393L106 39.2756L105 38.8029Z" fill="#313A62"/>
<path d="M84.1411 47.5389L85.2737 57.4851L82.5366 54.6488L84.1411 47.5389Z" fill="#313A62"/>
<path d="M85.2737 57.4851L84.1411 47.5389L93.6171 46.7069L85.2737 57.4851Z" fill="#3F4B80"/>
<path d="M93.6171 46.7069L84.1412 47.5389L82.9331 39.1811L93.6171 46.7069Z" fill="#4B5897"/>
<path d="M93.4093 42.2822L94.9383 43.6625L90.106 44.2298L93.4093 42.2822Z" fill="#313A62"/>
<path d="M82.9331 39.1811L93.4095 42.2822L90.1061 44.2298L82.9331 39.1811Z" fill="#3F4B80"/>
<path d="M82.9331 39.1811L89.9551 39.7673L93.4095 42.2822L82.9331 39.1811Z" fill="#313A62"/>
<path d="M93.1826 62.4393L93.6168 46.7069L97.3921 49.7891L93.1826 62.4393Z" fill="#3F4B80"/>
<path d="M93.1826 62.4393L93.6168 46.7069L85.2734 57.4851L93.1826 62.4393Z" fill="#495692"/>
<path d="M97.3925 49.7891L96.1844 45.856L93.6172 46.7069L97.3925 49.7891Z" fill="#313A62"/>
<path d="M97.9017 60.2647L93.1826 62.4392L97.3921 49.7891L97.9017 60.2647Z" fill="#313A62"/>
<path d="M64 118C96.0325 118 122 92.0325 122 60C122 27.9675 96.0325 2 64 2C31.9675 2 6 27.9675 6 60C6 92.0325 31.9675 118 64 118Z" stroke="black" stroke-opacity="0.097"/>
</svg>
