<svg viewBox="0 0 128 128" fill="none" xmlns="http://www.w3.org/2000/svg">
<path d="M64.0002 127.981C99.3411 127.981 127.991 99.3313 127.991 63.9904C127.991 28.6495 99.3411 0 64.0002 0C28.6592 0 0.00976562 28.6495 0.00976562 63.9904C0.00976562 99.3313 28.6592 127.981 64.0002 127.981Z" fill="white"/>
<path d="M79.5208 33.138L64.002 17.6191L48.4831 33.138L64.002 48.6568L79.5208 33.138Z" fill="white"/>
<g style="mix-blend-mode:multiply">
<path d="M48.4831 94.8447L64.002 110.364L79.5208 94.8447L64.002 79.3258L48.4831 94.8447Z" fill="white"/>
</g>
<g style="mix-blend-mode:multiply">
<path d="M92.6746 45.2908L87.6406 23.929L66.2788 28.9629L71.3128 50.3248L92.6746 45.2908Z" fill="white"/>
</g>
<g style="mix-blend-mode:multiply">
<path d="M98.8215 61.8428L104.265 40.5815L83.0034 35.1384L77.5602 56.3997L98.8215 61.8428Z" fill="white"/>
</g>
<g style="mix-blend-mode:multiply">
<path d="M94.9987 79.4471L110.518 63.9282L94.9987 48.4094L79.4799 63.9282L94.9987 79.4471Z" fill="white"/>
</g>
<g style="mix-blend-mode:multiply">
<path d="M82.8076 92.6114L104.146 87.4768L99.0109 66.1389L77.673 71.2735L82.8076 92.6114Z" fill="white"/>
</g>
<g style="mix-blend-mode:multiply">
<path d="M65.7641 98.5381L87.0254 103.981L92.4685 82.7199L71.2073 77.2768L65.7641 98.5381Z" fill="white"/>
</g>
<g style="mix-blend-mode:multiply">
<path d="M56.6848 50.3308L61.7188 28.969L40.3569 23.935L35.3229 45.2969L56.6848 50.3308Z" fill="white"/>
</g>
<g style="mix-blend-mode:multiply">
<path d="M50.4422 56.4002L44.999 35.1389L23.7378 40.5821L29.1809 61.8433L50.4422 56.4002Z" fill="white"/>
</g>
<g style="mix-blend-mode:multiply">
<path d="M48.5198 63.9314L33.001 48.4126L17.4821 63.9314L33.001 79.4503L48.5198 63.9314Z" fill="white"/>
</g>
<g style="mix-blend-mode:multiply">
<path d="M50.3184 71.2698L28.9805 66.1353L23.8459 87.4731L45.1838 92.6077L50.3184 71.2698Z" fill="white"/>
</g>
<g style="mix-blend-mode:multiply">
<path d="M56.7935 77.2754L35.5322 82.7185L40.9754 103.98L62.2366 98.5366L56.7935 77.2754Z" fill="white"/>
</g>
<path d="M79.5208 33.138L64.002 17.6191L48.4831 33.138L64.002 48.6568L79.5208 33.138Z" fill="#45EAE0"/>
<g style="mix-blend-mode:multiply">
<path d="M48.4831 94.8447L64.002 110.364L79.5208 94.8447L64.002 79.3258L48.4831 94.8447Z" fill="#5BEDAA"/>
</g>
<g style="mix-blend-mode:multiply">
<path d="M92.6746 45.2908L87.6406 23.929L66.2788 28.9629L71.3128 50.3248L92.6746 45.2908Z" fill="#74EF6B"/>
</g>
<g style="mix-blend-mode:multiply">
<path d="M98.8215 61.8428L104.265 40.5815L83.0034 35.1384L77.5602 56.3997L98.8215 61.8428Z" fill="#77F070"/>
</g>
<g style="mix-blend-mode:multiply">
<path d="M94.9987 79.4471L110.518 63.9282L94.9987 48.4094L79.4799 63.9282L94.9987 79.4471Z" fill="#7AF077"/>
</g>
<g style="mix-blend-mode:multiply">
<path d="M82.8076 92.6114L104.146 87.4768L99.0109 66.1389L77.673 71.2735L82.8076 92.6114Z" fill="#7BF07B"/>
</g>
<g style="mix-blend-mode:multiply">
<path d="M65.7641 98.5381L87.0254 103.981L92.4685 82.7199L71.2073 77.2768L65.7641 98.5381Z" fill="#6EEF90"/>
</g>
<g style="mix-blend-mode:multiply">
<path d="M56.6848 50.3308L61.7188 28.969L40.3569 23.935L35.3229 45.2969L56.6848 50.3308Z" fill="#43ECE1"/>
</g>
<g style="mix-blend-mode:multiply">
<path d="M50.4422 56.4002L44.999 35.1389L23.7378 40.5821L29.1809 61.8433L50.4422 56.4002Z" fill="#3FEBE0"/>
</g>
<g style="mix-blend-mode:multiply">
<path d="M48.5198 63.9314L33.001 48.4126L17.4821 63.9314L33.001 79.4503L48.5198 63.9314Z" fill="#3BEBDF"/>
</g>
<g style="mix-blend-mode:multiply">
<path d="M50.3184 71.2698L28.9805 66.1353L23.8459 87.4731L45.1838 92.6077L50.3184 71.2698Z" fill="#3BEBD8"/>
</g>
<g style="mix-blend-mode:multiply">
<path d="M56.7935 77.2754L35.5322 82.7185L40.9754 103.98L62.2366 98.5366L56.7935 77.2754Z" fill="#4CECBF"/>
</g>
</svg>
