<svg viewBox="0 0 128 128" fill="none" xmlns="http://www.w3.org/2000/svg">
<path d="M123.997 59.9941C123.997 93.1268 97.1371 119.988 63.9986 119.988C30.8601 119.988 4 93.1268 4 59.9941C4 26.8614 30.8607 0 63.9986 0C97.1364 0 123.997 26.8588 123.997 59.9941Z" fill="#152743"/>
<path d="M64.1756 32.6488C59.4588 32.6488 55.6344 30.0424 55.6344 26.8244C55.6344 23.6064 59.4588 21 64.1756 21C68.8925 21 72.7133 23.6064 72.7133 26.8244C72.7133 30.0424 68.8925 32.6488 64.1756 32.6488ZM59.7563 97.663V35.4508H78.7957C79.5018 35.4508 80 35.9735 80 36.674V71.1937C80 71.8906 79.4982 72.488 78.7957 72.488H68.3011V97.663C68.3011 98.3635 67.7634 99 67.0573 99H61.0789C60.7287 98.9865 60.397 98.8411 60.1512 98.5933C59.9055 98.3455 59.7642 98.0141 59.7563 97.6666V97.663ZM56.5448 72.4844H49.3405C48.9922 72.481 48.6586 72.3446 48.409 72.1036C48.1593 71.8626 48.0129 71.5354 48 71.1901V36.674C48 35.9735 48.6344 35.4508 49.3369 35.4508H56.5448V72.488V72.4844Z" fill="white"/>
<path d="M64 118C96.0325 118 122 92.0325 122 60C122 27.9675 96.0325 2 64 2C31.9675 2 6 27.9675 6 60C6 92.0325 31.9675 118 64 118Z" stroke="black" stroke-opacity="0.097"/>
</svg>
