<svg viewBox="0 0 128 128" fill="none" xmlns="http://www.w3.org/2000/svg">
<g clip-path="url(#clip0_233:1193)">
<path d="M63.9999 -0.000234477C28.6536 -0.000237567 -0.000220197 28.6536 -0.000223287 63.9999C-0.000226377 99.3462 28.6536 128 63.9999 128C99.3462 128 128 99.3462 128 63.9999C128 28.6536 99.3462 -0.000231387 63.9999 -0.000234477Z" fill="#5294FF"/>
<path fill-rule="evenodd" clip-rule="evenodd" d="M47.0674 45.9803H80.2297C80.6558 45.9794 81.0737 46.0966 81.4372 46.3188C81.8008 46.541 82.0957 46.8595 82.2892 47.239C82.4828 47.6185 82.5675 48.0443 82.5339 48.469C82.5003 48.8937 82.3497 49.3008 82.0989 49.6452L66.3154 71.3469C66.0648 71.6908 65.9143 72.0974 65.8805 72.5217C65.8467 72.9459 65.9309 73.3712 66.1238 73.7505C66.3166 74.1299 66.6107 74.4485 66.9734 74.6711C67.3361 74.8937 67.7533 75.0116 68.1789 75.0118H82.0904C82.4541 75.0113 82.8124 74.9248 83.1363 74.7595C83.4601 74.5941 83.7403 74.3545 83.954 74.0603L99.5653 52.6014C99.8522 52.2067 100.007 51.7313 100.007 51.2433C100.007 50.7553 99.8522 50.2799 99.5653 49.8852L85.8796 31.0692C85.666 30.7749 85.3858 30.5354 85.0619 30.37C84.7381 30.2046 84.3797 30.1182 84.0161 30.1177H43.2838C42.9197 30.1177 42.5608 30.204 42.2364 30.3694C41.912 30.5347 41.6314 30.7746 41.4175 31.0692L27.7347 49.888C27.4484 50.2825 27.2942 50.7574 27.2942 51.2447C27.2942 51.7321 27.4484 52.207 27.7347 52.6014L61.7836 99.4184C61.9979 99.7124 62.2787 99.9516 62.6031 100.117C62.9274 100.281 63.2861 100.367 63.65 100.367C64.0138 100.367 64.3725 100.281 64.6969 100.117C65.0212 99.9516 65.302 99.7124 65.5163 99.4184L72.4707 89.8551C72.758 89.4606 72.9128 88.9851 72.9128 88.497C72.9128 88.0089 72.758 87.5334 72.4707 87.1388L45.2038 49.6452C44.9533 49.3012 44.8028 48.8946 44.769 48.4704C44.7351 48.0462 44.8193 47.6209 45.0122 47.2415C45.2051 46.8622 45.4992 46.5436 45.8619 46.321C46.2246 46.0984 46.6418 45.9805 47.0674 45.9803Z" fill="white"/>
<path d="M64.0001 125.867C98.1682 125.867 125.867 98.1682 125.867 64.0001C125.867 29.832 98.1682 2.1333 64.0001 2.1333C29.832 2.1333 2.1333 29.832 2.1333 64.0001C2.1333 98.1682 29.832 125.867 64.0001 125.867Z" stroke="white" stroke-opacity="0.097"/>
</g>
<defs>
<clipPath id="clip0_233:1193">
<rect width="128" height="128" fill="white"/>
</clipPath>
</defs>
</svg>
