<svg viewBox="0 0 128 128" fill="none" xmlns="http://www.w3.org/2000/svg">
<path d="M123.997 59.9941C123.997 93.1268 97.1371 119.988 63.9986 119.988C30.8601 119.988 4 93.1268 4 59.9941C4 26.8614 30.8607 0 63.9986 0C97.1364 0 123.997 26.8588 123.997 59.9941Z" fill="#071630"/>
<path opacity="0.9" d="M98.7806 84.1347C98.7806 85.6775 97.4639 86.7796 95.489 86.7796C93.7335 86.7796 92.4169 85.6775 92.4169 84.1347V43.8C92.4169 43.5796 92.4169 43.5796 92.1975 43.5796C91.9781 43.5796 91.9781 43.5796 91.7586 43.5796L66.5235 75.9796C65.4263 77.0816 63.4514 77.5224 62.1348 76.6408C61.6959 76.4204 61.4765 76.2 61.257 75.9796L36.0219 43.5796C35.8025 43.5796 35.8025 43.5796 35.5831 43.5796L35.3636 43.8V84.3551C35.3636 85.898 33.8276 87 32.0721 87C30.3166 87 29 85.898 29 84.3551V35.8653C29 34.9837 29.6583 34.102 30.3166 33.6612C31.8527 32.7796 33.6081 33.2204 34.7053 34.3224L62.5737 69.8082C63.232 70.4694 64.1097 70.4694 64.768 70.0286C64.768 70.0286 64.9875 70.0286 64.9875 69.8082L92.8558 34.3224C93.5141 33.4408 94.6113 33 95.7085 33C97.4639 33 99 34.102 99 35.6449L98.7806 84.1347Z" fill="url(#paint0_linear)"/>
<path d="M99 84.249C99 85.5801 97.6751 86.9113 95.6877 86.9113C94.5836 86.9113 93.4795 86.4675 92.817 85.5801L64.9937 49.8611C64.3312 49.1956 63.448 49.1956 62.7855 49.6393C62.7855 49.6393 62.5647 49.8611 62.3438 50.3048L34.7413 85.802C33.6372 87.1331 31.8707 87.355 30.3249 86.4675C29.4416 86.0238 29 85.1364 29 84.249V35.6623C29 34.1093 30.3249 33 32.0915 33C33.858 33 35.4038 34.1093 35.4038 35.6623V76.484C35.4038 76.7058 35.4038 76.7058 35.6246 76.7058C35.8454 76.7058 35.8454 76.7058 36.0662 76.7058L60.7981 44.9803C61.0189 44.5366 61.9022 43.6491 62.3438 43.4273C63.8896 42.5399 65.6562 42.7617 66.7603 44.0929L91.9338 76.7058C91.9338 76.7058 92.1546 76.7058 92.3754 76.7058C92.5962 76.7058 92.5962 76.484 92.5962 76.484V35.6623C92.5962 34.1093 93.9211 33 95.6877 33C97.4543 33 99 34.1093 99 35.6623V84.249Z" fill="url(#paint1_linear)"/>
<path d="M64 118C96.0325 118 122 92.0325 122 60C122 27.9675 96.0325 2 64 2C31.9675 2 6 27.9675 6 60C6 92.0325 31.9675 118 64 118Z" stroke="black" stroke-opacity="0.097"/>
<defs>
<linearGradient id="paint0_linear" x1="64" y1="86.8243" x2="64" y2="33.2413" gradientUnits="userSpaceOnUse">
<stop stop-color="#3F5CAA"/>
<stop offset="0.2" stop-color="#3F5FAC"/>
<stop offset="0.33" stop-color="#4168B2"/>
<stop offset="0.46" stop-color="#4378BD"/>
<stop offset="0.57" stop-color="#468ECC"/>
<stop offset="0.64" stop-color="#48A0D9"/>
<stop offset="0.8" stop-color="#3ABBEC"/>
<stop offset="0.9" stop-color="#35C6F4"/>
</linearGradient>
<linearGradient id="paint1_linear" x1="64" y1="87.0002" x2="64" y2="33" gradientUnits="userSpaceOnUse">
<stop stop-color="#4068B1"/>
<stop offset="0.13" stop-color="#3D7FC1"/>
<stop offset="0.39" stop-color="#39A5DD"/>
<stop offset="0.59" stop-color="#36BDEE"/>
<stop offset="0.72" stop-color="#35C6F4"/>
</linearGradient>
</defs>
</svg>
