<svg viewBox="0 0 128 128" fill="none" xmlns="http://www.w3.org/2000/svg">
<g clip-path="url(#clip0_436_725)">
<path d="M63.9808 128C99.3165 128 127.962 99.355 127.962 64.0194C127.962 28.6838 99.3165 0.0385742 63.9808 0.0385742C28.6452 0.0385742 0 28.6838 0 64.0194C0 99.355 28.6452 128 63.9808 128Z" fill="#0D1417"/>
<path d="M63.626 47.5134L81.7617 36.5447C81.7617 36.5447 63.626 11.798 55.2605 9.06543C46.8997 12.1384 36.7412 15.9784 36.7412 15.9784L63.626 47.5134Z" fill="white"/>
<path d="M65.4192 73.0748L63.6263 47.5132L17.5414 50.3369C17.5414 50.3369 14.665 50.4663 14.665 54.6515C14.665 58.8366 15.667 71.2099 15.667 71.2099C15.667 71.2099 16.2662 73.257 19.8522 73.6069C23.4381 73.9569 55.2607 74.2685 65.4192 73.0748Z" fill="white"/>
<path d="M88.2097 19.6553C93.1379 21.0024 106.906 31.4342 101.072 48.5871C93.0037 43.1459 81.7617 36.5446 81.7617 36.5446C81.7617 36.5446 85.7695 30.5521 88.2097 19.6553Z" fill="white"/>
<path d="M102.482 70.3424L101.043 48.6016L108.148 49.3494C108.148 49.3494 111.288 49.3063 111.351 53.084C111.413 56.8616 112.18 64.9875 112.18 64.9875C112.18 64.9875 112.885 68.8227 109.687 69.2733C106.489 69.724 102.482 70.3424 102.482 70.3424Z" fill="white"/>
<path d="M98.6991 97.9941C97.9033 98.6941 95.6262 99.744 94.4133 97.1168C93.2004 94.4897 86.8579 82.6533 86.8579 82.6533L102.482 70.3423C102.482 70.3423 107.084 73.5015 107.151 84.058C107.151 90.9949 101.336 95.6786 98.6991 97.9941Z" fill="white"/>
<path d="M46.4729 110.794L65.4188 73.0752L86.8576 82.6632C86.8576 82.6632 68.4103 110.468 67.5521 111.571C66.694 112.674 64.297 117.386 49.2007 114.045C45.3607 113.354 46.4729 110.794 46.4729 110.794Z" fill="white"/>
</g>
<defs>
<clipPath id="clip0_436_725">
<rect width="128" height="128" fill="white"/>
</clipPath>
</defs>
</svg>
