<svg viewBox="0 0 128 128" fill="none" xmlns="http://www.w3.org/2000/svg">
<g clip-path="url(#clip0_436_733)">
<path d="M63.9808 128C99.3165 128 127.962 99.355 127.962 64.0194C127.962 28.6838 99.3165 0.0385742 63.9808 0.0385742C28.6452 0.0385742 0 28.6838 0 64.0194C0 99.355 28.6452 128 63.9808 128Z" fill="#0645F5"/>
<path d="M87.4666 36.1178L76.7808 46.8276C76.2526 47.3592 75.5358 47.6607 74.7865 47.6666H66.5552H59.925H51.6937C50.9384 47.6621 50.2152 47.3608 49.6802 46.8276L38.9944 36.1178C38.7227 35.8452 38.5074 35.5218 38.3608 35.166C38.2141 34.8102 38.139 34.429 38.1397 34.0441C38.1403 33.6593 38.2168 33.2783 38.3647 32.923C38.5126 32.5677 38.729 32.2451 39.0016 31.9734C39.2742 31.7017 39.5976 31.4864 39.9534 31.3398C40.3092 31.1931 40.6904 31.118 41.0753 31.1187C41.4601 31.1193 41.8411 31.1958 42.1964 31.3437C42.5517 31.4916 42.8744 31.708 43.146 31.9806L52.9498 41.8083H63.2329H73.5208L83.3198 31.9806C83.8684 31.4301 84.6133 31.12 85.3905 31.1187C86.1678 31.1173 86.9137 31.4248 87.4642 31.9734C88.0148 32.522 88.3248 33.2669 88.3262 34.0441C88.3275 34.8213 88.02 35.5673 87.4714 36.1178H87.4666Z" fill="white"/>
<path d="M66.5408 47.6763V47.6859H66.536L63.2329 47.6811L66.5408 47.6763Z" fill="white"/>
<path d="M59.0001 30.5856C60.5993 30.5856 61.8957 29.2892 61.8957 27.69C61.8957 26.0908 60.5993 24.7944 59.0001 24.7944C57.4009 24.7944 56.1045 26.0908 56.1045 27.69C56.1045 29.2892 57.4009 30.5856 59.0001 30.5856Z" fill="white"/>
<path d="M67.5714 30.5856C69.1705 30.5856 70.4669 29.2892 70.4669 27.69C70.4669 26.0908 69.1705 24.7944 67.5714 24.7944C65.9722 24.7944 64.6758 26.0908 64.6758 27.69C64.6758 29.2892 65.9722 30.5856 67.5714 30.5856Z" fill="white"/>
<path d="M55.8456 38.9943C55.4689 38.9955 55.0957 38.922 54.7476 38.778C54.3995 38.634 54.0834 38.4224 53.8177 38.1553L46.9814 31.2759C46.7039 31.0047 46.483 30.681 46.3317 30.3237C46.1803 29.9664 46.1014 29.5826 46.0996 29.1945C46.0979 28.8065 46.1732 28.4219 46.3213 28.0632C46.4694 27.7045 46.6873 27.3789 46.9623 27.1051C47.2374 26.8313 47.5641 26.6149 47.9234 26.4685C48.2828 26.3221 48.6677 26.2485 49.0557 26.2521C49.4438 26.2557 49.8272 26.3363 50.1838 26.4893C50.5405 26.6424 50.8631 26.8647 51.1331 27.1435L57.0968 33.1312H62.4277C62.4277 35.8446 62.4277 36.9377 62.4277 38.9847L55.8456 38.9943Z" fill="white"/>
<path d="M71.6415 38.9946C72.0175 38.9955 72.3898 38.9218 72.7371 38.7778C73.0843 38.6338 73.3996 38.4224 73.6646 38.1557L80.5392 31.2763C81.0747 30.7232 81.371 29.9816 81.3639 29.2117C81.3568 28.4419 81.0469 27.7058 80.5013 27.1627C79.9557 26.6196 79.2182 26.3131 78.4483 26.3096C77.6785 26.3061 76.9382 26.6058 76.3876 27.1439L70.3999 33.1316H65.0737C65.0737 35.845 65.0737 36.938 65.0737 38.9851L71.6415 38.9946Z" fill="white"/>
<path d="M63.2859 47.6811L59.978 47.6859V47.6763L63.2859 47.6811Z" fill="white"/>
<path d="M37.2782 38.1555L47.9928 48.8366C48.5257 49.3694 48.8256 50.0917 48.827 50.8453V59.0766V65.7019V73.9332C48.8256 74.6868 48.5257 75.4091 47.9928 75.9419L37.2782 86.6229C37.0046 86.8946 36.6803 87.1097 36.3236 87.256C35.9669 87.4023 35.5849 87.4769 35.1994 87.4756C34.8139 87.4742 34.4324 87.397 34.0768 87.2482C33.7211 87.0994 33.3982 86.8821 33.1266 86.6086C32.8549 86.335 32.6398 86.0106 32.4935 85.654C32.3472 85.2973 32.2726 84.9153 32.2739 84.5298C32.2753 84.1443 32.3525 83.7628 32.5013 83.4071C32.6501 83.0515 32.8674 82.7286 33.141 82.4569L42.9687 72.658V62.3701V52.0821L33.141 42.3023C32.6036 41.7511 32.3049 41.0105 32.3094 40.2407C32.3139 39.471 32.6212 38.7339 33.1649 38.1889C33.7086 37.644 34.4449 37.335 35.2147 37.3287C35.9844 37.3225 36.7257 37.6195 37.2782 38.1555Z" fill="white"/>
<path d="M48.8364 59.0767H48.846V59.0815L48.8412 62.3893L48.8364 59.0767Z" fill="white"/>
<path d="M28.6251 69.5705C30.2243 69.5705 31.5207 68.2741 31.5207 66.6749C31.5207 65.0757 30.2243 63.7793 28.6251 63.7793C27.0259 63.7793 25.7295 65.0757 25.7295 66.6749C25.7295 68.2741 27.0259 69.5705 28.6251 69.5705Z" fill="white"/>
<path d="M28.6251 60.9416C30.2243 60.9416 31.5207 59.6452 31.5207 58.046C31.5207 56.4468 30.2243 55.1504 28.6251 55.1504C27.0259 55.1504 25.7295 56.4468 25.7295 58.046C25.7295 59.6452 27.0259 60.9416 28.6251 60.9416Z" fill="white"/>
<path d="M40.1546 70.5151C40.1559 70.8915 40.0819 71.2644 39.937 71.6118C39.7921 71.9592 39.5792 72.2742 39.3108 72.5381L32.4362 79.3888C31.8857 79.9393 31.139 80.2486 30.3604 80.2486C29.5819 80.2486 28.8352 79.9393 28.2846 79.3888C27.7341 78.8382 27.4248 78.0915 27.4248 77.313C27.4248 76.5344 27.7341 75.7877 28.2846 75.2372L34.2771 69.2782V63.9473H40.1354L40.1546 70.5151Z" fill="white"/>
<path d="M40.1546 54.546C40.1551 54.1697 40.0808 53.7971 39.9359 53.4498C39.7911 53.1024 39.5786 52.7874 39.3108 52.523L32.4362 45.6723C31.8857 45.1218 31.139 44.8125 30.3604 44.8125C29.5819 44.8125 28.8352 45.1218 28.2846 45.6723C27.7341 46.2229 27.4248 46.9696 27.4248 47.7481C27.4248 48.5267 27.7341 49.2734 28.2846 49.8239L34.2771 55.7877V61.1138H40.1354L40.1546 54.546Z" fill="white"/>
<path d="M95.9185 93.3056L78.5163 75.9417C78.2514 75.6786 78.0412 75.3657 77.8981 75.0209C77.7549 74.6761 77.6815 74.3063 77.6821 73.933V65.7017V59.0764V50.845C77.6815 50.4717 77.7549 50.102 77.8981 49.7572C78.0412 49.4124 78.2514 49.0994 78.5163 48.8364L89.2309 38.1553C89.4994 37.8673 89.8232 37.6365 90.1829 37.4764C90.5426 37.3164 90.9309 37.2306 91.3246 37.224C91.7183 37.2175 92.1092 37.2904 92.4741 37.4383C92.8389 37.5863 93.1702 37.8063 93.4481 38.0852C93.7261 38.364 93.9449 38.6961 94.0916 39.0615C94.2383 39.4268 94.3098 39.818 94.3019 40.2117C94.294 40.6053 94.2068 40.9933 94.0455 41.3525C93.8842 41.7117 93.6522 42.0346 93.3633 42.3021L83.5356 52.1011V62.389V72.677L99.9359 89.1012C101.082 90.2422 101.245 91.8913 100.089 93.0994C98.934 94.3075 97.0643 94.4417 95.9185 93.3056Z" fill="white"/>
<path d="M77.6679 65.7018H77.6631V65.697V62.3892L77.6679 65.7018Z" fill="white"/>
<path d="M97.8839 60.9992C99.483 60.9992 100.779 59.7028 100.779 58.1036C100.779 56.5044 99.483 55.208 97.8839 55.208C96.2847 55.208 94.9883 56.5044 94.9883 58.1036C94.9883 59.7028 96.2847 60.9992 97.8839 60.9992Z" fill="white"/>
<path d="M97.8839 69.6281C99.483 69.6281 100.779 68.3317 100.779 66.7325C100.779 65.1333 99.483 63.8369 97.8839 63.8369C96.2847 63.8369 94.9883 65.1333 94.9883 66.7325C94.9883 68.3317 96.2847 69.6281 97.8839 69.6281Z" fill="white"/>
<path d="M86.3496 54.2634C86.349 53.8875 86.4228 53.5152 86.5668 53.1679C86.7108 52.8207 86.9221 52.5054 87.1886 52.2403L94.068 45.3896C94.3392 45.1121 94.6629 44.8912 95.0202 44.7399C95.3775 44.5885 95.7613 44.5096 96.1494 44.5078C96.5374 44.5061 96.922 44.5814 97.2807 44.7295C97.6394 44.8776 97.965 45.0955 98.2388 45.3705C98.5126 45.6456 98.729 45.9723 98.8754 46.3316C99.0218 46.691 99.0954 47.0759 99.0918 47.4639C99.0882 47.852 99.0076 48.2354 98.8546 48.592C98.7015 48.9487 98.4792 49.2713 98.2004 49.5413L92.2127 55.5002V60.8311H86.3544L86.3496 54.2634Z" fill="white"/>
<path d="M86.3496 70.2323C86.3515 70.9909 86.6531 71.718 87.1886 72.2553L94.068 79.1012C94.3392 79.3787 94.6629 79.5996 95.0202 79.7509C95.3775 79.9023 95.7613 79.9812 96.1494 79.983C96.5375 79.9848 96.922 79.9094 97.2807 79.7613C97.6394 79.6132 97.9651 79.3953 98.2388 79.1203C98.5126 78.8452 98.729 78.5185 98.8754 78.1592C99.0218 77.7998 99.0954 77.4149 99.0918 77.0269C99.0883 76.6388 99.0076 76.2554 98.8546 75.8988C98.7015 75.5422 98.4792 75.2195 98.2004 74.9496L92.2127 68.9858V63.6597H86.3544L86.3496 70.2323Z" fill="white"/>
<path d="M39.0521 88.0274L49.7332 77.3176C49.9962 77.0526 50.3092 76.8425 50.654 76.6993C50.9988 76.5561 51.3685 76.4827 51.7419 76.4834H59.978H66.5985H74.8298C75.2031 76.4827 75.5729 76.5561 75.9177 76.6993C76.2625 76.8425 76.5754 77.0526 76.8385 77.3176L94.049 94.576C94.5976 95.1276 94.9056 95.8739 94.9056 96.6518C94.9056 97.4298 94.5976 98.1761 94.049 98.7276C93.7869 98.9996 93.4727 99.216 93.1251 99.3638C92.7775 99.5116 92.4036 99.5877 92.0259 99.5877C91.6482 99.5877 91.2743 99.5116 90.9267 99.3638C90.5791 99.216 90.2649 98.9996 90.0028 98.7276L73.5546 82.3321H63.2667H52.9835L43.1798 92.1598C42.6285 92.6971 41.8879 92.9959 41.1182 92.9914C40.3484 92.9869 39.6113 92.6796 39.0664 92.1359C38.5214 91.5922 38.2124 90.8559 38.2062 90.0861C38.1999 89.3163 38.4969 88.5751 39.033 88.0226L39.0521 88.0274Z" fill="white"/>
<path d="M59.978 76.4691V76.4644H63.2859L59.978 76.4691Z" fill="white"/>
<path d="M67.5142 99.3512C69.1134 99.3512 70.4098 98.0548 70.4098 96.4556C70.4098 94.8565 69.1134 93.5601 67.5142 93.5601C65.9151 93.5601 64.6187 94.8565 64.6187 96.4556C64.6187 98.0548 65.9151 99.3512 67.5142 99.3512Z" fill="white"/>
<path d="M58.9473 99.3512C60.5465 99.3512 61.8429 98.0548 61.8429 96.4556C61.8429 94.8565 60.5465 93.5601 58.9473 93.5601C57.3482 93.5601 56.0518 94.8565 56.0518 96.4556C56.0518 98.0548 57.3482 99.3512 58.9473 99.3512Z" fill="white"/>
<path d="M70.6733 85.1514C71.0493 85.1497 71.4219 85.2231 71.7693 85.3671C72.1167 85.5112 72.4318 85.723 72.6963 85.9903L79.547 92.8697C80.0825 93.4228 80.3788 94.1645 80.3717 94.9343C80.3646 95.7041 80.0547 96.4402 79.5091 96.9833C78.9634 97.5264 78.2259 97.8329 77.4561 97.8364C76.6862 97.84 75.9459 97.5403 75.3954 97.0022L69.4364 91.0145H64.1055C64.1055 88.3011 64.1055 87.208 64.1055 85.161L70.6733 85.1514Z" fill="white"/>
<path d="M54.877 85.1514C54.5003 85.1501 54.1271 85.2237 53.779 85.3677C53.4309 85.5117 53.1148 85.7233 52.8491 85.9903L46.0225 92.8697C45.7449 93.141 45.5241 93.4646 45.3727 93.822C45.2213 94.1793 45.1424 94.5631 45.1407 94.9512C45.1389 95.3392 45.2142 95.7238 45.3623 96.0825C45.5104 96.4411 45.7283 96.7668 46.0033 97.0406C46.2784 97.3144 46.6051 97.5307 46.9644 97.6772C47.3238 97.8236 47.7087 97.8972 48.0967 97.8936C48.4848 97.89 48.8682 97.8094 49.2249 97.6563C49.5815 97.5033 49.9041 97.281 50.1741 97.0022L56.133 91.0145H61.464C61.464 88.3011 61.464 87.208 61.464 85.161L54.877 85.1514Z" fill="white"/>
<path d="M99.3414 100.248C100.941 100.248 102.237 98.9513 102.237 97.3521C102.237 95.7529 100.941 94.4565 99.3414 94.4565C97.7422 94.4565 96.4458 95.7529 96.4458 97.3521C96.4458 98.9513 97.7422 100.248 99.3414 100.248Z" fill="white"/>
</g>
<defs>
<clipPath id="clip0_436_733">
<rect width="128" height="128" fill="white"/>
</clipPath>
</defs>
</svg>
