<svg viewBox="0 0 128 128" fill="none" xmlns="http://www.w3.org/2000/svg">
<path d="M72.5582 1.25251C73.3838 2.54915 74.2246 3.83628 75.0394 5.13965C77.3442 8.82645 78.9197 12.8322 80.4589 16.8874C81.6637 20.0616 81.9479 23.4215 82.9835 26.6158C83.3875 27.862 83.2975 29.2743 83.3921 30.6137C83.7067 34.8221 83.7055 39.048 83.3885 43.2562C83.3228 44.0832 83.4549 45.0895 82.189 45.2021C82.1818 45.2085 82.1747 45.2127 82.1676 45.219C82.1582 45.2404 82.1506 45.2621 82.1411 45.2836C82.5895 46.1964 83.4062 46.2501 84.2702 46.1936C84.3125 46.1864 84.3469 46.1727 84.3868 46.1636C84.3263 46.0363 84.2794 45.9029 84.2471 45.7657C85.7955 45.2889 85.305 43.7982 85.2465 42.9547C85.2308 41.6181 85.3093 40.282 85.4815 38.9565C85.8161 34.0866 85.2788 29.2674 84.445 24.5236C83.6248 19.8566 82.4602 15.1982 80.447 10.8733C79.2717 8.19358 77.8772 5.6154 76.2778 3.16503C75.9803 2.73066 75.7337 2.26138 75.4637 1.80817C75.2015 1.36804 75.2061 1.13048 75.3587 1.00539C74.3394 0.822802 73.3119 0.664919 72.2761 0.531738C72.1391 0.741275 72.4016 1.00662 72.5582 1.25251Z" fill="#968CF2"/>
<path d="M75.4638 1.80816C75.7338 2.26137 75.9804 2.73065 76.2779 3.16501C77.8773 5.61538 79.2717 8.19356 80.447 10.8733C82.4602 15.1981 83.6248 19.8565 84.4451 24.5236C85.2788 29.2674 85.8162 34.0866 85.4816 38.9565C85.3094 40.282 85.2309 41.6181 85.2465 42.9547C85.3051 43.7982 85.7956 45.2888 84.2472 45.7657C84.2795 45.9029 84.3263 46.0363 84.3869 46.1636C84.7581 46.9295 85.5252 46.9587 86.3249 46.9244C86.2793 46.8369 86.2557 46.7396 86.2561 46.6409C86.451 46.5442 86.6129 46.3921 86.7215 46.2036C86.83 46.0151 86.8804 45.7986 86.8661 45.5816C86.9686 42.7236 86.8522 39.8581 87.3406 37.0135C87.4821 36.1902 87.18 35.3002 87.1691 34.4397C87.103 28.505 86.2271 22.6072 84.5656 16.9095C83.6301 13.9323 82.4757 11.0284 81.1119 8.22152C80.0607 5.93951 78.7978 3.77073 77.7603 1.48808C76.9647 1.31372 76.1652 1.14983 75.3588 1.00537C75.2062 1.13046 75.2016 1.36802 75.4638 1.80816Z" fill="#9D8BF1"/>
<path d="M81.1118 8.2217C82.4756 11.0286 83.63 13.9325 84.5655 16.9097C86.227 22.6074 87.1029 28.5052 87.169 34.4398C87.18 35.3004 87.482 36.1904 87.3405 37.0137C86.8521 39.8583 86.9685 42.7238 86.8661 45.5818C86.8803 45.7988 86.8299 46.0153 86.7214 46.2038C86.6128 46.3923 86.4509 46.5444 86.256 46.6411C86.2556 46.7398 86.2792 46.8371 86.3249 46.9246C86.382 47.0066 86.4578 47.0739 86.546 47.1209C86.6343 47.1679 86.7325 47.1932 86.8325 47.1947C86.8109 47.1155 86.797 47.0343 86.791 46.9523C87.0782 46.867 87.4122 46.7345 87.3858 46.4129C87.2494 44.751 88.1189 43.2454 88.0504 41.5801C87.9331 38.7279 88.2143 35.8816 88.0727 33.0135C87.7286 24.4174 85.703 15.9722 82.1104 8.15527C81.0733 5.92994 80.0789 3.68091 78.6261 1.68137C78.3386 1.61413 78.0492 1.55163 77.7603 1.48828C78.7977 3.77091 80.0606 5.93969 81.1118 8.2217Z" fill="#A389F0"/>
<path d="M82.1108 8.15508C85.7034 15.972 87.729 24.4172 88.073 33.0133C88.2147 35.8814 87.9335 38.7277 88.0507 41.5799C88.1192 43.2453 87.2497 44.7508 87.3861 46.4127C87.4125 46.7343 87.0786 46.8668 86.7914 46.9521C86.7973 47.0341 86.8112 47.1153 86.8328 47.1945C86.957 47.6513 87.3287 47.7882 87.8315 47.7543C87.8415 47.7499 87.8494 47.7445 87.8591 47.74C87.7897 47.6756 87.7203 47.6112 87.6508 47.5468C88.7319 46.6634 88.5203 45.3666 88.5766 44.2331C88.7095 41.5634 88.6704 38.867 88.7543 36.2149C88.8703 32.7312 88.6649 29.2442 88.1407 25.7981C87.6691 22.4367 86.9391 19.1166 85.9573 15.8673C84.7813 12.2248 83.3547 8.66801 81.6877 5.22241C81.2173 4.2323 80.6052 3.30902 80.0485 2.36066C79.9679 2.25079 79.9138 2.12379 79.8903 1.98956C79.4707 1.88235 79.0495 1.77955 78.6265 1.68115C80.0793 3.68071 81.0736 5.92975 82.1108 8.15508Z" fill="#A489F0"/>
<path d="M69.3853 0.227539C72.414 3.83928 74.9084 7.8672 76.7921 12.188C78.484 15.7784 79.7305 19.5622 80.504 23.4551C81.0284 26.378 81.7075 29.2847 81.8565 32.2439C81.974 34.5815 82.1505 36.9413 81.7721 39.2966C81.5467 40.6994 82.0219 42.1394 81.6743 43.573C81.5042 44.2749 81.3689 44.8719 80.5217 44.8972C80.4925 44.9586 80.4671 45.0205 80.4357 45.0817C80.5221 45.2287 80.6427 45.3527 80.7872 45.4432C80.9318 45.5336 81.096 45.5879 81.266 45.6014C81.436 45.6148 81.6067 45.5871 81.7637 45.5206C81.9207 45.454 82.0593 45.3505 82.1678 45.219C82.1749 45.2127 82.1819 45.2085 82.1891 45.2021C83.4551 45.0896 83.323 44.0832 83.3886 43.2562C83.7057 39.048 83.7069 34.8221 83.3923 30.6137C83.2977 29.2743 83.3877 27.862 82.9837 26.6159C81.9481 23.4215 81.6639 20.0616 80.4591 16.8874C78.9199 12.8322 77.3444 8.82648 75.0396 5.13968C74.2248 3.83631 73.3839 2.54918 72.5583 1.25254C72.4018 1.00664 72.1393 0.741303 72.2763 0.53168C71.3193 0.40812 70.3556 0.306739 69.3853 0.227539Z" fill="#8F8EF2"/>
<path d="M66.4103 3.363C68.966 6.53818 71.173 9.97894 72.9932 13.626C74.115 15.8236 74.7281 18.2844 75.5317 20.6399C76.5042 23.4903 76.8733 26.4648 77.4273 29.4098C77.841 31.4693 78.0536 33.5641 78.0622 35.6646C78.0403 37.8033 78.0954 39.9793 77.8683 42.1271C77.8143 42.312 77.7914 42.5046 77.8005 42.697C78.209 44.2194 77.3601 44.4373 76.1602 44.3086V44.3086C75.7742 44.3083 75.3882 44.3081 75.0021 44.3078V44.3079C74.4229 44.308 73.8437 44.3081 73.2645 44.3082C72.7 44.3683 72.0987 44.1697 71.5778 44.536C71.5724 44.5911 71.5683 44.6484 71.5678 44.7119C72.0457 45.2249 72.6807 45.1902 73.2977 45.2024C74.7259 45.2305 76.1546 45.1918 77.585 45.2222C77.8241 45.2121 78.0613 45.1753 78.2923 45.1124C78.1277 44.9647 77.977 44.8022 77.8419 44.6271C79.8428 44.56 79.7206 44.5428 80.0117 42.4743C80.5065 38.672 80.5252 34.8227 80.0673 31.0157C79.6201 26.7375 78.6902 22.5236 77.2951 18.4546C75.9234 14.5674 74.2097 10.8095 72.1741 7.22495C70.92 4.9859 69.2696 3.05905 67.7485 1.02721C67.4559 0.740164 67.1985 0.419314 66.9817 0.0714307C65.9932 0.0260698 64.9998 0 64.0001 0C63.9358 0 63.8719 0.00225318 63.8076 0.00243056C64.2994 1.39876 65.5206 2.27689 66.4103 3.363Z" fill="#8292F4"/>
<path d="M67.7482 1.02707C69.2694 3.0589 70.9197 4.98576 72.1739 7.22481C74.2094 10.8093 75.9231 14.5672 77.2948 18.4545C78.6899 22.5235 79.6199 26.7374 80.067 31.0156C80.5249 34.8226 80.5063 38.6718 80.0115 42.4742C79.7204 44.5427 79.8426 44.5598 77.8416 44.6269C77.9767 44.8021 78.1274 44.9645 78.292 45.1123C78.9075 45.6611 79.4725 45.5815 80.4742 44.9016C80.4917 44.9015 80.5046 44.8976 80.5215 44.8971C81.3687 44.8718 81.504 44.2748 81.6741 43.5729C82.0216 42.1393 81.5465 40.6993 81.7719 39.2965C82.1503 36.9412 81.9738 34.5815 81.8563 32.2439C81.7073 29.2846 81.0282 26.3779 80.5038 23.455C79.7304 19.5621 78.4838 15.7783 76.7919 12.1879C74.9082 7.8671 72.4138 3.83919 69.3851 0.227444C68.5878 0.160993 67.7866 0.108941 66.9814 0.0712891C67.1982 0.419173 67.4556 0.740022 67.7482 1.02707Z" fill="#8990F3"/>
<path d="M62.2549 1.31363C65.8611 4.79821 68.8466 8.87229 71.0831 13.3607C72.9826 17.3049 74.4035 21.4622 75.3155 25.744C75.9519 28.406 76.3337 31.1225 76.4558 33.8568C76.5611 37.3364 76.7521 40.8398 76.16 44.3086C77.3598 44.4373 78.2088 44.2194 77.8002 42.6971C77.7911 42.5046 77.814 42.312 77.8681 42.1272C78.0951 39.9794 78.04 37.8033 78.0619 35.6647C78.0533 33.5641 77.8407 31.4693 77.4271 29.4098C76.873 26.4648 76.5039 23.4904 75.5315 20.6399C74.7278 18.2844 74.1147 15.8237 72.9929 13.626C71.1728 9.97896 68.9658 6.5382 66.41 3.36301C65.5203 2.2769 64.2991 1.39877 63.8073 0.00244141C63.0026 0.00483841 62.2022 0.0249397 61.4048 0.0567479C61.5396 0.558987 61.839 1.00152 62.2549 1.31363Z" fill="#7A94F5"/>
<path d="M94.352 9.38906C94.79 10.436 95.152 11.5131 95.4351 12.6121C96.729 16.4971 97.013 20.5629 97.8644 24.521C98.6402 28.1278 98.5225 31.7537 98.4935 35.4032C98.47 38.3559 98.8434 41.3984 98.223 44.2342C97.3157 48.3814 97.1281 52.6374 95.8816 56.7404C94.6277 60.8676 93.47 65.018 91.8922 69.0375C91.7367 69.4336 91.7819 70.1198 90.998 69.785C90.9304 69.7544 90.871 69.7206 90.8102 69.6874C90.7771 69.7367 90.7487 69.7881 90.7143 69.8367C90.4923 71.1814 90.5665 72.4666 91.453 73.5928C91.4622 73.5929 91.4689 73.5903 91.4779 73.5903C91.4882 73.5767 91.4967 73.5629 91.5073 73.5493C94.1718 68.3559 96.1478 62.8372 97.3854 57.1328C97.8397 54.9243 98.6095 52.7972 98.8683 50.5365C99.2249 47.4225 100.146 44.3195 100.095 41.2239C99.9997 35.5003 100.468 29.7741 99.4443 24.0299C98.6442 19.5391 97.5719 15.1198 96.7218 10.6493C96.5865 9.93786 95.794 9.40245 96.063 8.60247C95.3782 8.20521 94.6851 7.82096 93.9839 7.44971C93.5858 8.15659 94.0636 8.81099 94.352 9.38906Z" fill="#D27FEC"/>
<path d="M90.0766 6.84094C91.0592 9.53034 91.9084 12.2644 92.7958 14.9797C93.9379 18.474 94.4368 22.0713 95.0396 25.613C95.7741 29.9276 95.6776 34.383 95.5214 38.7949C95.4504 40.8011 95.1355 42.7743 94.9953 44.7662C94.7972 47.5793 94.1362 50.3105 93.7073 53.081C93.2566 55.9924 92.2687 58.7363 91.523 61.5547C91.1811 62.847 90.7299 64.111 90.3105 65.382C90.2351 65.6392 90.0831 65.8673 89.8748 66.0359C89.6664 66.2046 89.4117 66.3057 89.1444 66.3258C89.1055 66.3307 89.0729 66.3282 89.0366 66.33C88.9799 67.2797 89.3355 67.9479 90.2484 68.2368C90.273 68.174 90.3009 68.1125 90.3319 68.0526C91.4066 66.8663 91.7904 65.3476 92.388 63.9183C93.6497 60.9012 93.8145 57.58 95.103 54.566C95.5048 53.6262 95.4648 52.4995 95.64 51.4605C96.3391 47.3145 97.2186 43.1527 97.1565 38.9591C97.0807 33.8382 97.3031 28.6612 96.3518 23.6045C95.8665 21.025 95.5156 18.3923 94.7079 15.8749C93.8581 13.2261 93.4076 10.4583 92.2771 7.88977C92.0085 7.44741 91.8944 6.92838 91.9527 6.41414C91.2721 6.08316 90.5847 5.76444 89.8904 5.45801C89.6364 5.92468 89.9135 6.39428 90.0766 6.84094Z" fill="#C582ED"/>
<path d="M92.2771 7.8902C93.4076 10.4587 93.8581 13.2265 94.7079 15.8753C95.5156 18.3928 95.8665 21.0254 96.3518 23.6049C97.3031 28.6616 97.0808 33.8386 97.1565 38.9595C97.2186 43.1532 96.3391 47.315 95.64 51.461C95.4648 52.4999 95.5049 53.6266 95.1031 54.5664C93.8146 57.5804 93.6497 60.9017 92.3881 63.9188C91.7904 65.348 91.4067 66.8668 90.3319 68.053C90.3009 68.1129 90.273 68.1744 90.2484 68.2373C90.1796 68.3677 90.1396 68.5113 90.1311 68.6585C90.1226 68.8057 90.1457 68.953 90.199 69.0905C90.2522 69.2279 90.3344 69.3524 90.4398 69.4554C90.5453 69.5585 90.6716 69.6377 90.8103 69.6877C90.871 69.721 90.9304 69.7547 90.998 69.7853C91.782 70.1202 91.7367 69.4339 91.8923 69.0378C93.47 65.0184 94.6278 60.868 95.8816 56.7407C97.1281 52.6377 97.3157 48.3817 98.223 44.2345C98.8434 41.3988 98.4701 38.3563 98.4936 35.4036C98.5226 31.754 98.6403 28.1282 97.8644 24.5213C97.013 20.5632 96.729 16.4974 95.4351 12.6124C95.152 11.5134 94.7901 10.4363 94.352 9.38939C94.0636 8.81132 93.5858 8.15692 93.9839 7.45002C93.3135 7.09374 92.6364 6.74858 91.9527 6.41455C91.8944 6.92879 92.0085 7.44783 92.2771 7.8902Z" fill="#CC80EC"/>
<path d="M87.9043 5.24155C89.9953 9.13507 90.8176 13.4701 92.1198 17.6273C92.8267 19.8841 92.7117 22.3886 93.3205 24.688C94.2549 28.2164 93.9261 31.805 94.0283 35.3446C94.1842 40.6213 93.7102 45.8978 92.6163 51.0623C92.225 53.1635 91.6935 55.2361 91.0253 57.2663C90.9832 56.8845 90.9412 56.5027 90.8992 56.1209L90.8943 56.1129C90.8496 56.115 90.8049 56.1132 90.7606 56.1073C89.7364 56.9139 89.8573 58.1624 89.5669 59.2517C89.6086 59.4827 89.6246 59.7175 89.6147 59.952C89.7608 59.7412 89.9021 59.5249 90.0346 59.2987C90.2584 61.5896 88.8743 63.4288 88.2922 65.4935L88.0231 65.3338C88.0226 65.3478 88.0203 65.3612 88.0199 65.3753C88.1498 65.941 88.4008 66.3623 89.0366 66.3301C89.0729 66.3283 89.1055 66.3308 89.1445 66.3259C89.4117 66.3058 89.6665 66.2046 89.8748 66.036C90.0831 65.8674 90.2351 65.6393 90.3105 65.3821C90.73 64.1111 91.1811 62.8471 91.523 61.5547C92.2687 58.7364 93.2566 55.9925 93.7073 53.0811C94.1362 50.3106 94.7973 47.5794 94.9953 44.7663C95.1355 42.7744 95.4504 40.8012 95.5214 38.7949C95.6776 34.3831 95.7741 29.9277 95.0397 25.6131C94.4368 22.0714 93.9379 18.4741 92.7959 14.9797C91.9084 12.2645 91.0592 9.53043 90.0766 6.84102C89.9135 6.39437 89.6364 5.92474 89.8904 5.4581C89.168 5.13811 88.439 4.83079 87.7033 4.53613C87.5323 4.74649 87.7913 5.03105 87.9043 5.24155Z" fill="#BF83ED"/>
<path d="M85.9562 4.5395C88.1797 9.40759 89.8968 14.4914 91.0805 19.7107C91.8237 23.0626 92.2945 26.4692 92.4883 29.897C92.7211 33.0436 92.7447 36.2021 92.559 39.3517C92.4041 41.8175 92.4218 44.3185 92.0411 46.7629C91.7557 48.5968 92.2087 50.6918 90.5365 52.1551C90.4507 52.1288 90.3675 52.0946 90.288 52.0529C90.2653 52.0896 90.2492 52.1281 90.2255 52.1645C90.0023 53.5564 90.0597 54.9006 90.894 56.1132L90.8989 56.1212C90.9409 56.503 90.983 56.8848 91.025 57.2667C91.6932 55.2365 92.2247 53.1638 92.616 51.0626C93.71 45.8982 94.184 40.6217 94.028 35.345C93.9259 31.8053 94.2546 28.2168 93.3203 24.6883C92.7114 22.389 92.8265 19.8844 92.1196 17.6277C90.8174 13.4704 89.995 9.13541 87.9041 5.24189C87.791 5.03139 87.532 4.74683 87.703 4.53648C87.0178 4.26307 86.3267 4.00156 85.6298 3.75195C85.6048 4.04615 85.8383 4.28628 85.9562 4.5395Z" fill="#B984EE"/>
<path d="M85.1356 5.80767C85.7317 6.22689 86.173 6.83096 86.391 7.52632C87.8006 11.6873 89.6617 15.7352 90.2743 20.1122C90.9354 24.8356 91.9074 29.5005 91.9296 34.3469C91.9453 37.7772 91.6209 41.186 91.5486 44.6001C91.4973 46.7049 90.9971 48.7744 90.0813 50.6702C90.0001 50.5293 89.9188 50.3883 89.8374 50.2473C89.8125 50.3624 89.7859 50.4771 89.762 50.5925C89.7048 51.1949 89.7236 51.7585 90.2883 52.0526C90.3678 52.0942 90.451 52.1284 90.5368 52.1547C92.209 50.6914 91.756 48.5964 92.0414 46.7626C92.422 44.3181 92.4044 41.8172 92.5593 39.3514C92.745 36.2017 92.7214 33.0432 92.4886 29.8967C92.2948 26.4688 91.824 23.0623 91.0807 19.7104C89.8971 14.491 88.18 9.40724 85.9565 4.53915C85.8386 4.28593 85.6051 4.04579 85.6301 3.75158C85.0541 3.54471 84.4741 3.34627 83.8902 3.15625C83.549 4.3422 84.6939 4.93449 85.1356 5.80767Z" fill="#B485EF"/>
<path d="M84.4417 8.29057C85.4119 10.7925 86.3552 13.3078 87.1189 15.8923C88.3038 19.9016 88.8872 24.0068 89.5442 28.1192C90.4153 33.5721 89.9057 39.0074 89.6766 44.4406C89.6226 45.7182 89.4453 47.2226 88.5619 48.3916C88.4994 48.3337 88.4369 48.2757 88.3744 48.2178C88.3652 48.2561 88.3576 48.2945 88.3484 48.3327C88.3534 48.6797 88.4652 49.0166 88.6686 49.2977C88.8721 49.5788 89.1573 49.7903 89.4853 49.9035C89.5392 49.9119 89.5936 49.9173 89.6481 49.9196C89.5741 49.7912 89.5001 49.6628 89.426 49.5344C90.2271 49.7976 90.2903 49.2891 90.3519 48.6973C90.4909 47.3633 90.7406 46.0377 90.8207 44.7012C91.0733 40.4914 92.0762 36.2672 91.3987 32.0768C90.7713 28.1959 90.881 24.2062 89.7732 20.418C88.5679 16.2964 87.8195 12.0223 85.8027 8.15427C85.4028 7.43387 85.1745 6.63096 85.1355 5.80795C84.6938 4.93476 83.5489 4.34247 83.89 3.15652C83.1678 2.92051 82.4409 2.69465 81.7075 2.48389C82.2664 4.58697 83.6697 6.29993 84.4417 8.29057Z" fill="#AE87EF"/>
<path d="M102.945 16.1912C103.617 18.6947 104.03 21.261 104.175 23.8491C104.503 27.6136 104.905 31.3903 104.813 35.1793C104.631 42.7333 103.936 50.2393 102.066 57.579C100.433 64.1847 98.1581 70.6149 95.2736 76.7779C93.2435 81.0661 90.904 85.2008 88.2737 89.1494C85.8318 92.8363 83.1017 96.3239 80.1091 99.5796C77.2022 102.768 74.0997 105.773 70.8195 108.577C65.5144 113.02 59.6584 116.761 53.3965 119.707C50.4076 121.122 47.4419 122.562 44.2042 123.34C43.5775 123.49 42.995 123.74 42.8848 124.413C57.3066 129.451 73.0548 129.165 87.2836 123.605C101.512 118.045 113.283 107.579 120.469 94.0986C127.655 80.6178 129.782 65.0112 126.466 50.0991C123.149 35.187 114.608 21.953 102.386 12.7886C102.001 13.9935 102.635 15.1594 102.945 16.1912Z" fill="#ED7AEA"/>
<path d="M100.565 12.4931C101.301 15.3688 102.079 18.2273 102.391 21.1978C102.727 24.3896 103.583 27.5814 103.482 30.7501C103.363 34.4817 103.874 38.2535 103.216 41.9371C102.585 45.4708 102.644 49.0987 101.831 52.5689C100.686 57.4571 99.5158 62.346 97.7437 67.081C96.2962 71.0435 94.6117 74.9154 92.6993 78.6757C92.3278 79.3925 91.9068 80.0838 91.5086 80.7868C91.4074 80.6443 91.3141 80.4964 91.2291 80.3436C91.201 80.3976 91.1735 80.4519 91.1453 80.5059C90.9407 81.2733 90.983 82.1579 90.1412 82.6179C90.1063 82.6773 90.064 82.7308 90.0257 82.7874L90.3486 82.7874C88.9127 85.9566 86.7863 88.6985 84.7987 91.5087C82.2858 95.0313 79.505 98.3549 76.481 101.45C73.3965 104.615 70.0622 107.527 66.5106 110.157C63.5332 112.349 60.4169 114.347 57.1812 116.136C52.5994 118.701 47.7057 120.514 42.8057 122.323C42.1627 122.522 41.5041 122.666 40.8369 122.755C40.3985 122.837 40.1012 122.988 40.1872 123.403C41.0765 123.759 41.9756 124.096 42.8846 124.413C42.9948 123.74 43.5774 123.49 44.204 123.34C47.4418 122.562 50.4075 121.122 53.3963 119.707C59.6583 116.761 65.5143 113.02 70.8194 108.576C74.0996 105.773 77.2021 102.768 80.1089 99.5794C83.1016 96.3237 85.8316 92.8361 88.2736 89.1493C90.9039 85.2007 93.2433 81.0659 95.2734 76.7777C98.1579 70.6148 100.433 64.1846 102.066 57.5789C103.936 50.2391 104.631 42.7331 104.813 35.1791C104.904 31.3901 104.503 27.6134 104.175 23.849C104.03 21.2608 103.617 18.6945 102.945 16.191C102.635 15.1592 102.001 13.9933 102.386 12.7884C101.772 12.3277 101.15 11.8787 100.518 11.4414C100.176 11.7323 100.486 12.1809 100.565 12.4931Z" fill="#E67CEB"/>
<path d="M96.7216 10.6494C97.5718 15.1199 98.644 19.5391 99.4441 24.03C100.468 29.7742 99.9995 35.5003 100.094 41.224C100.146 44.3196 99.2247 47.4226 98.8681 50.5366C98.6093 52.7973 97.8395 54.9244 97.3852 57.1329C96.1476 62.8372 94.1716 68.3559 91.5071 73.5494C91.4965 73.563 91.488 73.5767 91.4777 73.5904C90.5307 74.8418 90.7601 76.1572 91.2954 77.4892C91.3768 77.5102 91.4597 77.5254 91.5433 77.5348C93.9117 73.1396 95.8427 68.5224 97.3083 63.7497C98.9677 58.6065 100.198 53.3347 100.988 47.9884C101.827 42.6061 102.132 37.1541 101.899 31.7117C101.589 26.2598 100.886 20.8373 99.7938 15.4868C99.5098 14.0648 98.9944 12.6436 98.6495 11.203C98.5043 10.8637 98.4736 10.4864 98.5618 10.128C97.7417 9.60069 96.9087 9.09219 96.0628 8.60254C95.7938 9.40252 96.5863 9.93795 96.7216 10.6494Z" fill="#D97EEC"/>
<path d="M98.6494 11.2029C98.9943 12.6435 99.5097 14.0647 99.7938 15.4867C100.886 20.8372 101.589 26.2596 101.899 31.7116C102.132 37.1539 101.826 42.6059 100.988 47.9883C100.198 53.3346 98.9677 58.6064 97.3083 63.7496C95.8426 68.5223 93.9116 73.1395 91.5432 77.5347C91.5309 77.557 91.5195 77.5798 91.5071 77.6022C90.7943 78.6125 90.7028 79.3943 91.2289 80.3434C91.3139 80.4961 91.4072 80.6441 91.5084 80.7865C91.9066 80.0835 92.3276 79.3923 92.6991 78.6754C94.6115 74.9151 96.296 71.0433 97.7435 67.0807C99.5155 62.3458 100.686 57.4568 101.831 52.5687C102.643 49.0984 102.585 45.4706 103.216 41.9369C103.874 38.2533 103.363 34.4815 103.482 30.7498C103.582 27.5812 102.727 24.3893 102.391 21.1976C102.079 18.2271 101.301 15.3686 100.565 12.4928C100.485 12.1807 100.175 11.7321 100.518 11.4412C99.8735 10.9927 99.2229 10.553 98.5618 10.1279C98.4735 10.4863 98.5043 10.8636 98.6494 11.2029Z" fill="#E17DEB"/>
<path d="M13.0297 97.3944C14.8723 98.0801 16.7988 98.5142 18.7574 98.685C24.1841 99.2903 29.6367 99.385 34.9755 98.1368C39.6472 97.0383 44.1427 95.2929 48.3317 92.9511C52.2017 90.819 55.8172 88.2543 59.1085 85.3064C61.9997 82.71 64.6193 79.8262 66.9268 76.6996C68.4948 74.5744 70.9728 69.8768 72.1047 67.4708L72.1048 67.4708C71.4299 67.4707 70.755 67.4707 70.0802 67.4707C68.1681 71.3554 65.8813 75.0442 63.2524 78.4845C60.3743 81.9572 57.0492 85.0337 53.3639 87.634C50.8149 89.4349 48.113 91.0088 45.2891 92.3377C42.416 93.7726 39.3931 94.8853 36.2754 95.6557C33.2807 96.3555 30.2505 96.8934 27.1979 97.267C27.1024 97.2814 27.0056 97.2858 26.9092 97.2801C20.735 96.7297 14.4735 96.6306 8.75922 93.719C8.23887 93.4375 7.66254 93.2749 7.07178 93.243C7.62708 94.3216 8.21265 95.3814 8.82851 96.4225C10.2804 96.4576 11.7099 96.7884 13.0297 97.3944Z" fill="#8192F4"/>
<path d="M70.1457 67.1651C70.1246 67.1821 70.1058 67.201 70.085 67.2183C70.6929 67.2187 71.3008 67.2191 71.9086 67.2196C71.3453 66.9967 70.7218 66.9774 70.1457 67.1651Z" fill="#8192F4"/>
<path d="M74.042 67.2191C73.7883 67.1044 73.5138 67.0429 73.2354 67.0384C72.957 67.0338 72.6806 67.0864 72.4233 67.1929C73.0113 67.0858 73.6181 67.178 74.1477 67.4549L74.1494 67.4468C74.1751 67.4257 74.2004 67.4107 74.2258 67.3931C74.1742 67.3257 74.1122 67.2669 74.042 67.2191Z" fill="#8890F3"/>
<path d="M12.4425 99.2129C14.855 100.147 17.4072 100.67 19.9928 100.759C22.023 100.816 24.0564 101.189 26.1147 100.858C27.0322 100.711 28.0776 101.22 28.956 100.998C31.2904 100.41 33.748 100.505 36.0194 99.7599C38.6577 98.8946 41.3671 98.2687 43.9306 97.1218C46.7296 95.8648 49.4564 94.4526 52.0981 92.8919C55.9504 90.5301 59.4918 87.6954 62.6399 84.4539C66.1805 80.993 69.2203 77.0546 71.6714 72.7528C72.1827 71.8398 73.9783 68.5882 74.1475 67.457L72.1084 67.4674L72.105 67.471H72.1049L72.1049 67.471C70.9729 69.8771 68.4949 74.5747 66.9269 76.6998C64.6194 79.8264 61.9998 82.7102 59.1086 85.3066C55.8172 88.2545 52.2018 90.8192 48.3317 92.9513C44.1428 95.2931 39.6473 97.0386 34.9756 98.137C29.6367 99.3852 24.1842 99.2905 18.7574 98.6852C16.7989 98.5144 14.8723 98.0803 13.0298 97.3946C11.71 96.7886 10.2805 96.4579 8.82861 96.4227C9.37754 97.3545 9.94911 98.2709 10.5433 99.1719C11.1407 98.4542 11.9106 99.011 12.4425 99.2129Z" fill="#8890F3"/>
<path d="M13.2245 100.975C16.4499 101.709 19.5888 102.696 23.041 102.36C24.9715 102.173 27.0138 102.42 29 102.272C31.0444 102.118 33.1098 102.033 35.0935 101.456C38.1739 100.56 41.2447 99.631 44.3059 98.6691C46.0048 98.1357 47.4106 97.0008 48.9917 96.2109C51.3253 94.9927 53.5782 93.6257 55.7364 92.1183C57.1891 91.1088 58.5691 89.9983 59.866 88.7951C63.0565 86.0255 65.9586 82.9403 68.528 79.5865C70.4474 76.9883 73.0733 71.6993 74.7107 68.9263C74.924 68.565 75.2791 68.2345 75.0043 67.7495C75.0861 67.6998 75.175 67.663 75.268 67.6404C75.252 67.5947 75.2307 67.5511 75.2045 67.5105C75.0861 67.3712 74.9195 67.2818 74.738 67.26C74.5565 67.2383 74.3735 67.2859 74.2256 67.3932C74.2002 67.4108 74.1749 67.4258 74.1492 67.4469L74.1475 67.455L74.1514 67.4571L74.1471 67.4571C73.978 68.5883 72.1823 71.8398 71.6711 72.7528C69.22 77.0546 66.1801 80.9931 62.6395 84.454C59.4914 87.6955 55.95 90.5302 52.0977 92.892C49.456 94.4527 46.7292 95.8649 43.9302 97.1219C41.3668 98.2688 38.6574 98.8947 36.019 99.76C33.7476 100.505 31.29 100.41 28.9556 100.998C28.0772 101.22 27.0318 100.711 26.1144 100.858C24.056 101.189 22.0227 100.816 19.9924 100.759C17.4068 100.67 14.8546 100.147 12.4421 99.2129C11.9102 99.0111 11.1403 98.4543 10.543 99.1719C11.0017 99.8677 11.473 100.554 11.9568 101.231C12.2702 100.777 12.6793 100.851 13.2245 100.975Z" fill="#8F8EF2"/>
<path d="M13.9493 102.436C15.9685 102.805 17.9498 103.352 20.0249 103.463C23.1266 103.694 26.2411 103.695 29.3429 103.466C34.269 102.981 39.1006 101.796 43.6915 99.9452C47.0054 98.6732 50.1794 97.0631 53.1632 95.1405C57.378 92.446 61.2562 89.2583 64.7157 85.645C67.9768 82.1434 71.1405 78.5173 73.4164 74.2361C73.8062 73.5722 74.2499 72.9415 74.7431 72.3503C75.0627 71.9338 76.055 68.9055 75.868 68.4074C76.0889 68.3597 76.2001 68.5374 76.2466 68.8355C76.2782 68.6191 76.2537 68.3983 76.1755 68.1941C75.9277 67.8651 75.6798 67.5387 75.2682 67.6405C75.1753 67.6631 75.0863 67.6999 75.0046 67.7496C75.2794 68.2346 74.9243 68.5651 74.711 68.9264C73.0736 71.6995 70.4477 76.9884 68.5283 79.5867C65.9589 82.9404 63.0568 86.0257 59.8663 88.7953C58.5694 89.9984 57.1894 91.1089 55.7366 92.1184C53.5785 93.6258 51.3256 94.9928 48.992 96.211C47.4109 97.0009 46.0051 98.1358 44.3062 98.6692C41.2454 99.6304 38.1746 100.559 35.0937 101.456C33.1101 102.033 31.0447 102.118 29.0003 102.272C27.014 102.421 24.9718 102.173 23.0412 102.361C19.5891 102.696 16.4502 101.709 13.2248 100.976C12.6795 100.852 12.2705 100.777 11.957 101.232C12.3213 101.74 12.6932 102.242 13.0729 102.738C13.1613 102.384 13.4491 102.345 13.9493 102.436Z" fill="#928DF2"/>
<path d="M14.9103 103.456C16.7933 103.8 18.7099 103.87 20.5772 104.417C21.9348 104.815 23.4066 104.382 24.8407 104.432C27.3849 104.531 29.9322 104.351 32.4374 103.896C36.1375 103.191 39.7813 102.216 43.3395 100.981C47.2572 99.6337 50.6795 97.4661 54.1277 95.396C57.21 93.5373 60.0565 91.3129 62.6051 88.7711C64.6136 86.7732 66.4944 84.6692 68.43 82.6095C70.5444 80.3598 72.1091 77.7402 73.7709 75.1775C74.289 74.3784 74.7417 73.5117 75.581 72.97C75.5961 72.6495 75.6111 72.3291 75.6263 72.0087C75.7723 72.1345 75.8997 72.2806 76.0045 72.4424C76.0174 72.306 76.0276 72.1692 76.0474 72.0342C75.9615 71.6019 76.3816 69.7025 76.2465 68.8352C76.2 68.5371 76.0888 68.3594 75.8678 68.4071C76.0549 68.9052 75.0625 71.9335 74.743 72.35C74.2498 72.9412 73.806 73.5719 73.4163 74.2358C71.1404 78.517 67.9767 82.1431 64.7156 85.6447C61.256 89.258 57.3778 92.4457 53.1631 95.1402C50.1793 97.0628 47.0053 98.6729 43.6914 99.9449C39.1004 101.795 34.2688 102.981 29.3428 103.466C26.241 103.695 23.1264 103.694 20.0248 103.463C17.9496 103.352 15.9683 102.805 13.9492 102.436C13.4489 102.344 13.1611 102.383 13.0728 102.738C13.3581 103.112 13.6473 103.483 13.9403 103.852C14.097 103.39 14.4633 103.375 14.9103 103.456Z" fill="#978CF2"/>
<path d="M19.613 108.88C26.4436 109.313 33.1775 108.914 39.7815 106.895C47.003 104.676 53.7816 101.213 59.8121 96.662C66.0705 91.9792 71.2382 86.2418 75.6739 79.828C75.7363 79.7547 75.8061 79.688 75.8822 79.629C75.9631 79.6949 76.0367 79.7692 76.1019 79.8507C76.1802 79.7116 76.2644 79.5768 76.3406 79.4363C76.4837 78.5428 76.6306 77.6497 76.0767 76.8254C76.0124 76.7922 75.9453 76.7647 75.8761 76.7432C73.7232 79.9736 71.3677 83.0642 68.8236 85.9965C66.2979 88.8859 63.5226 91.5472 60.53 93.9497C57.1148 96.8 53.3021 99.0094 49.4615 101.185C46.718 102.67 43.8212 103.853 40.8222 104.713C34.6965 106.594 28.4188 107.709 21.9658 107.408C20.5323 107.341 19.1029 107.149 17.6771 106.971C17.2912 106.923 16.9199 106.806 16.6875 107.078C17.3144 107.766 17.9561 108.44 18.6128 109.099C18.9044 108.897 19.2638 108.819 19.613 108.88Z" fill="#A489F0"/>
<path d="M21.1277 110.432C24.5031 110.815 27.9159 110.715 31.2629 110.134C34.2729 109.61 37.4272 109.331 40.3267 107.964C41.8449 107.248 43.5949 106.947 45.2233 106.359C47.9613 105.306 50.6099 104.034 53.1431 102.555C57.1044 100.291 60.8259 97.6321 64.2508 94.6178C68.7028 90.7952 72.3964 86.3266 75.882 81.6549C75.969 81.71 76.0481 81.7768 76.1169 81.8534C76.1864 81.7215 76.2607 81.593 76.3265 81.4584C76.4098 81.1904 76.4328 80.9074 76.394 80.6294C76.3552 80.3515 76.2554 80.0855 76.1019 79.8506C76.0367 79.7691 75.9631 79.6948 75.8822 79.6289C75.8061 79.6879 75.7363 79.7546 75.6739 79.828C71.2381 86.2418 66.0705 91.9792 59.8121 96.6619C53.7816 101.213 47.003 104.675 39.7815 106.895C33.1775 108.914 26.4436 109.313 19.613 108.88C19.2638 108.819 18.9044 108.897 18.6128 109.099C19.1702 109.66 19.7383 110.21 20.3172 110.749C20.4429 110.401 20.7214 110.385 21.1277 110.432Z" fill="#AB87F0"/>
<path d="M22.6129 111.768C25.2077 111.892 27.8084 111.754 30.3756 111.357C32.7411 111.018 35.1349 110.821 37.4433 110.141C40.6078 109.208 43.8246 108.411 46.8229 107.006C52.1308 104.519 57.3387 101.872 61.7978 97.9486C63.2305 96.688 64.8032 95.574 66.2569 94.3214C69.101 91.8199 71.6566 89.0084 73.8761 85.9391C74.6475 84.8965 75.4034 83.8423 76.1663 82.7935L76.4326 82.7927C76.4444 82.4516 76.3321 82.1179 76.1166 81.8532C76.0478 81.7766 75.9687 81.7099 75.8817 81.6548C72.3961 86.3265 68.7025 90.795 64.2505 94.6176C60.8256 97.6319 57.1041 100.291 53.1429 102.555C50.6096 104.034 47.961 105.306 45.223 106.358C43.5946 106.947 41.8446 107.248 40.3264 107.964C37.4269 109.331 34.2726 109.61 31.2626 110.134C27.9156 110.714 24.5029 110.815 21.1275 110.432C20.7211 110.385 20.4427 110.401 20.3169 110.749C20.9324 111.324 21.5583 111.888 22.1948 112.44C21.9919 112.089 21.7627 111.718 22.6129 111.768Z" fill="#AF86EF"/>
<path d="M17.6769 106.971C19.1027 107.149 20.5321 107.341 21.9657 107.408C28.4187 107.709 34.6964 106.594 40.8221 104.712C43.8211 103.853 46.7179 102.67 49.4613 101.185C53.3019 99.0093 57.1147 96.8 60.5299 93.9497C63.5225 91.5471 66.2977 88.8858 68.8235 85.9964C71.3675 83.0642 73.7231 79.9735 75.876 76.7431L75.8823 76.7337C76.285 76.0949 76.5088 75.3597 76.5303 74.6048C76.5518 73.85 76.3703 73.1032 76.0046 72.4425C75.8998 72.2807 75.7724 72.1346 75.6264 72.0088C75.6113 72.3292 75.5962 72.6497 75.5811 72.9701C75.6117 73.5988 75.4094 74.2166 75.0128 74.7054C72.9154 78.1541 70.5253 81.4161 67.8691 84.4554C64.2272 88.5197 60.1319 92.1538 55.6633 95.2866C50.6147 98.7994 45.0343 101.478 39.1355 103.22C34.1871 104.671 29.0676 105.721 23.8661 105.326C21.1035 105.116 18.2766 105.418 15.5649 104.578C15.4099 104.524 15.2446 104.509 15.0824 104.531C14.9201 104.554 14.7656 104.615 14.6313 104.709C15.2974 105.516 15.9827 106.305 16.6873 107.078C16.9198 106.806 17.291 106.923 17.6769 106.971Z" fill="#9D8BF1"/>
<path d="M15.5649 104.578C18.2766 105.418 21.1035 105.116 23.8662 105.326C29.0676 105.721 34.1871 104.671 39.1355 103.22C45.0343 101.478 50.6147 98.7996 55.6634 95.2867C60.1319 92.1539 64.2272 88.5198 67.8691 84.4555C70.5253 81.4162 72.9154 78.1542 75.0128 74.7055C75.4094 74.2167 75.6117 73.5989 75.5811 72.9702C74.7418 73.5119 74.2891 74.3786 73.771 75.1777C72.1092 77.7404 70.5445 80.36 68.4302 82.6098C66.4945 84.6694 64.6137 86.7734 62.6053 88.7714C60.0566 91.3131 57.2101 93.5375 54.1277 95.3962C50.6795 97.4664 47.2573 99.6339 43.3396 100.981C39.7814 102.217 36.1376 103.191 32.4374 103.896C29.9323 104.351 27.385 104.531 24.8408 104.432C23.4067 104.382 21.9349 104.815 20.5772 104.417C18.71 103.87 16.7934 103.801 14.9104 103.456C14.4634 103.375 14.0971 103.39 13.9404 103.852C14.1693 104.139 14.3978 104.426 14.6314 104.709C14.7656 104.615 14.9202 104.554 15.0824 104.532C15.2446 104.509 15.4099 104.525 15.5649 104.578Z" fill="#988CF1"/>
<path d="M9.21873 92.4199C15.4049 95.0526 21.8733 95.9025 28.5209 95.5263C31.5392 95.3166 34.5269 94.7882 37.434 93.9501C42.7963 92.4115 47.8582 89.9732 52.4038 86.7392C58.2031 82.7356 62.7717 77.5051 66.7463 71.7352C67.0311 71.3217 68.4008 68.2029 68.0943 67.7096C67.792 67.223 66.2453 68.6956 65.7362 68.6294L65.7362 68.6294C64.4022 71.202 62.5732 74.8667 60.6654 77.0143C56.4519 81.7576 51.6496 85.8267 45.9801 88.6891C42.5386 90.4888 38.8867 91.8536 35.1084 92.7521C31.4114 93.5527 27.6304 93.8982 23.8495 93.781C18.9451 93.6504 14.115 92.5517 9.63661 90.5482C8.02156 89.8408 6.52741 88.8619 4.81885 88.3672C5.17746 89.2369 5.55457 90.0967 5.95017 90.9467C7.16793 91.1395 8.1186 91.9517 9.21873 92.4199Z" fill="#7895F5"/>
<path d="M8.75896 93.719C14.4733 96.6306 20.7347 96.7297 26.9089 97.2801C27.0054 97.2858 27.1022 97.2813 27.1977 97.2669C30.2503 96.8934 33.2805 96.3555 36.2751 95.6556C39.3928 94.8853 42.4158 93.7726 45.2889 92.3377C48.1127 91.0088 50.8147 89.4348 53.3637 87.634C57.049 85.0337 60.374 81.9572 63.2521 78.4845C65.8811 75.0442 68.1678 71.3554 70.0799 67.4707C69.5945 67.4322 69.075 67.5849 68.648 67.2167C69.0361 67.217 69.4242 67.2173 69.8122 67.2176C69.406 66.9391 68.9483 66.7443 68.466 66.6445C67.136 66.7119 64.8459 67.2574 63.6569 68.3455C63.6621 68.3561 63.6676 68.3646 63.6728 68.375C63.6909 68.3752 63.7089 68.3767 63.727 68.3767C64.3522 68.8161 65.0655 68.5531 65.7362 68.629L65.7362 68.629L65.7362 68.629C66.2453 68.6952 67.792 67.2226 68.0943 67.7092C68.4008 68.2025 67.0311 71.3213 66.7463 71.7347C62.7717 77.5047 58.2031 82.7352 52.4038 86.7388C47.8582 89.9728 42.7963 92.411 37.434 93.9496C34.5269 94.7878 31.5392 95.3162 28.5209 95.5259C21.8733 95.9021 15.405 95.0522 9.21875 92.4195C8.11862 91.9513 7.16795 91.1391 5.9502 90.9463C6.30998 91.7199 6.68375 92.4855 7.07151 93.243C7.66228 93.2749 8.23861 93.4375 8.75896 93.719Z" fill="#7C94F5"/>
<path d="M60.071 1.14257C62.8155 3.61328 65.2243 6.43297 67.236 9.52963C69.4426 12.9045 71.2157 16.5437 72.5133 20.3614C73.5878 23.3574 74.0834 26.4531 74.7003 29.5336C75.6814 34.4337 75.3221 39.3741 75.002 44.3078C75.388 44.308 75.774 44.3082 76.1601 44.3085V44.3085C76.7522 40.8397 76.5612 37.3363 76.456 33.8567C76.3339 31.1224 75.952 28.4059 75.3157 25.7439C74.4036 21.4621 72.9827 17.3048 71.0832 13.3605C68.8468 8.87218 65.8613 4.7981 62.2551 1.31351C61.8391 1.00141 61.5398 0.558875 61.405 0.0566406C60.7415 0.0831195 60.0805 0.11911 59.4221 0.164611C59.2374 0.536353 59.7381 0.853237 60.071 1.14257Z" fill="#7795F5"/>
<path d="M81.6875 5.22258C83.3545 8.66819 84.7812 12.225 85.9572 15.8675C86.939 19.1168 87.6689 22.4369 88.1406 25.7983C88.6647 29.2444 88.8701 32.7314 88.7541 36.2151C88.6702 38.8672 88.7093 41.5636 88.5765 44.2333C88.5201 45.3668 88.7317 46.6636 87.6507 47.547C87.7202 47.6114 87.7896 47.6757 87.859 47.7402C88.0309 47.8994 88.2027 48.0586 88.3743 48.2178C88.4368 48.2758 88.4993 48.3337 88.5618 48.3916C89.4453 47.2226 89.6226 45.7182 89.6765 44.4406C89.9057 39.0074 90.4153 33.5721 89.5442 28.1192C88.8872 24.0068 88.3038 19.9016 87.1188 15.8923C86.3552 13.3078 85.4119 10.7925 84.4416 8.29057C83.6696 6.29993 82.2664 4.58698 81.7075 2.48389C81.1051 2.31082 80.4994 2.1461 79.8901 1.98975C79.9136 2.12398 79.9678 2.25098 80.0484 2.36085C80.6051 3.3092 81.2172 4.23247 81.6875 5.22258Z" fill="#A988F0"/>
<path d="M54.9449 3.07892C58.1039 5.47165 60.8621 8.3517 63.1162 11.6111C64.8549 14.0645 66.3424 16.6865 67.5563 19.4377C68.3888 21.3701 69.0505 23.3718 69.5338 25.4196C70.2317 28.1469 70.7326 30.9209 71.0326 33.72C71.2541 36.1804 71.2754 38.6546 71.0964 41.1184C71.0178 41.7842 70.9728 42.4535 70.9617 43.1238C70.9904 43.9839 70.6749 44.4013 69.7895 44.3054V44.3055C69.403 44.3055 69.0166 44.3055 68.6301 44.3056C68.341 44.3054 68.052 44.3052 67.763 44.305C67.3766 44.305 66.9902 44.305 66.6038 44.3049V44.305C66.2184 44.305 65.8329 44.305 65.4474 44.305V44.305C65.1574 44.3049 64.8673 44.3049 64.5773 44.3048V44.3048C64.1918 44.305 63.8062 44.3051 63.4207 44.3053C63.1307 44.3054 62.8407 44.3055 62.5507 44.3056L61.1038 44.306V44.3061C60.718 44.3065 60.3322 44.307 59.9463 44.3075L58.4986 44.3089L56.472 44.3111L54.7343 44.3133L53.5772 44.3145C53.1912 44.3149 52.8052 44.3154 52.4193 44.316L52.4193 44.316C52.1295 44.3166 51.8398 44.3172 51.55 44.3178V44.3177L51.4066 44.3203L51.2631 44.3176L51.2631 44.3177L50.6807 44.5712C57.6372 44.5649 64.5937 44.5586 71.5503 44.5524C71.5592 44.5457 71.5685 44.5424 71.5775 44.5361C72.0984 44.1698 72.6997 44.3684 73.2642 44.3083C73.1687 40.9586 73.5344 37.6147 73.2836 34.258C72.9924 29.8685 72.1403 25.5343 70.7481 21.3612C69.4058 17.4037 67.5354 13.6456 65.1878 10.1884C62.949 6.82884 60.1725 3.86066 56.9696 1.40294C56.6416 1.15403 56.0359 0.941042 56.1664 0.478027C55.0145 0.618623 53.8721 0.788781 52.7392 0.988503C52.94 2.17037 54.1807 2.50255 54.9449 3.07892Z" fill="#6B99F7"/>
<path d="M56.9698 1.40268C60.1727 3.8604 62.9492 6.82858 65.188 10.1882C67.5356 13.6453 69.4059 17.4035 70.7482 21.3609C72.1404 25.534 72.9925 29.8682 73.2837 34.2577C73.5345 37.6145 73.1689 40.9584 73.2643 44.308C73.8435 44.3079 74.4227 44.3078 75.002 44.3077V44.3077C75.3221 39.374 75.6814 34.4336 74.7003 29.5336C74.0835 26.4531 73.5878 23.3574 72.5133 20.3614C71.2157 16.5437 69.4427 12.9045 67.236 9.52959C65.2243 6.43293 62.8155 3.61324 60.0711 1.14253C59.7381 0.853205 59.2374 0.536316 59.4221 0.164551C58.3291 0.241824 57.2439 0.346225 56.1666 0.477753C56.0361 0.940782 56.6418 1.15378 56.9698 1.40268Z" fill="#7198F6"/>
<path d="M84.7778 63.4073C86.0385 64.1557 87.0414 64.7512 88.023 65.3339L88.2921 65.4936C88.8742 63.429 90.2584 61.5898 90.0345 59.2988C89.902 59.525 89.7608 59.7413 89.6146 59.9521C88.4606 61.6385 86.7473 62.8624 84.7778 63.4073Z" fill="#B887EE"/>
<path d="M90.081 50.6702C90.9967 48.7744 91.497 46.7048 91.5482 44.6C91.6205 41.1859 91.945 37.7772 91.9292 34.3469C91.907 29.5005 90.935 24.8356 90.274 20.1121C89.6613 15.7352 87.8002 11.6872 86.3906 7.52627C86.1726 6.8309 85.7314 6.22683 85.1353 5.80762C85.1743 6.63063 85.4026 7.43355 85.8025 8.15394C87.8193 12.022 88.5677 16.296 89.773 20.4177C90.8808 24.2059 90.7711 28.1956 91.3985 32.0765C92.076 36.2669 91.0731 40.491 90.8205 44.7009C90.7404 46.0373 90.4907 47.3629 90.3517 48.6969C90.2901 49.2888 90.2269 49.7973 89.4258 49.5341C89.4999 49.6625 89.5739 49.7909 89.6479 49.9193C89.711 50.0286 89.774 50.1379 89.837 50.2472C89.9184 50.3882 89.9997 50.5292 90.081 50.6702Z" fill="#B385EF"/>
<path d="M40.8371 122.755C41.5043 122.666 42.1629 122.521 42.8059 122.322C47.7059 120.514 52.5996 118.701 57.1814 116.136C60.4171 114.346 63.5334 112.349 66.5108 110.157C70.0624 107.526 73.3966 104.615 76.4812 101.45C79.5052 98.3547 82.286 95.0311 84.7989 91.5084C86.7865 88.6982 88.9129 85.9563 90.3488 82.7871L90.0259 82.7872C89.5545 82.7873 89.0831 82.7873 88.6118 82.7874L88.6117 82.7875H88.6118C87.7444 84.8388 86.38 86.593 85.1338 88.4026C81.4415 93.7334 77.184 98.6496 72.4352 103.066C68.2562 106.889 63.7111 110.291 58.8655 113.224C53.3501 116.653 47.3945 118.994 41.2777 121.009C40.278 121.333 39.2489 121.558 38.2053 121.683C37.6587 121.75 37.4952 121.908 37.5845 122.293C38.4418 122.682 39.3095 123.052 40.1874 123.402C40.1014 122.988 40.3987 122.837 40.8371 122.755Z" fill="#E07DEB"/>
<path d="M72.1071 67.2193L71.9084 67.2192C71.3005 67.2188 70.6926 67.2183 70.0847 67.2179C69.9939 67.2178 69.9031 67.2177 69.8122 67.2176C69.4241 67.2174 69.036 67.2171 68.6479 67.2168C69.075 67.585 69.5944 67.4322 70.0798 67.4707C70.7547 67.4707 71.4296 67.4708 72.1045 67.4708H72.1045L72.108 67.4672C72.1072 67.3846 72.1069 67.302 72.1071 67.2193Z" fill="#8890F3"/>
<path d="M72.4235 67.1928C72.3182 67.2016 72.2127 67.2109 72.1075 67.2193V67.2194C72.1073 67.302 72.1076 67.3846 72.1084 67.4673L74.1474 67.4569L74.1518 67.4569L74.1479 67.4548C73.6183 67.178 73.0115 67.0858 72.4235 67.1928Z" fill="#8F8EF2"/>
<path d="M26.0848 113.287C28.4559 113.397 30.7199 112.728 33.0457 112.552C38.207 112.162 42.9531 110.188 47.6923 108.371C50.4452 107.316 53.0196 105.722 55.579 104.179C59.9784 101.516 64.0894 98.4036 67.8458 94.8917C71.5758 91.3686 74.9115 87.4503 77.7942 83.206C77.8528 83.0739 77.8883 82.9328 77.8992 82.7887H77.8993L77.8992 82.7886C77.4104 82.79 76.9216 82.7915 76.4328 82.793L76.1665 82.7938C75.4035 83.8426 74.6477 84.8968 73.8763 85.9394C71.6568 89.0087 69.1012 91.8202 66.2571 94.3217C64.8033 95.5743 63.2307 96.6883 61.798 97.9488C57.3389 101.872 52.131 104.519 46.8231 107.006C43.8248 108.411 40.608 109.209 37.4435 110.141C35.1351 110.821 32.7413 111.019 30.3758 111.357C27.8086 111.754 25.2079 111.892 22.6131 111.769C21.7629 111.719 21.9921 112.089 22.195 112.441C22.7205 112.895 23.2556 113.337 23.7959 113.774C24.4913 113.382 25.29 113.212 26.0848 113.287Z" fill="#B485EF"/>
<path d="M23.8496 93.7807C27.6304 93.8979 31.4114 93.5524 35.1084 92.7518C38.8867 91.8533 42.5387 90.4885 45.9802 88.6888C51.6497 85.8264 56.4519 81.7573 60.6655 77.014C62.5732 74.8664 64.4022 71.2017 65.7362 68.6291L65.7363 68.6291C65.0655 68.5532 64.3522 68.8162 63.727 68.3768C63.709 68.3768 63.6909 68.3753 63.6729 68.3751C60.7897 68.3525 57.9067 66.9193 55.0237 66.9146C55.0243 67.0022 55.025 67.0897 55.0259 67.1773C56.3755 67.1787 57.7251 68.6279 59.0746 68.6294C59.9879 68.6288 60.9019 68.6073 61.8141 68.6384C62.1655 68.6504 62.6492 68.4244 62.8376 68.8917C62.9751 69.2323 62.6438 70.952 62.4529 71.2203C60.6189 73.7365 58.5601 76.081 56.3021 78.2249C55.5515 78.9544 52.5656 80.4338 51.5058 80.0606C50.827 79.8215 51.3852 78.221 51.2458 77.2427C51.1813 76.9693 51.0909 76.7026 50.9758 76.4463C50.9567 77.4083 50.9221 78.3703 50.9215 79.3323C50.9194 82.5728 53.2405 82.5728 50.1054 82.7824C50.0763 83.0219 49.9894 83.2509 49.8523 83.4495C49.7152 83.6481 49.532 83.8104 49.3183 83.9226C46.122 86.0539 42.6659 87.7672 39.0344 89.0206C36.5395 89.8574 33.9804 90.4888 31.3826 90.9086C24.9645 92.0247 18.7434 91.0892 12.6445 88.9819C9.79477 87.9782 7.09884 86.5823 4.63457 84.8342C4.2632 84.4954 3.78811 84.2923 3.28662 84.2579C3.75104 85.6497 4.26181 87.0194 4.81893 88.3668C6.52751 88.8616 8.02164 89.8405 9.63669 90.5479C14.115 92.5514 18.9452 93.6501 23.8496 93.7807Z" fill="#7198F6"/>
<path d="M4.63448 84.8342C7.09875 86.5822 9.79468 87.9782 12.6444 88.9818C18.7433 91.0892 24.9644 92.0247 31.3825 90.9085C33.9803 90.4888 36.5394 89.8574 39.0343 89.0206C42.6658 87.7672 46.1219 86.0539 49.3182 83.9226C49.5319 83.8104 49.7151 83.648 49.8522 83.4494C49.9893 83.2508 50.0762 83.0219 50.1053 82.7823C48.2711 82.7817 46.437 82.7811 44.6029 82.7804L44.6028 82.7805H44.6029C44.5304 84.4234 43.0187 84.4841 42.0265 84.9027C39.2055 86.0927 36.3426 87.2054 33.2813 87.6885C27.895 88.5385 22.5739 88.6742 17.1988 87.3152C13.7709 86.384 10.4881 84.9839 7.4433 83.1544C5.71057 82.1607 4.16129 80.8482 2.51938 79.6935C2.31775 79.5695 2.10273 79.4687 1.87842 79.3931C2.28547 81.0406 2.75484 82.6622 3.28654 84.2579C3.78803 84.2923 4.26311 84.4954 4.63448 84.8342Z" fill="#6A99F7"/>
<path d="M26.4884 114.665C29.7025 114.557 32.899 114.144 36.0347 113.429C38.6681 112.79 41.3051 112.093 43.8892 111.209C49.8956 109.155 55.3523 106.091 60.5308 102.487C63.9031 100.196 67.0442 97.5819 69.9095 94.6818C73.249 91.2391 76.2953 87.5235 79.0163 83.5737C79.1533 83.3238 79.264 83.0604 79.3468 82.7877H79.3469L79.3468 82.7876C78.8643 82.7879 78.3818 82.7882 77.8993 82.7886H77.8992C77.8883 82.9326 77.8528 83.0738 77.7942 83.2058C74.9115 87.4502 71.5758 91.3684 67.8459 94.8915C64.0894 98.4035 59.9784 101.516 55.5791 104.179C53.0196 105.722 50.4452 107.316 47.6923 108.371C42.9532 110.188 38.2071 112.162 33.0458 112.552C30.7199 112.728 28.456 113.397 26.0849 113.287C25.29 113.212 24.4913 113.382 23.7959 113.774C24.3861 114.251 24.9844 114.719 25.5907 115.177C25.6734 115.013 25.8027 114.877 25.9624 114.786C26.1221 114.695 26.3051 114.653 26.4884 114.665Z" fill="#B984EE"/>
<path d="M27.5429 115.389C31.4154 115.073 35.2558 114.442 39.0258 113.503C44.4723 112.081 49.703 109.934 54.5775 107.119C59.7218 104.09 64.6495 100.717 68.9179 96.3952C72.0503 93.2237 74.9617 89.8692 77.9625 86.5905C78.9534 85.4804 79.7205 84.1893 80.2214 82.7881H80.2215V82.7879C79.9298 82.7878 79.6382 82.7877 79.3466 82.7876H79.3465C79.2637 83.0603 79.153 83.3237 79.016 83.5736C76.2949 87.5234 73.2487 91.239 69.9091 94.6817C67.0439 97.5818 63.9028 100.196 60.5305 102.487C55.352 106.09 49.8953 109.155 43.8888 111.209C41.3048 112.093 38.6678 112.79 36.0343 113.429C32.8987 114.143 29.7022 114.557 26.4881 114.665C26.3047 114.653 26.1217 114.695 25.962 114.786C25.8023 114.877 25.673 115.013 25.5903 115.177C25.94 115.44 26.2928 115.698 26.6486 115.953C26.6736 115.445 27.0252 115.441 27.5429 115.389Z" fill="#BE83ED"/>
<path d="M30.9872 117.554C36.147 117.126 41.0493 115.618 45.8759 113.875C50.7069 112.125 55.3069 109.793 59.5742 106.931C65.4552 103.019 70.7768 98.3259 75.3925 92.9798C77.9837 90.0212 80.3563 86.878 82.4914 83.5752C82.6239 83.3226 82.7342 83.0589 82.8211 82.7872H82.8212L82.8211 82.7871L81.3799 82.7885V82.7885C79.7175 85.144 78.1721 87.5946 76.3572 89.826C74.7946 91.7472 72.8703 93.3695 71.2058 95.214C69.5281 96.9936 67.751 98.6767 65.8828 100.255C62.6993 103.02 59.2471 105.459 55.5778 107.536C51.0037 110.267 46.0955 112.394 40.9755 113.866C37.2256 114.888 33.4692 115.928 29.5479 116.117C28.8689 116.117 28.2016 116.295 27.6128 116.633C28.4217 117.193 29.2438 117.735 30.0793 118.258C29.9368 117.586 30.4835 117.595 30.9872 117.554Z" fill="#C582ED"/>
<path d="M29.548 116.117C33.4693 115.928 37.2257 114.887 40.9756 113.865C46.0956 112.394 51.0038 110.266 55.5779 107.536C59.2472 105.459 62.6995 103.02 65.8829 100.255C67.7511 98.6765 69.5283 96.9933 71.2059 95.2137C72.8704 93.3692 74.7947 91.7469 76.3573 89.8257C78.1722 87.5944 79.7176 85.1437 81.38 82.7883V82.7882C80.994 82.7881 80.6079 82.7881 80.2218 82.7881H80.2217C79.7208 84.1893 78.9537 85.4804 77.9628 86.5905C74.962 89.8692 72.0505 93.2238 68.9182 96.3952C64.6498 100.717 59.7221 104.09 54.5778 107.119C49.7033 109.934 44.4726 112.081 39.0261 113.503C35.2561 114.443 31.4157 115.073 27.5432 115.389C27.0255 115.441 26.6739 115.445 26.6489 115.953C26.9679 116.183 27.2892 116.409 27.6129 116.633C28.2018 116.295 28.869 116.117 29.548 116.117Z" fill="#BF83ED"/>
<path d="M32.8905 118.846C35.3622 119.051 37.5639 117.942 39.8686 117.387C42.2485 116.854 44.574 116.102 46.8152 115.14C50.5192 113.474 54.2968 111.98 57.7818 109.794C64.4471 105.682 70.4962 100.647 75.7486 94.838C79.0528 91.1357 82.4128 87.3787 84.5645 82.7899H84.5646V82.7897C83.9834 82.7888 83.4022 82.788 82.8211 82.7871H82.821C82.7341 83.0588 82.6238 83.3224 82.4913 83.5751C80.3562 86.8779 77.9836 90.0211 75.3924 92.9797C70.7766 98.3258 65.4551 103.019 59.5741 106.931C55.3067 109.793 50.7068 112.125 45.8758 113.875C41.0491 115.618 36.1468 117.126 30.9871 117.553C30.4834 117.595 29.9366 117.586 30.0791 118.258C30.7703 118.691 31.468 119.115 32.1766 119.522C32.2237 119.139 32.345 118.801 32.8905 118.846Z" fill="#CB81EC"/>
<path d="M37.5629 119.785C40.6249 119.466 43.4699 118.454 46.2656 117.372C50.8532 115.653 55.254 113.471 59.4002 110.861C64.2947 107.708 68.9871 104.257 73.1096 100.141C77.1321 96.1342 80.7855 91.7735 84.0256 87.1115C85.034 85.7682 85.8923 84.3185 86.5849 82.7882H86.5851L86.585 82.7881C85.9116 82.7887 85.2382 82.7894 84.5647 82.79H84.5646C82.4129 87.3788 79.0529 91.1358 75.7487 94.8382C70.4963 100.647 64.4473 105.682 57.7819 109.794C54.2969 111.98 50.5193 113.474 46.8153 115.141C44.5741 116.102 42.2487 116.854 39.8688 117.387C37.564 117.943 35.3623 119.051 32.8907 118.847C32.3451 118.801 32.2239 119.139 32.1768 119.522C33.0612 120.03 33.9586 120.517 34.8689 120.984C35.4038 119.866 36.7227 119.873 37.5629 119.785Z" fill="#D27FEC"/>
<path d="M35.8392 58.7555C30.8168 61.3108 25.5462 61.6883 20.7573 58.568C18.9514 57.4371 17.4078 55.9337 16.2297 54.1583C15.0516 52.3829 14.2661 50.3763 13.9259 48.2729C12.9206 42.0576 14.0947 36.2685 17.8063 31.1855C19.6824 28.6514 22.2393 26.7019 25.1798 25.5638C26.9547 24.8156 28.8264 24.3219 30.7395 24.0973C31.835 23.9908 32.8054 24.4921 33.847 24.6489C38.8057 25.3952 42.0678 28.2471 44.2218 32.7197C45.7992 36.0638 46.4151 39.7808 46.0007 43.455C45.9947 43.7378 46.0096 44.0208 46.0453 44.3015L46.0449 44.3016H46.0453C46.8173 44.3019 47.5893 44.3022 48.3614 44.3026H48.3615L48.3613 44.3025C48.8999 41.0183 48.6843 37.6546 47.7307 34.466C45.7756 28.1131 41.8671 23.3821 35.0898 21.946C29.3317 20.7259 24.0965 22.1484 19.5541 26.0498C15.3802 29.6008 12.5273 34.457 11.4576 39.8316C10.195 45.8276 11.1531 51.6963 14.7173 56.6545C19.2056 62.8983 27.0578 65.3897 35.0207 62.0524C35.8838 61.6907 36.9224 60.7344 37.6839 62.2706V62.2706C37.81 61.3093 37.8098 60.3357 37.6833 59.3744C37.3119 58.4348 36.9563 58.1871 35.8392 58.7555Z" fill="#3E6EF5"/>
<path d="M35.7966 55.7097C30.7554 59.0153 23.9059 58.7389 19.7263 54.07C17.7069 51.8438 16.4635 49.023 16.1826 46.0305C15.8912 43.0937 16.0999 40.2355 17.2174 37.5682C18.6253 33.9812 21.1861 30.9643 24.4967 28.9923C27.8658 26.9767 31.1103 26.7189 34.6746 27.6454C37.6997 28.4317 39.7066 30.5161 41.3707 33.0226C43.673 36.4904 43.5205 40.4006 43.4406 44.3011C44.3088 44.3013 45.1769 44.3014 46.045 44.3015L46.0454 44.3014C46.0098 44.0207 45.9949 43.7377 46.0008 43.4548C46.4152 39.7807 45.7993 36.0637 44.2219 32.7196C42.0679 28.247 38.8058 25.3951 33.8471 24.6488C32.8055 24.492 31.8351 23.9907 30.7396 24.0972C28.8265 24.3218 26.9548 24.8155 25.1799 25.5637C22.2395 26.7018 19.6826 28.6513 17.8065 31.1854C14.0948 36.2683 12.9208 42.0575 13.926 48.2728C14.2663 50.3762 15.0517 52.3827 16.2298 54.1582C17.4079 55.9336 18.9515 57.437 20.7574 58.5679C25.5463 61.6882 30.8169 61.3107 35.8394 58.7553C36.9564 58.187 37.312 58.4346 37.6835 59.3743C37.813 58.3164 37.8129 57.2466 37.6833 56.1887V56.1887C37.23 55.3341 36.9251 54.9696 35.7966 55.7097Z" fill="#3A69F5"/>
<path d="M35.0205 62.0521C27.0576 65.3894 19.2054 62.898 14.7171 56.6543C11.1529 51.696 10.1948 45.8273 11.4574 39.8313C12.5271 34.4567 15.3799 29.6006 19.5539 26.0496C24.0963 22.1482 29.3315 20.7257 35.0895 21.9457C41.8669 23.3818 45.7754 28.1129 47.7305 34.4658C48.6841 37.6543 48.8997 41.018 48.3611 44.3022L48.3613 44.3023C50.2248 44.3105 50.1592 44.3111 50.142 42.4696C50.1324 41.4433 50.43 40.4143 50.1025 39.3887C49.3918 37.4264 49.1567 35.3399 48.6432 33.3285C47.537 28.9965 44.94 25.7366 41.6499 23.1693C39.4968 21.541 36.9357 20.539 34.2492 20.274C32.3061 20.0591 30.3458 20.0485 28.4005 20.2425C26.666 20.4254 25.0303 21.1845 23.4326 21.965C20.7739 23.2639 18.2883 24.8282 16.3403 27.041C14.3108 29.3465 12.8972 32.0742 11.6805 34.9015C9.8433 39.1711 9.43535 43.5509 10.053 48.1576C10.6175 52.7982 12.7626 57.1028 16.1275 60.3479C18.4303 62.6339 21.4076 64.1182 24.6191 64.5813C26.8513 64.9399 29.1262 64.9433 31.3594 64.5914C32.9819 64.3034 34.4395 63.5428 36.0132 63.1206C36.6662 62.9455 37.2189 62.8075 37.6838 63.4268V63.4268C37.6838 63.0413 37.6837 62.6558 37.6836 62.2704V62.2703C36.9222 60.7342 35.8836 61.6904 35.0205 62.0521Z" fill="#4272F5"/>
<path d="M35.7504 49.7517C33.1534 52.8302 26.2863 54.5081 22.7689 49.8207C20.226 46.4317 19.9993 42.9093 21.2126 39.4043C22.3767 36.0417 24.6146 33.178 28.5865 32.4266C33.2899 31.5367 37.1693 33.8491 38.5789 38.4556C39.1575 40.3461 38.9508 42.2652 38.8182 44.1825C38.8444 44.2231 38.8716 44.2635 38.9004 44.3035C39.6419 44.3028 40.3835 44.3022 41.1251 44.3017V44.3016C41.1002 42.1668 41.1752 40.0748 40.6449 37.9201C39.9629 35.1495 38.4907 33.2319 36.2719 31.582C31.538 28.0619 25.9505 30.3282 22.7692 33.384C20.3746 35.6844 19.4336 38.6288 18.4525 41.5552C18.0685 42.7004 18.4006 44.1322 18.5776 45.4097C18.7489 46.9833 19.246 48.504 20.0371 49.8751C20.8283 51.2461 21.8962 52.4374 23.1729 53.3732C24.2491 54.1554 25.4821 54.6951 26.7868 54.9552C28.0916 55.2152 29.4373 55.1895 30.7311 54.8797C32.8468 54.4312 35.0912 53.855 36.4996 51.876C36.6432 51.6741 36.8343 51.4762 37.0885 51.5427C37.4742 51.6436 37.3381 52.0076 37.3568 52.2721C37.3806 52.6081 37.363 52.947 37.3634 53.2846C37.4697 53.3832 37.576 53.4818 37.6823 53.5805C37.8169 52.3307 37.8174 51.0701 37.684 49.8201C37.5992 49.743 37.5436 49.639 37.5266 49.5257C36.8951 48.3582 36.8153 48.4895 35.7504 49.7517Z" fill="#3260F5"/>
<path d="M38.8097 44.3037L38.8097 44.3037C38.8125 44.2633 38.8156 44.223 38.8184 44.1826C38.951 42.2654 39.1577 40.3463 38.5791 38.4557C37.1694 33.8493 33.2901 31.5369 28.5866 32.4267C24.6148 33.1782 22.3769 36.0419 21.2128 39.4045C19.9994 42.9095 20.2262 46.4318 22.7691 49.8208C26.2864 54.5082 33.1536 52.8304 35.7506 49.7518C36.8155 48.4896 36.8953 48.3583 37.5267 49.5259C37.5759 49.6168 37.6275 49.7134 37.6841 49.8203C37.8146 48.1339 37.8199 46.4402 37.7002 44.753C37.908 44.2033 38.3969 44.3476 38.8097 44.3037ZM31.6657 49.7972C27.2968 51.532 22.5607 48.1365 22.9373 43.5246C23.1518 40.8962 23.5505 38.4806 25.5337 36.6242C26.778 35.3856 28.4581 34.6838 30.2138 34.6693C33.2565 34.6689 36.4219 36.8508 36.7528 40.4868C37.0805 44.0872 35.3604 48.33 31.6657 49.7972Z" fill="#2F5DF5"/>
<path d="M1.97443 52.253C2.35481 54.6821 3.32883 56.9325 4.18194 59.1873C5.55233 62.6963 7.8103 65.7894 10.7349 68.1638C12.9906 70.0563 15.3712 71.7277 18.1715 72.7282C22.9825 74.447 27.8663 75.0516 32.8863 73.7377C34.0394 73.4359 35.22 73.2297 36.3562 72.8771C37.078 72.6531 37.3619 72.8219 37.3632 73.5491V74.1278L37.682 74.1292V74.1292L37.682 74.1292L37.6822 71.5345C37.0039 69.956 36.853 69.8727 35.1876 70.5996C32.2432 71.8848 29.1413 71.8645 26.0205 71.8372C20.3038 71.7872 15.5828 69.275 11.52 65.5936C8.99656 63.3072 7.20981 60.3133 5.80274 57.1684C4.33293 53.8834 3.77676 50.3859 3.513 46.8315C3.51878 46.3527 3.56515 45.8751 3.65163 45.4041C3.70969 44.8191 3.69845 44.2632 3.22636 43.9111C2.42594 46.3331 1.77215 48.8011 1.26855 51.3017C1.92966 51.0099 1.91966 51.9033 1.97443 52.253Z" fill="#4F7FF6"/>
<path d="M51.4906 41.9949C51.4381 40.6677 51.3995 39.3399 51.334 38.0133C51.3189 37.8956 51.3304 37.7759 51.3678 37.6633C51.4052 37.5506 51.4675 37.4478 51.55 37.3625V37.073C51.0864 36.5552 51.3207 35.921 51.2605 35.336V35.0465C50.2701 33.7683 50.1451 32.2017 49.8129 30.7041C49.0721 30.3077 49.2667 29.5995 49.2338 28.9672C49.1373 28.8707 49.0408 28.7742 48.9443 28.6777C47.6922 26.8273 46.2896 25.0834 44.7507 23.4637C43.3177 21.9948 41.6197 20.8103 39.7462 19.9727C39.3461 19.806 39.0156 19.5064 38.8107 19.1245H38.5212C35.3926 18.3903 32.1766 18.098 28.9669 18.256C27.8553 18.7286 26.7735 19.3794 25.4925 18.8349C24.6324 19.4833 23.7809 20.1533 22.5972 19.9929C22.2112 20.1859 21.8252 20.3789 21.4391 20.5719C19.9884 22.057 18.3305 23.3245 16.5171 24.3353C16.457 24.6975 16.2852 25.0317 16.0256 25.2913C15.766 25.5509 15.4317 25.7227 15.0695 25.7828C11.4683 29.8441 9.45304 34.6498 8.14276 39.8686C7.59946 42.0327 7.79644 44.1394 7.90224 46.2412C8.00456 49.5181 8.79459 52.737 10.2211 55.689C11.1447 57.4853 12.2809 59.164 13.6052 60.689C15.7556 63.2348 18.5945 65.1065 21.7817 66.0798C26.1469 67.5187 30.88 67.3705 35.1466 65.6614C35.8339 65.3165 36.5943 65.1424 37.3632 65.1537C37.3924 63.4688 36.3316 63.9823 35.5014 64.295C32.8446 65.3121 30.0185 65.814 27.174 65.7739C24.8255 65.7205 22.5139 65.1775 20.3871 64.1798C13.9028 61.2587 10.5109 55.9023 9.34495 49.1767C8.08729 41.9215 9.64323 35.1777 13.9006 29.0431C16.1625 25.7935 19.158 23.1223 22.6444 21.2457C25.1098 19.9142 27.8491 19.1694 30.6492 19.0691C33.3212 18.9019 35.9963 19.3415 38.4742 20.355C40.9521 21.3685 43.1685 22.9296 44.9574 24.9214C47.807 27.8477 49.6247 31.6234 50.1352 35.6759C50.2791 36.9214 51.1325 38.1581 50.1024 39.3889C50.4298 40.4145 50.1323 41.4435 50.1419 42.4698C50.1591 44.3113 50.2247 44.3107 48.3611 44.3025H48.361C47.589 44.3022 46.817 44.3019 46.0449 44.3015H46.0445C45.1764 44.3015 44.3083 44.3013 43.4401 44.3011C42.9587 44.3014 42.4773 44.3016 41.9959 44.3019V44.302C41.7055 44.3019 41.4152 44.3018 41.1249 44.3018V44.3017C40.3833 44.3022 39.6417 44.3029 38.9002 44.3035L38.8094 44.3036H38.8093C38.3965 44.3475 37.9077 44.2031 37.6998 44.7528C38.2728 44.7109 38.8456 44.6365 39.4189 44.6322C43.1728 44.6034 46.9267 44.5897 50.6806 44.5711L51.263 44.3175L51.2631 44.3174H51.263C50.6272 43.4739 51.5217 42.7802 51.4906 41.9949Z" fill="#4574F5"/>
<path d="M37.6817 66.032C37.6404 66.0039 37.6056 65.9671 37.5798 65.9243C37.4135 65.7038 37.3363 65.4288 37.3635 65.154C36.5946 65.1426 35.8343 65.3167 35.147 65.6616C30.8804 67.3707 26.1473 67.5189 21.7821 66.08C18.5949 65.1068 15.756 63.2351 13.6056 60.6893C12.2812 59.1642 11.145 57.4855 10.2214 55.6893C8.79496 52.7373 8.00495 49.5184 7.90264 46.2414C7.79683 44.1397 7.59985 42.033 8.14316 39.8689C9.45344 34.65 11.4687 29.8444 15.0699 25.783C15.4381 25.1983 15.9327 24.7037 16.5175 24.3355C17.7625 22.5638 19.6025 21.57 21.4395 20.5721C21.8255 20.3791 22.2116 20.1862 22.5976 19.9932C23.4487 19.3675 24.4451 18.969 25.4929 18.8352C26.6075 18.3812 27.6783 17.6646 28.9673 18.2562C29.357 17.9439 29.8109 17.7212 30.2964 17.6041C30.782 17.487 31.2874 17.4783 31.7767 17.5786C33.6091 17.8581 35.4668 17.9625 37.2538 18.5302C37.7241 18.6045 38.1637 18.8107 38.5216 19.1247H38.8111C43.4217 21.0018 46.9717 24.0037 48.9447 28.678C49.0411 28.7745 49.1376 28.871 49.2342 28.9675C49.4607 29.1909 49.6312 29.4647 49.7318 29.7665C49.8325 30.0684 49.8604 30.3897 49.8132 30.7044C50.7298 31.9691 51.2352 33.4851 51.2609 35.0468V35.3363C51.7245 35.8541 51.4902 36.4882 51.5504 37.0732V37.3627C52.3272 37.9713 51.8373 38.7487 51.8808 39.476C51.9153 41.0965 51.8048 42.717 51.5504 44.3178V44.3179C51.8401 44.3173 52.1299 44.3167 52.4196 44.3161L52.4196 44.3161H52.4196C53.5354 37.0809 52.0961 30.3575 47.667 24.561C43.9794 19.735 38.9717 16.9653 32.6944 16.7863C28.8383 16.6146 25.0077 17.4919 21.6106 19.3246C18.5269 21.0129 15.8033 23.288 13.5929 26.0218C11.0033 29.3128 9.03542 33.0484 7.78583 37.0453C6.87349 39.8241 6.91668 42.8322 6.88953 45.7602C6.81394 51.1003 8.58592 56.3025 11.9055 60.4861C14.0949 63.2477 16.9597 65.3979 20.223 66.7287C24.1619 68.4335 28.0688 68.2307 32.0664 67.7186C33.4796 67.5375 34.8422 66.9569 36.2258 66.5512C36.6859 66.4163 37.1759 66.134 37.3635 66.8909C37.3394 67.0526 37.3559 67.2177 37.4117 67.3713C37.4675 67.5249 37.5607 67.6621 37.6829 67.7706C37.6826 67.1911 37.6822 66.6115 37.6817 66.032Z" fill="#4675F5"/>
<path d="M38.2053 121.683C39.2489 121.559 40.2779 121.333 41.2777 121.009C47.3945 118.994 53.3501 116.653 58.8655 113.224C63.7111 110.291 68.2562 106.889 72.4352 103.066C77.184 98.6498 81.4415 93.7335 85.1338 88.4027C86.38 86.5931 87.7444 84.839 88.6118 82.7876H88.6116C87.9362 82.7877 87.2608 82.7879 86.5853 82.7879H86.5852C85.8925 84.3181 85.0343 85.7679 84.0259 87.1112C80.7858 91.7732 77.1323 96.1338 73.1098 100.14C68.9873 104.257 64.295 107.708 59.4004 110.861C55.2543 113.471 50.8534 115.652 46.2659 117.372C43.4701 118.454 40.6252 119.466 37.5632 119.785C36.723 119.872 35.4041 119.866 34.8691 120.983C35.7622 121.441 36.6673 121.877 37.5845 122.293C37.4952 121.908 37.6586 121.75 38.2053 121.683Z" fill="#D97EEC"/>
<path d="M3.65182 45.4038C3.56534 45.8749 3.51897 46.3524 3.51319 46.8312C3.77694 50.3856 4.33312 53.8831 5.80292 57.1681C7.20999 60.313 8.99674 63.3069 11.5202 65.5933C15.583 69.2747 20.304 71.7869 26.0207 71.8369C29.1415 71.8643 32.2434 71.8845 35.1878 70.5993C36.8531 69.8724 37.0041 69.9557 37.6824 71.5342C37.6821 70.8583 37.6819 70.1825 37.6817 69.5066C37.3689 68.0608 36.689 67.9603 35.3503 68.5297C32.1641 69.9713 28.6326 70.4736 25.1707 69.9776C21.0082 69.2899 17.0935 67.9113 13.7641 64.9509C8.8515 60.5828 6.45117 55.1197 5.482 48.7921C5.25477 47.3084 5.56645 45.8371 5.24617 44.3779C5.18146 44.1405 5.20191 43.8879 5.30398 43.664C5.40604 43.4401 5.58327 43.259 5.80492 43.1521V42.2837C5.27057 41.4365 5.63416 40.5759 5.69742 39.6983C5.73516 39.1754 6.27209 38.399 5.49441 38.0376C4.64563 39.9479 3.88968 41.9057 3.22656 43.9109C3.69864 44.2629 3.70988 44.8188 3.65182 45.4038Z" fill="#4B7BF6"/>
<path d="M32.2728 55.8744C29.3613 56.8601 26.6094 56.5131 23.908 55.3064C20.2978 53.6938 18.3771 50.7843 17.5368 46.9877C16.2932 41.3678 18.7378 34.0811 23.4995 30.9486C28.1547 27.8861 32.1691 27.1828 37.6075 30.7161C39.6391 32.0361 40.7996 34.18 41.5668 36.4164C42.4424 38.9688 43.0776 41.6087 41.996 44.3017C42.4774 44.3014 42.9588 44.3012 43.4402 44.3009C43.5201 40.4004 43.6726 36.4902 41.3703 33.0224C39.7062 30.5159 37.6993 28.4316 34.6742 27.6453C31.1099 26.7187 27.8654 26.9765 24.4963 28.9922C21.1857 30.9642 18.6249 33.9811 17.217 37.5681C16.0995 40.2354 15.8908 43.0935 16.1822 46.0303C16.4631 49.0228 17.7065 51.8436 19.7259 54.0698C23.9055 58.7388 30.755 59.0151 35.7962 55.7095C36.9248 54.9694 37.2297 55.3339 37.6829 56.1885V56.1885C37.8107 55.3238 37.8104 54.4449 37.6822 53.5803C37.5759 53.4816 37.4696 53.383 37.3633 53.2843C35.6282 54.0677 34.1178 55.2497 32.2728 55.8744Z" fill="#3665F5"/>
<path d="M36.0134 63.1211C34.4396 63.5432 32.9821 64.3038 31.3596 64.5918C29.1263 64.9437 26.8514 64.9403 24.6192 64.5818C21.4077 64.1186 18.4305 62.6343 16.1277 60.3483C12.7627 57.1033 10.6177 52.7986 10.0532 48.158C9.4355 43.5513 9.84345 39.1715 11.6806 34.902C12.8973 32.0746 14.3109 29.3469 16.3404 27.0414C18.2885 24.8286 20.7741 23.2642 23.4328 21.9654C25.0305 21.1849 26.6661 20.4258 28.4006 20.2429C30.346 20.0489 32.3062 20.0595 34.2494 20.2744C36.9359 20.5394 39.4969 21.5414 41.6501 23.1697C44.9401 25.737 47.5371 28.9969 48.6433 33.3289C49.1569 35.3404 49.3919 37.4268 50.1027 39.3891C51.1328 38.1583 50.2794 36.9216 50.1355 35.6761C49.625 31.6236 47.8072 27.848 44.9577 24.9216C43.1688 22.9298 40.9524 21.3687 38.4745 20.3552C35.9966 19.3417 33.3214 18.9021 30.6495 19.0693C27.8493 19.1696 25.1101 19.9144 22.6447 21.2459C19.1583 23.1225 16.1628 25.7937 13.9009 29.0433C9.64353 35.1779 8.08759 41.9218 9.34525 49.1769C10.5112 55.9025 13.9031 61.259 20.3874 64.1801C22.5142 65.1778 24.8258 65.7207 27.1743 65.7742C30.0188 65.8142 32.8449 65.3123 35.5017 64.2952C36.3319 63.9825 37.3927 63.4691 37.3635 65.154C37.3362 65.4288 37.4134 65.7038 37.5798 65.9243C37.6097 65.9637 37.6439 65.9998 37.6816 66.032C37.803 65.168 37.8038 64.2914 37.6839 63.4272V63.4272C37.219 62.8079 36.6663 62.9459 36.0134 63.1211Z" fill="#4372F5"/>
<path d="M2.85417 64.9019C5.45935 69.0615 9.05892 72.5071 13.3282 74.9281C17.7282 77.496 22.3998 78.4874 27.3545 78.4376C30.1892 78.3829 33.0011 77.9179 35.7025 77.0571C36.5036 76.81 37.2007 76.7895 37.6817 77.6131V77.6131H37.6818C37.6816 77.0342 37.6814 76.4552 37.6813 75.8763C37.3012 75.5612 37.3767 75.1222 37.3633 74.7074C35.0653 74.9538 32.9724 76.1162 30.6737 76.2872C27.2314 76.5432 23.8171 76.6118 20.4192 75.5625C17.8832 74.7793 15.4335 73.9793 13.1541 72.542C10.608 70.9938 8.3535 69.0107 6.49309 66.683C4.10989 63.6642 2.29338 60.2386 1.13156 56.5721C1.09351 56.4212 1.01595 56.2832 0.906856 56.1723C0.797767 56.0613 0.661089 55.9815 0.510889 55.9409C0.316367 57.4901 0.177809 59.0558 0.0952148 60.638C0.0994863 60.6274 0.101126 60.6162 0.105925 60.6058C1.46934 61.7572 1.9598 63.472 2.85417 64.9019Z" fill="#5685F6"/>
<path d="M3.18832 77.102C6.66638 80.0805 10.31 82.6618 14.7315 84.1691C18.8727 85.5809 23.0634 86.4258 27.4019 86.2481C30.9014 86.07 34.3621 85.4312 37.6946 84.3484C38.449 84.1116 39.2733 83.7839 39.3926 82.781V82.7809L37.7915 82.7863L37.7912 82.7859V82.7862C37.3347 82.6466 36.8446 82.6637 36.399 82.8348C33.0774 83.8487 29.6524 84.5753 26.202 84.4913C20.9511 84.3918 15.7981 83.0516 11.1641 80.5802C7.45989 78.5542 4.14721 75.8831 1.38203 72.6926C1.17695 72.3972 0.869059 72.1889 0.518555 72.1084C0.653746 73.1763 0.81501 74.2359 1.00235 75.2869C2.0731 75.4006 2.4883 76.5026 3.18832 77.102Z" fill="#6292F6"/>
<path d="M1.4854 70.2892C4.17792 73.9339 7.63421 76.9463 11.6125 79.1157C15.2452 81.1879 19.3128 82.3802 23.4894 82.597C26.0194 82.7528 28.5574 82.7193 31.0824 82.4968C32.7889 82.274 34.4794 81.9421 36.1434 81.503C36.4159 81.416 36.7082 81.4127 36.9826 81.4935C37.257 81.5743 37.5009 81.7356 37.6827 81.9564V81.9564C37.6824 81.377 37.682 80.7976 37.6816 80.2182C37.4838 79.978 37.2131 79.8087 36.9106 79.7361C36.6081 79.6635 36.2901 79.6914 36.0048 79.8157C33.2549 80.6735 30.4078 81.1813 27.5308 81.3272C24.547 81.425 21.5656 81.0717 18.6872 80.2794C13.3801 78.7656 8.58517 75.8357 4.81646 71.8041C3.06021 69.9605 1.52281 67.9201 0.234824 65.7236C0.155037 65.9939 0.0977265 66.2704 0.0634766 66.5501C0.0990002 67.4536 0.152533 68.3523 0.224076 69.2462C0.754121 69.4347 1.20074 69.804 1.4854 70.2892Z" fill="#5D8DF6"/>
<path d="M1.38195 72.6924C4.14712 75.8829 7.45978 78.554 11.164 80.58C15.798 83.0514 20.9509 84.3915 26.2019 84.4911C29.6523 84.5751 33.0773 83.8486 36.3989 82.8346C36.8445 82.6634 37.3346 82.6463 37.791 82.786V82.7857C37.7548 82.5092 37.7187 82.2328 37.6828 81.9564V81.9563C37.5009 81.7355 37.2571 81.5743 36.9827 81.4934C36.7083 81.4126 36.416 81.4159 36.1435 81.5029C34.4794 81.942 32.789 82.2739 31.0825 82.4967C28.5575 82.7192 26.0194 82.7527 23.4894 82.5969C19.3129 82.3801 15.2452 81.1878 11.6126 79.1156C7.63427 76.9462 4.17798 73.9338 1.48547 70.2891C1.20081 69.8039 0.754175 69.4346 0.224121 69.2461C0.302187 70.206 0.400304 71.16 0.518473 72.1082C0.86898 72.1887 1.17687 72.397 1.38195 72.6924Z" fill="#608FF6"/>
<path d="M4.81666 71.8044C8.58538 75.836 13.3804 78.7658 18.6874 80.2797C21.5658 81.072 24.5472 81.4252 27.531 81.3275C30.408 81.1815 33.2551 80.6737 36.005 79.8159C36.2903 79.6916 36.6083 79.6637 36.9108 79.7363C37.2134 79.809 37.484 79.9782 37.6818 80.2184C37.6815 79.8323 37.6813 79.4463 37.6812 79.0602C37.3146 78.4088 36.8938 78.1856 36.0611 78.4136C32.768 79.3154 29.4163 80.0271 25.9833 79.8975C20.7751 79.7253 15.706 78.1737 11.294 75.401C6.69382 72.538 3.52774 68.3873 0.636872 63.9636C0.505447 63.7172 0.281988 63.5327 0.0151466 63.4502C0.0136845 63.631 0.00830078 63.8108 0.00830078 63.9919C0.00830078 64.8492 0.0302477 65.7012 0.063662 66.5504C0.0979182 66.2706 0.155235 65.9942 0.235029 65.7239C1.52302 67.9204 3.06042 69.9607 4.81666 71.8044Z" fill="#5A8AF6"/>
<path d="M0.636862 63.9637C3.52772 68.3874 6.6938 72.5381 11.2939 75.401C15.706 78.1737 20.7751 79.7254 25.9833 79.8975C29.4163 80.0271 32.768 79.3155 36.0611 78.4137C36.8938 78.1856 37.3145 78.4089 37.6812 79.0603C37.6814 78.5779 37.6817 78.0956 37.6819 77.6133V77.6133C37.201 76.7897 36.5039 76.8102 35.7027 77.0572C33.0013 77.918 30.1895 78.383 27.3547 78.4378C22.4 78.4875 17.7284 77.4962 13.3285 74.9282C9.05913 72.5072 5.45956 69.0616 2.85438 64.9021C1.96001 63.4722 1.46955 61.7574 0.106137 60.606C0.101343 60.6164 0.0996982 60.6276 0.0954268 60.6381C0.0473237 61.5701 0.0229797 62.5082 0.0151367 63.4502C0.281985 63.5327 0.505446 63.7172 0.636862 63.9637Z" fill="#5988F6"/>
<path d="M7.44373 83.1548C10.4885 84.9843 13.7713 86.3844 17.1992 87.3156C22.5744 88.6746 27.8954 88.5389 33.2817 87.6889C36.343 87.2057 39.206 86.0931 42.0269 84.9031C43.0192 84.4845 44.5309 84.4237 44.6033 82.7808H44.6032C43.8311 82.7808 43.0589 82.7807 42.2866 82.7806C42.2538 83.0702 42.1373 83.344 41.9514 83.5685C41.7655 83.793 41.5183 83.9585 41.2398 84.0449C40.0837 84.6291 38.8828 85.1203 37.6485 85.5136C34.1339 86.3931 30.5916 87.5051 26.9597 87.3413C21.7176 87.1049 16.5502 86.4317 11.6465 84.1325C8.40887 82.5846 5.41969 80.5633 2.77724 78.1352C2.1389 77.5613 1.78356 77.4693 1.50781 77.8041C1.62497 78.3364 1.74864 78.8662 1.87883 79.3934C2.10314 79.4691 2.31817 79.5699 2.51979 79.6939C4.16172 80.8486 5.71099 82.1611 7.44373 83.1548Z" fill="#6696F7"/>
<path d="M2.77721 78.1351C5.41967 80.5633 8.40885 82.5846 11.6465 84.1325C16.5502 86.4317 21.7175 87.1049 26.9596 87.3413C30.5916 87.5051 34.1339 86.393 37.6485 85.5136C38.8828 85.1203 40.0837 84.6291 41.2398 84.0448C41.5182 83.9585 41.7655 83.793 41.9514 83.5685C42.1372 83.3439 42.2537 83.0701 42.2866 82.7805C41.3219 82.7807 40.3573 82.7809 39.3927 82.7811C39.2734 83.7841 38.4491 84.1118 37.6947 84.3486C34.3622 85.4314 30.9014 86.0701 27.402 86.2483C23.0635 86.426 18.8728 85.581 14.7315 84.1692C10.3101 82.662 6.66647 80.0806 3.18842 77.1022C2.4884 76.5028 2.07319 75.4007 1.00244 75.2871C1.15302 76.1325 1.32436 76.9705 1.50777 77.8041C1.78355 77.4693 2.13887 77.5613 2.77721 78.1351Z" fill="#6595F7"/>
<path d="M37.3633 66.8907C34.5588 67.7754 31.9004 69.0888 28.8068 69.004C25.7784 68.921 22.7999 68.8724 19.9227 67.7402C16.3579 66.3408 13.2695 63.9477 11.0243 60.8451C9.2147 58.3732 7.63598 55.7061 7.12709 52.4541C6.82928 50.5509 6.61017 48.5603 5.96943 46.6993C5.56383 45.5213 6.29007 44.3127 5.80481 43.1523C5.58316 43.2592 5.40593 43.4403 5.30386 43.6642C5.2018 43.8881 5.18135 44.1407 5.24606 44.3781C5.56635 45.8373 5.25466 47.3086 5.4819 48.7923C6.45106 55.1199 8.8514 60.583 13.764 64.9511C17.0934 67.9115 21.0081 69.2901 25.1706 69.9779C28.6325 70.4738 32.164 69.9715 35.3502 68.5299C36.6889 67.9606 37.3688 68.061 37.6816 69.5068C37.682 68.928 37.6824 68.3492 37.6827 67.7704C37.5605 67.662 37.4672 67.5247 37.4115 67.3711C37.3557 67.2175 37.3391 67.0524 37.3633 66.8907Z" fill="#4978F5"/>
<path d="M54.4485 75.4203C54.262 75.5583 51.7737 75.7825 51.5124 75.6443C51.2027 75.4806 51.2938 75.1524 51.2633 74.8788C51.1065 73.4748 51.5864 69.1312 50.9717 67.7588C50.9731 69.6895 50.9747 74.5157 50.9761 76.4463C51.0912 76.7026 51.1816 76.9693 51.2461 77.2428C51.3855 78.221 50.8273 79.8215 51.5062 80.0606C52.566 80.4338 55.5518 78.9544 56.3024 78.225C58.5604 76.081 60.6192 73.7365 62.4533 71.2203C62.6441 70.952 62.9754 69.2323 62.838 68.8917C62.6495 68.4244 62.1658 68.6504 61.8144 68.6384C60.9022 68.6074 59.9883 68.6288 59.0749 68.6294C57.9574 70.778 56.389 73.9839 54.4485 75.4203Z" fill="#6A99F7"/>
<path d="M50.9834 67.1799C50.9795 67.3728 50.9756 67.5657 50.9717 67.7587C51.5864 69.1311 51.1065 73.4747 51.2633 74.8787C51.2938 75.1523 51.2027 75.4805 51.5124 75.6442C51.7736 75.7824 54.262 75.5582 54.4485 75.4202C56.389 73.9839 57.9574 70.7779 59.0749 68.6293C57.7254 68.6278 56.3758 67.1787 55.0262 67.1772C54.4507 67.1781 51.5589 67.179 50.9834 67.1799Z" fill="#6393F7"/>
<path d="M58.2866 58.2656C59.4188 56.711 58.6962 51.2732 57.3925 50.2432C57.2595 50.2335 57.1351 50.1741 57.0439 50.0768V50.0767C56.6144 50.0543 53.2886 50.004 52.8598 50.014C50.0713 50.0792 50.3647 60.9751 50.323 64.2238C50.3122 65.0694 50.6721 65.3045 51.4423 65.2715C52.7327 65.2164 56.9209 65.2143 58.2127 65.1899C58.2293 64.8064 58.0983 58.5242 58.2866 58.2656Z" fill="#5584F6"/>
<path d="M63.3938 57.5185C63.6526 56.639 63.6078 50.2378 62.4391 50.3756C62.2972 50.3912 62.1536 50.3722 62.0207 50.3202C61.8878 50.2682 61.7694 50.1847 61.6757 50.077L61.6757 50.077C60.1317 50.0769 58.5878 50.0768 57.0439 50.0767C57.1727 50.1008 57.2929 50.1582 57.3926 50.2431C58.6963 51.2731 59.4188 56.7109 58.2866 58.2655C58.0983 58.5241 58.2293 64.8063 58.2127 65.1898C59.7566 65.19 61.3006 65.1901 62.8445 65.1903V65.1902C62.8978 62.6253 63.0811 60.0648 63.3938 57.5185Z" fill="#5E8DF6"/>
<path d="M70.6548 50.0834H70.6549L70.6548 50.0834C68.9164 50.0811 67.1779 50.0789 65.4395 50.0767C65.5615 50.1914 65.7063 50.279 65.8646 50.3339C66.0228 50.3888 66.1909 50.4096 66.3577 50.395C67.2168 50.4345 67.2481 56.7162 67.0116 57.3713C66.7692 58.0431 66.5476 64.5136 66.3169 65.1897H66.3168L66.3169 65.1898L70.3711 65.1883C70.6214 64.471 70.8314 57.9449 71.134 57.2503C71.4168 56.6012 71.2597 50.3872 70.6548 50.0834Z" fill="#6B98F7"/>
<path d="M79.3053 50.1408C78.3623 50.0331 71.609 50.0954 70.6549 50.0831H70.6548C71.2597 50.3869 71.4167 56.6009 71.134 57.2499C70.8314 57.9446 70.6214 64.4707 70.3711 65.188C71.4206 65.1751 78.2678 65.2293 79.309 65.1291C80.2201 65.0415 80.7704 58.6774 80.7963 57.7075C80.8238 56.677 80.288 50.2529 79.3053 50.1408Z" fill="#7896F5"/>
<path d="M67.0115 57.3713C67.248 56.7162 67.2167 50.4345 66.3576 50.395C66.1908 50.4096 66.0227 50.3888 65.8645 50.3339C65.7062 50.279 65.5614 50.1914 65.4394 50.0767C64.1848 50.0768 62.9303 50.077 61.6758 50.0772C61.7695 50.1849 61.8878 50.2683 62.0207 50.3203C62.1537 50.3723 62.2972 50.3913 62.4391 50.3758C63.6078 50.238 63.6527 56.6392 63.3938 57.5186C63.0811 60.0649 62.8978 62.6255 62.8446 65.1904C64.002 65.1901 65.1593 65.1899 66.3167 65.1898H66.3168C66.5475 64.5136 66.7691 58.0431 67.0115 57.3713Z" fill="#6594F7"/>
<path d="M37.682 74.1293L37.3633 74.1279V74.7077C37.3767 75.1225 37.3012 75.5615 37.6813 75.8765L37.682 74.1294V74.1293Z" fill="#5382F6"/>
<path d="M50.9829 67.1801H50.983C51.5585 67.1793 54.4503 67.1784 55.0258 67.1775C55.0249 67.09 55.0242 67.0024 55.0236 66.9148V66.9148C54.4376 66.9303 51.4817 66.5985 50.9829 67.1801Z" fill="#6A99F7"/>
<path d="M8.8168 32.5695C7.10691 34.7859 7.45783 37.7084 6.22978 40.0964C5.89133 40.7547 6.87655 41.7259 5.80469 42.2839V43.1523C6.28994 44.3127 5.5637 45.5213 5.96931 46.6993C6.61005 48.5603 6.82915 50.5509 7.12696 52.4541C7.63585 55.7061 9.21457 58.3732 11.0241 60.8451C13.2693 63.9477 16.3577 66.3408 19.9226 67.7402C22.7998 68.8724 25.7782 68.921 28.8067 69.004C31.9003 69.0888 34.5587 67.7754 37.3632 66.8907C37.1755 66.1338 36.6855 66.4161 36.2255 66.551C34.8419 66.9567 33.4793 67.5373 32.066 67.7184C28.0685 68.2305 24.1615 68.4332 20.2227 66.7285C16.9594 65.3977 14.0946 63.2475 11.9052 60.4859C8.58558 56.3022 6.81361 51.1001 6.8892 45.76C6.91635 42.832 6.87316 39.8239 7.7855 37.0451C9.03509 33.0482 11.003 29.3126 13.5926 26.0216C15.8029 23.2878 18.5266 21.0127 21.6103 19.3244C25.0074 17.4917 28.8379 16.6144 32.6941 16.786C38.9714 16.9651 43.9791 19.7348 47.6666 24.5608C52.0958 30.3573 53.535 37.0807 52.4192 44.3158H52.4193C52.8052 44.3153 53.1912 44.3148 53.5772 44.3144C54.2039 40.7038 53.8055 37.1416 53.1479 33.5759C52.426 29.4334 50.5373 25.5829 47.7036 22.4762C44.079 18.5294 39.531 15.9058 34.0875 15.4672C30.5494 15.1977 26.9972 15.7584 23.7141 17.1045C21.8954 17.8076 20.1791 18.7512 18.6111 19.9102C18.2079 20.2115 17.7089 20.71 17.1027 20.4594C13.9904 23.81 11.245 27.4835 8.91306 31.4173C9.35315 31.7601 9.12205 32.1737 8.8168 32.5695Z" fill="#4978F5"/>
<path d="M28.8422 12.3263C34.2488 11.6642 39.3168 12.4116 44.0759 15.2519C47.4711 17.2759 50.3332 20.0821 52.4239 23.4366C55.0361 27.4931 56.5284 32.1686 56.7492 36.9883C56.8275 38.8639 56.7584 40.7454 56.764 42.6242C56.8176 43.2023 56.717 43.7843 56.4724 44.3109L58.4989 44.3086C59.3125 39.3642 58.9829 34.2992 57.5354 29.502C56.1408 24.6818 53.522 20.3049 49.9338 16.7973C46.0452 13.0533 41.4897 10.6946 36.0431 10.1002C34.5018 9.93203 32.9748 9.89955 31.4376 9.85623C31.0278 9.84467 30.5565 9.94433 30.2838 9.59766C28.7533 10.5484 27.2664 11.5599 25.8232 12.6322C26.8499 13.0458 27.8524 12.4475 28.8422 12.3263Z" fill="#507FF6"/>
<path d="M36.1452 7.55607C41.2728 8.21554 46.0977 10.3529 50.0315 13.7074C55.4213 18.2826 59.0416 24.5984 60.2658 31.5615C60.8882 34.9097 61.4409 38.2805 60.9943 41.725C60.9546 42.5868 60.9912 43.4504 61.1037 44.3058L62.5507 44.3054C63.5413 41.6113 62.7243 38.8219 62.9127 36.0789C63.0522 34.0475 62.4361 31.9543 61.7763 29.9567C60.9858 27.5633 60.5022 25.0578 59.3369 22.8027C58.2552 20.562 56.9335 18.4453 55.3949 16.4899C53.1503 13.792 50.6822 11.3104 47.607 9.52716C46.0443 8.69681 44.4407 7.94583 42.8023 7.27708C41.4003 6.70275 39.9659 6.21133 38.5063 5.80537C38.3206 5.7567 38.1588 5.64252 38.0507 5.48389C37.003 5.94923 35.97 6.44083 34.9517 6.95869C35.2569 7.30512 35.6849 7.51933 36.1452 7.55607Z" fill="#5787F6"/>
<path d="M18.6114 19.9102C20.1795 18.7512 21.8957 17.8076 23.7144 17.1045C26.9976 15.7584 30.5497 15.1977 34.0879 15.4672C39.5313 15.9058 44.0794 18.5294 47.704 22.4762C50.5377 25.5829 52.4263 29.4334 53.1482 33.5759C53.8058 37.1416 54.2043 40.7038 53.5775 44.3144L54.7346 44.3132C55.3582 42.5044 55.1706 40.6451 55.2466 38.7796C55.3292 36.7559 54.8173 34.8546 54.6619 32.8944C54.5597 31.6051 53.9692 30.3275 53.4596 29.102C50.8332 22.7864 46.8142 17.7212 40.205 15.2811C36.1642 13.7892 32.0135 13.0272 27.6681 14.3341C26.0093 14.833 24.2258 14.9292 22.6504 15.7694C22.5404 15.8399 22.4134 15.8795 22.2827 15.8839C22.1521 15.8883 22.0227 15.8575 21.9082 15.7946C20.2266 17.2651 18.6227 18.8221 17.103 20.4594C17.7093 20.71 18.2083 20.2115 18.6114 19.9102Z" fill="#4B7AF6"/>
<path d="M22.6505 15.7696C24.2259 14.9294 26.0093 14.8332 27.6681 14.3343C32.0135 13.0275 36.1643 13.7894 40.2051 15.2813C46.8143 17.7214 50.8333 22.7866 53.4596 29.1022C53.9693 30.3277 54.5598 31.6053 54.6619 32.8946C54.8174 34.8549 55.3292 36.7561 55.2467 38.7798C55.1706 40.6453 55.3582 42.5046 54.7347 44.3134L56.4724 44.3112C56.717 43.7847 56.8176 43.2027 56.764 42.6246C56.7584 40.7458 56.8275 38.8642 56.7492 36.9887C56.5284 32.1689 55.0361 27.4934 52.4239 23.4369C50.3332 20.0824 47.4711 17.2762 44.0759 15.2522C39.3168 12.412 34.2488 11.6646 28.8422 12.3266C27.8524 12.4478 26.8499 13.0461 25.8232 12.6326C24.4761 13.6356 23.1711 14.6897 21.9082 15.7948C22.0228 15.8577 22.1522 15.8885 22.2828 15.8841C22.4134 15.8797 22.5404 15.8401 22.6505 15.7696Z" fill="#4D7DF6"/>
<path d="M31.4375 9.85632C32.9746 9.89963 34.5017 9.93211 36.043 10.1003C41.4896 10.6947 46.045 13.0534 49.9337 16.7974C53.5218 20.305 56.1407 24.6819 57.5353 29.502C58.9828 34.2993 59.3124 39.3643 58.4988 44.3087L59.9466 44.3074C60.3159 41.1736 60.3388 38.0087 60.0148 34.8699C59.6739 31.3767 58.7078 27.9732 57.1625 24.8218C55.2902 21.0445 53.0371 17.4774 49.7881 14.8219C47.7965 13.1941 45.6636 11.6246 43.1201 10.6472C39.9937 9.4459 36.8767 8.50726 33.528 8.38346C33.4054 8.37822 33.2853 8.34673 33.1759 8.2911C33.0665 8.23548 32.9703 8.15702 32.8938 8.06104C32.0106 8.55322 31.1406 9.06546 30.2837 9.59776C30.5564 9.94442 31.0277 9.84477 31.4375 9.85632Z" fill="#5484F6"/>
<path d="M57.7008 12.4277C59.2747 14.5346 61.1981 16.4181 62.2188 18.8836C62.8699 20.4565 63.9605 21.8319 64.1505 23.636C64.2456 24.5402 64.8507 25.3889 65.1155 26.3157C66.2359 30.2369 66.9627 34.1697 66.749 38.3067C66.6467 40.2888 66.7629 42.3058 66.6039 44.305C66.9903 44.305 67.3767 44.305 67.7631 44.305C68.08 41.7757 68.1719 39.2234 68.0378 36.6779C67.8642 32.6202 67.1052 28.609 65.7842 24.7685C64.8003 21.5001 63.3936 18.3744 61.5998 15.4705C59.2875 11.8956 56.5582 8.70764 53.051 6.24685C51.1146 4.88823 49.151 3.56833 47.1976 2.23389C46.4194 2.44515 45.6456 2.66712 44.8794 2.9067C45.9819 3.9029 47.562 3.9558 48.7921 4.77013C52.0939 6.95592 55.299 9.21221 57.7008 12.4277Z" fill="#6292F6"/>
<path d="M53.6707 3.66686C56.5119 6.08097 59.509 8.31506 61.6033 11.5954C62.5641 13.1004 63.2682 14.7922 64.4387 16.1668C65.3 17.1782 65.6926 18.3941 66.1878 19.6005C67.0381 21.6718 67.8166 23.7522 68.462 25.8979C69.1457 28.1361 69.5806 30.4428 69.7589 32.7763C69.969 35.6767 69.9274 38.5947 70.1104 41.4979C70.1724 42.4813 69.5246 43.3326 69.7897 44.3052C70.6751 44.4011 70.9906 43.9837 70.9619 43.1236C70.973 42.4533 71.018 41.784 71.0966 41.1182C71.2756 38.6544 71.2543 36.1802 71.0328 33.7198C70.7328 30.9207 70.2319 28.1467 69.534 25.4194C69.0507 23.3716 68.389 21.3699 67.5565 19.4375C66.3426 16.6863 64.8551 14.0643 63.1164 11.6109C60.8623 8.35148 58.1041 5.47143 54.9451 3.07869C54.1809 2.50232 52.9402 2.17013 52.7394 0.988281C52.0299 1.11424 51.3257 1.25511 50.6245 1.40424C51.5501 2.29121 52.7273 2.8653 53.6707 3.66686Z" fill="#6696F7"/>
<path d="M42.5556 4.78698C46.8128 5.95859 50.2724 8.36648 53.5318 11.3103C56.8922 14.3454 59.279 17.969 61.196 21.9642C62.2645 24.3211 63.1199 26.769 63.752 29.2785C64.9268 33.5426 64.6301 37.8902 64.9519 42.2026C65.0063 42.9324 64.4265 43.5546 64.5775 44.3047C64.8675 44.3048 65.1575 44.3048 65.4476 44.3049C65.5851 42.3972 66.0165 40.5359 65.9755 38.5876C65.9004 33.2507 64.8723 27.9702 62.9395 22.995C60.2468 15.9694 55.2606 10.0589 48.7891 6.22117C47.3233 5.41663 45.8099 4.70202 44.2572 4.08131C43.8667 3.90671 43.5774 3.7384 43.4745 3.36279C42.7889 3.59482 42.1105 3.84222 41.4355 4.09664C41.5458 4.62514 42.0944 4.66005 42.5556 4.78698Z" fill="#5E8EF6"/>
<path d="M38.5063 5.8056C39.9659 6.21157 41.4004 6.70298 42.8023 7.27731C44.4407 7.94606 46.0443 8.69704 47.6071 9.5274C50.6823 11.3107 53.1503 13.7923 55.3949 16.4902C56.9335 18.4456 58.2552 20.5623 59.3369 22.803C60.5022 25.058 60.9859 27.5635 61.7764 29.9569C62.4361 31.9545 63.0522 34.0477 62.9127 36.0791C62.7243 38.8221 63.5413 41.6115 62.5507 44.3056C62.8407 44.3055 63.1307 44.3054 63.4207 44.3054C63.7939 41.6538 63.8916 38.9707 63.7123 36.299C63.5066 33.776 63.3771 31.2743 62.5735 28.8059C61.4397 25.323 60.253 21.9037 58.3709 18.7307C56.4067 15.4194 53.669 12.8578 50.8373 10.341C48.3874 8.16336 45.3411 7.08256 42.5244 5.57416C42.1864 5.40721 41.8016 5.36043 41.4334 5.44155C40.7233 5.52538 40.1108 5.3717 39.8098 4.73535C39.2191 4.97672 38.6328 5.22631 38.0508 5.48412C38.1588 5.64275 38.3206 5.75693 38.5063 5.8056Z" fill="#5B8BF6"/>
<path d="M61.5999 15.4702C63.3937 18.3741 64.8004 21.4999 65.7843 24.7682C67.1053 28.6087 67.8643 32.62 68.0379 36.6776C68.172 39.2231 68.0801 41.7755 67.7632 44.3047C68.0522 44.3049 68.3412 44.3052 68.6303 44.3054C68.8169 42.8201 68.6208 41.2684 68.8048 39.8613C69.0077 38.1288 68.9967 36.378 68.772 34.6482C68.5807 32.9597 68.7684 31.2579 68.0836 29.5462C67.5542 28.2232 67.7147 26.572 67.2143 25.1468C66.3384 22.4899 65.2638 19.9027 63.9996 17.407C61.8642 13.3249 59.0098 9.6614 55.5737 6.59267C53.9014 5.10572 51.8992 3.99135 50.0597 2.68929C49.6802 2.4206 49.1819 2.24044 49.0094 1.77002C48.402 1.91582 47.7981 2.07035 47.1978 2.2336C49.1511 3.56805 51.1148 4.88795 53.0511 6.24656C56.5583 8.70737 59.2875 11.8953 61.5999 15.4702Z" fill="#6393F6"/>
<path d="M50.0597 2.68941C51.8991 3.99146 53.9013 5.10584 55.5736 6.59279C59.0097 9.66151 61.8641 13.325 63.9995 17.4072C65.2637 19.9028 66.3384 22.49 67.2143 25.147C67.7146 26.5721 67.5542 28.2234 68.0835 29.5464C68.7683 31.2581 68.5806 32.9598 68.772 34.6483C68.9966 36.3781 69.0076 38.129 68.8047 39.8615C68.6208 41.2685 68.8168 42.8202 68.6302 44.3055C69.0167 44.3054 69.4032 44.3054 69.7896 44.3053V44.3052C69.5245 43.3327 70.1723 42.4814 70.1103 41.4979C69.9273 38.5948 69.969 35.6767 69.7589 32.7763C69.5806 30.4429 69.1456 28.1361 68.4619 25.898C67.8166 23.7523 67.038 21.6719 66.1878 19.6005C65.6925 18.3942 65.2999 17.1783 64.4386 16.1668C63.2681 14.7923 62.564 13.1005 61.6032 11.5955C59.5089 8.31511 56.5118 6.08103 53.6706 3.66691C52.7273 2.86535 51.55 2.29126 50.6244 1.4043C50.0834 1.51935 49.545 1.64129 49.0093 1.77011C49.1818 2.24055 49.6801 2.4207 50.0597 2.68941Z" fill="#6696F7"/>
<path d="M44.2573 4.08148C45.8099 4.70218 47.3233 5.41679 48.7891 6.22134C55.2607 10.0591 60.2468 15.9696 62.9396 22.9952C64.8723 27.9703 65.9005 33.2509 65.9755 38.5878C66.0166 40.536 65.5851 42.3973 65.4476 44.3051V44.3051C65.833 44.3051 66.2185 44.3051 66.604 44.3051V44.305C66.7631 42.3059 66.6468 40.2889 66.7491 38.3068C66.9628 34.1698 66.236 30.237 65.1156 26.3158C64.8508 25.3889 64.2457 24.5402 64.1506 23.6361C63.9606 21.832 62.87 20.4566 62.2189 18.8837C61.1982 16.4182 59.2748 14.5347 57.7009 12.4277C55.2992 9.21229 52.094 6.956 48.7922 4.77017C47.5621 3.95585 45.982 3.90293 44.8795 2.90674C44.409 3.05389 43.9407 3.20595 43.4746 3.36294C43.5775 3.73856 43.8667 3.90688 44.2573 4.08148Z" fill="#5F8FF6"/>
<path d="M41.4337 5.44147C41.8018 5.36035 42.1866 5.40713 42.5247 5.57408C45.3413 7.08247 48.3876 8.16328 50.8376 10.3409C53.6692 12.8577 56.407 15.4193 58.3712 18.7306C60.2533 21.9036 61.44 25.323 62.5738 28.8058C63.3774 31.2742 63.5068 33.7759 63.7126 36.2989C63.8918 38.9706 63.7941 41.6537 63.4209 44.3053C63.8064 44.3051 64.192 44.305 64.5775 44.3048V44.3047C64.4265 43.5546 65.0063 42.9324 64.9519 42.2027C64.6302 37.8903 64.9269 33.5426 63.752 29.2785C63.1199 26.769 62.2646 24.3212 61.1961 21.9642C59.279 17.969 56.8923 14.3455 53.5319 11.3104C50.2724 8.36652 46.8129 5.95863 42.5556 4.78702C42.0945 4.66009 41.5458 4.62518 41.4356 4.09668C40.8901 4.30229 40.3483 4.51516 39.8101 4.73528C40.111 5.37162 40.7236 5.5253 41.4337 5.44147Z" fill="#5B8BF6"/>
<path d="M43.1198 10.6475C45.6633 11.6249 47.7962 13.1944 49.7879 14.8222C53.0368 17.4777 55.2899 21.0448 57.1623 24.8221C58.7075 27.9735 59.6736 31.377 60.0145 34.8702C60.3385 38.0089 60.3157 41.1739 59.9463 44.3076C60.3322 44.3071 60.718 44.3066 61.1037 44.3061V44.3061C60.9913 43.4507 60.9546 42.5871 60.9943 41.7253C61.4409 38.2808 60.8883 34.91 60.2658 31.5617C59.0417 24.5987 55.4213 18.2829 50.0315 13.7077C46.0977 10.3532 41.2728 8.21583 36.1452 7.55637C35.6849 7.51961 35.257 7.3054 34.9517 6.95898C34.2576 7.31326 33.5727 7.68274 32.8936 8.06131C32.97 8.1573 33.0662 8.23575 33.1756 8.29138C33.285 8.347 33.4051 8.37849 33.5277 8.38373C36.8764 8.50753 39.9934 9.44617 43.1198 10.6475Z" fill="#5584F6"/>
<path d="M51.8808 39.4755C51.8374 38.7483 52.3272 37.9709 51.5504 37.3623C51.4679 37.4476 51.4056 37.5504 51.3682 37.6631C51.3309 37.7758 51.3193 37.8954 51.3344 38.0131C51.3999 39.3397 51.4385 40.6676 51.4911 41.9948C51.5221 42.78 50.6277 43.4737 51.2634 44.3173H51.2635L51.4069 44.32L51.5504 44.3174C51.8048 42.7166 51.9154 41.0961 51.8808 39.4755Z" fill="#4575F5"/>
<path d="M41.5672 36.4165C40.8 34.1801 39.6395 32.0362 37.6079 30.7162C32.1695 27.1829 28.1551 27.8862 23.4999 30.9487C18.7382 34.0812 16.2936 41.3679 17.5372 46.9878C18.3775 50.7844 20.2982 53.6939 23.9084 55.3064C26.6098 56.5132 29.3617 56.8602 32.2732 55.8745C34.1182 55.2498 35.6286 54.0678 37.3636 53.2844C37.3633 52.9468 37.3809 52.608 37.3571 52.272C37.3384 52.0075 37.4745 51.6434 37.0887 51.5425C36.8345 51.476 36.6435 51.674 36.4998 51.8759C35.0914 53.8549 32.847 54.431 30.7314 54.8796C29.4375 55.1894 28.0919 55.2151 26.7871 54.955C25.4823 54.695 24.2494 54.1553 23.1732 53.3731C21.8964 52.4373 20.8285 51.246 20.0374 49.875C19.2462 48.5039 18.7492 46.9832 18.5778 45.4096C18.4009 44.132 18.0688 42.7003 18.4527 41.5551C19.4339 38.6287 20.3749 35.6842 22.7695 33.3839C25.9507 30.328 31.5383 28.0617 36.2721 31.5819C38.491 33.2318 39.9631 35.1494 40.6451 37.92C41.1754 40.0747 41.1005 42.1666 41.1253 44.3015V44.3016C41.4157 44.3017 41.7061 44.3018 41.9964 44.3018V44.3018C43.078 41.6088 42.4428 38.9689 41.5672 36.4165Z" fill="#3564F5"/>
<path d="M36.7526 40.4865C36.4217 36.8505 33.2564 34.6686 30.2136 34.6689C28.458 34.6834 26.7779 35.3852 25.5336 36.6239C23.5503 38.4803 23.1517 40.8959 22.9371 43.5242C22.5605 48.1361 27.2967 51.5316 31.6656 49.7968C35.3603 48.3297 37.0804 44.0868 36.7526 40.4865ZM33.8522 42.3713C33.6884 45.0741 32.2752 47.1268 29.5951 47.1952C27.053 47.2601 25.5467 45.5134 25.4959 42.5317C25.4584 40.326 27.8808 37.9607 30.1968 37.9418C32.305 37.9245 34.007 39.816 33.8522 42.3713Z" fill="#2B58F5"/>
<path d="M2.32443 57.3348C4.26176 62.48 7.19165 66.8671 11.5882 70.1985C15.3333 73.0824 19.8168 74.8498 24.5224 75.2971C27.9123 75.5991 31.3288 75.2708 34.5991 74.329C35.5224 74.0758 36.4421 73.8095 37.3634 73.5492C37.3621 72.822 37.0782 72.6532 36.3564 72.8772C35.2202 73.2298 34.0395 73.436 32.8865 73.7378C27.8665 75.0517 22.9827 74.4472 18.1717 72.7283C15.3714 71.7277 12.9907 70.0564 10.735 68.1639C7.81047 65.7895 5.55249 62.6964 4.18211 59.1874C3.32899 56.9326 2.35498 54.6822 1.9746 52.2531C1.91982 51.9034 1.92983 51.01 1.26872 51.3018C1.1285 51.9989 1.00222 52.7011 0.884766 53.4062C1.65133 54.6 1.83579 56.0372 2.32443 57.3348Z" fill="#5382F6"/>
<path d="M1.13189 56.5723C2.29371 60.2388 4.11023 63.6644 6.49342 66.6833C8.35384 69.0109 10.6084 70.994 13.1544 72.5422C15.4338 73.9795 17.8835 74.7795 20.4196 75.5627C23.8174 76.612 27.2317 76.5434 30.674 76.2874C32.9727 76.1164 35.0656 74.9541 37.3636 74.7076V73.5493C36.4423 73.8096 35.5226 74.0759 34.5993 74.329C31.329 75.2709 27.9125 75.5991 24.5226 75.2972C19.817 74.8499 15.3335 73.0825 11.5884 70.1985C7.19186 66.8671 4.26197 62.48 2.32464 57.3349C1.836 56.0372 1.65156 54.6 0.885 53.4062C0.745197 54.2462 0.617974 55.0904 0.51123 55.9412C0.661428 55.9817 0.798103 56.0616 0.90719 56.1725C1.01628 56.2835 1.09384 56.4214 1.13189 56.5723Z" fill="#5382F6"/>
<path d="M39.7465 19.9727C41.62 20.8103 43.318 21.9948 44.751 23.4638C46.2899 25.0835 47.6925 26.8274 48.9446 28.6777C46.9716 24.0035 43.4216 21.0016 38.811 19.1245C39.0159 19.5065 39.3464 19.8061 39.7465 19.9727Z" fill="#4575F5"/>
<path d="M38.5217 19.1246C38.1637 18.8106 37.7241 18.6045 37.2538 18.5301C35.4669 17.9624 33.6091 17.8581 31.7767 17.5786C31.2874 17.4783 30.782 17.487 30.2965 17.6041C29.8109 17.7212 29.3571 17.9438 28.9673 18.2561C32.177 18.0982 35.393 18.3905 38.5217 19.1246Z" fill="#4575F5"/>
<path d="M16.5176 24.3352C18.331 23.3244 19.9888 22.0569 21.4396 20.5718C19.6026 21.5696 17.7626 22.5635 16.5176 24.3352Z" fill="#4575F5"/>
<path d="M49.813 30.7041C50.1452 32.2017 50.2702 33.7683 51.2606 35.0465C51.2349 33.4848 50.7296 31.9688 49.813 30.7041Z" fill="#4575F5"/>
<path d="M28.967 18.2562C27.6781 17.6647 26.6073 18.3812 25.4927 18.8352C26.7737 19.3796 27.8555 18.7288 28.967 18.2562Z" fill="#4575F5"/>
<path d="M25.4929 18.835C24.4451 18.9688 23.4487 19.3673 22.5977 19.9929C23.7813 20.1533 24.6327 19.4833 25.4929 18.835Z" fill="#4575F5"/>
<path d="M16.5174 24.3354C15.9327 24.7036 15.438 25.1982 15.0698 25.7829C15.432 25.7229 15.7663 25.551 16.0259 25.2915C16.2855 25.0319 16.4574 24.6976 16.5174 24.3354Z" fill="#4575F5"/>
<path d="M49.8129 30.7042C49.86 30.3896 49.8321 30.0682 49.7315 29.7664C49.6309 29.4645 49.4603 29.1907 49.2338 28.9673C49.2667 29.5996 49.0721 30.3078 49.8129 30.7042Z" fill="#4575F5"/>
<path d="M51.5502 37.0729C51.49 36.4879 51.7243 35.8538 51.2607 35.3359C51.3209 35.921 51.0866 36.5551 51.5502 37.0729Z" fill="#4575F5"/>
<path d="M5.69715 39.6987C5.63387 40.5763 5.2703 41.4369 5.80465 42.2841C6.87651 41.7261 5.89126 40.7549 6.22974 40.0966C7.4578 37.7087 7.10687 34.7861 8.81676 32.5697C9.12201 32.174 9.35311 31.7604 8.91303 31.4175C7.64534 33.5558 6.50376 35.7664 5.49414 38.038C6.27182 38.3994 5.73489 39.1758 5.69715 39.6987Z" fill="#4978F5"/>
<path d="M30.1969 37.942C27.8809 37.961 25.4585 40.3262 25.496 42.5319C25.5469 45.5136 27.0531 47.2603 29.5952 47.1955C32.2754 47.1271 33.6885 45.0743 33.8523 42.3715C34.0072 39.8162 32.3051 37.9247 30.1969 37.942Z" fill="#2653F4"/>
<path d="M84.7731 63.6903C87.5383 63.6903 91.9743 61.4144 91.9743 54.2711C91.9743 43.378 80.5224 43.934 80.5224 43.934H37.6855V82.7721H53.1333V69.5365H72.218C75.4812 69.5365 75.9706 72.2438 75.9706 72.2438V82.7721H91.9743L91.8498 70.7642C91.8498 66.8871 90.3123 63.6903 84.7731 63.6903ZM74.9253 58.8229C74.7314 59.018 74.5008 59.1729 74.2469 59.2787C73.993 59.3846 73.7207 59.4393 73.4457 59.4397H53.0754V55.2527H73.4457C73.8596 55.2521 74.2643 55.3744 74.6087 55.6041C74.953 55.8337 75.2214 56.1604 75.3799 56.5428C75.5383 56.9252 75.5797 57.346 75.4988 57.7519C75.4179 58.1578 75.2183 58.5306 74.9253 58.8229Z" fill="white"/>
</svg>
