<svg viewBox="0 0 128 128" fill="none" xmlns="http://www.w3.org/2000/svg">
<path d="M64 128C99.3462 128 128 99.3462 128 64C128 28.6538 99.3462 0 64 0C28.6538 0 0 28.6538 0 64C0 99.3462 28.6538 128 64 128Z" fill="url(#paint0_linear_329_730)"/>
<path d="M58.8302 64.0902C59.0332 64.1051 59.2371 64.1051 59.4402 64.0902H60.1602C63.0684 64.1057 65.9417 63.4558 68.5602 62.1902C71.1534 60.9595 73.52 59.2995 75.5602 57.2802C77.4888 55.3708 79.0662 53.1367 80.2202 50.6802C81.3245 48.4844 81.9193 46.0678 81.9602 43.6102C81.9478 42.0252 81.6215 40.4584 81.0002 39.0002C80.3911 37.5073 79.4223 36.1882 78.1802 35.1602C76.7345 33.9707 75.0649 33.0832 73.2702 32.5502C70.9639 31.8457 68.5612 31.5082 66.1502 31.5502C63.4578 31.5085 60.7706 31.8007 58.1502 32.4202C56.1361 32.9226 54.1939 33.6787 52.3702 34.6702C50.8547 35.5231 49.4732 36.5946 48.2702 37.8502C47.2173 38.9962 46.2607 40.227 45.4102 41.5302C44.6202 42.8002 43.9102 44.0202 43.2602 45.2202C42.6803 46.3293 42.0115 47.3894 41.2602 48.3902C40.6255 49.2643 39.8479 50.025 38.9602 50.6402C38.013 51.2462 36.9039 51.5497 35.7802 51.5102C35.0871 51.5638 34.3903 51.4782 33.7308 51.2584C33.0713 51.0386 32.4625 50.689 31.9402 50.2302C31.4951 49.7312 31.153 49.1493 30.9333 48.5178C30.7137 47.8863 30.6208 47.2177 30.6602 46.5502C30.707 44.8972 31.1095 43.2737 31.8402 41.7902C32.7538 39.9404 33.907 38.2189 35.2702 36.6702C36.9115 34.8378 38.7492 33.1913 40.7502 31.7602C42.9922 30.0946 45.414 28.6858 47.9702 27.5602C50.7956 26.2878 53.7445 25.3093 56.7702 24.6402C60.075 23.8738 63.4577 23.4946 66.8502 23.5102C70.2284 23.4979 73.5926 23.9454 76.8502 24.8402C79.8971 25.6538 82.7729 27.0087 85.3402 28.8402C87.8823 30.6291 89.9429 33.0185 91.3386 35.796C92.7343 38.5735 93.4219 41.6529 93.3402 44.7602C93.3499 47.1226 92.8946 49.4637 92.0002 51.6502C91.1313 53.8333 89.9598 55.8833 88.5202 57.7402C86.988 59.6883 85.2364 61.4532 83.3002 63.0002C81.3414 64.5772 79.2503 65.9824 77.0502 67.2002C74.8517 68.4242 72.5575 69.4676 70.1902 70.3202C68.001 71.1381 65.7415 71.754 63.4402 72.1602C64.182 76.0506 65.5318 79.7999 67.4402 83.2702C68.3749 84.9235 69.5102 86.4551 70.8202 87.8302C71.8226 88.9579 73.2097 89.6711 74.7102 89.8302C74.9665 89.8492 75.2238 89.8492 75.4802 89.8302H76.1902C78.4695 89.8742 80.7344 89.4594 82.8502 88.6102C84.578 87.9113 86.2108 86.9974 87.7102 85.8902C89.2348 84.7864 90.5834 83.458 91.7102 81.9502C92.1009 81.4404 92.5972 81.021 93.165 80.7206C93.7328 80.4203 94.3588 80.2462 95.0002 80.2102C95.324 80.205 95.6455 80.2662 95.9447 80.39C96.244 80.5138 96.5147 80.6977 96.7402 80.9302C96.9866 81.1871 97.1776 81.4918 97.3015 81.8255C97.4253 82.1592 97.4793 82.5148 97.4602 82.8702C97.4108 83.839 97.1479 84.7849 96.6902 85.6402C96.0598 86.8595 95.2087 87.9513 94.1802 88.8602C91.1532 91.8315 87.6604 94.2873 83.8402 96.1302C80.8619 97.5457 77.617 98.3126 74.3202 98.3802C71.8899 98.386 69.5151 97.6537 67.5102 96.2802C65.2808 94.7456 63.3465 92.8214 61.8002 90.6002C59.9662 87.9866 58.4047 85.192 57.1402 82.2602C55.7072 78.9519 54.4586 75.5667 53.4002 72.1202C52.7935 73.5202 52.1635 75.1869 51.5102 77.1202C50.8602 78.9902 50.1602 80.9402 49.4102 82.9502C48.6602 84.9602 47.8802 86.9502 47.0602 88.9502C46.3019 90.7796 45.392 92.5424 44.3402 94.2202C43.4762 95.6182 42.4077 96.8789 41.1702 97.9602C40.1577 98.8741 38.8441 99.3832 37.4802 99.3902C36.5662 99.4252 35.6564 99.2507 34.8202 98.8802C34.1959 98.5905 33.6531 98.1507 33.2402 97.6002C32.8625 97.0938 32.5843 96.5203 32.4202 95.9102C32.2848 95.34 32.2144 94.7563 32.2102 94.1702C32.2123 93.3604 32.3164 92.554 32.5202 91.7702C32.7136 90.9673 33.0059 90.1913 33.3902 89.4602L48.4902 61.8202C49.7902 59.5002 51.0802 57.2702 52.3802 55.1202C53.6802 52.9702 55.0002 51.0002 56.2202 49.2902C57.2719 47.8516 58.4535 46.5127 59.7502 45.2902C60.5332 44.4339 61.5979 43.8873 62.7502 43.7502C63.0467 43.7584 63.3401 43.8124 63.6202 43.9102C63.9617 43.9807 64.2788 44.1393 64.5402 44.3702C64.8641 44.6342 65.1125 44.9792 65.2602 45.3702C65.4819 45.8701 65.5879 46.4136 65.5702 46.9602C65.513 47.88 65.321 48.7864 65.0002 49.6502C64.6302 50.8102 64.1302 52.1402 63.5202 53.6502C62.9102 55.1602 62.1902 56.8102 61.3702 58.6502C60.5502 60.4902 59.7202 62.2102 58.8302 64.0902Z" fill="white"/>
<defs>
<linearGradient id="paint0_linear_329_730" x1="64" y1="0.44" x2="64" y2="132.34" gradientUnits="userSpaceOnUse">
<stop stop-color="#BF2AC2"/>
<stop offset="1" stop-color="#9D00F6"/>
</linearGradient>
</defs>
</svg>
