<svg viewBox="0 0 128 128" fill="none" xmlns="http://www.w3.org/2000/svg">
<g clip-path="url(#clip0)">
<path d="M64 -0.000127316C30.8629 -0.000130213 4.00001 26.8628 4.00001 59.9999C4 93.137 30.8629 120 64 120C97.1371 120 124 93.137 124 59.9999C124 26.8628 97.1371 -0.000124419 64 -0.000127316Z" fill="#012041"/>
<path d="M39.804 36.5914L45.6801 33.4806L46.3714 34.8632L67.8019 22.4197L66.4193 21.3827L64.691 20.3458L63.9997 20.0001L28.7432 40.3936V41.0849L38.7671 35.5545L39.804 36.5914ZM39.804 49.7262L56.741 39.7023L57.4323 41.0849L79.2084 28.6414L77.4801 27.6045L75.7519 26.9132L75.0606 26.5675L28.7432 53.1827V53.874L38.7671 48.3436L39.804 49.7262ZM39.804 55.9479L62.2714 43.1588L62.9627 44.1958L84.7388 31.7523L83.0106 31.061L81.2823 30.024L80.591 29.6784L28.7432 59.4045V60.4414L38.7671 54.5653L39.804 55.9479ZM39.804 62.1697L67.8019 46.2697L68.4932 47.3066L90.2692 35.2088L88.541 34.1719L86.8127 33.1349L86.1214 32.7893L28.7432 65.9719V66.6632L38.7671 61.1327L39.804 62.1697ZM39.804 68.7371L73.3323 49.3806L74.0236 50.7632L95.7997 38.3197L94.0714 37.2827L92.6888 36.5914L91.6519 35.9001L28.7432 72.1936V73.2306L38.7671 67.3545L39.804 68.7371ZM97.8736 39.7023L97.1823 39.011L28.7432 78.761V79.4523L38.7671 73.9219L39.804 75.3045L73.3323 55.6023L74.0236 56.9849L99.2562 42.8132V40.3936L97.8736 39.7023ZM33.2366 83.6001L38.7671 80.1436L39.4584 81.5262L73.3323 62.1697L74.0236 63.5523L99.2562 49.0349V44.5414L32.1997 82.9088L33.2366 83.6001ZM73.3323 68.7371L74.0236 70.1197L99.2562 55.2566V50.7632L37.7301 86.3653L38.7671 86.711L44.2975 83.2545L45.3345 84.6371L73.3323 68.7371ZM44.2975 89.8219L50.1736 86.711L50.8649 88.0936L73.3323 74.9588L74.0236 76.3414L99.2562 61.824V57.3306L43.2606 89.4762L44.2975 89.8219ZM49.8279 92.9327L55.704 89.8219L56.3953 91.2045L73.3323 81.5262L74.0236 82.9088L99.2562 68.3914V63.5523L48.791 92.5871L49.8279 92.9327ZM54.3214 95.6979L55.3584 96.3893L61.2345 92.9327L61.9258 94.3153L73.3323 87.7479L74.0236 89.1306L99.2562 74.6132V70.1197L54.3214 95.6979ZM60.8888 99.5001L66.4193 96.0436L67.4562 97.4262L73.3323 94.3153L74.0236 95.6979L99.2562 81.1806V76.3414L60.1975 99.1545L60.8888 99.5001ZM73.6779 25.5306L71.9497 24.4936L70.2214 23.8023L69.5301 23.111L28.7432 46.6153V47.6523L38.7671 41.7762L39.804 43.1588L51.2106 36.5914L51.9019 37.974L73.6779 25.5306Z" fill="white"/>
<path d="M64 118C96.0325 118 122 92.0325 122 60C122 27.9675 96.0325 2 64 2C31.9675 2 6 27.9675 6 60C6 92.0325 31.9675 118 64 118Z" stroke="black" stroke-opacity="0.097"/>
</g>
<defs>
<clipPath id="clip0">
<rect width="128" height="128" fill="white"/>
</clipPath>
</defs>
</svg>
