<svg viewBox="0 0 128 128" fill="none" xmlns="http://www.w3.org/2000/svg">
<path d="M123.997 59.9941C123.997 93.1269 97.1371 119.988 63.9986 119.988C30.8601 119.988 4 93.1269 4 59.9941C4 26.8614 30.8607 6.10352e-05 63.9986 6.10352e-05C97.1364 6.10352e-05 123.997 26.8589 123.997 59.9941Z" fill="#0E0E21"/>
<path d="M97.7853 73.8685L90.471 61.4213C90.2143 60.908 89.5727 60.7797 89.1878 61.1646L84.4399 64.2443C84.0549 64.501 83.9266 65.1426 84.1832 65.5276L88.4178 72.5852C88.5462 72.8419 88.4178 73.0985 88.2895 73.2269L63.6518 89.1387C63.5235 89.267 63.2668 89.267 63.1385 89.1387L38.7574 73.2269C38.5008 73.0985 38.5008 72.8419 38.6291 72.5852L42.8637 65.5276C43.1203 65.1426 42.992 64.501 42.607 64.2443L37.8591 61.1646C37.3459 60.908 36.8326 61.0363 36.5759 61.4213L29.2616 73.8685C28.7483 74.7667 29.005 75.9216 29.9032 76.4349L62.6252 97.7363C63.2668 98.1212 64.0367 98.1212 64.6784 97.7363L97.4003 76.4349C98.042 75.7933 98.2986 74.6384 97.7853 73.8685Z" fill="white"/>
<path d="M41.4522 54.4919L46.2001 57.5716C46.7134 57.8283 47.2266 57.7 47.4833 57.315L62.8819 31.1374C63.0102 30.8808 63.5235 30.8808 63.6518 31.1374L79.0504 57.315C79.307 57.8283 79.9486 57.9566 80.3336 57.5716L85.0815 54.4919C85.4665 54.2353 85.5948 53.5937 85.3381 53.2087L67.2448 21.8983C66.8598 21.2566 66.3466 21 65.5766 21H61.2137C60.5721 21 59.9305 21.385 59.5455 21.8983L41.1955 53.2087C40.9389 53.5937 41.0672 54.2353 41.4522 54.4919Z" fill="#2AE7A8"/>
<path d="M64 118C96.0325 118 122 92.0325 122 60C122 27.9675 96.0325 2 64 2C31.9675 2 6 27.9675 6 60C6 92.0325 31.9675 118 64 118Z" stroke="black" stroke-opacity="0.097"/>
</svg>
