<svg viewBox="0 0 128 128" fill="none" xmlns="http://www.w3.org/2000/svg">
<g clip-path="url(#clip0)">
<path d="M128 64.0002C128 99.3453 99.3487 128 64.0001 128C28.6515 128 0.00012207 99.3453 0.00012207 64.0002C0.00012207 28.655 28.6522 0 64.0001 0C99.348 0 128 28.6523 128 64.0002Z" fill="black"/>
<g clip-path="url(#clip1)">
<path d="M8.84906 54.2654C13.9477 23.5327 43.002 2.7504 73.7347 7.849C104.467 12.9476 125.25 42.0019 120.151 72.7346C115.052 103.467 85.9981 124.25 55.2654 119.151C24.5257 114.052 3.75045 84.9981 8.84906 54.2654Z" fill="black"/>
<path d="M8.84902 54.2654L10.9012 54.6039C15.3087 28.0178 38.3476 9.16069 64.433 9.16069C67.3878 9.16069 70.3849 9.40046 73.3961 9.90116C99.9822 14.3087 118.839 37.3476 118.839 63.4331C118.839 66.3879 118.6 69.385 118.099 72.3962C113.691 98.9894 90.6524 117.839 64.567 117.839C61.6122 117.839 58.6151 117.6 55.6039 117.099C29.0107 112.691 10.1607 89.6525 10.1607 63.5671C10.1607 60.6123 10.4005 57.6151 10.9012 54.6039L8.84902 54.2654L6.79687 53.9269C6.26092 57.1638 6 60.3866 6 63.5741C6 91.6764 26.2957 116.45 54.9269 121.21C58.1638 121.746 61.3865 122.007 64.574 122.007C92.6763 122.007 117.45 101.711 122.21 73.0802C122.739 69.8363 123 66.6135 123 63.4331C123 35.3307 102.704 10.5499 74.0731 5.79688C70.8362 5.26092 67.6135 5 64.433 5C36.3307 5 11.557 25.2957 6.79687 53.9269L8.84902 54.2654Z" fill="url(#paint0_linear)"/>
<path d="M72.9095 20.5497C96.6325 25.2464 112.062 48.2853 107.366 72.0083C102.669 95.7313 79.6301 111.161 55.9071 106.464C32.1842 101.768 16.7543 78.7289 21.451 55.0059C26.1406 31.2829 49.1795 15.8531 72.9095 20.5497Z" fill="black"/>
<path d="M72.9096 20.5497L72.5076 22.5878C92.3731 26.5157 106.132 43.9554 106.132 63.4542C106.132 66.141 105.871 68.8631 105.328 71.5993C101.4 91.4648 83.9601 105.223 64.4613 105.223C61.7744 105.223 59.0524 104.962 56.3162 104.419C36.4506 100.491 22.6922 83.0517 22.6922 63.5529C22.6922 60.8661 22.9531 58.144 23.4961 55.4078C27.4241 35.5423 44.8637 21.7838 64.3625 21.7838C67.0493 21.7838 69.7714 22.0447 72.5076 22.5878L72.9096 20.5497L73.3115 18.5117C70.3074 17.9193 67.3103 17.6302 64.3625 17.6302C42.9032 17.6302 23.7429 32.7568 19.413 54.6039C18.8206 57.6081 18.5315 60.6052 18.5315 63.5529C18.5315 85.0122 33.658 104.18 55.5052 108.502C58.5094 109.095 61.5065 109.384 64.4542 109.384C85.9135 109.384 105.074 94.2574 109.404 72.4103C109.996 69.4061 110.285 66.409 110.285 63.4612C110.285 42.002 95.1587 22.8416 73.3115 18.5117L72.9096 20.5497Z" fill="url(#paint1_linear)"/>
<path d="M44.9694 90.1249C30.2942 79.4341 27.0714 58.8774 37.7552 44.2022C48.4461 29.5269 69.0027 26.3042 83.678 36.988C98.3532 47.6788 101.576 68.2355 90.8922 82.9107C80.2013 97.586 59.6447 100.816 44.9694 90.1249Z" fill="black"/>
<path d="M44.9694 90.1248L46.1965 88.4464C37.9174 82.4169 33.5381 73.0519 33.5381 63.5317C33.5381 57.2413 35.4563 50.9086 39.4477 45.4292C45.4701 37.1571 54.8352 32.7708 64.3484 32.7708C70.6388 32.7708 76.9715 34.6889 82.4509 38.6804C90.73 44.7028 95.1093 54.0749 95.1163 63.5881C95.1163 69.8785 93.1982 76.2112 89.2067 81.6906C83.1773 89.9696 73.8122 94.3489 64.292 94.3489C58.0016 94.3489 51.6689 92.4308 46.1894 88.4394L44.9694 90.1248L43.7424 91.8032C49.9482 96.3235 57.1624 98.5096 64.292 98.5096C75.0745 98.5096 85.7301 93.5239 92.5635 84.1376C97.0838 77.9319 99.27 70.7177 99.27 63.5881C99.27 52.8056 94.2842 42.15 84.898 35.3166C78.6922 30.7962 71.478 28.6101 64.3484 28.6101C53.5658 28.6101 42.9102 33.5959 36.0768 42.9821C31.5565 49.1879 29.3704 56.4021 29.3704 63.5317C29.3704 74.3142 34.3561 84.9698 43.7424 91.8032L44.9694 90.1248Z" fill="url(#paint2_linear)"/>
</g>
<path d="M63 123.803C96.608 123.803 123.853 96.5588 123.853 62.9509C123.853 29.343 96.608 2.09839 63 2.09839C29.3921 2.09839 2.14752 29.343 2.14752 62.9509C2.14752 96.5588 29.3921 123.803 63 123.803Z" stroke="black" stroke-opacity="0.097"/>
</g>
<defs>
<linearGradient id="paint0_linear" x1="121.822" y1="75.1017" x2="7.16448" y2="51.8822" gradientUnits="userSpaceOnUse">
<stop stop-color="white"/>
<stop offset="1"/>
</linearGradient>
<linearGradient id="paint1_linear" x1="23.2599" y1="83.8175" x2="105.543" y2="43.2231" gradientUnits="userSpaceOnUse">
<stop stop-color="white"/>
<stop offset="1"/>
</linearGradient>
<linearGradient id="paint2_linear" x1="99.2618" y1="62.7206" x2="29.3092" y2="64.4043" gradientUnits="userSpaceOnUse">
<stop stop-color="white"/>
<stop offset="1"/>
</linearGradient>
<clipPath id="clip0">
<rect width="128" height="128" fill="white"/>
</clipPath>
<clipPath id="clip1">
<rect width="117" height="117" fill="white" transform="matrix(-1 0 0 1 123 5)"/>
</clipPath>
</defs>
</svg>
