<svg viewBox="0 0 128 128" fill="none" xmlns="http://www.w3.org/2000/svg">
<path d="M64 128C99.3462 128 128 99.3462 128 64C128 28.6538 99.3462 0 64 0C28.6538 0 0 28.6538 0 64C0 99.3462 28.6538 128 64 128Z" fill="white"/>
<path d="M62.7793 11.8801V51.8101C62.7793 51.8101 75.0893 46.6801 75.0893 29.7501C75.0893 21.2901 62.7793 11.8801 62.7793 11.8801Z" fill="#8CBFE8"/>
<path d="M62.7797 11.8801V51.8101C62.7797 51.8101 50.4697 46.6801 50.4697 29.7501C50.4697 21.2901 62.7797 11.8801 62.7797 11.8801Z" fill="#008CFF"/>
<path d="M108.169 59.98L92.3193 70.44C92.3193 70.44 97.5793 73.98 104.299 69.55C107.659 67.33 108.169 59.98 108.169 59.98Z" fill="#8CBFE8"/>
<path d="M108.17 59.98L92.3197 70.44C92.3197 70.44 91.1297 64.21 97.8497 59.77C101.21 57.55 108.17 59.98 108.17 59.98Z" fill="#008CFF"/>
<path d="M109.09 60.3701C109.09 60.3701 109.09 60.2901 109.07 60.2501C109.07 60.2101 109.06 60.1801 109.05 60.1401C109.05 60.1301 109.05 60.1101 109.05 60.1001C109.05 60.0601 109.03 60.0301 109.02 60.0001C109.02 59.9701 109 59.9401 108.99 59.9001C108.98 59.8601 108.96 59.8301 108.94 59.8001C108.94 59.8001 108.94 59.7901 108.94 59.7801C108.92 59.7401 108.9 59.7001 108.88 59.6701C108.88 59.6701 108.88 59.6701 108.88 59.6501C108.86 59.6201 108.85 59.6001 108.83 59.5701C108.74 59.4401 108.64 59.3201 108.52 59.2201C108.5 59.2001 108.47 59.1801 108.45 59.1601C108.42 59.1301 108.38 59.1101 108.35 59.0901C108.33 59.0701 108.3 59.0601 108.28 59.0501C108.25 59.0301 108.22 59.0101 108.18 59.0001C108.14 58.9801 108.1 58.9601 108.05 58.9401C108.01 58.9201 107.96 58.9101 107.92 58.8901C107.89 58.8801 107.85 58.8701 107.82 58.8601C102.53 57.2801 98.3496 57.5001 95.4096 59.5301C94.4296 60.2101 91.5196 62.2101 90.7696 69.0001L88.8496 70.0701C87.6396 68.8801 86.0096 68.2301 84.3396 68.2301C83.2796 68.2301 82.1996 68.4901 81.2096 69.0501C80.7596 69.3001 80.3496 69.6001 79.9796 69.9401L69.1296 63.4801C69.2396 63.0201 69.2896 62.5401 69.2896 62.0501C69.2896 59.0901 67.2896 56.6001 64.5696 55.8501V52.8501C72.5596 47.0601 76.8896 40.2701 77.1096 33.1801C77.3496 25.4701 72.7896 17.6801 63.9396 10.6701C63.9296 10.6701 63.9196 10.6501 63.8996 10.6501C63.8796 10.6301 63.8496 10.6101 63.8296 10.6001C63.7596 10.5501 63.6796 10.5001 63.5996 10.4701C63.5796 10.4601 63.5496 10.4501 63.5296 10.4401C63.4796 10.4201 63.4396 10.4001 63.3896 10.3901C63.3596 10.3901 63.3396 10.3701 63.3096 10.3701C63.2596 10.3601 63.2196 10.3501 63.1696 10.3401C63.1396 10.3401 63.1096 10.3401 63.0796 10.3301C63.0496 10.3301 63.0196 10.3301 62.9896 10.3301C62.9196 10.3301 62.8496 10.3301 62.7896 10.3301C62.7596 10.3301 62.7396 10.3301 62.7096 10.3301C62.6796 10.3301 62.6496 10.3301 62.6196 10.3401C62.5696 10.3401 62.5296 10.3601 62.4796 10.3701C62.4496 10.3701 62.4096 10.3901 62.3796 10.4001H62.3396C62.3396 10.4001 62.2396 10.4501 62.1896 10.4701C62.1496 10.4901 62.1196 10.5001 62.0796 10.5201C62.0296 10.5401 61.9896 10.5701 61.9396 10.6101C61.9196 10.6201 61.8896 10.6401 61.8696 10.6601C61.8596 10.6601 61.8496 10.6801 61.8296 10.6801C52.9496 17.7101 48.3896 25.5101 48.6196 33.2401C48.8396 40.3301 53.1696 47.1101 61.1596 52.8901V55.8701C58.4396 56.6101 56.4296 59.1101 56.4296 62.0701C56.4296 62.5601 56.4796 63.0301 56.5896 63.4901L45.7296 69.9601C45.3596 69.6201 44.9596 69.3201 44.5096 69.0701C43.5196 68.5201 42.4396 68.2501 41.3796 68.2501C39.1296 68.2501 36.9396 69.4401 35.7596 71.5501C34.0296 74.6501 35.1396 78.5701 38.2396 80.3001C38.6796 80.5501 39.1396 80.7401 39.6096 80.8701V92.5101C39.1396 92.6401 38.6796 92.8301 38.2396 93.0801C35.1396 94.8101 34.0296 98.7301 35.7596 101.83C36.9396 103.94 39.1196 105.13 41.3796 105.13C42.4396 105.13 43.5196 104.87 44.5096 104.31C45.0296 104.02 45.4896 103.67 45.8896 103.27L56.6296 109.75C56.5096 110.25 56.4396 110.77 56.4396 111.3C56.4396 114.85 59.3196 117.73 62.8696 117.73C66.4196 117.73 69.2996 114.85 69.2996 111.3C69.2996 110.76 69.2296 110.23 69.1096 109.74L79.8296 103.27C80.2296 103.67 80.6996 104.02 81.2096 104.31C82.1996 104.86 83.2796 105.13 84.3396 105.13C86.5996 105.13 88.7796 103.94 89.9596 101.83C91.6896 98.7301 90.5796 94.8101 87.4796 93.0801C87.0396 92.8301 86.5796 92.6401 86.1096 92.5101V80.8801C86.5796 80.7501 87.0396 80.5601 87.4796 80.3101C90.0996 78.8501 91.2996 75.8201 90.5596 73.0501L92.4696 71.9801C93.7796 72.4501 95.9296 73.1201 98.2696 73.1201C99.8996 73.1201 101.62 72.8001 103.21 71.8601C106.31 70.0401 108.29 66.3201 109.1 60.8101C109.11 60.7201 109.12 60.6401 109.12 60.5501C109.12 60.5001 109.12 60.4501 109.12 60.4101L109.09 60.3701ZM67.4996 66.4801L78.1596 72.8201C77.8496 73.8701 77.7996 75.0001 78.0596 76.1001L67.3796 82.0901C67.3796 82.0901 67.2896 82.0101 67.2496 81.9701C67.2196 81.9501 67.1996 81.9201 67.1696 81.9001L67.0696 81.8101C67.0096 81.7601 66.9596 81.7101 66.8996 81.6701C66.8396 81.6201 66.7796 81.5701 66.7196 81.5301C66.6896 81.5001 66.6496 81.4801 66.6096 81.4501C66.5296 81.3901 66.4396 81.3301 66.3496 81.2801H66.3396C66.2896 81.2301 66.2296 81.2001 66.1696 81.1701C66.0796 81.1101 65.9796 81.0601 65.8896 81.0101C65.8196 80.9701 65.7496 80.9401 65.6796 80.9001C65.6296 80.8701 65.5796 80.8501 65.5196 80.8201C65.4496 80.7901 65.3696 80.7501 65.2996 80.7201C65.2296 80.6901 65.1696 80.6701 65.0996 80.6401C65.0496 80.6201 65.0096 80.6101 64.9596 80.5901L64.8996 80.5701C64.8396 80.5501 64.7896 80.5301 64.7296 80.5101C64.6696 80.4901 64.6196 80.4801 64.5596 80.4601C64.5396 80.4601 64.5196 80.4601 64.4996 80.4401C64.4996 80.4401 64.4996 80.4401 64.5096 80.4401H64.5496V68.2401C65.6896 67.9301 66.7096 67.3101 67.4996 66.4701V66.4801ZM59.8296 86.3301C59.8296 86.3301 59.8296 86.2701 59.8296 86.2501C59.8296 86.1801 59.8496 86.1101 59.8596 86.0501C59.8596 86.0001 59.8796 85.9501 59.8996 85.9001C59.8996 85.8801 59.8996 85.8601 59.9096 85.8401C59.9096 85.8201 59.9196 85.7901 59.9296 85.7701C59.9496 85.7001 59.9796 85.6201 60.0096 85.5501C60.0296 85.4901 60.0596 85.4301 60.0896 85.3701C60.1196 85.3101 60.1496 85.2501 60.1796 85.1901C60.3096 84.9501 60.4696 84.7301 60.6596 84.5501C60.7096 84.5001 60.7596 84.4501 60.8096 84.4101C60.8496 84.3701 60.8996 84.3301 60.9496 84.3001C60.9496 84.3001 60.9696 84.2901 60.9696 84.2801C61.0196 84.2401 61.0696 84.2101 61.1196 84.1701C61.1196 84.1701 61.2196 84.1001 61.2696 84.0701C61.2696 84.0701 61.2896 84.0601 61.2996 84.0501C61.3096 84.0501 61.3296 84.0301 61.3396 84.0301C61.3796 84.0101 61.4096 83.9901 61.4496 83.9701C61.4496 83.9701 61.4596 83.9701 61.4696 83.9701C61.5096 83.9501 61.5396 83.9301 61.5796 83.9201C61.5796 83.9201 61.5996 83.9201 61.5996 83.9101C61.5996 83.9101 61.6196 83.9101 61.6296 83.9001C61.6696 83.8801 61.6996 83.8601 61.7396 83.8501C61.7696 83.8401 61.7896 83.8301 61.8196 83.8201C61.8396 83.8201 61.8496 83.8101 61.8696 83.8001C61.8996 83.7901 61.9196 83.7801 61.9496 83.7701C61.9696 83.7701 61.9896 83.7601 62.0096 83.7501C62.1396 83.7101 62.2696 83.6801 62.4096 83.6701H62.4196C62.4196 83.6701 62.4496 83.6701 62.4696 83.6701C62.4896 83.6701 62.5196 83.6701 62.5396 83.6701H62.5596C62.5796 83.6701 62.5896 83.6701 62.6096 83.6701C62.6696 83.6701 62.7396 83.6701 62.7996 83.6701H62.8096C62.8596 83.6701 62.9196 83.6701 62.9696 83.6701H62.9996C62.9996 83.6701 63.0596 83.6701 63.0896 83.6701C63.1096 83.6701 63.1396 83.6701 63.1596 83.6701C63.1696 83.6701 63.1896 83.6701 63.1996 83.6701C63.1996 83.6701 63.2196 83.6701 63.2296 83.6701H63.3196C63.3196 83.6701 63.3796 83.6901 63.4096 83.7001C63.4596 83.7101 63.5096 83.7201 63.5696 83.7401C63.5696 83.7401 63.5796 83.7401 63.5896 83.7401C63.5996 83.7401 63.6196 83.7401 63.6296 83.7501C63.6396 83.7501 63.6496 83.7501 63.6696 83.7501C63.6996 83.7501 63.7196 83.7701 63.7496 83.7801C63.8096 83.8001 63.8696 83.8201 63.9296 83.8501C63.9896 83.8701 64.0396 83.8901 64.0996 83.9201C64.2496 83.9901 64.3896 84.0701 64.5196 84.1601C65.2496 84.6601 65.7496 85.4601 65.8196 86.3901C65.8196 86.4801 65.8296 86.5701 65.8296 86.6601C65.8296 86.7301 65.8296 86.7901 65.8296 86.8601C65.7696 87.8101 65.2596 88.6501 64.5196 89.1601C64.3996 89.2401 64.2796 89.3101 64.1596 89.3701C64.0896 89.4101 64.0096 89.4401 63.9296 89.4701C63.9196 89.4701 63.8996 89.4801 63.8896 89.4901C63.8396 89.5101 63.7996 89.5301 63.7496 89.5401C63.6896 89.5601 63.6296 89.5801 63.5696 89.5901C63.5196 89.6001 63.4596 89.6101 63.4096 89.6201H63.3896C63.3296 89.6301 63.2696 89.6401 63.2196 89.6501C63.2196 89.6501 63.2196 89.6501 63.2096 89.6501C63.1496 89.6501 63.0896 89.6601 63.0296 89.6701C62.9596 89.6701 62.8896 89.6701 62.8296 89.6701C62.7796 89.6701 62.7196 89.6701 62.6696 89.6701C62.6296 89.6701 62.5996 89.6701 62.5596 89.6701C62.5396 89.6701 62.5196 89.6701 62.5096 89.6701C62.4896 89.6701 62.4596 89.6701 62.4396 89.6701H62.3696C62.2496 89.6501 62.1396 89.6201 62.0296 89.5901C61.9796 89.5801 61.9296 89.5701 61.8896 89.5501C61.8696 89.5501 61.8596 89.5501 61.8396 89.5301C61.7996 89.5201 61.7696 89.5001 61.7296 89.4901C61.7096 89.4901 61.6796 89.4701 61.6596 89.4601C61.6196 89.4401 61.5696 89.4201 61.5296 89.4001C61.5296 89.4001 61.5296 89.4001 61.5196 89.3901C61.4996 89.3901 61.4696 89.3701 61.4496 89.3501C61.4496 89.3501 61.4496 89.3501 61.4396 89.3501C61.3996 89.3301 61.3696 89.3201 61.3396 89.3001C61.3296 89.3001 61.3096 89.2801 61.2996 89.2801C61.2496 89.2501 61.1996 89.2201 61.1596 89.1901C61.1096 89.1601 61.0696 89.1301 61.0196 89.0901C60.9896 89.0601 60.9496 89.0401 60.9196 89.0101C60.8896 88.9801 60.8596 88.9601 60.8296 88.9301C60.7796 88.8901 60.7396 88.8501 60.6996 88.8001C60.6496 88.7501 60.6096 88.7001 60.5696 88.6501C60.5196 88.6001 60.4796 88.5501 60.4496 88.5001C60.3996 88.4301 60.3496 88.3701 60.3096 88.3001C60.2796 88.2601 60.2496 88.2101 60.2296 88.1601C60.2296 88.1601 60.1796 88.0601 60.1596 88.0101C60.0996 87.8901 60.0496 87.7701 60.0096 87.6401C59.9896 87.5801 59.9696 87.5201 59.9496 87.4501C59.8996 87.2801 59.8696 87.1101 59.8596 86.9401C59.8596 86.8901 59.8596 86.8501 59.8596 86.8101C59.8596 86.6501 59.8596 86.5001 59.8796 86.3501L59.8296 86.3301ZM62.6396 80.2301C62.6996 80.2301 62.7696 80.2301 62.8296 80.2301H62.8396C62.8896 80.2301 62.9496 80.2301 63.0096 80.2301C63.0396 80.2301 63.0596 80.2301 63.0896 80.2301C63.1096 80.2301 63.1296 80.2301 63.1496 80.2301C63.0996 80.2301 63.0496 80.2301 63.0096 80.2301C62.9596 80.2301 62.8996 80.2301 62.8396 80.2301C62.7696 80.2301 62.6996 80.2301 62.6296 80.2301H62.6396ZM63.6696 80.2801C63.7596 80.2901 63.8496 80.3001 63.9396 80.3201C63.8896 80.3201 63.8296 80.3001 63.7796 80.3001C63.7396 80.3001 63.7096 80.2901 63.6696 80.2801ZM64.0996 80.3501H64.1396C64.1396 80.3501 64.2396 80.3801 64.2896 80.3901C64.2296 80.3801 64.1696 80.3601 64.0996 80.3501ZM64.3196 80.4001H64.3496C64.3496 80.4001 64.3896 80.4201 64.4196 80.4201C64.4196 80.4201 64.4396 80.4201 64.4496 80.4201C64.4496 80.4201 64.4696 80.4201 64.4796 80.4201C64.4296 80.4101 64.3796 80.4001 64.3196 80.3801V80.4001ZM51.9996 33.1201C51.8096 26.8101 55.5596 20.2901 62.8596 14.2001C70.1296 20.2701 73.8696 26.7701 73.6796 33.0701C73.5096 38.4801 70.3696 43.7901 64.5396 48.5501V33.8301C64.5396 32.8901 63.7796 32.1301 62.8396 32.1301C61.8996 32.1301 61.1396 32.8901 61.1396 33.8301V48.5901C55.3096 43.8301 52.1696 38.5301 51.9996 33.1201ZM59.8696 61.5101C60.0196 60.7001 60.4896 60.0101 61.1396 59.5601C61.6296 59.2301 62.2096 59.0401 62.8396 59.0401C63.4696 59.0401 64.0596 59.2401 64.5396 59.5701C65.1996 60.0201 65.6696 60.7201 65.8096 61.5301C65.8396 61.7001 65.8596 61.8801 65.8596 62.0601C65.8596 63.1001 65.3396 64.0101 64.5396 64.5601C64.4896 64.5901 64.4396 64.6201 64.3896 64.6501C63.9396 64.9201 63.3996 65.0801 62.8296 65.0801C62.2596 65.0801 61.7196 64.9201 61.2596 64.6401C61.2096 64.6101 61.1696 64.5801 61.1196 64.5501C60.3296 64.0001 59.7996 63.0901 59.7996 62.0501C59.7996 61.8601 59.8196 61.6801 59.8496 61.5101H59.8696ZM58.1796 66.4801C58.9696 67.3201 59.9896 67.9401 61.1396 68.2501V80.4601C61.1396 80.4601 61.1596 80.4601 61.1696 80.4601C61.1896 80.4601 61.2096 80.4501 61.2296 80.4501C61.3496 80.4201 61.4596 80.3901 61.5796 80.3701C61.6596 80.3501 61.7396 80.3401 61.8196 80.3301C61.8796 80.3201 61.9396 80.3101 61.9896 80.3001C61.9996 80.3001 62.0096 80.3001 62.0196 80.3001C62.1196 80.2901 62.2096 80.2801 62.3096 80.2701C62.3396 80.2701 62.3696 80.2701 62.4096 80.2701H62.4296C62.3696 80.2701 62.3096 80.2701 62.2396 80.2901H62.2196C62.0896 80.3001 61.9596 80.3201 61.8296 80.3401C61.6296 80.3701 61.4296 80.4101 61.2396 80.4601L61.1396 80.4901C61.0796 80.5001 61.0296 80.5201 60.9696 80.5401H60.9296C60.8296 80.5801 60.7396 80.6101 60.6396 80.6501C60.6196 80.6501 60.5896 80.6701 60.5696 80.6701C60.4996 80.7001 60.4296 80.7201 60.3596 80.7501C60.2996 80.7801 60.2396 80.8001 60.1796 80.8301C60.1696 80.8301 60.1596 80.8301 60.1496 80.8401C60.0996 80.8601 60.0496 80.8901 59.9996 80.9101C59.9596 80.9301 59.9196 80.9501 59.8796 80.9701C59.2796 81.2801 58.7296 81.6901 58.2596 82.1701L47.5996 76.2101C47.8796 75.0801 47.8396 73.9201 47.5196 72.8401L58.1896 66.4901L58.1796 66.4801ZM38.7096 73.1901C39.2396 72.2301 40.2596 71.6401 41.3596 71.6401C41.7496 71.6401 42.1196 71.7101 42.4796 71.8601C42.5996 71.9101 42.7096 71.9601 42.8296 72.0301C43.7296 72.5301 44.2796 73.4401 44.3596 74.4001C44.3596 74.5001 44.3696 74.6001 44.3696 74.7101C44.3696 75.2001 44.2496 75.6901 43.9896 76.1501C43.7396 76.5901 43.3996 76.9501 42.9996 77.2101C42.8996 77.2701 42.8096 77.3301 42.6996 77.3801C42.2896 77.5901 41.8296 77.7001 41.3496 77.7001C40.8296 77.7001 40.3396 77.5701 39.8796 77.3101C39.7796 77.2501 39.6796 77.1901 39.5896 77.1201C38.3596 76.2401 37.9596 74.5501 38.7196 73.2001L38.7096 73.1901ZM44.3596 98.9301C44.3396 99.1201 44.3096 99.3101 44.2596 99.4901C44.0396 100.26 43.5296 100.91 42.8296 101.3C42.7996 101.32 42.7696 101.33 42.7396 101.35C42.3096 101.57 41.8496 101.69 41.3596 101.69C40.2596 101.69 39.2496 101.09 38.7196 100.14C38.3296 99.4301 38.2296 98.6201 38.4496 97.8401C38.6396 97.1701 39.0396 96.6101 39.5896 96.2101C39.6796 96.1401 39.7796 96.0801 39.8796 96.0201C40.3396 95.7701 40.8296 95.6401 41.3496 95.6401C41.8296 95.6401 42.2896 95.7501 42.6996 95.9601C42.7996 96.0101 42.8996 96.0701 42.9996 96.1301C43.4096 96.3901 43.7496 96.7501 43.9896 97.1901C44.1896 97.5501 44.3196 97.9501 44.3596 98.3501C44.3796 98.5401 44.3796 98.7301 44.3596 98.9301ZM42.9896 92.4501V80.8801C44.0896 80.5901 45.1096 80.0101 45.9296 79.1701L56.5896 85.1201C56.5896 85.1201 56.6096 85.0401 56.6196 85.0001C56.6096 85.0401 56.5996 85.0801 56.5896 85.1201C56.4696 85.6201 56.3996 86.1301 56.3996 86.6601C56.3996 87.1901 56.4596 87.6701 56.5696 88.1501C56.5796 88.2101 56.5896 88.2601 56.6096 88.3201C56.5896 88.2701 56.5796 88.2101 56.5696 88.1601L45.9096 94.1401C45.0896 93.3101 44.0696 92.7401 42.9796 92.4501H42.9896ZM58.2796 106.75L47.5696 100.29C47.8396 99.2701 47.8596 98.1701 47.5896 97.1201L58.2296 91.1501C58.3796 91.3001 58.5296 91.4401 58.6796 91.5701C58.7296 91.6101 58.7896 91.6601 58.8396 91.7001C58.8396 91.7001 58.8596 91.7201 58.8696 91.7301C58.9196 91.7701 58.9696 91.8101 59.0196 91.8401C59.1896 91.9601 59.3696 92.0801 59.5496 92.1901C59.6196 92.2301 59.6996 92.2701 59.7696 92.3101L59.8096 92.3301C59.8696 92.3601 59.9296 92.4001 59.9996 92.4301C59.9996 92.4301 60.0196 92.4301 60.0296 92.4401C60.0296 92.4401 60.0496 92.4501 60.0596 92.4501C60.0796 92.4601 60.0996 92.4701 60.1296 92.4801C60.1696 92.5001 60.2196 92.5201 60.2596 92.5401C60.2796 92.5501 60.3096 92.5601 60.3296 92.5701C60.3496 92.5801 60.3796 92.5901 60.3996 92.6001C60.4796 92.6301 60.5596 92.6601 60.6396 92.6901C60.6796 92.7101 60.7196 92.7201 60.7496 92.7301H60.7696C60.7996 92.7401 60.8296 92.7501 60.8596 92.7601C60.8596 92.7601 60.8796 92.7601 60.8896 92.7701C60.8996 92.7701 60.9096 92.7701 60.9196 92.7701C60.9396 92.7701 60.9496 92.7701 60.9696 92.7801C60.9696 92.7801 60.9896 92.7801 60.9996 92.7801C61.0496 92.7901 61.0996 92.8101 61.1396 92.8201C61.1496 92.8201 61.1596 92.8201 61.1696 92.8301C61.1596 92.8301 61.1496 92.8301 61.1396 92.8301V105.04C60.0396 105.34 59.0596 105.93 58.2796 106.71V106.75ZM65.8396 111.66C65.6496 113.15 64.3796 114.29 62.8396 114.29C61.2996 114.29 60.0396 113.15 59.8396 111.67C59.8196 111.54 59.8096 111.4 59.8096 111.27C59.8096 110.24 60.3296 109.32 61.1296 108.77C61.2096 108.72 61.2896 108.67 61.3796 108.62C61.8096 108.38 62.3096 108.25 62.8296 108.25C63.3496 108.25 63.8396 108.38 64.2696 108.62C64.3596 108.67 64.4496 108.72 64.5296 108.78C65.3196 109.33 65.8496 110.24 65.8496 111.27C65.8496 111.4 65.8496 111.53 65.8296 111.66H65.8396ZM67.3996 106.74C66.6196 105.96 65.6396 105.37 64.5496 105.07V92.8601H64.5196C64.5196 92.8601 64.5396 92.8601 64.5496 92.8601C64.6696 92.8301 64.7796 92.7901 64.8996 92.7501C64.9696 92.7301 65.0296 92.7001 65.0996 92.6801C65.1696 92.6601 65.2296 92.6301 65.2996 92.6001C65.3696 92.5701 65.4496 92.5401 65.5196 92.5001C65.5696 92.4801 65.6296 92.4501 65.6796 92.4201C65.7396 92.3901 65.8096 92.3601 65.8696 92.3201L66.0496 92.2201C66.1196 92.1801 66.1896 92.1401 66.2596 92.1001C66.3096 92.0701 66.3596 92.0301 66.4096 92.0001C66.4696 91.9601 66.5296 91.9201 66.5796 91.8801C66.8896 91.6601 67.1696 91.4201 67.4196 91.1601L78.0696 97.1101C77.8096 98.1601 77.8296 99.2501 78.0896 100.27L67.3896 106.72L67.3996 106.74ZM79.7396 94.1501L69.0896 88.2001C69.0896 88.2001 69.0696 88.2701 69.0596 88.3201C69.0696 88.2801 69.0796 88.2401 69.0896 88.2001L69.1096 88.1201C69.1096 88.1201 69.1296 88.0201 69.1396 87.9701C69.1396 87.9401 69.1496 87.9001 69.1596 87.8701C69.1796 87.7501 69.1996 87.6301 69.2196 87.5001C69.2196 87.4901 69.2196 87.4801 69.2196 87.4701C69.2396 87.3401 69.2496 87.2101 69.2596 87.0801C69.2596 86.9401 69.2696 86.8101 69.2696 86.6701C69.2696 86.5201 69.2696 86.3801 69.2596 86.2501C69.2596 86.1201 69.2396 85.9901 69.2196 85.8601C69.2196 85.8501 69.2196 85.8401 69.2196 85.8301C69.1996 85.7101 69.1896 85.5901 69.1596 85.4601C69.1396 85.3701 69.1296 85.2901 69.1096 85.2101L69.0796 85.0701C69.0796 85.0701 69.0696 85.0301 69.0596 85.0101C69.0596 85.0301 69.0696 85.0501 69.0796 85.0701L79.6896 79.1201C80.5196 79.9901 81.5596 80.5901 82.6896 80.8901V92.4601C81.5896 92.7501 80.5696 93.3301 79.7496 94.1601L79.7396 94.1501ZM87.2296 97.8401C87.4496 98.6201 87.3496 99.4301 86.9596 100.14C86.4296 101.09 85.4096 101.69 84.3196 101.69C83.8396 101.69 83.3796 101.58 82.9396 101.35C82.9096 101.34 82.8796 101.32 82.8496 101.3C82.1496 100.9 81.6296 100.26 81.4196 99.4901C81.3696 99.3101 81.3296 99.1201 81.3196 98.9401C81.2996 98.7401 81.2996 98.5501 81.3196 98.3501C81.3596 97.9501 81.4796 97.5601 81.6896 97.1901C81.9396 96.7501 82.2796 96.3901 82.6796 96.1301C82.7796 96.0701 82.8696 96.0101 82.9796 95.9601C83.3896 95.7501 83.8496 95.6401 84.3296 95.6401C84.8496 95.6401 85.3396 95.7701 85.7996 96.0201C85.8996 96.0801 85.9996 96.1401 86.0896 96.2001C86.6396 96.6001 87.0496 97.1701 87.2296 97.8301V97.8401ZM87.3396 74.8101C87.2896 75.7101 86.8496 76.5701 86.0896 77.1101C85.9996 77.1801 85.8996 77.2401 85.7996 77.3001C85.3396 77.5601 84.8496 77.6901 84.3296 77.6901C83.8096 77.6901 83.3096 77.5601 82.8796 77.3201C82.8096 77.2801 82.7496 77.2501 82.6796 77.2001C82.2696 76.9401 81.9296 76.5801 81.6896 76.1401C81.4396 75.6801 81.3096 75.1901 81.3096 74.7001C81.3096 74.5601 81.3096 74.4201 81.3296 74.2801C81.4496 73.3601 81.9896 72.5101 82.8496 72.0301C82.9596 71.9701 83.0796 71.9101 83.1896 71.8601C83.5496 71.7101 83.9296 71.6401 84.3096 71.6401C84.7396 71.6401 85.1596 71.7301 85.5496 71.9101C86.1396 72.1701 86.6296 72.6201 86.9596 73.1901C87.2496 73.7001 87.3696 74.2601 87.3396 74.8101ZM101.47 68.8801C100.03 69.7301 98.3296 69.8001 96.6996 69.5501L98.4096 68.5901C99.2296 68.1301 99.5196 67.0901 99.0596 66.2701C98.5996 65.4501 97.5596 65.1601 96.7396 65.6201L94.5296 66.8601C94.9696 65.1001 95.7696 63.3801 97.2896 62.3401C99.1196 61.0901 101.85 60.8901 105.44 61.7601C104.71 65.3701 103.37 67.7701 101.46 68.8901L101.47 68.8801Z" fill="#323232"/>
</svg>
