<svg viewBox="0 0 128 128" fill="none" xmlns="http://www.w3.org/2000/svg">
<path d="M52.1875 51.7226C56.7308 51.7226 60.414 48.0394 60.414 43.496C60.414 38.9527 56.7308 35.2695 52.1875 35.2695C47.6441 35.2695 43.9609 38.9527 43.9609 43.496C43.9609 48.0394 47.6441 51.7226 52.1875 51.7226Z" fill="#F5CB01"/>
<path d="M77.4662 53.9852C77.3176 58.5251 73.5159 62.0871 68.976 61.9385C67.9165 61.9049 66.905 61.67 65.9893 61.2721C65.4188 61.0324 64.8915 60.7256 64.4025 60.366C64.4025 60.3612 64.3929 60.366 64.3881 60.3565C63.554 59.7572 62.5041 60.0928 61.7322 60.5626C61.0371 60.9845 60.1598 61.9193 60.318 62.8254C60.3899 63.3 60.4139 63.7794 60.3995 64.2732C60.3899 64.3978 60.3899 64.532 60.3755 64.6519C60.0352 69.0096 56.3198 72.3702 51.9045 72.2264C50.845 72.1929 49.8335 71.958 48.9179 71.5601C48.3474 71.3204 47.82 71.0135 47.331 70.654C47.3167 70.6396 47.2927 70.63 47.2783 70.6156C45.5477 69.3308 44.3396 67.3941 44.028 65.1792C43.9656 64.7622 43.9369 64.3355 43.9465 63.8992C43.9465 63.8417 43.9417 63.789 43.9465 63.7314C44.0951 59.1915 47.8967 55.6296 52.4367 55.7782C53.6927 55.8165 54.872 56.1377 55.9171 56.6795C56.3006 56.876 56.6602 57.0965 57.0053 57.3506C57.0149 57.3506 57.0197 57.365 57.0293 57.365C57.8539 57.9642 58.8942 57.6143 59.666 57.1493C60.3611 56.7274 61.2385 55.7926 61.0898 54.8865C61.0275 54.4694 60.9988 54.0427 61.0083 53.6065C61.0083 53.549 61.0035 53.4962 61.0083 53.4387C61.157 48.8988 64.9586 45.3368 69.4985 45.4854C74.0385 45.6341 77.6004 49.4357 77.4518 53.9756L77.4662 53.9852Z" fill="#F5CB01"/>
<path d="M94.5475 64.1679C94.3989 68.7079 90.5972 72.2698 86.0573 72.1212C84.9978 72.0876 83.9863 71.8527 83.0706 71.4548C82.5001 71.2151 81.9728 70.9083 81.4838 70.5488C81.4838 70.544 81.4742 70.5487 81.4694 70.5392C80.6353 69.9399 79.5854 70.2755 78.8135 70.7453C78.1184 71.1672 77.2411 72.102 77.3993 73.0081C77.4089 73.0848 77.4233 73.1615 77.4281 73.243C77.4712 73.6409 77.4904 74.0484 77.476 74.4607C77.476 74.523 77.4664 74.5853 77.4664 74.6476C77.4616 74.7483 77.4521 74.8538 77.4425 74.9496C77.4233 75.1798 77.3897 75.4051 77.3514 75.6256C77.3322 75.7455 77.313 75.8605 77.2843 75.9804C77.2699 76.0331 77.2651 76.0858 77.2507 76.1386C77.2219 76.244 77.198 76.3543 77.1644 76.4598C77.1021 76.6707 77.035 76.8768 76.9583 77.0782C76.9055 77.2316 76.848 77.3706 76.7857 77.5096C76.7234 77.6535 76.6515 77.7925 76.5843 77.9363C76.5748 77.9555 76.5604 77.9843 76.5508 78.0034C76.4789 78.1473 76.4022 78.2815 76.3159 78.4205C76.2488 78.5452 76.1673 78.6698 76.0906 78.7849C76.0666 78.8232 76.0426 78.852 76.0234 78.8855C75.9563 78.9766 75.894 79.0725 75.8221 79.1588C75.592 79.456 75.3475 79.7437 75.079 80.0073C74.964 80.132 74.8393 80.2422 74.7147 80.3573C74.6524 80.41 74.5948 80.458 74.5277 80.5155C74.336 80.6785 74.1346 80.8319 73.9237 80.9757C72.519 81.9345 70.8123 82.481 68.9858 82.4187C68.4585 82.4043 67.9407 82.3372 67.4422 82.2174C66.9436 82.1071 66.4594 81.9489 65.9992 81.7523C65.4287 81.5126 64.9013 81.2058 64.4124 80.8463C64.4124 80.8415 64.4028 80.8463 64.398 80.8367C63.5638 80.2374 62.5139 80.573 61.7421 81.0428C61.047 81.4647 60.1697 82.3995 60.3279 83.3056C60.3998 83.7802 60.4237 84.2596 60.4094 84.7534C60.3998 84.878 60.3998 85.0123 60.3854 85.1321C60.045 89.4899 56.3297 92.8505 51.9192 92.7067C50.8597 92.6731 49.8482 92.4382 48.9325 92.0403C48.362 91.8006 47.8347 91.4938 47.3457 91.1342C47.3313 91.1198 47.3073 91.1103 47.293 91.0959C45.5623 89.8111 44.3542 87.8743 44.0426 85.6595C43.9803 85.2424 43.9515 84.8157 43.9611 84.3795C43.9611 84.3219 43.9563 84.2692 43.9611 84.2117C44.1097 79.6717 47.9114 76.1098 52.4513 76.2584C53.7073 76.2968 54.8867 76.618 55.9318 77.1597C56.3153 77.3562 56.6748 77.5768 57.02 77.8309C57.0296 77.8309 57.0344 77.8452 57.044 77.8452C57.8685 78.4445 58.9088 78.0945 59.6807 77.6295C60.3758 77.2076 61.2531 76.2728 61.1045 75.3667C61.0422 74.9497 61.0134 74.523 61.023 74.0867C61.023 74.0292 61.0182 73.9765 61.023 73.9189C61.0422 73.3724 61.1093 72.8403 61.2291 72.3369C62.0968 68.5784 65.5198 65.841 69.5132 65.9657C69.7049 65.9705 69.9015 65.9801 70.0933 66.004C70.2563 66.0184 70.4192 66.0424 70.5774 66.0664C70.7452 66.0951 70.913 66.1287 71.076 66.1622C71.0904 66.1718 71.1048 66.167 71.1096 66.1718C71.2726 66.2102 71.4356 66.2581 71.5986 66.3013C71.7568 66.3492 71.9294 66.4067 72.0828 66.4643C72.3944 66.5793 72.6964 66.7183 72.9984 66.8622C72.9984 66.867 73.0128 66.8717 73.0224 66.8765C73.2909 67.0204 73.5497 67.1738 73.8038 67.3416C73.8661 67.3799 73.9189 67.4231 73.9716 67.4614C74.0148 67.4806 74.0435 67.5094 74.0867 67.5381C74.0962 67.5381 74.101 67.5525 74.1106 67.5525C74.9352 68.147 75.9755 67.8018 76.7473 67.3368C77.4425 66.9149 78.3198 65.9801 78.1712 65.074C78.1088 64.6569 78.0801 64.2303 78.0897 63.794C78.0897 63.7365 78.0849 63.6837 78.0897 63.6262C78.2383 59.0863 82.0399 55.5243 86.5798 55.6729C91.1198 55.8216 94.6817 59.6232 94.5331 64.1631L94.5475 64.1679Z" fill="#F5CB01"/>
<path d="M64.0002 19.5068C88.5311 19.5068 108.484 39.4643 108.484 63.9904C108.484 88.5166 88.5263 108.474 64.0002 108.474C39.474 108.474 19.5166 88.5166 19.5166 63.9904C19.5166 39.4643 39.4692 19.5068 64.0002 19.5068ZM64.0002 0C28.6587 0 0.00976562 28.649 0.00976562 63.9904C0.00976562 99.3318 28.6587 127.981 64.0002 127.981C99.3416 127.981 127.991 99.3318 127.991 63.9904C127.991 28.649 99.3416 0 64.0002 0Z" fill="#F5CB01"/>
</svg>
