<svg viewBox="0 0 128 128" fill="none" xmlns="http://www.w3.org/2000/svg">
<path d="M123.997 59.9941C123.997 93.1269 97.1371 119.988 63.9986 119.988C30.8601 119.988 4 93.1269 4 59.9941C4 26.8614 30.8607 6.10352e-05 63.9986 6.10352e-05C97.1364 6.10352e-05 123.997 26.8589 123.997 59.9941Z" fill="#0089DB"/>
<path fill-rule="evenodd" clip-rule="evenodd" d="M98.2656 34.0656C91.7484 25.7344 82.2078 20.4266 71.6594 20.4266C51.2344 20.4266 36.2516 39.4406 36.2516 60C36.2516 74.3109 45.7922 85.0609 56.3406 85.0609C57.3484 85.0609 58.2891 84.9938 59.2969 84.7922C52.175 79.6188 47.6734 70.2125 47.6734 60C47.6734 43.7406 58.6922 31.0422 71.6594 31.0422C85.8359 31.0422 95.6453 45.0844 95.6453 60C95.5781 71.0187 91.6813 81.9703 84.7609 90.0328C78.7141 97.0875 70.9203 101.522 62.3203 102.933C62.3203 102.933 63.0594 103 64 103C87.7172 103 107 83.7172 107 60C107 50.2578 103.775 41.2547 98.2656 34.0656ZM91.7484 60C91.7484 45.6891 82.2078 34.9391 71.6594 34.9391C70.6516 34.9391 69.7109 35.0063 68.7031 35.2078C75.825 40.3813 80.3266 49.7875 80.3266 60C80.3266 76.2594 69.3078 88.9578 56.3406 88.9578C42.1641 88.9578 32.3547 74.9156 32.3547 60C32.4219 48.9813 36.3187 38.0297 43.2391 29.9672C49.2859 22.9125 57.0797 18.4781 65.6797 17.0672C65.6797 17.0672 64.9406 17 64 17C40.2828 17 21 36.2828 21 60C21 69.7422 24.225 78.7453 29.7344 85.9344C36.2516 94.2656 45.7922 99.5063 56.3406 99.5063C76.7656 99.5734 91.7484 80.5594 91.7484 60Z" fill="white"/>
<path d="M64 118C96.0325 118 122 92.0325 122 60C122 27.9675 96.0325 2 64 2C31.9675 2 6 27.9675 6 60C6 92.0325 31.9675 118 64 118Z" stroke="black" stroke-opacity="0.097"/>
</svg>
