<svg viewBox="0 0 128 128" fill="none" xmlns="http://www.w3.org/2000/svg">
<g clip-path="url(#clip0)">
<path d="M123.997 59.9941C123.997 93.1269 97.1371 119.988 63.9986 119.988C30.8601 119.988 4 93.1269 4 59.9941C4 26.8614 30.8607 6.10352e-05 63.9986 6.10352e-05C97.1364 6.10352e-05 123.997 26.8589 123.997 59.9941Z" fill="black"/>
<path fill-rule="evenodd" clip-rule="evenodd" d="M48.8026 31H57.057C57.3723 31 57.6245 31.2574 57.6245 31.572V43.6065C57.6245 43.9268 57.8824 44.1785 58.1977 44.1785H68.7966C69.1118 44.1785 69.3698 43.9268 69.3698 43.6065V31.572C69.3698 31.2574 69.622 31 69.943 31H78.1916C78.5069 31 78.7649 31.2574 78.7649 31.572V43.6065C78.7649 43.9268 79.0171 44.1785 79.3381 44.1785H89.4268C89.7478 44.1785 90 44.4359 90 44.7505V52.9641C90 53.2844 89.7478 53.5361 89.4268 53.5361H79.3381C79.0171 53.5361 78.7649 53.7935 78.7649 54.1081V66.8919C78.7649 67.2065 79.0171 67.4639 79.3381 67.4639H89.4268C89.7478 67.4639 90 67.7156 90 68.0359V76.2495C90 76.5641 89.7478 76.8215 89.4268 76.8215H79.3381C79.0171 76.8215 78.7649 77.0789 78.7649 77.3935V89.428C78.7649 89.7426 78.5069 90 78.1916 90H69.943C69.622 90 69.3698 89.7426 69.3698 89.428V77.3935C69.3698 77.0732 69.1118 76.8215 68.7966 76.8215H58.2034C57.8882 76.8215 57.6302 77.0789 57.6302 77.3935V89.428C57.6302 89.7426 57.378 90 57.0627 90H48.8083C48.4931 90 48.2351 89.7426 48.2351 89.428V77.3935C48.2351 77.0732 47.9829 76.8215 47.6619 76.8215H37.5732C37.2522 76.8215 37 76.5641 37 76.2495V68.0359C37 67.7156 37.2522 67.4639 37.5732 67.4639H47.6619C47.9829 67.4639 48.2351 67.2065 48.2351 66.8919V54.1081C48.2351 53.7935 47.9829 53.5361 47.6619 53.5361H37.5732C37.2522 53.5361 37 53.2844 37 52.9641V44.7505C37 44.4359 37.2522 44.1785 37.5732 44.1785H47.6619C47.9829 44.1785 48.2351 43.9268 48.2351 43.6065V31.572C48.2237 31.2574 48.4873 31 48.8026 31ZM69.3755 66.8976V54.1081C69.3755 53.7935 69.1176 53.5361 68.8023 53.5361H58.2034C57.8882 53.5361 57.6302 53.7935 57.6302 54.1081V66.8919C57.6302 67.2065 57.8882 67.4639 58.2034 67.4639H68.8023C69.1176 67.4696 69.3755 67.2065 69.3755 66.8976Z" fill="white"/>
</g>
<path d="M64 118C96.0325 118 122 92.0325 122 60C122 27.9675 96.0325 2 64 2C31.9675 2 6 27.9675 6 60C6 92.0325 31.9675 118 64 118Z" stroke="black" stroke-opacity="0.097"/>
<defs>
<clipPath id="clip0">
<rect width="120" height="120" fill="white" transform="translate(4)"/>
</clipPath>
</defs>
</svg>
