<svg viewBox="0 0 128 128" fill="none" xmlns="http://www.w3.org/2000/svg">
<path d="M64.0002 127.981C99.3411 127.981 127.991 99.3313 127.991 63.9904C127.991 28.6495 99.3411 0 64.0002 0C28.6592 0 0.00976562 28.6495 0.00976562 63.9904C0.00976562 99.3313 28.6592 127.981 64.0002 127.981Z" fill="#384182"/>
<path d="M68.0947 19.9766H74.2023L77.3855 23.7015L68.0947 19.9766Z" fill="white"/>
<path d="M77.7021 23.8311L91.1781 27.5896L79.6198 30.9118L77.7021 23.8311Z" fill="white"/>
<path d="M75.7217 28.7929L79.2501 30.9118L77.3133 23.8311L75.7217 28.7929Z" fill="white"/>
<path d="M68.5352 20.5327L76.963 24.0323L75.4529 28.6586L68.5352 20.5327Z" fill="white"/>
<path d="M62.207 22.9248L67.8064 20.1682L74.9543 28.6584L62.207 22.9248Z" fill="white"/>
<path d="M58.1709 27.1868L62.054 23.1694L70.084 26.8225L58.1709 27.1868Z" fill="white"/>
<path d="M58.1707 27.6805L70.0838 27.1292L56.7373 32.5943L58.1707 27.6805Z" fill="white"/>
<path d="M56.5841 32.9204L70.7312 27.1868L53.3193 39.3252L56.5841 32.9204Z" fill="white"/>
<path d="M71.1337 27.3738L79.1061 31.1035L53.8896 39.4403L71.1337 27.3738Z" fill="white"/>
<path d="M53.8896 39.7469L79.2499 31.5156L82.2318 43.7595L53.8896 39.7469Z" fill="white"/>
<path d="M53.3193 40.0298L82.232 44.2006L75.6259 91.4168L53.3193 40.0298Z" fill="white"/>
<path d="M82.5432 44.6177L86.9058 50.0876L76.124 90.6497L82.5432 44.6177Z" fill="white"/>
<path d="M53.1416 40.5908L75.0886 91.4169H61.2387L53.1416 40.5908Z" fill="white"/>
<path d="M52.8399 40.9407L60.8268 91.4168L38.2422 108.22L52.8399 40.9407Z" fill="white"/>
</svg>
