<svg viewBox="0 0 128 128" fill="none" xmlns="http://www.w3.org/2000/svg">
<g clip-path="url(#clip0)">
<path d="M123.997 59.9941C123.997 93.1269 97.1371 119.988 63.9986 119.988C30.8601 119.988 4 93.1269 4 59.9941C4 26.8614 30.8607 6.10352e-05 63.9986 6.10352e-05C97.1364 6.10352e-05 123.997 26.8589 123.997 59.9941Z" fill="#20EE82"/>
<path d="M83.1568 66.4955V80.1442H69.4965C66.797 80.1442 64.1581 79.3437 61.9136 77.844C59.669 76.3442 57.9196 74.2126 56.8865 71.7186C55.8534 69.2247 55.5832 66.4804 56.1098 63.8328C56.6364 61.1852 57.9364 58.7533 59.8452 56.8445C61.7541 54.9357 64.1861 53.6358 66.8337 53.1091C69.4814 52.5825 72.2257 52.8528 74.7198 53.8858C77.2138 54.9188 79.3455 56.6682 80.8452 58.9127C82.345 61.1572 83.1455 63.7961 83.1455 66.4955H83.1568ZM69.6767 43.7478C66.6894 43.659 63.7138 44.1596 60.9199 45.2208C58.126 46.282 55.5684 47.8831 53.3933 49.9327C51.2182 51.9822 49.4681 54.4402 48.2429 57.1661C47.0177 59.892 46.3414 62.8326 46.2527 65.8198C46.164 68.8071 46.6645 71.7826 47.7257 74.5765C48.787 77.3703 50.3881 79.9278 52.4377 82.1028C54.4874 84.2779 56.9454 86.028 59.6714 87.2531C62.3974 88.4783 65.338 89.1545 68.3253 89.2433H92.2448V66.7658C92.2448 54.2207 82.2221 43.8379 69.6767 43.7478" fill="white"/>
<path d="M34.4622 31.4437C35.097 30.806 35.9066 30.3708 36.7887 30.1932C37.6708 30.0155 38.5857 30.1035 39.4179 30.4458C40.25 30.7881 40.9619 31.3695 41.4636 32.1164C41.9653 32.8634 42.2343 33.7423 42.2365 34.642C42.2387 35.5418 41.9741 36.422 41.476 37.1714C40.978 37.9208 40.2689 38.5057 39.4385 38.8521C38.608 39.1985 37.6935 39.2909 36.8106 39.1176C35.9276 38.9442 35.1159 38.513 34.478 37.8784L34.4622 37.8627C33.6136 37.0101 33.1372 35.8561 33.1372 34.6532C33.1372 33.4503 33.6136 32.2963 34.4622 31.4437" fill="white"/>
</g>
<path d="M64 118C96.0325 118 122 92.0325 122 60C122 27.9675 96.0325 2 64 2C31.9675 2 6 27.9675 6 60C6 92.0325 31.9675 118 64 118Z" stroke="black" stroke-opacity="0.097"/>
<defs>
<clipPath id="clip0">
<rect width="120" height="120" fill="white" transform="translate(4)"/>
</clipPath>
</defs>
</svg>
