<svg viewBox="0 0 128 128" fill="none" xmlns="http://www.w3.org/2000/svg">
<path d="M123.997 59.9941C123.997 93.1269 97.1371 119.988 63.9986 119.988C30.8601 119.988 4 93.1269 4 59.9941C4 26.8614 30.8607 6.10352e-05 63.9986 6.10352e-05C97.1364 6.10352e-05 123.997 26.8589 123.997 59.9941Z" fill="white"/>
<path d="M64 120C97.1371 120 124 93.1371 124 60C124 26.8629 97.1371 0 64 0C30.8629 0 4 26.8629 4 60C4 93.1371 30.8629 120 64 120Z" fill="#1B1B1B"/>
<path fill-rule="evenodd" clip-rule="evenodd" d="M81.3 42.9836C82.1 43.7705 83.4 43.6721 84 42.7869C84.6 42.0984 84.5 41.0164 83.8 40.4262C77.2 34.2295 71.3 31.082 61.5 31.5738C51.2 32.0656 42.1 37.3771 42.7 48.5902C43.2 58.5246 53 62.1639 61.6 65.4098C68.2 67.8689 74 70.0328 74.3 74.6557C74.6 79.7705 69.3 82.8197 64.7 83.1148C56 83.6066 50.9 80.5574 45.2 75.1475C44.5 74.459 43.4 74.459 42.7 75.0492C41.9 75.7377 41.9 76.918 42.6 77.7049C49 84 55.6 87.1475 65.2 86.6557C74.8 85.9672 86.6 80.6557 86 69.4426C85.5 59.7049 76.1 56.0656 67.6 52.918C60.6 50.2623 54.1 47.8033 53.8 42.1967C53.6 38.1639 58.5 35.2131 62 35.0164C70.5 34.623 75.8 37.5738 81.3 42.9836ZM82.4 69.6393C82.4 73.9672 80 77.7049 76.4 79.8688L76.2 79.7705C77.5 78 77.7 75.7377 77.7 73.5738C77.7 67.1803 70.6 64.7213 63.1 62.0656C54.8 59.1148 46.1 56.0656 46.1 47.4098C46.1 43.4754 47.9 39.2459 51.4 37.2787L51.5 37.4754C50.6 39.3443 50.2 41.4098 50.2 43.4754C50.2 50.5574 58.1 53.4098 66.1 56.3607C74.3 59.3115 82.4 62.2623 82.4 69.6393Z" fill="white"/>
<path d="M63.5 106.23C89.7 106.23 111 85.2787 111 59.5082C111 33.7377 89.7 12.7869 63.5 12.7869C37.3 12.7869 16 33.7377 16 59.5082C16 85.2787 37.3 106.23 63.5 106.23Z" stroke="white" stroke-width="2" stroke-linecap="round"/>
<path d="M64 118C96.0325 118 122 92.0325 122 60C122 27.9675 96.0325 2 64 2C31.9675 2 6 27.9675 6 60C6 92.0325 31.9675 118 64 118Z" stroke="black" stroke-opacity="0.097"/>
</svg>
