<svg viewBox="0 0 128 128" fill="none" xmlns="http://www.w3.org/2000/svg">
<path d="M63.9808 127.962C99.3165 127.962 127.962 99.3165 127.962 63.9808C127.962 28.6452 99.3165 0 63.9808 0C28.6452 0 0 28.6452 0 63.9808C0 99.3165 28.6452 127.962 63.9808 127.962Z" fill="#C24535"/>
<path d="M93.6943 64.5801H74.2642V74.4413H93.6943V64.5801Z" fill="white"/>
<path d="M93.6943 79.499H74.2642V89.3603H93.6943V79.499Z" fill="white"/>
<path d="M93.6943 94.3555H74.2642V104.217H93.6943V94.3555Z" fill="white"/>
<path d="M53.4628 64.5801H34.0327V74.4413H53.4628V64.5801Z" fill="white"/>
<path d="M53.4628 79.499H34.0327V89.3603H53.4628V79.499Z" fill="white"/>
<path d="M53.4628 94.3555H34.0327V104.217H53.4628V94.3555Z" fill="white"/>
<path d="M48.2515 47.4608L59.1482 27H67.9788L78.9379 47.4608L70.0498 52.2548C70.0498 52.2548 64.7524 43.3044 63.5923 37.5181C62.6335 41.2334 59.2106 49.9825 57.2594 51.7083C53.3043 50.1551 48.2515 47.4608 48.2515 47.4608Z" fill="white"/>
<path d="M69.2687 63.5876V112.108H58.3767V63.5876C30.7488 58.7936 32.7288 38.9176 35.0395 31.4102C37.3502 23.9028 36.0127 21.5058 34.0375 18.6198C34.0375 18.6198 38.8315 16.9706 44.6802 15.1489C50.3755 23.9843 44.5172 31.4869 44.2008 36.6069C43.4673 48.5632 51.2864 52.4271 58.3815 53.5058C60.1871 53.7751 62.0117 53.8969 63.8371 53.8701C65.6609 53.897 67.4839 53.7752 69.2879 53.5058C76.3878 52.4319 84.202 48.5632 83.4685 36.6069C83.1426 31.4869 77.2795 23.9843 82.9891 15.1489C88.8474 16.9706 93.6318 18.6198 93.6318 18.6198C91.6519 21.4962 90.3336 23.8932 92.6395 31.4102C94.9454 38.9272 96.9014 58.7984 69.2687 63.5876Z" fill="white"/>
</svg>
