<svg viewBox="0 0 128 128" fill="none" xmlns="http://www.w3.org/2000/svg">
<path d="M123.997 59.9941C123.997 93.1269 97.1371 119.988 63.9986 119.988C30.8601 119.988 4 93.1269 4 59.9941C4 26.8614 30.8607 6.10352e-05 63.9986 6.10352e-05C97.1364 6.10352e-05 123.997 26.8589 123.997 59.9941Z" fill="white"/>
<path fill-rule="evenodd" clip-rule="evenodd" d="M100 66.4859V72.2768C100 88.4915 75.9806 97.7571 68.6806 100.073L66.0903 101V91.0395L67.5032 90.5763C79.0419 86.4068 90.5806 79.226 90.5806 72.2768V66.4859H100ZM63.5 19L73.3903 22.0113V32.2034L63.5 29.1921L62.7935 29.4237V52.3559H73.1548V61.8531H62.7935V100.768L59.9677 99.8418C58.7903 99.3785 56.671 98.6836 54.0806 97.5254L52.9032 97.0621V22.0113L63.5 19ZM50.0774 23.1695V33.3616L36.6548 37.2994V52.3559H50.0774V96.1356L47.0161 94.7458C37.8323 90.113 27 82.4689 27 71.5819V66.4859H36.6548V71.5819C36.6548 73.8983 37.8323 76.2147 40.1871 78.5311V61.8531H27V29.887L50.0774 23.1695ZM76.2161 22.9379L99.7645 30.1186V62.0847H85.871V75.983C85.871 75.983 82.8097 79.9209 76.2161 83.1638C76.2161 81.3107 76.2161 53.2825 76.2161 36.1412V22.9379ZM86.1065 35.9096V52.3559H90.3452V37.2994L86.1065 35.9096Z" fill="#050101"/>
<path d="M64 118C96.0325 118 122 92.0325 122 60C122 27.9675 96.0325 2 64 2C31.9675 2 6 27.9675 6 60C6 92.0325 31.9675 118 64 118Z" stroke="black" stroke-opacity="0.097"/>
</svg>
