<svg viewBox="0 0 128 128" fill="none" xmlns="http://www.w3.org/2000/svg">
<g clip-path="url(#clip0_205:106)">
<path d="M63.9999 -0.000478618C28.6536 -0.000481708 -0.000220197 28.6533 -0.000223287 63.9996C-0.000226377 99.3459 28.6536 128 63.9999 128C99.3462 128 128 99.3459 128 63.9996C128 28.6534 99.3462 -0.000475527 63.9999 -0.000478618Z" fill="white"/>
<g clip-path="url(#clip1_205:106)">
<path d="M85.0944 25.1821C82.6741 27.5752 80.4567 30.1689 78.4857 32.9345L77.8626 32.7339C74.2683 31.5732 70.5437 30.8567 66.7901 30.6131C65.6596 30.5271 61.4423 30.5271 60.0654 30.6131C55.906 30.8854 52.7176 31.5015 49.0944 32.7482C48.9495 32.8055 48.8191 32.8485 48.6886 32.8915C46.6452 30.1402 44.3698 27.5609 41.8625 25.1965C53.8915 19.1063 67.964 18.3755 80.5582 23.176C81.906 23.6775 83.2249 24.265 84.5147 24.8955L85.0944 25.1821Z" fill="#F00500"/>
<path d="M107.529 79.5347C105.703 84.6791 102.964 89.4509 99.413 93.6065C97.4855 95.842 95.355 97.8911 93.0652 99.754C87.7029 104.024 81.442 107.076 74.7608 108.681C67.3695 110.444 59.6594 110.444 52.2681 108.681C45.5724 107.076 39.3261 104.024 33.9637 99.754C31.6739 97.8911 29.5434 95.842 27.6159 93.6065C17.3985 81.6699 14.2971 65.2767 19.5 50.5027C20.4855 47.7657 21.7174 45.1291 23.1956 42.6214C23.8768 41.475 24.7174 40.1853 25.1232 39.6551C26.5145 45.5733 28.2246 50.775 28.8623 52.6522C28.8188 52.7525 28.7608 52.8671 28.7029 52.9674C25.3261 59.7311 23.5 66.2511 23.0652 73.1867C23.0652 73.2726 23.0507 73.373 23.0507 73.4589C22.9348 75.5367 22.9927 76.5255 23.3406 77.8295C24.4275 81.9135 27.7753 86.413 33.0217 90.8266C41.6159 98.0488 53.2681 103.265 62.0942 103.867C71.2971 104.483 84.8768 99.1665 93.9202 91.3998C95.3405 90.1531 96.6739 88.8347 97.9202 87.4304C98.8188 86.3987 100.152 84.6218 100.051 84.6218C100.022 84.6218 100.051 84.5931 100.109 84.5645C100.152 84.5358 100.196 84.4928 100.167 84.4642C100.152 84.4498 100.181 84.4069 100.225 84.3925C100.268 84.3782 100.297 84.3495 100.283 84.3209C100.268 84.2922 100.283 84.2636 100.341 84.2492C100.384 84.2349 100.399 84.1919 100.384 84.1632C100.37 84.1346 100.384 84.1059 100.413 84.1059C100.442 84.1059 100.471 84.0629 100.471 84.0343C100.471 84.0056 100.5 83.9626 100.529 83.9626C100.558 83.9626 100.587 83.934 100.587 83.9053C100.63 83.7907 100.703 83.676 100.775 83.5757C100.993 83.2461 101.862 81.7129 101.978 81.4549C102.804 79.6064 103.326 77.9585 103.572 76.3106C103.688 75.5224 103.761 74.0751 103.703 73.7312C103.688 73.6739 103.688 73.5736 103.674 73.4159C103.645 73.1294 103.63 72.6995 103.601 72.2696C103.572 71.6247 103.514 70.722 103.471 70.2777C102.848 63.772 101.167 58.4557 97.9782 52.8241C97.8478 52.6092 97.7319 52.3942 97.6594 52.2223C97.6304 52.1793 97.6159 52.1363 97.6014 52.1076C98.0507 50.775 99.8913 45.2007 101.355 38.824L101.384 38.8526L101.601 39.1392C101.978 39.6408 102.978 41.1311 103.427 41.8475C105.471 45.1434 107.065 48.6828 108.196 52.3799C110.819 61.2787 110.601 70.765 107.529 79.5347Z" fill="#F00500"/>
<path d="M88.7175 62.4107C88.674 62.64 87.9929 63.3278 87.3117 63.8294C85.3117 65.2767 81.732 66.6237 78.0943 67.2685C76.0219 67.6411 73.9494 67.6984 73.3262 67.3975C72.9204 67.1969 72.8624 67.0393 73.0074 66.5234C73.3117 65.4486 74.2972 64.2736 75.8334 63.1702C76.6161 62.6114 79.79 60.7055 81.2682 59.903C83.703 58.5847 85.674 57.7966 87.0074 57.6103C87.4277 57.553 87.9349 57.5386 88.0943 57.6103C88.3552 57.7106 88.6451 58.4701 88.761 59.3872C88.819 59.8744 88.79 62.0238 88.7175 62.4107Z" fill="black"/>
<path d="M54.5725 67.154C54.4856 67.3259 54.0508 67.5122 53.558 67.5839C53.0653 67.6555 51.558 67.6125 50.703 67.5122C47.6305 67.111 44.3696 66.1796 41.9928 65.0332C40.6595 64.3884 39.703 63.7435 38.9928 63.0414L38.587 62.6258L38.5436 62.0813C38.4711 61.1355 38.4856 59.6452 38.6015 59.115C38.674 58.6708 38.8334 58.2409 39.0508 57.854C39.1667 57.7107 39.1668 57.7107 39.6885 57.7107C40.3262 57.7107 40.8624 57.811 41.732 58.0833C43.5146 58.6278 46.1667 59.9461 49.3986 61.8663C52.0653 63.4426 53.0653 64.2164 53.8334 65.2768C54.3551 65.936 54.703 66.8674 54.5725 67.154Z" fill="black"/>
<path d="M75.0944 87.1009C75.0944 87.1439 74.9205 87.8317 74.7031 88.6485C74.4857 89.4653 74.3118 90.1245 74.3118 90.1531C74.1523 90.1675 74.0074 90.1818 73.848 90.1675H73.3842L72.7465 91.6578C72.3987 92.4746 72.0799 93.234 72.0364 93.3487L71.9494 93.5493L71.6451 93.0621L71.3407 92.5749V88.6055L71.2248 88.6342C70.9784 88.6915 69.2248 88.9208 68.4567 88.9924C65.2828 89.3077 62.0944 89.236 58.9349 88.7918C58.4277 88.7202 57.9929 88.6628 57.9784 88.6772C57.9639 88.6915 57.9784 89.6086 58.0074 90.7406L58.0509 92.7755L57.8045 93.1481C57.6741 93.3487 57.5436 93.5206 57.5436 93.5349C57.5002 93.5779 57.3552 93.3487 57.0219 92.6895C56.6596 92.0017 56.3987 91.2709 56.2103 90.5114L56.1088 90.0958L55.6596 90.1245L55.2103 90.1675L55.0944 89.6373C55.0364 89.3507 54.9639 88.9064 54.9349 88.6628L54.8915 88.2043L54.5146 87.8747C54.2973 87.6884 54.0799 87.5021 54.0364 87.4735C53.9639 87.4161 53.9349 87.3158 53.9349 87.2299V87.0579L55.7465 87.0722L57.5581 87.0866L57.6161 87.2729L57.6741 87.4591L58.2973 87.4878C58.6451 87.5021 59.7465 87.5308 60.732 87.5595L62.5436 87.6024L63.0074 86.886L63.4857 86.1695H64.0944L64.0799 84.6792L64.0654 83.1889L63.2683 82.845C60.7031 81.7272 59.1958 80.4519 58.6306 78.9043C58.5147 78.589 58.5147 78.4744 58.4857 77.0414C58.4712 75.6228 58.4712 75.4938 58.5726 75.1785C58.7755 74.4621 59.3407 73.9032 60.0654 73.7169C60.3118 73.6453 60.9639 73.6453 64.3842 73.6453L68.4132 73.6596L68.8625 73.8745C69.3987 74.1325 69.6451 74.3188 69.9494 74.72C70.2973 75.1785 70.3987 75.5368 70.3987 76.4109C70.3987 77.6576 70.3118 78.7323 70.1813 79.1622C69.9929 79.7497 69.7031 80.3086 69.3407 80.8101C68.6161 81.7272 67.2973 82.6443 66.0944 83.0599L65.7465 83.1889L65.761 84.6935L65.7755 86.1981L66.0944 86.2268L66.4132 86.2554L66.848 86.9003L67.2683 87.5451H69.2103C70.2828 87.5451 71.2248 87.5594 71.3118 87.5738C71.4567 87.6024 71.4857 87.5881 71.6306 87.3445L71.8045 87.0866H73.4712C74.7176 87.0292 75.0944 87.0579 75.0944 87.1009Z" fill="black"/>
<path d="M67.4421 91.2134C67.1667 91.371 66.9783 91.4427 66.9349 91.414C66.8914 91.3997 66.6885 91.2277 66.4711 91.0701L66.0798 90.7548L65.674 91.1847C64.7899 92.1305 64.7609 92.1735 64.5001 92.1878C64.0943 92.2308 64.0073 92.1591 63.5146 91.4283C63.2537 91.0558 63.0508 90.7405 63.0508 90.7405C63.0508 90.7405 62.8624 90.7118 62.645 90.6975L62.2392 90.6545L62.0508 91.0414L61.8624 91.4283L61.5291 91.328C61.2682 91.242 61.0073 91.1417 60.761 91.0271L60.3262 90.8121V89.9954L64.1812 90.0097L68.0363 90.024L68.0508 90.4109C68.0653 90.8695 68.0798 90.8551 67.4421 91.2134Z" fill="black"/>
<path d="M103.674 73.7314C103.66 73.6741 103.66 73.5737 103.645 73.4161C100.167 73.0435 90.2394 72.8143 81.022 80.3374C81.022 80.3374 78.051 66.8674 64.1379 66.8674C50.2249 66.8674 45.0655 80.3374 45.0655 80.3374C37.2684 72.0405 26.8336 72.6423 23.0655 73.1868C23.0655 73.2728 23.051 73.3731 23.051 73.4591C22.935 75.5369 22.993 76.5257 23.3408 77.8297C24.4278 81.9136 27.7756 86.4132 33.022 90.8267C41.6162 98.0489 53.2684 103.265 62.0944 103.867C71.2973 104.483 84.8771 99.1666 93.9205 91.3999C95.3408 90.1532 96.6742 88.8349 97.9205 87.4306C98.8191 86.3988 100.152 84.622 100.051 84.622C100.022 84.622 100.051 84.5933 100.109 84.5646C100.152 84.536 100.196 84.493 100.167 84.4643C100.152 84.45 100.181 84.407 100.225 84.3927C100.268 84.3784 100.297 84.3497 100.283 84.321C100.268 84.2924 100.283 84.2637 100.341 84.2494C100.384 84.2351 100.399 84.1921 100.384 84.1634C100.37 84.1348 100.384 84.1061 100.413 84.1061C100.442 84.1061 100.471 84.0631 100.471 84.0344C100.471 84.0058 100.5 83.9628 100.529 83.9628C100.558 83.9628 100.587 83.9341 100.587 83.9055C100.631 83.7908 100.703 83.6762 100.776 83.5759C100.993 83.2463 101.863 81.713 101.979 81.4551C102.805 79.6066 103.326 77.9586 103.573 76.3107C103.66 75.5226 103.732 74.0753 103.674 73.7314ZM67.4423 91.2136C67.1669 91.3713 66.9785 91.4429 66.935 91.4142C66.8916 91.3999 66.6886 91.228 66.4713 91.0703L66.08 90.7551L65.6742 91.185C64.7901 92.1307 64.7611 92.1737 64.5002 92.1881C64.0944 92.231 64.0075 92.1594 63.5147 91.4286C63.2539 91.056 63.051 90.7408 63.051 90.7408C63.051 90.7408 62.8626 90.7121 62.6452 90.6978L62.2394 90.6548L62.051 91.0417L61.8626 91.4286L61.5292 91.3283C61.2684 91.2423 61.0075 91.142 60.7611 91.0273L60.3263 90.8124V89.9956L64.1814 90.0099L68.0365 90.0243L68.051 90.4112C68.0655 90.8697 68.08 90.8554 67.4423 91.2136ZM74.6887 88.6343C74.4713 89.4511 74.2973 90.1102 74.2973 90.1389C74.1379 90.1532 73.993 90.1676 73.8336 90.1532H73.3698L72.7466 91.6579C72.3988 92.4747 72.08 93.2341 72.0365 93.3488L71.9495 93.5494L71.6452 93.0622L71.3408 92.575V88.6056L71.2249 88.6343C70.9785 88.6916 69.2249 88.9209 68.4568 88.9925C65.2829 89.3078 62.0944 89.2361 58.935 88.7919C58.4278 88.7203 57.993 88.6629 57.9785 88.6773C57.964 88.6916 57.9785 89.6087 58.0075 90.7408L58.051 92.7756L57.8046 93.1482C57.6742 93.3488 57.5437 93.5207 57.5437 93.535C57.5002 93.578 57.3553 93.3488 57.022 92.6896C56.6597 92.0018 56.3988 91.271 56.2104 90.5115L56.1089 90.0959L55.6597 90.1246L55.2104 90.1676L55.0944 89.6374C55.0365 89.3508 54.964 88.9065 54.935 88.6629L54.8916 88.2044L54.5147 87.8748C54.2973 87.6885 54.08 87.5022 54.0365 87.4736C53.964 87.4163 53.935 87.3159 53.935 87.23V87.058L55.7466 87.0723L57.5582 87.0867L57.6162 87.273L57.6742 87.4592L58.2974 87.4879C58.6452 87.5022 59.7466 87.5309 60.7321 87.5596L62.5437 87.6025L63.0075 86.8861L63.4857 86.1696H64.0945L64.0799 84.6793L64.0655 83.189L63.2684 82.8451C60.7031 81.7274 59.1959 80.452 58.6307 78.9044C58.5147 78.5891 58.5147 78.4745 58.4858 77.0415C58.4713 75.6229 58.4713 75.4939 58.5727 75.1787C58.7756 74.4622 59.3408 73.9033 60.0655 73.717C60.3118 73.6454 60.964 73.6454 64.3843 73.6454L68.4133 73.6597L68.8626 73.8747C69.3988 74.1326 69.6452 74.3189 69.9495 74.7201C70.2973 75.1787 70.3988 75.5369 70.3988 76.411C70.3988 77.6577 70.3118 78.7324 70.1814 79.1623C69.993 79.7499 69.7031 80.3087 69.3408 80.8103C68.6162 81.7274 67.2973 82.6445 66.0944 83.06L65.7466 83.189L65.7611 84.6936L65.7756 86.1982L66.0944 86.2269L66.4133 86.2555L66.8481 86.9004L67.2684 87.5452H69.2104C70.2829 87.5452 71.2249 87.5596 71.3118 87.5739C71.4568 87.6025 71.4858 87.5882 71.6307 87.3446L71.8046 87.0867H73.4713C74.7611 87.0867 75.1379 87.101 75.1379 87.144C75.0944 87.1297 74.906 87.8318 74.6887 88.6343Z" fill="white"/>
<path d="M103.558 72.2696C103.529 71.6247 103.471 70.7219 103.428 70.2777C102.804 63.772 101.123 58.4557 97.9349 52.8241C97.8045 52.6091 97.6885 52.3942 97.6161 52.2222C97.5871 52.1793 97.5726 52.1363 97.5581 52.1076C98.0074 50.7749 99.848 45.2007 101.312 38.8239C103.297 30.1688 104.558 20.052 100.703 17.0141C100.703 17.0141 94.0364 16.5269 85.1088 25.182C82.6885 27.5751 80.4711 30.1688 78.5001 32.9344L77.877 32.7338C74.2828 31.5731 70.5581 30.8566 66.8045 30.613C65.6741 30.527 61.4567 30.527 60.0798 30.613C55.9204 30.8853 52.732 31.5014 49.1088 32.7481C48.9639 32.8054 48.8335 32.8484 48.703 32.8914C46.6596 30.1401 44.3842 27.5608 41.877 25.1964C32.5871 16.4982 25.6741 16.9997 25.6741 16.9997C21.5871 20.138 22.9784 30.7133 25.0943 39.6551C26.4857 45.5732 28.1958 50.7749 28.8335 52.6521C28.79 52.7524 28.732 52.8671 28.6741 52.9674C25.2972 59.731 23.4712 66.2511 23.0364 73.1866C26.819 72.6421 37.2393 72.0259 45.0509 80.3372C45.0509 80.3372 50.2103 66.8672 64.1233 66.8672C78.0364 66.8672 81.0074 80.3372 81.0074 80.3372C90.2248 72.8141 100.152 73.0577 103.631 73.4159C103.616 73.1293 103.587 72.6994 103.558 72.2696ZM31.5726 47.2498C31.5726 47.2498 26.1523 33.8515 27.5436 26.1994C27.7755 24.9098 28.2103 23.7777 28.8915 22.9179C28.8915 22.9179 35.0364 23.5198 44.9494 34.4104C44.9494 34.4104 43.0654 35.3132 40.5436 37.2333C40.5436 37.2333 40.5291 37.2477 40.5146 37.2477C37.7755 39.3255 34.2683 42.6213 31.5726 47.2498ZM54.5726 67.1538C54.4856 67.3258 54.0509 67.5121 53.5581 67.5837C53.0654 67.6554 51.5581 67.6124 50.703 67.5121C47.6306 67.1108 44.3697 66.1794 41.9929 65.033C40.6596 64.3882 39.703 63.7434 38.9929 63.0412L38.5871 62.6256L38.5436 62.0811C38.4712 61.1353 38.4857 59.6451 38.6016 59.1149C38.6741 58.6706 38.8335 58.2407 39.0509 57.8538C39.1668 57.7105 39.1668 57.7105 39.6886 57.7105C40.3262 57.7105 40.8625 57.8108 41.732 58.0831C43.5146 58.6276 46.1668 59.946 49.3987 61.8662C52.0654 63.4424 53.0654 64.2162 53.8335 65.2766C54.3552 65.9358 54.703 66.8672 54.5726 67.1538ZM88.7175 62.4107C88.674 62.64 87.9929 63.3278 87.3117 63.8293C85.3117 65.2766 81.732 66.6236 78.0943 67.2685C76.0219 67.641 73.9494 67.6984 73.3262 67.3974C72.9204 67.1968 72.8625 67.0392 73.0074 66.5233C73.3117 65.4486 74.2972 64.2736 75.8335 63.1702C76.6161 62.6113 79.79 60.7055 81.2683 59.903C83.703 58.5847 85.6741 57.7965 87.0074 57.6102C87.4277 57.5529 87.9349 57.5386 88.0943 57.6102C88.3552 57.7105 88.6451 58.47 88.761 59.3871C88.819 59.8743 88.79 62.0238 88.7175 62.4107ZM86.3117 37.2333L86.2827 37.219C83.848 35.2988 82.0219 34.396 82.0219 34.396C91.6016 23.5054 97.5291 22.9036 97.5291 22.9036C98.1813 23.7777 98.6016 24.8954 98.8335 26.1851C100.181 33.8372 94.9494 47.2498 94.9494 47.2498C92.761 43.3951 89.819 39.9846 86.3117 37.2333Z" fill="#FFA409"/>
<path d="M98.8478 26.1853C97.7174 26.042 92.3696 26.0134 86.3116 37.2335L86.2826 37.2192C83.8478 35.299 82.0217 34.3963 82.0217 34.3963C91.6015 23.5057 97.529 22.9038 97.529 22.9038C98.1957 23.7779 98.616 24.8956 98.8478 26.1853Z" fill="#FF9300"/>
<path d="M94.9639 47.2499C92.761 43.3809 89.8335 39.9848 86.3118 37.2334C92.3697 26.0132 97.7031 26.0419 98.848 26.1852C100.196 33.8516 94.9639 47.2499 94.9639 47.2499Z" fill="#FF8300"/>
<path d="M99.0653 26.2283C98.9928 26.214 98.9204 26.1996 98.8479 26.1853L99.0653 26.2283Z" fill="#FF8300"/>
<path d="M44.9495 34.3963C44.9495 34.3963 43.0654 35.299 40.5437 37.2192C40.5437 37.2192 40.5292 37.2335 40.5147 37.2335C34.2393 25.999 28.7176 26.042 27.5292 26.1853C27.7611 24.8956 28.1958 23.7636 28.877 22.9038C28.8915 22.9038 35.0364 23.5057 44.9495 34.3963Z" fill="#FF9300"/>
<path d="M40.5291 37.2334C37.7754 39.3256 34.2682 42.6071 31.5726 47.2499C31.5726 47.2499 26.1523 33.8516 27.5436 26.1852C28.7175 26.0419 34.2537 26.0132 40.5291 37.2334Z" fill="#FF8300"/>
<path d="M27.5436 26.1853C27.4712 26.1996 27.3842 26.214 27.3118 26.2283L27.5436 26.1853Z" fill="#FF8300"/>
<path d="M80.2973 54.6869C80.2973 54.6869 75.6596 54.9734 76.2394 51.391C76.8191 47.8086 80.4422 47.3787 81.4567 47.522C82.4712 47.6653 86.5292 49.0983 85.8045 52.1075C85.0799 55.1167 84.0654 54.5436 83.4857 54.6869C82.906 54.8302 80.2973 54.6869 80.2973 54.6869Z" fill="white"/>
<path d="M46.0943 54.6869C46.0943 54.6869 41.4566 54.9734 42.0364 51.391C42.6161 47.8086 46.2392 47.3787 47.2537 47.522C48.2682 47.6653 52.3262 49.0983 51.6015 52.1075C50.8769 55.1167 49.8624 54.5436 49.2827 54.6869C48.703 54.8302 46.0943 54.6869 46.0943 54.6869Z" fill="white"/>
</g>
<path d="M64 125.867C98.168 125.867 125.867 98.1682 125.867 64.0001C125.867 29.832 98.168 2.1333 64 2.1333C29.8319 2.1333 2.13318 29.832 2.13318 64.0001C2.13318 98.1682 29.8319 125.867 64 125.867Z" stroke="black" stroke-opacity="0.097"/>
</g>
<defs>
<clipPath id="clip0_205:106">
<rect width="128" height="128" fill="white"/>
</clipPath>
<clipPath id="clip1_205:106">
<rect width="93" height="93" fill="white" transform="translate(17 17)"/>
</clipPath>
</defs>
</svg>
