<svg viewBox="0 0 128 128" fill="none" xmlns="http://www.w3.org/2000/svg">
<g clip-path="url(#clip0_233:1192)">
<path d="M63.9999 -0.000234477C28.6536 -0.000237567 -0.000220197 28.6536 -0.000223287 63.9999C-0.000226377 99.3462 28.6536 128 63.9999 128C99.3462 128 128 99.3462 128 63.9999C128 28.6536 99.3462 -0.000231387 63.9999 -0.000234477Z" fill="#73B697"/>
<g clip-path="url(#clip1_233:1192)">
<path d="M96.0566 49.1078C85.2409 33.0081 73.4501 29.3345 73.4501 29.3345L73.8886 18.9722C73.8886 18.9722 69.8851 16 61.5454 16C53.2057 16 48.9142 19.7977 48.9142 19.7977L50.2763 30.2835C42.7631 33.9987 29.1816 48.0355 24.9708 64.8772C20.7599 81.7189 26.8698 90.6362 27.5302 92.371C28.1906 94.105 36.7786 109.378 55.4365 111.608C74.0944 113.838 91.1036 106.324 99.2366 95.095C107.369 83.8665 106.873 65.2064 96.0566 49.1078ZM98.0381 89.1509C92.7544 99.3887 78.8837 108.388 64.6828 108.635C50.4818 108.884 40.3265 104.92 33.0196 94.105C25.7128 83.2889 25.8779 69.5008 32.5657 55.135C39.2533 40.7693 52.68 33.297 52.68 33.297C52.68 33.297 53.2889 34.2876 55.1467 34.9378C57.0044 35.588 57.9683 34.7206 57.9683 34.7206L58.0363 31.1903L65.6321 30.6537L65.7181 34.4776C65.7181 34.4776 66.9945 34.9468 68.9348 34.1626C70.8751 33.3783 71.6181 32.0159 71.6181 32.0159C71.6181 32.0159 75.3333 34.2451 78.1404 35.8953C80.9475 37.5454 88.3782 44.3165 94.3226 52.6556C100.268 60.9948 103.322 78.9131 98.0381 89.1509Z" fill="#054630"/>
<path d="M63.2795 34.9376H59.762C55.5975 34.9376 52.1895 31.5303 52.1895 27.3651V22.5689C52.1895 22.4701 52.2288 22.3754 52.2986 22.3056C52.3684 22.2357 52.4631 22.1965 52.5619 22.1965L69.645 21.1587C69.7438 21.1587 69.8385 21.1979 69.9084 21.2678C69.9782 21.3376 70.0175 21.4323 70.0175 21.5311V28.1986C70.0181 31.9058 66.9857 34.9376 63.2795 34.9376Z" fill="#C87C3E"/>
<path d="M61.1825 24.757C66.0871 24.5865 70.0185 23.1668 69.9636 21.5859C69.9087 20.005 65.8882 18.8615 60.9836 19.032C56.079 19.2024 52.1476 20.6221 52.2025 22.203C52.2574 23.7839 56.2779 24.9274 61.1825 24.757Z" fill="#E5AF4F"/>
<path d="M94.942 72.4318C94.942 89.532 81.0801 103.393 63.9807 103.393C46.8814 103.393 33.0193 89.5314 33.0193 72.4318C33.0142 68.4428 33.7821 64.4906 35.2806 60.7937C35.4357 60.4118 35.5982 60.0336 35.7681 59.6591C38.2173 56.9327 49.5933 54.5436 63.3271 54.0651C77.1545 53.5837 88.7314 55.2003 91.2618 57.7796C91.4373 58.1065 91.6075 58.4369 91.7725 58.7709C93.802 62.8923 94.942 67.5289 94.942 72.4318Z" fill="#E39AA7"/>
<path d="M63.7279 65.5378C48.1419 66.0807 35.4151 63.9579 35.2807 60.7948C35.2807 60.7917 35.2807 60.7889 35.2807 60.7858C35.2677 60.4069 35.4359 60.0304 35.7686 59.6602C38.2179 56.9337 49.5937 54.5446 63.3276 54.0661C77.1549 53.5847 88.7318 55.2013 91.2619 57.7807C91.5724 58.0972 91.7471 58.4284 91.7726 58.7719C91.7726 58.7875 91.7749 58.8029 91.7749 58.8184C91.8859 61.9862 79.3285 64.9948 63.7279 65.5378Z" fill="#FDD6DB"/>
<path d="M30.1296 70.3271L31.7034 75.4227C31.7214 75.4807 31.7532 75.5335 31.796 75.5766C31.8387 75.6198 31.8912 75.652 31.9491 75.6705C32.007 75.689 32.0685 75.6933 32.1283 75.6831C32.1882 75.6727 32.2447 75.6482 32.293 75.6114L41.6736 68.4312C41.7375 68.3823 41.8152 68.3551 41.8956 68.3535C41.976 68.3518 42.0547 68.3758 42.1206 68.4219L56.5146 78.5191C56.5833 78.5673 56.6661 78.5913 56.7501 78.5873C56.834 78.5832 56.9141 78.5514 56.9779 78.4968L70.8897 66.5682C70.9461 66.5199 71.0154 66.4893 71.089 66.4801C71.1627 66.471 71.2374 66.4836 71.304 66.5166L86.3202 73.9849C86.3992 74.0242 86.4896 74.0347 86.5755 74.0144C86.6615 73.9941 86.7376 73.9443 86.7907 73.8738L93.9408 64.3771C93.9783 64.3275 94.0271 64.2879 94.0833 64.2618C94.1396 64.2356 94.2018 64.2237 94.2633 64.2271C94.3256 64.2305 94.3856 64.2491 94.4388 64.2813C94.4913 64.3134 94.5363 64.3581 94.5678 64.4115L99.2336 72.2655L94.3046 67.2981C94.2633 67.2564 94.2131 67.2249 94.1576 67.206C94.1013 67.1872 94.0421 67.1816 93.9843 67.1896C93.9258 67.1976 93.8711 67.2192 93.8223 67.2524C93.7736 67.2855 93.7338 67.3297 93.7053 67.3809L87.9684 77.7386C87.9223 77.822 87.8464 77.8848 87.7559 77.9146C87.6653 77.9444 87.5669 77.9388 87.4803 77.899L70.6671 70.1915C70.5948 70.1583 70.514 70.1487 70.4359 70.1641C70.3579 70.1796 70.2867 70.2192 70.2326 70.2774L57.5986 83.8335C57.5367 83.9001 57.4529 83.9421 57.3625 83.9517C57.2721 83.9615 57.1813 83.9382 57.1067 83.8863L41.6684 73.1687C41.6021 73.1226 41.5228 73.0989 41.442 73.1013C41.3613 73.1035 41.2835 73.1316 41.22 73.1814L31.3959 80.8656C31.3416 80.908 31.2769 80.9349 31.2087 80.9432C31.1403 80.9515 31.0711 80.941 31.0083 80.9129C30.9456 80.8848 30.8916 80.8401 30.8524 80.7835C30.8132 80.727 30.7901 80.6609 30.7857 80.5923L30.1296 70.3271Z" fill="#80D9B4"/>
</g>
<path d="M64.0001 125.867C98.1682 125.867 125.867 98.1682 125.867 64.0001C125.867 29.832 98.1682 2.1333 64.0001 2.1333C29.832 2.1333 2.1333 29.832 2.1333 64.0001C2.1333 98.1682 29.832 125.867 64.0001 125.867Z" stroke="black" stroke-opacity="0.097"/>
</g>
<defs>
<clipPath id="clip0_233:1192">
<rect width="128" height="128" fill="white"/>
</clipPath>
<clipPath id="clip1_233:1192">
<rect width="96" height="96" fill="white" transform="translate(16 16)"/>
</clipPath>
</defs>
</svg>
