<svg viewBox="0 0 128 128" fill="none" xmlns="http://www.w3.org/2000/svg">
<path d="M123.997 59.9941C123.997 93.1269 97.1371 119.988 63.9986 119.988C30.8601 119.988 4 93.1269 4 59.9941C4 26.8614 30.8607 6.10352e-05 63.9986 6.10352e-05C97.1364 6.10352e-05 123.997 26.8589 123.997 59.9941Z" fill="white"/>
<path d="M64 120C97.1371 120 124 93.1371 124 60C124 26.8629 97.1371 0 64 0C30.8629 0 4 26.8629 4 60C4 93.1371 30.8629 120 64 120Z" fill="#5B6DEE"/>
<path d="M53.875 56.325C51.7829 56.3143 49.6942 56.495 47.635 56.865C49.33 41.19 62.395 29.3175 77.95 29.3175C87.475 29.3175 94 33.9825 94 43.635C94 53.2912 86.1663 57.9562 74.74 57.9562C66.3025 57.9562 62.3125 56.3287 53.875 56.3287V56.325ZM53.26 62.0438C41.8337 62.0438 34 66.7125 34 76.365C34 86.0175 40.525 90.6825 50.05 90.6825C65.605 90.6825 78.67 78.8138 80.365 63.135C78.3058 63.505 76.2171 63.6857 74.125 63.675C65.6875 63.675 61.6937 62.0438 53.26 62.0438" fill="white"/>
<path d="M64 118C96.0325 118 122 92.0325 122 60C122 27.9675 96.0325 2 64 2C31.9675 2 6 27.9675 6 60C6 92.0325 31.9675 118 64 118Z" stroke="black" stroke-opacity="0.097"/>
</svg>
