<svg viewBox="0 0 128 128" fill="none" xmlns="http://www.w3.org/2000/svg">
<path d="M64 120C97.1371 120 124 93.1371 124 60C124 26.8629 97.1371 0 64 0C30.8629 0 4 26.8629 4 60C4 93.1371 30.8629 120 64 120Z" fill="url(#paint0_linear)"/>
<path d="M44.3665 45.5879C43.8901 44.9926 43.1673 44.6619 42.3951 44.6619H26.4764C26.345 44.6619 26.23 44.6123 26.1314 44.5296C26.0493 44.4469 26 44.3477 26 44.2319V33.4332C26 33.3174 26.0493 33.2182 26.1314 33.1355C26.23 33.0363 26.345 32.9867 26.4764 33.0032H43.2987C47.5371 33.0032 51.2005 34.7561 54.289 38.2455L58.3796 43.2728L50.412 53.0462L44.3665 45.5879ZM73.7726 38.1959C76.8446 34.7396 80.5245 33.0032 84.8122 33.0032H101.585C101.7 32.9867 101.815 33.0363 101.897 33.1024C101.979 33.1851 102.012 33.3009 101.996 33.4332V44.2319C101.996 44.3477 101.963 44.4469 101.897 44.5296C101.815 44.6288 101.7 44.6784 101.585 44.6619H85.6665C84.9108 44.6453 84.188 44.9926 83.6951 45.5879L71.9655 59.9587L83.7444 74.4287C84.2208 74.9744 84.9272 75.3051 85.65 75.2886H101.569C101.684 75.2721 101.815 75.3382 101.881 75.4209C101.947 75.5201 101.996 75.6524 101.979 75.7682V86.5669C101.979 86.6827 101.947 86.7819 101.881 86.8646C101.799 86.9638 101.684 87.0134 101.569 86.9969H84.8122C80.5245 86.9969 76.8775 85.2439 73.8219 81.7546L64.0637 69.7652L54.3054 81.7546C51.2334 85.2439 47.5535 86.9969 43.2658 86.9969H26.4764C26.3614 87.0134 26.23 86.9473 26.1643 86.8646C26.0821 86.7653 26.0493 86.633 26.0657 86.5173V75.7186C26.0657 75.6028 26.0986 75.5036 26.1643 75.4209C26.2464 75.3217 26.3614 75.2721 26.4764 75.2886H42.3951C43.1508 75.2886 43.8737 74.9413 44.3665 74.3625L55.8825 60.2067L73.7726 38.1959Z" fill="#00D1FF"/>
<path d="M64 118C96.0325 118 122 92.0325 122 60C122 27.9675 96.0325 2 64 2C31.9675 2 6 27.9675 6 60C6 92.0325 31.9675 118 64 118Z" stroke="black" stroke-opacity="0.097"/>
<defs>
<linearGradient id="paint0_linear" x1="64" y1="0" x2="64" y2="120" gradientUnits="userSpaceOnUse">
<stop stop-color="#0B0326"/>
<stop offset="0.53125" stop-color="#18075A"/>
<stop offset="1" stop-color="#18075A"/>
</linearGradient>
</defs>
</svg>
