<svg viewBox="0 0 128 128" fill="none" xmlns="http://www.w3.org/2000/svg">
<path d="M124 59.9941C124 93.1268 97.1395 119.988 64.001 119.988C30.8625 119.988 4.00244 93.1268 4.00244 59.9941C4.00244 26.8614 30.8631 0 64.001 0C97.1389 0 124 26.8588 124 59.9941Z" fill="black"/>
<path fill-rule="evenodd" clip-rule="evenodd" d="M32.5047 53.6963H86.0323C86.7033 53.6963 87.3395 53.964 87.8023 54.4413L96.2704 63.0201C97.8322 64.6032 96.7216 67.3037 94.5005 67.3037H40.9729C40.3019 67.3037 39.6656 67.036 39.2029 66.5587L30.7347 57.9799C29.1614 56.3968 30.2835 53.6963 32.5047 53.6963ZM30.7347 42.3238L39.2029 33.745C39.6772 33.2677 40.3134 33 40.9729 33H94.4889C96.71 33 97.8322 35.7005 96.2589 37.2836L87.8023 45.8624C87.328 46.3397 86.6917 46.6074 86.0323 46.6074H32.5047C30.2835 46.6074 29.1614 43.9069 30.7347 42.3238ZM96.2589 78.6762L87.7907 87.255C87.3164 87.7323 86.6801 88 86.0207 88H32.5047C30.2835 88 29.1614 85.2995 30.7347 83.7164L39.2029 75.1376C39.6772 74.6603 40.3134 74.3926 40.9729 74.3926H94.4889C96.71 74.3926 97.8322 77.0931 96.2589 78.6762Z" fill="url(#paint0_linear)"/>
<path d="M64 118C96.0325 118 122 92.0325 122 60C122 27.9675 96.0325 2 64 2C31.9675 2 6 27.9675 6 60C6 92.0325 31.9675 118 64 118Z" stroke="black" stroke-opacity="0.097"/>
<defs>
<linearGradient id="paint0_linear" x1="33.8142" y1="90.3665" x2="93.546" y2="31.0025" gradientUnits="userSpaceOnUse">
<stop stop-color="#CB4EE8"/>
<stop offset="1" stop-color="#10F4B1"/>
</linearGradient>
</defs>
</svg>
