<svg viewBox="0 0 128 128" fill="none" xmlns="http://www.w3.org/2000/svg">
<g clip-path="url(#clip0_436_774)">
<path d="M63.9808 128C99.3165 128 127.962 99.355 127.962 64.0194C127.962 28.6838 99.3165 0.0385742 63.9808 0.0385742C28.6452 0.0385742 0 28.6838 0 64.0194C0 99.355 28.6452 128 63.9808 128Z" fill="#241C4B"/>
<path d="M46.0368 37.7241H62.8446L69.8007 44.6802V53.7601H71.421V60.395L60.462 75.9132H56.8569V74.8825H54.7954V71.7903L45.5238 64.5802L43.4624 60.4573V37.7241H46.0368Z" fill="white"/>
<path d="M59.9345 31.0122H58.9038V32.0429H59.9345V31.0122Z" fill="#BA9364"/>
<path d="M60.9653 31.0122H59.9346V32.0429H60.9653V31.0122Z" fill="#BA9364"/>
<path d="M61.996 31.0122H60.9653V32.0429H61.996V31.0122Z" fill="#BA9364"/>
<path d="M63.0219 31.0122H61.9912V32.0429H63.0219V31.0122Z" fill="#BA9364"/>
<path d="M63.0219 29.9819H61.9912V31.0126H63.0219V29.9819Z" fill="#BA9364"/>
<path d="M77.7539 37.5034H76.7231V38.5341H77.7539V37.5034Z" fill="#BA9364"/>
<path d="M77.7539 36.4727H76.7231V37.5034H77.7539V36.4727Z" fill="#F7D86C"/>
<path d="M54.6567 29.9819H53.626V31.0126H54.6567V29.9819Z" fill="#F7D86C"/>
<path d="M53.6259 29.9819H52.5952V31.0126H53.6259V29.9819Z" fill="#F7D86C"/>
<path d="M53.6259 31.0122H52.5952V32.0429H53.6259V31.0122Z" fill="#F7D86C"/>
<path d="M52.5952 31.0122H51.5645V32.0429H52.5952V31.0122Z" fill="#F7D86C"/>
<path d="M52.5952 29.9819H51.5645V31.0126H52.5952V29.9819Z" fill="#F7D86C"/>
<path d="M52.5952 28.9512H51.5645V29.9819H52.5952V28.9512Z" fill="#F7D86C"/>
<path d="M51.5644 28.9512H50.5337V29.9819H51.5644V28.9512Z" fill="#F7D86C"/>
<path d="M51.5644 29.9819H50.5337V31.0126H51.5644V29.9819Z" fill="#F7D86C"/>
<path d="M51.5644 31.0122H50.5337V32.0429H51.5644V31.0122Z" fill="#F7D86C"/>
<path d="M51.5644 32.043H50.5337V33.0737H51.5644V32.043Z" fill="#F7D86C"/>
<path d="M56.665 35.1499H55.6343V36.1806H56.665V35.1499Z" fill="#F7D86C"/>
<path d="M55.6342 35.1499H54.6035V36.1806H55.6342V35.1499Z" fill="#F7D86C"/>
<path d="M54.604 35.1499H53.5732V36.1806H54.604V35.1499Z" fill="#F7D86C"/>
<path d="M54.604 36.1802H53.5732V37.2109H54.604V36.1802Z" fill="#F7D86C"/>
<path d="M55.6342 36.1802H54.6035V37.2109H55.6342V36.1802Z" fill="#F1B04E"/>
<path d="M56.665 36.1802H55.6343V37.2109H56.665V36.1802Z" fill="#F1B04E"/>
<path d="M55.6342 37.2109H54.6035V38.2416H55.6342V37.2109Z" fill="#F1B04E"/>
<path d="M54.604 37.2109H53.5732V38.2416H54.604V37.2109Z" fill="#F1B04E"/>
<path d="M56.665 37.2109H55.6343V38.2416H56.665V37.2109Z" fill="#F1B04E"/>
<path d="M57.6958 37.2109H56.665V38.2416H57.6958V37.2109Z" fill="#F7D86C"/>
<path d="M56.665 38.2417H55.6343V39.2724H56.665V38.2417Z" fill="#F7D86C"/>
<path d="M54.604 38.2417H53.5732V39.2724H54.604V38.2417Z" fill="#F7D86C"/>
<path d="M58.7265 37.2109H57.6958V38.2416H58.7265V37.2109Z" fill="#BA9364"/>
<path d="M57.6958 38.2417H56.665V39.2724H57.6958V38.2417Z" fill="#BA9364"/>
<path d="M59.7573 37.2109H58.7266V38.2416H59.7573V37.2109Z" fill="#F1B04E"/>
<path d="M57.6958 36.1802H56.665V37.2109H57.6958V36.1802Z" fill="#F1B04E"/>
<path d="M58.7265 36.1802H57.6958V37.2109H58.7265V36.1802Z" fill="#F1B04E"/>
<path d="M59.7573 36.1802H58.7266V37.2109H59.7573V36.1802Z" fill="#F7D86C"/>
<path d="M60.788 36.1802H59.7573V37.2109H60.788V36.1802Z" fill="#F7D86C"/>
<path d="M61.8188 36.1802H60.7881V37.2109H61.8188V36.1802Z" fill="#F7D86C"/>
<path d="M62.8447 36.1802H61.814V37.2109H62.8447V36.1802Z" fill="#F7D86C"/>
<path d="M63.8754 36.1802H62.8447V37.2109H63.8754V36.1802Z" fill="#F7D86C"/>
<path d="M60.788 37.2109H59.7573V38.2416H60.788V37.2109Z" fill="#F7D86C"/>
<path d="M61.8188 37.2109H60.7881V38.2416H61.8188V37.2109Z" fill="#F7D86C"/>
<path d="M62.8447 37.2109H61.814V38.2416H62.8447V37.2109Z" fill="#F7D86C"/>
<path d="M63.8754 37.2109H62.8447V38.2416H63.8754V37.2109Z" fill="#F7D86C"/>
<path d="M60.788 38.2417H59.7573V39.2724H60.788V38.2417Z" fill="#F7D86C"/>
<path d="M61.8188 38.2417H60.7881V39.2724H61.8188V38.2417Z" fill="#F7D86C"/>
<path d="M62.8447 38.2417H61.814V39.2724H62.8447V38.2417Z" fill="#F7D86C"/>
<path d="M63.8754 38.2417H62.8447V39.2724H63.8754V38.2417Z" fill="#F7D86C"/>
<path d="M61.8188 39.2725H60.7881V40.3032H61.8188V39.2725Z" fill="#F7D86C"/>
<path d="M62.8447 39.2725H61.814V40.3032H62.8447V39.2725Z" fill="#F7D86C"/>
<path d="M63.8754 39.2725H62.8447V40.3032H63.8754V39.2725Z" fill="#F7D86C"/>
<path d="M63.8754 40.3032H62.8447V41.3339H63.8754V40.3032Z" fill="#F7D86C"/>
<path d="M62.8447 40.3032H61.814V41.3339H62.8447V40.3032Z" fill="#FAEB9F"/>
<path d="M63.8754 41.334H62.8447V42.3647H63.8754V41.334Z" fill="#FAEB9F"/>
<path d="M62.8447 41.334H61.814V42.3647H62.8447V41.334Z" fill="#FAEB9F"/>
<path d="M64.9062 40.3032H63.8755V41.3339H64.9062V40.3032Z" fill="#F7D86C"/>
<path d="M64.9062 41.334H63.8755V42.3647H64.9062V41.334Z" fill="#F7D86C"/>
<path d="M63.8754 42.3647H62.8447V43.3955H63.8754V42.3647Z" fill="#F1B04E"/>
<path d="M62.8447 42.3647H61.814V43.3955H62.8447V42.3647Z" fill="#F1B04E"/>
<path d="M61.8188 42.3647H60.7881V43.3955H61.8188V42.3647Z" fill="#F1B04E"/>
<path d="M61.8188 41.334H60.7881V42.3647H61.8188V41.334Z" fill="#F1B04E"/>
<path d="M61.8188 40.3032H60.7881V41.3339H61.8188V40.3032Z" fill="#F1B04E"/>
<path d="M60.788 42.3647H59.7573V43.3955H60.788V42.3647Z" fill="#F1B04E"/>
<path d="M60.788 41.334H59.7573V42.3647H60.788V41.334Z" fill="#F1B04E"/>
<path d="M60.788 40.3032H59.7573V41.3339H60.788V40.3032Z" fill="#F1B04E"/>
<path d="M59.7573 41.334H58.7266V42.3647H59.7573V41.334Z" fill="#F1B04E"/>
<path d="M59.7573 40.3032H58.7266V41.3339H59.7573V40.3032Z" fill="#F1B04E"/>
<path d="M58.7265 41.334H57.6958V42.3647H58.7265V41.334Z" fill="#F1B04E"/>
<path d="M58.7265 40.3032H57.6958V41.3339H58.7265V40.3032Z" fill="#F1B04E"/>
<path d="M57.6958 41.334H56.665V42.3647H57.6958V41.334Z" fill="#F1B04E"/>
<path d="M59.7573 42.3647H58.7266V43.3955H59.7573V42.3647Z" fill="#FAEB9F"/>
<path d="M58.7265 42.3647H57.6958V43.3955H58.7265V42.3647Z" fill="#FAEB9F"/>
<path d="M57.6958 42.3647H56.665V43.3955H57.6958V42.3647Z" fill="#FAEB9F"/>
<path d="M56.665 42.3647H55.6343V43.3955H56.665V42.3647Z" fill="#FAEB9F"/>
<path d="M55.6342 42.3647H54.6035V43.3955H55.6342V42.3647Z" fill="#FAEB9F"/>
<path d="M54.604 42.3647H53.5732V43.3955H54.604V42.3647Z" fill="#FAEB9F"/>
<path d="M57.6958 40.3032H56.665V41.3339H57.6958V40.3032Z" fill="#F1B04E"/>
<path d="M56.665 40.3032H55.6343V41.3339H56.665V40.3032Z" fill="#F1B04E"/>
<path d="M55.6342 40.3032H54.6035V41.3339H55.6342V40.3032Z" fill="#F1B04E"/>
<path d="M64.9062 42.3647H63.8755V43.3955H64.9062V42.3647Z" fill="#F1B04E"/>
<path d="M63.8754 43.3955H62.8447V44.4262H63.8754V43.3955Z" fill="#FAEB9F"/>
<path d="M62.8447 43.3955H61.814V44.4262H62.8447V43.3955Z" fill="#FAEB9F"/>
<path d="M61.8188 43.3955H60.7881V44.4262H61.8188V43.3955Z" fill="#FAEB9F"/>
<path d="M60.788 43.3955H59.7573V44.4262H60.788V43.3955Z" fill="#FAEB9F"/>
<path d="M59.7573 43.3955H58.7266V44.4262H59.7573V43.3955Z" fill="#FAEB9F"/>
<path d="M58.7265 43.3955H57.6958V44.4262H58.7265V43.3955Z" fill="#FAEB9F"/>
<path d="M57.6958 43.3955H56.665V44.4262H57.6958V43.3955Z" fill="#FAEB9F"/>
<path d="M64.9062 43.3955H63.8755V44.4262H64.9062V43.3955Z" fill="#FAEB9F"/>
<path d="M63.8754 44.4214H62.8447V45.4521H63.8754V44.4214Z" fill="#FAEB9F"/>
<path d="M62.8447 44.4214H61.814V45.4521H62.8447V44.4214Z" fill="#FAEB9F"/>
<path d="M61.8188 44.4214H60.7881V45.4521H61.8188V44.4214Z" fill="#FAEB9F"/>
<path d="M60.788 44.4214H59.7573V45.4521H60.788V44.4214Z" fill="#FAEB9F"/>
<path d="M59.7573 44.4214H58.7266V45.4521H59.7573V44.4214Z" fill="#FAEB9F"/>
<path d="M57.6958 44.4214H56.665V45.4521H57.6958V44.4214Z" fill="#FAEB9F"/>
<path d="M64.9062 44.4214H63.8755V45.4521H64.9062V44.4214Z" fill="#FAEB9F"/>
<path d="M63.8754 45.4521H62.8447V46.4829H63.8754V45.4521Z" fill="#FAEB9F"/>
<path d="M62.8447 45.4521H61.814V46.4829H62.8447V45.4521Z" fill="#FAEB9F"/>
<path d="M64.9062 45.4521H63.8755V46.4829H64.9062V45.4521Z" fill="#FAEB9F"/>
<path d="M63.8754 46.4829H62.8447V47.5136H63.8754V46.4829Z" fill="#FAEB9F"/>
<path d="M64.9062 46.4829H63.8755V47.5136H64.9062V46.4829Z" fill="#FAEB9F"/>
<path d="M64.9062 47.5132H63.8755V48.5439H64.9062V47.5132Z" fill="#FAEB9F"/>
<path d="M64.9062 39.2725H63.8755V40.3032H64.9062V39.2725Z" fill="#F1B04E"/>
<path d="M64.9062 38.2417H63.8755V39.2724H64.9062V38.2417Z" fill="#F7D86C"/>
<path d="M64.9062 37.2109H63.8755V38.2416H64.9062V37.2109Z" fill="#F1B04E"/>
<path d="M64.9062 36.1802H63.8755V37.2109H64.9062V36.1802Z" fill="#F7D86C"/>
<path d="M65.937 40.3032H64.9062V41.3339H65.937V40.3032Z" fill="#F1B04E"/>
<path d="M65.937 41.334H64.9062V42.3647H65.937V41.334Z" fill="#FAEB9F"/>
<path d="M65.937 42.3647H64.9062V43.3955H65.937V42.3647Z" fill="white"/>
<path d="M66.9677 42.3647H65.937V43.3955H66.9677V42.3647Z" fill="#F7D86C"/>
<path d="M67.998 42.3647H66.9673V43.3955H67.998V42.3647Z" fill="#F7D86C"/>
<path d="M66.9677 43.3955H65.937V44.4262H66.9677V43.3955Z" fill="#F7D86C"/>
<path d="M65.937 43.3955H64.9062V44.4262H65.937V43.3955Z" fill="#F1B04E"/>
<path d="M67.998 43.3955H66.9673V44.4262H67.998V43.3955Z" fill="#F7D86C"/>
<path d="M66.9677 44.4214H65.937V45.4521H66.9677V44.4214Z" fill="#FAEB9F"/>
<path d="M66.9677 45.4521H65.937V46.4829H66.9677V45.4521Z" fill="#F1B04E"/>
<path d="M67.998 46.4829H66.9673V47.5136H67.998V46.4829Z" fill="#F1B04E"/>
<path d="M65.937 44.4214H64.9062V45.4521H65.937V44.4214Z" fill="#FAEB9F"/>
<path d="M65.937 45.4521H64.9062V46.4829H65.937V45.4521Z" fill="#FAEB9F"/>
<path d="M65.937 46.4829H64.9062V47.5136H65.937V46.4829Z" fill="#FAEB9F"/>
<path d="M65.937 47.5132H64.9062V48.5439H65.937V47.5132Z" fill="#FAEB9F"/>
<path d="M66.9677 47.5132H65.937V48.5439H66.9677V47.5132Z" fill="#FAEB9F"/>
<path d="M67.998 47.5132H66.9673V48.5439H67.998V47.5132Z" fill="#FAEB9F"/>
<path d="M66.9677 48.5439H65.937V49.5747H66.9677V48.5439Z" fill="#FAEB9F"/>
<path d="M67.998 48.5439H66.9673V49.5747H67.998V48.5439Z" fill="#FAEB9F"/>
<path d="M66.9677 49.5747H65.937V50.6054H66.9677V49.5747Z" fill="#FAEB9F"/>
<path d="M67.998 49.5747H66.9673V50.6054H67.998V49.5747Z" fill="#FAEB9F"/>
<path d="M67.998 50.6055H66.9673V51.6362H67.998V50.6055Z" fill="#FAEB9F"/>
<path d="M69.0288 50.6055H67.998V51.6362H69.0288V50.6055Z" fill="#FAEB9F"/>
<path d="M69.0288 51.6362H67.998V52.6669H69.0288V51.6362Z" fill="#FAEB9F"/>
<path d="M70.0595 51.6362H69.0288V52.6669H70.0595V51.6362Z" fill="#FAEB9F"/>
<path d="M69.0288 52.667H67.998V53.6977H69.0288V52.667Z" fill="#FAEB9F"/>
<path d="M67.998 52.667H66.9673V53.6977H67.998V52.667Z" fill="#FAEB9F"/>
<path d="M69.0288 53.6978H67.998V54.7285H69.0288V53.6978Z" fill="#FAEB9F"/>
<path d="M67.998 53.6978H66.9673V54.7285H67.998V53.6978Z" fill="#FAEB9F"/>
<path d="M69.0288 54.7285H67.998V55.7592H69.0288V54.7285Z" fill="#FAEB9F"/>
<path d="M67.998 54.7285H66.9673V55.7592H67.998V54.7285Z" fill="#FAEB9F"/>
<path d="M69.0288 55.7593H67.998V56.79H69.0288V55.7593Z" fill="#FAEB9F"/>
<path d="M67.998 55.7593H66.9673V56.79H67.998V55.7593Z" fill="#FAEB9F"/>
<path d="M71.0903 55.7593H70.0596V56.79H71.0903V55.7593Z" fill="#F7D86C"/>
<path d="M72.121 55.7593H71.0903V56.79H72.121V55.7593Z" fill="#FAEB9F"/>
<path d="M70.0595 55.7593H69.0288V56.79H70.0595V55.7593Z" fill="#F7D86C"/>
<path d="M70.0595 56.7852H69.0288V57.8159H70.0595V56.7852Z" fill="#BA9364"/>
<path d="M70.0595 57.8159H69.0288V58.8466H70.0595V57.8159Z" fill="#F7D86C"/>
<path d="M71.0903 56.7852H70.0596V57.8159H71.0903V56.7852Z" fill="#F1B04E"/>
<path d="M72.121 56.7852H71.0903V57.8159H72.121V56.7852Z" fill="#F1B04E"/>
<path d="M73.1518 56.7852H72.1211V57.8159H73.1518V56.7852Z" fill="#FAEB9F"/>
<path d="M73.1518 57.8159H72.1211V58.8466H73.1518V57.8159Z" fill="#F1B04E"/>
<path d="M73.1518 58.8467H72.1211V59.8774H73.1518V58.8467Z" fill="#FAEB9F"/>
<path d="M73.1518 59.877H72.1211V60.9077H73.1518V59.877Z" fill="#F1B04E"/>
<path d="M72.121 57.8159H71.0903V58.8466H72.121V57.8159Z" fill="#FAEB9F"/>
<path d="M72.121 58.8467H71.0903V59.8774H72.121V58.8467Z" fill="#F7D86C"/>
<path d="M72.121 59.877H71.0903V60.9077H72.121V59.877Z" fill="#F7D86C"/>
<path d="M71.0903 57.8159H70.0596V58.8466H71.0903V57.8159Z" fill="#F1B04E"/>
<path d="M71.0903 58.8467H70.0596V59.8774H71.0903V58.8467Z" fill="#F1B04E"/>
<path d="M71.0903 59.877H70.0596V60.9077H71.0903V59.877Z" fill="#F1B04E"/>
<path d="M67.998 56.7852H66.9673V57.8159H67.998V56.7852Z" fill="#FAEB9F"/>
<path d="M67.998 57.8159H66.9673V58.8466H67.998V57.8159Z" fill="#FAEB9F"/>
<path d="M67.998 58.8467H66.9673V59.8774H67.998V58.8467Z" fill="#F1B04E"/>
<path d="M66.9677 56.7852H65.937V57.8159H66.9677V56.7852Z" fill="#FAEB9F"/>
<path d="M70.0595 52.667H69.0288V53.6977H70.0595V52.667Z" fill="#FAEB9F"/>
<path d="M69.0288 48.5439H67.998V49.5747H69.0288V48.5439Z" fill="#FAEB9F"/>
<path d="M69.0288 49.5747H67.998V50.6054H69.0288V49.5747Z" fill="#F7D86C"/>
<path d="M70.0595 49.5747H69.0288V50.6054H70.0595V49.5747Z" fill="#FAEB9F"/>
<path d="M71.0903 49.5747H70.0596V50.6054H71.0903V49.5747Z" fill="#F7D86C"/>
<path d="M71.0903 50.6055H70.0596V51.6362H71.0903V50.6055Z" fill="#F7D86C"/>
<path d="M71.0903 51.6362H70.0596V52.6669H71.0903V51.6362Z" fill="#F1B04E"/>
<path d="M71.0903 52.667H70.0596V53.6977H71.0903V52.667Z" fill="#F1B04E"/>
<path d="M71.0903 53.6978H70.0596V54.7285H71.0903V53.6978Z" fill="#F1B04E"/>
<path d="M71.0903 54.7285H70.0596V55.7592H71.0903V54.7285Z" fill="#FAEB9F"/>
<path d="M72.121 54.7285H71.0903V55.7592H72.121V54.7285Z" fill="#F7D86C"/>
<path d="M72.121 53.6978H71.0903V54.7285H72.121V53.6978Z" fill="#F1B04E"/>
<path d="M73.1518 53.6978H72.1211V54.7285H73.1518V53.6978Z" fill="#BA9364"/>
<path d="M73.1518 54.7285H72.1211V55.7592H73.1518V54.7285Z" fill="#F1B04E"/>
<path d="M73.1518 55.7593H72.1211V56.79H73.1518V55.7593Z" fill="#F1B04E"/>
<path d="M74.1826 55.7593H73.1519V56.79H74.1826V55.7593Z" fill="#F1B04E"/>
<path d="M74.1826 54.7285H73.1519V55.7592H74.1826V54.7285Z" fill="#F7D86C"/>
<path d="M74.1826 56.7852H73.1519V57.8159H74.1826V56.7852Z" fill="#F1B04E"/>
<path d="M74.1826 57.8159H73.1519V58.8466H74.1826V57.8159Z" fill="#F7D86C"/>
<path d="M74.1826 58.8467H73.1519V59.8774H74.1826V58.8467Z" fill="#F1B04E"/>
<path d="M74.1826 59.877H73.1519V60.9077H74.1826V59.877Z" fill="#F7D86C"/>
<path d="M75.2085 55.7593H74.1777V56.79H75.2085V55.7593Z" fill="#F7D86C"/>
<path d="M75.2085 54.7285H74.1777V55.7592H75.2085V54.7285Z" fill="#F7D86C"/>
<path d="M75.2085 56.7852H74.1777V57.8159H75.2085V56.7852Z" fill="#F7D86C"/>
<path d="M75.2085 57.8159H74.1777V58.8466H75.2085V57.8159Z" fill="#F7D86C"/>
<path d="M75.2085 58.8467H74.1777V59.8774H75.2085V58.8467Z" fill="#F7D86C"/>
<path d="M75.2085 59.877H74.1777V60.9077H75.2085V59.877Z" fill="#F7D86C"/>
<path d="M76.2392 55.7593H75.2085V56.79H76.2392V55.7593Z" fill="#F7D86C"/>
<path d="M76.2392 54.7285H75.2085V55.7592H76.2392V54.7285Z" fill="#F7D86C"/>
<path d="M75.2085 53.6978H74.1777V54.7285H75.2085V53.6978Z" fill="#F7D86C"/>
<path d="M76.2392 53.6978H75.2085V54.7285H76.2392V53.6978Z" fill="#F7D86C"/>
<path d="M77.27 53.6978H76.2393V54.7285H77.27V53.6978Z" fill="#BA9364"/>
<path d="M78.3007 53.6978H77.27V54.7285H78.3007V53.6978Z" fill="#F7D86C"/>
<path d="M79.331 53.6978H78.3003V54.7285H79.331V53.6978Z" fill="#BA9364"/>
<path d="M80.3618 53.6978H79.3311V54.7285H80.3618V53.6978Z" fill="#BA9364"/>
<path d="M77.27 52.667H76.2393V53.6977H77.27V52.667Z" fill="#F7D86C"/>
<path d="M78.3007 52.667H77.27V53.6977H78.3007V52.667Z" fill="#BA9364"/>
<path d="M77.2696 52.667H78.3003V51.6363H77.2696V52.667Z" fill="#F7D86C"/>
<path d="M76.2393 52.667H77.27V51.6363H76.2393V52.667Z" fill="#BA9364"/>
<path d="M76.2393 50.6055V51.6362H77.27V50.6055H76.2393Z" fill="#F7D86C"/>
<path d="M76.2393 49.5748V50.6055H77.27V49.5748H76.2393Z" fill="#BA9364"/>
<path d="M79.331 52.667H78.3003V53.6977H79.331V52.667Z" fill="#F7D86C"/>
<path d="M80.3618 52.667H79.3311V53.6977H80.3618V52.667Z" fill="#F7D86C"/>
<path d="M76.2392 56.7852H75.2085V57.8159H76.2392V56.7852Z" fill="#F7D86C"/>
<path d="M76.2392 57.8159H75.2085V58.8466H76.2392V57.8159Z" fill="#F7D86C"/>
<path d="M77.27 57.8159H76.2393V58.8466H77.27V57.8159Z" fill="#F7D86C"/>
<path d="M76.2392 58.8467H75.2085V59.8774H76.2392V58.8467Z" fill="#F7D86C"/>
<path d="M76.2392 59.877H75.2085V60.9077H76.2392V59.877Z" fill="#F7D86C"/>
<path d="M73.1518 60.9077H72.1211V61.9384H73.1518V60.9077Z" fill="#F1B04E"/>
<path d="M72.121 60.9077H71.0903V61.9384H72.121V60.9077Z" fill="#F7D86C"/>
<path d="M71.0903 62.9692H70.0596V63.9999H71.0903V62.9692Z" fill="#F7D86C"/>
<path d="M73.1518 61.9385H72.1211V62.9692H73.1518V61.9385Z" fill="#F7D86C"/>
<path d="M71.0903 60.9077H70.0596V61.9384H71.0903V60.9077Z" fill="#F1B04E"/>
<path d="M70.0595 61.9385H69.0288V62.9692H70.0595V61.9385Z" fill="#F7D86C"/>
<path d="M71.0903 61.9385H70.0596V62.9692H71.0903V61.9385Z" fill="#F7D86C"/>
<path d="M69.0288 61.9385H67.998V62.9692H69.0288V61.9385Z" fill="#F7D86C"/>
<path d="M74.1826 60.9077H73.1519V61.9384H74.1826V60.9077Z" fill="#F7D86C"/>
<path d="M75.2085 60.9077H74.1777V61.9384H75.2085V60.9077Z" fill="#F7D86C"/>
<path d="M74.1826 61.9385H73.1519V62.9692H74.1826V61.9385Z" fill="#F7D86C"/>
<path d="M73.1518 62.9692H72.1211V63.9999H73.1518V62.9692Z" fill="#F7D86C"/>
<path d="M74.1826 62.9692H73.1519V63.9999H74.1826V62.9692Z" fill="#F7D86C"/>
<path d="M74.686 67.394H73.6553V68.4248H74.686V67.394Z" fill="#F7D86C"/>
<path d="M75.7119 67.394H74.6812V68.4248H75.7119V67.394Z" fill="#F7D86C"/>
<path d="M76.7427 67.394V66.3633H75.712V67.394H76.7427Z" fill="#F7D86C"/>
<path d="M76.7471 68.4248V67.394H75.7164V68.4248H76.7471Z" fill="#F7D86C"/>
<path d="M83.9766 64.5127V65.5435H85.0073V64.5127H83.9766Z" fill="#F7D86C"/>
<path d="M83.9766 63.4825V64.5132H85.0073V63.4825H83.9766Z" fill="#BA9364"/>
<path d="M85.0122 62.4517H83.9814V63.4824H85.0122V62.4517Z" fill="#F7D86C"/>
<path d="M85.0073 63.4825V64.5132H86.038V63.4825H85.0073Z" fill="#F7D86C"/>
<path d="M85.0073 62.4517V63.4824H86.038V62.4517H85.0073Z" fill="#BA9364"/>
<path d="M86.0429 61.4258H85.0122V62.4565H86.0429V61.4258Z" fill="#F7D86C"/>
<path d="M72.121 52.667H71.0903V53.6977H72.121V52.667Z" fill="#F7D86C"/>
<path d="M70.0595 53.6978H69.0288V54.7285H70.0595V53.6978Z" fill="#F1B04E"/>
<path d="M70.0595 50.6055H69.0288V51.6362H70.0595V50.6055Z" fill="#F7D86C"/>
<path d="M72.121 49.5747H71.0903V50.6054H72.121V49.5747Z" fill="#F7D86C"/>
<path d="M73.1518 49.5747H72.1211V50.6054H73.1518V49.5747Z" fill="#F7D86C"/>
<path d="M74.1826 49.5747H73.1519V50.6054H74.1826V49.5747Z" fill="#F7D86C"/>
<path d="M75.2085 49.5747H74.1777V50.6054H75.2085V49.5747Z" fill="#F1B04E"/>
<path d="M75.2085 50.6055H74.1777V51.6362H75.2085V50.6055Z" fill="#F7D86C"/>
<path d="M70.0595 48.5439H69.0288V49.5747H70.0595V48.5439Z" fill="#F1B04E"/>
<path d="M65.937 39.2725H64.9062V40.3032H65.937V39.2725Z" fill="#FAEB9F"/>
<path d="M65.937 38.2417H64.9062V39.2724H65.937V38.2417Z" fill="#F1B04E"/>
<path d="M65.937 37.2109H64.9062V38.2416H65.937V37.2109Z" fill="#FAEB9F"/>
<path d="M66.9677 40.3032H65.937V41.3339H66.9677V40.3032Z" fill="#FAEB9F"/>
<path d="M66.9677 41.334H65.937V42.3647H66.9677V41.334Z" fill="#F1B04E"/>
<path d="M66.9677 39.2725H65.937V40.3032H66.9677V39.2725Z" fill="#F1B04E"/>
<path d="M66.9677 38.2417H65.937V39.2724H66.9677V38.2417Z" fill="#FAEB9F"/>
<path d="M66.9677 37.2109H65.937V38.2416H66.9677V37.2109Z" fill="#F7D86C"/>
<path d="M67.998 40.3032H66.9673V41.3339H67.998V40.3032Z" fill="#F1B04E"/>
<path d="M67.998 41.334H66.9673V42.3647H67.998V41.334Z" fill="#FAEB9F"/>
<path d="M67.998 39.2725H66.9673V40.3032H67.998V39.2725Z" fill="#FAEB9F"/>
<path d="M67.998 38.2417H66.9673V39.2724H67.998V38.2417Z" fill="#F7D86C"/>
<path d="M67.998 37.2109H66.9673V38.2416H67.998V37.2109Z" fill="#F7D86C"/>
<path d="M69.0288 40.3032H67.998V41.3339H69.0288V40.3032Z" fill="#FAEB9F"/>
<path d="M70.0595 40.3032H69.0288V41.3339H70.0595V40.3032Z" fill="#F7D86C"/>
<path d="M69.0288 41.334H67.998V42.3647H69.0288V41.334Z" fill="#FAEB9F"/>
<path d="M70.0595 41.334H69.0288V42.3647H70.0595V41.334Z" fill="#FAEB9F"/>
<path d="M71.0903 41.334H70.0596V42.3647H71.0903V41.334Z" fill="#FAEB9F"/>
<path d="M69.0288 42.3647H67.998V43.3955H69.0288V42.3647Z" fill="#FAEB9F"/>
<path d="M70.0595 42.3647H69.0288V43.3955H70.0595V42.3647Z" fill="#FAEB9F"/>
<path d="M71.0903 42.3647H70.0596V43.3955H71.0903V42.3647Z" fill="#FAEB9F"/>
<path d="M72.121 42.3647H71.0903V43.3955H72.121V42.3647Z" fill="#F1B04E"/>
<path d="M69.0288 43.3955H67.998V44.4262H69.0288V43.3955Z" fill="#FAEB9F"/>
<path d="M70.0595 43.3955H69.0288V44.4262H70.0595V43.3955Z" fill="#FAEB9F"/>
<path d="M71.0903 43.3955H70.0596V44.4262H71.0903V43.3955Z" fill="#FAEB9F"/>
<path d="M72.121 43.3955H71.0903V44.4262H72.121V43.3955Z" fill="#FAEB9F"/>
<path d="M73.1518 43.3955H72.1211V44.4262H73.1518V43.3955Z" fill="#FAEB9F"/>
<path d="M74.1826 43.3955H73.1519V44.4262H74.1826V43.3955Z" fill="#FAEB9F"/>
<path d="M75.2085 43.3955H74.1777V44.4262H75.2085V43.3955Z" fill="#FAEB9F"/>
<path d="M69.0288 44.4214H67.998V45.4521H69.0288V44.4214Z" fill="#FAEB9F"/>
<path d="M67.998 45.4521H66.9673V46.4829H67.998V45.4521Z" fill="#FAEB9F"/>
<path d="M70.0595 44.4214H69.0288V45.4521H70.0595V44.4214Z" fill="#FAEB9F"/>
<path d="M71.0903 44.4214H70.0596V45.4521H71.0903V44.4214Z" fill="#FAEB9F"/>
<path d="M72.121 44.4214H71.0903V45.4521H72.121V44.4214Z" fill="#FAEB9F"/>
<path d="M73.1518 44.4214H72.1211V45.4521H73.1518V44.4214Z" fill="#FAEB9F"/>
<path d="M74.1826 44.4214H73.1519V45.4521H74.1826V44.4214Z" fill="#FAEB9F"/>
<path d="M75.2085 44.4214H74.1777V45.4521H75.2085V44.4214Z" fill="#F1B04E"/>
<path d="M69.0288 46.4829H67.998V47.5136H69.0288V46.4829Z" fill="#FAEB9F"/>
<path d="M70.0595 46.4829H69.0288V47.5136H70.0595V46.4829Z" fill="#FAEB9F"/>
<path d="M71.0903 46.4829H70.0596V47.5136H71.0903V46.4829Z" fill="#FAEB9F"/>
<path d="M72.121 46.4829H71.0903V47.5136H72.121V46.4829Z" fill="#FAEB9F"/>
<path d="M73.1518 46.4829H72.1211V47.5136H73.1518V46.4829Z" fill="#FAEB9F"/>
<path d="M74.1826 46.4829H73.1519V47.5136H74.1826V46.4829Z" fill="#FAEB9F"/>
<path d="M75.2085 46.4829H74.1777V47.5136H75.2085V46.4829Z" fill="#F1B04E"/>
<path d="M69.0288 45.4521H67.998V46.4829H69.0288V45.4521Z" fill="#FAEB9F"/>
<path d="M70.0595 45.4521H69.0288V46.4829H70.0595V45.4521Z" fill="#FAEB9F"/>
<path d="M71.0903 45.4521H70.0596V46.4829H71.0903V45.4521Z" fill="#FAEB9F"/>
<path d="M72.121 45.4521H71.0903V46.4829H72.121V45.4521Z" fill="#FAEB9F"/>
<path d="M73.1518 45.4521H72.1211V46.4829H73.1518V45.4521Z" fill="#FAEB9F"/>
<path d="M74.1826 45.4521H73.1519V46.4829H74.1826V45.4521Z" fill="#FAEB9F"/>
<path d="M75.2085 45.4521H74.1777V46.4829H75.2085V45.4521Z" fill="#FAEB9F"/>
<path d="M69.0288 47.5132H67.998V48.5439H69.0288V47.5132Z" fill="#F1B04E"/>
<path d="M70.0595 47.5132H69.0288V48.5439H70.0595V47.5132Z" fill="#FAEB9F"/>
<path d="M71.0903 47.5132H70.0596V48.5439H71.0903V47.5132Z" fill="#F7D86C"/>
<path d="M72.121 47.5132H71.0903V48.5439H72.121V47.5132Z" fill="#FAEB9F"/>
<path d="M73.1518 47.5132H72.1211V48.5439H73.1518V47.5132Z" fill="#FAEB9F"/>
<path d="M74.1826 47.5132H73.1519V48.5439H74.1826V47.5132Z" fill="#FAEB9F"/>
<path d="M75.2085 47.5132H74.1777V48.5439H75.2085V47.5132Z" fill="#FAEB9F"/>
<path d="M73.1518 48.5439H72.1211V49.5747H73.1518V48.5439Z" fill="#FAEB9F"/>
<path d="M72.121 48.5439H71.0903V49.5747H72.121V48.5439Z" fill="#F7D86C"/>
<path d="M71.0903 48.5439H70.0596V49.5747H71.0903V48.5439Z" fill="#FAEB9F"/>
<path d="M74.1826 48.5439H73.1519V49.5747H74.1826V48.5439Z" fill="#FAEB9F"/>
<path d="M75.2085 48.5439H74.1777V49.5747H75.2085V48.5439Z" fill="#FAEB9F"/>
<path d="M69.0288 39.2725H67.998V40.3032H69.0288V39.2725Z" fill="#F7D86C"/>
<path d="M69.0288 38.2417H67.998V39.2724H69.0288V38.2417Z" fill="#F7D86C"/>
<path d="M78.7846 37.5034H77.7539V38.5341H78.7846V37.5034Z" fill="#F7D86C"/>
<path d="M64.0527 31.0122H63.022V32.0429H64.0527V31.0122Z" fill="#BA9364"/>
<path d="M61.996 32.043H60.9653V33.0737H61.996V32.043Z" fill="#BA9364"/>
<path d="M63.0219 32.043H61.9912V33.0737H63.0219V32.043Z" fill="#BA9364"/>
<path d="M64.0527 32.043H63.022V33.0737H64.0527V32.043Z" fill="#BA9364"/>
<path d="M65.0834 32.043H64.0527V33.0737H65.0834V32.043Z" fill="#BA9364"/>
<path d="M65.0976 68.6982H64.0669V69.729H65.0976V68.6982Z" fill="#FAEB9F"/>
<path d="M65.0976 67.6675H64.0669V68.6982H65.0976V67.6675Z" fill="#FAEB9F"/>
<path d="M65.0976 66.6367H64.0669V67.6674H65.0976V66.6367Z" fill="#FAEB9F"/>
<path d="M65.0976 65.6108H64.0669V66.6415H65.0976V65.6108Z" fill="#FAEB9F"/>
<path d="M62.3076 64.5801H61.2769V65.6108H62.3076V64.5801Z" fill="#FAEB9F"/>
<path d="M62.3076 63.5493H61.2769V64.58H62.3076V63.5493Z" fill="#FAEB9F"/>
<path d="M62.3076 62.5186H61.2769V63.5493H62.3076V62.5186Z" fill="#FAEB9F"/>
<path d="M62.3076 61.4878H61.2769V62.5185H62.3076V61.4878Z" fill="#FAEB9F"/>
<path d="M95.6403 100.569V97.7257H92.7927V94.878H89.9498V92.0352H87.1022V89.1875H84.2593V86.3447H81.4117V83.5018H78.5689V80.6542H75.7212V77.8114H72.8784V74.9637H70.0307V72.1209H67.1591V69.1534H64.417V66.2962H61.6844V63.4198H58.8943V60.6536H55.9651V57.8395L53.0695 57.8251L53.0935 54.9967L44.4931 54.9727V52.2114L35.9406 52.2162V49.3685L27.249 49.3541V25.5327H51.1855L51.1807 34.1044H53.9229V42.7144H56.7657V51.2669H59.5702V54.1481H62.4562V57.0006H65.2367V59.9249H68.0412V62.7869H71.0327V65.5435H73.7509V68.4295H76.7423V71.2532H79.3934V74.1631H82.4472V76.9916H85.1894V79.7721H88.1808V82.6677H90.808V85.5057H93.8234V88.3821H96.5224V91.1387H99.5043V94.0343H102.237V100.569H95.6403Z" fill="#C5C5FA"/>
<path d="M59.1915 51.7319H56.3486V54.5748H59.1915V51.7319Z" fill="#7674F0"/>
<path d="M56.3438 48.8843H53.501V51.7271H56.3438V48.8843Z" fill="#7674F0"/>
<path d="M56.3438 46.0415H53.501V48.8843H56.3438V46.0415Z" fill="#7674F0"/>
<path d="M56.3438 43.1938H53.501V46.0367H56.3438V43.1938Z" fill="#7674F0"/>
<path d="M53.501 43.1938H50.6582V46.0367H53.501V43.1938Z" fill="#7674F0"/>
<path d="M50.6534 43.1938H47.8105V46.0367H50.6534V43.1938Z" fill="#7674F0"/>
<path d="M53.501 40.3511H50.6582V43.1939H53.501V40.3511Z" fill="#7674F0"/>
<path d="M53.501 37.5034H50.6582V40.3463H53.501V37.5034Z" fill="#7674F0"/>
<path d="M53.501 34.6606H50.6582V37.5035H53.501V34.6606Z" fill="#7674F0"/>
<path d="M50.6534 34.6606H47.8105V37.5035H50.6534V34.6606Z" fill="#7674F0"/>
<path d="M50.6534 31.813H47.8105V34.6558H50.6534V31.813Z" fill="#7674F0"/>
<path d="M47.8106 31.813H44.9678V34.6558H47.8106V31.813Z" fill="#7B79EE"/>
<path d="M44.963 31.813H42.1201V34.6558H44.963V31.813Z" fill="#7B79EE"/>
<path d="M42.1202 31.813H39.2773V34.6558H42.1202V31.813Z" fill="#7B79EE"/>
<path d="M39.2725 31.813H36.4297V34.6558H39.2725V31.813Z" fill="#7B79EE"/>
<path d="M50.6534 28.9702H47.8105V31.8131H50.6534V28.9702Z" fill="#7674F0"/>
<path d="M50.6534 26.1226H47.8105V28.9654H50.6534V26.1226Z" fill="#7674F0"/>
<path d="M47.8106 26.1226H44.9678V28.9654H47.8106V26.1226Z" fill="#7674F0"/>
<path d="M44.963 26.1226H42.1201V28.9654H44.963V26.1226Z" fill="#7674F0"/>
<path d="M42.1202 26.1226H39.2773V28.9654H42.1202V26.1226Z" fill="#7674F0"/>
<path d="M39.2725 26.1226H36.4297V28.9654H39.2725V26.1226Z" fill="#7674F0"/>
<path d="M36.4298 26.1226H33.5869V28.9654H36.4298V26.1226Z" fill="#7674F0"/>
<path d="M33.5821 26.1226H30.7393V28.9654H33.5821V26.1226Z" fill="#7674F0"/>
<path d="M30.7393 26.1226H27.8965V28.9654H30.7393V26.1226Z" fill="#7674F0"/>
<path d="M30.7393 28.9702H27.8965V31.8131H30.7393V28.9702Z" fill="#7674F0"/>
<path d="M30.7393 31.813H27.8965V34.6558H30.7393V31.813Z" fill="#7674F0"/>
<path d="M30.7393 34.6606H27.8965V37.5035H30.7393V34.6606Z" fill="#7674F0"/>
<path d="M30.7393 37.5034H27.8965V40.3463H30.7393V37.5034Z" fill="#7674F0"/>
<path d="M30.7393 40.3511H27.8965V43.1939H30.7393V40.3511Z" fill="#7674F0"/>
<path d="M36.4298 34.6606H33.5869V37.5035H36.4298V34.6606Z" fill="#7B79EE"/>
<path d="M36.4298 37.5034H33.5869V40.3463H36.4298V37.5034Z" fill="#7B79EE"/>
<path d="M36.4298 40.3511H33.5869V43.1939H36.4298V40.3511Z" fill="#7B79EE"/>
<path d="M36.4298 43.1938H33.5869V46.0367H36.4298V43.1938Z" fill="#7B79EE"/>
<path d="M39.2725 43.1938H36.4297V46.0367H39.2725V43.1938Z" fill="#7B79EE"/>
<path d="M42.1202 43.1938H39.2773V46.0367H42.1202V43.1938Z" fill="#7B79EE"/>
<path d="M42.1202 46.0415H39.2773V48.8843H42.1202V46.0415Z" fill="#7B79EE"/>
<path d="M44.963 46.0415H42.1201V48.8843H44.963V46.0415Z" fill="#7B79EE"/>
<path d="M44.963 43.1938H42.1201V46.0367H44.963V43.1938Z" fill="#C5C5FA"/>
<path d="M44.963 40.3511H42.1201V43.1939H44.963V40.3511Z" fill="#C5C5FA"/>
<path d="M44.963 37.5034H42.1201V40.3463H44.963V37.5034Z" fill="#9594F0"/>
<path d="M44.963 34.6606H42.1201V37.5035H44.963V34.6606Z" fill="#9594F0"/>
<path d="M47.8106 37.5034H44.9678V40.3463H47.8106V37.5034Z" fill="#7B79EE"/>
<path d="M47.8106 34.6606H44.9678V37.5035H47.8106V34.6606Z" fill="#7B79EE"/>
<path d="M50.6534 40.3511H47.8105V43.1939H50.6534V40.3511Z" fill="#7B79EE"/>
<path d="M50.6534 37.5034H47.8105V40.3463H50.6534V37.5034Z" fill="#7B79EE"/>
<path d="M42.1202 34.6606H39.2773V37.5035H42.1202V34.6606Z" fill="#9594F0"/>
<path d="M39.2725 34.6606H36.4297V37.5035H39.2725V34.6606Z" fill="#9594F0"/>
<path d="M39.2725 37.5034H36.4297V40.3463H39.2725V37.5034Z" fill="#9594F0"/>
<path d="M39.2725 40.3511H36.4297V43.1939H39.2725V40.3511Z" fill="#9594F0"/>
<path d="M33.5821 43.1938H30.7393V46.0367H33.5821V43.1938Z" fill="#9594F0"/>
<path d="M33.5821 40.3511H30.7393V43.1939H33.5821V40.3511Z" fill="#9594F0"/>
<path d="M33.5821 37.5034H30.7393V40.3463H33.5821V37.5034Z" fill="#9594F0"/>
<path d="M33.5821 34.6606H30.7393V37.5035H33.5821V34.6606Z" fill="#9594F0"/>
<path d="M33.5821 31.813H30.7393V34.6558H33.5821V31.813Z" fill="#9594F0"/>
<path d="M33.5821 28.9702H30.7393V31.8131H33.5821V28.9702Z" fill="#9594F0"/>
<path d="M36.4298 31.813H33.5869V34.6558H36.4298V31.813Z" fill="#9594F0"/>
<path d="M36.4298 28.9702H33.5869V31.8131H36.4298V28.9702Z" fill="#9594F0"/>
<path d="M39.2725 28.9702H36.4297V31.8131H39.2725V28.9702Z" fill="#9594F0"/>
<path d="M42.1202 28.9702H39.2773V31.8131H42.1202V28.9702Z" fill="#9594F0"/>
<path d="M44.963 28.9702H42.1201V31.8131H44.963V28.9702Z" fill="#9594F0"/>
<path d="M47.8106 28.9702H44.9678V31.8131H47.8106V28.9702Z" fill="#9594F0"/>
<path d="M42.1202 40.3511H39.2773V43.1939H42.1202V40.3511Z" fill="#9594F0"/>
<path d="M42.1202 37.5034H39.2773V40.3463H42.1202V37.5034Z" fill="#C5C5FA"/>
<path d="M47.8106 40.3511H44.9678V43.1939H47.8106V40.3511Z" fill="#C5C5FA"/>
<path d="M56.3438 51.7319H53.501V54.5748H56.3438V51.7319Z" fill="#605EDF"/>
<path d="M47.8106 43.1938H44.9678V46.0367H47.8106V43.1938Z" fill="#605EDF"/>
<path d="M50.6534 46.0415H47.8105V48.8843H50.6534V46.0415Z" fill="#605EDF"/>
<path d="M53.501 46.0415H50.6582V48.8843H53.501V46.0415Z" fill="#605EDF"/>
<path d="M50.6534 48.8843H47.8105V51.7271H50.6534V48.8843Z" fill="#605EDF"/>
<path d="M53.501 48.8843H50.6582V51.7271H53.501V48.8843Z" fill="#605EDF"/>
<path d="M59.1915 54.5752H56.3486V57.418H59.1915V54.5752Z" fill="#605EDF"/>
<path d="M62.0342 57.4229H59.1914V60.2657H62.0342V57.4229Z" fill="#605EDF"/>
<path d="M64.8819 60.2656H62.0391V63.1085H64.8819V60.2656Z" fill="#605EDF"/>
<path d="M67.7252 63.1133H64.8823V65.9561H67.7252V63.1133Z" fill="#605EDF"/>
<path d="M70.5723 65.9561H67.7295V68.7989H70.5723V65.9561Z" fill="#605EDF"/>
<path d="M73.4156 68.8037H70.5728V71.6466H73.4156V68.8037Z" fill="#605EDF"/>
<path d="M76.2633 71.6465H73.4204V74.4893H76.2633V71.6465Z" fill="#605EDF"/>
<path d="M79.106 74.4893H76.2632V77.3321H79.106V74.4893Z" fill="#605EDF"/>
<path d="M81.9537 77.3369H79.1108V80.1798H81.9537V77.3369Z" fill="#605EDF"/>
<path d="M84.7965 80.1797H81.9536V83.0225H84.7965V80.1797Z" fill="#605EDF"/>
<path d="M87.6441 83.0273H84.8013V85.8702H87.6441V83.0273Z" fill="#605EDF"/>
<path d="M90.4869 85.8701H87.644V88.713H90.4869V85.8701Z" fill="#605EDF"/>
<path d="M93.3297 88.7178H90.4868V91.5606H93.3297V88.7178Z" fill="#605EDF"/>
<path d="M96.1773 91.5605H93.3345V94.4034H96.1773V91.5605Z" fill="#605EDF"/>
<path d="M99.0201 94.4082H96.1772V97.2511H99.0201V94.4082Z" fill="#605EDF"/>
<path d="M101.868 97.2515H99.0249V100.094H101.868V97.2515Z" fill="#605EDF"/>
<path d="M56.3438 54.5752H53.501V57.418H56.3438V54.5752Z" fill="#3735B9"/>
<path d="M53.501 51.7319H50.6582V54.5748H53.501V51.7319Z" fill="#3735B9"/>
<path d="M50.6534 51.7319H47.8105V54.5748H50.6534V51.7319Z" fill="#3735B9"/>
<path d="M47.8106 51.7319H44.9678V54.5748H47.8106V51.7319Z" fill="#3735B9"/>
<path d="M47.8106 48.8843H44.9678V51.7271H47.8106V48.8843Z" fill="#3735B9"/>
<path d="M47.8106 46.0415H44.9678V48.8843H47.8106V46.0415Z" fill="#3735B9"/>
<path d="M44.963 48.8843H42.1201V51.7271H44.963V48.8843Z" fill="#3735B9"/>
<path d="M42.1202 48.8843H39.2773V51.7271H42.1202V48.8843Z" fill="#3735B9"/>
<path d="M39.2725 48.8843H36.4297V51.7271H39.2725V48.8843Z" fill="#3735B9"/>
<path d="M42.4315 52.2163H35.9404V55.0592H42.4315V52.2163Z" fill="#81818D"/>
<path d="M39.2725 46.0415H36.4297V48.8843H39.2725V46.0415Z" fill="#3735B9"/>
<path d="M36.4298 46.0415H33.5869V48.8843H36.4298V46.0415Z" fill="#3735B9"/>
<path d="M33.5821 46.0415H30.7393V48.8843H33.5821V46.0415Z" fill="#3735B9"/>
<path d="M30.7393 46.0415H27.8965V48.8843H30.7393V46.0415Z" fill="#3735B9"/>
<path d="M35.9361 49.3687H33.0933V52.2115H35.9361V49.3687Z" fill="#81818D"/>
<path d="M33.0928 49.3687H30.25V52.2115H33.0928V49.3687Z" fill="#81818D"/>
<path d="M30.2452 49.3687H27.4023V52.2115H30.2452V49.3687Z" fill="#81818D"/>
<path d="M30.7393 43.1938H27.8965V46.0367H30.7393V43.1938Z" fill="#3735B9"/>
<path d="M59.1915 57.4229H56.3486V60.2657H59.1915V57.4229Z" fill="#3735B9"/>
<path d="M62.0342 60.2656H59.1914V63.1085H62.0342V60.2656Z" fill="#3735B9"/>
<path d="M64.8819 63.1133H62.0391V65.9561H64.8819V63.1133Z" fill="#3735B9"/>
<path d="M67.7252 65.9561H64.8823V68.7989H67.7252V65.9561Z" fill="#3735B9"/>
<path d="M70.5723 68.8037H67.7295V71.6466H70.5723V68.8037Z" fill="#3735B9"/>
<path d="M73.4156 71.6465H70.5728V74.4893H73.4156V71.6465Z" fill="#3735B9"/>
<path d="M76.2633 74.4893H73.4204V77.3321H76.2633V74.4893Z" fill="#3735B9"/>
<path d="M79.106 77.3369H76.2632V80.1798H79.106V77.3369Z" fill="#3735B9"/>
<path d="M81.9537 80.1797H79.1108V83.0225H81.9537V80.1797Z" fill="#3735B9"/>
<path d="M84.7965 83.0273H81.9536V85.8702H84.7965V83.0273Z" fill="#3735B9"/>
<path d="M87.6441 85.8701H84.8013V88.713H87.6441V85.8701Z" fill="#3735B9"/>
<path d="M90.4869 88.7178H87.644V91.5606H90.4869V88.7178Z" fill="#3735B9"/>
<path d="M93.3297 91.5605H90.4868V94.4034H93.3297V91.5605Z" fill="#3735B9"/>
<path d="M96.1773 94.4082H93.3345V97.2511H96.1773V94.4082Z" fill="#3735B9"/>
<path d="M99.0201 97.2515H96.1772V100.094H99.0201V97.2515Z" fill="#3735B9"/>
<path d="M95.6358 97.7261H92.793V100.569H95.6358V97.7261Z" fill="#81818D"/>
<path d="M102.75 100.904H99.9072V102.328H102.75V100.904Z" fill="#81818D"/>
<path d="M99.9073 100.904H97.0645V102.328H99.9073V100.904Z" fill="#81818D"/>
<path d="M97.0644 100.904H95.6406V102.328H97.0644V100.904Z" fill="#81818D"/>
<path d="M92.793 94.8784H89.9502V97.7213H92.793V94.8784Z" fill="#81818D"/>
<path d="M89.9454 92.0352H87.1025V94.878H89.9454V92.0352Z" fill="#81818D"/>
<path d="M87.1021 89.1924H84.2593V92.0352H87.1021V89.1924Z" fill="#81818D"/>
<path d="M84.2545 86.3447H81.4116V89.1876H84.2545V86.3447Z" fill="#81818D"/>
<path d="M81.4117 83.502H78.5688V86.3448H81.4117V83.502Z" fill="#81818D"/>
<path d="M78.564 80.6543H75.7212V83.4972H78.564V80.6543Z" fill="#81818D"/>
<path d="M75.7213 77.8115H72.8784V80.6544H75.7213V77.8115Z" fill="#81818D"/>
<path d="M72.8736 74.9639H70.0308V77.8067H72.8736V74.9639Z" fill="#81818D"/>
<path d="M70.0308 72.1211H67.188V74.9639H70.0308V72.1211Z" fill="#81818D"/>
<path d="M62.0342 54.5752H59.1914V57.418H62.0342V54.5752Z" fill="#7674F0"/>
<path d="M64.8819 57.4229H62.0391V60.2657H64.8819V57.4229Z" fill="#7674F0"/>
<path d="M67.7252 60.2656H64.8823V63.1085H67.7252V60.2656Z" fill="#7674F0"/>
<path d="M70.5723 63.1133H67.7295V65.9561H70.5723V63.1133Z" fill="#7674F0"/>
<path d="M73.4156 65.9561H70.5728V68.7989H73.4156V65.9561Z" fill="#7674F0"/>
<path d="M76.2633 68.8037H73.4204V71.6466H76.2633V68.8037Z" fill="#7674F0"/>
<path d="M79.106 71.6465H76.2632V74.4893H79.106V71.6465Z" fill="#7674F0"/>
<path d="M81.9537 74.4893H79.1108V77.3321H81.9537V74.4893Z" fill="#7674F0"/>
<path d="M84.7965 77.3369H81.9536V80.1798H84.7965V77.3369Z" fill="#7674F0"/>
<path d="M87.6441 80.1797H84.8013V83.0225H87.6441V80.1797Z" fill="#7674F0"/>
<path d="M90.4869 83.0273H87.644V85.8702H90.4869V83.0273Z" fill="#7674F0"/>
<path d="M93.3297 85.8701H90.4868V88.713H93.3297V85.8701Z" fill="#7674F0"/>
<path d="M96.1773 88.7178H93.3345V91.5606H96.1773V88.7178Z" fill="#7674F0"/>
<path d="M99.0201 91.5605H96.1772V94.4034H99.0201V91.5605Z" fill="#7674F0"/>
<path d="M101.868 94.4082H99.0249V97.2511H101.868V94.4082Z" fill="#7674F0"/>
<path d="M33.0546 49.3687H32.0239V50.3994H33.0546V49.3687Z" fill="#F7D86C"/>
<path d="M34.0854 49.3687H33.0547V50.3994H34.0854V49.3687Z" fill="#F1B04E"/>
<path d="M33.0547 51.4302H34.0854V50.3995H33.0547V51.4302Z" fill="#F7D86C"/>
<path d="M30.9932 51.4302H32.0239V50.3995H30.9932V51.4302Z" fill="#F7D86C"/>
<path d="M32.024 51.4302H33.0547V50.3995H32.024V51.4302Z" fill="#F1B04E"/>
<path d="M32.0239 51.4302H30.9932V52.4609H32.0239V51.4302Z" fill="#F1B04E"/>
<path d="M34.0854 51.4302H33.0547V52.4609H34.0854V51.4302Z" fill="#F1B04E"/>
<path d="M33.0546 51.4302H32.0239V52.4609H33.0546V51.4302Z" fill="#F7D86C"/>
<path d="M32.0239 52.4609H30.9932V53.4916H32.0239V52.4609Z" fill="#F7D86C"/>
<path d="M34.0854 52.4609H33.0547V53.4916H34.0854V52.4609Z" fill="#F7D86C"/>
<path d="M33.0546 52.4609H32.0239V53.4916H33.0546V52.4609Z" fill="#FAEB9F"/>
<path d="M40.3706 52.2163H39.3398V53.247H40.3706V52.2163Z" fill="#F7D86C"/>
<path d="M42.4316 52.2163H41.4009V53.247H42.4316V52.2163Z" fill="#FAEB9F"/>
<path d="M41.4008 52.2163H40.3701V53.247H41.4008V52.2163Z" fill="#FAEB9F"/>
<path d="M40.3702 54.2729H41.4009V53.2422H40.3702V54.2729Z" fill="#F7D86C"/>
<path d="M39.3394 54.2729H40.3701V53.2422H39.3394V54.2729Z" fill="#F1B04E"/>
<path d="M39.3394 55.3086H40.3701V54.2779H39.3394V55.3086Z" fill="#F7D86C"/>
<path d="M44.4931 52.2163H43.4624V53.247H44.4931V52.2163Z" fill="#FAEB9F"/>
<path d="M43.4624 52.2163H42.4316V53.247H43.4624V52.2163Z" fill="#FAEB9F"/>
<path d="M44.4931 53.2471H43.4624V54.2778H44.4931V53.2471Z" fill="#FAEB9F"/>
<path d="M43.4624 53.2471H42.4316V54.2778H43.4624V53.2471Z" fill="#F1B04E"/>
<path d="M44.4931 54.2729H43.4624V55.3037H44.4931V54.2729Z" fill="#F1B04E"/>
<path d="M43.4624 54.2729H42.4316V55.3037H43.4624V54.2729Z" fill="#F1B04E"/>
<path d="M44.4931 55.3037H43.4624V56.3344H44.4931V55.3037Z" fill="#F1B04E"/>
<path d="M44.4931 56.3345H43.4624V57.3652H44.4931V56.3345Z" fill="#FAEB9F"/>
<path d="M46.5546 56.3345H45.5239V57.3652H46.5546V56.3345Z" fill="#FAEB9F"/>
<path d="M45.5239 55.3037H44.4932V56.3344H45.5239V55.3037Z" fill="#FAEB9F"/>
<path d="M43.4624 55.3037H42.4316V56.3344H43.4624V55.3037Z" fill="#F1B04E"/>
<path d="M43.4624 56.3345H42.4316V57.3652H43.4624V56.3345Z" fill="#F7D86C"/>
<path d="M42.4316 56.3345H41.4009V57.3652H42.4316V56.3345Z" fill="#F7D86C"/>
<path d="M41.4008 56.3345H40.3701V57.3652H41.4008V56.3345Z" fill="#F7D86C"/>
<path d="M43.4624 57.3652H42.4316V58.3959H43.4624V57.3652Z" fill="#F7D86C"/>
<path d="M42.4316 57.3652H41.4009V58.3959H42.4316V57.3652Z" fill="#F7D86C"/>
<path d="M43.4624 58.396H42.4316V59.4267H43.4624V58.396Z" fill="#F7D86C"/>
<path d="M42.4316 58.396H41.4009V59.4267H42.4316V58.396Z" fill="#F7D86C"/>
<path d="M43.4624 59.4268H42.4316V60.4575H43.4624V59.4268Z" fill="#F7D86C"/>
<path d="M42.4316 59.4268H41.4009V60.4575H42.4316V59.4268Z" fill="#FAEB9F"/>
<path d="M45.5239 57.3652H44.4932V58.3959H45.5239V57.3652Z" fill="#FAEB9F"/>
<path d="M44.4931 57.3652H43.4624V58.3959H44.4931V57.3652Z" fill="#FAEB9F"/>
<path d="M45.5239 58.396H44.4932V59.4267H45.5239V58.396Z" fill="#FAEB9F"/>
<path d="M44.4931 58.396H43.4624V59.4267H44.4931V58.396Z" fill="#FAEB9F"/>
<path d="M45.5239 59.4268H44.4932V60.4575H45.5239V59.4268Z" fill="#FAEB9F"/>
<path d="M44.4931 59.4268H43.4624V60.4575H44.4931V59.4268Z" fill="#FAEB9F"/>
<path d="M45.5239 60.457H44.4932V61.4877H45.5239V60.457Z" fill="#FAEB9F"/>
<path d="M44.4931 60.457H43.4624V61.4877H44.4931V60.457Z" fill="#FAEB9F"/>
<path d="M45.5239 61.4878H44.4932V62.5185H45.5239V61.4878Z" fill="#FAEB9F"/>
<path d="M44.4931 61.4878H43.4624V62.5185H44.4931V61.4878Z" fill="#FAEB9F"/>
<path d="M45.5239 62.5186H44.4932V63.5493H45.5239V62.5186Z" fill="#FAEB9F"/>
<path d="M46.5546 60.457H45.5239V61.4877H46.5546V60.457Z" fill="#FAEB9F"/>
<path d="M46.5546 61.4878H45.5239V62.5185H46.5546V61.4878Z" fill="#FAEB9F"/>
<path d="M46.5546 62.5186H45.5239V63.5493H46.5546V62.5186Z" fill="#FAEB9F"/>
<path d="M44.4931 62.5186H43.4624V63.5493H44.4931V62.5186Z" fill="#FAEB9F"/>
<path d="M43.4624 60.457H42.4316V61.4877H43.4624V60.457Z" fill="#F1B04E"/>
<path d="M43.4624 61.4878H42.4316V62.5185H43.4624V61.4878Z" fill="#F1B04E"/>
<path d="M43.4624 62.5186H42.4316V63.5493H43.4624V62.5186Z" fill="#F1B04E"/>
<path d="M42.4316 60.457H41.4009V61.4877H42.4316V60.457Z" fill="#F1B04E"/>
<path d="M42.4316 61.4878H41.4009V62.5185H42.4316V61.4878Z" fill="#F1B04E"/>
<path d="M42.4316 62.5186H41.4009V63.5493H42.4316V62.5186Z" fill="#F1B04E"/>
<path d="M45.5239 63.5493H44.4932V64.58H45.5239V63.5493Z" fill="#FAEB9F"/>
<path d="M46.5546 63.5493H45.5239V64.58H46.5546V63.5493Z" fill="#FAEB9F"/>
<path d="M45.5239 64.5801H44.4932V65.6108H45.5239V64.5801Z" fill="#F1B04E"/>
<path d="M46.5546 64.5801H45.5239V65.6108H46.5546V64.5801Z" fill="#F1B04E"/>
<path d="M43.4624 64.5801H42.4316V65.6108H43.4624V64.5801Z" fill="#F1B04E"/>
<path d="M42.4316 64.5801H41.4009V65.6108H42.4316V64.5801Z" fill="#F1B04E"/>
<path d="M44.4931 64.5801H43.4624V65.6108H44.4931V64.5801Z" fill="#F1B04E"/>
<path d="M45.5239 65.6108H44.4932V66.6415H45.5239V65.6108Z" fill="#F1B04E"/>
<path d="M46.5546 65.6108H45.5239V66.6415H46.5546V65.6108Z" fill="#F1B04E"/>
<path d="M46.5546 66.6367H45.5239V67.6674H46.5546V66.6367Z" fill="#F1B04E"/>
<path d="M47.5854 65.6108H46.5547V66.6415H47.5854V65.6108Z" fill="#F1B04E"/>
<path d="M44.4931 65.6108H43.4624V66.6415H44.4931V65.6108Z" fill="#F1B04E"/>
<path d="M43.4624 63.5493H42.4316V64.58H43.4624V63.5493Z" fill="#F1B04E"/>
<path d="M42.4316 63.5493H41.4009V64.58H42.4316V63.5493Z" fill="#F1B04E"/>
<path d="M42.4316 65.6108H41.4009V66.6415H42.4316V65.6108Z" fill="#BA9364"/>
<path d="M42.4316 66.6367H41.4009V67.6674H42.4316V66.6367Z" fill="#BA9364"/>
<path d="M42.4316 68.6982H41.4009V69.729H42.4316V68.6982Z" fill="#BA9364"/>
<path d="M42.4316 67.6675H41.4009V68.6982H42.4316V67.6675Z" fill="#BA9364"/>
<path d="M43.4624 68.6982H42.4316V69.729H43.4624V68.6982Z" fill="#BA9364"/>
<path d="M43.4624 69.729H42.4316V70.7597H43.4624V69.729Z" fill="#BA9364"/>
<path d="M37.0673 68.3672H36.0366V69.3979H37.0673V68.3672Z" fill="#FAEB9F"/>
<path d="M37.0673 69.3979H36.0366V70.4287H37.0673V69.3979Z" fill="#BA9364"/>
<path d="M36.0366 67.3364H35.0059V68.3671H36.0366V67.3364Z" fill="#FAEB9F"/>
<path d="M36.0366 68.3672H35.0059V69.3979H36.0366V68.3672Z" fill="#BA9364"/>
<path d="M38.3135 73.9717H39.3442V72.941H38.3135V73.9717Z" fill="#FAEB9F"/>
<path d="M38.3135 75.0024H39.3442V73.9717H38.3135V75.0024Z" fill="#BA9364"/>
<path d="M39.3394 75.0024H40.3701V73.9717H39.3394V75.0024Z" fill="#FAEB9F"/>
<path d="M39.3394 73.9717H40.3701V72.941H39.3394V73.9717Z" fill="#BA9364"/>
<path d="M43.4624 67.6675H42.4316V68.6982H43.4624V67.6675Z" fill="#BA9364"/>
<path d="M41.4008 65.6108H40.3701V66.6415H41.4008V65.6108Z" fill="#BA9364"/>
<path d="M41.4008 66.6367H40.3701V67.6674H41.4008V66.6367Z" fill="#BA9364"/>
<path d="M41.4008 68.6982H40.3701V69.729H41.4008V68.6982Z" fill="#BA9364"/>
<path d="M41.4008 67.6675H40.3701V68.6982H41.4008V67.6675Z" fill="#BA9364"/>
<path d="M40.3706 65.6108H39.3398V66.6415H40.3706V65.6108Z" fill="#BA9364"/>
<path d="M39.3398 64.5801H38.3091V65.6108H39.3398V64.5801Z" fill="#BA9364"/>
<path d="M40.3706 66.6367H39.3398V67.6674H40.3706V66.6367Z" fill="#BA9364"/>
<path d="M40.3706 67.6675H39.3398V68.6982H40.3706V67.6675Z" fill="#BA9364"/>
<path d="M44.4931 63.5493H43.4624V64.58H44.4931V63.5493Z" fill="#F1B04E"/>
<path d="M47.5854 62.5186H46.5547V63.5493H47.5854V62.5186Z" fill="#FAEB9F"/>
<path d="M47.5854 63.5493H46.5547V64.58H47.5854V63.5493Z" fill="#FAEB9F"/>
<path d="M47.5854 64.5801H46.5547V65.6108H47.5854V64.5801Z" fill="#FAEB9F"/>
<path d="M48.6162 64.5801H47.5854V65.6108H48.6162V64.5801Z" fill="#FAEB9F"/>
<path d="M48.6162 65.6108H47.5854V66.6415H48.6162V65.6108Z" fill="#FAEB9F"/>
<path d="M49.642 65.6108H48.6113V66.6415H49.642V65.6108Z" fill="#FAEB9F"/>
<path d="M48.6162 66.6367H47.5854V67.6674H48.6162V66.6367Z" fill="#F7D86C"/>
<path d="M49.642 66.6367H48.6113V67.6674H49.642V66.6367Z" fill="#F7D86C"/>
<path d="M50.6728 66.6367H49.6421V67.6674H50.6728V66.6367Z" fill="#FAEB9F"/>
<path d="M49.642 67.6675H48.6113V68.6982H49.642V67.6675Z" fill="#F7D86C"/>
<path d="M50.6728 67.6675H49.6421V68.6982H50.6728V67.6675Z" fill="#F7D86C"/>
<path d="M51.7036 67.6675H50.6729V68.6982H51.7036V67.6675Z" fill="#FAEB9F"/>
<path d="M50.6728 68.6982H49.6421V69.729H50.6728V68.6982Z" fill="#F7D86C"/>
<path d="M51.7036 68.6982H50.6729V69.729H51.7036V68.6982Z" fill="#FAEB9F"/>
<path d="M50.6728 69.729H49.6421V70.7597H50.6728V69.729Z" fill="#F1B04E"/>
<path d="M50.6728 70.7598H49.6421V71.7905H50.6728V70.7598Z" fill="#F1B04E"/>
<path d="M49.642 69.729H48.6113V70.7597H49.642V69.729Z" fill="#F1B04E"/>
<path d="M51.7036 69.729H50.6729V70.7597H51.7036V69.729Z" fill="#F1B04E"/>
<path d="M52.7338 68.6982H51.7031V69.729H52.7338V68.6982Z" fill="#F1B04E"/>
<path d="M52.7338 69.729H51.7031V70.7597H52.7338V69.729Z" fill="#F1B04E"/>
<path d="M53.7646 68.6982H52.7339V69.729H53.7646V68.6982Z" fill="#FAEB9F"/>
<path d="M53.7646 69.729H52.7339V70.7597H53.7646V69.729Z" fill="#FAEB9F"/>
<path d="M54.7954 68.6982H53.7646V69.729H54.7954V68.6982Z" fill="#FAEB9F"/>
<path d="M54.7954 69.729H53.7646V70.7597H54.7954V69.729Z" fill="#FAEB9F"/>
<path d="M56.8569 68.6982H55.8262V69.729H56.8569V68.6982Z" fill="#FAEB9F"/>
<path d="M56.8569 69.729H55.8262V70.7597H56.8569V69.729Z" fill="#FAEB9F"/>
<path d="M57.8876 68.6982H56.8569V69.729H57.8876V68.6982Z" fill="#FAEB9F"/>
<path d="M57.8876 69.729H56.8569V70.7597H57.8876V69.729Z" fill="#FAEB9F"/>
<path d="M58.9184 68.6982H57.8877V69.729H58.9184V68.6982Z" fill="#FAEB9F"/>
<path d="M58.9184 69.729H57.8877V70.7597H58.9184V69.729Z" fill="#FAEB9F"/>
<path d="M60.9799 69.729H59.9492V70.7597H60.9799V69.729Z" fill="#FAEB9F"/>
<path d="M63.0366 69.729H62.0059V70.7597H63.0366V69.729Z" fill="#FAEB9F"/>
<path d="M55.8261 69.729H54.7954V70.7597H55.8261V69.729Z" fill="#FAEB9F"/>
<path d="M51.7036 70.7598H50.6729V71.7905H51.7036V70.7598Z" fill="#FAEB9F"/>
<path d="M52.7338 70.7598H51.7031V71.7905H52.7338V70.7598Z" fill="#FAEB9F"/>
<path d="M53.7646 70.7598H52.7339V71.7905H53.7646V70.7598Z" fill="#FAEB9F"/>
<path d="M54.7954 70.7598H53.7646V71.7905H54.7954V70.7598Z" fill="#FAEB9F"/>
<path d="M56.8569 70.7598H55.8262V71.7905H56.8569V70.7598Z" fill="#FAEB9F"/>
<path d="M57.8876 70.7598H56.8569V71.7905H57.8876V70.7598Z" fill="#FAEB9F"/>
<path d="M58.9184 70.7598H57.8877V71.7905H58.9184V70.7598Z" fill="#FAEB9F"/>
<path d="M55.8261 70.7598H54.7954V71.7905H55.8261V70.7598Z" fill="#FAEB9F"/>
<path d="M50.6728 71.79H49.6421V72.8207H50.6728V71.79Z" fill="#F7D86C"/>
<path d="M51.7036 71.79H50.6729V72.8207H51.7036V71.79Z" fill="#F7D86C"/>
<path d="M52.7338 71.79H51.7031V72.8207H52.7338V71.79Z" fill="#FAEB9F"/>
<path d="M53.7646 71.79H52.7339V72.8207H53.7646V71.79Z" fill="#FAEB9F"/>
<path d="M54.7954 71.79H53.7646V72.8207H54.7954V71.79Z" fill="#FAEB9F"/>
<path d="M56.8569 71.79H55.8262V72.8207H56.8569V71.79Z" fill="#FAEB9F"/>
<path d="M57.8876 71.79H56.8569V72.8207H57.8876V71.79Z" fill="#FAEB9F"/>
<path d="M58.9184 71.79H57.8877V72.8207H58.9184V71.79Z" fill="#FAEB9F"/>
<path d="M55.8261 71.79H54.7954V72.8207H55.8261V71.79Z" fill="#FAEB9F"/>
<path d="M52.7338 72.8208H51.7031V73.8515H52.7338V72.8208Z" fill="#F7D86C"/>
<path d="M53.7646 72.8208H52.7339V73.8515H53.7646V72.8208Z" fill="#FAEB9F"/>
<path d="M54.7954 72.8208H53.7646V73.8515H54.7954V72.8208Z" fill="#FAEB9F"/>
<path d="M56.8569 72.8208H55.8262V73.8515H56.8569V72.8208Z" fill="#F7D86C"/>
<path d="M56.8569 73.8516H55.8262V74.8823H56.8569V73.8516Z" fill="#F7D86C"/>
<path d="M55.8261 73.8516H54.7954V74.8823H55.8261V73.8516Z" fill="#F7D86C"/>
<path d="M54.7954 73.8516H53.7646V74.8823H54.7954V73.8516Z" fill="#F7D86C"/>
<path d="M57.8876 72.8208H56.8569V73.8515H57.8876V72.8208Z" fill="#F1B04E"/>
<path d="M58.9184 72.8208H57.8877V73.8515H58.9184V72.8208Z" fill="#F1B04E"/>
<path d="M59.9492 71.79H58.9185V72.8207H59.9492V71.79Z" fill="#F1B04E"/>
<path d="M59.9492 69.729H58.9185V70.7597H59.9492V69.729Z" fill="#F1B04E"/>
<path d="M60.9799 70.7598H59.9492V71.7905H60.9799V70.7598Z" fill="#F1B04E"/>
<path d="M62.0058 69.729H60.9751V70.7597H62.0058V69.729Z" fill="#F1B04E"/>
<path d="M64.0673 69.729H63.0366V70.7597H64.0673V69.729Z" fill="#F1B04E"/>
<path d="M60.9799 68.6982H59.9492V69.729H60.9799V68.6982Z" fill="#FAEB9F"/>
<path d="M59.9492 68.6982H58.9185V69.729H59.9492V68.6982Z" fill="#FAEB9F"/>
<path d="M63.0366 68.6982H62.0059V69.729H63.0366V68.6982Z" fill="#FAEB9F"/>
<path d="M62.0058 68.6982H60.9751V69.729H62.0058V68.6982Z" fill="#FAEB9F"/>
<path d="M64.0673 68.6982H63.0366V69.729H64.0673V68.6982Z" fill="#FAEB9F"/>
<path d="M63.0366 67.6675H62.0059V68.6982H63.0366V67.6675Z" fill="#FAEB9F"/>
<path d="M62.0058 67.6675H60.9751V68.6982H62.0058V67.6675Z" fill="#FAEB9F"/>
<path d="M64.0673 67.6675H63.0366V68.6982H64.0673V67.6675Z" fill="#FAEB9F"/>
<path d="M64.0673 66.6367H63.0366V67.6674H64.0673V66.6367Z" fill="#FAEB9F"/>
<path d="M65.0976 69.729H64.0669V70.7597H65.0976V69.729Z" fill="#F7D86C"/>
<path d="M66.1284 69.729H65.0977V70.7597H66.1284V69.729Z" fill="#F7D86C"/>
<path d="M67.1591 69.729H66.1284V70.7597H67.1591V69.729Z" fill="#F7D86C"/>
<path d="M65.0976 69.1533H64.0669V69.7286H65.0976V69.1533Z" fill="#F7D86C"/>
<path d="M66.1284 69.1533H65.0977V69.7286H66.1284V69.1533Z" fill="#F7D86C"/>
<path d="M67.1591 69.1533H66.1284V69.7286H67.1591V69.1533Z" fill="#F7D86C"/>
<path d="M66.1284 70.7598H65.0977V71.7905H66.1284V70.7598Z" fill="#F7D86C"/>
<path d="M67.1591 70.7598H66.1284V71.7905H67.1591V70.7598Z" fill="#F7D86C"/>
<path d="M65.0976 70.7598H64.0669V71.7905H65.0976V70.7598Z" fill="#F1B04E"/>
<path d="M64.0673 70.7598H63.0366V71.7905H64.0673V70.7598Z" fill="#F1B04E"/>
<path d="M63.0366 70.7598H62.0059V71.7905H63.0366V70.7598Z" fill="#F1B04E"/>
<path d="M63.0366 71.79H62.0059V72.8207H63.0366V71.79Z" fill="#F1B04E"/>
<path d="M62.0058 71.79H60.9751V72.8207H62.0058V71.79Z" fill="#F1B04E"/>
<path d="M63.0366 72.8208H62.0059V73.8515H63.0366V72.8208Z" fill="#F1B04E"/>
<path d="M64.0673 71.79H63.0366V72.8207H64.0673V71.79Z" fill="#BA9364"/>
<path d="M64.0673 72.8208H63.0366V73.8515H64.0673V72.8208Z" fill="#F7D86C"/>
<path d="M65.0976 72.8208H64.0669V73.8515H65.0976V72.8208Z" fill="#F7D86C"/>
<path d="M65.0976 73.8516H64.0669V74.8823H65.0976V73.8516Z" fill="#F7D86C"/>
<path d="M65.0976 74.8823H64.0669V75.913H65.0976V74.8823Z" fill="#F7D86C"/>
<path d="M65.0976 75.9131H64.0669V76.9438H65.0976V75.9131Z" fill="#F7D86C"/>
<path d="M64.0673 74.8823H63.0366V75.913H64.0673V74.8823Z" fill="#F7D86C"/>
<path d="M66.1284 73.8516H65.0977V74.8823H66.1284V73.8516Z" fill="#F7D86C"/>
<path d="M62.0058 72.8208H60.9751V73.8515H62.0058V72.8208Z" fill="#F1B04E"/>
<path d="M60.9799 72.8208H59.9492V73.8515H60.9799V72.8208Z" fill="#F1B04E"/>
<path d="M60.9799 73.8516H59.9492V74.8823H60.9799V73.8516Z" fill="#F1B04E"/>
<path d="M62.0058 73.8516H60.9751V74.8823H62.0058V73.8516Z" fill="#F1B04E"/>
<path d="M62.0058 75.9131H60.9751V76.9438H62.0058V75.9131Z" fill="#F1B04E"/>
<path d="M64.0673 75.9131H63.0366V76.9438H64.0673V75.9131Z" fill="#F1B04E"/>
<path d="M63.0366 74.8823H62.0059V75.913H63.0366V74.8823Z" fill="#F1B04E"/>
<path d="M64.0673 73.8516H63.0366V74.8823H64.0673V73.8516Z" fill="#F1B04E"/>
<path d="M59.9492 73.8516H58.9185V74.8823H59.9492V73.8516Z" fill="#F1B04E"/>
<path d="M62.0058 70.7598H60.9751V71.7905H62.0058V70.7598Z" fill="#F1B04E"/>
<path d="M58.9184 73.8516H57.8877V74.8823H58.9184V73.8516Z" fill="#F7D86C"/>
<path d="M58.9184 74.8823H57.8877V75.913H58.9184V74.8823Z" fill="#F7D86C"/>
<path d="M59.9492 74.8823H58.9185V75.913H59.9492V74.8823Z" fill="#F7D86C"/>
<path d="M59.9492 75.9131H58.9185V76.9438H59.9492V75.9131Z" fill="#F7D86C"/>
<path d="M59.9492 76.9438H58.9185V77.9746H59.9492V76.9438Z" fill="#F7D86C"/>
<path d="M60.9799 74.8823H59.9492V75.913H60.9799V74.8823Z" fill="#F1B04E"/>
<path d="M60.9799 75.9131H59.9492V76.9438H60.9799V75.9131Z" fill="#FAEB9F"/>
<path d="M59.9492 72.8208H58.9185V73.8515H59.9492V72.8208Z" fill="#FAEB9F"/>
<path d="M60.9799 71.79H59.9492V72.8207H60.9799V71.79Z" fill="#FAEB9F"/>
<path d="M62.0058 74.8823H60.9751V75.913H62.0058V74.8823Z" fill="#FAEB9F"/>
<path d="M63.0366 75.9131H62.0059V76.9438H63.0366V75.9131Z" fill="#FAEB9F"/>
<path d="M63.0366 73.8516H62.0059V74.8823H63.0366V73.8516Z" fill="#FAEB9F"/>
<path d="M60.9799 76.9438H59.9492V77.9746H60.9799V76.9438Z" fill="#F7D86C"/>
<path d="M62.0058 76.9438H60.9751V77.9746H62.0058V76.9438Z" fill="#F7D86C"/>
<path d="M63.0366 76.9438H62.0059V77.9746H63.0366V76.9438Z" fill="#F7D86C"/>
<path d="M64.0673 76.9438H63.0366V77.9746H64.0673V76.9438Z" fill="#F7D86C"/>
<path d="M57.8876 74.8823H56.8569V75.913H57.8876V74.8823Z" fill="#F7D86C"/>
<path d="M55.8261 72.8208H54.7954V73.8515H55.8261V72.8208Z" fill="#FAEB9F"/>
<path d="M41.4008 57.3652H40.3701V58.3959H41.4008V57.3652Z" fill="#F7D86C"/>
<path d="M42.4316 55.3037H41.4009V56.3344H42.4316V55.3037Z" fill="#F7D86C"/>
<path d="M32.0239 54.5225H30.9932V55.5532H32.0239V54.5225Z" fill="#BA9364"/>
<path d="M34.0854 54.5225H33.0547V55.5532H34.0854V54.5225Z" fill="#BA9364"/>
<path d="M33.0546 54.5225H32.0239V55.5532H33.0546V54.5225Z" fill="#FAEB9F"/>
<path d="M32.0239 55.5527H30.9932V56.5834H32.0239V55.5527Z" fill="#F7D86C"/>
<path d="M34.0854 55.5527H33.0547V56.5834H34.0854V55.5527Z" fill="#F7D86C"/>
<path d="M33.0546 55.5527H32.0239V56.5834H33.0546V55.5527Z" fill="#BA9364"/>
<path d="M32.024 57.6094H33.0547V56.5787H32.024V57.6094Z" fill="#F7D86C"/>
<path d="M32.024 58.645H33.0547V57.6143H32.024V58.645Z" fill="#BA9364"/>
<path d="M30.9932 57.6094H32.0239V56.5787H30.9932V57.6094Z" fill="#BA9364"/>
<path d="M32.024 54.5225H33.0547V53.4917H32.024V54.5225Z" fill="#F1B04E"/>
<path d="M30.9932 54.5225H32.0239V53.4917H30.9932V54.5225Z" fill="#FAEB9F"/>
</g>
<defs>
<clipPath id="clip0_436_774">
<rect width="128" height="128" fill="white"/>
</clipPath>
</defs>
</svg>
