<svg viewBox="0 0 128 128" fill="none" xmlns="http://www.w3.org/2000/svg">
<path d="M63.9664 127.967C99.2941 127.967 127.933 99.3278 127.933 64.0001C127.933 28.6724 99.2941 0.0336914 63.9664 0.0336914C28.6387 0.0336914 0 28.6724 0 64.0001C0 99.3278 28.6387 127.967 63.9664 127.967Z" fill="#202634"/>
<path d="M64.0958 92.3469C61.0085 92.3437 57.9523 91.7312 55.1023 90.5443C52.2569 89.3774 49.6553 87.688 47.4318 85.5634C45.1092 83.3693 43.2596 80.7236 41.9967 77.7887C40.7337 74.8539 40.084 71.6918 40.0874 68.4967C40.0874 62.8494 43.9706 54.9057 51.6266 44.891C55.1767 40.284 58.971 35.8704 62.9932 31.6692L64.091 30.5474L65.1936 31.6644C69.2606 35.8944 73.1026 40.335 76.7041 44.9677C84.456 55.0351 88.3295 62.8973 88.2097 68.4008C88.1398 71.6273 87.4105 74.8054 86.0668 77.7396C83.4578 83.4329 78.838 87.9622 73.0942 90.4581C70.2557 91.6971 67.1929 92.34 64.0958 92.3469ZM64.0958 34.977C62.1782 37.0097 58.1129 41.5017 54.0763 46.7847C46.9812 56.0898 43.1939 63.6164 43.1939 68.4967C43.188 71.2789 43.7519 74.0329 44.851 76.5888C45.95 79.1448 47.5609 81.4486 49.5843 83.3581C51.5281 85.2204 53.8049 86.7004 56.296 87.7207C58.7732 88.7549 61.4305 89.2893 64.115 89.2931C66.7934 89.2846 69.4416 88.7265 71.8957 87.6536C76.9355 85.4596 80.9893 81.4843 83.2814 76.4883C84.4549 73.9282 85.0896 71.1542 85.1463 68.3385C85.199 65.7833 84.1156 62.4083 81.9199 58.319C79.6926 54.3049 77.1434 50.4779 74.2975 46.8757C70.1842 41.5592 66.023 37.0193 64.1006 34.9962L64.0958 34.977Z" fill="url(#paint0_linear_436_1474)"/>
<path d="M64.1822 100.195C59.8894 100.192 55.6477 99.2634 51.7466 97.4719C47.9692 95.749 44.553 93.3251 41.6791 90.3288C35.8113 84.25 32.4507 76.3016 32.4507 68.5113C32.4507 64.7959 33.5581 60.4957 35.7538 55.7209C37.8496 51.3096 40.3466 47.1003 43.2132 43.1462C47.4917 37.1808 52.223 31.5536 57.3651 26.3144C57.5058 26.1612 57.6759 26.038 57.8654 25.9521C58.0549 25.8663 58.2597 25.8197 58.4677 25.815C58.6756 25.8103 58.8823 25.8477 59.0755 25.9249C59.2686 26.0021 59.4441 26.1176 59.5915 26.2643C59.7389 26.4111 59.8552 26.5861 59.9332 26.7789C60.0113 26.9717 60.0496 27.1783 60.0458 27.3862C60.0421 27.5942 59.9963 27.7992 59.9113 27.9891C59.8263 28.1789 59.7038 28.3496 59.5512 28.4909C54.5265 33.6035 49.9056 39.0979 45.7301 44.9248C42.9677 48.7177 40.5606 52.7569 38.5391 56.9913C36.5304 61.3586 35.5141 65.2322 35.5141 68.4969C35.5141 75.4962 38.563 82.668 43.8796 88.1523C46.4785 90.8695 49.5694 93.0689 52.9882 94.6338C56.4898 96.2401 60.2962 97.074 64.1487 97.0788C67.9736 97.103 71.7611 96.324 75.266 94.792C78.6134 93.3159 81.6394 91.1987 84.1732 88.5598C86.7319 85.9088 88.784 82.8121 90.2281 79.4225C91.7242 75.9417 92.5676 72.2155 92.7161 68.4298C92.9654 62.1976 88.8474 53.2136 80.7982 42.5038C76.9067 37.3533 72.6956 32.4522 68.19 27.8293C68.0468 27.6868 67.933 27.5173 67.8553 27.3308C67.7775 27.1442 67.7373 26.9442 67.7369 26.7421C67.7364 26.54 67.7758 26.3398 67.8527 26.1529C67.9296 25.966 68.0426 25.7961 68.1852 25.6529C68.3278 25.5096 68.4972 25.3959 68.6838 25.3182C68.8703 25.2404 69.0704 25.2002 69.2725 25.1997C69.4746 25.1993 69.6748 25.2386 69.8617 25.3156C70.0486 25.3925 70.2185 25.5055 70.3617 25.6481C74.9576 30.3685 79.2535 35.372 83.224 40.6293C86.5599 44.965 89.4932 49.5961 91.9875 54.4649C94.6625 59.8677 95.9329 64.609 95.7747 68.5592C95.6104 72.7194 94.6842 76.8142 93.0421 80.6401C91.4492 84.3754 89.1858 87.7874 86.3641 90.7076C83.5011 93.7076 80.0589 96.0953 76.2461 97.726C72.4333 99.3568 68.3291 100.197 64.1822 100.195Z" fill="url(#paint1_linear_436_1474)"/>
<path d="M64.0961 107.616C58.7366 107.655 53.4313 106.542 48.5396 104.352C43.648 102.162 39.2843 98.9455 35.7443 94.9213C34.0861 93.0625 32.6002 91.0567 31.3051 88.9288C30.0306 86.8377 28.9429 84.6384 28.0548 82.3562C26.3176 77.9401 25.4076 73.2421 25.3701 68.4968C25.3701 64.2541 26.77 59.0861 29.5265 53.1559C32.095 47.7772 35.0913 42.6134 38.4865 37.7144C42.4913 31.854 46.8223 26.2234 51.4591 20.8491C51.59 20.6859 51.7527 20.5509 51.9373 20.4525C52.122 20.354 52.3247 20.2942 52.5332 20.2765C52.7417 20.2588 52.9516 20.2838 53.1502 20.3497C53.3488 20.4157 53.5319 20.5213 53.6883 20.6603C53.8448 20.7992 53.9714 20.9684 54.0605 21.1578C54.1495 21.3472 54.1991 21.5526 54.2063 21.7618C54.2135 21.9709 54.178 22.1793 54.1022 22.3743C54.0263 22.5693 53.9116 22.7469 53.765 22.8962C49.2052 28.176 44.9492 33.7108 41.0178 39.4738C37.7218 44.2238 34.8121 49.2304 32.3166 54.4455C29.7518 59.9778 28.4479 64.7095 28.4479 68.4968C28.4848 72.8604 29.325 77.1799 30.9264 81.2392C31.7502 83.3527 32.7576 85.39 33.937 87.3276C35.1358 89.2928 36.5092 91.146 38.0407 92.8647C41.1718 96.4002 44.9861 99.2654 49.2539 101.288C53.9057 103.458 58.9821 104.567 64.1153 104.533C69.2104 104.576 74.2537 103.51 78.8952 101.408C83.1061 99.4669 86.8688 96.6739 89.9454 93.2051C92.9675 89.8096 95.3415 85.8888 96.9494 81.6371C97.7573 79.5284 98.3797 77.3533 98.8095 75.1365C99.2363 72.9416 99.4673 70.7133 99.4999 68.4776C99.5574 64.4602 98.3589 59.6902 95.9379 54.3017C93.5858 49.2391 90.7777 44.4012 87.5484 39.8478C83.3907 33.8997 78.8221 28.2498 73.8759 22.9393C73.5936 22.6443 73.4401 22.2493 73.4491 21.8411C73.4581 21.433 73.6288 21.0451 73.9238 20.7628C74.2188 20.4806 74.6138 20.327 75.022 20.336C75.4302 20.345 75.818 20.5158 76.1003 20.8108C81.1612 26.2352 85.8326 32.0104 90.0796 38.0932C93.4167 42.8022 96.3179 47.8055 98.7472 53.0409C101.355 58.8416 102.645 64.0671 102.582 68.5207C102.544 70.935 102.294 73.3413 101.835 75.7117C101.369 78.1012 100.699 80.4462 99.8306 82.7206C98.0855 87.3237 95.5135 91.5691 92.2417 95.2473C88.8819 99.03 84.7751 102.076 80.18 104.193C75.1311 106.489 69.6424 107.657 64.0961 107.616Z" fill="url(#paint2_linear_436_1474)"/>
<defs>
<linearGradient id="paint0_linear_436_1474" x1="64.1629" y1="30.5474" x2="64.1629" y2="92.3469" gradientUnits="userSpaceOnUse">
<stop stop-color="#6EDCE9"/>
<stop offset="1" stop-color="#0AA9C3"/>
</linearGradient>
<linearGradient id="paint1_linear_436_1474" x1="8504.43" y1="3967.7" x2="8504.43" y2="15696.9" gradientUnits="userSpaceOnUse">
<stop stop-color="#6EDCE9"/>
<stop offset="1" stop-color="#0AA9C3"/>
</linearGradient>
<linearGradient id="paint2_linear_436_1474" x1="10328.1" y1="3724.61" x2="10328.1" y2="19627.7" gradientUnits="userSpaceOnUse">
<stop stop-color="#6EDCE9"/>
<stop offset="1" stop-color="#0AA9C3"/>
</linearGradient>
</defs>
</svg>
