<svg viewBox="0 0 128 128" fill="none" xmlns="http://www.w3.org/2000/svg">
<path d="M123.997 59.9941C123.997 93.1269 97.1371 119.988 63.9986 119.988C30.8601 119.988 4 93.1269 4 59.9941C4 26.8614 30.8607 6.10352e-05 63.9986 6.10352e-05C97.1364 6.10352e-05 123.997 26.8589 123.997 59.9941Z" fill="white"/>
<g clip-path="url(#clip0)">
<path d="M64.0102 0C30.8675 0 4 26.8675 4 60.0102C4 93.1528 30.8675 120.02 64.0102 120.02C97.1528 120.02 124.02 93.1528 124.02 60.0102C124.02 26.8675 97.1528 0 64.0102 0ZM49.0025 80.7446L48.4339 81.3132C47.256 82.4911 45.997 83.6081 44.6972 84.6438L43.1944 85.8216C43.0929 85.9029 42.9711 85.9435 42.8492 85.9435C42.7477 85.9435 42.6461 85.9232 42.5649 85.8622C42.3618 85.7404 42.2603 85.517 42.3212 85.2733L42.9101 82.613C43.56 79.7292 43.4178 76.7033 42.504 73.8805L42.179 72.9057C41.8135 71.7685 41.3667 70.6515 40.8996 69.5549L33.9746 53.207L33.2232 50.9731C32.9998 50.2826 32.8374 49.5718 32.7561 48.8408L32.6343 47.7238C32.2891 44.5761 33.3654 41.4893 35.5993 39.2554L36.1679 38.6867C37.3457 37.5089 38.6048 36.3919 39.9046 35.3562L41.4073 34.1784C41.5901 34.0362 41.8338 34.0159 42.0369 34.1378C42.24 34.2596 42.3415 34.483 42.2806 34.7267L41.6917 37.387C41.0418 40.2708 41.184 43.2967 42.0978 46.1195L42.4227 47.0943C42.7883 48.2315 43.2351 49.3484 43.7021 50.4451L50.6475 66.793L51.3989 69.0269C51.6223 69.7174 51.7847 70.4282 51.866 71.1592L51.9878 72.2762C52.3127 75.4036 51.2364 78.5107 49.0025 80.7446ZM72.438 86.1059L71.7069 86.837C70.2244 88.3195 68.6404 89.7411 66.9954 91.0205L65.0459 92.5639C64.9443 92.6451 64.8022 92.6857 64.6803 92.6857C64.5788 92.6857 64.4569 92.6451 64.3554 92.5842C64.132 92.442 64.0305 92.1983 64.0914 91.9546L64.8631 88.5226C65.6754 84.8671 65.4926 81.0492 64.3351 77.4953L63.9289 76.2566C63.4618 74.8147 62.9135 73.3931 62.3043 72.0122L53.5515 51.3996L52.6174 48.5971C52.333 47.7441 52.13 46.8303 52.0284 45.9367L51.866 44.5151C51.4192 40.5754 52.7798 36.7169 55.562 33.8941L56.2931 33.163C57.7756 31.6805 59.3596 30.2589 61.0046 28.9795L62.9541 27.4361C63.1572 27.2737 63.4212 27.2533 63.6446 27.3955C63.868 27.5377 63.9695 27.7813 63.9086 28.025L63.1369 31.4571C62.3246 35.1125 62.5074 38.9304 63.6649 42.4843L64.0711 43.7231C64.5382 45.1447 65.0865 46.5866 65.6957 47.9675L74.4485 68.6004L75.3826 71.4029C75.6669 72.2559 75.87 73.1697 75.9716 74.0633L76.134 75.4849C76.5808 79.4246 75.2202 83.3034 72.438 86.1059ZM92.421 80.7446L91.8524 81.3132C90.6746 82.4911 89.4155 83.6081 88.1158 84.6438L86.613 85.8216C86.5114 85.9029 86.3896 85.9435 86.2677 85.9435C86.1662 85.9435 86.0646 85.9232 85.9834 85.8622C85.7803 85.7404 85.6788 85.517 85.7397 85.2733L86.3286 82.613C86.9785 79.7292 86.8363 76.7033 85.9225 73.8805L85.5976 72.9057C85.232 71.7685 84.7852 70.6515 84.3182 69.5549L77.3728 53.207L76.6214 50.9731C76.398 50.2826 76.2356 49.5718 76.1543 48.8408L76.0325 47.7238C75.6873 44.5761 76.7636 41.4893 78.9975 39.2554L79.5661 38.6867C80.7439 37.5089 82.003 36.3919 83.3028 35.3562L84.8055 34.1784C84.9883 34.0362 85.232 34.0159 85.4351 34.1378C85.6382 34.2596 85.7397 34.483 85.6788 34.7267L85.0899 37.387C84.44 40.2708 84.5822 43.2967 85.496 46.1195L85.8209 47.0943C86.1865 48.2315 86.6333 49.3484 87.1004 50.4451L94.0457 66.793L94.7971 69.0269C95.0205 69.7174 95.1829 70.4282 95.2642 71.1592L95.386 72.2762C95.7313 75.4036 94.6549 78.5107 92.421 80.7446Z" fill="#171FC9"/>
</g>
<path d="M64 118C96.0325 118 122 92.0325 122 60C122 27.9675 96.0325 2 64 2C31.9675 2 6 27.9675 6 60C6 92.0325 31.9675 118 64 118Z" stroke="black" stroke-opacity="0.097"/>
<defs>
<clipPath id="clip0">
<rect width="120" height="120" fill="white" transform="translate(4)"/>
</clipPath>
</defs>
</svg>
