<svg viewBox="0 0 128 128" fill="none" xmlns="http://www.w3.org/2000/svg">
<path d="M123.997 59.9941C123.997 93.1268 97.1371 119.988 63.9986 119.988C30.8601 119.988 4 93.1268 4 59.9941C4 26.8614 30.8607 0 63.9986 0C97.1364 0 123.997 26.8588 123.997 59.9941Z" fill="#2683FF"/>
<g clip-path="url(#clip0)">
<path d="M34.5214 74.084C34.0833 74.084 33.6551 74.2139 33.2909 74.4573C32.9266 74.7007 32.6427 75.0466 32.4751 75.4514C32.3074 75.8561 32.2636 76.3014 32.349 76.7311C32.4345 77.1608 32.6454 77.5554 32.9552 77.8652C33.265 78.1749 33.6596 78.3859 34.0893 78.4714C34.519 78.5568 34.9643 78.513 35.369 78.3453C35.7738 78.1777 36.1197 77.8938 36.3631 77.5295C36.6065 77.1653 36.7364 76.7371 36.7364 76.299C36.7364 75.9061 36.629 75.5489 36.4504 75.1917C36.2524 74.8558 35.9705 74.5771 35.6323 74.383C35.2942 74.1889 34.9113 74.086 34.5214 74.0844V74.084ZM65.8141 25.8943C65.8141 25.4562 65.6842 25.028 65.4409 24.6637C65.1975 24.2995 64.8515 24.0156 64.4468 23.8479C64.0421 23.6803 63.5967 23.6364 63.1671 23.7219C62.7374 23.8073 62.3428 24.0183 62.033 24.3281C61.7232 24.6378 61.5123 25.0325 61.4268 25.4622C61.3413 25.8918 61.3852 26.3372 61.5529 26.7419C61.7205 27.1466 62.0044 27.4925 62.3686 27.7359C62.7329 27.9793 63.1611 28.1092 63.5992 28.1092C64.1856 28.1059 64.7471 27.8715 65.1618 27.4568C65.5764 27.0422 65.8108 26.4807 65.8141 25.8943ZM92.8224 45.1131C93.2604 45.1131 93.6887 44.9832 94.0529 44.7399C94.4172 44.4965 94.7011 44.1506 94.8687 43.7458C95.0364 43.3411 95.0802 42.8957 94.9948 42.4661C94.9093 42.0364 94.6983 41.6418 94.3886 41.332C94.0788 41.0222 93.6841 40.8113 93.2545 40.7258C92.8248 40.6404 92.3795 40.6842 91.9748 40.8519C91.57 41.0195 91.2241 41.3034 90.9807 41.6676C90.7373 42.0319 90.6074 42.4601 90.6074 42.8982C90.6089 43.2741 90.7073 43.6432 90.8934 43.9698C91.0836 44.3152 91.3628 44.6034 91.702 44.8044C92.0412 45.0055 92.4281 45.1121 92.8224 45.1131ZM35.5554 40.8619C34.4838 40.2544 33.1618 40.612 32.5547 41.6836C31.9476 42.7552 32.3049 44.0772 33.3765 44.6843C34.4481 45.2913 35.77 44.9341 36.3771 43.8625C36.9846 42.8265 36.627 41.469 35.5554 40.8619ZM93.7134 74.5125C93.3918 74.2983 92.999 74.2266 92.6061 74.191C92.3127 74.187 92.0215 74.2413 91.7493 74.3509C91.4771 74.4604 91.2294 74.6229 91.0206 74.8289C90.8117 75.035 90.6459 75.2805 90.5327 75.5512C90.4195 75.8218 90.3612 76.1123 90.3612 76.4057C90.3612 76.6991 90.4195 76.9896 90.5327 77.2602C90.6459 77.5309 90.8117 77.7764 91.0206 77.9825C91.2294 78.1885 91.4771 78.351 91.7493 78.4605C92.0215 78.5701 92.3127 78.6244 92.6061 78.6204C93.3918 78.6204 94.1046 78.192 94.5351 77.5132C95.1426 76.4772 94.785 75.1196 93.7134 74.5125ZM61.3843 92.9805C61.2769 93.9809 61.8844 94.9452 62.8131 95.3024C63.0273 95.3737 63.2776 95.4454 63.4919 95.4454C64.0336 95.4445 64.558 95.255 64.9752 94.9095C65.3924 94.564 65.6763 94.084 65.7781 93.552C65.8576 92.9767 65.7067 92.3934 65.3583 91.9288C65.0099 91.4642 64.4921 91.1561 63.9176 91.0713C63.3431 90.9865 62.7584 91.132 62.2907 91.4761C61.8229 91.8203 61.51 92.3352 61.4199 92.9089C61.4005 92.9281 61.388 92.9531 61.3843 92.9801" fill="white"/>
<path d="M95.8925 70.4403C95.6293 70.288 95.3546 70.1567 95.0708 70.0474V49.3641C95.3924 49.2567 95.7139 49.0781 96.0355 48.9356C99.3565 47.0778 100.571 42.8626 98.7146 39.5396C96.8576 36.2165 92.6416 35.0036 89.3186 36.8605C89.0326 37.0035 88.7828 37.1821 88.5329 37.3607L70.3144 26.8226C70.35 26.501 70.3856 26.2151 70.3856 25.8939C70.3852 22.0719 67.2789 19 63.4921 19C59.7054 19 56.5261 22.1436 56.5261 25.93C56.5261 26.2515 56.5618 26.5375 56.5974 26.8586L38.5219 37.3254C37.8028 36.7621 36.9792 36.347 36.0986 36.1043C35.218 35.8615 34.298 35.7958 33.3919 35.911C32.4858 36.0263 31.6115 36.3201 30.8197 36.7756C30.0279 37.231 29.3344 37.8391 28.7792 38.5644C28.2241 39.2898 27.8183 40.1181 27.5855 41.0013C27.3527 41.8846 27.2974 42.8053 27.4229 43.7101C27.5483 44.6148 27.8521 45.4857 28.3164 46.2723C28.7808 47.0589 29.3966 47.7455 30.1282 48.2924C30.3781 48.471 30.6284 48.6496 30.9139 48.8283C31.2057 49.0068 31.5174 49.1506 31.8426 49.2567V69.9044C28.3057 71.3333 26.5906 75.3355 28.0194 78.8707C29.4482 82.406 33.4492 84.122 36.9861 82.6931C37.3077 82.5858 37.5936 82.4072 37.8791 82.2646C38.1651 82.086 38.4506 81.9074 38.7365 81.6932L56.6335 92.017C56.026 95.7678 58.5981 99.3042 62.3492 99.9117C66.1003 100.519 69.6368 97.9471 70.2439 94.1959C70.3152 93.8031 70.3152 93.4459 70.3152 93.0526C70.3105 92.7181 70.2867 92.3841 70.2439 92.0523L88.0339 81.8001C88.3198 82.0144 88.6054 82.2286 88.9269 82.4076C92.2479 84.2653 96.4644 83.0864 98.3229 79.7642C100.108 76.4416 99.0361 72.3693 95.8925 70.4403ZM97.1428 79.085C95.6783 81.5855 92.4273 82.4428 89.9269 80.9784C87.9266 79.7994 86.9262 77.4775 87.4621 75.2274L79.1029 70.3333C77.8128 71.6415 76.165 72.5394 74.3663 72.9141C72.5676 73.2887 70.6984 73.1236 68.9932 72.4393C67.743 72.8322 65.0647 73.0825 65.0647 73.0825V87.8002C67.9941 88.6932 69.6007 91.8012 68.7097 94.7301C67.8187 97.6591 64.7088 99.2661 61.7794 98.3751C61.7437 98.3751 61.7081 98.3395 61.6721 98.3395C61.4222 98.2682 61.2075 98.1609 60.9933 98.0536C58.2425 96.696 57.1709 93.3382 58.5285 90.6234C59.2072 89.2659 60.4218 88.2659 61.8494 87.8014V72.7978C60.8003 72.4735 59.7739 72.0796 58.7771 71.6188C57.1811 71.9378 55.5344 71.9015 53.9539 71.5125C52.3734 71.1236 50.898 70.3915 49.6322 69.3682L39.6656 75.1192C39.9091 76.1398 39.8446 77.2097 39.4802 78.1936C39.1157 79.1774 38.4677 80.0312 37.6181 80.6469C36.7685 81.2625 35.7555 81.6124 34.707 81.6524C33.6585 81.6923 32.6218 81.4205 31.7278 80.8713C30.8338 80.3221 30.1227 79.5201 29.6845 78.5668C29.2462 77.6135 29.1005 76.5516 29.2657 75.5155C29.4308 74.4794 29.8995 73.5155 30.6125 72.7457C31.3254 71.9759 32.2506 71.4348 33.271 71.1907C34.9858 70.7622 36.8075 71.262 38.131 72.4766L47.4545 67.0824C44.3109 62.6529 44.8111 56.58 48.6695 52.7219L38.0585 46.6489C35.9525 48.6492 32.6287 48.5423 30.6284 46.3991C30.1525 45.8935 29.7812 45.2988 29.5361 44.6492C29.2909 43.9996 29.1766 43.3079 29.1998 42.614C29.2231 41.92 29.3833 41.2375 29.6714 40.6058C29.9594 39.974 30.3696 39.4055 30.8783 38.9329C33.0216 36.9326 36.3081 37.0395 38.3084 39.1828C39.5234 40.4686 39.9876 42.2547 39.5943 43.9695L51.347 50.7208C52.8868 49.8925 54.6004 49.4396 56.3483 49.3989C57.9922 48.0421 62.2042 46.6489 62.2042 46.6489V30.5741C59.5964 29.7884 58.132 27.0376 58.9177 24.4298C59.7034 21.822 62.4561 20.3932 65.0639 21.1789C67.6717 21.9646 69.1362 24.7154 68.3505 27.3232C68.1182 28.1006 67.6962 28.808 67.1225 29.3817C66.5488 29.9555 65.8414 30.3775 65.0639 30.6097V46.3642C65.0639 46.3642 72.78 48.2932 75.2092 51.1866L87.7119 44.078C87.0688 41.2203 88.8192 38.3622 91.6773 37.7195C94.5354 37.0768 97.3931 38.8268 98.0358 41.6849C98.6785 44.5429 96.9285 47.4006 94.0704 48.0434C93.2198 48.235 92.3351 48.2147 91.4941 47.9841C90.6532 47.7536 89.8817 47.32 89.2477 46.7214L76.8879 53.7223C77.2451 54.4723 77.5667 55.2208 77.7809 56.0085C81.6033 58.6163 82.9609 63.6172 80.9245 67.7968L89.1055 72.5479C89.9298 71.7796 90.9804 71.2984 92.1006 71.1761C93.2207 71.0537 94.3504 71.2968 95.3211 71.8691C97.7859 73.3336 98.6421 76.5489 97.1436 79.085H97.1428Z" fill="white"/>
<path d="M74.102 58.7948C74.0663 58.5089 74.0307 58.259 73.9946 57.9731C73.9597 57.7796 73.9119 57.5887 73.8517 57.4016C73.8517 57.3303 73.816 57.2586 73.816 57.1874C73.7447 56.9731 73.6731 56.7228 73.6018 56.5086V56.4729C73.1475 55.2746 72.4548 54.1808 71.5654 53.2581C71.3512 53.0438 71.1726 52.8652 70.9223 52.6506L70.8867 52.6149C70.6724 52.4363 70.4582 52.2577 70.2079 52.1147L70.1722 52.0791C69.958 51.9361 69.7077 51.7575 69.4935 51.6506L69.4578 51.615C69.227 51.4817 68.9885 51.3624 68.7434 51.2578L68.6721 51.2221C68.4222 51.1148 68.1719 51.0079 67.8864 50.9006L67.8508 50.8649C67.5648 50.7936 67.315 50.6863 67.029 50.6507H66.9934C66.7108 50.5857 66.4244 50.5379 66.136 50.5077H66.1004C64.5789 50.2915 63.0274 50.4762 61.5992 51.0435L61.4206 51.1865C61.2063 51.2578 60.8491 51.4364 60.6349 51.5437C60.5234 51.6173 60.4035 51.6773 60.2777 51.7223C60.1704 51.7579 59.9918 51.9009 59.8848 51.9722C59.7779 52.0435 59.5276 52.2221 59.3847 52.3294L59.2773 52.4007C59.0631 52.5436 58.8845 52.7222 58.6698 52.9009L58.4912 53.0795C58.277 53.2937 58.0984 53.4723 57.9198 53.687C57.4948 53.6158 57.0647 53.5799 56.6339 53.5796C56.4909 53.5796 56.384 53.5796 56.2767 53.6153C54.6336 53.6865 53.0618 54.3653 51.8472 55.473C51.2397 56.0088 50.7399 56.688 50.3487 57.402L50.3106 57.4749C50.2005 57.6824 50.105 57.8973 50.0247 58.1181C49.9891 58.1893 49.9891 58.2254 49.9534 58.2967C49.8777 58.4817 49.818 58.6729 49.7748 58.8681C49.7392 58.9394 49.7392 59.0467 49.7035 59.118C49.6679 59.2966 49.6323 59.4752 49.5962 59.6894C49.5962 59.7607 49.5606 59.8324 49.5606 59.9393C49.5309 60.2122 49.519 60.4867 49.5249 60.7611C49.519 60.9879 49.5309 61.2149 49.5606 61.4399C49.5606 61.5111 49.5962 61.5828 49.5962 61.6897C49.6319 61.8327 49.6319 61.9757 49.6675 62.1182C49.7031 62.2608 49.7031 62.2968 49.7388 62.4042C49.7794 62.5069 49.8035 62.6154 49.8101 62.7257C49.8101 62.8331 49.8813 62.94 49.9174 63.0473C49.9466 63.1333 49.9825 63.2168 50.0247 63.2972C50.0785 63.4137 50.1262 63.5329 50.1677 63.6544C50.2033 63.7257 50.2389 63.7617 50.2389 63.833C50.741 65.0096 51.5883 66.0061 52.6689 66.6907C53.2048 67.0122 53.7406 67.2982 54.312 67.4764C54.5336 67.5525 54.7605 67.6122 54.9908 67.655L55.0621 67.6906L55.7052 67.7979L55.8482 67.8336C56.0981 67.8692 56.3484 67.8692 56.6339 67.8692C57.5986 67.8692 58.5273 67.6906 59.3847 67.2978C59.5989 67.4407 59.7775 67.5837 59.9922 67.7263L60.0634 67.7619C60.242 67.8692 60.4563 67.9761 60.6709 68.0835H60.7058C62.7475 69.124 65.1039 69.366 67.3146 68.7622H67.3502C67.6716 68.6929 67.9834 68.5849 68.2789 68.4407L69.2436 68.0122C70.1621 68.7288 71.2935 69.1184 72.4585 69.1194C72.7083 69.1194 72.923 69.0838 73.1729 69.0838L73.3515 69.0482C73.5804 69.0141 73.8071 68.9663 74.0303 68.9052C74.2504 68.8375 74.4653 68.754 74.6734 68.6553L74.7807 68.6197C74.995 68.5124 75.1736 68.4054 75.3882 68.2981C76.2813 67.7267 76.96 66.8693 77.3529 65.9046C77.4959 65.583 77.5671 65.2614 77.6388 64.9403V64.8329C77.6745 64.69 77.6745 64.547 77.7101 64.4044C77.7101 64.2258 77.7457 64.0472 77.7457 63.8686C77.7457 61.5111 76.2813 59.4748 74.1007 58.796" fill="white"/>
</g>
<path d="M64 118C96.0325 118 122 92.0325 122 60C122 27.9675 96.0325 2 64 2C31.9675 2 6 27.9675 6 60C6 92.0325 31.9675 118 64 118Z" stroke="black" stroke-opacity="0.097"/>
<defs>
<clipPath id="clip0">
<rect width="81" height="81" fill="white" transform="translate(23 19)"/>
</clipPath>
</defs>
</svg>
