<svg viewBox="0 0 128 128" fill="none" xmlns="http://www.w3.org/2000/svg">
<g clip-path="url(#clip0)">
<path d="M64 -0.000127316C30.8629 -0.000130213 4.00001 26.8628 4.00001 59.9999C4 93.137 30.8629 120 64 120C97.1371 120 124 93.137 124 59.9999C124 26.8628 97.1371 -0.000124419 64 -0.000127316Z" fill="#5546FF"/>
<path d="M89.9815 94L76.179 72.4643H96V64.3286H31V72.4643H50.821L37.0185 94H47.2901L63.5 68.7155L79.7099 94H89.9815ZM96 56.4321V48.2964H76.5802L90.2222 27H79.8704L63.5 52.6833L47.1296 27H36.7778L50.4198 48.2964H31V56.5119L96 56.4321Z" fill="white"/>
<path d="M64 118C96.0325 118 122 92.0325 122 60C122 27.9675 96.0325 2 64 2C31.9675 2 6 27.9675 6 60C6 92.0325 31.9675 118 64 118Z" stroke="black" stroke-opacity="0.097"/>
</g>
<defs>
<clipPath id="clip0">
<rect width="128" height="128" fill="white"/>
</clipPath>
</defs>
</svg>
