<svg viewBox="0 0 128 128" fill="none" xmlns="http://www.w3.org/2000/svg">
<path d="M128 64.0002C128 99.3453 99.3486 128 64 128C28.6514 128 0 99.3453 0 64.0002C0 28.655 28.6521 0 64 0C99.3479 0 128 28.6523 128 64.0002Z" fill="#7012FE"/>
<path d="M64 126C98.2417 126 126 98.2417 126 64C126 29.7583 98.2417 2 64 2C29.7583 2 2 29.7583 2 64C2 98.2417 29.7583 126 64 126Z" stroke="black" stroke-opacity="0.097"/>
<path d="M58.9424 91.6471C50.499 93.7353 45.6206 94.8743 42.0556 100C41.4928 97.7219 39.9917 91.0775 42.0556 86.9011C43.5567 83.8636 47.3093 81.2059 53.3135 79.1176C58.0042 77.4091 64.196 76.0802 70.5754 75.131L72.827 74.9412L70.7631 74.5615C60.4434 72.2834 53.5011 70.0053 46.3711 64.1203C43.1814 61.4626 41.6804 56.9064 42.4309 52.5401C43.1814 49.3128 45.8082 43.238 56.1279 40.2005C60.8187 38.8717 64.7589 37.9225 68.5115 36.9733H68.6991C77.5178 34.6952 83.1467 33.3663 85.9611 29C86.1488 31.2781 85.7735 36.2139 82.2085 41.1497C77.5178 47.7941 68.6991 51.7807 56.1279 53.4893L53.8763 53.6791L55.9403 54.2487C66.2599 56.5267 73.2023 58.8048 80.3322 64.6898C83.5219 67.3476 85.023 71.9037 84.2725 76.2701C83.5219 79.4973 80.8951 85.5722 70.5754 88.6096C65.8847 89.9385 62.3197 90.8877 58.9424 91.6471ZM79.5817 60.1337C76.392 57.8556 72.827 55.9572 67.5734 54.0588C74.5157 51.7807 79.957 48.5535 83.7096 43.9973C84.0848 48.5535 83.8972 55.1979 79.5817 60.1337Z" fill="white"/>
</svg>
