<svg viewBox="0 0 128 128" fill="none" xmlns="http://www.w3.org/2000/svg">
<g clip-path="url(#clip0)">
<path d="M64 -0.000249386C30.8629 -0.000252283 4.00001 26.8627 4.00001 59.9997C4 93.1368 30.8629 120 64 120C97.1371 120 124 93.1368 124 59.9998C124 26.8627 97.1371 -0.000246489 64 -0.000249386Z" fill="url(#paint0_linear)"/>
<path d="M64 118C96.0325 118 122 92.0325 122 60C122 27.9675 96.0325 2 64 2C31.9675 2 6 27.9675 6 60C6 92.0325 31.9675 118 64 118Z" stroke="black" stroke-opacity="0.097"/>
<g clip-path="url(#clip1)">
<path d="M41.8333 29.2834L100.733 69.5001L86.1666 91.0335L27.2666 50.5001L41.8333 29.2834Z" fill="url(#paint1_linear)"/>
<path d="M100.733 69.4999C95.6661 76.7832 78.5661 73.9332 62.4161 62.5332C45.9495 51.4499 37.0828 36.5665 41.8328 29.2832C46.8995 21.9999 63.9995 24.8499 80.1495 36.2499C96.6161 47.0165 105.483 62.2165 100.733 69.4999Z" fill="url(#paint2_linear)"/>
<path d="M86.1664 90.7167C81.0998 98 63.9998 95.15 47.8498 83.75C31.6998 72.35 22.5164 57.7834 27.5831 50.1834C32.6498 42.9 49.7498 45.75 65.8998 57.15C82.0498 68.55 90.9164 83.4334 86.1664 90.7167Z" fill="url(#paint3_linear)"/>
<path d="M100.733 69.4998L86.1662 91.0331C81.0996 98.3164 63.9996 95.1498 47.8496 84.0664C44.6829 81.8498 41.8329 79.6331 38.9829 77.0998C41.1996 76.7831 44.0496 75.5164 46.8996 72.3498C51.9662 66.9664 54.4996 65.6998 56.7162 66.0164C58.9329 66.0164 61.4662 68.2331 65.5829 73.6164C69.6996 78.9998 75.3996 80.5831 78.8829 77.7331C79.1996 77.4164 79.5162 77.4164 79.8329 77.0998C82.6829 74.8831 83.6329 73.9331 89.0162 63.7998C90.2829 61.2664 94.7162 57.1498 100.733 59.0498C102.316 63.1664 102.316 66.6498 100.733 69.4998Z" fill="#0E0F23"/>
<path fill-rule="evenodd" clip-rule="evenodd" d="M98.5163 68.2334C94.083 74.5668 78.5663 71.4001 63.683 60.9501C48.483 50.5001 39.6163 37.2001 44.0496 30.8668C48.483 24.5334 63.9996 27.7001 78.883 38.1501C93.7663 48.6001 102.633 61.9001 98.5163 68.2334ZM84.583 58.7334C82.3663 61.9001 74.7663 60.3168 67.1663 55.2501C59.883 50.1834 55.4496 43.5334 57.6663 40.3668C59.883 37.2001 67.483 38.7834 75.083 43.8501C82.3663 48.9168 86.7996 55.5668 84.583 58.7334Z" fill="white"/>
<path d="M40.5665 36.5665C40.5665 36.2498 40.2498 35.9332 39.9331 36.2498C39.6165 36.5665 39.2998 36.5665 39.2998 36.8832C39.6165 37.8332 39.9331 38.4665 39.9331 39.0998C39.9331 39.4165 40.2498 39.7332 40.5665 39.4165C40.8831 39.4165 41.1998 39.0998 40.8831 38.7832C40.8831 38.1498 40.8831 37.5165 40.5665 36.5665Z" fill="white"/>
<path d="M42.1497 41.6334C42.1497 41.3167 41.833 41 41.5164 41.3167C41.1997 41.6334 41.1997 41.6334 41.1997 41.95C44.683 49.8667 51.9664 58.4167 61.4664 64.7501C61.783 65.0667 62.0997 64.7501 62.4164 64.7501C62.733 64.4334 62.4164 64.1167 62.4164 63.8001C52.5997 57.4667 45.633 49.2334 42.1497 41.6334Z" fill="white"/>
<path d="M80.4668 72.6665C80.1502 72.6665 79.8335 72.6665 79.8335 72.9832C79.8335 73.2998 79.8335 73.6165 80.1502 73.6165C81.1002 73.9332 82.3668 74.2498 83.3168 74.5665C83.6335 74.5665 83.9502 74.5665 83.9502 74.2498C83.9502 73.9332 83.9502 73.6165 83.6335 73.6165C82.6835 73.2998 81.4168 72.9832 80.4668 72.6665Z" fill="white"/>
<path d="M86.1661 73.9331C85.8494 73.9331 85.5327 74.2498 85.5327 74.5664C85.5327 74.8831 85.8494 75.1998 86.1661 75.1998C88.6994 75.5164 91.5494 75.8331 93.766 75.5164C94.0827 75.5164 94.3994 75.1998 94.3994 74.8831C94.3994 74.5664 94.0827 74.2498 93.766 74.2498C91.2327 74.5664 88.6994 74.2498 86.1661 73.9331Z" fill="white"/>
</g>
</g>
<defs>
<linearGradient id="paint0_linear" x1="64" y1="120" x2="64" y2="-0.000249386" gradientUnits="userSpaceOnUse">
<stop stop-color="#0CB5FC"/>
<stop offset="1" stop-color="#0E0F23"/>
</linearGradient>
<linearGradient id="paint1_linear" x1="53.3732" y1="23.5654" x2="65.0538" y2="63.675" gradientUnits="userSpaceOnUse">
<stop stop-color="#03B8FF"/>
<stop offset="1" stop-color="#FA52A0"/>
</linearGradient>
<linearGradient id="paint2_linear" x1="62.9918" y1="20.7636" x2="74.6727" y2="60.8736" gradientUnits="userSpaceOnUse">
<stop stop-color="#03B8FF"/>
<stop offset="1" stop-color="#FA52A0"/>
</linearGradient>
<linearGradient id="paint3_linear" x1="43.7838" y1="26.3577" x2="55.4646" y2="66.4676" gradientUnits="userSpaceOnUse">
<stop stop-color="#03B8FF"/>
<stop offset="1" stop-color="#FA52A0"/>
</linearGradient>
<clipPath id="clip0">
<rect width="128" height="128" fill="white"/>
</clipPath>
<clipPath id="clip1">
<rect width="76" height="76" fill="white" transform="translate(26 22)"/>
</clipPath>
</defs>
</svg>
