<svg viewBox="0 0 128 128" fill="none" xmlns="http://www.w3.org/2000/svg">
<g clip-path="url(#clip0)">
<path d="M128 64.0002C128 99.3453 99.3486 128 63.9999 128C28.6513 128 -0.00012207 99.3453 -0.00012207 64.0002C-0.00012207 28.655 28.652 0 63.9999 0C99.3479 0 128 28.6523 128 64.0002Z" fill="white"/>
<path d="M64.0015 125.879C98.1703 125.879 125.87 98.178 125.87 64.0065C125.87 29.835 98.1703 2.13354 64.0015 2.13354C29.8326 2.13354 2.13326 29.835 2.13326 64.0065C2.13326 98.178 29.8326 125.879 64.0015 125.879Z" stroke="black" stroke-opacity="0.097"/>
<path d="M43.3922 39.9437V36C48.7403 39.3803 53.8608 42.7606 59.2088 46.2535C53.8608 49.6338 48.7403 53.0141 43.3922 56.3944V52.1127C42.7095 52.338 42.2544 52.4507 41.7992 52.6761C37.1339 54.5916 33.834 59.4366 34.0616 64.507C34.2892 69.3521 36.6787 72.9577 41.0027 75.0986C45.2129 77.1268 49.423 76.9014 53.4056 74.3099C58.7537 70.9296 63.988 67.4366 69.336 63.9437C71.2704 62.7042 73.091 61.4648 75.253 60.4507C74.9117 61.2394 74.4565 62.0282 74.1151 62.8169C71.2704 68.1127 68.5395 73.2958 65.581 78.4789C63.419 82.3099 60.1192 84.5634 56.1366 86.1408C52.3815 87.6056 48.6265 88.3944 44.6439 88.0563C36.1098 87.2676 29.51 83.2113 25.4137 75.8873C20.2932 66.8732 21.2035 57.9718 27.1205 49.5211C30.7617 44.2254 36.1098 41.2958 42.4819 40.169C42.7095 40.169 43.0509 40.0563 43.3922 39.9437Z" fill="url(#paint0_linear)"/>
<path d="M85.7216 88.0563V92C80.3735 88.507 75.1392 85.2394 69.7912 81.7465C75.1392 78.3662 80.2597 74.9859 85.6078 71.6056V76C86.5181 75.6619 87.3146 75.4366 87.9973 75.0986C92.4351 72.6197 95.0522 68.9014 94.9384 63.831C94.8246 55.9436 87.656 50.7605 80.6011 51.8873C78.4391 52.2253 76.5047 53.1267 74.6841 54.3662C70.7015 57.0704 66.7189 59.5493 62.7363 62.1408C60.0054 63.9436 57.2744 65.7465 54.4297 67.4366C54.2021 67.5493 54.0884 67.6619 53.5194 67.8873C54.0884 66.6479 54.5435 65.7465 54.9987 64.845C57.7296 59.7746 60.3467 54.7042 63.1914 49.7465C65.4672 45.5774 69.336 43.2112 73.66 41.5211C76.5047 40.507 79.4632 39.831 82.4217 39.9436C88.4525 40.0563 93.8005 41.8591 98.3521 45.8028C102.676 49.5211 105.521 54.1408 106.431 59.6619C108.479 71.4929 101.766 82.9859 90.6145 86.9296C89.1352 87.2676 87.5422 87.6056 85.7216 88.0563Z" fill="url(#paint1_linear)"/>
</g>
<defs>
<linearGradient id="paint0_linear" x1="99.3176" y1="-0.468393" x2="11.3438" y2="108.936" gradientUnits="userSpaceOnUse">
<stop stop-color="#08C8F6"/>
<stop offset="1" stop-color="#4D5DFB"/>
</linearGradient>
<linearGradient id="paint1_linear" x1="121.115" y1="17.059" x2="33.141" y2="126.464" gradientUnits="userSpaceOnUse">
<stop stop-color="#08C8F6"/>
<stop offset="1" stop-color="#4D5DFB"/>
</linearGradient>
<clipPath id="clip0">
<rect width="128" height="128" fill="white"/>
</clipPath>
</defs>
</svg>
