<svg viewBox="0 0 128 128" fill="none" xmlns="http://www.w3.org/2000/svg">
<path d="M123.997 59.9941C123.997 93.1268 97.1371 119.988 63.9986 119.988C30.8601 119.988 4 93.1268 4 59.9941C4 26.8614 30.8607 0 63.9986 0C97.1364 0 123.997 26.8588 123.997 59.9941Z" fill="white"/>
<g clip-path="url(#clip0)">
<path fill-rule="evenodd" clip-rule="evenodd" d="M98.191 50.3211C94.0273 46.3917 88.1476 43.1184 80.5186 41.04H80.4744C62.3206 36.1136 55.8529 47.7663 70.5523 55.112C87.2399 63.44 89.5587 77.0794 80.14 85.6091C77.7404 87.7791 69.9423 91.8405 62.769 92.8155C51.3769 94.3917 38.7354 91.9761 28.4604 88.7211C34.0489 93.051 40.4354 96.2442 47.2574 98.1195C63.2761 102.518 82.6242 99.2778 95.4458 88.1603C108.359 76.9475 109.594 61.0538 98.191 50.3211ZM80.5259 41.0437L80.6913 41.0914L80.5259 41.0437Z" fill="#008DD0"/>
<path fill-rule="evenodd" clip-rule="evenodd" d="M45.621 24.0329C54.4624 20.4384 64.0944 19.2199 73.5555 20.4992C83.0166 21.7786 91.9757 25.5109 99.5386 31.3236C80.3558 25.2389 65.4726 25.7667 55.7085 29.6851L55.5652 29.7438C43.508 34.6629 39.3296 44.7321 44.5773 53.8373C47.4033 58.7454 52.3864 62.4146 57.4394 64.9328C70.8012 71.6077 66.6927 81.8309 52.2247 79.9614C50.619 79.7479 49.0301 79.4233 47.4695 78.9901C19.0591 71.2522 14.9028 47.188 32.5495 31.8845C36.445 28.5693 40.8613 25.9166 45.621 24.0329Z" fill="#008DD0"/>
</g>
<path d="M64 118C96.0325 118 122 92.0325 122 60C122 27.9675 96.0325 2 64 2C31.9675 2 6 27.9675 6 60C6 92.0325 31.9675 118 64 118Z" stroke="black" stroke-opacity="0.097"/>
<defs>
<clipPath id="clip0">
<rect width="84" height="80" fill="white" transform="translate(22 20)"/>
</clipPath>
</defs>
</svg>
