<svg viewBox="0 0 128 128" fill="none" xmlns="http://www.w3.org/2000/svg">
<path d="M123.997 59.9941C123.997 93.1269 97.1371 119.988 63.9986 119.988C30.8601 119.988 4 93.1269 4 59.9941C4 26.8614 30.8607 6.10352e-05 63.9986 6.10352e-05C97.1364 6.10352e-05 123.997 26.8589 123.997 59.9941Z" fill="white"/>
<path d="M50.2571 21V46.9907L37 60V34.0093L50.2571 21Z" fill="#242828"/>
<path d="M90 73.0093C90 87.3557 78.1339 99 63.5142 99C48.8661 99 37 87.3557 37 73.0093V60H50.2571V73.0093C50.2571 80.1964 56.1901 86.0186 63.5142 86.0186C70.8382 86.0186 76.7713 80.1964 76.7713 73.0093H90Z" fill="#242828"/>
<path d="M90 46.9907L76.7429 60H37L50.2571 46.9907H90Z" fill="#00E8B5"/>
<path d="M64 118C96.0325 118 122 92.0325 122 60C122 27.9675 96.0325 2 64 2C31.9675 2 6 27.9675 6 60C6 92.0325 31.9675 118 64 118Z" stroke="black" stroke-opacity="0.097"/>
</svg>
