<svg viewBox="0 0 128 128" fill="none" xmlns="http://www.w3.org/2000/svg">
<path d="M123.997 59.9941C123.997 93.1268 97.1371 119.988 63.9986 119.988C30.8601 119.988 4 93.1268 4 59.9941C4 26.8614 30.8607 0 63.9986 0C97.1364 0 123.997 26.8588 123.997 59.9941Z" fill="black"/>
<path d="M102.902 45.317C105.577 55.6369 52.8666 81.1367 28.9737 87.1967C5.08084 93.2566 75.1788 63.3769 72.443 53.057C69.7072 42.7371 13.8355 51.197 37.7284 45.137C61.6213 39.0771 100.227 34.9971 102.902 45.317Z" fill="url(#paint0_linear)"/>
<path d="M64 118C96.0325 118 122 92.0325 122 60C122 27.9675 96.0325 2 64 2C31.9675 2 6 27.9675 6 60C6 92.0325 31.9675 118 64 118Z" stroke="black" stroke-opacity="0.097"/>
<defs>
<linearGradient id="paint0_linear" x1="56.5874" y1="40.3311" x2="66.1244" y2="77.7237" gradientUnits="userSpaceOnUse">
<stop stop-color="#00FF8F"/>
<stop offset="0.43" stop-color="#53FDB2"/>
<stop offset="1" stop-color="#68FCBB"/>
</linearGradient>
</defs>
</svg>
