<svg viewBox="0 0 128 128" fill="none" xmlns="http://www.w3.org/2000/svg">
<path d="M123.999 59.9941C123.999 93.1268 97.1393 119.988 64.0008 119.988C30.8623 119.988 4.0022 93.1268 4.0022 59.9941C4.0022 26.8614 30.8629 0 64.0008 0C97.1386 0 123.999 26.8588 123.999 59.9941Z" fill="#FF060A"/>
<g clip-path="url(#clip0)">
<path d="M98.1289 47.5938C94.6133 44.3477 89.75 39.3906 85.7891 35.875L85.5547 35.711C85.1647 35.3978 84.725 35.1522 84.2539 34.9844V34.9844C74.7031 33.2031 30.2539 24.8945 29.3867 25C29.1437 25.034 28.9115 25.1221 28.707 25.2578L28.4844 25.4336C28.2102 25.7121 28.002 26.0484 27.875 26.418L27.8164 26.5703V27.4024V27.5313C32.8203 41.4649 52.5781 87.1094 56.4688 97.8203C56.7031 98.5469 57.1484 99.9297 57.9805 100H58.168C58.6133 100 60.5117 97.4922 60.5117 97.4922C60.5117 97.4922 94.4492 56.336 97.8828 51.9531C98.3273 51.4133 98.7196 50.8326 99.0547 50.2188C99.1402 49.7385 99.0999 49.2443 98.9376 48.7843C98.7754 48.3243 98.4968 47.9141 98.1289 47.5938V47.5938ZM69.2188 52.3867L83.7031 40.375L92.1992 48.2031L69.2188 52.3867ZM63.5938 51.6016L38.6562 31.1641L79.0039 38.6055L63.5938 51.6016ZM65.8438 56.9571L91.3672 52.8438L62.1875 88L65.8438 56.9571ZM35.2695 33.2031L61.5078 55.4688L57.7109 88.0235L35.2695 33.2031Z" fill="white"/>
</g>
<path d="M64 118C96.0325 118 122 92.0325 122 60C122 27.9675 96.0325 2 64 2C31.9675 2 6 27.9675 6 60C6 92.0325 31.9675 118 64 118Z" stroke="black" stroke-opacity="0.097"/>
<defs>
<clipPath id="clip0">
<rect width="75" height="75" fill="white" transform="translate(26 25)"/>
</clipPath>
</defs>
</svg>
