<svg viewBox="0 0 128 128" fill="none" xmlns="http://www.w3.org/2000/svg">
<path d="M123.997 59.9941C123.997 93.1269 97.1371 119.988 63.9986 119.988C30.8601 119.988 4 93.1269 4 59.9941C4 26.8614 30.8607 6.10352e-05 63.9986 6.10352e-05C97.1364 6.10352e-05 123.997 26.8589 123.997 59.9941Z" fill="#0089DB"/>
<path d="M64 120C97.1371 120 124 93.1371 124 60C124 26.8629 97.1371 0 64 0C30.8629 0 4 26.8629 4 60C4 93.1371 30.8629 120 64 120Z" fill="#3375BB"/>
<path fill-rule="evenodd" clip-rule="evenodd" d="M93.4467 30.2742C93.9634 30.2749 94.4748 30.3782 94.9513 30.578C95.4278 30.7778 95.86 31.0702 96.2227 31.4381C96.5855 31.8061 96.8716 32.2424 97.0645 32.7217C97.2574 33.2011 97.3534 33.7139 97.3467 34.2306C97.1595 45.4086 96.7281 53.9586 95.9217 60.7266C95.1357 67.4946 93.9531 72.5226 92.1717 76.5906C90.9717 79.3086 89.4903 81.5586 87.7497 83.4726C85.4037 86.0046 82.7277 87.8418 79.7997 89.5866C78.5493 90.3342 77.2491 91.0728 75.8877 91.8474C72.9777 93.4998 69.7797 95.3172 66.1497 97.7454C65.5096 98.176 64.7557 98.406 63.9843 98.406C63.2129 98.406 62.459 98.176 61.8189 97.7454C58.1349 95.2908 54.8949 93.4494 51.9609 91.7874C51.3081 91.4174 50.6697 91.0534 50.0457 90.6954C46.6137 88.7094 43.5237 86.8134 40.8237 84.0774C39.0237 82.2774 37.4673 80.0814 36.2277 77.4774C34.5417 73.9914 33.3957 69.7734 32.5557 64.3134C31.4199 57.012 30.8619 47.466 30.6519 34.23C30.6435 33.7149 30.737 33.2032 30.9271 32.7244C31.1172 32.2456 31.4001 31.8091 31.7595 31.44C32.501 30.6993 33.505 30.2813 34.5531 30.2772H36.1659C41.1339 30.2958 52.1019 29.8086 61.5879 22.4232C62.2727 21.8946 63.1135 21.6078 63.9786 21.6078C64.8437 21.6078 65.6844 21.8946 66.3693 22.4232C75.8553 29.8092 86.8233 30.3012 91.8153 30.2772L93.4467 30.2742ZM84.7293 74.0952C85.9479 71.583 86.9613 68.1132 87.7293 63.1272C88.6479 57.1632 89.2107 49.0632 89.4753 38.0412C83.6253 37.872 73.5753 36.747 63.9933 30.2952C54.4119 36.726 44.3619 37.848 38.5299 38.04C38.7363 47.154 39.1485 54.24 39.8049 59.808C40.5549 66.144 41.6229 70.44 42.9549 73.458C43.8363 75.4644 44.8113 76.908 45.9729 78.186C47.5293 79.8924 49.4979 81.2982 52.1769 82.914C53.2893 83.58 54.5169 84.2754 55.8489 85.032C58.2273 86.3778 60.9489 87.918 63.9849 89.85C66.9675 87.948 69.6489 86.424 72.0009 85.086C72.7095 84.6828 73.3869 84.3 74.0343 83.9238C77.3343 82.0302 79.7703 80.4552 81.5883 78.6198C82.8159 77.358 83.8119 75.99 84.7299 74.094" fill="white"/>
<path d="M64 118C96.0325 118 122 92.0325 122 60C122 27.9675 96.0325 2 64 2C31.9675 2 6 27.9675 6 60C6 92.0325 31.9675 118 64 118Z" stroke="black" stroke-opacity="0.097"/>
</svg>
