<svg viewBox="0 0 128 128" fill="none" xmlns="http://www.w3.org/2000/svg">
<path d="M64.0002 127.981C99.3411 127.981 127.991 99.3313 127.991 63.9904C127.991 28.6495 99.3411 0 64.0002 0C28.6592 0 0.00976562 28.6495 0.00976562 63.9904C0.00976562 99.3313 28.6592 127.981 64.0002 127.981Z" fill="url(#paint0_linear_703_10667)"/>
<path d="M97.6686 32.096L90.9857 25.2837H57.2551V87.5722L55.6203 89.5522H44.1722L42.6046 87.5722V37.4844H29.5889V95.885L36.195 102.975H64.0003L70.405 95.9569V89.5522H91.9445L97.6686 83.8281V61.0614L94.26 58.0651L97.6686 54.5895V32.1008V32.096ZM85.7171 75.4865L83.3105 78.0753H70.2277V63.9905H83.2674L85.7219 66.5361V75.4913L85.7171 75.4865ZM85.7171 49.201L83.3105 51.7898H70.2277V37.7098H83.2674L85.7219 40.2554V49.2058L85.7171 49.201Z" fill="white"/>
<defs>
<linearGradient id="paint0_linear_703_10667" x1="15.9343" y1="106.245" x2="112.056" y2="21.7405" gradientUnits="userSpaceOnUse">
<stop stop-color="#B40381"/>
<stop offset="0.13" stop-color="#751884"/>
<stop offset="0.26" stop-color="#3F2A86"/>
<stop offset="0.32" stop-color="#2B3288"/>
<stop offset="0.46" stop-color="#1B588D"/>
<stop offset="0.7" stop-color="#019A97"/>
<stop offset="0.86" stop-color="#35AB4C"/>
<stop offset="1" stop-color="#65BB0A"/>
</linearGradient>
</defs>
</svg>
