<svg viewBox="0 0 128 128" fill="none" xmlns="http://www.w3.org/2000/svg">
<g clip-path="url(#clip0)">
<path d="M64 -0.000127316C30.8629 -0.000130213 4.00001 26.8628 4.00001 59.9999C4 93.137 30.8629 120 64 120C97.1371 120 124 93.137 124 59.9999C124 26.8628 97.1371 -0.000124419 64 -0.000127316Z" fill="white"/>
<path d="M64 118C96.0325 118 122 92.0325 122 60C122 27.9675 96.0325 2 64 2C31.9675 2 6 27.9675 6 60C6 92.0325 31.9675 118 64 118Z" stroke="black" stroke-opacity="0.097"/>
<g clip-path="url(#clip1)">
<path d="M76.1073 71H72.4649C71.7904 71 71.2171 70.4483 71.2171 69.7241V59.931L64.843 64C64.3034 64.3448 63.6288 64.3448 63.0892 64L56.7488 59.931V69.7241C56.7488 70.4138 56.2092 71 55.501 71H51.8924C51.2179 71 50.6445 70.4483 50.6445 69.7241V50.8276C50.6445 49.8966 51.3865 49.1379 52.2971 49.1379C52.6343 49.1379 52.9379 49.2414 53.2077 49.4483L63.2579 56.5172C63.6626 56.8276 64.2359 56.8276 64.6406 56.5172L74.6908 49.4483C75.4328 48.931 76.4783 49.1379 76.9841 49.8966C77.1865 50.1724 77.2539 50.5172 77.2877 50.8276V69.7241C77.3214 70.4138 76.7818 71 76.1073 71Z" fill="#FF4A4A"/>
<path d="M45.2149 70.9655H22.6189C21.7083 70.9655 20.9663 70.2069 20.9663 69.2759V50.2759C21 49.5517 21.5396 49 22.2479 49H25.8902C26.5647 49 27.1381 49.5517 27.1381 50.2759V64.7241H40.8306V50.2759C40.8306 49.5862 41.3702 49 42.0785 49H45.6196C46.2942 49 46.8675 49.5517 46.8675 50.2759V69.2759C46.8675 70.2069 46.1255 70.9655 45.2149 70.9655Z" fill="#FF4A4A"/>
<path d="M82.7854 49H105.381C106.292 49 107.034 49.7586 107.034 50.6897V69.6897C107.034 70.3793 106.494 70.9655 105.82 70.9655H102.178C101.503 70.9655 100.93 70.4138 100.93 69.6897V56.069C100.93 55.6207 100.559 55.2414 100.12 55.2414H88.0803C87.6418 55.2414 87.2709 55.6207 87.2709 56.069V69.6897C87.2709 70.3793 86.7312 70.9655 86.023 70.9655H82.3807C81.7061 70.9655 81.1328 70.4138 81.1328 69.6897V50.6897C81.1328 49.7586 81.8748 49 82.7854 49Z" fill="#FF4A4A"/>
<path d="M92.262 59.2415H95.8706C96.5451 59.2415 97.1185 59.7932 97.1185 60.5173V64.2759C97.1185 64.9656 96.5789 65.5518 95.8706 65.5518H92.262C91.5875 65.5518 91.0142 65.0001 91.0142 64.2759V60.4828C91.0142 59.7932 91.5875 59.2415 92.262 59.2415Z" fill="#FF4A4A"/>
</g>
</g>
<defs>
<clipPath id="clip0">
<rect width="128" height="128" fill="white"/>
</clipPath>
<clipPath id="clip1">
<rect width="86" height="22" fill="white" transform="translate(21 49)"/>
</clipPath>
</defs>
</svg>
