<svg viewBox="0 0 128 128" fill="none" xmlns="http://www.w3.org/2000/svg">
<path d="M64.0002 127.981C99.3411 127.981 127.991 99.3313 127.991 63.9904C127.991 28.6495 99.3411 0 64.0002 0C28.6592 0 0.00976562 28.6495 0.00976562 63.9904C0.00976562 99.3313 28.6592 127.981 64.0002 127.981Z" fill="#FBD7E8"/>
<path d="M64 123.93C97.1037 123.93 123.939 97.0942 123.939 63.9905C123.939 30.8868 97.1037 4.05103 64 4.05103C30.8964 4.05103 4.06055 30.8868 4.06055 63.9905C4.06055 97.0942 30.8964 123.93 64 123.93Z" fill="#FFF4FC"/>
<path d="M29.6603 76.8815C29.4734 74.4557 30.9068 72.1019 32.7189 69.8775C34.8474 67.2599 36.9952 64.6568 38.1889 61.4256C38.8792 59.5512 38.9655 57.5665 39.3586 55.6345C39.6942 53.9997 40.2886 52.4896 41.4823 51.2767C42.2398 50.5097 42.3261 49.7139 41.7892 48.7503C38.6155 43.0454 38.2991 42.4174 35.1447 36.6981C35.0871 36.5975 35.0392 36.492 34.9913 36.3913C34.9194 36.2379 35.1447 36.1277 35.2214 36.2763C35.2741 36.3722 35.322 36.4728 35.3844 36.5639C39.071 42.1921 39.9387 42.7242 43.5965 48.3763C45.1977 50.8549 47.8009 50.3515 49.6561 48.99C50.5814 48.314 50.2985 47.4703 49.6657 46.6937C23.0302 21.8223 19.9141 18.6104 52.8921 46.2478C53.4242 46.8327 53.314 48.8126 52.6332 49.9152C51.3724 51.9623 49.3877 52.83 47.1249 53.2183C43.5198 53.8415 43.1746 54.0716 42.9014 57.7055C42.6665 60.8168 41.5734 63.5925 40.2838 66.3683C38.3615 70.5103 39.0758 72.9936 42.8055 75.6542C43.3712 76.0569 43.9225 76.4788 44.4978 76.8623C47.7337 79.0149 47.6858 83.2096 44.6176 85.5778C41.7173 87.8166 38.3662 88.9049 34.8426 89.5952C34.5358 89.6575 34.3824 89.5425 34.2865 89.2021C33.8407 87.6393 32.8627 86.3497 32.0046 85.0026C30.5424 82.7014 29.6603 80.2277 29.6507 76.8815H29.6603ZM34.1331 75.9898C33.601 76.0042 33.2127 76.0474 33.0305 76.474C32.9442 76.6802 33.0113 76.8959 33.2127 76.9918C33.8311 77.2938 33.7832 77.6965 33.462 78.1951C33.251 78.5259 33.1791 78.9142 33.462 79.2402C33.7448 79.5709 34.1331 79.7387 34.5742 79.5805C35.5522 79.2354 35.8877 78.4683 35.7487 77.5239C35.6097 76.5651 35.0008 76.0234 34.1331 75.985V75.9898Z" fill="#FF007A"/>
<path d="M70.668 51.339L70.8454 50.0542C71.1906 50.2891 71.5501 50.5096 71.8857 50.7589C74.1245 52.4272 76.7948 52.806 79.4363 53.2566C83.2763 53.9134 87.1834 54.2537 90.8029 55.8837C99.1109 59.623 100.77 68.2906 97.5289 74.8584C97.4234 75.0693 97.3611 75.4385 97.0686 75.3714C96.8289 75.3138 96.9008 74.9639 96.8769 74.729C96.5892 71.3875 94.4607 69.398 91.7665 67.8496C88.3004 65.8552 84.4987 64.5992 80.8649 62.9693C78.3768 61.8523 75.9654 60.6058 73.9184 58.7649C71.7131 56.7802 70.6584 54.3017 70.668 51.339Z" fill="#FF007A"/>
<path d="M85.3759 45.1116C85.4142 46.2814 85.1841 47.384 84.6184 48.4195C84.2493 49.0907 84.3452 49.7379 84.9492 50.2077C85.6012 50.7158 86.258 50.5816 86.8189 50.0207C87.9982 48.8414 88.3673 47.2881 88.7461 45.7444C88.7796 45.6102 88.8563 45.4808 88.9138 45.3513C89.0289 45.4328 89.1631 45.4952 89.2542 45.6006C91.6225 48.3332 93.4586 51.3343 93.9859 54.9969C94.0051 55.1263 93.9619 55.2701 93.9524 55.4044C93.8948 55.3564 93.8133 55.3229 93.7798 55.2605C91.8382 51.7849 88.5303 51.1473 84.9684 50.9699C81.9625 50.8213 78.9663 50.6152 76.0132 49.9248C71.4972 48.8701 68.4866 45.8595 65.8019 42.3551C63.6974 39.6033 61.6887 36.7749 59.0807 34.4498C56.5543 32.2014 53.6252 30.8638 50.2741 30.4228C50.1399 30.4036 50.0201 30.3221 49.8906 30.2694C50.0201 30.231 50.1543 30.1591 50.2837 30.1543C54.8908 29.9386 58.7308 31.6884 62.0243 34.7853C62.9543 35.6579 63.8268 36.5975 64.6801 37.5515C65.0061 37.9158 65.2842 38.0357 65.7684 37.9542C71.7369 36.9474 77.437 37.633 82.8926 40.4279C84.7143 41.3627 85.4526 42.6283 85.3807 44.5459C85.3759 44.7329 85.3807 44.9199 85.3807 45.1068L85.3759 45.1116Z" fill="#FF007A"/>
<path d="M96.2012 81.1626C96.0574 87.0401 93.6987 91.5608 88.3774 94.327C88.2528 94.3893 88.1041 94.4085 87.9699 94.4468C87.9699 94.3509 87.9316 94.2311 87.9699 94.1544C90.4628 89.5809 88.9527 85.53 86.4023 81.5653C84.6908 78.8998 82.7013 76.4022 81.2631 73.5641C80.0166 71.1048 79.4893 68.5256 80.1413 65.7834C80.3091 65.0883 80.544 64.9061 81.2199 65.3328C84.0244 67.1066 87.059 68.4825 89.8252 70.3282C93.1043 72.5142 95.4486 75.3235 96.0382 79.3505C96.1245 79.9545 96.1485 80.5682 96.1964 81.1578L96.2012 81.1626Z" fill="#FF007A"/>
<path d="M76.4641 101.225C73.4008 101.211 71.5119 99.4325 70.1313 96.9445C69.0286 94.9501 68.3383 92.7497 67.1062 90.8177C65.4619 88.2385 62.4561 86.8531 59.9152 87.5098C57.9353 88.0228 56.7608 89.7582 57.0916 91.6806C57.3936 93.4161 59.431 94.8782 61.2719 94.6817C62.7581 94.5235 63.9134 93.0277 63.7169 91.508C63.5347 90.0746 62.1876 89.1302 60.6487 89.3795C59.8913 89.5042 59.3447 89.926 59.1865 90.717C59.0427 91.4457 59.3064 91.997 60.0063 92.3086C60.0878 92.3422 60.1358 92.4429 60.2029 92.51C60.1118 92.5052 60.0207 92.5148 59.9392 92.4908C59.3351 92.3086 58.9564 91.9012 58.8414 91.2875C58.6832 90.463 58.9852 89.787 59.6132 89.2645C60.5193 88.5022 62.015 88.4686 63.2327 89.1446C64.5462 89.8733 65.1023 91.1293 64.8722 92.8312C64.4408 96.0432 60.8501 97.491 57.686 95.722C56.7176 95.1803 55.9074 94.4324 55.2027 93.603C52.6715 90.6116 49.4547 89.0104 45.5668 88.7179C45.375 88.7036 45.1928 88.6173 45.0059 88.5693C45.1257 88.4159 45.2216 88.2433 45.3654 88.1187C49.656 84.3937 54.4644 81.781 60.294 81.781C64.5894 81.781 68.3047 83.1569 70.486 87.227C71.603 89.3124 71.8092 91.6519 72.1879 93.9386C72.2742 94.4516 72.3509 94.9645 72.4659 95.4727C73.2857 99.0586 75.6252 100.502 79.3166 99.6866C80.0309 99.5284 80.7212 99.2743 81.4259 99.0682C81.5218 99.0394 81.6273 99.0586 81.728 99.0538C81.6752 99.1401 81.6417 99.2408 81.5698 99.3031C80.2562 100.458 78.2667 101.206 76.4641 101.225Z" fill="#FF007A"/>
<path d="M49.5361 34.143C49.68 31.9378 49.2581 32.0624 51.6599 32.8055C54.474 33.678 55.8355 35.7922 56.4203 38.5152C57.0292 41.3628 57.6236 44.2009 59.4885 46.5787C59.8193 47.0006 59.6131 47.3889 59.0618 47.456C57.8394 47.6142 56.7799 47.1252 55.7971 46.4924C51.842 43.9468 50.26 40.0397 49.6128 35.61C49.5745 35.3607 49.5601 35.1066 49.5457 34.8525C49.5361 34.6656 49.5457 34.4786 49.5457 34.1382L49.5361 34.143Z" fill="#FF007A"/>
<path d="M78.4199 68.5975C78.4199 73.0511 75.4428 76.3686 70.6584 77.3705C67.7772 77.9746 64.8241 77.8643 61.9237 78.2431C60.3321 78.4492 58.774 78.7704 57.2543 79.2977C57.1153 79.3457 56.9523 79.3265 56.8037 79.3409C56.9044 79.2306 56.9859 79.0964 57.1057 79.0149C59.9726 77.0829 63.266 76.4357 66.5931 75.894C69.2969 75.4529 71.9959 75.0215 74.1868 73.147C76.8043 70.9034 77.6145 67.3655 76.3201 63.6693C76.2434 63.4487 76.2099 63.2186 76.1571 62.9885C76.3201 63.1515 76.5119 63.2953 76.6509 63.4775C77.8254 65.0308 78.5829 66.7279 78.4247 68.5927L78.4199 68.5975Z" fill="#FF007A"/>
<path d="M54.7326 60.1839C52.5369 60.1839 51.7171 59.2155 52.0671 57.0294C52.3308 55.3899 53.9128 53.8606 55.3846 53.8222C57.6282 53.7695 59.3924 54.9776 59.795 56.8472C60.0252 57.9259 59.4211 58.8607 58.0644 59.4839C57.0097 59.9729 55.8927 60.1935 54.7326 60.1791V60.1839ZM56.0413 54.3927C55.1305 54.503 54.1477 54.666 54.1573 55.7446C54.1621 56.7705 55.1353 57.0102 55.979 57.0006C56.8276 56.9911 57.8295 56.7801 57.8487 55.7302C57.8631 54.6708 56.8659 54.5317 56.0413 54.3879V54.3927Z" fill="#FF007A"/>
<path d="M79.7294 36.2811C81.4169 36.655 83.0037 37.2111 84.5426 37.8727C85.4726 38.2754 85.7411 37.9542 85.765 37.0433C85.8034 35.2599 85.9904 33.5005 86.8629 31.8946C86.9156 31.7987 87.0115 31.7268 87.0834 31.6453C87.0834 31.7555 87.0978 31.8754 87.069 31.9808C86.1582 35.4181 86.5513 38.4815 89.3558 41.0271C90.6022 42.1585 91.6233 43.5344 92.7403 44.8C92.817 44.8863 92.8506 45.0157 92.9033 45.126C92.8074 45.0541 92.7068 44.9966 92.6253 44.9151C91.3645 43.7214 90.0365 42.614 88.6031 41.636C88.023 41.2429 87.7306 41.4538 87.6874 42.0866C87.5628 43.8604 87.6874 45.6725 86.9683 47.36C86.7862 47.7915 86.6903 48.2757 86.2828 48.5825C86.3787 48.1846 86.5273 47.7915 86.5657 47.384C86.767 45.3609 86.8341 43.3378 86.3212 41.3483C85.9472 39.9101 84.8063 39.1287 83.603 38.4623C82.3565 37.772 81.0669 37.1584 79.8013 36.5112C79.715 36.468 79.6431 36.3865 79.5664 36.3242L79.7342 36.2763L79.7294 36.2811Z" fill="#FF007A"/>
</svg>
