<svg viewBox="0 0 128 128" fill="none" xmlns="http://www.w3.org/2000/svg">
<g clip-path="url(#clip0_233:1194)">
<path d="M63.9999 -0.000234477C28.6536 -0.000237567 -0.000220197 28.6536 -0.000223287 63.9999C-0.000226377 99.3462 28.6536 128 63.9999 128C99.3462 128 128 99.3462 128 63.9999C128 28.6536 99.3462 -0.000231387 63.9999 -0.000234477Z" fill="white"/>
<path d="M64 128C99.4669 128 128 99.4669 128 64C128 28.5331 99.4669 0 64 0C28.5331 0 0 28.5331 0 64C0 99.4669 28.5331 128 64 128Z" fill="#2775CA"/>
<path d="M81.6 74.1332C81.6 64.8001 76 61.6001 64.8 60.267C56.8 59.2001 55.2 57.067 55.2 53.3332C55.2 49.5995 57.8669 47.2001 63.2 47.2001C68 47.2001 70.6669 48.8001 72 52.8001C72.2669 53.6001 73.0669 54.1332 73.8669 54.1332H78.1331C79.2 54.1332 80 53.3332 80 52.267V52.0001C78.9331 46.1332 74.1331 41.6001 68 41.067V34.667C68 33.6001 67.2 32.8001 65.8669 32.5332H61.8669C60.8 32.5332 60 33.3332 59.7332 34.667V40.8001C51.7332 41.867 46.6669 47.2001 46.6669 53.867C46.6669 62.667 52.0001 66.1332 63.2 67.467C70.6669 68.8001 73.0669 70.4001 73.0669 74.667C73.0669 78.9339 69.3331 81.867 64.2669 81.867C57.3332 81.867 54.9332 78.9332 54.1332 74.9332C53.8669 73.867 53.0669 73.3332 52.2669 73.3332H47.7332C46.6669 73.3332 45.8669 74.1332 45.8669 75.2001V75.467C46.9332 82.1332 51.2001 86.9332 60 88.267V94.667C60 95.7332 60.8 96.5332 62.1332 96.8001H66.1332C67.2 96.8001 68 96.0001 68.2669 94.667V88.267C76.2669 86.9332 81.6 81.3332 81.6 74.1332Z" fill="white"/>
<path d="M50.4001 102.133C29.6001 94.667 18.9332 71.467 26.667 50.9332C30.667 39.7332 39.467 31.2001 50.4001 27.2001C51.467 26.667 52.0001 25.867 52.0001 24.5332V20.8001C52.0001 19.7332 51.467 18.9332 50.4001 18.667C50.1332 18.667 49.6001 18.667 49.3332 18.9332C24.0001 26.9332 10.1332 53.867 18.1332 79.2001C22.9332 94.1332 34.4001 105.6 49.3332 110.4C50.4001 110.933 51.467 110.4 51.7332 109.333C52.0001 109.067 52.0001 108.8 52.0001 108.267V104.533C52.0001 103.733 51.2001 102.667 50.4001 102.133ZM78.667 18.9332C77.6001 18.4001 76.5332 18.9332 76.267 20.0001C76.0001 20.267 76.0001 20.5332 76.0001 21.067V24.8001C76.0001 25.867 76.8001 26.9332 77.6001 27.467C98.4001 34.9332 109.067 58.1332 101.333 78.667C97.3332 89.867 88.5332 98.4001 77.6001 102.4C76.5332 102.933 76.0001 103.733 76.0001 105.067V108.8C76.0001 109.867 76.5332 110.667 77.6001 110.933C77.867 110.933 78.4001 110.933 78.667 110.667C104 102.667 117.867 75.7332 109.867 50.4001C105.067 35.2001 93.3332 23.7332 78.667 18.9332Z" fill="white"/>
<path d="M64.0001 125.867C98.1682 125.867 125.867 98.1682 125.867 64.0001C125.867 29.832 98.1682 2.1333 64.0001 2.1333C29.832 2.1333 2.1333 29.832 2.1333 64.0001C2.1333 98.1682 29.832 125.867 64.0001 125.867Z" stroke="white" stroke-opacity="0.097"/>
</g>
<defs>
<clipPath id="clip0_233:1194">
<rect width="128" height="128" fill="white"/>
</clipPath>
</defs>
</svg>
