<svg viewBox="0 0 128 128" fill="none" xmlns="http://www.w3.org/2000/svg">
<path d="M123.999 59.9941C123.999 93.1268 97.1393 119.988 64.0008 119.988C30.8623 119.988 4.0022 93.1268 4.0022 59.9941C4.0022 26.8614 30.8629 0 64.0008 0C97.1386 0 123.999 26.8588 123.999 59.9941Z" fill="url(#paint0_linear)"/>
<path d="M58.8116 94.8944L27.1623 31.2184C26.648 30.2024 27.4213 29 28.5609 29H39.5275C40.1158 29 40.6671 29.3289 40.9261 29.8369L64.0396 76.0325C66.1004 80.1769 72.061 80.1769 74.1219 76.0325L97.1614 29.8735C97.4204 29.3655 97.9717 29.0365 98.56 29.0365H99.9215C100.732 29.0365 101.246 29.8735 100.88 30.5642L68.8976 94.8944C66.8367 99.0352 60.8724 99.0352 58.8116 94.8944V94.8944Z" fill="white"/>
<path d="M64 118C96.0325 118 122 92.0325 122 60C122 27.9675 96.0325 2 64 2C31.9675 2 6 27.9675 6 60C6 92.0325 31.9675 118 64 118Z" stroke="black" stroke-opacity="0.097"/>
<defs>
<linearGradient id="paint0_linear" x1="14.4998" y1="120" x2="112" y2="16.5" gradientUnits="userSpaceOnUse">
<stop stop-color="#A576D0"/>
<stop offset="1" stop-color="#21BCE7"/>
</linearGradient>
</defs>
</svg>
