<svg viewBox="0 0 128 128" fill="none" xmlns="http://www.w3.org/2000/svg">
<g clip-path="url(#clip0)">
<path d="M64 -0.000127316C30.8629 -0.000130213 4.00001 26.8628 4.00001 59.9999C4 93.137 30.8629 120 64 120C97.1371 120 124 93.137 124 59.9999C124 26.8628 97.1371 -0.000124419 64 -0.000127316Z" fill="url(#paint0_linear)"/>
<path d="M64 118C96.0325 118 122 92.0325 122 60C122 27.9675 96.0325 2 64 2C31.9675 2 6 27.9675 6 60C6 92.0325 31.9675 118 64 118Z" stroke="black" stroke-opacity="0.097"/>
<path d="M63.1172 95.1625L63.1694 95.2671C63.3781 95.7906 63.7434 96 64.4739 96H64.5261C65.2566 96 65.6219 95.7906 65.8306 95.2671L65.8828 95.1625L95 38H82.2678C81.485 38 81.1719 38.157 81.1198 38.4188L81.0676 38.5758L64.4739 71.0307L47.8802 38.6282L47.8281 38.5235C47.7237 38.1047 47.5672 38.0523 46.6801 38.0523H34L63.1172 95.1625Z" stroke="white" stroke-width="5"/>
<path d="M74.6612 36C73.4614 36 73.0797 36.1594 72.5343 37.2219L59.3911 62.35L46.2479 37.2219C45.9753 36.2656 45.3208 36.5313 44.121 36.5313H32.9957C32.4503 36.5313 31.905 37.1156 32.014 37.4875L57.2097 85.6719C57.5914 86.5219 58.3004 87 59.3911 87H59.4457C60.5364 87 61.2999 86.575 61.6271 85.6719L86.8773 37.2219C87.0409 36.85 87.0409 36.5844 86.8773 36.3719C86.7137 36.1594 86.3319 36 85.8956 36H74.6612Z" fill="white"/>
</g>
<defs>
<linearGradient id="paint0_linear" x1="124" y1="94.9199" x2="124" y2="11.9999" gradientUnits="userSpaceOnUse">
<stop stop-color="#5B62FE"/>
<stop offset="1" stop-color="#3831AB"/>
</linearGradient>
<clipPath id="clip0">
<rect width="128" height="128" fill="white"/>
</clipPath>
</defs>
</svg>
