<svg viewBox="0 0 128 128" fill="none" xmlns="http://www.w3.org/2000/svg">
<path d="M123.997 59.9941C123.997 93.1268 97.1371 119.988 63.9986 119.988C30.8601 119.988 4 93.1268 4 59.9941C4 26.8614 30.8607 0 63.9986 0C97.1364 0 123.997 26.8588 123.997 59.9941Z" fill="#136AAD"/>
<path fill-rule="evenodd" clip-rule="evenodd" d="M28 40.36L38.668 44.88V70.292L64 55.144L89.576 70.292V44.88L100 40.36V88.256L64 66.996L28 88.256V40.36ZM29.212 38.404L64 18L99.032 38.404L89.576 42.316L64 27.532L38.668 42.316L29.212 38.404ZM36.728 85.688L44.608 81.168L64.12 92.468L83.392 81.168L91.512 85.688L64.12 102L36.728 85.688Z" fill="white"/>
<path d="M64 118C96.0325 118 122 92.0325 122 60C122 27.9675 96.0325 2 64 2C31.9675 2 6 27.9675 6 60C6 92.0325 31.9675 118 64 118Z" stroke="black" stroke-opacity="0.097"/>
</svg>
