<svg viewBox="0 0 128 128" fill="none" xmlns="http://www.w3.org/2000/svg">
<g clip-path="url(#clip0)">
<path d="M128 64.0002C128 99.3453 99.3486 128 64 128C28.6514 128 0 99.3453 0 64.0002C0 28.655 28.6521 0 64 0C99.3479 0 128 28.6523 128 64.0002Z" fill="#2E68F0"/>
<path d="M64 126C98.2417 126 126 98.2417 126 64C126 29.7583 98.2417 2 64 2C29.7583 2 2 29.7583 2 64C2 98.2417 29.7583 126 64 126Z" stroke="black" stroke-opacity="0.097"/>
<g clip-path="url(#clip1)">
<path d="M37.4398 86.9652H91.3383V80.8566H37.4398V86.9652Z" fill="white"/>
<path d="M48.3083 56.196L35 47.1462L37.4398 74.0693L48.3083 56.196Z" fill="white"/>
<path d="M54.0751 77.463H91.3383L93.9999 47.825L54.0751 77.463Z" fill="white"/>
<path d="M77.1428 55.5172L47.8646 77.2367H39.6578L54.5187 52.5761L64.0563 36.9652L77.1428 55.5172Z" fill="white"/>
</g>
</g>
<defs>
<clipPath id="clip0">
<rect width="128" height="128" fill="white"/>
</clipPath>
<clipPath id="clip1">
<rect width="59" height="50" fill="white" transform="translate(35 37)"/>
</clipPath>
</defs>
</svg>
