<svg viewBox="0 0 128 128" fill="none" xmlns="http://www.w3.org/2000/svg">
<path d="M124 59.9941C124 93.1268 97.1395 119.988 64.001 119.988C30.8625 119.988 4.00244 93.1268 4.00244 59.9941C4.00244 26.8614 30.8631 0 64.001 0C97.1389 0 124 26.8588 124 59.9941Z" fill="white"/>
<g clip-path="url(#clip0)">
<path d="M64.0204 107L63.5278 106.752C44.3171 95.4229 29.786 76.7345 23.875 54.4076C22.9309 50.8931 22.2331 47.296 21.7405 43.6576C21.289 40.0191 21.0427 36.3393 21.0016 32.6595C21.0016 32.0393 20.9195 32.122 21.4942 31.8326C28.7187 27.6979 36.3537 24.6797 44.4403 22.7778C47.4368 22.0749 50.4334 21.5374 53.4709 21.1653C57.6579 20.6691 61.8448 20.4624 66.0728 20.5451C68.4536 20.5864 70.7934 20.7518 73.1332 20.9999C84.9141 22.2816 95.9561 25.8374 106.3 31.6672C106.464 31.7499 106.588 31.8326 106.752 31.9153C106.916 31.9979 106.998 32.122 106.998 32.3287V32.9489C106.957 35.0989 106.875 37.2076 106.711 39.3576C106.464 42.4172 106.054 45.4354 105.479 48.4537C104.248 54.9451 102.319 61.1883 99.6505 67.1835C95.4225 76.7345 89.6346 85.2518 82.328 92.6941C77.0738 98.0691 71.2039 102.7 64.7182 106.545C64.4719 106.71 64.2667 106.834 64.0204 107V107ZM24.9423 34.7681V35.2643C24.9423 38.2826 25.1475 41.3422 25.5169 44.3191C25.8453 47.0479 26.2969 49.7354 26.9126 52.4229C27.0357 52.8778 27.1589 53.3326 27.3641 53.7874C31.0585 61.6845 39.5966 65.9018 48.0525 63.9585C54.4972 62.4701 59.7514 57.4672 61.5164 51.0585C62.009 49.2806 62.1732 47.4614 62.2553 45.6422C62.2964 44.4431 62.4195 43.2441 62.6247 42.0451C64.0204 34.7681 68.8231 28.7729 75.5961 25.9201C75.9655 25.7547 76.376 25.6306 76.7454 25.4653C76.7865 25.4239 76.8686 25.4239 76.8686 25.3412C75.8013 24.9691 69.4388 24.3076 65.6213 24.2249C57.4116 24.0595 49.3661 25.1345 41.5258 27.5326C35.697 29.3104 30.1965 31.7085 24.9423 34.7681V34.7681ZM85.4887 84.3008C85.694 84.1768 85.8171 84.0114 85.8992 83.8874C87.5412 81.8201 89.101 79.6701 90.5377 77.4374C95.6687 69.4162 99.281 60.7749 101.292 51.4306C101.99 48.247 102.442 45.0633 102.729 41.8383C102.934 39.647 103.016 37.4556 103.016 35.2229C103.016 35.0576 103.016 34.9335 102.975 34.7681L102.36 34.396C100.677 33.4451 98.9526 32.5354 97.2286 31.7085C94.6836 30.5095 92.1386 29.4345 89.4704 28.5662C86.2276 27.5326 82.9437 27.4085 79.6599 28.2354C70.2598 30.5095 64.2256 39.8124 66.0318 49.3633C67.0169 54.6556 69.8493 58.7903 74.3646 61.6845C74.6519 61.8912 74.9803 62.0566 75.2677 62.2633C78.5926 64.2893 81.1786 67.0595 83.0258 70.4912C84.9962 74.0883 85.8582 77.9749 85.6119 82.0681C85.6529 82.771 85.5708 83.5153 85.4887 84.3008V84.3008ZM64.0204 102.783C64.1846 102.7 64.3898 102.576 64.554 102.452C69.7261 99.3922 74.4877 95.7537 78.8389 91.6191C79.1262 91.371 79.3315 91.0403 79.4957 90.7095C79.783 90.172 80.0703 89.5931 80.3166 89.0556C82.3691 84.7556 82.8206 80.2903 81.466 75.6595C78.7978 66.7287 70.2598 61.6018 61.6806 62.6768C59.2177 62.9662 56.9601 63.7518 54.8255 64.9922C50.7617 67.3076 46.4106 68.2585 41.7311 67.8037C39.4324 67.597 37.2568 66.9768 35.1633 66.0672C33.5214 65.3229 31.9615 64.4133 30.5659 63.297C30.4838 63.2143 30.3607 63.1729 30.1554 63.0489C30.1965 63.2556 30.2375 63.3797 30.2786 63.4624C32.1257 68.1758 34.3834 72.6412 37.0516 76.8999C39.966 81.4893 43.2909 85.7479 47.0674 89.6345C50.8438 93.521 54.9897 96.9941 59.464 100.012C61.5164 101.335 63.4457 102.534 64.0204 102.783V102.783Z" fill="black"/>
<path d="M24.9424 34.7684C30.1966 31.7088 35.6971 29.3107 41.4849 27.5742C49.3662 25.2175 57.3707 24.1011 65.5804 24.2665C69.3979 24.3492 75.7604 24.9694 76.8277 25.3829C76.8687 25.4655 76.7866 25.5069 76.7045 25.5069C76.3351 25.6723 75.9246 25.7963 75.5552 25.9617C68.7822 28.8146 63.9795 34.8098 62.5839 42.0867C62.3786 43.2857 62.2555 44.4848 62.2144 45.6838C62.1734 47.503 62.0092 49.3223 61.4755 51.1002C59.6694 57.5088 54.4563 62.5117 48.0117 64.0002C39.5557 65.9434 31.0176 61.7261 27.3232 53.829C27.118 53.3742 26.9538 52.9194 26.8717 52.4646C26.256 49.7771 25.8044 47.0896 25.476 44.3607C25.1066 41.3425 24.9014 38.3242 24.9014 35.3059C24.9424 35.0992 24.9424 34.9752 24.9424 34.7684V34.7684Z" fill="#F6A700"/>
<path d="M85.4885 84.301C85.5706 83.5154 85.6527 82.8125 85.6937 82.0683C85.8989 77.975 85.0369 74.0885 83.1076 70.4914C81.2605 67.0597 78.6744 64.3308 75.3495 62.2635C75.0621 62.0568 74.7338 61.8914 74.4464 61.6847C69.89 58.7904 67.0987 54.6972 66.1136 49.3635C64.3485 39.7712 70.3416 30.5097 79.7417 28.2356C83.0666 27.45 86.3094 27.5327 89.5523 28.5664C92.2204 29.3933 94.7654 30.5097 97.3104 31.7087C99.0755 32.5356 100.758 33.4452 102.441 34.3962C102.647 34.5202 102.811 34.6029 103.057 34.7683C103.057 34.9337 103.098 35.0577 103.098 35.2231C103.098 37.4145 102.975 39.6472 102.811 41.8385C102.524 45.0635 102.031 48.2885 101.374 51.4308C99.3628 60.775 95.7916 69.4164 90.6195 77.4375C89.1828 79.6702 87.623 81.8202 85.981 83.8875C85.8168 84.0116 85.7347 84.177 85.4885 84.301V84.301Z" fill="#67B2E8"/>
<path d="M64.0202 102.783C63.4045 102.535 61.5163 101.377 59.5049 100.013C55.0306 96.9943 50.8847 93.5212 47.1083 89.6347C43.3318 85.7481 39.9658 81.4895 37.0924 76.9001C34.3832 72.6414 32.1256 68.176 30.3194 63.4626C30.2784 63.3385 30.2373 63.2558 30.1963 63.0491C30.4015 63.1731 30.4836 63.2145 30.6068 63.2972C32.0435 64.4135 33.5623 65.3645 35.2042 66.0674C37.2977 66.977 39.4732 67.5972 41.772 67.8039C46.4104 68.2587 50.7616 67.3078 54.8664 64.9924C57.0009 63.7933 59.2996 63.0078 61.7215 62.677C70.3006 61.602 78.8387 66.7289 81.5069 75.6597C82.8615 80.2491 82.451 84.7145 80.3575 89.0558C80.0702 89.6347 79.8239 90.1722 79.5365 90.7097C79.3723 91.0404 79.1671 91.3712 78.8798 91.6193C74.5286 95.7539 69.767 99.3924 64.5949 102.452C64.3897 102.576 64.1844 102.7 64.0202 102.783Z" fill="#00C4B3"/>
</g>
<path d="M64 118C96.0325 118 122 92.0325 122 60C122 27.9675 96.0325 2 64 2C31.9675 2 6 27.9675 6 60C6 92.0325 31.9675 118 64 118Z" stroke="black" stroke-opacity="0.097"/>
<defs>
<clipPath id="clip0">
<rect width="86" height="86" fill="white" transform="translate(21 21)"/>
</clipPath>
</defs>
</svg>
