<svg viewBox="0 0 128 128" fill="none" xmlns="http://www.w3.org/2000/svg">
<g clip-path="url(#clip0)">
<path d="M64 -0.000249386C30.8629 -0.000252283 4.00001 26.8627 4.00001 59.9997C4 93.1368 30.8629 120 64 120C97.1371 120 124 93.1368 124 59.9998C124 26.8627 97.1371 -0.000246489 64 -0.000249386Z" fill="white"/>
<g clip-path="url(#clip1)">
<path d="M95.5796 32.6789L84.9836 38.0439L33.8166 63.9439C33.6435 62.6325 33.5565 61.3112 33.5559 59.9886C33.5629 54.7112 34.9571 49.5273 37.6005 44.9502C40.2438 40.3731 44.0445 36.5617 48.6261 33.8935C53.2077 31.2253 58.4113 29.7929 63.7213 29.7382C69.0314 29.6835 74.2637 31.0084 78.9 33.5817L84.965 30.5107L85.8697 30.0519C80.3138 26.0444 73.7511 23.6415 66.9069 23.1088C60.0628 22.5761 53.2037 23.9344 47.0877 27.0335C40.9718 30.1326 35.8371 34.8518 32.2512 40.6696C28.6654 46.4874 26.7679 53.1772 26.7687 59.9997C26.7687 60.942 26.8046 61.8805 26.8766 62.8154C26.9774 64.1393 26.682 65.4632 26.0275 66.6206C25.3729 67.7781 24.3885 68.7172 23.1982 69.32L20 70.9406V78.4997L29.4158 73.7304L32.4651 72.1838L35.4696 70.6631L89.4104 43.3497L95.4717 40.2824L108 33.9369V26.3815L95.5796 32.6789Z" fill="black"/>
<path d="M108 41.5L38.5338 76.65L32.4725 79.7247L20 86.0406V93.5923L32.3869 87.3208L42.9829 81.9558L94.2021 56.0188C94.3752 57.3389 94.4623 58.6687 94.4627 60C94.4594 65.2835 93.0656 70.4742 90.4197 75.0568C87.7738 79.6395 83.9678 83.4547 79.3796 86.1238C74.7914 88.7928 69.5805 90.2228 64.2642 90.2718C58.9479 90.3208 53.7112 88.9872 49.074 86.4032L48.7016 86.5993L42.1266 89.9293C47.6812 93.9369 54.2426 96.3405 61.0857 96.8745C67.9288 97.4084 74.7872 96.052 80.9031 92.955C87.0191 89.858 92.1545 85.1411 95.7419 79.3253C99.3293 73.5096 101.229 66.8215 101.231 60C101.231 59.0491 101.194 58.0982 101.123 57.1584C101.023 55.835 101.318 54.5115 101.972 53.3542C102.625 52.197 103.609 51.2575 104.798 50.6538L108 49.0332V41.5Z" fill="black"/>
</g>
<path d="M64 118C96.0325 118 122 92.0325 122 60C122 27.9675 96.0325 2 64 2C31.9675 2 6 27.9675 6 60C6 92.0325 31.9675 118 64 118Z" stroke="black" stroke-opacity="0.097"/>
</g>
<defs>
<clipPath id="clip0">
<rect width="128" height="128" fill="white"/>
</clipPath>
<clipPath id="clip1">
<rect width="88" height="74" fill="white" transform="translate(20 23)"/>
</clipPath>
</defs>
</svg>
