<svg viewBox="0 0 128 128" fill="none" xmlns="http://www.w3.org/2000/svg">
<path d="M123.999 59.9941C123.999 93.1268 97.139 119.988 64.0005 119.988C30.862 119.988 4.00195 93.1268 4.00195 59.9941C4.00195 26.8614 30.8627 0 64.0005 0C97.1384 0 123.999 26.8588 123.999 59.9941Z" fill="white"/>
<path d="M64.0013 0C30.8746 0 3.96691 26.8994 4.00908 59.9922C4.01739 66.613 5.07327 72.9819 7.05502 78.9392H25.006V28.4707L64.0013 67.4615L102.995 28.4707V78.9402H120.949C122.934 72.9831 123.985 66.6143 123.996 59.9931C124.053 26.8658 97.1315 0.00798618 64.0013 0.00798618V0Z" fill="#F26822"/>
<path d="M55.0318 76.4251L38.014 59.4082V91.1657H25.0032L12.7258 91.1679C23.2569 108.444 42.289 120 63.9997 120C85.7103 120 104.743 108.441 115.276 91.1654H89.9815V59.4082L72.9627 76.4251L63.9978 85.3891L55.0325 76.4251H55.0318Z" fill="#4D4D4D"/>
</svg>
