<svg viewBox="0 0 128 128" fill="none" xmlns="http://www.w3.org/2000/svg">
<path d="M63.9664 127.967C99.2941 127.967 127.933 99.3278 127.933 64.0001C127.933 28.6724 99.2941 0.0336914 63.9664 0.0336914C28.6387 0.0336914 0 28.6724 0 64.0001C0 99.3278 28.6387 127.967 63.9664 127.967Z" fill="#68727B"/>
<path d="M90.1515 30.9404L73.7607 47.3359C71.1627 49.9326 67.6398 51.3913 63.9666 51.3913C60.2934 51.3913 56.7705 49.9326 54.1724 47.3359L37.7817 30.9404H26.3145L48.4196 53.0696C52.5387 57.1862 58.1239 59.4987 63.9474 59.4987C69.7709 59.4987 75.3561 57.1862 79.4752 53.0696L101.633 30.9404H90.1515Z" fill="#F5F5F5"/>
<path d="M37.7817 93.3151L54.1724 76.9244C55.4579 75.637 56.9846 74.6156 58.6652 73.9187C60.3458 73.2218 62.1472 72.8631 63.9666 72.8631C65.7859 72.8631 67.5874 73.2218 69.268 73.9187C70.9486 74.6156 72.4753 75.637 73.7607 76.9244L90.1515 93.3151H101.633L79.5088 71.186C75.3903 67.0682 69.8049 64.7549 63.981 64.7549C58.1571 64.7549 52.5716 67.0682 48.4532 71.186L26.3145 93.3151H37.7817Z" fill="#F5F5F5"/>
</svg>
