<svg viewBox="0 0 128 128" fill="none" xmlns="http://www.w3.org/2000/svg">
<path d="M124 59.9941C124 93.1268 97.1395 119.988 64.001 119.988C30.8625 119.988 4.00244 93.1268 4.00244 59.9941C4.00244 26.8614 30.8631 0 64.001 0C97.1389 0 124 26.8588 124 59.9941Z" fill="#2C7DF7"/>
<g clip-path="url(#clip0)">
<path d="M71.8193 98.9999C66.2807 98.9999 62.2381 97.6765 59.6915 95.0296C57.3325 92.789 55.9635 89.713 55.8838 86.474C55.8551 85.49 56.085 84.5155 56.5508 83.6463C56.9853 82.8953 57.613 82.2721 58.3697 81.8405C59.2492 81.4053 60.2186 81.1788 61.2015 81.1788C62.1843 81.1788 63.1537 81.4053 64.0333 81.8405C64.7886 82.2705 65.4134 82.8942 65.8419 83.6463C66.3212 84.5113 66.5596 85.4873 66.5328 86.474C66.5823 87.6524 66.2416 88.8144 65.5627 89.7827C64.9968 90.5729 64.1881 91.1601 63.2576 91.4561C64.1675 92.6053 65.455 93.4016 66.8958 93.7061C68.5078 94.1706 70.1772 94.4094 71.8558 94.4157C74.0781 94.4349 76.2547 93.7893 78.1017 92.563C80.0176 91.2201 81.4465 89.3006 82.1764 87.0889C83.1017 84.4565 83.5533 81.6833 83.5104 78.8958C83.5851 75.9897 83.0908 73.0969 82.0551 70.3775C81.276 68.2025 79.7972 66.3423 77.8468 65.0837C76.0339 63.9456 73.9295 63.3485 71.7842 63.3634C69.9148 63.5205 68.1122 64.1276 66.5328 65.132L62.6388 67.0689V65.132L80.1388 41.8421H55.8838V66.0103C55.8153 67.7544 56.2803 69.4782 57.2179 70.9551C57.6714 71.5987 58.2849 72.1152 58.9988 72.4545C59.7127 72.7939 60.5028 72.9445 61.2926 72.892C62.7519 72.8627 64.1632 72.3693 65.3186 71.4844C66.6283 70.5322 67.768 69.3691 68.6903 68.0433C68.7733 67.8109 68.9264 67.6094 69.1288 67.4662C69.2912 67.3269 69.4987 67.25 69.7134 67.2497C70.1348 67.2878 70.5335 67.456 70.8536 67.7306C71.2589 68.18 71.4795 68.7638 71.4719 69.3668C71.425 69.772 71.3521 70.1739 71.2536 70.5699C70.392 72.6388 68.9477 74.4177 67.0936 75.6935C65.3716 76.8495 63.3377 77.4625 61.2585 77.452C56.0071 77.452 52.3691 76.4254 50.3444 74.372C49.3038 73.2371 48.5018 71.9077 47.9853 70.4616C47.4689 69.0154 47.2484 67.4816 47.3368 65.9499V41.8421H35V37.3516H47.3942V27.113L44.5566 24.296V22H52.7908L55.8838 23.5883V37.3516L87.9243 37.255L91.1142 40.4312L71.4675 60.0166C72.6544 59.543 73.9044 59.2431 75.1783 59.1262C77.6995 59.2358 80.1595 59.9324 82.3591 61.1598C84.9063 62.3609 87.0529 64.2613 88.5445 66.6358C89.8811 68.6459 90.8271 70.886 91.3339 73.241C91.7506 75.0985 91.9742 76.9935 92.001 78.8963C92.014 82.5277 91.184 86.1132 89.5755 89.3752C88.0501 92.5339 85.4827 95.0809 82.2987 96.5942C79.0394 98.1875 75.4527 99.0109 71.8193 98.9999V98.9999Z" fill="white"/>
</g>
<path d="M64 118C96.0325 118 122 92.0325 122 60C122 27.9675 96.0325 2 64 2C31.9675 2 6 27.9675 6 60C6 92.0325 31.9675 118 64 118Z" stroke="black" stroke-opacity="0.097"/>
<defs>
<clipPath id="clip0">
<rect width="57" height="77" fill="white" transform="translate(35 22)"/>
</clipPath>
</defs>
</svg>
