<svg viewBox="0 0 128 128" fill="none" xmlns="http://www.w3.org/2000/svg">
<path d="M64 120C97.1371 120 124 93.1371 124 60C124 26.8629 97.1371 0 64 0C30.8629 0 4 26.8629 4 60C4 93.1371 30.8629 120 64 120Z" fill="#006AE3"/>
<path d="M61.1289 88.0104V32.5244H67.171V88.0104H61.1289Z" fill="white"/>
<path d="M91.8861 51.0109L73.2263 55.9593L69.0649 36.5925L74.6135 35.3388L76.8009 44.5153C76.8009 44.5153 81.8426 36.2457 75.1203 27.6828C71.1589 23.2812 69.2783 23.0945 64.8367 22.4009C60.9287 21.8407 51.8455 23.1612 49.1379 33.7649C47.9909 40.5939 49.2847 45.649 58.0877 52.2646L57.5942 59.6272C57.5942 59.6272 47.7641 52.7048 45.2299 47.8498C43.2692 44.0084 39.9081 36.4191 45.9768 25.8555C49.2446 20.5736 55.6869 15.5052 67.0375 16.0387C72.7461 16.2788 86.6843 23.2546 84.5236 39.5536C84.1501 42.608 82.5629 46.676 82.5629 46.676L90.2189 44.9688L91.8861 51.0109Z" fill="white"/>
<path d="M81.2291 94.4262C77.8145 99.6146 71.2389 104.51 59.915 103.683C54.2063 103.296 40.4682 95.9467 43.0558 79.7144C43.5093 76.6733 45.2032 72.6586 45.2032 72.6586L37.5072 74.1525L36 68.0837L54.7932 63.6288L58.4478 83.1022L52.8592 84.2093L50.9119 74.9661C50.9119 74.9661 45.6567 83.0889 52.1389 91.8386C55.9803 96.3468 57.8476 96.5736 62.2891 97.3872C66.1705 98.0541 75.2937 96.9604 78.2814 86.4367C79.6018 79.6477 78.4414 74.5526 69.8251 67.6969L70.5187 60.3477C70.5187 60.3477 80.162 67.5235 82.5629 72.4452C84.4035 76.3532 87.5646 84.0359 81.2291 94.4262V94.4262Z" fill="white"/>
<path d="M64 118C96.0325 118 122 92.0325 122 60C122 27.9675 96.0325 2 64 2C31.9675 2 6 27.9675 6 60C6 92.0325 31.9675 118 64 118Z" stroke="black" stroke-opacity="0.097"/>
</svg>
