<svg viewBox="0 0 128 128" fill="none" xmlns="http://www.w3.org/2000/svg">
<path d="M64 0C99.3408 0 128 28.6592 128 64C128 99.3408 99.3408 128 64 128C28.6592 128 0 99.3408 0 64C0 28.6592 28.6592 0 64 0Z" fill="url(#paint0_linear)"/>
<path d="M37.0688 61.2864H90.3168V67.0848H37.0688V61.2864Z" fill="white"/>
<path d="M72.576 90.8032L67.8272 72.896L86.4128 68.9024L87.616 74.2272L78.8096 76.3264C78.8096 76.3264 86.7456 81.1648 94.9632 74.7136C99.1872 70.912 99.3664 69.1072 100.032 64.8448C100.57 61.0944 99.3024 52.3776 89.1264 49.7792C82.5728 48.6784 77.7216 49.92 71.3728 58.368L64.3072 57.8944C64.3072 57.8944 70.9504 48.4608 75.6096 46.0288C79.296 44.1472 86.5792 40.9216 96.7168 46.7456C101.786 49.8816 106.65 56.064 106.138 66.9568C105.907 72.4352 99.2128 85.8112 83.5712 83.7376C80.64 83.3792 76.736 81.856 76.736 81.856L78.3744 89.2032L72.576 90.8032Z" fill="white"/>
<path d="M30.912 80.576C25.9328 77.2992 21.2352 70.9888 22.0288 60.1216C22.4 54.6432 29.4528 41.4592 45.0304 43.9424C47.9488 44.3776 51.8016 46.0032 51.8016 46.0032L50.368 38.6176L56.192 37.1712L60.4672 55.2064L41.7792 58.7136L40.7168 53.3504L49.5872 51.4816C49.5872 51.4816 41.792 46.4384 33.3952 52.6592C29.0688 56.3456 28.8512 58.1376 28.0704 62.4C27.4304 66.1248 28.48 74.88 38.5792 77.7472C45.0944 79.0144 49.984 77.9008 56.5632 69.632L63.616 70.2976C63.616 70.2976 56.7296 79.552 52.0064 81.856C48.256 83.6224 40.8832 86.656 30.912 80.576Z" fill="white"/>
<path d="M63.8525 124.705C97.4604 124.705 124.705 97.4604 124.705 63.8525C124.705 30.2446 97.4604 3 63.8525 3C30.2446 3 3 30.2446 3 63.8525C3 97.4604 30.2446 124.705 63.8525 124.705Z" stroke="black" stroke-opacity="0.097"/>
<defs>
<linearGradient id="paint0_linear" x1="64" y1="0" x2="64" y2="128" gradientUnits="userSpaceOnUse">
<stop stop-color="#FF0080"/>
<stop offset="1" stop-color="#E3006E"/>
</linearGradient>
</defs>
</svg>
