<svg viewBox="0 0 128 128" fill="none" xmlns="http://www.w3.org/2000/svg">
<path d="M64.0002 127.981C99.3411 127.981 127.991 99.3313 127.991 63.9904C127.991 28.6495 99.3411 0 64.0002 0C28.6592 0 0.00976562 28.6495 0.00976562 63.9904C0.00976562 99.3313 28.6592 127.981 64.0002 127.981Z" fill="#DCB668"/>
<path d="M57.6046 23.9988H70.4046V35.0106H86.0283V44.8911C86.0283 44.8911 85.8078 48.5633 84.8682 49.8481C83.9285 51.1329 60.4619 79.3983 60.4619 79.3983H85.8078V92.6969H70.1218L70.8744 103.992H57.6046V93.0756H42.0145C42.0145 93.0756 41.1995 80.4051 43.2706 77.893C45.3416 75.3857 67.4228 48.6592 67.4228 48.6592L43.2082 48.7215V35.2311H57.6382L57.6046 24.0036V23.9988Z" fill="white"/>
</svg>
