<svg viewBox="0 0 128 128" fill="none" xmlns="http://www.w3.org/2000/svg">
<g clip-path="url(#clip0)">
<path d="M123.997 59.9941C123.997 93.1269 97.1371 119.988 63.9986 119.988C30.8601 119.988 4 93.1269 4 59.9941C4 26.8614 30.8607 6.10352e-05 63.9986 6.10352e-05C97.1364 6.10352e-05 123.997 26.8589 123.997 59.9941Z" fill="#05173A"/>
<path d="M74.1286 58.859C77.6439 58.8521 81.1492 59.2322 84.5813 59.9924V59.9924C84.583 57.1705 84.0046 54.3783 82.8819 51.7892C81.7593 49.2001 80.1165 46.8694 78.0555 44.9418C75.9944 43.0143 73.5591 41.5309 70.9008 40.5839C68.2425 39.6368 65.4178 39.2464 62.6023 39.4367C59.7867 39.627 57.0403 40.394 54.5336 41.6901C52.0269 42.9862 49.8134 44.7838 48.0304 46.9712C46.2475 49.1586 44.9332 51.6891 44.1692 54.4057C43.4052 57.1223 43.2078 59.9669 43.5891 62.763V62.763C40.757 64.8705 38.1603 67.2772 35.8441 69.9414C34.7299 66.764 34.1552 63.4225 34.1439 60.0554C34.1415 56.1434 34.9101 52.2693 36.406 48.6547C37.9019 45.04 40.0957 41.7557 42.8619 38.9895C45.6281 36.2233 48.9124 34.0295 52.5271 32.5336C56.1418 31.0377 60.0158 30.269 63.9278 30.2715C68.5914 30.251 73.1915 31.3524 77.34 33.4829L87.7297 26.7453C80.8518 21.6852 72.5295 18.97 63.9908 19.0002C56.408 18.9982 48.9733 21.1001 42.514 25.0721C36.0547 29.044 30.8241 34.7303 27.4043 41.4982C23.9844 48.2661 22.5095 55.8501 23.1435 63.4063C23.7776 70.9626 26.4957 78.1948 30.9955 84.2981C32.9193 80.8109 35.2669 77.5749 37.985 74.664C37.985 74.664 42.0149 70.4451 45.1004 68.3042C53.5221 62.1418 63.6931 58.8323 74.1286 58.859V58.859Z" fill="white"/>
<path d="M97.238 36.153L90.5508 46.5364C93.3868 52.1394 94.3809 58.4949 93.3912 64.6962C92.4015 70.8976 89.4786 76.628 85.0395 81.0699C80.6004 85.5118 74.8718 88.4383 68.6711 89.4319C62.4704 90.4255 56.1142 89.4354 50.5095 86.6029L40.1323 93.3027C48.0187 98.9726 57.6644 101.653 67.3454 100.865C77.0263 100.077 86.1115 95.8717 92.977 89.0009C99.8424 82.1301 104.041 73.0417 104.821 63.3601C105.602 53.6786 102.914 44.0349 97.238 36.153V36.153Z" fill="url(#paint0_radial)"/>
<path d="M63.9533 80.5074C68.7553 80.508 73.4062 78.8286 77.1001 75.7604C80.7941 72.6921 83.2982 68.4282 84.1786 63.7076C77.7644 62.3213 71.1311 62.2919 64.7048 63.6214C58.2786 64.9509 52.2014 67.6099 46.8638 71.4275C48.7478 74.2278 51.2925 76.5211 54.273 78.1047C57.2535 79.6883 60.5782 80.5135 63.9533 80.5074V80.5074Z" fill="url(#paint1_radial)"/>
</g>
<path d="M64 118C96.0325 118 122 92.0325 122 60C122 27.9675 96.0325 2 64 2C31.9675 2 6 27.9675 6 60C6 92.0325 31.9675 118 64 118Z" stroke="black" stroke-opacity="0.097"/>
<defs>
<radialGradient id="paint0_radial" cx="0" cy="0" r="1" gradientUnits="userSpaceOnUse" gradientTransform="translate(97.2569 36.1089) scale(68.9185)">
<stop offset="0.1" stop-color="#08DC8A"/>
<stop offset="0.26" stop-color="#07D397"/>
<stop offset="0.54" stop-color="#04BCB8"/>
<stop offset="0.89" stop-color="#009BE7"/>
</radialGradient>
<radialGradient id="paint1_radial" cx="0" cy="0" r="1" gradientUnits="userSpaceOnUse" gradientTransform="translate(97.2571 36.1087) scale(68.9185)">
<stop offset="0.1" stop-color="#08DC8A"/>
<stop offset="0.26" stop-color="#07D397"/>
<stop offset="0.54" stop-color="#04BCB8"/>
<stop offset="0.89" stop-color="#009BE7"/>
</radialGradient>
<clipPath id="clip0">
<rect width="120" height="120" fill="white" transform="translate(4)"/>
</clipPath>
</defs>
</svg>
