<svg viewBox="0 0 128 128" fill="none" xmlns="http://www.w3.org/2000/svg">
<path d="M64 128C99.3462 128 128 99.3462 128 64C128 28.6538 99.3462 0 64 0C28.6538 0 0 28.6538 0 64C0 99.3462 28.6538 128 64 128Z" fill="white"/>
<path d="M96.38 55.9999L83.1 61.9199L47.87 79.8499L83.1 96.7899V68.7899L96.38 62.7899V104.15L83.1 110.09L31.23 85.2699V72.0699L67.13 54.4599L31.23 37.1999V23.8199L44.72 17.8999L96.38 42.7599V55.9999Z" fill="#49C1BF"/>
<path d="M31.23 23.8199L83.1 48.6899L96.38 42.7599L44.72 17.8999L31.23 23.8199Z" fill="#077A8F"/>
<path d="M83.1001 48.63L96.3801 42.71V56L83.1001 61.87V48.63Z" fill="#298E97"/>
<path d="M31.23 23.8301V37.2201L67.13 54.4701L31.23 72.0801V85.2801L83.1 110.1V96.8201L47.87 79.8201L83.1 61.9301V48.7001L31.23 23.8301Z" fill="#49C1BF"/>
<path d="M83.1001 110L96.3801 104.08V62.7202L83.1001 68.7202V110Z" fill="#298E97"/>
</svg>
