<svg viewBox="0 0 128 128" fill="none" xmlns="http://www.w3.org/2000/svg">
<path d="M64.0002 127.981C99.3411 127.981 127.991 99.3313 127.991 63.9904C127.991 28.6495 99.3411 0 64.0002 0C28.6592 0 0.00976562 28.6495 0.00976562 63.9904C0.00976562 99.3313 28.6592 127.981 64.0002 127.981Z" fill="black"/>
<path d="M63.9998 12.383C70.9703 12.383 77.7298 13.7493 84.0867 16.4387C90.2326 19.0371 95.7505 22.762 100.492 27.5033C105.233 32.2446 108.953 37.7625 111.552 43.9084C114.241 50.2701 115.607 57.0296 115.607 63.9953C115.607 70.961 114.241 77.7253 111.552 84.0822C108.953 90.2281 105.228 95.746 100.492 100.487C95.7505 105.229 90.2326 108.949 84.0867 111.547C77.725 114.236 70.9655 115.603 63.9998 115.603C57.0341 115.603 50.2697 114.236 43.9129 111.547C37.767 108.949 32.2491 105.224 27.5078 100.487C22.7665 95.746 19.0464 90.2281 16.448 84.0822C13.7586 77.7205 12.3923 70.961 12.3923 63.9953C12.3923 57.0296 13.7586 50.2653 16.448 43.9084C19.0464 37.7625 22.7713 32.2446 27.5078 27.5033C32.2491 22.762 37.767 19.0419 43.9129 16.4435C50.2745 13.7541 57.0341 12.3878 63.9998 12.3878V12.383ZM63.9998 8.68683C33.4524 8.68683 8.68652 33.4527 8.68652 64.0001C8.68652 94.5475 33.4524 119.313 63.9998 119.313C94.5472 119.313 119.313 94.5475 119.313 64.0001C119.313 33.4527 94.5472 8.67725 63.9998 8.67725V8.68683Z" fill="#FF8F2D"/>
<path d="M64.0006 25.1351C74.3797 25.1351 84.1355 29.1764 91.4751 36.516C98.8147 43.8557 102.856 53.6115 102.856 63.9905C102.856 74.3695 98.8147 84.1253 91.4751 91.4649C84.1355 98.8046 74.3797 102.846 64.0006 102.846C53.6216 102.846 43.8658 98.8046 36.5262 91.4649C29.1866 84.1253 25.1452 74.3695 25.1452 63.9905C25.1452 53.6115 29.1866 43.8557 36.5262 36.516C43.8658 29.1764 53.6216 25.1351 64.0006 25.1351ZM64.0006 21.4341C40.4956 21.4341 21.4395 40.4903 21.4395 63.9953C21.4395 87.5003 40.4956 106.556 64.0006 106.556C87.5057 106.556 106.562 87.5003 106.562 63.9953C106.562 40.4903 87.5057 21.4341 64.0006 21.4341Z" fill="#FF8F2D"/>
<path d="M64.0005 95.118C81.1918 95.118 95.128 81.1818 95.128 63.9905C95.128 46.7993 81.1918 32.863 64.0005 32.863C46.8093 32.863 32.873 46.7993 32.873 63.9905C32.873 81.1818 46.8093 95.118 64.0005 95.118Z" fill="#FF8F2D"/>
<path d="M64 70.9513C67.8444 70.9513 70.9609 67.8348 70.9609 63.9904C70.9609 60.146 67.8444 57.0295 64 57.0295C60.1556 57.0295 57.0391 60.146 57.0391 63.9904C57.0391 67.8348 60.1556 70.9513 64 70.9513Z" fill="black"/>
<path d="M104.6 35.1832C107.928 35.1832 110.626 32.4853 110.626 29.1572C110.626 25.8291 107.928 23.1311 104.6 23.1311C101.272 23.1311 98.5742 25.8291 98.5742 29.1572C98.5742 32.4853 101.272 35.1832 104.6 35.1832Z" fill="#FF8F2D"/>
<path d="M94.5762 95.1227C96.9618 95.1227 98.8956 93.1888 98.8956 90.8033C98.8956 88.4178 96.9618 86.4839 94.5762 86.4839C92.1907 86.4839 90.2568 88.4178 90.2568 90.8033C90.2568 93.1888 92.1907 95.1227 94.5762 95.1227Z" fill="#FF8F2D"/>
<path d="M49.8768 49.9488L54.0572 54.2251C54.0572 54.2251 62.2118 46.665 70.5389 52.83C68.8467 54.5223 67.2263 55.9989 67.2263 55.9989C67.2263 55.9989 70.5533 57.5665 71.4594 60.5292C73.3051 58.6116 78.0607 53.856 78.0607 53.856C78.0607 53.856 78.8278 52.5472 78.0607 51.4014C75.75 47.6046 62.9692 37.8008 49.8672 49.9488H49.8768Z" fill="black"/>
<path d="M78.1331 77.9267L73.8568 73.7464C73.8568 73.7464 65.8748 81.4887 57.4086 75.5106C59.0625 73.7847 60.6494 72.265 60.6494 72.265C60.6494 72.265 57.2888 70.7693 56.3156 67.8306C54.513 69.7865 49.8628 74.6476 49.8628 74.6476C49.8628 74.6476 49.1246 75.9708 49.9156 77.1022C52.3126 80.8463 65.3043 90.3624 78.1331 77.9219V77.9267Z" fill="black"/>
</svg>
