<svg viewBox="0 0 128 128" fill="none" xmlns="http://www.w3.org/2000/svg">
<g clip-path="url(#clip0)">
<path d="M64 -0.000249386C30.8629 -0.000252283 4.00001 26.8627 4.00001 59.9997C4 93.1368 30.8629 120 64 120C97.1371 120 124 93.1368 124 59.9998C124 26.8627 97.1371 -0.000246489 64 -0.000249386Z" fill="#231815"/>
<path d="M64 118C96.0325 118 122 92.0325 122 60C122 27.9675 96.0325 2 64 2C31.9675 2 6 27.9675 6 60C6 92.0325 31.9675 118 64 118Z" stroke="black" stroke-opacity="0.097"/>
<path d="M86.2371 74.2434C89.1947 78.1701 92.2449 82.1881 95.295 86.2061C89.1947 93.329 81.6157 97.8949 72.4653 99.8126C62.2983 101.913 52.6858 100.36 43.3506 95.2466C51.6691 89.1283 59.8028 83.1013 68.0288 77.0743C69.8774 78.8093 71.6335 80.5444 73.3896 82.1881C75.3306 84.0145 74.5912 84.1058 77.0867 82.736C80.5065 80.8183 83.3718 78.1701 85.5901 74.9739C85.6825 74.7913 85.8673 74.6087 85.9598 74.426C85.8673 74.426 85.9598 74.426 86.2371 74.2434V74.2434ZM49.913 82.2794C47.6023 84.0145 45.4765 85.5669 43.3506 87.2106C41.7794 88.3978 40.2081 89.4936 38.6368 90.6807C37.9898 91.2286 37.5277 91.2286 36.7883 90.5894C29.7638 84.3797 25.3273 76.709 23.6636 67.5771C21.9999 58.354 23.4787 49.5874 27.9152 41.2774C28.0077 41.0948 28.1925 40.8208 28.2849 40.6382C28.2849 40.5469 28.3774 40.5469 28.5622 40.4556C34.6625 48.4003 40.8551 56.345 46.9553 64.2897C46.7705 64.5636 46.678 64.7463 46.4932 64.9289C44.6446 66.8466 42.7961 68.7643 40.8551 70.5906C40.3005 71.1386 40.2081 71.5952 40.5778 72.2344C42.5188 75.8871 45.1992 78.9006 48.5266 81.3662C48.9887 81.6402 49.3584 81.9141 49.913 82.2794V82.2794ZM84.3885 25.5706C81.4308 27.671 78.4731 29.7713 75.5155 31.7803C70.4319 35.3417 65.3484 38.9945 60.3573 42.5559C59.7103 43.0125 59.2482 43.1038 58.6936 42.4646C57.0299 40.7295 55.2738 39.1771 53.6101 37.442C53.148 36.9855 52.6858 36.8941 52.0388 37.1681C48.0645 39.1771 44.9219 42.008 42.3339 45.5694C42.1491 45.752 41.9642 46.026 41.7794 46.2999C40.3005 44.3822 38.9141 42.6472 37.5277 40.8208C36.0489 38.9031 34.6625 36.9855 33.276 35.1591C32.8139 34.5199 32.7215 34.0633 33.3685 33.424C40.4854 25.662 49.266 21.096 59.8028 20.0002C68.1212 19.087 76.07 20.7308 83.4642 24.6575C83.7415 24.8401 84.0188 24.9314 84.2961 25.114C84.2961 25.388 84.2961 25.4793 84.3885 25.5706V25.5706ZM99.4542 80.3617C97.5132 77.8961 95.7571 75.6132 94.001 73.3302C89.9342 68.0337 85.8673 62.6459 81.7081 57.3495C81.1535 56.6189 81.1535 56.1623 81.8005 55.5231C83.5567 53.7881 85.2204 52.053 86.9765 50.3179C87.4386 49.8614 87.6235 49.4048 87.2538 48.7655C85.2203 44.9302 82.4475 41.734 78.8428 39.1771C78.5656 38.9945 78.2883 38.7205 77.9186 38.5379C78.1959 38.2639 78.4731 38.0813 78.658 37.8986C82.1702 35.2504 85.6825 32.6935 89.1947 30.0452C89.7493 29.5887 90.2114 29.406 90.8584 30.0452C99.6391 37.8986 104.353 47.6697 104.815 59.4498C105 66.2987 103.429 72.7823 100.286 78.9006C100.009 79.2659 99.7315 79.7225 99.4542 80.3617V80.3617Z" fill="white"/>
</g>
<defs>
<clipPath id="clip0">
<rect width="128" height="128" fill="white"/>
</clipPath>
</defs>
</svg>
